<?xml version="1.0" encoding="utf-8"?>
<svg xmlns="http://www.w3.org/2000/svg" xmlns:xlink="http://www.w3.org/1999/xlink" width="600" height="400" viewBox="0 0 2400 1600">
<defs>
  <clipPath id="clip380">
    <rect x="0" y="0" width="2400" height="1600"/>
  </clipPath>
</defs>
<path clip-path="url(#clip380)" d="
M0 1600 L2400 1600 L2400 0 L0 0  Z
  " fill="#ffffff" fill-rule="evenodd" fill-opacity="1"/>
<defs>
  <clipPath id="clip381">
    <rect x="480" y="0" width="1681" height="1600"/>
  </clipPath>
</defs>
<path clip-path="url(#clip380)" d="
M234.125 1423.18 L2352.76 1423.18 L2352.76 47.2441 L234.125 47.2441  Z
  " fill="#ffffff" fill-rule="evenodd" fill-opacity="1"/>
<defs>
  <clipPath id="clip382">
    <rect x="234" y="47" width="2120" height="1377"/>
  </clipPath>
</defs>
<polyline clip-path="url(#clip382)" style="stroke:#000000; stroke-linecap:butt; stroke-linejoin:round; stroke-width:2; stroke-opacity:0.1; fill:none" points="
  292.42,1423.18 292.42,47.2441 
  "/>
<polyline clip-path="url(#clip382)" style="stroke:#000000; stroke-linecap:butt; stroke-linejoin:round; stroke-width:2; stroke-opacity:0.1; fill:none" points="
  709.164,1423.18 709.164,47.2441 
  "/>
<polyline clip-path="url(#clip382)" style="stroke:#000000; stroke-linecap:butt; stroke-linejoin:round; stroke-width:2; stroke-opacity:0.1; fill:none" points="
  1125.91,1423.18 1125.91,47.2441 
  "/>
<polyline clip-path="url(#clip382)" style="stroke:#000000; stroke-linecap:butt; stroke-linejoin:round; stroke-width:2; stroke-opacity:0.1; fill:none" points="
  1542.65,1423.18 1542.65,47.2441 
  "/>
<polyline clip-path="url(#clip382)" style="stroke:#000000; stroke-linecap:butt; stroke-linejoin:round; stroke-width:2; stroke-opacity:0.1; fill:none" points="
  1959.4,1423.18 1959.4,47.2441 
  "/>
<polyline clip-path="url(#clip380)" style="stroke:#000000; stroke-linecap:butt; stroke-linejoin:round; stroke-width:4; stroke-opacity:1; fill:none" points="
  234.125,1423.18 2352.76,1423.18 
  "/>
<polyline clip-path="url(#clip380)" style="stroke:#000000; stroke-linecap:butt; stroke-linejoin:round; stroke-width:4; stroke-opacity:1; fill:none" points="
  292.42,1423.18 292.42,1404.28 
  "/>
<polyline clip-path="url(#clip380)" style="stroke:#000000; stroke-linecap:butt; stroke-linejoin:round; stroke-width:4; stroke-opacity:1; fill:none" points="
  709.164,1423.18 709.164,1404.28 
  "/>
<polyline clip-path="url(#clip380)" style="stroke:#000000; stroke-linecap:butt; stroke-linejoin:round; stroke-width:4; stroke-opacity:1; fill:none" points="
  1125.91,1423.18 1125.91,1404.28 
  "/>
<polyline clip-path="url(#clip380)" style="stroke:#000000; stroke-linecap:butt; stroke-linejoin:round; stroke-width:4; stroke-opacity:1; fill:none" points="
  1542.65,1423.18 1542.65,1404.28 
  "/>
<polyline clip-path="url(#clip380)" style="stroke:#000000; stroke-linecap:butt; stroke-linejoin:round; stroke-width:4; stroke-opacity:1; fill:none" points="
  1959.4,1423.18 1959.4,1404.28 
  "/>
<path clip-path="url(#clip380)" d="M269.804 1452.37 Q266.193 1452.37 264.364 1455.94 Q262.559 1459.48 262.559 1466.61 Q262.559 1473.71 264.364 1477.28 Q266.193 1480.82 269.804 1480.82 Q273.438 1480.82 275.244 1477.28 Q277.073 1473.71 277.073 1466.61 Q277.073 1459.48 275.244 1455.94 Q273.438 1452.37 269.804 1452.37 M269.804 1448.67 Q275.614 1448.67 278.67 1453.27 Q281.748 1457.86 281.748 1466.61 Q281.748 1475.33 278.67 1479.94 Q275.614 1484.52 269.804 1484.52 Q263.994 1484.52 260.915 1479.94 Q257.86 1475.33 257.86 1466.61 Q257.86 1457.86 260.915 1453.27 Q263.994 1448.67 269.804 1448.67 Z" fill="#000000" fill-rule="evenodd" fill-opacity="1" /><path clip-path="url(#clip380)" d="M289.966 1477.97 L294.85 1477.97 L294.85 1483.85 L289.966 1483.85 L289.966 1477.97 Z" fill="#000000" fill-rule="evenodd" fill-opacity="1" /><path clip-path="url(#clip380)" d="M315.035 1452.37 Q311.424 1452.37 309.596 1455.94 Q307.79 1459.48 307.79 1466.61 Q307.79 1473.71 309.596 1477.28 Q311.424 1480.82 315.035 1480.82 Q318.67 1480.82 320.475 1477.28 Q322.304 1473.71 322.304 1466.61 Q322.304 1459.48 320.475 1455.94 Q318.67 1452.37 315.035 1452.37 M315.035 1448.67 Q320.845 1448.67 323.901 1453.27 Q326.98 1457.86 326.98 1466.61 Q326.98 1475.33 323.901 1479.94 Q320.845 1484.52 315.035 1484.52 Q309.225 1484.52 306.146 1479.94 Q303.091 1475.33 303.091 1466.61 Q303.091 1457.86 306.146 1453.27 Q309.225 1448.67 315.035 1448.67 Z" fill="#000000" fill-rule="evenodd" fill-opacity="1" /><path clip-path="url(#clip380)" d="M680.901 1479.92 L697.22 1479.92 L697.22 1483.85 L675.276 1483.85 L675.276 1479.92 Q677.938 1477.16 682.521 1472.53 Q687.128 1467.88 688.308 1466.54 Q690.553 1464.01 691.433 1462.28 Q692.336 1460.52 692.336 1458.83 Q692.336 1456.07 690.391 1454.34 Q688.47 1452.6 685.368 1452.6 Q683.169 1452.6 680.716 1453.37 Q678.285 1454.13 675.507 1455.68 L675.507 1450.96 Q678.331 1449.82 680.785 1449.25 Q683.239 1448.67 685.276 1448.67 Q690.646 1448.67 693.84 1451.35 Q697.035 1454.04 697.035 1458.53 Q697.035 1460.66 696.225 1462.58 Q695.438 1464.48 693.331 1467.07 Q692.753 1467.74 689.651 1470.96 Q686.549 1474.15 680.901 1479.92 Z" fill="#000000" fill-rule="evenodd" fill-opacity="1" /><path clip-path="url(#clip380)" d="M707.035 1477.97 L711.919 1477.97 L711.919 1483.85 L707.035 1483.85 L707.035 1477.97 Z" fill="#000000" fill-rule="evenodd" fill-opacity="1" /><path clip-path="url(#clip380)" d="M722.151 1449.29 L740.507 1449.29 L740.507 1453.23 L726.433 1453.23 L726.433 1461.7 Q727.451 1461.35 728.47 1461.19 Q729.488 1461 730.507 1461 Q736.294 1461 739.674 1464.18 Q743.053 1467.35 743.053 1472.76 Q743.053 1478.34 739.581 1481.44 Q736.109 1484.52 729.789 1484.52 Q727.613 1484.52 725.345 1484.15 Q723.1 1483.78 720.692 1483.04 L720.692 1478.34 Q722.776 1479.48 724.998 1480.03 Q727.22 1480.59 729.697 1480.59 Q733.701 1480.59 736.039 1478.48 Q738.377 1476.38 738.377 1472.76 Q738.377 1469.15 736.039 1467.05 Q733.701 1464.94 729.697 1464.94 Q727.822 1464.94 725.947 1465.36 Q724.095 1465.77 722.151 1466.65 L722.151 1449.29 Z" fill="#000000" fill-rule="evenodd" fill-opacity="1" /><path clip-path="url(#clip380)" d="M1093.07 1449.29 L1111.43 1449.29 L1111.43 1453.23 L1097.36 1453.23 L1097.36 1461.7 Q1098.37 1461.35 1099.39 1461.19 Q1100.41 1461 1101.43 1461 Q1107.22 1461 1110.6 1464.18 Q1113.98 1467.35 1113.98 1472.76 Q1113.98 1478.34 1110.5 1481.44 Q1107.03 1484.52 1100.71 1484.52 Q1098.54 1484.52 1096.27 1484.15 Q1094.02 1483.78 1091.62 1483.04 L1091.62 1478.34 Q1093.7 1479.48 1095.92 1480.03 Q1098.14 1480.59 1100.62 1480.59 Q1104.62 1480.59 1106.96 1478.48 Q1109.3 1476.38 1109.3 1472.76 Q1109.3 1469.15 1106.96 1467.05 Q1104.62 1464.94 1100.62 1464.94 Q1098.75 1464.94 1096.87 1465.36 Q1095.02 1465.77 1093.07 1466.65 L1093.07 1449.29 Z" fill="#000000" fill-rule="evenodd" fill-opacity="1" /><path clip-path="url(#clip380)" d="M1123.19 1477.97 L1128.07 1477.97 L1128.07 1483.85 L1123.19 1483.85 L1123.19 1477.97 Z" fill="#000000" fill-rule="evenodd" fill-opacity="1" /><path clip-path="url(#clip380)" d="M1148.26 1452.37 Q1144.65 1452.37 1142.82 1455.94 Q1141.01 1459.48 1141.01 1466.61 Q1141.01 1473.71 1142.82 1477.28 Q1144.65 1480.82 1148.26 1480.82 Q1151.89 1480.82 1153.7 1477.28 Q1155.53 1473.71 1155.53 1466.61 Q1155.53 1459.48 1153.7 1455.94 Q1151.89 1452.37 1148.26 1452.37 M1148.26 1448.67 Q1154.07 1448.67 1157.12 1453.27 Q1160.2 1457.86 1160.2 1466.61 Q1160.2 1475.33 1157.12 1479.94 Q1154.07 1484.52 1148.26 1484.52 Q1142.45 1484.52 1139.37 1479.94 Q1136.31 1475.33 1136.31 1466.61 Q1136.31 1457.86 1139.37 1453.27 Q1142.45 1448.67 1148.26 1448.67 Z" fill="#000000" fill-rule="evenodd" fill-opacity="1" /><path clip-path="url(#clip380)" d="M1508.97 1449.29 L1531.2 1449.29 L1531.2 1451.28 L1518.65 1483.85 L1513.77 1483.85 L1525.57 1453.23 L1508.97 1453.23 L1508.97 1449.29 Z" fill="#000000" fill-rule="evenodd" fill-opacity="1" /><path clip-path="url(#clip380)" d="M1540.32 1477.97 L1545.2 1477.97 L1545.2 1483.85 L1540.32 1483.85 L1540.32 1477.97 Z" fill="#000000" fill-rule="evenodd" fill-opacity="1" /><path clip-path="url(#clip380)" d="M1555.43 1449.29 L1573.79 1449.29 L1573.79 1453.23 L1559.71 1453.23 L1559.71 1461.7 Q1560.73 1461.35 1561.75 1461.19 Q1562.77 1461 1563.79 1461 Q1569.58 1461 1572.95 1464.18 Q1576.33 1467.35 1576.33 1472.76 Q1576.33 1478.34 1572.86 1481.44 Q1569.39 1484.52 1563.07 1484.52 Q1560.89 1484.52 1558.63 1484.15 Q1556.38 1483.78 1553.97 1483.04 L1553.97 1478.34 Q1556.06 1479.48 1558.28 1480.03 Q1560.5 1480.59 1562.98 1480.59 Q1566.98 1480.59 1569.32 1478.48 Q1571.66 1476.38 1571.66 1472.76 Q1571.66 1469.15 1569.32 1467.05 Q1566.98 1464.94 1562.98 1464.94 Q1561.1 1464.94 1559.23 1465.36 Q1557.38 1465.77 1555.43 1466.65 L1555.43 1449.29 Z" fill="#000000" fill-rule="evenodd" fill-opacity="1" /><path clip-path="url(#clip380)" d="M1911.47 1479.92 L1919.11 1479.92 L1919.11 1453.55 L1910.8 1455.22 L1910.8 1450.96 L1919.06 1449.29 L1923.74 1449.29 L1923.74 1479.92 L1931.38 1479.92 L1931.38 1483.85 L1911.47 1483.85 L1911.47 1479.92 Z" fill="#000000" fill-rule="evenodd" fill-opacity="1" /><path clip-path="url(#clip380)" d="M1950.82 1452.37 Q1947.21 1452.37 1945.38 1455.94 Q1943.58 1459.48 1943.58 1466.61 Q1943.58 1473.71 1945.38 1477.28 Q1947.21 1480.82 1950.82 1480.82 Q1954.46 1480.82 1956.26 1477.28 Q1958.09 1473.71 1958.09 1466.61 Q1958.09 1459.48 1956.26 1455.94 Q1954.46 1452.37 1950.82 1452.37 M1950.82 1448.67 Q1956.63 1448.67 1959.69 1453.27 Q1962.77 1457.86 1962.77 1466.61 Q1962.77 1475.33 1959.69 1479.94 Q1956.63 1484.52 1950.82 1484.52 Q1945.01 1484.52 1941.93 1479.94 Q1938.88 1475.33 1938.88 1466.61 Q1938.88 1457.86 1941.93 1453.27 Q1945.01 1448.67 1950.82 1448.67 Z" fill="#000000" fill-rule="evenodd" fill-opacity="1" /><path clip-path="url(#clip380)" d="M1970.98 1477.97 L1975.87 1477.97 L1975.87 1483.85 L1970.98 1483.85 L1970.98 1477.97 Z" fill="#000000" fill-rule="evenodd" fill-opacity="1" /><path clip-path="url(#clip380)" d="M1996.05 1452.37 Q1992.44 1452.37 1990.61 1455.94 Q1988.81 1459.48 1988.81 1466.61 Q1988.81 1473.71 1990.61 1477.28 Q1992.44 1480.82 1996.05 1480.82 Q1999.69 1480.82 2001.49 1477.28 Q2003.32 1473.71 2003.32 1466.61 Q2003.32 1459.48 2001.49 1455.94 Q1999.69 1452.37 1996.05 1452.37 M1996.05 1448.67 Q2001.86 1448.67 2004.92 1453.27 Q2008 1457.86 2008 1466.61 Q2008 1475.33 2004.92 1479.94 Q2001.86 1484.52 1996.05 1484.52 Q1990.24 1484.52 1987.16 1479.94 Q1984.11 1475.33 1984.11 1466.61 Q1984.11 1457.86 1987.16 1453.27 Q1990.24 1448.67 1996.05 1448.67 Z" fill="#000000" fill-rule="evenodd" fill-opacity="1" /><path clip-path="url(#clip380)" d="M857.613 1526.86 L848.892 1550.51 L866.365 1550.51 L857.613 1526.86 M853.984 1520.52 L861.273 1520.52 L879.383 1568.04 L872.699 1568.04 L868.371 1555.85 L846.95 1555.85 L842.621 1568.04 L835.842 1568.04 L853.984 1520.52 Z" fill="#000000" fill-rule="evenodd" fill-opacity="1" /><path clip-path="url(#clip380)" d="M911.657 1550.25 Q911.657 1543.79 908.984 1540.13 Q906.342 1536.44 901.695 1536.44 Q897.048 1536.44 894.375 1540.13 Q891.733 1543.79 891.733 1550.25 Q891.733 1556.71 894.375 1560.4 Q897.048 1564.07 901.695 1564.07 Q906.342 1564.07 908.984 1560.4 Q911.657 1556.71 911.657 1550.25 M891.733 1537.81 Q893.579 1534.62 896.38 1533.1 Q899.212 1531.54 903.127 1531.54 Q909.62 1531.54 913.663 1536.69 Q917.737 1541.85 917.737 1550.25 Q917.737 1558.65 913.663 1563.81 Q909.62 1568.97 903.127 1568.97 Q899.212 1568.97 896.38 1567.44 Q893.579 1565.88 891.733 1562.7 L891.733 1568.04 L885.844 1568.04 L885.844 1518.52 L891.733 1518.52 L891.733 1537.81 Z" fill="#000000" fill-rule="evenodd" fill-opacity="1" /><path clip-path="url(#clip380)" d="M950.17 1533.45 L950.17 1538.98 Q947.687 1537.71 945.014 1537.07 Q942.34 1536.44 939.476 1536.44 Q935.115 1536.44 932.919 1537.77 Q930.755 1539.11 930.755 1541.79 Q930.755 1543.82 932.314 1545 Q933.874 1546.15 938.584 1547.2 L940.59 1547.64 Q946.828 1548.98 949.438 1551.43 Q952.08 1553.85 952.08 1558.21 Q952.08 1563.17 948.133 1566.07 Q944.218 1568.97 937.343 1568.97 Q934.478 1568.97 931.359 1568.39 Q928.272 1567.85 924.834 1566.74 L924.834 1560.69 Q928.081 1562.38 931.232 1563.24 Q934.383 1564.07 937.47 1564.07 Q941.608 1564.07 943.836 1562.66 Q946.064 1561.23 946.064 1558.65 Q946.064 1556.27 944.441 1554.99 Q942.849 1553.72 937.407 1552.54 L935.37 1552.07 Q929.927 1550.92 927.508 1548.56 Q925.089 1546.18 925.089 1542.04 Q925.089 1537.01 928.654 1534.27 Q932.219 1531.54 938.775 1531.54 Q942.022 1531.54 944.886 1532.01 Q947.751 1532.49 950.17 1533.45 Z" fill="#000000" fill-rule="evenodd" fill-opacity="1" /><path clip-path="url(#clip380)" d="M967.198 1522.27 L967.198 1532.4 L979.261 1532.4 L979.261 1536.95 L967.198 1536.95 L967.198 1556.3 Q967.198 1560.66 968.376 1561.9 Q969.585 1563.14 973.246 1563.14 L979.261 1563.14 L979.261 1568.04 L973.246 1568.04 Q966.466 1568.04 963.888 1565.53 Q961.31 1562.98 961.31 1556.3 L961.31 1536.95 L957.013 1536.95 L957.013 1532.4 L961.31 1532.4 L961.31 1522.27 L967.198 1522.27 Z" fill="#000000" fill-rule="evenodd" fill-opacity="1" /><path clip-path="url(#clip380)" d="M1003.16 1550.12 Q996.067 1550.12 993.329 1551.75 Q990.592 1553.37 990.592 1557.29 Q990.592 1560.4 992.629 1562.25 Q994.698 1564.07 998.231 1564.07 Q1003.1 1564.07 1006.03 1560.63 Q1008.99 1557.16 1008.99 1551.43 L1008.99 1550.12 L1003.16 1550.12 M1014.85 1547.71 L1014.85 1568.04 L1008.99 1568.04 L1008.99 1562.63 Q1006.98 1565.88 1003.99 1567.44 Q1001 1568.97 996.671 1568.97 Q991.197 1568.97 987.95 1565.91 Q984.736 1562.82 984.736 1557.67 Q984.736 1551.65 988.746 1548.6 Q992.788 1545.54 1000.78 1545.54 L1008.99 1545.54 L1008.99 1544.97 Q1008.99 1540.93 1006.32 1538.73 Q1003.67 1536.5 998.868 1536.5 Q995.812 1536.5 992.916 1537.23 Q990.019 1537.97 987.346 1539.43 L987.346 1534.02 Q990.56 1532.78 993.584 1532.17 Q996.608 1531.54 999.472 1531.54 Q1007.21 1531.54 1011.03 1535.55 Q1014.85 1539.56 1014.85 1547.71 Z" fill="#000000" fill-rule="evenodd" fill-opacity="1" /><path clip-path="url(#clip380)" d="M1056.54 1546.53 L1056.54 1568.04 L1050.68 1568.04 L1050.68 1546.72 Q1050.68 1541.66 1048.71 1539.14 Q1046.74 1536.63 1042.79 1536.63 Q1038.05 1536.63 1035.31 1539.65 Q1032.57 1542.68 1032.57 1547.9 L1032.57 1568.04 L1026.69 1568.04 L1026.69 1532.4 L1032.57 1532.4 L1032.57 1537.93 Q1034.67 1534.72 1037.51 1533.13 Q1040.37 1531.54 1044.1 1531.54 Q1050.24 1531.54 1053.39 1535.36 Q1056.54 1539.14 1056.54 1546.53 Z" fill="#000000" fill-rule="evenodd" fill-opacity="1" /><path clip-path="url(#clip380)" d="M1091.68 1537.81 L1091.68 1518.52 L1097.54 1518.52 L1097.54 1568.04 L1091.68 1568.04 L1091.68 1562.7 Q1089.83 1565.88 1087 1567.44 Q1084.2 1568.97 1080.25 1568.97 Q1073.79 1568.97 1069.72 1563.81 Q1065.68 1558.65 1065.68 1550.25 Q1065.68 1541.85 1069.72 1536.69 Q1073.79 1531.54 1080.25 1531.54 Q1084.2 1531.54 1087 1533.1 Q1089.83 1534.62 1091.68 1537.81 M1071.72 1550.25 Q1071.72 1556.71 1074.36 1560.4 Q1077.04 1564.07 1081.69 1564.07 Q1086.33 1564.07 1089.01 1560.4 Q1091.68 1556.71 1091.68 1550.25 Q1091.68 1543.79 1089.01 1540.13 Q1086.33 1536.44 1081.69 1536.44 Q1077.04 1536.44 1074.36 1540.13 Q1071.72 1543.79 1071.72 1550.25 Z" fill="#000000" fill-rule="evenodd" fill-opacity="1" /><path clip-path="url(#clip380)" d="M1126.12 1532.4 L1132.32 1532.4 L1143.46 1562.31 L1154.6 1532.4 L1160.81 1532.4 L1147.44 1568.04 L1139.49 1568.04 L1126.12 1532.4 Z" fill="#000000" fill-rule="evenodd" fill-opacity="1" /><path clip-path="url(#clip380)" d="M1182.71 1536.5 Q1178 1536.5 1175.26 1540.19 Q1172.52 1543.85 1172.52 1550.25 Q1172.52 1556.65 1175.23 1560.34 Q1177.97 1564 1182.71 1564 Q1187.39 1564 1190.13 1560.31 Q1192.86 1556.62 1192.86 1550.25 Q1192.86 1543.92 1190.13 1540.23 Q1187.39 1536.5 1182.71 1536.5 M1182.71 1531.54 Q1190.35 1531.54 1194.71 1536.5 Q1199.07 1541.47 1199.07 1550.25 Q1199.07 1559 1194.71 1564 Q1190.35 1568.97 1182.71 1568.97 Q1175.04 1568.97 1170.68 1564 Q1166.35 1559 1166.35 1550.25 Q1166.35 1541.47 1170.68 1536.5 Q1175.04 1531.54 1182.71 1531.54 Z" fill="#000000" fill-rule="evenodd" fill-opacity="1" /><path clip-path="url(#clip380)" d="M1236.53 1539.24 Q1238.73 1535.29 1241.78 1533.41 Q1244.84 1531.54 1248.98 1531.54 Q1254.55 1531.54 1257.57 1535.45 Q1260.59 1539.33 1260.59 1546.53 L1260.59 1568.04 L1254.71 1568.04 L1254.71 1546.72 Q1254.71 1541.59 1252.89 1539.11 Q1251.08 1536.63 1247.35 1536.63 Q1242.8 1536.63 1240.16 1539.65 Q1237.52 1542.68 1237.52 1547.9 L1237.52 1568.04 L1231.63 1568.04 L1231.63 1546.72 Q1231.63 1541.56 1229.82 1539.11 Q1228 1536.63 1224.21 1536.63 Q1219.73 1536.63 1217.08 1539.68 Q1214.44 1542.71 1214.44 1547.9 L1214.44 1568.04 L1208.55 1568.04 L1208.55 1532.4 L1214.44 1532.4 L1214.44 1537.93 Q1216.45 1534.66 1219.25 1533.1 Q1222.05 1531.54 1225.9 1531.54 Q1229.78 1531.54 1232.49 1533.51 Q1235.23 1535.48 1236.53 1539.24 Z" fill="#000000" fill-rule="evenodd" fill-opacity="1" /><path clip-path="url(#clip380)" d="M1290.51 1520.52 L1327.85 1520.52 L1327.85 1525.43 L1297.8 1562.63 L1328.58 1562.63 L1328.58 1568.04 L1289.78 1568.04 L1289.78 1563.14 L1319.83 1525.93 L1290.51 1525.93 L1290.51 1520.52 Z" fill="#000000" fill-rule="evenodd" fill-opacity="1" /><path clip-path="url(#clip380)" d="M1368.14 1548.76 L1368.14 1551.62 L1341.22 1551.62 Q1341.6 1557.67 1344.84 1560.85 Q1348.12 1564 1353.95 1564 Q1357.32 1564 1360.47 1563.17 Q1363.65 1562.35 1366.77 1560.69 L1366.77 1566.23 Q1363.62 1567.57 1360.31 1568.27 Q1357 1568.97 1353.6 1568.97 Q1345.07 1568.97 1340.07 1564 Q1335.1 1559.04 1335.1 1550.57 Q1335.1 1541.82 1339.81 1536.69 Q1344.56 1531.54 1352.58 1531.54 Q1359.77 1531.54 1363.94 1536.18 Q1368.14 1540.8 1368.14 1548.76 M1362.29 1547.04 Q1362.22 1542.23 1359.58 1539.37 Q1356.97 1536.5 1352.64 1536.5 Q1347.74 1536.5 1344.78 1539.27 Q1341.85 1542.04 1341.41 1547.07 L1362.29 1547.04 Z" fill="#000000" fill-rule="evenodd" fill-opacity="1" /><path clip-path="url(#clip380)" d="M1407.39 1546.53 L1407.39 1568.04 L1401.53 1568.04 L1401.53 1546.72 Q1401.53 1541.66 1399.56 1539.14 Q1397.58 1536.63 1393.64 1536.63 Q1388.89 1536.63 1386.16 1539.65 Q1383.42 1542.68 1383.42 1547.9 L1383.42 1568.04 L1377.53 1568.04 L1377.53 1532.4 L1383.42 1532.4 L1383.42 1537.93 Q1385.52 1534.72 1388.35 1533.13 Q1391.22 1531.54 1394.94 1531.54 Q1401.08 1531.54 1404.24 1535.36 Q1407.39 1539.14 1407.39 1546.53 Z" fill="#000000" fill-rule="evenodd" fill-opacity="1" /><path clip-path="url(#clip380)" d="M1424.86 1522.27 L1424.86 1532.4 L1436.92 1532.4 L1436.92 1536.95 L1424.86 1536.95 L1424.86 1556.3 Q1424.86 1560.66 1426.04 1561.9 Q1427.25 1563.14 1430.91 1563.14 L1436.92 1563.14 L1436.92 1568.04 L1430.91 1568.04 Q1424.13 1568.04 1421.55 1565.53 Q1418.97 1562.98 1418.97 1556.3 L1418.97 1536.95 L1414.68 1536.95 L1414.68 1532.4 L1418.97 1532.4 L1418.97 1522.27 L1424.86 1522.27 Z" fill="#000000" fill-rule="evenodd" fill-opacity="1" /><path clip-path="url(#clip380)" d="M1465.28 1537.87 Q1464.3 1537.3 1463.12 1537.04 Q1461.97 1536.76 1460.57 1536.76 Q1455.61 1536.76 1452.93 1540 Q1450.29 1543.22 1450.29 1549.27 L1450.29 1568.04 L1444.4 1568.04 L1444.4 1532.4 L1450.29 1532.4 L1450.29 1537.93 Q1452.14 1534.69 1455.1 1533.13 Q1458.06 1531.54 1462.29 1531.54 Q1462.9 1531.54 1463.63 1531.63 Q1464.36 1531.7 1465.25 1531.85 L1465.28 1537.87 Z" fill="#000000" fill-rule="evenodd" fill-opacity="1" /><path clip-path="url(#clip380)" d="M1470.82 1553.98 L1470.82 1532.4 L1476.68 1532.4 L1476.68 1553.75 Q1476.68 1558.81 1478.65 1561.36 Q1480.62 1563.87 1484.57 1563.87 Q1489.31 1563.87 1492.05 1560.85 Q1494.82 1557.83 1494.82 1552.61 L1494.82 1532.4 L1500.68 1532.4 L1500.68 1568.04 L1494.82 1568.04 L1494.82 1562.57 Q1492.69 1565.82 1489.85 1567.41 Q1487.05 1568.97 1483.33 1568.97 Q1477.19 1568.97 1474 1565.15 Q1470.82 1561.33 1470.82 1553.98 M1485.56 1531.54 L1485.56 1531.54 Z" fill="#000000" fill-rule="evenodd" fill-opacity="1" /><path clip-path="url(#clip380)" d="M1540.49 1539.24 Q1542.69 1535.29 1545.75 1533.41 Q1548.8 1531.54 1552.94 1531.54 Q1558.51 1531.54 1561.53 1535.45 Q1564.56 1539.33 1564.56 1546.53 L1564.56 1568.04 L1558.67 1568.04 L1558.67 1546.72 Q1558.67 1541.59 1556.85 1539.11 Q1555.04 1536.63 1551.32 1536.63 Q1546.76 1536.63 1544.12 1539.65 Q1541.48 1542.68 1541.48 1547.9 L1541.48 1568.04 L1535.59 1568.04 L1535.59 1546.72 Q1535.59 1541.56 1533.78 1539.11 Q1531.96 1536.63 1528.18 1536.63 Q1523.69 1536.63 1521.05 1539.68 Q1518.4 1542.71 1518.4 1547.9 L1518.4 1568.04 L1512.52 1568.04 L1512.52 1532.4 L1518.4 1532.4 L1518.4 1537.93 Q1520.41 1534.66 1523.21 1533.1 Q1526.01 1531.54 1529.86 1531.54 Q1533.75 1531.54 1536.45 1533.51 Q1539.19 1535.48 1540.49 1539.24 Z" fill="#000000" fill-rule="evenodd" fill-opacity="1" /><path clip-path="url(#clip380)" d="M1596.42 1518.52 L1609.91 1518.52 L1609.91 1523.07 L1602.27 1523.07 L1602.27 1572.09 L1609.91 1572.09 L1609.91 1576.64 L1596.42 1576.64 L1596.42 1518.52 Z" fill="#000000" fill-rule="evenodd" fill-opacity="1" /><path clip-path="url(#clip380)" d="M1622.17 1518.52 L1628.05 1518.52 L1628.05 1547.77 L1645.53 1532.4 L1653.01 1532.4 L1634.1 1549.07 L1653.8 1568.04 L1646.16 1568.04 L1628.05 1550.63 L1628.05 1568.04 L1622.17 1568.04 L1622.17 1518.52 Z" fill="#000000" fill-rule="evenodd" fill-opacity="1" /><path clip-path="url(#clip380)" d="M1665.8 1562.7 L1665.8 1581.6 L1659.91 1581.6 L1659.91 1532.4 L1665.8 1532.4 L1665.8 1537.81 Q1667.65 1534.62 1670.45 1533.1 Q1673.28 1531.54 1677.2 1531.54 Q1683.69 1531.54 1687.73 1536.69 Q1691.81 1541.85 1691.81 1550.25 Q1691.81 1558.65 1687.73 1563.81 Q1683.69 1568.97 1677.2 1568.97 Q1673.28 1568.97 1670.45 1567.44 Q1667.65 1565.88 1665.8 1562.7 M1685.73 1550.25 Q1685.73 1543.79 1683.05 1540.13 Q1680.41 1536.44 1675.77 1536.44 Q1671.12 1536.44 1668.44 1540.13 Q1665.8 1543.79 1665.8 1550.25 Q1665.8 1556.71 1668.44 1560.4 Q1671.12 1564.07 1675.77 1564.07 Q1680.41 1564.07 1683.05 1560.4 Q1685.73 1556.71 1685.73 1550.25 Z" fill="#000000" fill-rule="evenodd" fill-opacity="1" /><path clip-path="url(#clip380)" d="M1727.17 1533.76 L1727.17 1539.24 Q1724.69 1537.87 1722.17 1537.2 Q1719.69 1536.5 1717.14 1536.5 Q1711.44 1536.5 1708.29 1540.13 Q1705.14 1543.73 1705.14 1550.25 Q1705.14 1556.78 1708.29 1560.4 Q1711.44 1564 1717.14 1564 Q1719.69 1564 1722.17 1563.33 Q1724.69 1562.63 1727.17 1561.26 L1727.17 1566.68 Q1724.72 1567.82 1722.08 1568.39 Q1719.47 1568.97 1716.51 1568.97 Q1708.45 1568.97 1703.71 1563.91 Q1698.97 1558.85 1698.97 1550.25 Q1698.97 1541.53 1703.74 1536.53 Q1708.55 1531.54 1716.89 1531.54 Q1719.59 1531.54 1722.17 1532.11 Q1724.75 1532.65 1727.17 1533.76 Z" fill="#000000" fill-rule="evenodd" fill-opacity="1" /><path clip-path="url(#clip380)" d="M1751.04 1518.52 L1751.04 1576.64 L1737.54 1576.64 L1737.54 1572.09 L1745.15 1572.09 L1745.15 1523.07 L1737.54 1523.07 L1737.54 1518.52 L1751.04 1518.52 Z" fill="#000000" fill-rule="evenodd" fill-opacity="1" /><polyline clip-path="url(#clip382)" style="stroke:#000000; stroke-linecap:butt; stroke-linejoin:round; stroke-width:2; stroke-opacity:0.1; fill:none" points="
  234.125,1384.24 2352.76,1384.24 
  "/>
<polyline clip-path="url(#clip382)" style="stroke:#000000; stroke-linecap:butt; stroke-linejoin:round; stroke-width:2; stroke-opacity:0.1; fill:none" points="
  234.125,1059.73 2352.76,1059.73 
  "/>
<polyline clip-path="url(#clip382)" style="stroke:#000000; stroke-linecap:butt; stroke-linejoin:round; stroke-width:2; stroke-opacity:0.1; fill:none" points="
  234.125,735.212 2352.76,735.212 
  "/>
<polyline clip-path="url(#clip382)" style="stroke:#000000; stroke-linecap:butt; stroke-linejoin:round; stroke-width:2; stroke-opacity:0.1; fill:none" points="
  234.125,410.699 2352.76,410.699 
  "/>
<polyline clip-path="url(#clip382)" style="stroke:#000000; stroke-linecap:butt; stroke-linejoin:round; stroke-width:2; stroke-opacity:0.1; fill:none" points="
  234.125,86.1857 2352.76,86.1857 
  "/>
<polyline clip-path="url(#clip380)" style="stroke:#000000; stroke-linecap:butt; stroke-linejoin:round; stroke-width:4; stroke-opacity:1; fill:none" points="
  234.125,1423.18 234.125,47.2441 
  "/>
<polyline clip-path="url(#clip380)" style="stroke:#000000; stroke-linecap:butt; stroke-linejoin:round; stroke-width:4; stroke-opacity:1; fill:none" points="
  234.125,1384.24 253.023,1384.24 
  "/>
<polyline clip-path="url(#clip380)" style="stroke:#000000; stroke-linecap:butt; stroke-linejoin:round; stroke-width:4; stroke-opacity:1; fill:none" points="
  234.125,1059.73 253.023,1059.73 
  "/>
<polyline clip-path="url(#clip380)" style="stroke:#000000; stroke-linecap:butt; stroke-linejoin:round; stroke-width:4; stroke-opacity:1; fill:none" points="
  234.125,735.212 253.023,735.212 
  "/>
<polyline clip-path="url(#clip380)" style="stroke:#000000; stroke-linecap:butt; stroke-linejoin:round; stroke-width:4; stroke-opacity:1; fill:none" points="
  234.125,410.699 253.023,410.699 
  "/>
<polyline clip-path="url(#clip380)" style="stroke:#000000; stroke-linecap:butt; stroke-linejoin:round; stroke-width:4; stroke-opacity:1; fill:none" points="
  234.125,86.1857 253.023,86.1857 
  "/>
<path clip-path="url(#clip380)" d="M186.181 1370.04 Q182.57 1370.04 180.741 1373.6 Q178.936 1377.14 178.936 1384.27 Q178.936 1391.38 180.741 1394.94 Q182.57 1398.49 186.181 1398.49 Q189.815 1398.49 191.621 1394.94 Q193.45 1391.38 193.45 1384.27 Q193.45 1377.14 191.621 1373.6 Q189.815 1370.04 186.181 1370.04 M186.181 1366.33 Q191.991 1366.33 195.047 1370.94 Q198.125 1375.52 198.125 1384.27 Q198.125 1393 195.047 1397.61 Q191.991 1402.19 186.181 1402.19 Q180.371 1402.19 177.292 1397.61 Q174.237 1393 174.237 1384.27 Q174.237 1375.52 177.292 1370.94 Q180.371 1366.33 186.181 1366.33 Z" fill="#000000" fill-rule="evenodd" fill-opacity="1" /><path clip-path="url(#clip380)" d="M146.066 1042.45 L164.422 1042.45 L164.422 1046.38 L150.348 1046.38 L150.348 1054.85 Q151.366 1054.51 152.385 1054.34 Q153.403 1054.16 154.422 1054.16 Q160.209 1054.16 163.589 1057.33 Q166.968 1060.5 166.968 1065.92 Q166.968 1071.5 163.496 1074.6 Q160.024 1077.68 153.704 1077.68 Q151.528 1077.68 149.26 1077.31 Q147.015 1076.94 144.607 1076.19 L144.607 1071.5 Q146.691 1072.63 148.913 1073.19 Q151.135 1073.74 153.612 1073.74 Q157.616 1073.74 159.954 1071.63 Q162.292 1069.53 162.292 1065.92 Q162.292 1062.31 159.954 1060.2 Q157.616 1058.09 153.612 1058.09 Q151.737 1058.09 149.862 1058.51 Q148.01 1058.93 146.066 1059.81 L146.066 1042.45 Z" fill="#000000" fill-rule="evenodd" fill-opacity="1" /><path clip-path="url(#clip380)" d="M186.181 1045.52 Q182.57 1045.52 180.741 1049.09 Q178.936 1052.63 178.936 1059.76 Q178.936 1066.87 180.741 1070.43 Q182.57 1073.97 186.181 1073.97 Q189.815 1073.97 191.621 1070.43 Q193.45 1066.87 193.45 1059.76 Q193.45 1052.63 191.621 1049.09 Q189.815 1045.52 186.181 1045.52 M186.181 1041.82 Q191.991 1041.82 195.047 1046.43 Q198.125 1051.01 198.125 1059.76 Q198.125 1068.49 195.047 1073.09 Q191.991 1077.68 186.181 1077.68 Q180.371 1077.68 177.292 1073.09 Q174.237 1068.49 174.237 1059.76 Q174.237 1051.01 177.292 1046.43 Q180.371 1041.82 186.181 1041.82 Z" fill="#000000" fill-rule="evenodd" fill-opacity="1" /><path clip-path="url(#clip380)" d="M116.668 748.557 L124.306 748.557 L124.306 722.191 L115.996 723.858 L115.996 719.599 L124.26 717.932 L128.936 717.932 L128.936 748.557 L136.575 748.557 L136.575 752.492 L116.668 752.492 L116.668 748.557 Z" fill="#000000" fill-rule="evenodd" fill-opacity="1" /><path clip-path="url(#clip380)" d="M156.019 721.011 Q152.408 721.011 150.579 724.575 Q148.774 728.117 148.774 735.247 Q148.774 742.353 150.579 745.918 Q152.408 749.46 156.019 749.46 Q159.653 749.46 161.459 745.918 Q163.288 742.353 163.288 735.247 Q163.288 728.117 161.459 724.575 Q159.653 721.011 156.019 721.011 M156.019 717.307 Q161.829 717.307 164.885 721.913 Q167.964 726.497 167.964 735.247 Q167.964 743.973 164.885 748.58 Q161.829 753.163 156.019 753.163 Q150.209 753.163 147.13 748.58 Q144.075 743.973 144.075 735.247 Q144.075 726.497 147.13 721.913 Q150.209 717.307 156.019 717.307 Z" fill="#000000" fill-rule="evenodd" fill-opacity="1" /><path clip-path="url(#clip380)" d="M186.181 721.011 Q182.57 721.011 180.741 724.575 Q178.936 728.117 178.936 735.247 Q178.936 742.353 180.741 745.918 Q182.57 749.46 186.181 749.46 Q189.815 749.46 191.621 745.918 Q193.45 742.353 193.45 735.247 Q193.45 728.117 191.621 724.575 Q189.815 721.011 186.181 721.011 M186.181 717.307 Q191.991 717.307 195.047 721.913 Q198.125 726.497 198.125 735.247 Q198.125 743.973 195.047 748.58 Q191.991 753.163 186.181 753.163 Q180.371 753.163 177.292 748.58 Q174.237 743.973 174.237 735.247 Q174.237 726.497 177.292 721.913 Q180.371 717.307 186.181 717.307 Z" fill="#000000" fill-rule="evenodd" fill-opacity="1" /><path clip-path="url(#clip380)" d="M116.668 424.044 L124.306 424.044 L124.306 397.678 L115.996 399.345 L115.996 395.085 L124.26 393.419 L128.936 393.419 L128.936 424.044 L136.575 424.044 L136.575 427.979 L116.668 427.979 L116.668 424.044 Z" fill="#000000" fill-rule="evenodd" fill-opacity="1" /><path clip-path="url(#clip380)" d="M146.066 393.419 L164.422 393.419 L164.422 397.354 L150.348 397.354 L150.348 405.826 Q151.366 405.479 152.385 405.317 Q153.403 405.132 154.422 405.132 Q160.209 405.132 163.589 408.303 Q166.968 411.474 166.968 416.891 Q166.968 422.47 163.496 425.571 Q160.024 428.65 153.704 428.65 Q151.528 428.65 149.26 428.28 Q147.015 427.909 144.607 427.169 L144.607 422.47 Q146.691 423.604 148.913 424.159 Q151.135 424.715 153.612 424.715 Q157.616 424.715 159.954 422.608 Q162.292 420.502 162.292 416.891 Q162.292 413.28 159.954 411.173 Q157.616 409.067 153.612 409.067 Q151.737 409.067 149.862 409.484 Q148.01 409.9 146.066 410.78 L146.066 393.419 Z" fill="#000000" fill-rule="evenodd" fill-opacity="1" /><path clip-path="url(#clip380)" d="M186.181 396.498 Q182.57 396.498 180.741 400.062 Q178.936 403.604 178.936 410.734 Q178.936 417.84 180.741 421.405 Q182.57 424.946 186.181 424.946 Q189.815 424.946 191.621 421.405 Q193.45 417.84 193.45 410.734 Q193.45 403.604 191.621 400.062 Q189.815 396.498 186.181 396.498 M186.181 392.794 Q191.991 392.794 195.047 397.4 Q198.125 401.984 198.125 410.734 Q198.125 419.46 195.047 424.067 Q191.991 428.65 186.181 428.65 Q180.371 428.65 177.292 424.067 Q174.237 419.46 174.237 410.734 Q174.237 401.984 177.292 397.4 Q180.371 392.794 186.181 392.794 Z" fill="#000000" fill-rule="evenodd" fill-opacity="1" /><path clip-path="url(#clip380)" d="M119.885 99.5305 L136.204 99.5305 L136.204 103.466 L114.26 103.466 L114.26 99.5305 Q116.922 96.7759 121.505 92.1463 Q126.112 87.4935 127.292 86.151 Q129.538 83.6278 130.417 81.8917 Q131.32 80.1325 131.32 78.4427 Q131.32 75.688 129.376 73.9519 Q127.455 72.2158 124.353 72.2158 Q122.154 72.2158 119.7 72.9797 Q117.269 73.7436 114.492 75.2945 L114.492 70.5723 Q117.316 69.4381 119.769 68.8594 Q122.223 68.2807 124.26 68.2807 Q129.63 68.2807 132.825 70.9658 Q136.019 73.651 136.019 78.1417 Q136.019 80.2714 135.209 82.1926 Q134.422 84.0908 132.316 86.6834 Q131.737 87.3546 128.635 90.5722 Q125.533 93.7667 119.885 99.5305 Z" fill="#000000" fill-rule="evenodd" fill-opacity="1" /><path clip-path="url(#clip380)" d="M156.019 71.9844 Q152.408 71.9844 150.579 75.5492 Q148.774 79.0908 148.774 86.2204 Q148.774 93.3268 150.579 96.8916 Q152.408 100.433 156.019 100.433 Q159.653 100.433 161.459 96.8916 Q163.288 93.3268 163.288 86.2204 Q163.288 79.0908 161.459 75.5492 Q159.653 71.9844 156.019 71.9844 M156.019 68.2807 Q161.829 68.2807 164.885 72.8871 Q167.964 77.4704 167.964 86.2204 Q167.964 94.9472 164.885 99.5537 Q161.829 104.137 156.019 104.137 Q150.209 104.137 147.13 99.5537 Q144.075 94.9472 144.075 86.2204 Q144.075 77.4704 147.13 72.8871 Q150.209 68.2807 156.019 68.2807 Z" fill="#000000" fill-rule="evenodd" fill-opacity="1" /><path clip-path="url(#clip380)" d="M186.181 71.9844 Q182.57 71.9844 180.741 75.5492 Q178.936 79.0908 178.936 86.2204 Q178.936 93.3268 180.741 96.8916 Q182.57 100.433 186.181 100.433 Q189.815 100.433 191.621 96.8916 Q193.45 93.3268 193.45 86.2204 Q193.45 79.0908 191.621 75.5492 Q189.815 71.9844 186.181 71.9844 M186.181 68.2807 Q191.991 68.2807 195.047 72.8871 Q198.125 77.4704 198.125 86.2204 Q198.125 94.9472 195.047 99.5537 Q191.991 104.137 186.181 104.137 Q180.371 104.137 177.292 99.5537 Q174.237 94.9472 174.237 86.2204 Q174.237 77.4704 177.292 72.8871 Q180.371 68.2807 186.181 68.2807 Z" fill="#000000" fill-rule="evenodd" fill-opacity="1" /><path clip-path="url(#clip380)" d="M64.0042 880.334 L16.4842 898.476 L16.4842 891.761 L56.4926 876.706 L16.4842 861.619 L16.4842 854.935 L64.0042 873.045 L64.0042 880.334 Z" fill="#000000" fill-rule="evenodd" fill-opacity="1" /><path clip-path="url(#clip380)" d="M14.479 828.072 L14.479 814.576 L19.0304 814.576 L19.0304 822.215 L68.0464 822.215 L68.0464 814.576 L72.5979 814.576 L72.5979 828.072 L14.479 828.072 Z" fill="#000000" fill-rule="evenodd" fill-opacity="1" /><path clip-path="url(#clip380)" d="M14.479 802.322 L14.479 796.434 L43.7294 796.434 L28.3562 778.96 L28.3562 771.481 L45.0344 790.387 L64.0042 770.685 L64.0042 778.324 L46.5939 796.434 L64.0042 796.434 L64.0042 802.322 L14.479 802.322 Z" fill="#000000" fill-rule="evenodd" fill-opacity="1" /><path clip-path="url(#clip380)" d="M35.1993 736.597 Q31.2526 734.4 29.3747 731.345 Q27.4968 728.289 27.4968 724.152 Q27.4968 718.582 31.4117 715.558 Q35.2948 712.534 42.4881 712.534 L64.0042 712.534 L64.0042 718.422 L42.679 718.422 Q37.5546 718.422 35.072 720.237 Q32.5894 722.051 32.5894 725.775 Q32.5894 730.326 35.6131 732.968 Q38.6368 735.61 43.8567 735.61 L64.0042 735.61 L64.0042 741.498 L42.679 741.498 Q37.5228 741.498 35.072 743.312 Q32.5894 745.127 32.5894 748.914 Q32.5894 753.402 35.6449 756.044 Q38.6686 758.686 43.8567 758.686 L64.0042 758.686 L64.0042 764.574 L28.3562 764.574 L28.3562 758.686 L33.8944 758.686 Q30.616 756.68 29.0564 753.879 Q27.4968 751.078 27.4968 747.227 Q27.4968 743.344 29.4702 740.639 Q31.4436 737.901 35.1993 736.597 Z" fill="#000000" fill-rule="evenodd" fill-opacity="1" /><path clip-path="url(#clip380)" d="M29.4065 657.407 L34.9447 657.407 Q33.6716 659.89 33.035 662.563 Q32.3984 665.237 32.3984 668.102 Q32.3984 672.462 33.7352 674.658 Q35.072 676.823 37.7456 676.823 Q39.7826 676.823 40.9603 675.263 Q42.1061 673.703 43.1565 668.993 L43.6021 666.988 Q44.9389 660.749 47.3897 658.139 Q49.8086 655.497 54.1691 655.497 Q59.1344 655.497 62.0308 659.444 Q64.9272 663.359 64.9272 670.234 Q64.9272 673.099 64.3543 676.218 Q63.8132 679.305 62.6992 682.743 L56.6518 682.743 Q58.3387 679.496 59.198 676.345 Q60.0256 673.194 60.0256 670.107 Q60.0256 665.969 58.6251 663.741 Q57.1929 661.513 54.6147 661.513 Q52.2276 661.513 50.9545 663.136 Q49.6813 664.728 48.5037 670.17 L48.0262 672.207 Q46.8804 677.65 44.5251 680.069 Q42.138 682.488 38.0002 682.488 Q32.9713 682.488 30.2341 678.923 Q27.4968 675.358 27.4968 668.802 Q27.4968 665.555 27.9743 662.691 Q28.4517 659.826 29.4065 657.407 Z" fill="#000000" fill-rule="evenodd" fill-opacity="1" /><path clip-path="url(#clip380)" d="M29.7885 647.954 L29.7885 622.268 L32.8122 622.268 L32.8122 647.954 L29.7885 647.954 Z" fill="#000000" fill-rule="evenodd" fill-opacity="1" /><path clip-path="url(#clip380)" d="M39.2416 612.943 L39.2416 606.45 L19.7943 606.45 L21.0993 613.547 L17.4072 613.547 L16.1659 606.227 L16.1659 601.866 L39.2416 601.866 L39.2416 595.341 L42.7427 595.341 L42.7427 612.943 L39.2416 612.943 Z" fill="#000000" fill-rule="evenodd" fill-opacity="1" /><path clip-path="url(#clip380)" d="M14.479 571.948 L72.5979 571.948 L72.5979 585.443 L68.0464 585.443 L68.0464 577.836 L19.0304 577.836 L19.0304 585.443 L14.479 585.443 L14.479 571.948 Z" fill="#000000" fill-rule="evenodd" fill-opacity="1" /><polyline clip-path="url(#clip382)" style="stroke:#009af9; stroke-linecap:butt; stroke-linejoin:round; stroke-width:4; stroke-opacity:1; fill:none" stroke-dasharray="16, 10" points="
  294.087,1358.28 375.769,1189.53 459.118,955.881 542.467,839.056 642.485,683.29 792.513,514.543 959.211,462.621 1125.91,482.092 1292.61,475.601 1459.31,482.092 
  1659.34,488.582 1959.4,527.524 2292.79,456.131 
  "/>
<circle clip-path="url(#clip382)" cx="294.087" cy="1358.28" r="14" fill="#009af9" fill-rule="evenodd" fill-opacity="1" stroke="#000000" stroke-opacity="1" stroke-width="3.2"/>
<circle clip-path="url(#clip382)" cx="375.769" cy="1189.53" r="14" fill="#009af9" fill-rule="evenodd" fill-opacity="1" stroke="#000000" stroke-opacity="1" stroke-width="3.2"/>
<circle clip-path="url(#clip382)" cx="459.118" cy="955.881" r="14" fill="#009af9" fill-rule="evenodd" fill-opacity="1" stroke="#000000" stroke-opacity="1" stroke-width="3.2"/>
<circle clip-path="url(#clip382)" cx="542.467" cy="839.056" r="14" fill="#009af9" fill-rule="evenodd" fill-opacity="1" stroke="#000000" stroke-opacity="1" stroke-width="3.2"/>
<circle clip-path="url(#clip382)" cx="642.485" cy="683.29" r="14" fill="#009af9" fill-rule="evenodd" fill-opacity="1" stroke="#000000" stroke-opacity="1" stroke-width="3.2"/>
<circle clip-path="url(#clip382)" cx="792.513" cy="514.543" r="14" fill="#009af9" fill-rule="evenodd" fill-opacity="1" stroke="#000000" stroke-opacity="1" stroke-width="3.2"/>
<circle clip-path="url(#clip382)" cx="959.211" cy="462.621" r="14" fill="#009af9" fill-rule="evenodd" fill-opacity="1" stroke="#000000" stroke-opacity="1" stroke-width="3.2"/>
<circle clip-path="url(#clip382)" cx="1125.91" cy="482.092" r="14" fill="#009af9" fill-rule="evenodd" fill-opacity="1" stroke="#000000" stroke-opacity="1" stroke-width="3.2"/>
<circle clip-path="url(#clip382)" cx="1292.61" cy="475.601" r="14" fill="#009af9" fill-rule="evenodd" fill-opacity="1" stroke="#000000" stroke-opacity="1" stroke-width="3.2"/>
<circle clip-path="url(#clip382)" cx="1459.31" cy="482.092" r="14" fill="#009af9" fill-rule="evenodd" fill-opacity="1" stroke="#000000" stroke-opacity="1" stroke-width="3.2"/>
<circle clip-path="url(#clip382)" cx="1659.34" cy="488.582" r="14" fill="#009af9" fill-rule="evenodd" fill-opacity="1" stroke="#000000" stroke-opacity="1" stroke-width="3.2"/>
<circle clip-path="url(#clip382)" cx="1959.4" cy="527.524" r="14" fill="#009af9" fill-rule="evenodd" fill-opacity="1" stroke="#000000" stroke-opacity="1" stroke-width="3.2"/>
<circle clip-path="url(#clip382)" cx="2292.79" cy="456.131" r="14" fill="#009af9" fill-rule="evenodd" fill-opacity="1" stroke="#000000" stroke-opacity="1" stroke-width="3.2"/>
<polyline clip-path="url(#clip382)" style="stroke:#e26f46; stroke-linecap:butt; stroke-linejoin:round; stroke-width:4; stroke-opacity:1; fill:none" points="
  294.087,1355.22 299.963,1344.46 305.84,1333.7 311.716,1322.94 317.593,1312.18 323.469,1301.42 329.346,1290.66 335.222,1279.9 341.099,1269.14 346.975,1258.38 
  352.852,1247.62 358.728,1236.86 364.605,1226.1 370.481,1215.34 376.358,1204.58 382.235,1193.82 388.111,1183.06 393.988,1172.3 399.864,1161.54 405.741,1150.78 
  411.617,1140.02 417.494,1129.26 423.37,1118.5 429.247,1107.74 435.123,1096.98 441,1086.22 446.876,1075.46 452.753,1064.7 458.629,1053.94 464.506,1043.18 
  470.382,1032.42 476.259,1021.66 482.135,1010.9 488.012,1000.14 493.888,989.384 499.765,978.624 505.641,967.864 511.518,957.104 517.395,946.344 523.271,935.583 
  529.148,924.823 535.024,914.063 540.901,903.303 546.777,892.543 552.654,881.783 558.53,871.023 564.407,860.263 570.283,849.503 576.16,838.743 582.036,827.983 
  587.913,817.223 593.789,806.463 599.666,795.703 605.542,784.943 611.419,774.183 617.295,763.423 623.172,752.663 629.048,741.903 634.925,731.143 640.802,720.383 
  646.678,709.623 652.555,698.863 658.431,688.103 664.308,677.343 670.184,666.583 676.061,655.822 681.937,645.062 687.814,634.302 693.69,623.542 699.567,612.782 
  705.443,602.022 711.32,591.262 717.196,580.502 723.073,569.742 728.949,558.982 734.826,548.222 740.702,537.462 746.579,526.702 752.455,515.942 758.332,505.182 
  764.208,494.422 770.085,483.662 775.962,472.902 781.838,462.142 787.715,451.382 793.591,440.622 799.468,429.862 805.344,419.102 811.221,408.342 817.097,397.582 
  822.974,386.822 828.85,376.062 834.727,365.301 840.603,354.541 846.48,343.781 852.356,333.021 858.233,322.261 864.109,311.501 869.986,300.741 875.862,289.981 
  
  "/>
<polyline clip-path="url(#clip382)" style="stroke:#3da44d; stroke-linecap:butt; stroke-linejoin:round; stroke-width:4; stroke-opacity:1; fill:none" points="
  709.164,296.542 725.161,316.35 741.157,335.09 757.153,352.853 773.15,369.722 789.146,385.77 805.142,401.061 821.138,415.652 837.135,429.596 853.131,442.939 
  869.127,455.722 885.123,467.985 901.12,479.761 917.116,491.082 933.112,501.976 949.108,512.47 965.105,522.587 981.101,532.349 997.097,541.777 1013.09,550.89 
  1029.09,559.704 1045.09,568.235 1061.08,576.499 1077.08,584.509 1093.07,592.278 1109.07,599.817 1125.07,607.138 1141.06,614.25 1157.06,621.165 1173.06,627.89 
  1189.05,634.435 1205.05,640.806 1221.04,647.013 1237.04,653.061 1253.04,658.957 1269.03,664.708 1285.03,670.319 1301.03,675.796 1317.02,681.145 1333.02,686.37 
  1349.02,691.475 1365.01,696.466 1381.01,701.346 1397,706.121 1413,710.792 1429,715.365 1444.99,719.842 1460.99,724.226 1476.99,728.522 1492.98,732.731 
  1508.98,736.858 1524.97,740.903 1540.97,744.871 1556.97,748.763 1572.96,752.582 1588.96,756.33 1604.96,760.009 1620.95,763.622 1636.95,767.17 1652.94,770.655 
  1668.94,774.079 1684.94,777.444 1700.93,780.752 1716.93,784.004 1732.93,787.201 1748.92,790.346 1764.92,793.439 1780.91,796.482 1796.91,799.477 1812.91,802.424 
  1828.9,805.325 1844.9,808.181 1860.9,810.994 1876.89,813.763 1892.89,816.491 1908.88,819.179 1924.88,821.826 1940.88,824.436 1956.87,827.007 1972.87,829.542 
  1988.87,832.04 2004.86,834.504 2020.86,836.933 2036.85,839.329 2052.85,841.692 2068.85,844.023 2084.84,846.323 2100.84,848.592 2116.84,850.832 2132.83,853.042 
  2148.83,855.223 2164.82,857.377 2180.82,859.503 2196.82,861.602 2212.81,863.675 2228.81,865.722 2244.81,867.744 2260.8,869.741 2276.8,871.714 2292.79,873.664 
  
  "/>
<polyline clip-path="url(#clip382)" style="stroke:#c271d2; stroke-linecap:butt; stroke-linejoin:round; stroke-width:4; stroke-opacity:1; fill:none" points="
  294.087,468.926 314.276,468.926 334.465,468.926 354.654,468.926 374.843,468.926 395.032,468.926 415.221,468.926 435.409,468.926 455.598,468.926 475.787,468.926 
  495.976,468.926 516.165,468.926 536.354,468.926 556.543,468.926 576.732,468.926 596.921,468.926 617.11,468.926 637.299,468.926 657.488,468.926 677.677,468.926 
  697.866,468.926 718.055,468.926 738.244,468.926 758.433,468.926 778.622,468.926 798.811,468.926 819,468.926 839.189,468.926 859.378,468.926 879.567,468.926 
  899.756,468.926 919.945,468.926 940.134,468.926 960.323,468.926 980.512,468.926 1000.7,468.926 1020.89,468.926 1041.08,468.926 1061.27,468.926 1081.46,468.926 
  1101.65,468.926 1121.83,468.926 1142.02,468.926 1162.21,468.926 1182.4,468.926 1202.59,468.926 1222.78,468.926 1242.97,468.926 1263.16,468.926 1283.35,468.926 
  1303.54,468.926 1323.72,468.926 1343.91,468.926 1364.1,468.926 1384.29,468.926 1404.48,468.926 1424.67,468.926 1444.86,468.926 1465.05,468.926 1485.24,468.926 
  1505.42,468.926 1525.61,468.926 1545.8,468.926 1565.99,468.926 1586.18,468.926 1606.37,468.926 1626.56,468.926 1646.75,468.926 1666.94,468.926 1687.13,468.926 
  1707.31,468.926 1727.5,468.926 1747.69,468.926 1767.88,468.926 1788.07,468.926 1808.26,468.926 1828.45,468.926 1848.64,468.926 1868.83,468.926 1889.02,468.926 
  1909.2,468.926 1929.39,468.926 1949.58,468.926 1969.77,468.926 1989.96,468.926 2010.15,468.926 2030.34,468.926 2050.53,468.926 2070.72,468.926 2090.9,468.926 
  2111.09,468.926 2131.28,468.926 2151.47,468.926 2171.66,468.926 2191.85,468.926 2212.04,468.926 2232.23,468.926 2252.42,468.926 2272.61,468.926 2292.79,468.926 
  
  "/>
<path clip-path="url(#clip380)" d="
M1843.49 352.309 L2282.13 352.309 L2282.13 93.1086 L1843.49 93.1086  Z
  " fill="#ffffff" fill-rule="evenodd" fill-opacity="1"/>
<polyline clip-path="url(#clip380)" style="stroke:#000000; stroke-linecap:butt; stroke-linejoin:round; stroke-width:4; stroke-opacity:1; fill:none" points="
  1843.49,352.309 2282.13,352.309 2282.13,93.1086 1843.49,93.1086 1843.49,352.309 
  "/>
<polyline clip-path="url(#clip380)" style="stroke:#009af9; stroke-linecap:butt; stroke-linejoin:round; stroke-width:4; stroke-opacity:1; fill:none" stroke-dasharray="16, 10" points="
  1867.03,144.949 2008.27,144.949 
  "/>
<circle clip-path="url(#clip380)" cx="1937.65" cy="144.949" r="23" fill="#009af9" fill-rule="evenodd" fill-opacity="1" stroke="#000000" stroke-opacity="1" stroke-width="5.12"/>
<path clip-path="url(#clip380)" d="M2031.81 127.669 L2038.78 127.669 L2047.6 151.187 L2056.47 127.669 L2063.43 127.669 L2063.43 162.229 L2058.87 162.229 L2058.87 131.882 L2049.96 155.585 L2045.26 155.585 L2036.35 131.882 L2036.35 162.229 L2031.81 162.229 L2031.81 127.669 Z" fill="#000000" fill-rule="evenodd" fill-opacity="1" /><path clip-path="url(#clip380)" d="M2094.71 148.201 L2094.71 150.284 L2075.12 150.284 Q2075.4 154.682 2077.76 156.997 Q2080.15 159.289 2084.38 159.289 Q2086.84 159.289 2089.13 158.687 Q2091.44 158.085 2093.71 156.881 L2093.71 160.909 Q2091.42 161.881 2089.01 162.391 Q2086.61 162.9 2084.13 162.9 Q2077.93 162.9 2074.29 159.289 Q2070.68 155.678 2070.68 149.52 Q2070.68 143.155 2074.11 139.428 Q2077.56 135.678 2083.39 135.678 Q2088.62 135.678 2091.65 139.057 Q2094.71 142.414 2094.71 148.201 M2090.45 146.951 Q2090.4 143.456 2088.48 141.372 Q2086.58 139.289 2083.43 139.289 Q2079.87 139.289 2077.72 141.303 Q2075.59 143.317 2075.26 146.974 L2090.45 146.951 Z" fill="#000000" fill-rule="evenodd" fill-opacity="1" /><path clip-path="url(#clip380)" d="M2118.23 137.067 L2118.23 141.094 Q2116.42 140.169 2114.48 139.706 Q2112.53 139.243 2110.45 139.243 Q2107.28 139.243 2105.68 140.215 Q2104.11 141.187 2104.11 143.131 Q2104.11 144.613 2105.24 145.469 Q2106.37 146.303 2109.8 147.067 L2111.26 147.391 Q2115.8 148.363 2117.69 150.145 Q2119.62 151.905 2119.62 155.076 Q2119.62 158.687 2116.74 160.793 Q2113.9 162.9 2108.9 162.9 Q2106.81 162.9 2104.55 162.483 Q2102.3 162.09 2099.8 161.28 L2099.8 156.881 Q2102.16 158.108 2104.45 158.733 Q2106.74 159.335 2108.99 159.335 Q2112 159.335 2113.62 158.317 Q2115.24 157.275 2115.24 155.4 Q2115.24 153.664 2114.06 152.738 Q2112.9 151.812 2108.94 150.956 L2107.46 150.608 Q2103.5 149.775 2101.74 148.062 Q2099.99 146.326 2099.99 143.317 Q2099.99 139.659 2102.58 137.669 Q2105.17 135.678 2109.94 135.678 Q2112.3 135.678 2114.38 136.025 Q2116.47 136.372 2118.23 137.067 Z" fill="#000000" fill-rule="evenodd" fill-opacity="1" /><path clip-path="url(#clip380)" d="M2142.93 137.067 L2142.93 141.094 Q2141.12 140.169 2139.18 139.706 Q2137.23 139.243 2135.15 139.243 Q2131.98 139.243 2130.38 140.215 Q2128.8 141.187 2128.8 143.131 Q2128.8 144.613 2129.94 145.469 Q2131.07 146.303 2134.5 147.067 L2135.96 147.391 Q2140.49 148.363 2142.39 150.145 Q2144.31 151.905 2144.31 155.076 Q2144.31 158.687 2141.44 160.793 Q2138.6 162.9 2133.6 162.9 Q2131.51 162.9 2129.24 162.483 Q2127 162.09 2124.5 161.28 L2124.5 156.881 Q2126.86 158.108 2129.15 158.733 Q2131.44 159.335 2133.69 159.335 Q2136.7 159.335 2138.32 158.317 Q2139.94 157.275 2139.94 155.4 Q2139.94 153.664 2138.76 152.738 Q2137.6 151.812 2133.64 150.956 L2132.16 150.608 Q2128.2 149.775 2126.44 148.062 Q2124.68 146.326 2124.68 143.317 Q2124.68 139.659 2127.28 137.669 Q2129.87 135.678 2134.64 135.678 Q2137 135.678 2139.08 136.025 Q2141.17 136.372 2142.93 137.067 Z" fill="#000000" fill-rule="evenodd" fill-opacity="1" /><path clip-path="url(#clip380)" d="M2150.66 151.997 L2150.66 136.303 L2154.92 136.303 L2154.92 151.835 Q2154.92 155.516 2156.35 157.368 Q2157.79 159.196 2160.66 159.196 Q2164.11 159.196 2166.1 156.997 Q2168.11 154.798 2168.11 151.002 L2168.11 136.303 L2172.37 136.303 L2172.37 162.229 L2168.11 162.229 L2168.11 158.247 Q2166.56 160.608 2164.5 161.766 Q2162.46 162.9 2159.75 162.9 Q2155.29 162.9 2152.97 160.122 Q2150.66 157.344 2150.66 151.997 M2161.37 135.678 L2161.37 135.678 Z" fill="#000000" fill-rule="evenodd" fill-opacity="1" /><path clip-path="url(#clip380)" d="M2202.69 146.581 L2202.69 162.229 L2198.43 162.229 L2198.43 146.719 Q2198.43 143.039 2197 141.21 Q2195.56 139.382 2192.69 139.382 Q2189.24 139.382 2187.25 141.581 Q2185.26 143.78 2185.26 147.576 L2185.26 162.229 L2180.98 162.229 L2180.98 136.303 L2185.26 136.303 L2185.26 140.331 Q2186.79 137.993 2188.85 136.835 Q2190.93 135.678 2193.64 135.678 Q2198.11 135.678 2200.4 138.456 Q2202.69 141.21 2202.69 146.581 Z" fill="#000000" fill-rule="evenodd" fill-opacity="1" /><path clip-path="url(#clip380)" d="M2228.25 148.965 Q2228.25 144.335 2226.33 141.789 Q2224.43 139.243 2220.98 139.243 Q2217.55 139.243 2215.63 141.789 Q2213.73 144.335 2213.73 148.965 Q2213.73 153.571 2215.63 156.118 Q2217.55 158.664 2220.98 158.664 Q2224.43 158.664 2226.33 156.118 Q2228.25 153.571 2228.25 148.965 M2232.51 159.011 Q2232.51 165.631 2229.57 168.849 Q2226.63 172.09 2220.56 172.09 Q2218.32 172.09 2216.33 171.742 Q2214.34 171.418 2212.46 170.724 L2212.46 166.58 Q2214.34 167.599 2216.17 168.085 Q2217.99 168.571 2219.89 168.571 Q2224.08 168.571 2226.17 166.372 Q2228.25 164.196 2228.25 159.775 L2228.25 157.668 Q2226.93 159.96 2224.87 161.094 Q2222.81 162.229 2219.94 162.229 Q2215.17 162.229 2212.25 158.594 Q2209.34 154.96 2209.34 148.965 Q2209.34 142.946 2212.25 139.312 Q2215.17 135.678 2219.94 135.678 Q2222.81 135.678 2224.87 136.812 Q2226.93 137.946 2228.25 140.238 L2228.25 136.303 L2232.51 136.303 L2232.51 159.011 Z" fill="#000000" fill-rule="evenodd" fill-opacity="1" /><polyline clip-path="url(#clip380)" style="stroke:#e26f46; stroke-linecap:butt; stroke-linejoin:round; stroke-width:4; stroke-opacity:1; fill:none" points="
  1867.03,196.789 2008.27,196.789 
  "/>
<path clip-path="url(#clip380)" d="M2031.81 179.509 L2038.78 179.509 L2047.6 203.027 L2056.47 179.509 L2063.43 179.509 L2063.43 214.069 L2058.87 214.069 L2058.87 183.722 L2049.96 207.425 L2045.26 207.425 L2036.35 183.722 L2036.35 214.069 L2031.81 214.069 L2031.81 179.509 Z" fill="#000000" fill-rule="evenodd" fill-opacity="1" /><path clip-path="url(#clip380)" d="M2080.26 205.666 Q2084.08 205.666 2086.37 200.11 Q2083.43 194.046 2080.26 194.046 Q2077.95 194.046 2076.77 195.712 Q2075.52 197.495 2075.52 199.856 Q2075.52 202.448 2076.77 204.046 Q2078.06 205.666 2080.26 205.666 M2096.84 205.712 L2096.84 208.768 L2095.05 208.768 Q2093.37 208.768 2092.12 208.073 Q2090.87 207.448 2089.66 205.99 Q2088.94 205.157 2087.81 203.212 Q2086.26 205.99 2084.89 207.217 Q2083.2 208.698 2080.52 208.698 Q2077.39 208.698 2075.33 206.36 Q2073.16 203.907 2073.16 199.856 Q2073.16 195.967 2075.33 193.328 Q2077.25 190.99 2080.56 190.99 Q2082.25 190.99 2083.5 191.684 Q2084.96 192.448 2085.96 193.768 Q2086.88 194.948 2087.81 196.546 Q2089.36 193.768 2090.73 192.541 Q2092.42 191.059 2095.1 191.059 L2096.84 191.059 L2096.84 194.092 L2095.36 194.092 Q2091.93 194.092 2089.24 199.647 Q2092.18 205.712 2095.36 205.712 L2096.84 205.712 Z" fill="#000000" fill-rule="evenodd" fill-opacity="1" /><path clip-path="url(#clip380)" d="M2121.42 192.124 Q2120.7 191.708 2119.85 191.522 Q2119.01 191.314 2117.99 191.314 Q2114.38 191.314 2112.44 193.675 Q2110.52 196.013 2110.52 200.411 L2110.52 214.069 L2106.24 214.069 L2106.24 188.143 L2110.52 188.143 L2110.52 192.171 Q2111.86 189.809 2114.01 188.675 Q2116.17 187.518 2119.24 187.518 Q2119.68 187.518 2120.22 187.587 Q2120.75 187.634 2121.4 187.749 L2121.42 192.124 Z" fill="#000000" fill-rule="evenodd" fill-opacity="1" /><path clip-path="url(#clip380)" d="M2133.55 188.143 Q2135.68 188.559 2136.84 189.833 Q2138.02 191.083 2138.02 192.981 Q2138.02 195.851 2135.82 197.402 Q2133.62 198.953 2129.52 198.953 Q2128.2 198.953 2126.74 198.721 Q2125.31 198.467 2123.69 198.004 L2123.69 195.203 Q2124.89 195.828 2126.26 196.129 Q2127.65 196.43 2129.2 196.43 Q2131.72 196.43 2133.11 195.527 Q2134.5 194.601 2134.5 192.981 Q2134.5 191.268 2133.2 190.388 Q2131.93 189.509 2129.43 189.509 L2127.44 189.509 L2127.44 187.009 L2129.61 187.009 Q2131.79 187.009 2132.9 186.291 Q2134.04 185.55 2134.04 184.161 Q2134.04 182.819 2132.88 182.124 Q2131.72 181.407 2129.52 181.407 Q2128.6 181.407 2127.42 181.615 Q2126.24 181.823 2124.36 182.356 L2124.36 179.694 Q2126.05 179.3 2127.53 179.092 Q2129.01 178.884 2130.29 178.884 Q2133.62 178.884 2135.56 180.249 Q2137.53 181.615 2137.53 183.907 Q2137.53 185.504 2136.49 186.615 Q2135.45 187.726 2133.55 188.143 Z" fill="#000000" fill-rule="evenodd" fill-opacity="1" /><polyline clip-path="url(#clip380)" style="stroke:#3da44d; stroke-linecap:butt; stroke-linejoin:round; stroke-width:4; stroke-opacity:1; fill:none" points="
  1867.03,248.629 2008.27,248.629 
  "/>
<path clip-path="url(#clip380)" d="M2031.81 231.349 L2038.78 231.349 L2047.6 254.867 L2056.47 231.349 L2063.43 231.349 L2063.43 265.909 L2058.87 265.909 L2058.87 235.562 L2049.96 259.265 L2045.26 259.265 L2036.35 235.562 L2036.35 265.909 L2031.81 265.909 L2031.81 231.349 Z" fill="#000000" fill-rule="evenodd" fill-opacity="1" /><path clip-path="url(#clip380)" d="M2073.09 244.381 L2102.76 244.381 L2102.76 248.27 L2073.09 248.27 L2073.09 244.381 M2073.09 253.825 L2102.76 253.825 L2102.76 257.761 L2073.09 257.761 L2073.09 253.825 Z" fill="#000000" fill-rule="evenodd" fill-opacity="1" /><path clip-path="url(#clip380)" d="M2130.91 240.978 L2130.91 244.96 Q2129.11 243.964 2127.28 243.478 Q2125.47 242.969 2123.62 242.969 Q2119.48 242.969 2117.18 245.608 Q2114.89 248.224 2114.89 252.969 Q2114.89 257.714 2117.18 260.353 Q2119.48 262.969 2123.62 262.969 Q2125.47 262.969 2127.28 262.483 Q2129.11 261.973 2130.91 260.978 L2130.91 264.913 Q2129.13 265.747 2127.21 266.163 Q2125.31 266.58 2123.16 266.58 Q2117.3 266.58 2113.85 262.899 Q2110.4 259.219 2110.4 252.969 Q2110.4 246.626 2113.87 242.992 Q2117.37 239.358 2123.43 239.358 Q2125.4 239.358 2127.28 239.775 Q2129.15 240.168 2130.91 240.978 Z" fill="#000000" fill-rule="evenodd" fill-opacity="1" /><path clip-path="url(#clip380)" d="M2148.36 242.969 Q2144.94 242.969 2142.95 245.654 Q2140.96 248.316 2140.96 252.969 Q2140.96 257.622 2142.93 260.307 Q2144.92 262.969 2148.36 262.969 Q2151.77 262.969 2153.76 260.284 Q2155.75 257.598 2155.75 252.969 Q2155.75 248.362 2153.76 245.677 Q2151.77 242.969 2148.36 242.969 M2148.36 239.358 Q2153.92 239.358 2157.09 242.969 Q2160.26 246.58 2160.26 252.969 Q2160.26 259.335 2157.09 262.969 Q2153.92 266.58 2148.36 266.58 Q2142.79 266.58 2139.61 262.969 Q2136.47 259.335 2136.47 252.969 Q2136.47 246.58 2139.61 242.969 Q2142.79 239.358 2148.36 239.358 Z" fill="#000000" fill-rule="evenodd" fill-opacity="1" /><path clip-path="url(#clip380)" d="M2188.87 250.261 L2188.87 265.909 L2184.61 265.909 L2184.61 250.399 Q2184.61 246.719 2183.18 244.89 Q2181.74 243.062 2178.87 243.062 Q2175.42 243.062 2173.43 245.261 Q2171.44 247.46 2171.44 251.256 L2171.44 265.909 L2167.16 265.909 L2167.16 239.983 L2171.44 239.983 L2171.44 244.011 Q2172.97 241.673 2175.03 240.515 Q2177.11 239.358 2179.82 239.358 Q2184.29 239.358 2186.58 242.136 Q2188.87 244.89 2188.87 250.261 Z" fill="#000000" fill-rule="evenodd" fill-opacity="1" /><path clip-path="url(#clip380)" d="M2213.9 240.747 L2213.9 244.774 Q2212.09 243.849 2210.15 243.386 Q2208.2 242.923 2206.12 242.923 Q2202.95 242.923 2201.35 243.895 Q2199.78 244.867 2199.78 246.811 Q2199.78 248.293 2200.91 249.149 Q2202.05 249.983 2205.47 250.747 L2206.93 251.071 Q2211.47 252.043 2213.36 253.825 Q2215.29 255.585 2215.29 258.756 Q2215.29 262.367 2212.42 264.473 Q2209.57 266.58 2204.57 266.58 Q2202.48 266.58 2200.22 266.163 Q2197.97 265.77 2195.47 264.96 L2195.47 260.561 Q2197.83 261.788 2200.12 262.413 Q2202.42 263.015 2204.66 263.015 Q2207.67 263.015 2209.29 261.997 Q2210.91 260.955 2210.91 259.08 Q2210.91 257.344 2209.73 256.418 Q2208.57 255.492 2204.61 254.636 L2203.13 254.288 Q2199.17 253.455 2197.42 251.742 Q2195.66 250.006 2195.66 246.997 Q2195.66 243.339 2198.25 241.349 Q2200.84 239.358 2205.61 239.358 Q2207.97 239.358 2210.05 239.705 Q2212.14 240.052 2213.9 240.747 Z" fill="#000000" fill-rule="evenodd" fill-opacity="1" /><path clip-path="url(#clip380)" d="M2226.28 232.622 L2226.28 239.983 L2235.05 239.983 L2235.05 243.293 L2226.28 243.293 L2226.28 257.367 Q2226.28 260.538 2227.14 261.441 Q2228.02 262.344 2230.68 262.344 L2235.05 262.344 L2235.05 265.909 L2230.68 265.909 Q2225.75 265.909 2223.87 264.08 Q2222 262.228 2222 257.367 L2222 243.293 L2218.87 243.293 L2218.87 239.983 L2222 239.983 L2222 232.622 L2226.28 232.622 Z" fill="#000000" fill-rule="evenodd" fill-opacity="1" /><polyline clip-path="url(#clip380)" style="stroke:#c271d2; stroke-linecap:butt; stroke-linejoin:round; stroke-width:4; stroke-opacity:1; fill:none" points="
  1867.03,300.469 2008.27,300.469 
  "/>
<path clip-path="url(#clip380)" d="M2031.81 283.189 L2038.78 283.189 L2047.6 306.707 L2056.47 283.189 L2063.43 283.189 L2063.43 317.749 L2058.87 317.749 L2058.87 287.402 L2049.96 311.105 L2045.26 311.105 L2036.35 287.402 L2036.35 317.749 L2031.81 317.749 L2031.81 283.189 Z" fill="#000000" fill-rule="evenodd" fill-opacity="1" /><path clip-path="url(#clip380)" d="M2080.26 309.346 Q2084.08 309.346 2086.37 303.79 Q2083.43 297.726 2080.26 297.726 Q2077.95 297.726 2076.77 299.392 Q2075.52 301.175 2075.52 303.536 Q2075.52 306.128 2076.77 307.726 Q2078.06 309.346 2080.26 309.346 M2096.84 309.392 L2096.84 312.448 L2095.05 312.448 Q2093.37 312.448 2092.12 311.753 Q2090.87 311.128 2089.66 309.67 Q2088.94 308.837 2087.81 306.892 Q2086.26 309.67 2084.89 310.897 Q2083.2 312.378 2080.52 312.378 Q2077.39 312.378 2075.33 310.04 Q2073.16 307.587 2073.16 303.536 Q2073.16 299.647 2075.33 297.008 Q2077.25 294.67 2080.56 294.67 Q2082.25 294.67 2083.5 295.364 Q2084.96 296.128 2085.96 297.448 Q2086.88 298.628 2087.81 300.226 Q2089.36 297.448 2090.73 296.221 Q2092.42 294.739 2095.1 294.739 L2096.84 294.739 L2096.84 297.772 L2095.36 297.772 Q2091.93 297.772 2089.24 303.327 Q2092.18 309.392 2095.36 309.392 L2096.84 309.392 Z" fill="#000000" fill-rule="evenodd" fill-opacity="1" /><path clip-path="url(#clip380)" d="M2121.42 295.804 Q2120.7 295.388 2119.85 295.202 Q2119.01 294.994 2117.99 294.994 Q2114.38 294.994 2112.44 297.355 Q2110.52 299.693 2110.52 304.091 L2110.52 317.749 L2106.24 317.749 L2106.24 291.823 L2110.52 291.823 L2110.52 295.851 Q2111.86 293.489 2114.01 292.355 Q2116.17 291.198 2119.24 291.198 Q2119.68 291.198 2120.22 291.267 Q2120.75 291.314 2121.4 291.429 L2121.42 295.804 Z" fill="#000000" fill-rule="evenodd" fill-opacity="1" /></svg>
