<?xml version="1.0" encoding="utf-8"?>
<svg xmlns="http://www.w3.org/2000/svg" xmlns:xlink="http://www.w3.org/1999/xlink" width="600" height="400" viewBox="0 0 2400 1600">
<defs>
  <clipPath id="clip260">
    <rect x="0" y="0" width="2400" height="1600"/>
  </clipPath>
</defs>
<path clip-path="url(#clip260)" d="
M0 1600 L2400 1600 L2400 0 L0 0  Z
  " fill="#ffffff" fill-rule="evenodd" fill-opacity="1"/>
<defs>
  <clipPath id="clip261">
    <rect x="480" y="0" width="1681" height="1600"/>
  </clipPath>
</defs>
<path clip-path="url(#clip260)" d="
M390.937 1423.18 L2352.76 1423.18 L2352.76 47.2441 L390.937 47.2441  Z
  " fill="#ffffff" fill-rule="evenodd" fill-opacity="1"/>
<defs>
  <clipPath id="clip262">
    <rect x="390" y="47" width="1963" height="1377"/>
  </clipPath>
</defs>
<polyline clip-path="url(#clip262)" style="stroke:#000000; stroke-linecap:butt; stroke-linejoin:round; stroke-width:2; stroke-opacity:0.1; fill:none" points="
  578.659,1423.18 578.659,47.2441 
  "/>
<polyline clip-path="url(#clip262)" style="stroke:#000000; stroke-linecap:butt; stroke-linejoin:round; stroke-width:2; stroke-opacity:0.1; fill:none" points="
  843.055,1423.18 843.055,47.2441 
  "/>
<polyline clip-path="url(#clip262)" style="stroke:#000000; stroke-linecap:butt; stroke-linejoin:round; stroke-width:2; stroke-opacity:0.1; fill:none" points="
  1107.45,1423.18 1107.45,47.2441 
  "/>
<polyline clip-path="url(#clip262)" style="stroke:#000000; stroke-linecap:butt; stroke-linejoin:round; stroke-width:2; stroke-opacity:0.1; fill:none" points="
  1371.85,1423.18 1371.85,47.2441 
  "/>
<polyline clip-path="url(#clip262)" style="stroke:#000000; stroke-linecap:butt; stroke-linejoin:round; stroke-width:2; stroke-opacity:0.1; fill:none" points="
  1636.24,1423.18 1636.24,47.2441 
  "/>
<polyline clip-path="url(#clip262)" style="stroke:#000000; stroke-linecap:butt; stroke-linejoin:round; stroke-width:2; stroke-opacity:0.1; fill:none" points="
  1900.64,1423.18 1900.64,47.2441 
  "/>
<polyline clip-path="url(#clip262)" style="stroke:#000000; stroke-linecap:butt; stroke-linejoin:round; stroke-width:2; stroke-opacity:0.1; fill:none" points="
  2165.03,1423.18 2165.03,47.2441 
  "/>
<polyline clip-path="url(#clip260)" style="stroke:#000000; stroke-linecap:butt; stroke-linejoin:round; stroke-width:4; stroke-opacity:1; fill:none" points="
  390.937,1423.18 2352.76,1423.18 
  "/>
<polyline clip-path="url(#clip260)" style="stroke:#000000; stroke-linecap:butt; stroke-linejoin:round; stroke-width:4; stroke-opacity:1; fill:none" points="
  578.659,1423.18 578.659,1406.67 
  "/>
<polyline clip-path="url(#clip260)" style="stroke:#000000; stroke-linecap:butt; stroke-linejoin:round; stroke-width:4; stroke-opacity:1; fill:none" points="
  843.055,1423.18 843.055,1406.67 
  "/>
<polyline clip-path="url(#clip260)" style="stroke:#000000; stroke-linecap:butt; stroke-linejoin:round; stroke-width:4; stroke-opacity:1; fill:none" points="
  1107.45,1423.18 1107.45,1406.67 
  "/>
<polyline clip-path="url(#clip260)" style="stroke:#000000; stroke-linecap:butt; stroke-linejoin:round; stroke-width:4; stroke-opacity:1; fill:none" points="
  1371.85,1423.18 1371.85,1406.67 
  "/>
<polyline clip-path="url(#clip260)" style="stroke:#000000; stroke-linecap:butt; stroke-linejoin:round; stroke-width:4; stroke-opacity:1; fill:none" points="
  1636.24,1423.18 1636.24,1406.67 
  "/>
<polyline clip-path="url(#clip260)" style="stroke:#000000; stroke-linecap:butt; stroke-linejoin:round; stroke-width:4; stroke-opacity:1; fill:none" points="
  1900.64,1423.18 1900.64,1406.67 
  "/>
<polyline clip-path="url(#clip260)" style="stroke:#000000; stroke-linecap:butt; stroke-linejoin:round; stroke-width:4; stroke-opacity:1; fill:none" points="
  2165.03,1423.18 2165.03,1406.67 
  "/>
<path clip-path="url(#clip260)" d="M542.351 1479.92 L558.67 1479.92 L558.67 1483.85 L536.726 1483.85 L536.726 1479.92 Q539.388 1477.16 543.971 1472.53 Q548.578 1467.88 549.758 1466.54 Q552.004 1464.01 552.883 1462.28 Q553.786 1460.52 553.786 1458.83 Q553.786 1456.07 551.842 1454.34 Q549.92 1452.6 546.818 1452.6 Q544.619 1452.6 542.166 1453.37 Q539.735 1454.13 536.957 1455.68 L536.957 1450.96 Q539.781 1449.82 542.235 1449.25 Q544.689 1448.67 546.726 1448.67 Q552.096 1448.67 555.291 1451.35 Q558.485 1454.04 558.485 1458.53 Q558.485 1460.66 557.675 1462.58 Q556.888 1464.48 554.781 1467.07 Q554.203 1467.74 551.101 1470.96 Q547.999 1474.15 542.351 1479.92 Z" fill="#000000" fill-rule="evenodd" fill-opacity="1" /><path clip-path="url(#clip260)" d="M578.485 1452.37 Q574.874 1452.37 573.045 1455.94 Q571.24 1459.48 571.24 1466.61 Q571.24 1473.71 573.045 1477.28 Q574.874 1480.82 578.485 1480.82 Q582.119 1480.82 583.925 1477.28 Q585.753 1473.71 585.753 1466.61 Q585.753 1459.48 583.925 1455.94 Q582.119 1452.37 578.485 1452.37 M578.485 1448.67 Q584.295 1448.67 587.351 1453.27 Q590.429 1457.86 590.429 1466.61 Q590.429 1475.33 587.351 1479.94 Q584.295 1484.52 578.485 1484.52 Q572.675 1484.52 569.596 1479.94 Q566.541 1475.33 566.541 1466.61 Q566.541 1457.86 569.596 1453.27 Q572.675 1448.67 578.485 1448.67 Z" fill="#000000" fill-rule="evenodd" fill-opacity="1" /><path clip-path="url(#clip260)" d="M608.647 1452.37 Q605.036 1452.37 603.207 1455.94 Q601.402 1459.48 601.402 1466.61 Q601.402 1473.71 603.207 1477.28 Q605.036 1480.82 608.647 1480.82 Q612.281 1480.82 614.087 1477.28 Q615.915 1473.71 615.915 1466.61 Q615.915 1459.48 614.087 1455.94 Q612.281 1452.37 608.647 1452.37 M608.647 1448.67 Q614.457 1448.67 617.513 1453.27 Q620.591 1457.86 620.591 1466.61 Q620.591 1475.33 617.513 1479.94 Q614.457 1484.52 608.647 1484.52 Q602.837 1484.52 599.758 1479.94 Q596.702 1475.33 596.702 1466.61 Q596.702 1457.86 599.758 1453.27 Q602.837 1448.67 608.647 1448.67 Z" fill="#000000" fill-rule="evenodd" fill-opacity="1" /><path clip-path="url(#clip260)" d="M816.145 1453.37 L804.34 1471.81 L816.145 1471.81 L816.145 1453.37 M814.918 1449.29 L820.798 1449.29 L820.798 1471.81 L825.728 1471.81 L825.728 1475.7 L820.798 1475.7 L820.798 1483.85 L816.145 1483.85 L816.145 1475.7 L800.543 1475.7 L800.543 1471.19 L814.918 1449.29 Z" fill="#000000" fill-rule="evenodd" fill-opacity="1" /><path clip-path="url(#clip260)" d="M843.46 1452.37 Q839.849 1452.37 838.02 1455.94 Q836.214 1459.48 836.214 1466.61 Q836.214 1473.71 838.02 1477.28 Q839.849 1480.82 843.46 1480.82 Q847.094 1480.82 848.899 1477.28 Q850.728 1473.71 850.728 1466.61 Q850.728 1459.48 848.899 1455.94 Q847.094 1452.37 843.46 1452.37 M843.46 1448.67 Q849.27 1448.67 852.325 1453.27 Q855.404 1457.86 855.404 1466.61 Q855.404 1475.33 852.325 1479.94 Q849.27 1484.52 843.46 1484.52 Q837.65 1484.52 834.571 1479.94 Q831.515 1475.33 831.515 1466.61 Q831.515 1457.86 834.571 1453.27 Q837.65 1448.67 843.46 1448.67 Z" fill="#000000" fill-rule="evenodd" fill-opacity="1" /><path clip-path="url(#clip260)" d="M873.622 1452.37 Q870.01 1452.37 868.182 1455.94 Q866.376 1459.48 866.376 1466.61 Q866.376 1473.71 868.182 1477.28 Q870.01 1480.82 873.622 1480.82 Q877.256 1480.82 879.061 1477.28 Q880.89 1473.71 880.89 1466.61 Q880.89 1459.48 879.061 1455.94 Q877.256 1452.37 873.622 1452.37 M873.622 1448.67 Q879.432 1448.67 882.487 1453.27 Q885.566 1457.86 885.566 1466.61 Q885.566 1475.33 882.487 1479.94 Q879.432 1484.52 873.622 1484.52 Q867.811 1484.52 864.733 1479.94 Q861.677 1475.33 861.677 1466.61 Q861.677 1457.86 864.733 1453.27 Q867.811 1448.67 873.622 1448.67 Z" fill="#000000" fill-rule="evenodd" fill-opacity="1" /><path clip-path="url(#clip260)" d="M1077.77 1464.71 Q1074.63 1464.71 1072.77 1466.86 Q1070.95 1469.01 1070.95 1472.76 Q1070.95 1476.49 1072.77 1478.67 Q1074.63 1480.82 1077.77 1480.82 Q1080.92 1480.82 1082.75 1478.67 Q1084.6 1476.49 1084.6 1472.76 Q1084.6 1469.01 1082.75 1466.86 Q1080.92 1464.71 1077.77 1464.71 M1087.06 1450.06 L1087.06 1454.31 Q1085.3 1453.48 1083.49 1453.04 Q1081.71 1452.6 1079.95 1452.6 Q1075.32 1452.6 1072.87 1455.73 Q1070.44 1458.85 1070.09 1465.17 Q1071.46 1463.16 1073.52 1462.09 Q1075.58 1461 1078.05 1461 Q1083.26 1461 1086.27 1464.18 Q1089.3 1467.32 1089.3 1472.76 Q1089.3 1478.09 1086.15 1481.31 Q1083.01 1484.52 1077.77 1484.52 Q1071.78 1484.52 1068.61 1479.94 Q1065.44 1475.33 1065.44 1466.61 Q1065.44 1458.41 1069.33 1453.55 Q1073.21 1448.67 1079.77 1448.67 Q1081.52 1448.67 1083.31 1449.01 Q1085.11 1449.36 1087.06 1450.06 Z" fill="#000000" fill-rule="evenodd" fill-opacity="1" /><path clip-path="url(#clip260)" d="M1107.36 1452.37 Q1103.75 1452.37 1101.92 1455.94 Q1100.11 1459.48 1100.11 1466.61 Q1100.11 1473.71 1101.92 1477.28 Q1103.75 1480.82 1107.36 1480.82 Q1110.99 1480.82 1112.8 1477.28 Q1114.63 1473.71 1114.63 1466.61 Q1114.63 1459.48 1112.8 1455.94 Q1110.99 1452.37 1107.36 1452.37 M1107.36 1448.67 Q1113.17 1448.67 1116.22 1453.27 Q1119.3 1457.86 1119.3 1466.61 Q1119.3 1475.33 1116.22 1479.94 Q1113.17 1484.52 1107.36 1484.52 Q1101.55 1484.52 1098.47 1479.94 Q1095.41 1475.33 1095.41 1466.61 Q1095.41 1457.86 1098.47 1453.27 Q1101.55 1448.67 1107.36 1448.67 Z" fill="#000000" fill-rule="evenodd" fill-opacity="1" /><path clip-path="url(#clip260)" d="M1137.52 1452.37 Q1133.91 1452.37 1132.08 1455.94 Q1130.27 1459.48 1130.27 1466.61 Q1130.27 1473.71 1132.08 1477.28 Q1133.91 1480.82 1137.52 1480.82 Q1141.15 1480.82 1142.96 1477.28 Q1144.79 1473.71 1144.79 1466.61 Q1144.79 1459.48 1142.96 1455.94 Q1141.15 1452.37 1137.52 1452.37 M1137.52 1448.67 Q1143.33 1448.67 1146.39 1453.27 Q1149.46 1457.86 1149.46 1466.61 Q1149.46 1475.33 1146.39 1479.94 Q1143.33 1484.52 1137.52 1484.52 Q1131.71 1484.52 1128.63 1479.94 Q1125.58 1475.33 1125.58 1466.61 Q1125.58 1457.86 1128.63 1453.27 Q1131.71 1448.67 1137.52 1448.67 Z" fill="#000000" fill-rule="evenodd" fill-opacity="1" /><path clip-path="url(#clip260)" d="M1341.64 1467.44 Q1338.31 1467.44 1336.38 1469.22 Q1334.49 1471 1334.49 1474.13 Q1334.49 1477.25 1336.38 1479.04 Q1338.31 1480.82 1341.64 1480.82 Q1344.97 1480.82 1346.89 1479.04 Q1348.81 1477.23 1348.81 1474.13 Q1348.81 1471 1346.89 1469.22 Q1344.99 1467.44 1341.64 1467.44 M1336.96 1465.45 Q1333.95 1464.71 1332.26 1462.65 Q1330.6 1460.59 1330.6 1457.63 Q1330.6 1453.48 1333.54 1451.07 Q1336.5 1448.67 1341.64 1448.67 Q1346.8 1448.67 1349.74 1451.07 Q1352.68 1453.48 1352.68 1457.63 Q1352.68 1460.59 1350.99 1462.65 Q1349.32 1464.71 1346.34 1465.45 Q1349.72 1466.24 1351.59 1468.53 Q1353.49 1470.82 1353.49 1474.13 Q1353.49 1479.15 1350.41 1481.84 Q1347.36 1484.52 1341.64 1484.52 Q1335.92 1484.52 1332.84 1481.84 Q1329.79 1479.15 1329.79 1474.13 Q1329.79 1470.82 1331.68 1468.53 Q1333.58 1466.24 1336.96 1465.45 M1335.25 1458.06 Q1335.25 1460.75 1336.92 1462.25 Q1338.61 1463.76 1341.64 1463.76 Q1344.65 1463.76 1346.34 1462.25 Q1348.05 1460.75 1348.05 1458.06 Q1348.05 1455.38 1346.34 1453.88 Q1344.65 1452.37 1341.64 1452.37 Q1338.61 1452.37 1336.92 1453.88 Q1335.25 1455.38 1335.25 1458.06 Z" fill="#000000" fill-rule="evenodd" fill-opacity="1" /><path clip-path="url(#clip260)" d="M1371.8 1452.37 Q1368.19 1452.37 1366.36 1455.94 Q1364.56 1459.48 1364.56 1466.61 Q1364.56 1473.71 1366.36 1477.28 Q1368.19 1480.82 1371.8 1480.82 Q1375.43 1480.82 1377.24 1477.28 Q1379.07 1473.71 1379.07 1466.61 Q1379.07 1459.48 1377.24 1455.94 Q1375.43 1452.37 1371.8 1452.37 M1371.8 1448.67 Q1377.61 1448.67 1380.67 1453.27 Q1383.74 1457.86 1383.74 1466.61 Q1383.74 1475.33 1380.67 1479.94 Q1377.61 1484.52 1371.8 1484.52 Q1365.99 1484.52 1362.91 1479.94 Q1359.86 1475.33 1359.86 1466.61 Q1359.86 1457.86 1362.91 1453.27 Q1365.99 1448.67 1371.8 1448.67 Z" fill="#000000" fill-rule="evenodd" fill-opacity="1" /><path clip-path="url(#clip260)" d="M1401.96 1452.37 Q1398.35 1452.37 1396.52 1455.94 Q1394.72 1459.48 1394.72 1466.61 Q1394.72 1473.71 1396.52 1477.28 Q1398.35 1480.82 1401.96 1480.82 Q1405.6 1480.82 1407.4 1477.28 Q1409.23 1473.71 1409.23 1466.61 Q1409.23 1459.48 1407.4 1455.94 Q1405.6 1452.37 1401.96 1452.37 M1401.96 1448.67 Q1407.77 1448.67 1410.83 1453.27 Q1413.91 1457.86 1413.91 1466.61 Q1413.91 1475.33 1410.83 1479.94 Q1407.77 1484.52 1401.96 1484.52 Q1396.15 1484.52 1393.07 1479.94 Q1390.02 1475.33 1390.02 1466.61 Q1390.02 1457.86 1393.07 1453.27 Q1396.15 1448.67 1401.96 1448.67 Z" fill="#000000" fill-rule="evenodd" fill-opacity="1" /><path clip-path="url(#clip260)" d="M1580.77 1479.92 L1588.41 1479.92 L1588.41 1453.55 L1580.1 1455.22 L1580.1 1450.96 L1588.36 1449.29 L1593.04 1449.29 L1593.04 1479.92 L1600.68 1479.92 L1600.68 1483.85 L1580.77 1483.85 L1580.77 1479.92 Z" fill="#000000" fill-rule="evenodd" fill-opacity="1" /><path clip-path="url(#clip260)" d="M1620.12 1452.37 Q1616.51 1452.37 1614.68 1455.94 Q1612.87 1459.48 1612.87 1466.61 Q1612.87 1473.71 1614.68 1477.28 Q1616.51 1480.82 1620.12 1480.82 Q1623.75 1480.82 1625.56 1477.28 Q1627.39 1473.71 1627.39 1466.61 Q1627.39 1459.48 1625.56 1455.94 Q1623.75 1452.37 1620.12 1452.37 M1620.12 1448.67 Q1625.93 1448.67 1628.99 1453.27 Q1632.06 1457.86 1632.06 1466.61 Q1632.06 1475.33 1628.99 1479.94 Q1625.93 1484.52 1620.12 1484.52 Q1614.31 1484.52 1611.23 1479.94 Q1608.18 1475.33 1608.18 1466.61 Q1608.18 1457.86 1611.23 1453.27 Q1614.31 1448.67 1620.12 1448.67 Z" fill="#000000" fill-rule="evenodd" fill-opacity="1" /><path clip-path="url(#clip260)" d="M1650.28 1452.37 Q1646.67 1452.37 1644.84 1455.94 Q1643.04 1459.48 1643.04 1466.61 Q1643.04 1473.71 1644.84 1477.28 Q1646.67 1480.82 1650.28 1480.82 Q1653.92 1480.82 1655.72 1477.28 Q1657.55 1473.71 1657.55 1466.61 Q1657.55 1459.48 1655.72 1455.94 Q1653.92 1452.37 1650.28 1452.37 M1650.28 1448.67 Q1656.09 1448.67 1659.15 1453.27 Q1662.23 1457.86 1662.23 1466.61 Q1662.23 1475.33 1659.15 1479.94 Q1656.09 1484.52 1650.28 1484.52 Q1644.47 1484.52 1641.39 1479.94 Q1638.34 1475.33 1638.34 1466.61 Q1638.34 1457.86 1641.39 1453.27 Q1644.47 1448.67 1650.28 1448.67 Z" fill="#000000" fill-rule="evenodd" fill-opacity="1" /><path clip-path="url(#clip260)" d="M1680.44 1452.37 Q1676.83 1452.37 1675 1455.94 Q1673.2 1459.48 1673.2 1466.61 Q1673.2 1473.71 1675 1477.28 Q1676.83 1480.82 1680.44 1480.82 Q1684.08 1480.82 1685.88 1477.28 Q1687.71 1473.71 1687.71 1466.61 Q1687.71 1459.48 1685.88 1455.94 Q1684.08 1452.37 1680.44 1452.37 M1680.44 1448.67 Q1686.25 1448.67 1689.31 1453.27 Q1692.39 1457.86 1692.39 1466.61 Q1692.39 1475.33 1689.31 1479.94 Q1686.25 1484.52 1680.44 1484.52 Q1674.63 1484.52 1671.55 1479.94 Q1668.5 1475.33 1668.5 1466.61 Q1668.5 1457.86 1671.55 1453.27 Q1674.63 1448.67 1680.44 1448.67 Z" fill="#000000" fill-rule="evenodd" fill-opacity="1" /><path clip-path="url(#clip260)" d="M1845.16 1479.92 L1852.8 1479.92 L1852.8 1453.55 L1844.49 1455.22 L1844.49 1450.96 L1852.76 1449.29 L1857.43 1449.29 L1857.43 1479.92 L1865.07 1479.92 L1865.07 1483.85 L1845.16 1483.85 L1845.16 1479.92 Z" fill="#000000" fill-rule="evenodd" fill-opacity="1" /><path clip-path="url(#clip260)" d="M1878.54 1479.92 L1894.86 1479.92 L1894.86 1483.85 L1872.92 1483.85 L1872.92 1479.92 Q1875.58 1477.16 1880.16 1472.53 Q1884.77 1467.88 1885.95 1466.54 Q1888.2 1464.01 1889.08 1462.28 Q1889.98 1460.52 1889.98 1458.83 Q1889.98 1456.07 1888.03 1454.34 Q1886.11 1452.6 1883.01 1452.6 Q1880.81 1452.6 1878.36 1453.37 Q1875.93 1454.13 1873.15 1455.68 L1873.15 1450.96 Q1875.97 1449.82 1878.43 1449.25 Q1880.88 1448.67 1882.92 1448.67 Q1888.29 1448.67 1891.48 1451.35 Q1894.68 1454.04 1894.68 1458.53 Q1894.68 1460.66 1893.87 1462.58 Q1893.08 1464.48 1890.97 1467.07 Q1890.4 1467.74 1887.29 1470.96 Q1884.19 1474.15 1878.54 1479.92 Z" fill="#000000" fill-rule="evenodd" fill-opacity="1" /><path clip-path="url(#clip260)" d="M1914.68 1452.37 Q1911.07 1452.37 1909.24 1455.94 Q1907.43 1459.48 1907.43 1466.61 Q1907.43 1473.71 1909.24 1477.28 Q1911.07 1480.82 1914.68 1480.82 Q1918.31 1480.82 1920.12 1477.28 Q1921.95 1473.71 1921.95 1466.61 Q1921.95 1459.48 1920.12 1455.94 Q1918.31 1452.37 1914.68 1452.37 M1914.68 1448.67 Q1920.49 1448.67 1923.54 1453.27 Q1926.62 1457.86 1926.62 1466.61 Q1926.62 1475.33 1923.54 1479.94 Q1920.49 1484.52 1914.68 1484.52 Q1908.87 1484.52 1905.79 1479.94 Q1902.73 1475.33 1902.73 1466.61 Q1902.73 1457.86 1905.79 1453.27 Q1908.87 1448.67 1914.68 1448.67 Z" fill="#000000" fill-rule="evenodd" fill-opacity="1" /><path clip-path="url(#clip260)" d="M1944.84 1452.37 Q1941.23 1452.37 1939.4 1455.94 Q1937.59 1459.48 1937.59 1466.61 Q1937.59 1473.71 1939.4 1477.28 Q1941.23 1480.82 1944.84 1480.82 Q1948.47 1480.82 1950.28 1477.28 Q1952.11 1473.71 1952.11 1466.61 Q1952.11 1459.48 1950.28 1455.94 Q1948.47 1452.37 1944.84 1452.37 M1944.84 1448.67 Q1950.65 1448.67 1953.71 1453.27 Q1956.78 1457.86 1956.78 1466.61 Q1956.78 1475.33 1953.71 1479.94 Q1950.65 1484.52 1944.84 1484.52 Q1939.03 1484.52 1935.95 1479.94 Q1932.9 1475.33 1932.9 1466.61 Q1932.9 1457.86 1935.95 1453.27 Q1939.03 1448.67 1944.84 1448.67 Z" fill="#000000" fill-rule="evenodd" fill-opacity="1" /><path clip-path="url(#clip260)" d="M2109.56 1479.92 L2117.2 1479.92 L2117.2 1453.55 L2108.89 1455.22 L2108.89 1450.96 L2117.15 1449.29 L2121.83 1449.29 L2121.83 1479.92 L2129.47 1479.92 L2129.47 1483.85 L2109.56 1483.85 L2109.56 1479.92 Z" fill="#000000" fill-rule="evenodd" fill-opacity="1" /><path clip-path="url(#clip260)" d="M2151.76 1453.37 L2139.95 1471.81 L2151.76 1471.81 L2151.76 1453.37 M2150.53 1449.29 L2156.41 1449.29 L2156.41 1471.81 L2161.34 1471.81 L2161.34 1475.7 L2156.41 1475.7 L2156.41 1483.85 L2151.76 1483.85 L2151.76 1475.7 L2136.16 1475.7 L2136.16 1471.19 L2150.53 1449.29 Z" fill="#000000" fill-rule="evenodd" fill-opacity="1" /><path clip-path="url(#clip260)" d="M2179.07 1452.37 Q2175.46 1452.37 2173.63 1455.94 Q2171.83 1459.48 2171.83 1466.61 Q2171.83 1473.71 2173.63 1477.28 Q2175.46 1480.82 2179.07 1480.82 Q2182.71 1480.82 2184.51 1477.28 Q2186.34 1473.71 2186.34 1466.61 Q2186.34 1459.48 2184.51 1455.94 Q2182.71 1452.37 2179.07 1452.37 M2179.07 1448.67 Q2184.88 1448.67 2187.94 1453.27 Q2191.02 1457.86 2191.02 1466.61 Q2191.02 1475.33 2187.94 1479.94 Q2184.88 1484.52 2179.07 1484.52 Q2173.26 1484.52 2170.19 1479.94 Q2167.13 1475.33 2167.13 1466.61 Q2167.13 1457.86 2170.19 1453.27 Q2173.26 1448.67 2179.07 1448.67 Z" fill="#000000" fill-rule="evenodd" fill-opacity="1" /><path clip-path="url(#clip260)" d="M2209.24 1452.37 Q2205.62 1452.37 2203.8 1455.94 Q2201.99 1459.48 2201.99 1466.61 Q2201.99 1473.71 2203.8 1477.28 Q2205.62 1480.82 2209.24 1480.82 Q2212.87 1480.82 2214.68 1477.28 Q2216.5 1473.71 2216.5 1466.61 Q2216.5 1459.48 2214.68 1455.94 Q2212.87 1452.37 2209.24 1452.37 M2209.24 1448.67 Q2215.05 1448.67 2218.1 1453.27 Q2221.18 1457.86 2221.18 1466.61 Q2221.18 1475.33 2218.1 1479.94 Q2215.05 1484.52 2209.24 1484.52 Q2203.43 1484.52 2200.35 1479.94 Q2197.29 1475.33 2197.29 1466.61 Q2197.29 1457.86 2200.35 1453.27 Q2203.43 1448.67 2209.24 1448.67 Z" fill="#000000" fill-rule="evenodd" fill-opacity="1" /><path clip-path="url(#clip260)" d="M1087.92 1520.52 L1094.41 1520.52 L1104.41 1560.69 L1114.37 1520.52 L1121.59 1520.52 L1131.59 1560.69 L1141.55 1520.52 L1148.08 1520.52 L1136.14 1568.04 L1128.06 1568.04 L1118.03 1526.79 L1107.91 1568.04 L1099.82 1568.04 L1087.92 1520.52 Z" fill="#000000" fill-rule="evenodd" fill-opacity="1" /><path clip-path="url(#clip260)" d="M1183.02 1548.76 L1183.02 1551.62 L1156.1 1551.62 Q1156.48 1557.67 1159.73 1560.85 Q1163 1564 1168.83 1564 Q1172.2 1564 1175.35 1563.17 Q1178.54 1562.35 1181.66 1560.69 L1181.66 1566.23 Q1178.5 1567.57 1175.19 1568.27 Q1171.88 1568.97 1168.48 1568.97 Q1159.95 1568.97 1154.95 1564 Q1149.99 1559.04 1149.99 1550.57 Q1149.99 1541.82 1154.7 1536.69 Q1159.44 1531.54 1167.46 1531.54 Q1174.65 1531.54 1178.82 1536.18 Q1183.02 1540.8 1183.02 1548.76 M1177.17 1547.04 Q1177.1 1542.23 1174.46 1539.37 Q1171.85 1536.5 1167.52 1536.5 Q1162.62 1536.5 1159.66 1539.27 Q1156.73 1542.04 1156.29 1547.07 L1177.17 1547.04 Z" fill="#000000" fill-rule="evenodd" fill-opacity="1" /><path clip-path="url(#clip260)" d="M1192.64 1518.52 L1198.49 1518.52 L1198.49 1568.04 L1192.64 1568.04 L1192.64 1518.52 Z" fill="#000000" fill-rule="evenodd" fill-opacity="1" /><path clip-path="url(#clip260)" d="M1210.75 1518.52 L1216.6 1518.52 L1216.6 1568.04 L1210.75 1568.04 L1210.75 1518.52 Z" fill="#000000" fill-rule="evenodd" fill-opacity="1" /><path clip-path="url(#clip260)" d="M1259.35 1548.76 L1259.35 1551.62 L1232.42 1551.62 Q1232.8 1557.67 1236.05 1560.85 Q1239.33 1564 1245.15 1564 Q1248.53 1564 1251.68 1563.17 Q1254.86 1562.35 1257.98 1560.69 L1257.98 1566.23 Q1254.83 1567.57 1251.52 1568.27 Q1248.21 1568.97 1244.8 1568.97 Q1236.27 1568.97 1231.28 1564 Q1226.31 1559.04 1226.31 1550.57 Q1226.31 1541.82 1231.02 1536.69 Q1235.76 1531.54 1243.78 1531.54 Q1250.98 1531.54 1255.15 1536.18 Q1259.35 1540.8 1259.35 1548.76 M1253.49 1547.04 Q1253.43 1542.23 1250.79 1539.37 Q1248.18 1536.5 1243.85 1536.5 Q1238.95 1536.5 1235.99 1539.27 Q1233.06 1542.04 1232.61 1547.07 L1253.49 1547.04 Z" fill="#000000" fill-rule="evenodd" fill-opacity="1" /><path clip-path="url(#clip260)" d="M1298.59 1546.53 L1298.59 1568.04 L1292.74 1568.04 L1292.74 1546.72 Q1292.74 1541.66 1290.76 1539.14 Q1288.79 1536.63 1284.84 1536.63 Q1280.1 1536.63 1277.36 1539.65 Q1274.63 1542.68 1274.63 1547.9 L1274.63 1568.04 L1268.74 1568.04 L1268.74 1532.4 L1274.63 1532.4 L1274.63 1537.93 Q1276.73 1534.72 1279.56 1533.13 Q1282.42 1531.54 1286.15 1531.54 Q1292.29 1531.54 1295.44 1535.36 Q1298.59 1539.14 1298.59 1546.53 Z" fill="#000000" fill-rule="evenodd" fill-opacity="1" /><path clip-path="url(#clip260)" d="M1310.27 1518.52 L1316.13 1518.52 L1316.13 1568.04 L1310.27 1568.04 L1310.27 1518.52 Z" fill="#000000" fill-rule="evenodd" fill-opacity="1" /><path clip-path="url(#clip260)" d="M1344.59 1550.12 Q1337.49 1550.12 1334.75 1551.75 Q1332.01 1553.37 1332.01 1557.29 Q1332.01 1560.4 1334.05 1562.25 Q1336.12 1564.07 1339.65 1564.07 Q1344.52 1564.07 1347.45 1560.63 Q1350.41 1557.16 1350.41 1551.43 L1350.41 1550.12 L1344.59 1550.12 M1356.27 1547.71 L1356.27 1568.04 L1350.41 1568.04 L1350.41 1562.63 Q1348.4 1565.88 1345.41 1567.44 Q1342.42 1568.97 1338.09 1568.97 Q1332.62 1568.97 1329.37 1565.91 Q1326.16 1562.82 1326.16 1557.67 Q1326.16 1551.65 1330.17 1548.6 Q1334.21 1545.54 1342.2 1545.54 L1350.41 1545.54 L1350.41 1544.97 Q1350.41 1540.93 1347.74 1538.73 Q1345.09 1536.5 1340.29 1536.5 Q1337.23 1536.5 1334.34 1537.23 Q1331.44 1537.97 1328.77 1539.43 L1328.77 1534.02 Q1331.98 1532.78 1335.01 1532.17 Q1338.03 1531.54 1340.89 1531.54 Q1348.63 1531.54 1352.45 1535.55 Q1356.27 1539.56 1356.27 1547.71 M1344.14 1518.65 L1350.6 1518.65 L1350.6 1525.08 L1344.14 1525.08 L1344.14 1518.65 M1331.69 1518.65 L1338.16 1518.65 L1338.16 1525.08 L1331.69 1525.08 L1331.69 1518.65 Z" fill="#000000" fill-rule="evenodd" fill-opacity="1" /><path clip-path="url(#clip260)" d="M1397.96 1546.53 L1397.96 1568.04 L1392.11 1568.04 L1392.11 1546.72 Q1392.11 1541.66 1390.13 1539.14 Q1388.16 1536.63 1384.21 1536.63 Q1379.47 1536.63 1376.73 1539.65 Q1374 1542.68 1374 1547.9 L1374 1568.04 L1368.11 1568.04 L1368.11 1532.4 L1374 1532.4 L1374 1537.93 Q1376.1 1534.72 1378.93 1533.13 Q1381.79 1531.54 1385.52 1531.54 Q1391.66 1531.54 1394.81 1535.36 Q1397.96 1539.14 1397.96 1546.53 Z" fill="#000000" fill-rule="evenodd" fill-opacity="1" /><path clip-path="url(#clip260)" d="M1433.1 1549.81 Q1433.1 1543.44 1430.46 1539.94 Q1427.85 1536.44 1423.11 1536.44 Q1418.4 1536.44 1415.75 1539.94 Q1413.14 1543.44 1413.14 1549.81 Q1413.14 1556.14 1415.75 1559.64 Q1418.4 1563.14 1423.11 1563.14 Q1427.85 1563.14 1430.46 1559.64 Q1433.1 1556.14 1433.1 1549.81 M1438.96 1563.62 Q1438.96 1572.72 1434.91 1577.15 Q1430.87 1581.6 1422.53 1581.6 Q1419.45 1581.6 1416.71 1581.13 Q1413.97 1580.68 1411.39 1579.72 L1411.39 1574.03 Q1413.97 1575.43 1416.49 1576.1 Q1419 1576.76 1421.61 1576.76 Q1427.37 1576.76 1430.24 1573.74 Q1433.1 1570.75 1433.1 1564.67 L1433.1 1561.77 Q1431.29 1564.92 1428.45 1566.48 Q1425.62 1568.04 1421.67 1568.04 Q1415.12 1568.04 1411.11 1563.05 Q1407.1 1558.05 1407.1 1549.81 Q1407.1 1541.53 1411.11 1536.53 Q1415.12 1531.54 1421.67 1531.54 Q1425.62 1531.54 1428.45 1533.1 Q1431.29 1534.66 1433.1 1537.81 L1433.1 1532.4 L1438.96 1532.4 L1438.96 1563.62 Z" fill="#000000" fill-rule="evenodd" fill-opacity="1" /><path clip-path="url(#clip260)" d="M1481.51 1548.76 L1481.51 1551.62 L1454.58 1551.62 Q1454.97 1557.67 1458.21 1560.85 Q1461.49 1564 1467.32 1564 Q1470.69 1564 1473.84 1563.17 Q1477.02 1562.35 1480.14 1560.69 L1480.14 1566.23 Q1476.99 1567.57 1473.68 1568.27 Q1470.37 1568.97 1466.97 1568.97 Q1458.44 1568.97 1453.44 1564 Q1448.47 1559.04 1448.47 1550.57 Q1448.47 1541.82 1453.18 1536.69 Q1457.93 1531.54 1465.95 1531.54 Q1473.14 1531.54 1477.31 1536.18 Q1481.51 1540.8 1481.51 1548.76 M1475.66 1547.04 Q1475.59 1542.23 1472.95 1539.37 Q1470.34 1536.5 1466.01 1536.5 Q1461.11 1536.5 1458.15 1539.27 Q1455.22 1542.04 1454.78 1547.07 L1475.66 1547.04 Z" fill="#000000" fill-rule="evenodd" fill-opacity="1" /><path clip-path="url(#clip260)" d="M1511.3 1518.52 L1524.8 1518.52 L1524.8 1523.07 L1517.16 1523.07 L1517.16 1572.09 L1524.8 1572.09 L1524.8 1576.64 L1511.3 1576.64 L1511.3 1518.52 Z" fill="#000000" fill-rule="evenodd" fill-opacity="1" /><path clip-path="url(#clip260)" d="M1566.91 1546.53 L1566.91 1568.04 L1561.05 1568.04 L1561.05 1546.72 Q1561.05 1541.66 1559.08 1539.14 Q1557.1 1536.63 1553.16 1536.63 Q1548.42 1536.63 1545.68 1539.65 Q1542.94 1542.68 1542.94 1547.9 L1542.94 1568.04 L1537.05 1568.04 L1537.05 1532.4 L1542.94 1532.4 L1542.94 1537.93 Q1545.04 1534.72 1547.87 1533.13 Q1550.74 1531.54 1554.46 1531.54 Q1560.61 1531.54 1563.76 1535.36 Q1566.91 1539.14 1566.91 1546.53 Z" fill="#000000" fill-rule="evenodd" fill-opacity="1" /><path clip-path="url(#clip260)" d="M1606.34 1539.24 Q1608.54 1535.29 1611.6 1533.41 Q1614.65 1531.54 1618.79 1531.54 Q1624.36 1531.54 1627.38 1535.45 Q1630.41 1539.33 1630.41 1546.53 L1630.41 1568.04 L1624.52 1568.04 L1624.52 1546.72 Q1624.52 1541.59 1622.7 1539.11 Q1620.89 1536.63 1617.17 1536.63 Q1612.61 1536.63 1609.97 1539.65 Q1607.33 1542.68 1607.33 1547.9 L1607.33 1568.04 L1601.44 1568.04 L1601.44 1546.72 Q1601.44 1541.56 1599.63 1539.11 Q1597.81 1536.63 1594.03 1536.63 Q1589.54 1536.63 1586.9 1539.68 Q1584.25 1542.71 1584.25 1547.9 L1584.25 1568.04 L1578.37 1568.04 L1578.37 1532.4 L1584.25 1532.4 L1584.25 1537.93 Q1586.26 1534.66 1589.06 1533.1 Q1591.86 1531.54 1595.71 1531.54 Q1599.6 1531.54 1602.3 1533.51 Q1605.04 1535.48 1606.34 1539.24 Z" fill="#000000" fill-rule="evenodd" fill-opacity="1" /><path clip-path="url(#clip260)" d="M1655.77 1518.52 L1655.77 1576.64 L1642.28 1576.64 L1642.28 1572.09 L1649.88 1572.09 L1649.88 1523.07 L1642.28 1523.07 L1642.28 1518.52 L1655.77 1518.52 Z" fill="#000000" fill-rule="evenodd" fill-opacity="1" /><polyline clip-path="url(#clip262)" style="stroke:#000000; stroke-linecap:butt; stroke-linejoin:round; stroke-width:2; stroke-opacity:0.1; fill:none" points="
  390.937,1384.24 2352.76,1384.24 
  "/>
<polyline clip-path="url(#clip262)" style="stroke:#000000; stroke-linecap:butt; stroke-linejoin:round; stroke-width:2; stroke-opacity:0.1; fill:none" points="
  390.937,1059.9 2352.76,1059.9 
  "/>
<polyline clip-path="url(#clip262)" style="stroke:#000000; stroke-linecap:butt; stroke-linejoin:round; stroke-width:2; stroke-opacity:0.1; fill:none" points="
  390.937,735.553 2352.76,735.553 
  "/>
<polyline clip-path="url(#clip262)" style="stroke:#000000; stroke-linecap:butt; stroke-linejoin:round; stroke-width:2; stroke-opacity:0.1; fill:none" points="
  390.937,411.21 2352.76,411.21 
  "/>
<polyline clip-path="url(#clip262)" style="stroke:#000000; stroke-linecap:butt; stroke-linejoin:round; stroke-width:2; stroke-opacity:0.1; fill:none" points="
  390.937,86.8678 2352.76,86.8678 
  "/>
<polyline clip-path="url(#clip260)" style="stroke:#000000; stroke-linecap:butt; stroke-linejoin:round; stroke-width:4; stroke-opacity:1; fill:none" points="
  390.937,1423.18 390.937,47.2441 
  "/>
<polyline clip-path="url(#clip260)" style="stroke:#000000; stroke-linecap:butt; stroke-linejoin:round; stroke-width:4; stroke-opacity:1; fill:none" points="
  390.937,1384.24 414.479,1384.24 
  "/>
<polyline clip-path="url(#clip260)" style="stroke:#000000; stroke-linecap:butt; stroke-linejoin:round; stroke-width:4; stroke-opacity:1; fill:none" points="
  390.937,1059.9 414.479,1059.9 
  "/>
<polyline clip-path="url(#clip260)" style="stroke:#000000; stroke-linecap:butt; stroke-linejoin:round; stroke-width:4; stroke-opacity:1; fill:none" points="
  390.937,735.553 414.479,735.553 
  "/>
<polyline clip-path="url(#clip260)" style="stroke:#000000; stroke-linecap:butt; stroke-linejoin:round; stroke-width:4; stroke-opacity:1; fill:none" points="
  390.937,411.21 414.479,411.21 
  "/>
<polyline clip-path="url(#clip260)" style="stroke:#000000; stroke-linecap:butt; stroke-linejoin:round; stroke-width:4; stroke-opacity:1; fill:none" points="
  390.937,86.8678 414.479,86.8678 
  "/>
<path clip-path="url(#clip260)" d="M342.993 1370.04 Q339.382 1370.04 337.553 1373.6 Q335.748 1377.14 335.748 1384.27 Q335.748 1391.38 337.553 1394.94 Q339.382 1398.49 342.993 1398.49 Q346.627 1398.49 348.433 1394.94 Q350.261 1391.38 350.261 1384.27 Q350.261 1377.14 348.433 1373.6 Q346.627 1370.04 342.993 1370.04 M342.993 1366.33 Q348.803 1366.33 351.859 1370.94 Q354.937 1375.52 354.937 1384.27 Q354.937 1393 351.859 1397.61 Q348.803 1402.19 342.993 1402.19 Q337.183 1402.19 334.104 1397.61 Q331.049 1393 331.049 1384.27 Q331.049 1375.52 334.104 1370.94 Q337.183 1366.33 342.993 1366.33 Z" fill="#000000" fill-rule="evenodd" fill-opacity="1" /><path clip-path="url(#clip260)" d="M119.885 1079.69 L136.204 1079.69 L136.204 1083.62 L114.26 1083.62 L114.26 1079.69 Q116.922 1076.93 121.505 1072.3 Q126.112 1067.65 127.292 1066.31 Q129.538 1063.79 130.417 1062.05 Q131.32 1060.29 131.32 1058.6 Q131.32 1055.85 129.376 1054.11 Q127.455 1052.37 124.353 1052.37 Q122.154 1052.37 119.7 1053.14 Q117.269 1053.9 114.492 1055.45 L114.492 1050.73 Q117.316 1049.6 119.769 1049.02 Q122.223 1048.44 124.26 1048.44 Q129.63 1048.44 132.825 1051.12 Q136.019 1053.81 136.019 1058.3 Q136.019 1060.43 135.209 1062.35 Q134.422 1064.25 132.316 1066.84 Q131.737 1067.51 128.635 1070.73 Q125.533 1073.92 119.885 1079.69 Z" fill="#000000" fill-rule="evenodd" fill-opacity="1" /><path clip-path="url(#clip260)" d="M146.019 1077.74 L150.903 1077.74 L150.903 1083.62 L146.019 1083.62 L146.019 1077.74 Z" fill="#000000" fill-rule="evenodd" fill-opacity="1" /><path clip-path="url(#clip260)" d="M161.135 1049.06 L179.491 1049.06 L179.491 1053 L165.417 1053 L165.417 1061.47 Q166.436 1061.12 167.454 1060.96 Q168.473 1060.78 169.491 1060.78 Q175.278 1060.78 178.658 1063.95 Q182.038 1067.12 182.038 1072.54 Q182.038 1078.11 178.565 1081.22 Q175.093 1084.29 168.774 1084.29 Q166.598 1084.29 164.329 1083.92 Q162.084 1083.55 159.677 1082.81 L159.677 1078.11 Q161.76 1079.25 163.982 1079.8 Q166.204 1080.36 168.681 1080.36 Q172.686 1080.36 175.024 1078.25 Q177.362 1076.15 177.362 1072.54 Q177.362 1068.92 175.024 1066.82 Q172.686 1064.71 168.681 1064.71 Q166.806 1064.71 164.931 1065.13 Q163.079 1065.54 161.135 1066.42 L161.135 1049.06 Z" fill="#000000" fill-rule="evenodd" fill-opacity="1" /><path clip-path="url(#clip260)" d="M201.25 1052.14 Q197.639 1052.14 195.811 1055.71 Q194.005 1059.25 194.005 1066.38 Q194.005 1073.48 195.811 1077.05 Q197.639 1080.59 201.25 1080.59 Q204.885 1080.59 206.69 1077.05 Q208.519 1073.48 208.519 1066.38 Q208.519 1059.25 206.69 1055.71 Q204.885 1052.14 201.25 1052.14 M201.25 1048.44 Q207.061 1048.44 210.116 1053.04 Q213.195 1057.63 213.195 1066.38 Q213.195 1075.1 210.116 1079.71 Q207.061 1084.29 201.25 1084.29 Q195.44 1084.29 192.362 1079.71 Q189.306 1075.1 189.306 1066.38 Q189.306 1057.63 192.362 1053.04 Q195.44 1048.44 201.25 1048.44 Z" fill="#000000" fill-rule="evenodd" fill-opacity="1" /><path clip-path="url(#clip260)" d="M249.584 1058.16 L239.005 1068.79 L249.584 1079.36 L246.829 1082.16 L236.204 1071.54 L225.579 1082.16 L222.848 1079.36 L233.403 1068.79 L222.848 1058.16 L225.579 1055.36 L236.204 1065.98 L246.829 1055.36 L249.584 1058.16 Z" fill="#000000" fill-rule="evenodd" fill-opacity="1" /><path clip-path="url(#clip260)" d="M261.945 1079.69 L269.583 1079.69 L269.583 1053.32 L261.273 1054.99 L261.273 1050.73 L269.537 1049.06 L274.213 1049.06 L274.213 1079.69 L281.852 1079.69 L281.852 1083.62 L261.945 1083.62 L261.945 1079.69 Z" fill="#000000" fill-rule="evenodd" fill-opacity="1" /><path clip-path="url(#clip260)" d="M301.296 1052.14 Q297.685 1052.14 295.856 1055.71 Q294.051 1059.25 294.051 1066.38 Q294.051 1073.48 295.856 1077.05 Q297.685 1080.59 301.296 1080.59 Q304.93 1080.59 306.736 1077.05 Q308.565 1073.48 308.565 1066.38 Q308.565 1059.25 306.736 1055.71 Q304.93 1052.14 301.296 1052.14 M301.296 1048.44 Q307.106 1048.44 310.162 1053.04 Q313.241 1057.63 313.241 1066.38 Q313.241 1075.1 310.162 1079.71 Q307.106 1084.29 301.296 1084.29 Q295.486 1084.29 292.407 1079.71 Q289.352 1075.1 289.352 1066.38 Q289.352 1057.63 292.407 1053.04 Q295.486 1048.44 301.296 1048.44 Z" fill="#000000" fill-rule="evenodd" fill-opacity="1" /><path clip-path="url(#clip260)" d="M313.786 1053.02 L319.993 1053.02 L319.993 1031.59 L313.241 1032.95 L313.241 1029.49 L319.955 1028.13 L323.754 1028.13 L323.754 1053.02 L329.961 1053.02 L329.961 1056.21 L313.786 1056.21 L313.786 1053.02 Z" fill="#000000" fill-rule="evenodd" fill-opacity="1" /><path clip-path="url(#clip260)" d="M349.145 1041.07 Q351.872 1041.66 353.395 1043.5 Q354.937 1045.34 354.937 1048.05 Q354.937 1052.21 352.079 1054.48 Q349.22 1056.76 343.954 1056.76 Q342.186 1056.76 340.305 1056.4 Q338.443 1056.06 336.449 1055.37 L336.449 1051.7 Q338.029 1052.62 339.91 1053.09 Q341.791 1053.56 343.841 1053.56 Q347.414 1053.56 349.276 1052.15 Q351.157 1050.74 351.157 1048.05 Q351.157 1045.57 349.408 1044.18 Q347.678 1042.77 344.574 1042.77 L341.302 1042.77 L341.302 1039.64 L344.725 1039.64 Q347.527 1039.64 349.013 1038.53 Q350.499 1037.41 350.499 1035.3 Q350.499 1033.14 348.957 1031.99 Q347.433 1030.82 344.574 1030.82 Q343.013 1030.82 341.227 1031.16 Q339.44 1031.5 337.296 1032.21 L337.296 1028.83 Q339.459 1028.23 341.339 1027.93 Q343.239 1027.63 344.913 1027.63 Q349.239 1027.63 351.759 1029.6 Q354.279 1031.56 354.279 1034.9 Q354.279 1037.24 352.944 1038.85 Q351.608 1040.45 349.145 1041.07 Z" fill="#000000" fill-rule="evenodd" fill-opacity="1" /><path clip-path="url(#clip260)" d="M115.904 724.721 L134.26 724.721 L134.26 728.656 L120.186 728.656 L120.186 737.128 Q121.205 736.781 122.223 736.619 Q123.242 736.434 124.26 736.434 Q130.047 736.434 133.427 739.605 Q136.806 742.776 136.806 748.193 Q136.806 753.771 133.334 756.873 Q129.862 759.952 123.543 759.952 Q121.367 759.952 119.098 759.582 Q116.853 759.211 114.445 758.47 L114.445 753.771 Q116.529 754.906 118.751 755.461 Q120.973 756.017 123.45 756.017 Q127.455 756.017 129.792 753.91 Q132.13 751.804 132.13 748.193 Q132.13 744.582 129.792 742.475 Q127.455 740.369 123.45 740.369 Q121.575 740.369 119.7 740.785 Q117.848 741.202 115.904 742.082 L115.904 724.721 Z" fill="#000000" fill-rule="evenodd" fill-opacity="1" /><path clip-path="url(#clip260)" d="M146.019 753.401 L150.903 753.401 L150.903 759.281 L146.019 759.281 L146.019 753.401 Z" fill="#000000" fill-rule="evenodd" fill-opacity="1" /><path clip-path="url(#clip260)" d="M171.089 727.799 Q167.477 727.799 165.649 731.364 Q163.843 734.906 163.843 742.035 Q163.843 749.142 165.649 752.707 Q167.477 756.248 171.089 756.248 Q174.723 756.248 176.528 752.707 Q178.357 749.142 178.357 742.035 Q178.357 734.906 176.528 731.364 Q174.723 727.799 171.089 727.799 M171.089 724.096 Q176.899 724.096 179.954 728.702 Q183.033 733.285 183.033 742.035 Q183.033 750.762 179.954 755.369 Q176.899 759.952 171.089 759.952 Q165.278 759.952 162.2 755.369 Q159.144 750.762 159.144 742.035 Q159.144 733.285 162.2 728.702 Q165.278 724.096 171.089 724.096 Z" fill="#000000" fill-rule="evenodd" fill-opacity="1" /><path clip-path="url(#clip260)" d="M201.25 727.799 Q197.639 727.799 195.811 731.364 Q194.005 734.906 194.005 742.035 Q194.005 749.142 195.811 752.707 Q197.639 756.248 201.25 756.248 Q204.885 756.248 206.69 752.707 Q208.519 749.142 208.519 742.035 Q208.519 734.906 206.69 731.364 Q204.885 727.799 201.25 727.799 M201.25 724.096 Q207.061 724.096 210.116 728.702 Q213.195 733.285 213.195 742.035 Q213.195 750.762 210.116 755.369 Q207.061 759.952 201.25 759.952 Q195.44 759.952 192.362 755.369 Q189.306 750.762 189.306 742.035 Q189.306 733.285 192.362 728.702 Q195.44 724.096 201.25 724.096 Z" fill="#000000" fill-rule="evenodd" fill-opacity="1" /><path clip-path="url(#clip260)" d="M249.584 733.818 L239.005 744.443 L249.584 755.021 L246.829 757.822 L236.204 747.197 L225.579 757.822 L222.848 755.021 L233.403 744.443 L222.848 733.818 L225.579 731.017 L236.204 741.642 L246.829 731.017 L249.584 733.818 Z" fill="#000000" fill-rule="evenodd" fill-opacity="1" /><path clip-path="url(#clip260)" d="M261.945 755.345 L269.583 755.345 L269.583 728.98 L261.273 730.647 L261.273 726.387 L269.537 724.721 L274.213 724.721 L274.213 755.345 L281.852 755.345 L281.852 759.281 L261.945 759.281 L261.945 755.345 Z" fill="#000000" fill-rule="evenodd" fill-opacity="1" /><path clip-path="url(#clip260)" d="M301.296 727.799 Q297.685 727.799 295.856 731.364 Q294.051 734.906 294.051 742.035 Q294.051 749.142 295.856 752.707 Q297.685 756.248 301.296 756.248 Q304.93 756.248 306.736 752.707 Q308.565 749.142 308.565 742.035 Q308.565 734.906 306.736 731.364 Q304.93 727.799 301.296 727.799 M301.296 724.096 Q307.106 724.096 310.162 728.702 Q313.241 733.285 313.241 742.035 Q313.241 750.762 310.162 755.369 Q307.106 759.952 301.296 759.952 Q295.486 759.952 292.407 755.369 Q289.352 750.762 289.352 742.035 Q289.352 733.285 292.407 728.702 Q295.486 724.096 301.296 724.096 Z" fill="#000000" fill-rule="evenodd" fill-opacity="1" /><path clip-path="url(#clip260)" d="M313.786 728.673 L319.993 728.673 L319.993 707.251 L313.241 708.605 L313.241 705.144 L319.955 703.79 L323.754 703.79 L323.754 728.673 L329.961 728.673 L329.961 731.87 L313.786 731.87 L313.786 728.673 Z" fill="#000000" fill-rule="evenodd" fill-opacity="1" /><path clip-path="url(#clip260)" d="M349.145 716.73 Q351.872 717.313 353.395 719.156 Q354.937 720.999 354.937 723.708 Q354.937 727.864 352.079 730.14 Q349.22 732.416 343.954 732.416 Q342.186 732.416 340.305 732.058 Q338.443 731.72 336.449 731.024 L336.449 727.356 Q338.029 728.278 339.91 728.748 Q341.791 729.218 343.841 729.218 Q347.414 729.218 349.276 727.808 Q351.157 726.397 351.157 723.708 Q351.157 721.225 349.408 719.833 Q347.678 718.423 344.574 718.423 L341.302 718.423 L341.302 715.301 L344.725 715.301 Q347.527 715.301 349.013 714.191 Q350.499 713.062 350.499 710.956 Q350.499 708.793 348.957 707.646 Q347.433 706.48 344.574 706.48 Q343.013 706.48 341.227 706.818 Q339.44 707.157 337.296 707.872 L337.296 704.486 Q339.459 703.884 341.339 703.583 Q343.239 703.282 344.913 703.282 Q349.239 703.282 351.759 705.257 Q354.279 707.213 354.279 710.561 Q354.279 712.893 352.944 714.511 Q351.608 716.109 349.145 716.73 Z" fill="#000000" fill-rule="evenodd" fill-opacity="1" /><path clip-path="url(#clip260)" d="M114.677 400.378 L136.899 400.378 L136.899 402.369 L124.353 434.938 L119.468 434.938 L131.274 404.313 L114.677 404.313 L114.677 400.378 Z" fill="#000000" fill-rule="evenodd" fill-opacity="1" /><path clip-path="url(#clip260)" d="M146.019 429.058 L150.903 429.058 L150.903 434.938 L146.019 434.938 L146.019 429.058 Z" fill="#000000" fill-rule="evenodd" fill-opacity="1" /><path clip-path="url(#clip260)" d="M161.135 400.378 L179.491 400.378 L179.491 404.313 L165.417 404.313 L165.417 412.785 Q166.436 412.438 167.454 412.276 Q168.473 412.091 169.491 412.091 Q175.278 412.091 178.658 415.262 Q182.038 418.433 182.038 423.85 Q182.038 429.429 178.565 432.531 Q175.093 435.609 168.774 435.609 Q166.598 435.609 164.329 435.239 Q162.084 434.869 159.677 434.128 L159.677 429.429 Q161.76 430.563 163.982 431.119 Q166.204 431.674 168.681 431.674 Q172.686 431.674 175.024 429.568 Q177.362 427.461 177.362 423.85 Q177.362 420.239 175.024 418.133 Q172.686 416.026 168.681 416.026 Q166.806 416.026 164.931 416.443 Q163.079 416.859 161.135 417.739 L161.135 400.378 Z" fill="#000000" fill-rule="evenodd" fill-opacity="1" /><path clip-path="url(#clip260)" d="M201.25 403.457 Q197.639 403.457 195.811 407.021 Q194.005 410.563 194.005 417.693 Q194.005 424.799 195.811 428.364 Q197.639 431.906 201.25 431.906 Q204.885 431.906 206.69 428.364 Q208.519 424.799 208.519 417.693 Q208.519 410.563 206.69 407.021 Q204.885 403.457 201.25 403.457 M201.25 399.753 Q207.061 399.753 210.116 404.359 Q213.195 408.943 213.195 417.693 Q213.195 426.42 210.116 431.026 Q207.061 435.609 201.25 435.609 Q195.44 435.609 192.362 431.026 Q189.306 426.42 189.306 417.693 Q189.306 408.943 192.362 404.359 Q195.44 399.753 201.25 399.753 Z" fill="#000000" fill-rule="evenodd" fill-opacity="1" /><path clip-path="url(#clip260)" d="M249.584 409.475 L239.005 420.1 L249.584 430.679 L246.829 433.48 L236.204 422.855 L225.579 433.48 L222.848 430.679 L233.403 420.1 L222.848 409.475 L225.579 406.674 L236.204 417.299 L246.829 406.674 L249.584 409.475 Z" fill="#000000" fill-rule="evenodd" fill-opacity="1" /><path clip-path="url(#clip260)" d="M261.945 431.003 L269.583 431.003 L269.583 404.637 L261.273 406.304 L261.273 402.045 L269.537 400.378 L274.213 400.378 L274.213 431.003 L281.852 431.003 L281.852 434.938 L261.945 434.938 L261.945 431.003 Z" fill="#000000" fill-rule="evenodd" fill-opacity="1" /><path clip-path="url(#clip260)" d="M301.296 403.457 Q297.685 403.457 295.856 407.021 Q294.051 410.563 294.051 417.693 Q294.051 424.799 295.856 428.364 Q297.685 431.906 301.296 431.906 Q304.93 431.906 306.736 428.364 Q308.565 424.799 308.565 417.693 Q308.565 410.563 306.736 407.021 Q304.93 403.457 301.296 403.457 M301.296 399.753 Q307.106 399.753 310.162 404.359 Q313.241 408.943 313.241 417.693 Q313.241 426.42 310.162 431.026 Q307.106 435.609 301.296 435.609 Q295.486 435.609 292.407 431.026 Q289.352 426.42 289.352 417.693 Q289.352 408.943 292.407 404.359 Q295.486 399.753 301.296 399.753 Z" fill="#000000" fill-rule="evenodd" fill-opacity="1" /><path clip-path="url(#clip260)" d="M313.786 404.33 L319.993 404.33 L319.993 382.908 L313.241 384.262 L313.241 380.802 L319.955 379.448 L323.754 379.448 L323.754 404.33 L329.961 404.33 L329.961 407.528 L313.786 407.528 L313.786 404.33 Z" fill="#000000" fill-rule="evenodd" fill-opacity="1" /><path clip-path="url(#clip260)" d="M349.145 392.387 Q351.872 392.97 353.395 394.814 Q354.937 396.657 354.937 399.365 Q354.937 403.522 352.079 405.797 Q349.22 408.073 343.954 408.073 Q342.186 408.073 340.305 407.716 Q338.443 407.377 336.449 406.681 L336.449 403.014 Q338.029 403.935 339.91 404.406 Q341.791 404.876 343.841 404.876 Q347.414 404.876 349.276 403.465 Q351.157 402.055 351.157 399.365 Q351.157 396.882 349.408 395.491 Q347.678 394.08 344.574 394.08 L341.302 394.08 L341.302 390.958 L344.725 390.958 Q347.527 390.958 349.013 389.848 Q350.499 388.72 350.499 386.613 Q350.499 384.45 348.957 383.303 Q347.433 382.137 344.574 382.137 Q343.013 382.137 341.227 382.476 Q339.44 382.814 337.296 383.529 L337.296 380.143 Q339.459 379.542 341.339 379.241 Q343.239 378.94 344.913 378.94 Q349.239 378.94 351.759 380.915 Q354.279 382.871 354.279 386.218 Q354.279 388.551 352.944 390.168 Q351.608 391.767 349.145 392.387 Z" fill="#000000" fill-rule="evenodd" fill-opacity="1" /><path clip-path="url(#clip260)" d="M115.746 106.66 L123.385 106.66 L123.385 80.2946 L115.075 81.9613 L115.075 77.702 L123.339 76.0354 L128.014 76.0354 L128.014 106.66 L135.653 106.66 L135.653 110.595 L115.746 110.595 L115.746 106.66 Z" fill="#000000" fill-rule="evenodd" fill-opacity="1" /><path clip-path="url(#clip260)" d="M145.098 104.716 L149.982 104.716 L149.982 110.595 L145.098 110.595 L145.098 104.716 Z" fill="#000000" fill-rule="evenodd" fill-opacity="1" /><path clip-path="url(#clip260)" d="M170.167 79.1141 Q166.556 79.1141 164.727 82.6788 Q162.922 86.2205 162.922 93.3501 Q162.922 100.457 164.727 104.021 Q166.556 107.563 170.167 107.563 Q173.801 107.563 175.607 104.021 Q177.435 100.457 177.435 93.3501 Q177.435 86.2205 175.607 82.6788 Q173.801 79.1141 170.167 79.1141 M170.167 75.4104 Q175.977 75.4104 179.033 80.0168 Q182.111 84.6001 182.111 93.3501 Q182.111 102.077 179.033 106.683 Q175.977 111.267 170.167 111.267 Q164.357 111.267 161.278 106.683 Q158.223 102.077 158.223 93.3501 Q158.223 84.6001 161.278 80.0168 Q164.357 75.4104 170.167 75.4104 Z" fill="#000000" fill-rule="evenodd" fill-opacity="1" /><path clip-path="url(#clip260)" d="M200.329 79.1141 Q196.718 79.1141 194.889 82.6788 Q193.084 86.2205 193.084 93.3501 Q193.084 100.457 194.889 104.021 Q196.718 107.563 200.329 107.563 Q203.963 107.563 205.769 104.021 Q207.597 100.457 207.597 93.3501 Q207.597 86.2205 205.769 82.6788 Q203.963 79.1141 200.329 79.1141 M200.329 75.4104 Q206.139 75.4104 209.195 80.0168 Q212.273 84.6001 212.273 93.3501 Q212.273 102.077 209.195 106.683 Q206.139 111.267 200.329 111.267 Q194.519 111.267 191.44 106.683 Q188.384 102.077 188.384 93.3501 Q188.384 84.6001 191.44 80.0168 Q194.519 75.4104 200.329 75.4104 Z" fill="#000000" fill-rule="evenodd" fill-opacity="1" /><path clip-path="url(#clip260)" d="M248.662 85.1325 L238.083 95.7575 L248.662 106.336 L245.907 109.137 L235.282 98.5121 L224.657 109.137 L221.926 106.336 L232.481 95.7575 L221.926 85.1325 L224.657 82.3316 L235.282 92.9566 L245.907 82.3316 L248.662 85.1325 Z" fill="#000000" fill-rule="evenodd" fill-opacity="1" /><path clip-path="url(#clip260)" d="M261.023 106.66 L268.662 106.66 L268.662 80.2946 L260.352 81.9613 L260.352 77.702 L268.616 76.0354 L273.291 76.0354 L273.291 106.66 L280.93 106.66 L280.93 110.595 L261.023 110.595 L261.023 106.66 Z" fill="#000000" fill-rule="evenodd" fill-opacity="1" /><path clip-path="url(#clip260)" d="M300.375 79.1141 Q296.764 79.1141 294.935 82.6788 Q293.129 86.2205 293.129 93.3501 Q293.129 100.457 294.935 104.021 Q296.764 107.563 300.375 107.563 Q304.009 107.563 305.814 104.021 Q307.643 100.457 307.643 93.3501 Q307.643 86.2205 305.814 82.6788 Q304.009 79.1141 300.375 79.1141 M300.375 75.4104 Q306.185 75.4104 309.24 80.0168 Q312.319 84.6001 312.319 93.3501 Q312.319 102.077 309.24 106.683 Q306.185 111.267 300.375 111.267 Q294.564 111.267 291.486 106.683 Q288.43 102.077 288.43 93.3501 Q288.43 84.6001 291.486 80.0168 Q294.564 75.4104 300.375 75.4104 Z" fill="#000000" fill-rule="evenodd" fill-opacity="1" /><path clip-path="url(#clip260)" d="M312.864 79.9876 L319.071 79.9876 L319.071 58.5656 L312.319 59.9198 L312.319 56.4591 L319.033 55.105 L322.833 55.105 L322.833 79.9876 L329.039 79.9876 L329.039 83.185 L312.864 83.185 L312.864 79.9876 Z" fill="#000000" fill-rule="evenodd" fill-opacity="1" /><path clip-path="url(#clip260)" d="M347.151 58.4151 L337.559 73.4049 L347.151 73.4049 L347.151 58.4151 M346.154 55.105 L350.931 55.105 L350.931 73.4049 L354.937 73.4049 L354.937 76.5646 L350.931 76.5646 L350.931 83.185 L347.151 83.185 L347.151 76.5646 L334.475 76.5646 L334.475 72.8971 L346.154 55.105 Z" fill="#000000" fill-rule="evenodd" fill-opacity="1" /><path clip-path="url(#clip260)" d="M16.4842 1008.35 L16.4842 1001.92 L64.0042 1001.92 L64.0042 1008.35 L16.4842 1008.35 Z" fill="#000000" fill-rule="evenodd" fill-opacity="1" /><path clip-path="url(#clip260)" d="M42.4881 959.746 L64.0042 959.746 L64.0042 965.603 L42.679 965.603 Q37.6183 965.603 35.1038 967.576 Q32.5894 969.55 32.5894 973.496 Q32.5894 978.239 35.6131 980.976 Q38.6368 983.713 43.8567 983.713 L64.0042 983.713 L64.0042 989.602 L28.3562 989.602 L28.3562 983.713 L33.8944 983.713 Q30.6797 981.613 29.0883 978.78 Q27.4968 975.915 27.4968 972.191 Q27.4968 966.048 31.3163 962.897 Q35.1038 959.746 42.4881 959.746 Z" fill="#000000" fill-rule="evenodd" fill-opacity="1" /><path clip-path="url(#clip260)" d="M18.2347 942.272 L28.3562 942.272 L28.3562 930.209 L32.9077 930.209 L32.9077 942.272 L52.2594 942.272 Q56.6199 942.272 57.8613 941.095 Q59.1026 939.885 59.1026 936.225 L59.1026 930.209 L64.0042 930.209 L64.0042 936.225 Q64.0042 943.005 61.4897 945.583 Q58.9434 948.161 52.2594 948.161 L32.9077 948.161 L32.9077 952.458 L28.3562 952.458 L28.3562 948.161 L18.2347 948.161 L18.2347 942.272 Z" fill="#000000" fill-rule="evenodd" fill-opacity="1" /><path clip-path="url(#clip260)" d="M44.7161 892.015 L47.5806 892.015 L47.5806 918.942 Q53.6281 918.56 56.8109 915.314 Q59.9619 912.035 59.9619 906.211 Q59.9619 902.837 59.1344 899.686 Q58.3069 896.503 56.6518 893.384 L62.1899 893.384 Q63.5267 896.535 64.227 899.845 Q64.9272 903.155 64.9272 906.561 Q64.9272 915.091 59.9619 920.088 Q54.9967 925.053 46.5303 925.053 Q37.7774 925.053 32.6531 920.343 Q27.4968 915.6 27.4968 907.579 Q27.4968 900.386 32.1438 896.217 Q36.7589 892.015 44.7161 892.015 M42.9973 897.872 Q38.1912 897.935 35.3266 900.577 Q32.4621 903.187 32.4621 907.516 Q32.4621 912.417 35.2312 915.377 Q38.0002 918.306 43.0292 918.751 L42.9973 897.872 Z" fill="#000000" fill-rule="evenodd" fill-opacity="1" /><path clip-path="url(#clip260)" d="M42.4881 852.771 L64.0042 852.771 L64.0042 858.627 L42.679 858.627 Q37.6183 858.627 35.1038 860.6 Q32.5894 862.574 32.5894 866.521 Q32.5894 871.263 35.6131 874 Q38.6368 876.738 43.8567 876.738 L64.0042 876.738 L64.0042 882.626 L28.3562 882.626 L28.3562 876.738 L33.8944 876.738 Q30.6797 874.637 29.0883 871.804 Q27.4968 868.94 27.4968 865.216 Q27.4968 859.073 31.3163 855.922 Q35.1038 852.771 42.4881 852.771 Z" fill="#000000" fill-rule="evenodd" fill-opacity="1" /><path clip-path="url(#clip260)" d="M29.4065 818.364 L34.9447 818.364 Q33.6716 820.847 33.035 823.52 Q32.3984 826.194 32.3984 829.058 Q32.3984 833.419 33.7352 835.615 Q35.072 837.779 37.7456 837.779 Q39.7826 837.779 40.9603 836.22 Q42.1061 834.66 43.1565 829.95 L43.6021 827.944 Q44.9389 821.706 47.3897 819.096 Q49.8086 816.454 54.1691 816.454 Q59.1344 816.454 62.0308 820.401 Q64.9272 824.316 64.9272 831.191 Q64.9272 834.055 64.3543 837.175 Q63.8132 840.262 62.6992 843.7 L56.6518 843.7 Q58.3387 840.453 59.198 837.302 Q60.0256 834.151 60.0256 831.064 Q60.0256 826.926 58.6251 824.698 Q57.1929 822.47 54.6147 822.47 Q52.2276 822.47 50.9545 824.093 Q49.6813 825.685 48.5037 831.127 L48.0262 833.164 Q46.8804 838.607 44.5251 841.026 Q42.138 843.445 38.0002 843.445 Q32.9713 843.445 30.2341 839.88 Q27.4968 836.315 27.4968 829.759 Q27.4968 826.512 27.9743 823.648 Q28.4517 820.783 29.4065 818.364 Z" fill="#000000" fill-rule="evenodd" fill-opacity="1" /><path clip-path="url(#clip260)" d="M28.3562 807.129 L28.3562 801.272 L64.0042 801.272 L64.0042 807.129 L28.3562 807.129 M14.479 807.129 L14.479 801.272 L21.895 801.272 L21.895 807.129 L14.479 807.129 Z" fill="#000000" fill-rule="evenodd" fill-opacity="1" /><path clip-path="url(#clip260)" d="M18.2347 783.225 L28.3562 783.225 L28.3562 771.162 L32.9077 771.162 L32.9077 783.225 L52.2594 783.225 Q56.6199 783.225 57.8613 782.048 Q59.1026 780.838 59.1026 777.178 L59.1026 771.162 L64.0042 771.162 L64.0042 777.178 Q64.0042 783.957 61.4897 786.535 Q58.9434 789.114 52.2594 789.114 L32.9077 789.114 L32.9077 793.41 L28.3562 793.41 L28.3562 789.114 L18.2347 789.114 L18.2347 783.225 Z" fill="#000000" fill-rule="evenodd" fill-opacity="1" /><path clip-path="url(#clip260)" d="M46.0847 747.259 Q46.0847 754.357 47.7079 757.094 Q49.3312 759.831 53.2461 759.831 Q56.3653 759.831 58.2114 757.794 Q60.0256 755.725 60.0256 752.192 Q60.0256 747.323 56.5881 744.395 Q53.1188 741.434 47.3897 741.434 L46.0847 741.434 L46.0847 747.259 M43.6657 735.578 L64.0042 735.578 L64.0042 741.434 L58.5933 741.434 Q61.8398 743.44 63.3994 746.432 Q64.9272 749.423 64.9272 753.752 Q64.9272 759.227 61.8716 762.473 Q58.7843 765.688 53.6281 765.688 Q47.6125 765.688 44.5569 761.677 Q41.5014 757.635 41.5014 749.646 L41.5014 741.434 L40.9285 741.434 Q36.8862 741.434 34.6901 744.108 Q32.4621 746.75 32.4621 751.556 Q32.4621 754.611 33.1941 757.508 Q33.9262 760.404 35.3903 763.078 L29.9795 763.078 Q28.7381 759.863 28.1334 756.839 Q27.4968 753.816 27.4968 750.951 Q27.4968 743.217 31.5072 739.397 Q35.5176 735.578 43.6657 735.578 M14.6063 747.705 L14.6063 741.243 L21.0356 741.243 L21.0356 747.705 L14.6063 747.705 M14.6063 760.15 L14.6063 753.688 L21.0356 753.688 L21.0356 760.15 L14.6063 760.15 Z" fill="#000000" fill-rule="evenodd" fill-opacity="1" /><path clip-path="url(#clip260)" d="M18.2347 717.722 L28.3562 717.722 L28.3562 705.659 L32.9077 705.659 L32.9077 717.722 L52.2594 717.722 Q56.6199 717.722 57.8613 716.545 Q59.1026 715.335 59.1026 711.675 L59.1026 705.659 L64.0042 705.659 L64.0042 711.675 Q64.0042 718.454 61.4897 721.032 Q58.9434 723.61 52.2594 723.61 L32.9077 723.61 L32.9077 727.907 L28.3562 727.907 L28.3562 723.61 L18.2347 723.61 L18.2347 717.722 Z" fill="#000000" fill-rule="evenodd" fill-opacity="1" /><path clip-path="url(#clip260)" d="M14.479 677.777 L14.479 664.282 L19.0304 664.282 L19.0304 671.921 L68.0464 671.921 L68.0464 664.282 L72.5979 664.282 L72.5979 677.777 L14.479 677.777 Z" fill="#000000" fill-rule="evenodd" fill-opacity="1" /><path clip-path="url(#clip260)" d="M16.4842 655.784 L16.4842 649.291 L56.6518 639.297 L16.4842 629.334 L16.4842 622.109 L56.6518 612.115 L16.4842 602.153 L16.4842 595.628 L64.0042 607.564 L64.0042 615.648 L22.7544 625.674 L64.0042 635.796 L64.0042 643.88 L16.4842 655.784 Z" fill="#000000" fill-rule="evenodd" fill-opacity="1" /><path clip-path="url(#clip260)" d="M16.4842 576.945 L16.4842 571.534 L70.0516 588.085 L70.0516 593.495 L16.4842 576.945 Z" fill="#000000" fill-rule="evenodd" fill-opacity="1" /><path clip-path="url(#clip260)" d="M35.1993 537.636 Q31.2526 535.44 29.3747 532.385 Q27.4968 529.329 27.4968 525.191 Q27.4968 519.621 31.4117 516.598 Q35.2948 513.574 42.4881 513.574 L64.0042 513.574 L64.0042 519.462 L42.679 519.462 Q37.5546 519.462 35.072 521.276 Q32.5894 523.091 32.5894 526.815 Q32.5894 531.366 35.6131 534.008 Q38.6368 536.65 43.8567 536.65 L64.0042 536.65 L64.0042 542.538 L42.679 542.538 Q37.5228 542.538 35.072 544.352 Q32.5894 546.166 32.5894 549.954 Q32.5894 554.442 35.6449 557.084 Q38.6686 559.725 43.8567 559.725 L64.0042 559.725 L64.0042 565.614 L28.3562 565.614 L28.3562 559.725 L33.8944 559.725 Q30.616 557.72 29.0564 554.919 Q27.4968 552.118 27.4968 548.267 Q27.4968 544.384 29.4702 541.679 Q31.4436 538.941 35.1993 537.636 Z" fill="#000000" fill-rule="evenodd" fill-opacity="1" /><path clip-path="url(#clip260)" d="M28.3562 491.358 Q28.9291 488.429 30.6797 486.838 Q32.3984 485.215 35.0084 485.215 Q38.9551 485.215 41.0876 488.238 Q43.2201 491.262 43.2201 496.896 Q43.2201 498.71 42.9018 500.715 Q42.5517 502.689 41.9152 504.917 L38.0639 504.917 Q38.9233 503.262 39.337 501.384 Q39.7508 499.474 39.7508 497.341 Q39.7508 493.872 38.5095 491.962 Q37.2364 490.053 35.0084 490.053 Q32.6531 490.053 31.4436 491.835 Q30.2341 493.586 30.2341 497.023 L30.2341 499.76 L26.7966 499.76 L26.7966 496.769 Q26.7966 493.777 25.8099 492.249 Q24.7914 490.689 22.8817 490.689 Q21.0356 490.689 20.0808 492.281 Q19.0941 493.872 19.0941 496.896 Q19.0941 498.169 19.3806 499.792 Q19.667 501.415 20.3991 503.994 L16.7388 503.994 Q16.1977 501.67 15.9112 499.633 Q15.6248 497.596 15.6248 495.845 Q15.6248 491.262 17.5027 488.589 Q19.3806 485.883 22.5316 485.883 Q24.7277 485.883 26.2555 487.315 Q27.7833 488.748 28.3562 491.358 Z" fill="#000000" fill-rule="evenodd" fill-opacity="1" /><path clip-path="url(#clip260)" d="M14.479 462.075 L72.5979 462.075 L72.5979 475.571 L68.0464 475.571 L68.0464 467.964 L19.0304 467.964 L19.0304 475.571 L14.479 475.571 L14.479 462.075 Z" fill="#000000" fill-rule="evenodd" fill-opacity="1" /><path clip-path="url(#clip262)" d="
M816.615 86.1857 L816.615 1384.24 L869.494 1384.24 L869.494 86.1857 L816.615 86.1857 L816.615 86.1857  Z
  " fill="#ee82ee" fill-rule="evenodd" fill-opacity="0.7"/>
<polyline clip-path="url(#clip262)" style="stroke:#000000; stroke-linecap:butt; stroke-linejoin:round; stroke-width:4; stroke-opacity:1; fill:none" points="
  816.615,86.1857 816.615,1384.24 869.494,1384.24 869.494,86.1857 816.615,86.1857 
  "/>
<path clip-path="url(#clip262)" d="
M869.494 86.1857 L869.494 1384.24 L962.033 1384.24 L962.033 86.1857 L869.494 86.1857 L869.494 86.1857  Z
  " fill="#0000ff" fill-rule="evenodd" fill-opacity="0.7"/>
<polyline clip-path="url(#clip262)" style="stroke:#000000; stroke-linecap:butt; stroke-linejoin:round; stroke-width:4; stroke-opacity:1; fill:none" points="
  869.494,86.1857 869.494,1384.24 962.033,1384.24 962.033,86.1857 869.494,86.1857 
  "/>
<path clip-path="url(#clip262)" d="
M962.033 86.1857 L962.033 1384.24 L1074.4 1384.24 L1074.4 86.1857 L962.033 86.1857 L962.033 86.1857  Z
  " fill="#008000" fill-rule="evenodd" fill-opacity="0.7"/>
<polyline clip-path="url(#clip262)" style="stroke:#000000; stroke-linecap:butt; stroke-linejoin:round; stroke-width:4; stroke-opacity:1; fill:none" points="
  962.033,86.1857 962.033,1384.24 1074.4,1384.24 1074.4,86.1857 962.033,86.1857 
  "/>
<path clip-path="url(#clip262)" d="
M1074.4 86.1857 L1074.4 1384.24 L1087.62 1384.24 L1087.62 86.1857 L1074.4 86.1857 L1074.4 86.1857  Z
  " fill="#ffff00" fill-rule="evenodd" fill-opacity="0.7"/>
<polyline clip-path="url(#clip262)" style="stroke:#000000; stroke-linecap:butt; stroke-linejoin:round; stroke-width:4; stroke-opacity:1; fill:none" points="
  1074.4,86.1857 1074.4,1384.24 1087.62,1384.24 1087.62,86.1857 1074.4,86.1857 
  "/>
<path clip-path="url(#clip262)" d="
M1087.62 86.1857 L1087.62 1384.24 L1173.55 1384.24 L1173.55 86.1857 L1087.62 86.1857 L1087.62 86.1857  Z
  " fill="#ffa500" fill-rule="evenodd" fill-opacity="0.7"/>
<polyline clip-path="url(#clip262)" style="stroke:#000000; stroke-linecap:butt; stroke-linejoin:round; stroke-width:4; stroke-opacity:1; fill:none" points="
  1087.62,86.1857 1087.62,1384.24 1173.55,1384.24 1173.55,86.1857 1087.62,86.1857 
  "/>
<path clip-path="url(#clip262)" d="
M1173.55 86.1857 L1173.55 1384.24 L1305.75 1384.24 L1305.75 86.1857 L1173.55 86.1857 L1173.55 86.1857  Z
  " fill="#ff0000" fill-rule="evenodd" fill-opacity="0.7"/>
<polyline clip-path="url(#clip262)" style="stroke:#000000; stroke-linecap:butt; stroke-linejoin:round; stroke-width:4; stroke-opacity:1; fill:none" points="
  1173.55,86.1857 1173.55,1384.24 1305.75,1384.24 1305.75,86.1857 1173.55,86.1857 
  "/>
<polyline clip-path="url(#clip262)" style="stroke:#000000; stroke-linecap:butt; stroke-linejoin:round; stroke-width:12; stroke-opacity:1; fill:none" points="
  314.276,1384.24 314.276,1384.24 314.276,1384.24 314.276,1384.24 314.277,1384.24 314.277,1384.24 314.277,1384.24 314.277,1384.24 314.277,1384.24 314.278,1384.24 
  314.278,1384.24 314.278,1384.24 314.278,1384.24 314.278,1384.24 314.279,1384.24 314.279,1384.24 314.279,1384.24 314.279,1384.24 314.28,1384.24 314.28,1384.24 
  314.28,1384.24 314.28,1384.24 314.28,1384.24 314.281,1384.24 314.281,1384.24 314.281,1384.24 314.281,1384.24 314.282,1384.24 314.282,1384.24 314.282,1384.24 
  314.283,1384.24 314.283,1384.24 314.283,1384.24 314.283,1384.24 314.284,1384.24 314.284,1384.24 314.284,1384.24 314.285,1384.24 314.285,1384.24 314.285,1384.24 
  314.286,1384.24 314.286,1384.24 314.286,1384.24 314.287,1384.24 314.287,1384.24 314.287,1384.24 314.288,1384.24 314.288,1384.24 314.288,1384.24 314.289,1384.24 
  314.289,1384.24 314.289,1384.24 314.29,1384.24 314.29,1384.24 314.29,1384.24 314.291,1384.24 314.291,1384.24 314.292,1384.24 314.292,1384.24 314.292,1384.24 
  314.293,1384.24 314.293,1384.24 314.294,1384.24 314.294,1384.24 314.295,1384.24 314.295,1384.24 314.295,1384.24 314.296,1384.24 314.296,1384.24 314.297,1384.24 
  314.297,1384.24 314.298,1384.24 314.298,1384.24 314.299,1384.24 314.299,1384.24 314.3,1384.24 314.3,1384.24 314.301,1384.24 314.301,1384.24 314.302,1384.24 
  314.303,1384.24 314.303,1384.24 314.304,1384.24 314.304,1384.24 314.305,1384.24 314.305,1384.24 314.306,1384.24 314.307,1384.24 314.307,1384.24 314.308,1384.24 
  314.308,1384.24 314.309,1384.24 314.31,1384.24 314.31,1384.24 314.311,1384.24 314.312,1384.24 314.312,1384.24 314.313,1384.24 314.314,1384.24 314.315,1384.24 
  314.315,1384.24 314.316,1384.24 314.317,1384.24 314.317,1384.24 314.318,1384.24 314.319,1384.24 314.32,1384.24 314.321,1384.24 314.321,1384.24 314.322,1384.24 
  314.323,1384.24 314.324,1384.24 314.325,1384.24 314.326,1384.24 314.327,1384.24 314.327,1384.24 314.328,1384.24 314.329,1384.24 314.33,1384.24 314.331,1384.24 
  314.332,1384.24 314.333,1384.24 314.334,1384.24 314.335,1384.24 314.336,1384.24 314.337,1384.24 314.338,1384.24 314.339,1384.24 314.34,1384.24 314.341,1384.24 
  314.342,1384.24 314.343,1384.24 314.345,1384.24 314.346,1384.24 314.347,1384.24 314.348,1384.24 314.349,1384.24 314.35,1384.24 314.352,1384.24 314.353,1384.24 
  314.354,1384.24 314.355,1384.24 314.357,1384.24 314.358,1384.24 314.359,1384.24 314.361,1384.24 314.362,1384.24 314.364,1384.24 314.365,1384.24 314.366,1384.24 
  314.368,1384.24 314.369,1384.24 314.371,1384.24 314.372,1384.24 314.374,1384.24 314.375,1384.24 314.377,1384.24 314.378,1384.24 314.38,1384.24 314.382,1384.24 
  314.383,1384.24 314.385,1384.24 314.387,1384.24 314.389,1384.24 314.39,1384.24 314.392,1384.24 314.394,1384.24 314.396,1384.24 314.398,1384.24 314.399,1384.24 
  314.401,1384.24 314.403,1384.24 314.405,1384.24 314.407,1384.24 314.409,1384.24 314.411,1384.24 314.413,1384.24 314.415,1384.24 314.418,1384.24 314.42,1384.24 
  314.422,1384.24 314.424,1384.24 314.426,1384.24 314.429,1384.24 314.431,1384.24 314.433,1384.24 314.436,1384.24 314.438,1384.24 314.441,1384.24 314.443,1384.24 
  314.446,1384.24 314.448,1384.24 314.451,1384.24 314.453,1384.24 314.456,1384.24 314.459,1384.24 314.461,1384.24 314.464,1384.24 314.467,1384.24 314.47,1384.24 
  314.473,1384.24 314.476,1384.24 314.479,1384.24 314.482,1384.24 314.485,1384.24 314.488,1384.24 314.491,1384.24 314.494,1384.24 314.497,1384.24 314.5,1384.24 
  314.504,1384.24 314.507,1384.24 314.511,1384.24 314.514,1384.24 314.518,1384.24 314.521,1384.24 314.525,1384.24 314.528,1384.24 314.532,1384.24 314.536,1384.24 
  314.54,1384.24 314.543,1384.24 314.547,1384.24 314.551,1384.24 314.555,1384.24 314.559,1384.24 314.564,1384.24 314.568,1384.24 314.572,1384.24 314.576,1384.24 
  314.581,1384.24 314.585,1384.24 314.59,1384.24 314.594,1384.24 314.599,1384.24 314.603,1384.24 314.608,1384.24 314.613,1384.24 314.618,1384.24 314.623,1384.24 
  314.628,1384.24 314.633,1384.24 314.638,1384.24 314.643,1384.24 314.649,1384.24 314.654,1384.24 314.659,1384.24 314.665,1384.24 314.671,1384.24 314.676,1384.24 
  314.682,1384.24 314.688,1384.24 314.694,1384.24 314.7,1384.24 314.706,1384.24 314.712,1384.24 314.718,1384.24 314.725,1384.24 314.731,1384.24 314.738,1384.24 
  314.744,1384.24 314.751,1384.24 314.758,1384.24 314.765,1384.24 314.772,1384.24 314.779,1384.24 314.786,1384.24 314.793,1384.24 314.801,1384.24 314.808,1384.24 
  314.816,1384.24 314.823,1384.24 314.831,1384.24 314.839,1384.24 314.847,1384.24 314.855,1384.24 314.864,1384.24 314.872,1384.24 314.88,1384.24 314.889,1384.24 
  314.898,1384.24 314.907,1384.24 314.916,1384.24 314.925,1384.24 314.934,1384.24 314.943,1384.24 314.953,1384.24 314.962,1384.24 314.972,1384.24 314.982,1384.24 
  314.992,1384.24 315.002,1384.24 315.012,1384.24 315.023,1384.24 315.033,1384.24 315.044,1384.24 315.055,1384.24 315.066,1384.24 315.077,1384.24 315.089,1384.24 
  315.1,1384.24 315.112,1384.24 315.124,1384.24 315.136,1384.24 315.148,1384.24 315.16,1384.24 315.173,1384.24 315.185,1384.24 315.198,1384.24 315.211,1384.24 
  315.224,1384.24 315.238,1384.24 315.251,1384.24 315.265,1384.24 315.279,1384.24 315.293,1384.24 315.308,1384.24 315.322,1384.24 315.337,1384.24 315.352,1384.24 
  315.367,1384.24 315.382,1384.24 315.398,1384.24 315.414,1384.24 315.43,1384.24 315.446,1384.24 315.463,1384.24 315.479,1384.24 315.496,1384.24 315.513,1384.24 
  315.531,1384.24 315.548,1384.24 315.566,1384.24 315.585,1384.24 315.603,1384.24 315.622,1384.24 315.641,1384.24 315.66,1384.24 315.679,1384.24 315.699,1384.24 
  315.719,1384.24 315.739,1384.24 315.76,1384.24 315.781,1384.24 315.802,1384.24 315.823,1384.24 315.845,1384.24 315.867,1384.24 315.889,1384.24 315.912,1384.24 
  315.935,1384.24 315.958,1384.24 315.982,1384.24 316.006,1384.24 316.03,1384.24 316.055,1384.24 316.08,1384.24 316.105,1384.24 316.131,1384.24 316.157,1384.24 
  316.183,1384.24 316.21,1384.24 316.237,1384.24 316.264,1384.24 316.292,1384.24 316.32,1384.24 316.349,1384.24 316.378,1384.24 316.408,1384.24 316.437,1384.24 
  316.468,1384.24 316.498,1384.24 316.53,1384.24 316.561,1384.24 316.593,1384.24 316.626,1384.24 316.659,1384.24 316.692,1384.24 316.726,1384.24 316.76,1384.24 
  316.795,1384.24 316.83,1384.24 316.866,1384.24 316.902,1384.24 316.939,1384.24 316.976,1384.24 317.014,1384.24 317.052,1384.24 317.091,1384.24 317.13,1384.24 
  317.17,1384.24 317.211,1384.24 317.252,1384.24 317.294,1384.24 317.336,1384.24 317.379,1384.24 317.422,1384.24 317.466,1384.24 317.511,1384.24 317.556,1384.24 
  317.602,1384.24 317.648,1384.24 317.695,1384.24 317.743,1384.24 317.792,1384.24 317.841,1384.24 317.891,1384.24 317.941,1384.24 317.992,1384.24 318.044,1384.24 
  318.097,1384.24 318.15,1384.24 318.204,1384.24 318.259,1384.24 318.315,1384.24 318.371,1384.24 318.429,1384.24 318.487,1384.24 318.545,1384.24 318.605,1384.24 
  318.666,1384.24 318.727,1384.24 318.789,1384.24 318.852,1384.24 318.916,1384.24 318.981,1384.24 319.046,1384.24 319.113,1384.24 319.181,1384.24 319.249,1384.24 
  319.319,1384.24 319.389,1384.24 319.46,1384.24 319.533,1384.24 319.606,1384.24 319.681,1384.24 319.756,1384.24 319.832,1384.24 319.91,1384.24 319.989,1384.24 
  320.068,1384.24 320.149,1384.24 320.231,1384.24 320.314,1384.24 320.399,1384.24 320.484,1384.24 320.571,1384.24 320.659,1384.24 320.748,1384.24 320.838,1384.24 
  320.93,1384.24 321.022,1384.24 321.116,1384.24 321.212,1384.24 321.309,1384.24 321.407,1384.24 321.506,1384.24 321.607,1384.24 321.709,1384.24 321.813,1384.24 
  321.918,1384.24 322.025,1384.24 322.133,1384.24 322.243,1384.24 322.354,1384.24 322.466,1384.24 322.581,1384.24 322.696,1384.24 322.814,1384.24 322.933,1384.24 
  323.054,1384.24 323.176,1384.24 323.3,1384.24 323.426,1384.24 323.554,1384.24 323.683,1384.24 323.814,1384.24 323.947,1384.24 324.082,1384.24 324.219,1384.24 
  324.358,1384.24 324.498,1384.24 324.641,1384.24 324.785,1384.24 324.932,1384.24 325.08,1384.24 325.231,1384.24 325.384,1384.24 325.539,1384.24 325.696,1384.24 
  325.855,1384.24 326.016,1384.24 326.18,1384.24 326.346,1384.24 326.514,1384.24 326.685,1384.24 326.858,1384.24 327.033,1384.24 327.211,1384.24 327.391,1384.24 
  327.574,1384.24 327.759,1384.24 327.947,1384.24 328.138,1384.24 328.331,1384.24 328.527,1384.24 328.726,1384.24 328.927,1384.24 329.131,1384.24 329.338,1384.24 
  329.548,1384.24 329.761,1384.24 329.977,1384.24 330.196,1384.24 330.418,1384.24 330.643,1384.24 330.871,1384.24 331.102,1384.24 331.337,1384.24 331.574,1384.24 
  331.815,1384.24 332.06,1384.24 332.308,1384.24 332.559,1384.24 332.814,1384.24 333.072,1384.24 333.334,1384.24 333.6,1384.24 333.869,1384.24 334.142,1384.24 
  334.419,1384.24 334.699,1384.24 334.984,1384.24 335.273,1384.24 335.565,1384.24 335.862,1384.24 336.163,1384.24 336.468,1384.24 336.777,1384.24 337.09,1384.24 
  337.408,1384.24 337.73,1384.24 338.057,1384.24 338.389,1384.24 338.725,1384.24 339.065,1384.24 339.411,1384.24 339.761,1384.24 340.116,1384.24 340.476,1384.24 
  340.841,1384.24 341.211,1384.24 341.586,1384.24 341.967,1384.24 342.353,1384.24 342.744,1384.24 343.14,1384.24 343.542,1384.24 343.95,1384.24 344.364,1384.24 
  344.783,1384.24 345.208,1384.24 345.639,1384.24 346.076,1384.24 346.519,1384.24 346.968,1384.24 347.423,1384.24 347.885,1384.24 348.353,1384.24 348.828,1384.24 
  349.309,1384.24 349.797,1384.24 350.292,1384.24 350.794,1384.24 351.303,1384.24 351.818,1384.24 352.341,1384.24 352.872,1384.24 353.409,1384.24 353.954,1384.24 
  354.507,1384.24 355.068,1384.24 355.636,1384.24 356.212,1384.24 356.796,1384.24 357.388,1384.24 357.989,1384.24 358.598,1384.24 359.215,1384.24 359.841,1384.24 
  360.476,1384.24 361.12,1384.24 361.772,1384.24 362.434,1384.24 363.104,1384.24 363.785,1384.24 364.474,1384.24 365.173,1384.24 365.882,1384.24 366.601,1384.24 
  367.33,1384.24 368.069,1384.24 368.818,1384.24 369.578,1384.24 370.348,1384.24 371.129,1384.24 371.921,1384.24 372.724,1384.24 373.538,1384.24 374.364,1384.24 
  375.201,1384.24 376.049,1384.24 376.91,1384.24 377.782,1384.24 378.667,1384.24 379.563,1384.24 380.473,1384.24 381.395,1384.24 382.33,1384.24 383.277,1384.24 
  384.238,1384.24 385.213,1384.24 386.201,1384.24 387.203,1384.24 388.218,1384.24 389.248,1384.24 390.292,1384.24 391.351,1384.24 392.425,1384.24 393.513,1384.24 
  394.617,1384.24 395.736,1384.24 396.87,1384.24 398.021,1384.24 399.187,1384.24 400.37,1384.24 401.569,1384.24 402.784,1384.24 404.017,1384.24 405.267,1384.24 
  406.534,1384.24 407.819,1384.24 409.122,1384.24 410.443,1384.24 411.782,1384.24 413.14,1384.24 414.517,1384.24 415.913,1384.24 417.329,1384.24 418.764,1384.24 
  420.219,1384.24 421.695,1384.24 423.191,1384.24 424.708,1384.24 426.246,1384.24 427.805,1384.24 429.386,1384.24 430.989,1384.24 432.615,1384.24 434.263,1384.24 
  435.934,1384.23 437.628,1384.23 439.346,1384.23 441.088,1384.23 442.854,1384.23 444.645,1384.22 446.461,1384.22 448.301,1384.21 450.168,1384.21 452.061,1384.2 
  453.979,1384.19 455.925,1384.17 457.898,1384.15 459.898,1384.13 461.926,1384.11 463.982,1384.07 466.067,1384.03 468.181,1383.98 470.324,1383.92 472.498,1383.84 
  474.701,1383.75 476.935,1383.65 479.201,1383.52 481.497,1383.36 483.826,1383.18 486.188,1382.96 488.582,1382.7 491.009,1382.39 493.47,1382.03 495.966,1381.62 
  498.496,1381.13 501.062,1380.56 503.663,1379.91 506.301,1379.15 508.975,1378.29 511.686,1377.29 514.435,1376.16 517.223,1374.86 520.049,1373.4 522.915,1371.74 
  525.82,1369.87 528.766,1367.76 531.753,1365.4 534.782,1362.77 537.853,1359.83 540.967,1356.56 544.123,1352.94 547.324,1348.94 550.57,1344.53 553.861,1339.69 
  557.197,1334.38 560.58,1328.58 564.01,1322.26 567.488,1315.39 571.014,1307.93 574.59,1299.87 578.215,1291.17 581.89,1281.82 585.617,1271.78 589.396,1261.02 
  593.227,1249.54 597.112,1237.31 601.051,1224.31 605.044,1210.53 609.094,1195.95 613.199,1180.57 617.362,1164.37 621.583,1147.37 625.862,1129.55 630.202,1110.92 
  634.601,1091.5 639.062,1071.28 643.585,1050.3 648.171,1028.56 652.821,1006.09 657.535,982.922 662.316,959.086 667.162,934.617 672.077,909.555 677.059,883.943 
  682.111,857.83 687.234,831.263 692.428,804.299 697.694,776.992 703.033,749.402 708.447,721.59 713.936,693.621 719.502,665.559 725.145,637.473 730.867,609.429 
  736.668,581.497 742.55,553.747 748.514,526.249 754.561,499.071 760.693,472.284 766.909,445.954 773.213,420.149 779.604,394.935 786.084,370.374 792.654,346.529 
  799.316,323.458 806.07,301.218 812.919,279.862 819.863,259.441 826.904,240.001 834.042,221.586 841.281,204.236 848.62,187.987 856.061,172.872 863.605,158.918 
  871.255,146.15 879.012,134.589 886.876,124.249 894.85,115.145 902.935,107.283 911.132,100.669 919.444,95.3014 927.871,91.1783 936.416,88.2922 945.08,86.6327 
  953.864,86.1857 962.771,86.934 971.802,88.8574 980.958,91.9326 990.242,96.1338 999.656,101.433 1009.2,107.798 1018.88,115.197 1028.69,123.596 1038.64,132.956 
  1048.73,143.241 1058.95,154.41 1069.32,166.424 1079.84,179.24 1090.5,192.816 1101.31,207.109 1112.27,222.076 1123.38,237.673 1134.65,253.857 1146.07,270.583 
  1157.66,287.809 1169.4,305.491 1181.31,323.588 1193.38,342.056 1205.62,360.856 1218.04,379.947 1230.62,399.289 1243.38,418.844 1256.32,438.574 1269.44,458.445 
  1282.74,478.42 1296.23,498.467 1309.9,518.552 1323.77,538.645 1337.82,558.717 1352.08,578.739 1366.53,598.684 1381.18,618.527 1396.04,638.245 1411.1,657.813 
  1426.38,677.212 1441.86,696.421 1457.57,715.422 1473.49,734.198 1489.63,752.733 1506,771.013 1522.59,789.024 1539.42,806.755 1556.48,824.194 1573.78,841.331 
  1591.32,858.159 1609.1,874.67 1627.13,890.857 1645.42,906.714 1663.95,922.238 1682.75,937.424 1701.8,952.269 1721.13,966.771 1740.72,980.93 1760.58,994.743 
  1780.72,1008.21 1801.14,1021.34 1821.85,1034.12 1842.84,1046.56 1864.13,1058.67 1885.71,1070.43 1907.59,1081.87 1929.78,1092.98 1952.28,1103.76 1975.09,1114.22 
  1998.22,1124.36 2021.67,1134.2 2045.44,1143.73 2069.55,1152.96 2093.99,1161.89 2118.78,1170.53 2143.9,1178.9 2169.38,1186.98 2195.22,1194.79 2221.41,1202.34 
  2247.97,1209.63 2274.89,1216.67 2302.2,1223.46 2329.88,1230.01 2357.95,1236.32 2386.41,1242.41 2415.26,1248.28 2444.52,1253.93 2474.18,1259.37 2504.26,1264.61 
  2534.76,1269.66 2565.68,1274.51 2597.03,1279.18 2628.82,1283.66 2661.05,1287.98 2693.73,1292.12 2726.87,1296.11 2760.46,1299.93 2794.53,1303.61 2829.07,1307.14 
  2864.09,1310.52 2899.59,1313.77 2935.6,1316.89 2972.1,1319.87 3009.11,1322.74 3046.64,1325.49 3084.69,1328.12 3123.27,1330.64 3162.38,1333.06 3202.04,1335.38 
  3242.26,1337.59 3283.03,1339.72 3324.37,1341.75 3366.29,1343.69 3408.79,1345.55 3451.88,1347.33 3495.57,1349.04 3539.88,1350.66 3584.79,1352.22 3630.34,1353.71 
  3676.52,1355.13 3723.34,1356.49 3770.81,1357.79 3818.94,1359.03 3867.75,1360.22 3917.23,1361.35 3967.4,1362.43 4018.27,1363.47 4069.85,1364.45 4122.15,1365.39 
  4175.18,1366.29 4228.94,1367.15 4283.46,1367.96 4338.73,1368.74 4394.77,1369.49 4451.6,1370.2 4509.21,1370.87 4567.63,1371.52 4626.86,1372.14 4686.91,1372.72 
  4747.8,1373.28 4809.54,1373.81 4872.14,1374.32 4935.61,1374.8 4999.96,1375.27 5065.21,1375.7 5131.37,1376.12 5198.45,1376.52 5266.47,1376.9 5335.43,1377.26 
  5405.35,1377.6 5476.24,1377.93 5548.13,1378.24 5621.01,1378.54 5694.91,1378.82 5769.84,1379.09 5845.81,1379.35 5922.84,1379.59 6000.94,1379.82 6080.13,1380.04 
  6160.42,1380.25 6241.83,1380.45 6324.37,1380.64 6408.07,1380.82 6492.93,1380.99 6578.97,1381.15 6666.21,1381.31 6754.66,1381.46 6844.34,1381.6 6935.28,1381.73 
  7027.48,1381.86 7120.96,1381.98 7215.75,1382.09 7311.86,1382.2 7409.3,1382.3 7508.1,1382.4 7608.28,1382.49 7709.85,1382.58 7812.84,1382.67 7917.26,1382.75 
  8023.13,1382.82 8130.48,1382.89 8239.33,1382.96 8349.68,1383.03 8461.58,1383.09 8575.04,1383.15 8690.07,1383.2 8806.71,1383.26 8924.97,1383.31 9044.88,1383.36 
  9166.45,1383.4 9289.72,1383.44 9414.71,1383.48 9541.44,1383.52 9669.93,1383.56 9800.21,1383.6 9932.31,1383.63 10066.2,1383.66 10202,1383.69 10339.7,1383.72 
  10479.3,1383.74 10620.9,1383.77 10764.4,1383.79 10909.9,1383.82 11057.5,1383.84 11207.1,1383.86 11358.8,1383.88 11512.6,1383.9 11668.5,1383.92 11826.6,1383.93 
  11987,1383.95 12149.5,1383.96 12314.3,1383.98 12481.4,1383.99 12650.8,1384 12822.6,1384.02 12996.8,1384.03 13173.4,1384.04 13352.5,1384.05 13534.1,1384.06 
  
  "/>
<path clip-path="url(#clip260)" d="
M1904.89 214.069 L2287.36 214.069 L2287.36 93.1086 L1904.89 93.1086  Z
  " fill="#ffffff" fill-rule="evenodd" fill-opacity="1"/>
<polyline clip-path="url(#clip260)" style="stroke:#000000; stroke-linecap:butt; stroke-linejoin:round; stroke-width:4; stroke-opacity:1; fill:none" points="
  1904.89,214.069 2287.36,214.069 2287.36,93.1086 1904.89,93.1086 1904.89,214.069 
  "/>
<polyline clip-path="url(#clip260)" style="stroke:#000000; stroke-linecap:butt; stroke-linejoin:round; stroke-width:4; stroke-opacity:1; fill:none" points="
  1926.69,153.589 2057.48,153.589 
  "/>
<path clip-path="url(#clip260)" d="M2091.61 151.725 Q2088.47 151.725 2086.61 153.878 Q2084.79 156.031 2084.79 159.781 Q2084.79 163.508 2086.61 165.683 Q2088.47 167.836 2091.61 167.836 Q2094.76 167.836 2096.59 165.683 Q2098.44 163.508 2098.44 159.781 Q2098.44 156.031 2096.59 153.878 Q2094.76 151.725 2091.61 151.725 M2100.9 137.073 L2100.9 141.332 Q2099.14 140.498 2097.33 140.059 Q2095.55 139.619 2093.79 139.619 Q2089.16 139.619 2086.71 142.744 Q2084.28 145.869 2083.93 152.188 Q2085.29 150.174 2087.35 149.109 Q2089.41 148.022 2091.89 148.022 Q2097.1 148.022 2100.11 151.193 Q2103.14 154.341 2103.14 159.781 Q2103.14 165.105 2099.99 168.322 Q2096.85 171.54 2091.61 171.54 Q2085.62 171.54 2082.45 166.957 Q2079.28 162.35 2079.28 153.623 Q2079.28 145.429 2083.16 140.568 Q2087.05 135.684 2093.6 135.684 Q2095.36 135.684 2097.15 136.031 Q2098.95 136.378 2100.9 137.073 Z" fill="#000000" fill-rule="evenodd" fill-opacity="1" /><path clip-path="url(#clip260)" d="M2121.2 139.387 Q2117.59 139.387 2115.76 142.952 Q2113.95 146.494 2113.95 153.623 Q2113.95 160.73 2115.76 164.295 Q2117.59 167.836 2121.2 167.836 Q2124.83 167.836 2126.64 164.295 Q2128.47 160.73 2128.47 153.623 Q2128.47 146.494 2126.64 142.952 Q2124.83 139.387 2121.2 139.387 M2121.2 135.684 Q2127.01 135.684 2130.06 140.29 Q2133.14 144.873 2133.14 153.623 Q2133.14 162.35 2130.06 166.957 Q2127.01 171.54 2121.2 171.54 Q2115.39 171.54 2112.31 166.957 Q2109.25 162.35 2109.25 153.623 Q2109.25 144.873 2112.31 140.29 Q2115.39 135.684 2121.2 135.684 Z" fill="#000000" fill-rule="evenodd" fill-opacity="1" /><path clip-path="url(#clip260)" d="M2151.36 139.387 Q2147.75 139.387 2145.92 142.952 Q2144.11 146.494 2144.11 153.623 Q2144.11 160.73 2145.92 164.295 Q2147.75 167.836 2151.36 167.836 Q2154.99 167.836 2156.8 164.295 Q2158.63 160.73 2158.63 153.623 Q2158.63 146.494 2156.8 142.952 Q2154.99 139.387 2151.36 139.387 M2151.36 135.684 Q2157.17 135.684 2160.22 140.29 Q2163.3 144.873 2163.3 153.623 Q2163.3 162.35 2160.22 166.957 Q2157.17 171.54 2151.36 171.54 Q2145.55 171.54 2142.47 166.957 Q2139.41 162.35 2139.41 153.623 Q2139.41 144.873 2142.47 140.29 Q2145.55 135.684 2151.36 135.684 Z" fill="#000000" fill-rule="evenodd" fill-opacity="1" /><path clip-path="url(#clip260)" d="M2181.52 139.387 Q2177.91 139.387 2176.08 142.952 Q2174.28 146.494 2174.28 153.623 Q2174.28 160.73 2176.08 164.295 Q2177.91 167.836 2181.52 167.836 Q2185.16 167.836 2186.96 164.295 Q2188.79 160.73 2188.79 153.623 Q2188.79 146.494 2186.96 142.952 Q2185.16 139.387 2181.52 139.387 M2181.52 135.684 Q2187.33 135.684 2190.39 140.29 Q2193.47 144.873 2193.47 153.623 Q2193.47 162.35 2190.39 166.957 Q2187.33 171.54 2181.52 171.54 Q2175.71 171.54 2172.63 166.957 Q2169.58 162.35 2169.58 153.623 Q2169.58 144.873 2172.63 140.29 Q2175.71 135.684 2181.52 135.684 Z" fill="#000000" fill-rule="evenodd" fill-opacity="1" /><path clip-path="url(#clip260)" d="M2216.34 136.309 L2221.01 136.309 L2221.01 150.915 L2236.52 136.309 L2242.54 136.309 L2225.39 152.42 L2243.77 170.869 L2237.61 170.869 L2221.01 154.225 L2221.01 170.869 L2216.34 170.869 L2216.34 136.309 Z" fill="#000000" fill-rule="evenodd" fill-opacity="1" /></svg>
