<?xml version="1.0" encoding="utf-8"?>
<svg xmlns="http://www.w3.org/2000/svg" xmlns:xlink="http://www.w3.org/1999/xlink" width="600" height="400" viewBox="0 0 2400 1600">
<defs>
  <clipPath id="clip290">
    <rect x="0" y="0" width="2400" height="1600"/>
  </clipPath>
</defs>
<path clip-path="url(#clip290)" d="
M0 1600 L2400 1600 L2400 0 L0 0  Z
  " fill="#ffffff" fill-rule="evenodd" fill-opacity="1"/>
<defs>
  <clipPath id="clip291">
    <rect x="480" y="0" width="1681" height="1600"/>
  </clipPath>
</defs>
<path clip-path="url(#clip290)" d="
M360.493 1423.18 L2352.76 1423.18 L2352.76 47.2441 L360.493 47.2441  Z
  " fill="#ffffff" fill-rule="evenodd" fill-opacity="1"/>
<defs>
  <clipPath id="clip292">
    <rect x="360" y="47" width="1993" height="1377"/>
  </clipPath>
</defs>
<polyline clip-path="url(#clip292)" style="stroke:#000000; stroke-linecap:butt; stroke-linejoin:round; stroke-width:2; stroke-opacity:0.1; fill:none" points="
  551.128,1423.18 551.128,47.2441 
  "/>
<polyline clip-path="url(#clip292)" style="stroke:#000000; stroke-linecap:butt; stroke-linejoin:round; stroke-width:2; stroke-opacity:0.1; fill:none" points="
  819.627,1423.18 819.627,47.2441 
  "/>
<polyline clip-path="url(#clip292)" style="stroke:#000000; stroke-linecap:butt; stroke-linejoin:round; stroke-width:2; stroke-opacity:0.1; fill:none" points="
  1088.13,1423.18 1088.13,47.2441 
  "/>
<polyline clip-path="url(#clip292)" style="stroke:#000000; stroke-linecap:butt; stroke-linejoin:round; stroke-width:2; stroke-opacity:0.1; fill:none" points="
  1356.62,1423.18 1356.62,47.2441 
  "/>
<polyline clip-path="url(#clip292)" style="stroke:#000000; stroke-linecap:butt; stroke-linejoin:round; stroke-width:2; stroke-opacity:0.1; fill:none" points="
  1625.12,1423.18 1625.12,47.2441 
  "/>
<polyline clip-path="url(#clip292)" style="stroke:#000000; stroke-linecap:butt; stroke-linejoin:round; stroke-width:2; stroke-opacity:0.1; fill:none" points="
  1893.62,1423.18 1893.62,47.2441 
  "/>
<polyline clip-path="url(#clip292)" style="stroke:#000000; stroke-linecap:butt; stroke-linejoin:round; stroke-width:2; stroke-opacity:0.1; fill:none" points="
  2162.12,1423.18 2162.12,47.2441 
  "/>
<polyline clip-path="url(#clip290)" style="stroke:#000000; stroke-linecap:butt; stroke-linejoin:round; stroke-width:4; stroke-opacity:1; fill:none" points="
  360.493,1423.18 2352.76,1423.18 
  "/>
<polyline clip-path="url(#clip290)" style="stroke:#000000; stroke-linecap:butt; stroke-linejoin:round; stroke-width:4; stroke-opacity:1; fill:none" points="
  551.128,1423.18 551.128,1406.67 
  "/>
<polyline clip-path="url(#clip290)" style="stroke:#000000; stroke-linecap:butt; stroke-linejoin:round; stroke-width:4; stroke-opacity:1; fill:none" points="
  819.627,1423.18 819.627,1406.67 
  "/>
<polyline clip-path="url(#clip290)" style="stroke:#000000; stroke-linecap:butt; stroke-linejoin:round; stroke-width:4; stroke-opacity:1; fill:none" points="
  1088.13,1423.18 1088.13,1406.67 
  "/>
<polyline clip-path="url(#clip290)" style="stroke:#000000; stroke-linecap:butt; stroke-linejoin:round; stroke-width:4; stroke-opacity:1; fill:none" points="
  1356.62,1423.18 1356.62,1406.67 
  "/>
<polyline clip-path="url(#clip290)" style="stroke:#000000; stroke-linecap:butt; stroke-linejoin:round; stroke-width:4; stroke-opacity:1; fill:none" points="
  1625.12,1423.18 1625.12,1406.67 
  "/>
<polyline clip-path="url(#clip290)" style="stroke:#000000; stroke-linecap:butt; stroke-linejoin:round; stroke-width:4; stroke-opacity:1; fill:none" points="
  1893.62,1423.18 1893.62,1406.67 
  "/>
<polyline clip-path="url(#clip290)" style="stroke:#000000; stroke-linecap:butt; stroke-linejoin:round; stroke-width:4; stroke-opacity:1; fill:none" points="
  2162.12,1423.18 2162.12,1406.67 
  "/>
<path clip-path="url(#clip290)" d="M514.82 1479.92 L531.139 1479.92 L531.139 1483.85 L509.195 1483.85 L509.195 1479.92 Q511.857 1477.16 516.44 1472.53 Q521.047 1467.88 522.227 1466.54 Q524.473 1464.01 525.352 1462.28 Q526.255 1460.52 526.255 1458.83 Q526.255 1456.07 524.311 1454.34 Q522.389 1452.6 519.288 1452.6 Q517.089 1452.6 514.635 1453.37 Q512.204 1454.13 509.427 1455.68 L509.427 1450.96 Q512.251 1449.82 514.704 1449.25 Q517.158 1448.67 519.195 1448.67 Q524.565 1448.67 527.76 1451.35 Q530.954 1454.04 530.954 1458.53 Q530.954 1460.66 530.144 1462.58 Q529.357 1464.48 527.251 1467.07 Q526.672 1467.74 523.57 1470.96 Q520.468 1474.15 514.82 1479.92 Z" fill="#000000" fill-rule="evenodd" fill-opacity="1" /><path clip-path="url(#clip290)" d="M550.954 1452.37 Q547.343 1452.37 545.514 1455.94 Q543.709 1459.48 543.709 1466.61 Q543.709 1473.71 545.514 1477.28 Q547.343 1480.82 550.954 1480.82 Q554.588 1480.82 556.394 1477.28 Q558.223 1473.71 558.223 1466.61 Q558.223 1459.48 556.394 1455.94 Q554.588 1452.37 550.954 1452.37 M550.954 1448.67 Q556.764 1448.67 559.82 1453.27 Q562.898 1457.86 562.898 1466.61 Q562.898 1475.33 559.82 1479.94 Q556.764 1484.52 550.954 1484.52 Q545.144 1484.52 542.065 1479.94 Q539.01 1475.33 539.01 1466.61 Q539.01 1457.86 542.065 1453.27 Q545.144 1448.67 550.954 1448.67 Z" fill="#000000" fill-rule="evenodd" fill-opacity="1" /><path clip-path="url(#clip290)" d="M581.116 1452.37 Q577.505 1452.37 575.676 1455.94 Q573.871 1459.48 573.871 1466.61 Q573.871 1473.71 575.676 1477.28 Q577.505 1480.82 581.116 1480.82 Q584.75 1480.82 586.556 1477.28 Q588.384 1473.71 588.384 1466.61 Q588.384 1459.48 586.556 1455.94 Q584.75 1452.37 581.116 1452.37 M581.116 1448.67 Q586.926 1448.67 589.982 1453.27 Q593.06 1457.86 593.06 1466.61 Q593.06 1475.33 589.982 1479.94 Q586.926 1484.52 581.116 1484.52 Q575.306 1484.52 572.227 1479.94 Q569.172 1475.33 569.172 1466.61 Q569.172 1457.86 572.227 1453.27 Q575.306 1448.67 581.116 1448.67 Z" fill="#000000" fill-rule="evenodd" fill-opacity="1" /><path clip-path="url(#clip290)" d="M792.717 1453.37 L780.912 1471.81 L792.717 1471.81 L792.717 1453.37 M791.49 1449.29 L797.37 1449.29 L797.37 1471.81 L802.3 1471.81 L802.3 1475.7 L797.37 1475.7 L797.37 1483.85 L792.717 1483.85 L792.717 1475.7 L777.115 1475.7 L777.115 1471.19 L791.49 1449.29 Z" fill="#000000" fill-rule="evenodd" fill-opacity="1" /><path clip-path="url(#clip290)" d="M820.032 1452.37 Q816.421 1452.37 814.592 1455.94 Q812.786 1459.48 812.786 1466.61 Q812.786 1473.71 814.592 1477.28 Q816.421 1480.82 820.032 1480.82 Q823.666 1480.82 825.472 1477.28 Q827.3 1473.71 827.3 1466.61 Q827.3 1459.48 825.472 1455.94 Q823.666 1452.37 820.032 1452.37 M820.032 1448.67 Q825.842 1448.67 828.897 1453.27 Q831.976 1457.86 831.976 1466.61 Q831.976 1475.33 828.897 1479.94 Q825.842 1484.52 820.032 1484.52 Q814.222 1484.52 811.143 1479.94 Q808.087 1475.33 808.087 1466.61 Q808.087 1457.86 811.143 1453.27 Q814.222 1448.67 820.032 1448.67 Z" fill="#000000" fill-rule="evenodd" fill-opacity="1" /><path clip-path="url(#clip290)" d="M850.194 1452.37 Q846.583 1452.37 844.754 1455.94 Q842.948 1459.48 842.948 1466.61 Q842.948 1473.71 844.754 1477.28 Q846.583 1480.82 850.194 1480.82 Q853.828 1480.82 855.633 1477.28 Q857.462 1473.71 857.462 1466.61 Q857.462 1459.48 855.633 1455.94 Q853.828 1452.37 850.194 1452.37 M850.194 1448.67 Q856.004 1448.67 859.059 1453.27 Q862.138 1457.86 862.138 1466.61 Q862.138 1475.33 859.059 1479.94 Q856.004 1484.52 850.194 1484.52 Q844.383 1484.52 841.305 1479.94 Q838.249 1475.33 838.249 1466.61 Q838.249 1457.86 841.305 1453.27 Q844.383 1448.67 850.194 1448.67 Z" fill="#000000" fill-rule="evenodd" fill-opacity="1" /><path clip-path="url(#clip290)" d="M1058.45 1464.71 Q1055.3 1464.71 1053.45 1466.86 Q1051.62 1469.01 1051.62 1472.76 Q1051.62 1476.49 1053.45 1478.67 Q1055.3 1480.82 1058.45 1480.82 Q1061.6 1480.82 1063.43 1478.67 Q1065.28 1476.49 1065.28 1472.76 Q1065.28 1469.01 1063.43 1466.86 Q1061.6 1464.71 1058.45 1464.71 M1067.73 1450.06 L1067.73 1454.31 Q1065.97 1453.48 1064.17 1453.04 Q1062.39 1452.6 1060.63 1452.6 Q1056 1452.6 1053.54 1455.73 Q1051.11 1458.85 1050.76 1465.17 Q1052.13 1463.16 1054.19 1462.09 Q1056.25 1461 1058.73 1461 Q1063.94 1461 1066.95 1464.18 Q1069.98 1467.32 1069.98 1472.76 Q1069.98 1478.09 1066.83 1481.31 Q1063.68 1484.52 1058.45 1484.52 Q1052.45 1484.52 1049.28 1479.94 Q1046.11 1475.33 1046.11 1466.61 Q1046.11 1458.41 1050 1453.55 Q1053.89 1448.67 1060.44 1448.67 Q1062.2 1448.67 1063.98 1449.01 Q1065.79 1449.36 1067.73 1450.06 Z" fill="#000000" fill-rule="evenodd" fill-opacity="1" /><path clip-path="url(#clip290)" d="M1088.03 1452.37 Q1084.42 1452.37 1082.59 1455.94 Q1080.79 1459.48 1080.79 1466.61 Q1080.79 1473.71 1082.59 1477.28 Q1084.42 1480.82 1088.03 1480.82 Q1091.67 1480.82 1093.47 1477.28 Q1095.3 1473.71 1095.3 1466.61 Q1095.3 1459.48 1093.47 1455.94 Q1091.67 1452.37 1088.03 1452.37 M1088.03 1448.67 Q1093.84 1448.67 1096.9 1453.27 Q1099.98 1457.86 1099.98 1466.61 Q1099.98 1475.33 1096.9 1479.94 Q1093.84 1484.52 1088.03 1484.52 Q1082.22 1484.52 1079.14 1479.94 Q1076.09 1475.33 1076.09 1466.61 Q1076.09 1457.86 1079.14 1453.27 Q1082.22 1448.67 1088.03 1448.67 Z" fill="#000000" fill-rule="evenodd" fill-opacity="1" /><path clip-path="url(#clip290)" d="M1118.19 1452.37 Q1114.58 1452.37 1112.76 1455.94 Q1110.95 1459.48 1110.95 1466.61 Q1110.95 1473.71 1112.76 1477.28 Q1114.58 1480.82 1118.19 1480.82 Q1121.83 1480.82 1123.63 1477.28 Q1125.46 1473.71 1125.46 1466.61 Q1125.46 1459.48 1123.63 1455.94 Q1121.83 1452.37 1118.19 1452.37 M1118.19 1448.67 Q1124.01 1448.67 1127.06 1453.27 Q1130.14 1457.86 1130.14 1466.61 Q1130.14 1475.33 1127.06 1479.94 Q1124.01 1484.52 1118.19 1484.52 Q1112.38 1484.52 1109.31 1479.94 Q1106.25 1475.33 1106.25 1466.61 Q1106.25 1457.86 1109.31 1453.27 Q1112.38 1448.67 1118.19 1448.67 Z" fill="#000000" fill-rule="evenodd" fill-opacity="1" /><path clip-path="url(#clip290)" d="M1326.42 1467.44 Q1323.08 1467.44 1321.16 1469.22 Q1319.26 1471 1319.26 1474.13 Q1319.26 1477.25 1321.16 1479.04 Q1323.08 1480.82 1326.42 1480.82 Q1329.75 1480.82 1331.67 1479.04 Q1333.59 1477.23 1333.59 1474.13 Q1333.59 1471 1331.67 1469.22 Q1329.77 1467.44 1326.42 1467.44 M1321.74 1465.45 Q1318.73 1464.71 1317.04 1462.65 Q1315.37 1460.59 1315.37 1457.63 Q1315.37 1453.48 1318.31 1451.07 Q1321.28 1448.67 1326.42 1448.67 Q1331.58 1448.67 1334.52 1451.07 Q1337.46 1453.48 1337.46 1457.63 Q1337.46 1460.59 1335.77 1462.65 Q1334.1 1464.71 1331.12 1465.45 Q1334.5 1466.24 1336.37 1468.53 Q1338.27 1470.82 1338.27 1474.13 Q1338.27 1479.15 1335.19 1481.84 Q1332.13 1484.52 1326.42 1484.52 Q1320.7 1484.52 1317.62 1481.84 Q1314.56 1479.15 1314.56 1474.13 Q1314.56 1470.82 1316.46 1468.53 Q1318.36 1466.24 1321.74 1465.45 M1320.03 1458.06 Q1320.03 1460.75 1321.69 1462.25 Q1323.38 1463.76 1326.42 1463.76 Q1329.43 1463.76 1331.12 1462.25 Q1332.83 1460.75 1332.83 1458.06 Q1332.83 1455.38 1331.12 1453.88 Q1329.43 1452.37 1326.42 1452.37 Q1323.38 1452.37 1321.69 1453.88 Q1320.03 1455.38 1320.03 1458.06 Z" fill="#000000" fill-rule="evenodd" fill-opacity="1" /><path clip-path="url(#clip290)" d="M1356.58 1452.37 Q1352.97 1452.37 1351.14 1455.94 Q1349.33 1459.48 1349.33 1466.61 Q1349.33 1473.71 1351.14 1477.28 Q1352.97 1480.82 1356.58 1480.82 Q1360.21 1480.82 1362.02 1477.28 Q1363.85 1473.71 1363.85 1466.61 Q1363.85 1459.48 1362.02 1455.94 Q1360.21 1452.37 1356.58 1452.37 M1356.58 1448.67 Q1362.39 1448.67 1365.44 1453.27 Q1368.52 1457.86 1368.52 1466.61 Q1368.52 1475.33 1365.44 1479.94 Q1362.39 1484.52 1356.58 1484.52 Q1350.77 1484.52 1347.69 1479.94 Q1344.63 1475.33 1344.63 1466.61 Q1344.63 1457.86 1347.69 1453.27 Q1350.77 1448.67 1356.58 1448.67 Z" fill="#000000" fill-rule="evenodd" fill-opacity="1" /><path clip-path="url(#clip290)" d="M1386.74 1452.37 Q1383.13 1452.37 1381.3 1455.94 Q1379.49 1459.48 1379.49 1466.61 Q1379.49 1473.71 1381.3 1477.28 Q1383.13 1480.82 1386.74 1480.82 Q1390.37 1480.82 1392.18 1477.28 Q1394.01 1473.71 1394.01 1466.61 Q1394.01 1459.48 1392.18 1455.94 Q1390.37 1452.37 1386.74 1452.37 M1386.74 1448.67 Q1392.55 1448.67 1395.61 1453.27 Q1398.68 1457.86 1398.68 1466.61 Q1398.68 1475.33 1395.61 1479.94 Q1392.55 1484.52 1386.74 1484.52 Q1380.93 1484.52 1377.85 1479.94 Q1374.8 1475.33 1374.8 1466.61 Q1374.8 1457.86 1377.85 1453.27 Q1380.93 1448.67 1386.74 1448.67 Z" fill="#000000" fill-rule="evenodd" fill-opacity="1" /><path clip-path="url(#clip290)" d="M1569.65 1479.92 L1577.29 1479.92 L1577.29 1453.55 L1568.98 1455.22 L1568.98 1450.96 L1577.24 1449.29 L1581.92 1449.29 L1581.92 1479.92 L1589.56 1479.92 L1589.56 1483.85 L1569.65 1483.85 L1569.65 1479.92 Z" fill="#000000" fill-rule="evenodd" fill-opacity="1" /><path clip-path="url(#clip290)" d="M1609 1452.37 Q1605.39 1452.37 1603.56 1455.94 Q1601.76 1459.48 1601.76 1466.61 Q1601.76 1473.71 1603.56 1477.28 Q1605.39 1480.82 1609 1480.82 Q1612.64 1480.82 1614.44 1477.28 Q1616.27 1473.71 1616.27 1466.61 Q1616.27 1459.48 1614.44 1455.94 Q1612.64 1452.37 1609 1452.37 M1609 1448.67 Q1614.81 1448.67 1617.87 1453.27 Q1620.95 1457.86 1620.95 1466.61 Q1620.95 1475.33 1617.87 1479.94 Q1614.81 1484.52 1609 1484.52 Q1603.19 1484.52 1600.11 1479.94 Q1597.06 1475.33 1597.06 1466.61 Q1597.06 1457.86 1600.11 1453.27 Q1603.19 1448.67 1609 1448.67 Z" fill="#000000" fill-rule="evenodd" fill-opacity="1" /><path clip-path="url(#clip290)" d="M1639.16 1452.37 Q1635.55 1452.37 1633.72 1455.94 Q1631.92 1459.48 1631.92 1466.61 Q1631.92 1473.71 1633.72 1477.28 Q1635.55 1480.82 1639.16 1480.82 Q1642.8 1480.82 1644.6 1477.28 Q1646.43 1473.71 1646.43 1466.61 Q1646.43 1459.48 1644.6 1455.94 Q1642.8 1452.37 1639.16 1452.37 M1639.16 1448.67 Q1644.97 1448.67 1648.03 1453.27 Q1651.11 1457.86 1651.11 1466.61 Q1651.11 1475.33 1648.03 1479.94 Q1644.97 1484.52 1639.16 1484.52 Q1633.35 1484.52 1630.27 1479.94 Q1627.22 1475.33 1627.22 1466.61 Q1627.22 1457.86 1630.27 1453.27 Q1633.35 1448.67 1639.16 1448.67 Z" fill="#000000" fill-rule="evenodd" fill-opacity="1" /><path clip-path="url(#clip290)" d="M1669.32 1452.37 Q1665.71 1452.37 1663.89 1455.94 Q1662.08 1459.48 1662.08 1466.61 Q1662.08 1473.71 1663.89 1477.28 Q1665.71 1480.82 1669.32 1480.82 Q1672.96 1480.82 1674.76 1477.28 Q1676.59 1473.71 1676.59 1466.61 Q1676.59 1459.48 1674.76 1455.94 Q1672.96 1452.37 1669.32 1452.37 M1669.32 1448.67 Q1675.13 1448.67 1678.19 1453.27 Q1681.27 1457.86 1681.27 1466.61 Q1681.27 1475.33 1678.19 1479.94 Q1675.13 1484.52 1669.32 1484.52 Q1663.51 1484.52 1660.44 1479.94 Q1657.38 1475.33 1657.38 1466.61 Q1657.38 1457.86 1660.44 1453.27 Q1663.51 1448.67 1669.32 1448.67 Z" fill="#000000" fill-rule="evenodd" fill-opacity="1" /><path clip-path="url(#clip290)" d="M1838.15 1479.92 L1845.79 1479.92 L1845.79 1453.55 L1837.48 1455.22 L1837.48 1450.96 L1845.74 1449.29 L1850.42 1449.29 L1850.42 1479.92 L1858.06 1479.92 L1858.06 1483.85 L1838.15 1483.85 L1838.15 1479.92 Z" fill="#000000" fill-rule="evenodd" fill-opacity="1" /><path clip-path="url(#clip290)" d="M1871.53 1479.92 L1887.85 1479.92 L1887.85 1483.85 L1865.9 1483.85 L1865.9 1479.92 Q1868.56 1477.16 1873.15 1472.53 Q1877.75 1467.88 1878.94 1466.54 Q1881.18 1464.01 1882.06 1462.28 Q1882.96 1460.52 1882.96 1458.83 Q1882.96 1456.07 1881.02 1454.34 Q1879.1 1452.6 1876 1452.6 Q1873.8 1452.6 1871.34 1453.37 Q1868.91 1454.13 1866.13 1455.68 L1866.13 1450.96 Q1868.96 1449.82 1871.41 1449.25 Q1873.87 1448.67 1875.9 1448.67 Q1881.27 1448.67 1884.47 1451.35 Q1887.66 1454.04 1887.66 1458.53 Q1887.66 1460.66 1886.85 1462.58 Q1886.06 1464.48 1883.96 1467.07 Q1883.38 1467.74 1880.28 1470.96 Q1877.18 1474.15 1871.53 1479.92 Z" fill="#000000" fill-rule="evenodd" fill-opacity="1" /><path clip-path="url(#clip290)" d="M1907.66 1452.37 Q1904.05 1452.37 1902.22 1455.94 Q1900.42 1459.48 1900.42 1466.61 Q1900.42 1473.71 1902.22 1477.28 Q1904.05 1480.82 1907.66 1480.82 Q1911.3 1480.82 1913.1 1477.28 Q1914.93 1473.71 1914.93 1466.61 Q1914.93 1459.48 1913.1 1455.94 Q1911.3 1452.37 1907.66 1452.37 M1907.66 1448.67 Q1913.47 1448.67 1916.53 1453.27 Q1919.61 1457.86 1919.61 1466.61 Q1919.61 1475.33 1916.53 1479.94 Q1913.47 1484.52 1907.66 1484.52 Q1901.85 1484.52 1898.77 1479.94 Q1895.72 1475.33 1895.72 1466.61 Q1895.72 1457.86 1898.77 1453.27 Q1901.85 1448.67 1907.66 1448.67 Z" fill="#000000" fill-rule="evenodd" fill-opacity="1" /><path clip-path="url(#clip290)" d="M1937.82 1452.37 Q1934.21 1452.37 1932.38 1455.94 Q1930.58 1459.48 1930.58 1466.61 Q1930.58 1473.71 1932.38 1477.28 Q1934.21 1480.82 1937.82 1480.82 Q1941.46 1480.82 1943.26 1477.28 Q1945.09 1473.71 1945.09 1466.61 Q1945.09 1459.48 1943.26 1455.94 Q1941.46 1452.37 1937.82 1452.37 M1937.82 1448.67 Q1943.63 1448.67 1946.69 1453.27 Q1949.77 1457.86 1949.77 1466.61 Q1949.77 1475.33 1946.69 1479.94 Q1943.63 1484.52 1937.82 1484.52 Q1932.01 1484.52 1928.93 1479.94 Q1925.88 1475.33 1925.88 1466.61 Q1925.88 1457.86 1928.93 1453.27 Q1932.01 1448.67 1937.82 1448.67 Z" fill="#000000" fill-rule="evenodd" fill-opacity="1" /><path clip-path="url(#clip290)" d="M2106.65 1479.92 L2114.29 1479.92 L2114.29 1453.55 L2105.98 1455.22 L2105.98 1450.96 L2114.24 1449.29 L2118.92 1449.29 L2118.92 1479.92 L2126.55 1479.92 L2126.55 1483.85 L2106.65 1483.85 L2106.65 1479.92 Z" fill="#000000" fill-rule="evenodd" fill-opacity="1" /><path clip-path="url(#clip290)" d="M2148.85 1453.37 L2137.04 1471.81 L2148.85 1471.81 L2148.85 1453.37 M2147.62 1449.29 L2153.5 1449.29 L2153.5 1471.81 L2158.43 1471.81 L2158.43 1475.7 L2153.5 1475.7 L2153.5 1483.85 L2148.85 1483.85 L2148.85 1475.7 L2133.24 1475.7 L2133.24 1471.19 L2147.62 1449.29 Z" fill="#000000" fill-rule="evenodd" fill-opacity="1" /><path clip-path="url(#clip290)" d="M2176.16 1452.37 Q2172.55 1452.37 2170.72 1455.94 Q2168.92 1459.48 2168.92 1466.61 Q2168.92 1473.71 2170.72 1477.28 Q2172.55 1480.82 2176.16 1480.82 Q2179.8 1480.82 2181.6 1477.28 Q2183.43 1473.71 2183.43 1466.61 Q2183.43 1459.48 2181.6 1455.94 Q2179.8 1452.37 2176.16 1452.37 M2176.16 1448.67 Q2181.97 1448.67 2185.03 1453.27 Q2188.11 1457.86 2188.11 1466.61 Q2188.11 1475.33 2185.03 1479.94 Q2181.97 1484.52 2176.16 1484.52 Q2170.35 1484.52 2167.27 1479.94 Q2164.22 1475.33 2164.22 1466.61 Q2164.22 1457.86 2167.27 1453.27 Q2170.35 1448.67 2176.16 1448.67 Z" fill="#000000" fill-rule="evenodd" fill-opacity="1" /><path clip-path="url(#clip290)" d="M2206.32 1452.37 Q2202.71 1452.37 2200.88 1455.94 Q2199.08 1459.48 2199.08 1466.61 Q2199.08 1473.71 2200.88 1477.28 Q2202.71 1480.82 2206.32 1480.82 Q2209.96 1480.82 2211.76 1477.28 Q2213.59 1473.71 2213.59 1466.61 Q2213.59 1459.48 2211.76 1455.94 Q2209.96 1452.37 2206.32 1452.37 M2206.32 1448.67 Q2212.13 1448.67 2215.19 1453.27 Q2218.27 1457.86 2218.27 1466.61 Q2218.27 1475.33 2215.19 1479.94 Q2212.13 1484.52 2206.32 1484.52 Q2200.51 1484.52 2197.43 1479.94 Q2194.38 1475.33 2194.38 1466.61 Q2194.38 1457.86 2197.43 1453.27 Q2200.51 1448.67 2206.32 1448.67 Z" fill="#000000" fill-rule="evenodd" fill-opacity="1" /><path clip-path="url(#clip290)" d="M1072.7 1520.52 L1079.19 1520.52 L1089.19 1560.69 L1099.15 1520.52 L1106.37 1520.52 L1116.37 1560.69 L1126.33 1520.52 L1132.85 1520.52 L1120.92 1568.04 L1112.83 1568.04 L1102.81 1526.79 L1092.69 1568.04 L1084.6 1568.04 L1072.7 1520.52 Z" fill="#000000" fill-rule="evenodd" fill-opacity="1" /><path clip-path="url(#clip290)" d="M1167.8 1548.76 L1167.8 1551.62 L1140.87 1551.62 Q1141.26 1557.67 1144.5 1560.85 Q1147.78 1564 1153.61 1564 Q1156.98 1564 1160.13 1563.17 Q1163.31 1562.35 1166.43 1560.69 L1166.43 1566.23 Q1163.28 1567.57 1159.97 1568.27 Q1156.66 1568.97 1153.26 1568.97 Q1144.73 1568.97 1139.73 1564 Q1134.76 1559.04 1134.76 1550.57 Q1134.76 1541.82 1139.47 1536.69 Q1144.22 1531.54 1152.24 1531.54 Q1159.43 1531.54 1163.6 1536.18 Q1167.8 1540.8 1167.8 1548.76 M1161.95 1547.04 Q1161.88 1542.23 1159.24 1539.37 Q1156.63 1536.5 1152.3 1536.5 Q1147.4 1536.5 1144.44 1539.27 Q1141.51 1542.04 1141.07 1547.07 L1161.95 1547.04 Z" fill="#000000" fill-rule="evenodd" fill-opacity="1" /><path clip-path="url(#clip290)" d="M1177.41 1518.52 L1183.27 1518.52 L1183.27 1568.04 L1177.41 1568.04 L1177.41 1518.52 Z" fill="#000000" fill-rule="evenodd" fill-opacity="1" /><path clip-path="url(#clip290)" d="M1195.52 1518.52 L1201.38 1518.52 L1201.38 1568.04 L1195.52 1568.04 L1195.52 1518.52 Z" fill="#000000" fill-rule="evenodd" fill-opacity="1" /><path clip-path="url(#clip290)" d="M1244.13 1548.76 L1244.13 1551.62 L1217.2 1551.62 Q1217.58 1557.67 1220.83 1560.85 Q1224.11 1564 1229.93 1564 Q1233.31 1564 1236.46 1563.17 Q1239.64 1562.35 1242.76 1560.69 L1242.76 1566.23 Q1239.61 1567.57 1236.3 1568.27 Q1232.99 1568.97 1229.58 1568.97 Q1221.05 1568.97 1216.05 1564 Q1211.09 1559.04 1211.09 1550.57 Q1211.09 1541.82 1215.8 1536.69 Q1220.54 1531.54 1228.56 1531.54 Q1235.76 1531.54 1239.93 1536.18 Q1244.13 1540.8 1244.13 1548.76 M1238.27 1547.04 Q1238.21 1542.23 1235.56 1539.37 Q1232.95 1536.5 1228.63 1536.5 Q1223.72 1536.5 1220.76 1539.27 Q1217.84 1542.04 1217.39 1547.07 L1238.27 1547.04 Z" fill="#000000" fill-rule="evenodd" fill-opacity="1" /><path clip-path="url(#clip290)" d="M1283.37 1546.53 L1283.37 1568.04 L1277.51 1568.04 L1277.51 1546.72 Q1277.51 1541.66 1275.54 1539.14 Q1273.57 1536.63 1269.62 1536.63 Q1264.88 1536.63 1262.14 1539.65 Q1259.4 1542.68 1259.4 1547.9 L1259.4 1568.04 L1253.52 1568.04 L1253.52 1532.4 L1259.4 1532.4 L1259.4 1537.93 Q1261.51 1534.72 1264.34 1533.13 Q1267.2 1531.54 1270.93 1531.54 Q1277.07 1531.54 1280.22 1535.36 Q1283.37 1539.14 1283.37 1546.53 Z" fill="#000000" fill-rule="evenodd" fill-opacity="1" /><path clip-path="url(#clip290)" d="M1295.05 1518.52 L1300.91 1518.52 L1300.91 1568.04 L1295.05 1568.04 L1295.05 1518.52 Z" fill="#000000" fill-rule="evenodd" fill-opacity="1" /><path clip-path="url(#clip290)" d="M1329.36 1550.12 Q1322.27 1550.12 1319.53 1551.75 Q1316.79 1553.37 1316.79 1557.29 Q1316.79 1560.4 1318.83 1562.25 Q1320.9 1564.07 1324.43 1564.07 Q1329.3 1564.07 1332.23 1560.63 Q1335.19 1557.16 1335.19 1551.43 L1335.19 1550.12 L1329.36 1550.12 M1341.04 1547.71 L1341.04 1568.04 L1335.19 1568.04 L1335.19 1562.63 Q1333.18 1565.88 1330.19 1567.44 Q1327.2 1568.97 1322.87 1568.97 Q1317.4 1568.97 1314.15 1565.91 Q1310.93 1562.82 1310.93 1557.67 Q1310.93 1551.65 1314.95 1548.6 Q1318.99 1545.54 1326.98 1545.54 L1335.19 1545.54 L1335.19 1544.97 Q1335.19 1540.93 1332.51 1538.73 Q1329.87 1536.5 1325.07 1536.5 Q1322.01 1536.5 1319.11 1537.23 Q1316.22 1537.97 1313.54 1539.43 L1313.54 1534.02 Q1316.76 1532.78 1319.78 1532.17 Q1322.81 1531.54 1325.67 1531.54 Q1333.41 1531.54 1337.23 1535.55 Q1341.04 1539.56 1341.04 1547.71 M1328.92 1518.65 L1335.38 1518.65 L1335.38 1525.08 L1328.92 1525.08 L1328.92 1518.65 M1316.47 1518.65 L1322.93 1518.65 L1322.93 1525.08 L1316.47 1525.08 L1316.47 1518.65 Z" fill="#000000" fill-rule="evenodd" fill-opacity="1" /><path clip-path="url(#clip290)" d="M1382.74 1546.53 L1382.74 1568.04 L1376.88 1568.04 L1376.88 1546.72 Q1376.88 1541.66 1374.91 1539.14 Q1372.94 1536.63 1368.99 1536.63 Q1364.25 1536.63 1361.51 1539.65 Q1358.77 1542.68 1358.77 1547.9 L1358.77 1568.04 L1352.88 1568.04 L1352.88 1532.4 L1358.77 1532.4 L1358.77 1537.93 Q1360.87 1534.72 1363.71 1533.13 Q1366.57 1531.54 1370.3 1531.54 Q1376.44 1531.54 1379.59 1535.36 Q1382.74 1539.14 1382.74 1546.53 Z" fill="#000000" fill-rule="evenodd" fill-opacity="1" /><path clip-path="url(#clip290)" d="M1417.88 1549.81 Q1417.88 1543.44 1415.24 1539.94 Q1412.63 1536.44 1407.88 1536.44 Q1403.17 1536.44 1400.53 1539.94 Q1397.92 1543.44 1397.92 1549.81 Q1397.92 1556.14 1400.53 1559.64 Q1403.17 1563.14 1407.88 1563.14 Q1412.63 1563.14 1415.24 1559.64 Q1417.88 1556.14 1417.88 1549.81 M1423.74 1563.62 Q1423.74 1572.72 1419.69 1577.15 Q1415.65 1581.6 1407.31 1581.6 Q1404.22 1581.6 1401.49 1581.13 Q1398.75 1580.68 1396.17 1579.72 L1396.17 1574.03 Q1398.75 1575.43 1401.26 1576.1 Q1403.78 1576.76 1406.39 1576.76 Q1412.15 1576.76 1415.01 1573.74 Q1417.88 1570.75 1417.88 1564.67 L1417.88 1561.77 Q1416.06 1564.92 1413.23 1566.48 Q1410.4 1568.04 1406.45 1568.04 Q1399.9 1568.04 1395.89 1563.05 Q1391.87 1558.05 1391.87 1549.81 Q1391.87 1541.53 1395.89 1536.53 Q1399.9 1531.54 1406.45 1531.54 Q1410.4 1531.54 1413.23 1533.1 Q1416.06 1534.66 1417.88 1537.81 L1417.88 1532.4 L1423.74 1532.4 L1423.74 1563.62 Z" fill="#000000" fill-rule="evenodd" fill-opacity="1" /><path clip-path="url(#clip290)" d="M1466.29 1548.76 L1466.29 1551.62 L1439.36 1551.62 Q1439.74 1557.67 1442.99 1560.85 Q1446.27 1564 1452.09 1564 Q1455.47 1564 1458.62 1563.17 Q1461.8 1562.35 1464.92 1560.69 L1464.92 1566.23 Q1461.77 1567.57 1458.46 1568.27 Q1455.15 1568.97 1451.74 1568.97 Q1443.21 1568.97 1438.22 1564 Q1433.25 1559.04 1433.25 1550.57 Q1433.25 1541.82 1437.96 1536.69 Q1442.7 1531.54 1450.73 1531.54 Q1457.92 1531.54 1462.09 1536.18 Q1466.29 1540.8 1466.29 1548.76 M1460.43 1547.04 Q1460.37 1542.23 1457.73 1539.37 Q1455.12 1536.5 1450.79 1536.5 Q1445.89 1536.5 1442.93 1539.27 Q1440 1542.04 1439.55 1547.07 L1460.43 1547.04 Z" fill="#000000" fill-rule="evenodd" fill-opacity="1" /><path clip-path="url(#clip290)" d="M1496.08 1518.52 L1509.58 1518.52 L1509.58 1523.07 L1501.94 1523.07 L1501.94 1572.09 L1509.58 1572.09 L1509.58 1576.64 L1496.08 1576.64 L1496.08 1518.52 Z" fill="#000000" fill-rule="evenodd" fill-opacity="1" /><path clip-path="url(#clip290)" d="M1551.69 1546.53 L1551.69 1568.04 L1545.83 1568.04 L1545.83 1546.72 Q1545.83 1541.66 1543.86 1539.14 Q1541.88 1536.63 1537.94 1536.63 Q1533.19 1536.63 1530.46 1539.65 Q1527.72 1542.68 1527.72 1547.9 L1527.72 1568.04 L1521.83 1568.04 L1521.83 1532.4 L1527.72 1532.4 L1527.72 1537.93 Q1529.82 1534.72 1532.65 1533.13 Q1535.52 1531.54 1539.24 1531.54 Q1545.38 1531.54 1548.53 1535.36 Q1551.69 1539.14 1551.69 1546.53 Z" fill="#000000" fill-rule="evenodd" fill-opacity="1" /><path clip-path="url(#clip290)" d="M1591.12 1539.24 Q1593.32 1535.29 1596.37 1533.41 Q1599.43 1531.54 1603.57 1531.54 Q1609.14 1531.54 1612.16 1535.45 Q1615.18 1539.33 1615.18 1546.53 L1615.18 1568.04 L1609.3 1568.04 L1609.3 1546.72 Q1609.3 1541.59 1607.48 1539.11 Q1605.67 1536.63 1601.94 1536.63 Q1597.39 1536.63 1594.75 1539.65 Q1592.11 1542.68 1592.11 1547.9 L1592.11 1568.04 L1586.22 1568.04 L1586.22 1546.72 Q1586.22 1541.56 1584.41 1539.11 Q1582.59 1536.63 1578.8 1536.63 Q1574.32 1536.63 1571.67 1539.68 Q1569.03 1542.71 1569.03 1547.9 L1569.03 1568.04 L1563.14 1568.04 L1563.14 1532.4 L1569.03 1532.4 L1569.03 1537.93 Q1571.04 1534.66 1573.84 1533.1 Q1576.64 1531.54 1580.49 1531.54 Q1584.37 1531.54 1587.08 1533.51 Q1589.82 1535.48 1591.12 1539.24 Z" fill="#000000" fill-rule="evenodd" fill-opacity="1" /><path clip-path="url(#clip290)" d="M1640.55 1518.52 L1640.55 1576.64 L1627.06 1576.64 L1627.06 1572.09 L1634.66 1572.09 L1634.66 1523.07 L1627.06 1523.07 L1627.06 1518.52 L1640.55 1518.52 Z" fill="#000000" fill-rule="evenodd" fill-opacity="1" /><polyline clip-path="url(#clip292)" style="stroke:#000000; stroke-linecap:butt; stroke-linejoin:round; stroke-width:2; stroke-opacity:0.1; fill:none" points="
  360.493,1384.24 2352.76,1384.24 
  "/>
<polyline clip-path="url(#clip292)" style="stroke:#000000; stroke-linecap:butt; stroke-linejoin:round; stroke-width:2; stroke-opacity:0.1; fill:none" points="
  360.493,978.801 2352.76,978.801 
  "/>
<polyline clip-path="url(#clip292)" style="stroke:#000000; stroke-linecap:butt; stroke-linejoin:round; stroke-width:2; stroke-opacity:0.1; fill:none" points="
  360.493,573.365 2352.76,573.365 
  "/>
<polyline clip-path="url(#clip292)" style="stroke:#000000; stroke-linecap:butt; stroke-linejoin:round; stroke-width:2; stroke-opacity:0.1; fill:none" points="
  360.493,167.928 2352.76,167.928 
  "/>
<polyline clip-path="url(#clip290)" style="stroke:#000000; stroke-linecap:butt; stroke-linejoin:round; stroke-width:4; stroke-opacity:1; fill:none" points="
  360.493,1423.18 360.493,47.2441 
  "/>
<polyline clip-path="url(#clip290)" style="stroke:#000000; stroke-linecap:butt; stroke-linejoin:round; stroke-width:4; stroke-opacity:1; fill:none" points="
  360.493,1384.24 384.401,1384.24 
  "/>
<polyline clip-path="url(#clip290)" style="stroke:#000000; stroke-linecap:butt; stroke-linejoin:round; stroke-width:4; stroke-opacity:1; fill:none" points="
  360.493,978.801 384.401,978.801 
  "/>
<polyline clip-path="url(#clip290)" style="stroke:#000000; stroke-linecap:butt; stroke-linejoin:round; stroke-width:4; stroke-opacity:1; fill:none" points="
  360.493,573.365 384.401,573.365 
  "/>
<polyline clip-path="url(#clip290)" style="stroke:#000000; stroke-linecap:butt; stroke-linejoin:round; stroke-width:4; stroke-opacity:1; fill:none" points="
  360.493,167.928 384.401,167.928 
  "/>
<path clip-path="url(#clip290)" d="M312.549 1370.04 Q308.938 1370.04 307.109 1373.6 Q305.304 1377.14 305.304 1384.27 Q305.304 1391.38 307.109 1394.94 Q308.938 1398.49 312.549 1398.49 Q316.183 1398.49 317.989 1394.94 Q319.818 1391.38 319.818 1384.27 Q319.818 1377.14 317.989 1373.6 Q316.183 1370.04 312.549 1370.04 M312.549 1366.33 Q318.359 1366.33 321.415 1370.94 Q324.493 1375.52 324.493 1384.27 Q324.493 1393 321.415 1397.61 Q318.359 1402.19 312.549 1402.19 Q306.739 1402.19 303.66 1397.61 Q300.605 1393 300.605 1384.27 Q300.605 1375.52 303.66 1370.94 Q306.739 1366.33 312.549 1366.33 Z" fill="#000000" fill-rule="evenodd" fill-opacity="1" /><path clip-path="url(#clip290)" d="M116.668 998.594 L124.306 998.594 L124.306 972.228 L115.996 973.895 L115.996 969.636 L124.26 967.969 L128.936 967.969 L128.936 998.594 L136.575 998.594 L136.575 1002.53 L116.668 1002.53 L116.668 998.594 Z" fill="#000000" fill-rule="evenodd" fill-opacity="1" /><path clip-path="url(#clip290)" d="M146.019 996.649 L150.903 996.649 L150.903 1002.53 L146.019 1002.53 L146.019 996.649 Z" fill="#000000" fill-rule="evenodd" fill-opacity="1" /><path clip-path="url(#clip290)" d="M171.089 971.048 Q167.477 971.048 165.649 974.612 Q163.843 978.154 163.843 985.284 Q163.843 992.39 165.649 995.955 Q167.477 999.497 171.089 999.497 Q174.723 999.497 176.528 995.955 Q178.357 992.39 178.357 985.284 Q178.357 978.154 176.528 974.612 Q174.723 971.048 171.089 971.048 M171.089 967.344 Q176.899 967.344 179.954 971.95 Q183.033 976.534 183.033 985.284 Q183.033 994.011 179.954 998.617 Q176.899 1003.2 171.089 1003.2 Q165.278 1003.2 162.2 998.617 Q159.144 994.011 159.144 985.284 Q159.144 976.534 162.2 971.95 Q165.278 967.344 171.089 967.344 Z" fill="#000000" fill-rule="evenodd" fill-opacity="1" /><path clip-path="url(#clip290)" d="M219.422 977.066 L208.843 987.691 L219.422 998.27 L216.667 1001.07 L206.042 990.446 L195.417 1001.07 L192.686 998.27 L203.241 987.691 L192.686 977.066 L195.417 974.265 L206.042 984.89 L216.667 974.265 L219.422 977.066 Z" fill="#000000" fill-rule="evenodd" fill-opacity="1" /><path clip-path="url(#clip290)" d="M231.783 998.594 L239.422 998.594 L239.422 972.228 L231.111 973.895 L231.111 969.636 L239.375 967.969 L244.051 967.969 L244.051 998.594 L251.69 998.594 L251.69 1002.53 L231.783 1002.53 L231.783 998.594 Z" fill="#000000" fill-rule="evenodd" fill-opacity="1" /><path clip-path="url(#clip290)" d="M271.134 971.048 Q267.523 971.048 265.695 974.612 Q263.889 978.154 263.889 985.284 Q263.889 992.39 265.695 995.955 Q267.523 999.497 271.134 999.497 Q274.769 999.497 276.574 995.955 Q278.403 992.39 278.403 985.284 Q278.403 978.154 276.574 974.612 Q274.769 971.048 271.134 971.048 M271.134 967.344 Q276.944 967.344 280 971.95 Q283.079 976.534 283.079 985.284 Q283.079 994.011 280 998.617 Q276.944 1003.2 271.134 1003.2 Q265.324 1003.2 262.245 998.617 Q259.19 994.011 259.19 985.284 Q259.19 976.534 262.245 971.95 Q265.324 967.344 271.134 967.344 Z" fill="#000000" fill-rule="evenodd" fill-opacity="1" /><path clip-path="url(#clip290)" d="M283.624 971.921 L289.831 971.921 L289.831 950.499 L283.079 951.853 L283.079 948.393 L289.793 947.039 L293.592 947.039 L293.592 971.921 L299.799 971.921 L299.799 975.119 L283.624 975.119 L283.624 971.921 Z" fill="#000000" fill-rule="evenodd" fill-opacity="1" /><path clip-path="url(#clip290)" d="M307.51 947.039 L322.425 947.039 L322.425 950.236 L310.989 950.236 L310.989 957.12 Q311.817 956.837 312.645 956.706 Q313.472 956.555 314.3 956.555 Q319.002 956.555 321.747 959.132 Q324.493 961.709 324.493 966.11 Q324.493 970.642 321.672 973.163 Q318.851 975.664 313.717 975.664 Q311.949 975.664 310.105 975.363 Q308.281 975.062 306.325 974.46 L306.325 970.642 Q308.018 971.564 309.823 972.015 Q311.629 972.467 313.641 972.467 Q316.895 972.467 318.795 970.755 Q320.694 969.044 320.694 966.11 Q320.694 963.176 318.795 961.464 Q316.895 959.753 313.641 959.753 Q312.118 959.753 310.594 960.091 Q309.09 960.43 307.51 961.144 L307.51 947.039 Z" fill="#000000" fill-rule="evenodd" fill-opacity="1" /><path clip-path="url(#clip290)" d="M119.885 593.157 L136.204 593.157 L136.204 597.092 L114.26 597.092 L114.26 593.157 Q116.922 590.402 121.505 585.773 Q126.112 581.12 127.292 579.777 Q129.538 577.254 130.417 575.518 Q131.32 573.759 131.32 572.069 Q131.32 569.314 129.376 567.578 Q127.455 565.842 124.353 565.842 Q122.154 565.842 119.7 566.606 Q117.269 567.37 114.492 568.921 L114.492 564.199 Q117.316 563.065 119.769 562.486 Q122.223 561.907 124.26 561.907 Q129.63 561.907 132.825 564.592 Q136.019 567.277 136.019 571.768 Q136.019 573.898 135.209 575.819 Q134.422 577.717 132.316 580.31 Q131.737 580.981 128.635 584.199 Q125.533 587.393 119.885 593.157 Z" fill="#000000" fill-rule="evenodd" fill-opacity="1" /><path clip-path="url(#clip290)" d="M146.019 591.213 L150.903 591.213 L150.903 597.092 L146.019 597.092 L146.019 591.213 Z" fill="#000000" fill-rule="evenodd" fill-opacity="1" /><path clip-path="url(#clip290)" d="M171.089 565.611 Q167.477 565.611 165.649 569.176 Q163.843 572.717 163.843 579.847 Q163.843 586.953 165.649 590.518 Q167.477 594.06 171.089 594.06 Q174.723 594.06 176.528 590.518 Q178.357 586.953 178.357 579.847 Q178.357 572.717 176.528 569.176 Q174.723 565.611 171.089 565.611 M171.089 561.907 Q176.899 561.907 179.954 566.514 Q183.033 571.097 183.033 579.847 Q183.033 588.574 179.954 593.18 Q176.899 597.763 171.089 597.763 Q165.278 597.763 162.2 593.18 Q159.144 588.574 159.144 579.847 Q159.144 571.097 162.2 566.514 Q165.278 561.907 171.089 561.907 Z" fill="#000000" fill-rule="evenodd" fill-opacity="1" /><path clip-path="url(#clip290)" d="M219.422 571.629 L208.843 582.254 L219.422 592.833 L216.667 595.634 L206.042 585.009 L195.417 595.634 L192.686 592.833 L203.241 582.254 L192.686 571.629 L195.417 568.828 L206.042 579.453 L216.667 568.828 L219.422 571.629 Z" fill="#000000" fill-rule="evenodd" fill-opacity="1" /><path clip-path="url(#clip290)" d="M231.783 593.157 L239.422 593.157 L239.422 566.791 L231.111 568.458 L231.111 564.199 L239.375 562.532 L244.051 562.532 L244.051 593.157 L251.69 593.157 L251.69 597.092 L231.783 597.092 L231.783 593.157 Z" fill="#000000" fill-rule="evenodd" fill-opacity="1" /><path clip-path="url(#clip290)" d="M271.134 565.611 Q267.523 565.611 265.695 569.176 Q263.889 572.717 263.889 579.847 Q263.889 586.953 265.695 590.518 Q267.523 594.06 271.134 594.06 Q274.769 594.06 276.574 590.518 Q278.403 586.953 278.403 579.847 Q278.403 572.717 276.574 569.176 Q274.769 565.611 271.134 565.611 M271.134 561.907 Q276.944 561.907 280 566.514 Q283.079 571.097 283.079 579.847 Q283.079 588.574 280 593.18 Q276.944 597.763 271.134 597.763 Q265.324 597.763 262.245 593.18 Q259.19 588.574 259.19 579.847 Q259.19 571.097 262.245 566.514 Q265.324 561.907 271.134 561.907 Z" fill="#000000" fill-rule="evenodd" fill-opacity="1" /><path clip-path="url(#clip290)" d="M283.624 566.484 L289.831 566.484 L289.831 545.062 L283.079 546.417 L283.079 542.956 L289.793 541.602 L293.592 541.602 L293.592 566.484 L299.799 566.484 L299.799 569.682 L283.624 569.682 L283.624 566.484 Z" fill="#000000" fill-rule="evenodd" fill-opacity="1" /><path clip-path="url(#clip290)" d="M307.51 541.602 L322.425 541.602 L322.425 544.799 L310.989 544.799 L310.989 551.683 Q311.817 551.401 312.645 551.269 Q313.472 551.118 314.3 551.118 Q319.002 551.118 321.747 553.695 Q324.493 556.272 324.493 560.673 Q324.493 565.205 321.672 567.726 Q318.851 570.227 313.717 570.227 Q311.949 570.227 310.105 569.926 Q308.281 569.625 306.325 569.023 L306.325 565.205 Q308.018 566.127 309.823 566.578 Q311.629 567.03 313.641 567.03 Q316.895 567.03 318.795 565.318 Q320.694 563.607 320.694 560.673 Q320.694 557.739 318.795 556.027 Q316.895 554.316 313.641 554.316 Q312.118 554.316 310.594 554.654 Q309.09 554.993 307.51 555.708 L307.51 541.602 Z" fill="#000000" fill-rule="evenodd" fill-opacity="1" /><path clip-path="url(#clip290)" d="M130.024 173.021 Q133.38 173.739 135.255 176.007 Q137.154 178.276 137.154 181.609 Q137.154 186.725 133.635 189.526 Q130.117 192.327 123.635 192.327 Q121.459 192.327 119.144 191.887 Q116.853 191.47 114.399 190.614 L114.399 186.1 Q116.343 187.234 118.658 187.813 Q120.973 188.391 123.496 188.391 Q127.894 188.391 130.186 186.655 Q132.501 184.919 132.501 181.609 Q132.501 178.553 130.348 176.841 Q128.218 175.104 124.399 175.104 L120.371 175.104 L120.371 171.262 L124.584 171.262 Q128.033 171.262 129.862 169.896 Q131.691 168.507 131.691 165.915 Q131.691 163.253 129.792 161.841 Q127.917 160.405 124.399 160.405 Q122.478 160.405 120.279 160.822 Q118.08 161.239 115.441 162.118 L115.441 157.952 Q118.103 157.211 120.418 156.841 Q122.755 156.47 124.816 156.47 Q130.14 156.47 133.242 158.901 Q136.343 161.308 136.343 165.429 Q136.343 168.299 134.7 170.29 Q133.056 172.257 130.024 173.021 Z" fill="#000000" fill-rule="evenodd" fill-opacity="1" /><path clip-path="url(#clip290)" d="M146.019 185.776 L150.903 185.776 L150.903 191.655 L146.019 191.655 L146.019 185.776 Z" fill="#000000" fill-rule="evenodd" fill-opacity="1" /><path clip-path="url(#clip290)" d="M171.089 160.174 Q167.477 160.174 165.649 163.739 Q163.843 167.28 163.843 174.41 Q163.843 181.516 165.649 185.081 Q167.477 188.623 171.089 188.623 Q174.723 188.623 176.528 185.081 Q178.357 181.516 178.357 174.41 Q178.357 167.28 176.528 163.739 Q174.723 160.174 171.089 160.174 M171.089 156.47 Q176.899 156.47 179.954 161.077 Q183.033 165.66 183.033 174.41 Q183.033 183.137 179.954 187.743 Q176.899 192.327 171.089 192.327 Q165.278 192.327 162.2 187.743 Q159.144 183.137 159.144 174.41 Q159.144 165.66 162.2 161.077 Q165.278 156.47 171.089 156.47 Z" fill="#000000" fill-rule="evenodd" fill-opacity="1" /><path clip-path="url(#clip290)" d="M219.422 166.192 L208.843 176.817 L219.422 187.396 L216.667 190.197 L206.042 179.572 L195.417 190.197 L192.686 187.396 L203.241 176.817 L192.686 166.192 L195.417 163.392 L206.042 174.016 L216.667 163.392 L219.422 166.192 Z" fill="#000000" fill-rule="evenodd" fill-opacity="1" /><path clip-path="url(#clip290)" d="M231.783 187.72 L239.422 187.72 L239.422 161.354 L231.111 163.021 L231.111 158.762 L239.375 157.095 L244.051 157.095 L244.051 187.72 L251.69 187.72 L251.69 191.655 L231.783 191.655 L231.783 187.72 Z" fill="#000000" fill-rule="evenodd" fill-opacity="1" /><path clip-path="url(#clip290)" d="M271.134 160.174 Q267.523 160.174 265.695 163.739 Q263.889 167.28 263.889 174.41 Q263.889 181.516 265.695 185.081 Q267.523 188.623 271.134 188.623 Q274.769 188.623 276.574 185.081 Q278.403 181.516 278.403 174.41 Q278.403 167.28 276.574 163.739 Q274.769 160.174 271.134 160.174 M271.134 156.47 Q276.944 156.47 280 161.077 Q283.079 165.66 283.079 174.41 Q283.079 183.137 280 187.743 Q276.944 192.327 271.134 192.327 Q265.324 192.327 262.245 187.743 Q259.19 183.137 259.19 174.41 Q259.19 165.66 262.245 161.077 Q265.324 156.47 271.134 156.47 Z" fill="#000000" fill-rule="evenodd" fill-opacity="1" /><path clip-path="url(#clip290)" d="M283.624 161.048 L289.831 161.048 L289.831 139.625 L283.079 140.98 L283.079 137.519 L289.793 136.165 L293.592 136.165 L293.592 161.048 L299.799 161.048 L299.799 164.245 L283.624 164.245 L283.624 161.048 Z" fill="#000000" fill-rule="evenodd" fill-opacity="1" /><path clip-path="url(#clip290)" d="M307.51 136.165 L322.425 136.165 L322.425 139.362 L310.989 139.362 L310.989 146.246 Q311.817 145.964 312.645 145.832 Q313.472 145.682 314.3 145.682 Q319.002 145.682 321.747 148.258 Q324.493 150.835 324.493 155.236 Q324.493 159.769 321.672 162.289 Q318.851 164.79 313.717 164.79 Q311.949 164.79 310.105 164.489 Q308.281 164.188 306.325 163.587 L306.325 159.769 Q308.018 160.69 309.823 161.142 Q311.629 161.593 313.641 161.593 Q316.895 161.593 318.795 159.881 Q320.694 158.17 320.694 155.236 Q320.694 152.302 318.795 150.59 Q316.895 148.879 313.641 148.879 Q312.118 148.879 310.594 149.217 Q309.09 149.556 307.51 150.271 L307.51 136.165 Z" fill="#000000" fill-rule="evenodd" fill-opacity="1" /><path clip-path="url(#clip290)" d="M16.4842 1008.35 L16.4842 1001.92 L64.0042 1001.92 L64.0042 1008.35 L16.4842 1008.35 Z" fill="#000000" fill-rule="evenodd" fill-opacity="1" /><path clip-path="url(#clip290)" d="M42.4881 959.746 L64.0042 959.746 L64.0042 965.603 L42.679 965.603 Q37.6183 965.603 35.1038 967.576 Q32.5894 969.55 32.5894 973.496 Q32.5894 978.239 35.6131 980.976 Q38.6368 983.713 43.8567 983.713 L64.0042 983.713 L64.0042 989.602 L28.3562 989.602 L28.3562 983.713 L33.8944 983.713 Q30.6797 981.613 29.0883 978.78 Q27.4968 975.915 27.4968 972.191 Q27.4968 966.048 31.3163 962.897 Q35.1038 959.746 42.4881 959.746 Z" fill="#000000" fill-rule="evenodd" fill-opacity="1" /><path clip-path="url(#clip290)" d="M18.2347 942.272 L28.3562 942.272 L28.3562 930.209 L32.9077 930.209 L32.9077 942.272 L52.2594 942.272 Q56.6199 942.272 57.8613 941.095 Q59.1026 939.885 59.1026 936.225 L59.1026 930.209 L64.0042 930.209 L64.0042 936.225 Q64.0042 943.005 61.4897 945.583 Q58.9434 948.161 52.2594 948.161 L32.9077 948.161 L32.9077 952.458 L28.3562 952.458 L28.3562 948.161 L18.2347 948.161 L18.2347 942.272 Z" fill="#000000" fill-rule="evenodd" fill-opacity="1" /><path clip-path="url(#clip290)" d="M44.7161 892.015 L47.5806 892.015 L47.5806 918.942 Q53.6281 918.56 56.8109 915.314 Q59.9619 912.035 59.9619 906.211 Q59.9619 902.837 59.1344 899.686 Q58.3069 896.503 56.6518 893.384 L62.1899 893.384 Q63.5267 896.535 64.227 899.845 Q64.9272 903.155 64.9272 906.561 Q64.9272 915.091 59.9619 920.088 Q54.9967 925.053 46.5303 925.053 Q37.7774 925.053 32.6531 920.343 Q27.4968 915.6 27.4968 907.579 Q27.4968 900.386 32.1438 896.217 Q36.7589 892.015 44.7161 892.015 M42.9973 897.872 Q38.1912 897.935 35.3266 900.577 Q32.4621 903.187 32.4621 907.516 Q32.4621 912.417 35.2312 915.377 Q38.0002 918.306 43.0292 918.751 L42.9973 897.872 Z" fill="#000000" fill-rule="evenodd" fill-opacity="1" /><path clip-path="url(#clip290)" d="M42.4881 852.771 L64.0042 852.771 L64.0042 858.627 L42.679 858.627 Q37.6183 858.627 35.1038 860.6 Q32.5894 862.574 32.5894 866.521 Q32.5894 871.263 35.6131 874 Q38.6368 876.738 43.8567 876.738 L64.0042 876.738 L64.0042 882.626 L28.3562 882.626 L28.3562 876.738 L33.8944 876.738 Q30.6797 874.637 29.0883 871.804 Q27.4968 868.94 27.4968 865.216 Q27.4968 859.073 31.3163 855.922 Q35.1038 852.771 42.4881 852.771 Z" fill="#000000" fill-rule="evenodd" fill-opacity="1" /><path clip-path="url(#clip290)" d="M29.4065 818.364 L34.9447 818.364 Q33.6716 820.847 33.035 823.52 Q32.3984 826.194 32.3984 829.058 Q32.3984 833.419 33.7352 835.615 Q35.072 837.779 37.7456 837.779 Q39.7826 837.779 40.9603 836.22 Q42.1061 834.66 43.1565 829.95 L43.6021 827.944 Q44.9389 821.706 47.3897 819.096 Q49.8086 816.454 54.1691 816.454 Q59.1344 816.454 62.0308 820.401 Q64.9272 824.316 64.9272 831.191 Q64.9272 834.055 64.3543 837.175 Q63.8132 840.262 62.6992 843.7 L56.6518 843.7 Q58.3387 840.453 59.198 837.302 Q60.0256 834.151 60.0256 831.064 Q60.0256 826.926 58.6251 824.698 Q57.1929 822.47 54.6147 822.47 Q52.2276 822.47 50.9545 824.093 Q49.6813 825.685 48.5037 831.127 L48.0262 833.164 Q46.8804 838.607 44.5251 841.026 Q42.138 843.445 38.0002 843.445 Q32.9713 843.445 30.2341 839.88 Q27.4968 836.315 27.4968 829.759 Q27.4968 826.512 27.9743 823.648 Q28.4517 820.783 29.4065 818.364 Z" fill="#000000" fill-rule="evenodd" fill-opacity="1" /><path clip-path="url(#clip290)" d="M28.3562 807.129 L28.3562 801.272 L64.0042 801.272 L64.0042 807.129 L28.3562 807.129 M14.479 807.129 L14.479 801.272 L21.895 801.272 L21.895 807.129 L14.479 807.129 Z" fill="#000000" fill-rule="evenodd" fill-opacity="1" /><path clip-path="url(#clip290)" d="M18.2347 783.225 L28.3562 783.225 L28.3562 771.162 L32.9077 771.162 L32.9077 783.225 L52.2594 783.225 Q56.6199 783.225 57.8613 782.048 Q59.1026 780.838 59.1026 777.178 L59.1026 771.162 L64.0042 771.162 L64.0042 777.178 Q64.0042 783.957 61.4897 786.535 Q58.9434 789.114 52.2594 789.114 L32.9077 789.114 L32.9077 793.41 L28.3562 793.41 L28.3562 789.114 L18.2347 789.114 L18.2347 783.225 Z" fill="#000000" fill-rule="evenodd" fill-opacity="1" /><path clip-path="url(#clip290)" d="M46.0847 747.259 Q46.0847 754.357 47.7079 757.094 Q49.3312 759.831 53.2461 759.831 Q56.3653 759.831 58.2114 757.794 Q60.0256 755.725 60.0256 752.192 Q60.0256 747.323 56.5881 744.395 Q53.1188 741.434 47.3897 741.434 L46.0847 741.434 L46.0847 747.259 M43.6657 735.578 L64.0042 735.578 L64.0042 741.434 L58.5933 741.434 Q61.8398 743.44 63.3994 746.432 Q64.9272 749.423 64.9272 753.752 Q64.9272 759.227 61.8716 762.473 Q58.7843 765.688 53.6281 765.688 Q47.6125 765.688 44.5569 761.677 Q41.5014 757.635 41.5014 749.646 L41.5014 741.434 L40.9285 741.434 Q36.8862 741.434 34.6901 744.108 Q32.4621 746.75 32.4621 751.556 Q32.4621 754.611 33.1941 757.508 Q33.9262 760.404 35.3903 763.078 L29.9795 763.078 Q28.7381 759.863 28.1334 756.839 Q27.4968 753.816 27.4968 750.951 Q27.4968 743.217 31.5072 739.397 Q35.5176 735.578 43.6657 735.578 M14.6063 747.705 L14.6063 741.243 L21.0356 741.243 L21.0356 747.705 L14.6063 747.705 M14.6063 760.15 L14.6063 753.688 L21.0356 753.688 L21.0356 760.15 L14.6063 760.15 Z" fill="#000000" fill-rule="evenodd" fill-opacity="1" /><path clip-path="url(#clip290)" d="M18.2347 717.722 L28.3562 717.722 L28.3562 705.659 L32.9077 705.659 L32.9077 717.722 L52.2594 717.722 Q56.6199 717.722 57.8613 716.545 Q59.1026 715.335 59.1026 711.675 L59.1026 705.659 L64.0042 705.659 L64.0042 711.675 Q64.0042 718.454 61.4897 721.032 Q58.9434 723.61 52.2594 723.61 L32.9077 723.61 L32.9077 727.907 L28.3562 727.907 L28.3562 723.61 L18.2347 723.61 L18.2347 717.722 Z" fill="#000000" fill-rule="evenodd" fill-opacity="1" /><path clip-path="url(#clip290)" d="M14.479 677.777 L14.479 664.282 L19.0304 664.282 L19.0304 671.921 L68.0464 671.921 L68.0464 664.282 L72.5979 664.282 L72.5979 677.777 L14.479 677.777 Z" fill="#000000" fill-rule="evenodd" fill-opacity="1" /><path clip-path="url(#clip290)" d="M16.4842 655.784 L16.4842 649.291 L56.6518 639.297 L16.4842 629.334 L16.4842 622.109 L56.6518 612.115 L16.4842 602.153 L16.4842 595.628 L64.0042 607.564 L64.0042 615.648 L22.7544 625.674 L64.0042 635.796 L64.0042 643.88 L16.4842 655.784 Z" fill="#000000" fill-rule="evenodd" fill-opacity="1" /><path clip-path="url(#clip290)" d="M16.4842 576.945 L16.4842 571.534 L70.0516 588.085 L70.0516 593.495 L16.4842 576.945 Z" fill="#000000" fill-rule="evenodd" fill-opacity="1" /><path clip-path="url(#clip290)" d="M35.1993 537.636 Q31.2526 535.44 29.3747 532.385 Q27.4968 529.329 27.4968 525.191 Q27.4968 519.621 31.4117 516.598 Q35.2948 513.574 42.4881 513.574 L64.0042 513.574 L64.0042 519.462 L42.679 519.462 Q37.5546 519.462 35.072 521.276 Q32.5894 523.091 32.5894 526.815 Q32.5894 531.366 35.6131 534.008 Q38.6368 536.65 43.8567 536.65 L64.0042 536.65 L64.0042 542.538 L42.679 542.538 Q37.5228 542.538 35.072 544.352 Q32.5894 546.166 32.5894 549.954 Q32.5894 554.442 35.6449 557.084 Q38.6686 559.725 43.8567 559.725 L64.0042 559.725 L64.0042 565.614 L28.3562 565.614 L28.3562 559.725 L33.8944 559.725 Q30.616 557.72 29.0564 554.919 Q27.4968 552.118 27.4968 548.267 Q27.4968 544.384 29.4702 541.679 Q31.4436 538.941 35.1993 537.636 Z" fill="#000000" fill-rule="evenodd" fill-opacity="1" /><path clip-path="url(#clip290)" d="M28.3562 491.358 Q28.9291 488.429 30.6797 486.838 Q32.3984 485.215 35.0084 485.215 Q38.9551 485.215 41.0876 488.238 Q43.2201 491.262 43.2201 496.896 Q43.2201 498.71 42.9018 500.715 Q42.5517 502.689 41.9152 504.917 L38.0639 504.917 Q38.9233 503.262 39.337 501.384 Q39.7508 499.474 39.7508 497.341 Q39.7508 493.872 38.5095 491.962 Q37.2364 490.053 35.0084 490.053 Q32.6531 490.053 31.4436 491.835 Q30.2341 493.586 30.2341 497.023 L30.2341 499.76 L26.7966 499.76 L26.7966 496.769 Q26.7966 493.777 25.8099 492.249 Q24.7914 490.689 22.8817 490.689 Q21.0356 490.689 20.0808 492.281 Q19.0941 493.872 19.0941 496.896 Q19.0941 498.169 19.3806 499.792 Q19.667 501.415 20.3991 503.994 L16.7388 503.994 Q16.1977 501.67 15.9112 499.633 Q15.6248 497.596 15.6248 495.845 Q15.6248 491.262 17.5027 488.589 Q19.3806 485.883 22.5316 485.883 Q24.7277 485.883 26.2555 487.315 Q27.7833 488.748 28.3562 491.358 Z" fill="#000000" fill-rule="evenodd" fill-opacity="1" /><path clip-path="url(#clip290)" d="M14.479 462.075 L72.5979 462.075 L72.5979 475.571 L68.0464 475.571 L68.0464 467.964 L19.0304 467.964 L19.0304 475.571 L14.479 475.571 L14.479 462.075 Z" fill="#000000" fill-rule="evenodd" fill-opacity="1" /><path clip-path="url(#clip292)" d="
M792.777 86.1857 L792.777 1384.24 L846.477 1384.24 L846.477 86.1857 L792.777 86.1857 L792.777 86.1857  Z
  " fill="#ee82ee" fill-rule="evenodd" fill-opacity="0.7"/>
<polyline clip-path="url(#clip292)" style="stroke:#000000; stroke-linecap:butt; stroke-linejoin:round; stroke-width:4; stroke-opacity:1; fill:none" points="
  792.777,86.1857 792.777,1384.24 846.477,1384.24 846.477,86.1857 792.777,86.1857 
  "/>
<path clip-path="url(#clip292)" d="
M846.477 86.1857 L846.477 1384.24 L940.451 1384.24 L940.451 86.1857 L846.477 86.1857 L846.477 86.1857  Z
  " fill="#0000ff" fill-rule="evenodd" fill-opacity="0.7"/>
<polyline clip-path="url(#clip292)" style="stroke:#000000; stroke-linecap:butt; stroke-linejoin:round; stroke-width:4; stroke-opacity:1; fill:none" points="
  846.477,86.1857 846.477,1384.24 940.451,1384.24 940.451,86.1857 846.477,86.1857 
  "/>
<path clip-path="url(#clip292)" d="
M940.451 86.1857 L940.451 1384.24 L1054.56 1384.24 L1054.56 86.1857 L940.451 86.1857 L940.451 86.1857  Z
  " fill="#008000" fill-rule="evenodd" fill-opacity="0.7"/>
<polyline clip-path="url(#clip292)" style="stroke:#000000; stroke-linecap:butt; stroke-linejoin:round; stroke-width:4; stroke-opacity:1; fill:none" points="
  940.451,86.1857 940.451,1384.24 1054.56,1384.24 1054.56,86.1857 940.451,86.1857 
  "/>
<path clip-path="url(#clip292)" d="
M1054.56 86.1857 L1054.56 1384.24 L1067.99 1384.24 L1067.99 86.1857 L1054.56 86.1857 L1054.56 86.1857  Z
  " fill="#ffff00" fill-rule="evenodd" fill-opacity="0.7"/>
<polyline clip-path="url(#clip292)" style="stroke:#000000; stroke-linecap:butt; stroke-linejoin:round; stroke-width:4; stroke-opacity:1; fill:none" points="
  1054.56,86.1857 1054.56,1384.24 1067.99,1384.24 1067.99,86.1857 1054.56,86.1857 
  "/>
<path clip-path="url(#clip292)" d="
M1067.99 86.1857 L1067.99 1384.24 L1155.25 1384.24 L1155.25 86.1857 L1067.99 86.1857 L1067.99 86.1857  Z
  " fill="#ffa500" fill-rule="evenodd" fill-opacity="0.7"/>
<polyline clip-path="url(#clip292)" style="stroke:#000000; stroke-linecap:butt; stroke-linejoin:round; stroke-width:4; stroke-opacity:1; fill:none" points="
  1067.99,86.1857 1067.99,1384.24 1155.25,1384.24 1155.25,86.1857 1067.99,86.1857 
  "/>
<path clip-path="url(#clip292)" d="
M1155.25 86.1857 L1155.25 1384.24 L1289.5 1384.24 L1289.5 86.1857 L1155.25 86.1857 L1155.25 86.1857  Z
  " fill="#ff0000" fill-rule="evenodd" fill-opacity="0.7"/>
<polyline clip-path="url(#clip292)" style="stroke:#000000; stroke-linecap:butt; stroke-linejoin:round; stroke-width:4; stroke-opacity:1; fill:none" points="
  1155.25,86.1857 1155.25,1384.24 1289.5,1384.24 1289.5,86.1857 1155.25,86.1857 
  "/>
<polyline clip-path="url(#clip292)" style="stroke:#000000; stroke-linecap:butt; stroke-linejoin:round; stroke-width:12; stroke-opacity:1; fill:none" points="
  282.642,1384.24 282.642,1384.24 282.643,1384.24 282.643,1384.24 282.643,1384.24 282.643,1384.24 282.643,1384.24 282.643,1384.24 282.644,1384.24 282.644,1384.24 
  282.644,1384.24 282.644,1384.24 282.645,1384.24 282.645,1384.24 282.645,1384.24 282.645,1384.24 282.645,1384.24 282.646,1384.24 282.646,1384.24 282.646,1384.24 
  282.646,1384.24 282.647,1384.24 282.647,1384.24 282.647,1384.24 282.647,1384.24 282.648,1384.24 282.648,1384.24 282.648,1384.24 282.648,1384.24 282.649,1384.24 
  282.649,1384.24 282.649,1384.24 282.65,1384.24 282.65,1384.24 282.65,1384.24 282.65,1384.24 282.651,1384.24 282.651,1384.24 282.651,1384.24 282.652,1384.24 
  282.652,1384.24 282.652,1384.24 282.653,1384.24 282.653,1384.24 282.653,1384.24 282.654,1384.24 282.654,1384.24 282.654,1384.24 282.655,1384.24 282.655,1384.24 
  282.656,1384.24 282.656,1384.24 282.656,1384.24 282.657,1384.24 282.657,1384.24 282.657,1384.24 282.658,1384.24 282.658,1384.24 282.659,1384.24 282.659,1384.24 
  282.659,1384.24 282.66,1384.24 282.66,1384.24 282.661,1384.24 282.661,1384.24 282.662,1384.24 282.662,1384.24 282.663,1384.24 282.663,1384.24 282.664,1384.24 
  282.664,1384.24 282.665,1384.24 282.665,1384.24 282.666,1384.24 282.666,1384.24 282.667,1384.24 282.667,1384.24 282.668,1384.24 282.668,1384.24 282.669,1384.24 
  282.669,1384.24 282.67,1384.24 282.67,1384.24 282.671,1384.24 282.672,1384.24 282.672,1384.24 282.673,1384.24 282.673,1384.24 282.674,1384.24 282.675,1384.24 
  282.675,1384.24 282.676,1384.24 282.677,1384.24 282.677,1384.24 282.678,1384.24 282.679,1384.24 282.679,1384.24 282.68,1384.24 282.681,1384.24 282.681,1384.24 
  282.682,1384.24 282.683,1384.24 282.684,1384.24 282.684,1384.24 282.685,1384.24 282.686,1384.24 282.687,1384.24 282.688,1384.24 282.688,1384.24 282.689,1384.24 
  282.69,1384.24 282.691,1384.24 282.692,1384.24 282.693,1384.24 282.694,1384.24 282.695,1384.24 282.695,1384.24 282.696,1384.24 282.697,1384.24 282.698,1384.24 
  282.699,1384.24 282.7,1384.24 282.701,1384.24 282.702,1384.24 282.703,1384.24 282.704,1384.24 282.705,1384.24 282.706,1384.24 282.708,1384.24 282.709,1384.24 
  282.71,1384.24 282.711,1384.24 282.712,1384.24 282.713,1384.24 282.714,1384.24 282.716,1384.24 282.717,1384.24 282.718,1384.24 282.719,1384.24 282.72,1384.24 
  282.722,1384.24 282.723,1384.24 282.724,1384.24 282.726,1384.24 282.727,1384.24 282.728,1384.24 282.73,1384.24 282.731,1384.24 282.733,1384.24 282.734,1384.24 
  282.736,1384.24 282.737,1384.24 282.739,1384.24 282.74,1384.24 282.742,1384.24 282.743,1384.24 282.745,1384.24 282.746,1384.24 282.748,1384.24 282.75,1384.24 
  282.751,1384.24 282.753,1384.24 282.755,1384.24 282.757,1384.24 282.758,1384.24 282.76,1384.24 282.762,1384.24 282.764,1384.24 282.766,1384.24 282.768,1384.24 
  282.77,1384.24 282.772,1384.24 282.774,1384.24 282.776,1384.24 282.778,1384.24 282.78,1384.24 282.782,1384.24 282.784,1384.24 282.786,1384.24 282.788,1384.24 
  282.791,1384.24 282.793,1384.24 282.795,1384.24 282.797,1384.24 282.8,1384.24 282.802,1384.24 282.805,1384.24 282.807,1384.24 282.809,1384.24 282.812,1384.24 
  282.815,1384.24 282.817,1384.24 282.82,1384.24 282.822,1384.24 282.825,1384.24 282.828,1384.24 282.831,1384.24 282.833,1384.24 282.836,1384.24 282.839,1384.24 
  282.842,1384.24 282.845,1384.24 282.848,1384.24 282.851,1384.24 282.854,1384.24 282.857,1384.24 282.861,1384.24 282.864,1384.24 282.867,1384.24 282.87,1384.24 
  282.874,1384.24 282.877,1384.24 282.881,1384.24 282.884,1384.24 282.888,1384.24 282.891,1384.24 282.895,1384.24 282.899,1384.24 282.902,1384.24 282.906,1384.24 
  282.91,1384.24 282.914,1384.24 282.918,1384.24 282.922,1384.24 282.926,1384.24 282.93,1384.24 282.934,1384.24 282.939,1384.24 282.943,1384.24 282.947,1384.24 
  282.952,1384.24 282.956,1384.24 282.961,1384.24 282.965,1384.24 282.97,1384.24 282.975,1384.24 282.98,1384.24 282.985,1384.24 282.99,1384.24 282.995,1384.24 
  283,1384.24 283.005,1384.24 283.01,1384.24 283.015,1384.24 283.021,1384.24 283.026,1384.24 283.032,1384.24 283.037,1384.24 283.043,1384.24 283.049,1384.24 
  283.055,1384.24 283.061,1384.24 283.067,1384.24 283.073,1384.24 283.079,1384.24 283.085,1384.24 283.092,1384.24 283.098,1384.24 283.105,1384.24 283.111,1384.24 
  283.118,1384.24 283.125,1384.24 283.132,1384.24 283.139,1384.24 283.146,1384.24 283.153,1384.24 283.16,1384.24 283.168,1384.24 283.175,1384.24 283.183,1384.24 
  283.19,1384.24 283.198,1384.24 283.206,1384.24 283.214,1384.24 283.222,1384.24 283.231,1384.24 283.239,1384.24 283.248,1384.24 283.256,1384.24 283.265,1384.24 
  283.274,1384.24 283.283,1384.24 283.292,1384.24 283.301,1384.24 283.31,1384.24 283.32,1384.24 283.33,1384.24 283.339,1384.24 283.349,1384.24 283.359,1384.24 
  283.369,1384.24 283.38,1384.24 283.39,1384.24 283.401,1384.24 283.412,1384.24 283.422,1384.24 283.434,1384.24 283.445,1384.24 283.456,1384.24 283.468,1384.24 
  283.479,1384.24 283.491,1384.24 283.503,1384.24 283.515,1384.24 283.528,1384.24 283.54,1384.24 283.553,1384.24 283.566,1384.24 283.579,1384.24 283.592,1384.24 
  283.605,1384.24 283.619,1384.24 283.633,1384.24 283.647,1384.24 283.661,1384.24 283.675,1384.24 283.69,1384.24 283.705,1384.24 283.72,1384.24 283.735,1384.24 
  283.75,1384.24 283.766,1384.24 283.782,1384.24 283.798,1384.24 283.814,1384.24 283.831,1384.24 283.847,1384.24 283.864,1384.24 283.882,1384.24 283.899,1384.24 
  283.917,1384.24 283.935,1384.24 283.953,1384.24 283.971,1384.24 283.99,1384.24 284.009,1384.24 284.028,1384.24 284.048,1384.24 284.067,1384.24 284.087,1384.24 
  284.108,1384.24 284.128,1384.24 284.149,1384.24 284.17,1384.24 284.192,1384.24 284.214,1384.24 284.236,1384.24 284.258,1384.24 284.281,1384.24 284.304,1384.24 
  284.327,1384.24 284.351,1384.24 284.375,1384.24 284.399,1384.24 284.424,1384.24 284.449,1384.24 284.474,1384.24 284.5,1384.24 284.526,1384.24 284.552,1384.24 
  284.579,1384.24 284.606,1384.24 284.634,1384.24 284.661,1384.24 284.69,1384.24 284.718,1384.24 284.748,1384.24 284.777,1384.24 284.807,1384.24 284.837,1384.24 
  284.868,1384.24 284.899,1384.24 284.931,1384.24 284.963,1384.24 284.995,1384.24 285.028,1384.24 285.062,1384.24 285.096,1384.24 285.13,1384.24 285.165,1384.24 
  285.2,1384.24 285.236,1384.24 285.272,1384.24 285.309,1384.24 285.347,1384.24 285.384,1384.24 285.423,1384.24 285.462,1384.24 285.501,1384.24 285.541,1384.24 
  285.582,1384.24 285.623,1384.24 285.664,1384.24 285.707,1384.24 285.75,1384.24 285.793,1384.24 285.837,1384.24 285.882,1384.24 285.927,1384.24 285.973,1384.24 
  286.02,1384.24 286.067,1384.24 286.115,1384.24 286.163,1384.24 286.212,1384.24 286.262,1384.24 286.313,1384.24 286.364,1384.24 286.416,1384.24 286.469,1384.24 
  286.523,1384.24 286.577,1384.24 286.632,1384.24 286.687,1384.24 286.744,1384.24 286.801,1384.24 286.859,1384.24 286.918,1384.24 286.978,1384.24 287.039,1384.24 
  287.1,1384.24 287.162,1384.24 287.225,1384.24 287.289,1384.24 287.354,1384.24 287.42,1384.24 287.487,1384.24 287.555,1384.24 287.623,1384.24 287.693,1384.24 
  287.763,1384.24 287.835,1384.24 287.907,1384.24 287.981,1384.24 288.055,1384.24 288.131,1384.24 288.207,1384.24 288.285,1384.24 288.364,1384.24 288.444,1384.24 
  288.525,1384.24 288.607,1384.24 288.69,1384.24 288.774,1384.24 288.86,1384.24 288.947,1384.24 289.035,1384.24 289.124,1384.24 289.214,1384.24 289.306,1384.24 
  289.399,1384.24 289.493,1384.24 289.589,1384.24 289.686,1384.24 289.784,1384.24 289.884,1384.24 289.985,1384.24 290.087,1384.24 290.191,1384.24 290.296,1384.24 
  290.403,1384.24 290.512,1384.24 290.621,1384.24 290.733,1384.24 290.845,1384.24 290.96,1384.24 291.076,1384.24 291.194,1384.24 291.313,1384.24 291.434,1384.24 
  291.556,1384.24 291.681,1384.24 291.807,1384.24 291.934,1384.24 292.064,1384.24 292.195,1384.24 292.329,1384.24 292.464,1384.24 292.601,1384.24 292.74,1384.24 
  292.88,1384.24 293.023,1384.24 293.168,1384.24 293.315,1384.24 293.463,1384.24 293.614,1384.24 293.767,1384.24 293.922,1384.24 294.08,1384.24 294.239,1384.24 
  294.401,1384.24 294.565,1384.24 294.731,1384.24 294.9,1384.24 295.07,1384.24 295.244,1384.24 295.419,1384.24 295.597,1384.24 295.778,1384.24 295.961,1384.24 
  296.147,1384.24 296.335,1384.24 296.526,1384.24 296.719,1384.24 296.916,1384.24 297.115,1384.24 297.316,1384.24 297.521,1384.24 297.728,1384.24 297.939,1384.24 
  298.152,1384.24 298.368,1384.24 298.587,1384.24 298.809,1384.24 299.035,1384.24 299.263,1384.24 299.495,1384.24 299.73,1384.24 299.968,1384.24 300.209,1384.24 
  300.454,1384.24 300.702,1384.24 300.954,1384.24 301.209,1384.24 301.468,1384.24 301.73,1384.24 301.996,1384.24 302.266,1384.24 302.539,1384.24 302.817,1384.24 
  303.098,1384.24 303.383,1384.24 303.672,1384.24 303.965,1384.24 304.262,1384.24 304.563,1384.24 304.869,1384.24 305.178,1384.24 305.492,1384.24 305.811,1384.24 
  306.133,1384.24 306.461,1384.24 306.793,1384.24 307.129,1384.24 307.47,1384.24 307.816,1384.24 308.167,1384.24 308.523,1384.24 308.883,1384.24 309.249,1384.24 
  309.62,1384.24 309.995,1384.24 310.376,1384.24 310.763,1384.24 311.155,1384.24 311.552,1384.24 311.955,1384.24 312.363,1384.24 312.777,1384.24 313.197,1384.24 
  313.623,1384.24 314.054,1384.24 314.492,1384.24 314.936,1384.24 315.385,1384.24 315.842,1384.24 316.304,1384.24 316.773,1384.24 317.248,1384.24 317.731,1384.24 
  318.219,1384.24 318.715,1384.24 319.217,1384.24 319.727,1384.24 320.244,1384.24 320.767,1384.24 321.299,1384.24 321.837,1384.24 322.383,1384.24 322.937,1384.24 
  323.498,1384.24 324.067,1384.24 324.644,1384.24 325.229,1384.24 325.822,1384.24 326.424,1384.24 327.034,1384.24 327.652,1384.24 328.279,1384.24 328.915,1384.24 
  329.559,1384.24 330.213,1384.24 330.875,1384.24 331.547,1384.24 332.229,1384.24 332.919,1384.24 333.62,1384.24 334.33,1384.24 335.05,1384.24 335.78,1384.24 
  336.52,1384.24 337.27,1384.24 338.031,1384.24 338.803,1384.24 339.585,1384.24 340.378,1384.24 341.182,1384.24 341.998,1384.24 342.824,1384.24 343.662,1384.24 
  344.512,1384.23 345.374,1384.23 346.248,1384.23 347.134,1384.23 348.032,1384.23 348.943,1384.22 349.866,1384.22 350.803,1384.21 351.752,1384.21 352.715,1384.2 
  353.691,1384.19 354.68,1384.17 355.683,1384.15 356.701,1384.13 357.732,1384.1 358.778,1384.07 359.838,1384.03 360.914,1383.97 362.004,1383.91 363.109,1383.83 
  364.23,1383.74 365.366,1383.63 366.518,1383.5 367.687,1383.34 368.871,1383.15 370.072,1382.93 371.29,1382.66 372.524,1382.35 373.776,1381.99 375.045,1381.56 
  376.332,1381.06 377.637,1380.49 378.96,1379.82 380.302,1379.05 381.662,1378.17 383.041,1377.16 384.439,1376.01 385.857,1374.7 387.294,1373.21 388.752,1371.52 
  390.23,1369.62 391.728,1367.49 393.247,1365.1 394.788,1362.43 396.35,1359.45 397.933,1356.14 399.539,1352.48 401.167,1348.43 402.818,1343.97 404.491,1339.07 
  406.188,1333.7 407.909,1327.84 409.654,1321.45 411.422,1314.51 413.216,1306.98 415.034,1298.85 416.878,1290.07 418.748,1280.63 420.643,1270.51 422.565,1259.67 
  424.514,1248.09 426.49,1235.77 428.493,1222.67 430.524,1208.79 432.584,1194.12 434.672,1178.64 436.789,1162.35 438.936,1145.24 441.112,1127.33 443.319,1108.6 
  445.557,1089.08 447.826,1068.77 450.126,1047.69 452.459,1025.86 454.824,1003.3 457.222,980.053 459.653,956.137 462.118,931.593 464.618,906.462 467.152,880.786 
  469.721,854.614 472.327,827.996 474.968,800.986 477.647,773.641 480.362,746.02 483.116,718.185 485.908,690.2 488.739,662.132 491.609,634.046 494.519,606.012 
  497.47,578.098 500.461,550.374 503.495,522.91 506.57,495.776 509.689,469.04 512.851,442.77 516.057,417.033 519.307,391.894 522.603,367.416 525.945,343.662 
  529.333,320.688 532.769,298.552 536.252,277.307 539.784,257.002 543.365,237.684 546.996,219.396 550.677,202.177 554.41,186.064 558.194,171.088 562.032,157.277 
  565.922,144.655 569.867,133.24 573.867,123.051 577.923,114.096 582.035,106.386 586.204,99.9227 590.432,94.7068 594.718,90.7344 599.064,87.9979 603.471,86.4865 
  607.938,86.1857 612.468,87.0779 617.062,89.1426 621.719,92.3561 626.441,96.6923 631.228,102.122 636.083,108.615 641.005,116.138 645.995,124.656 651.055,134.131 
  656.186,144.525 661.388,155.8 666.662,167.913 672.01,180.824 677.432,194.49 682.93,208.868 688.504,223.914 694.156,239.585 699.887,255.837 705.698,272.626 
  711.589,289.91 717.563,307.646 723.619,325.79 729.76,344.302 735.987,363.139 742.3,382.263 748.701,401.633 755.191,421.212 761.772,440.962 768.444,460.847 
  775.209,480.833 782.069,500.887 789.023,520.975 796.075,541.068 803.225,561.135 810.475,581.15 817.825,601.084 825.278,620.914 832.835,640.615 840.496,660.164 
  848.265,679.541 856.142,698.726 864.128,717.701 872.226,736.449 880.436,754.955 888.761,773.203 897.201,791.181 905.76,808.877 914.437,826.28 923.235,843.381 
  932.156,860.171 941.201,876.643 950.372,892.791 959.67,908.608 969.098,924.091 978.658,939.236 988.35,954.04 998.178,968.501 1008.14,982.618 1018.25,996.39 
  1028.49,1009.82 1038.88,1022.9 1049.41,1035.64 1060.08,1048.04 1070.91,1060.11 1081.89,1071.83 1093.02,1083.23 1104.3,1094.3 1115.74,1105.04 1127.35,1115.46 
  1139.11,1125.57 1151.04,1135.37 1163.13,1144.86 1175.39,1154.05 1187.82,1162.95 1200.43,1171.56 1213.21,1179.89 1226.17,1187.94 1239.31,1195.72 1252.63,1203.24 
  1266.14,1210.49 1279.83,1217.5 1293.72,1224.26 1307.8,1230.78 1322.07,1237.07 1336.55,1243.13 1351.22,1248.97 1366.11,1254.6 1381.19,1260.02 1396.49,1265.23 
  1412,1270.25 1427.73,1275.08 1443.68,1279.73 1459.84,1284.19 1476.24,1288.49 1492.86,1292.61 1509.71,1296.58 1526.8,1300.39 1544.12,1304.04 1561.69,1307.55 
  1579.5,1310.92 1597.56,1314.15 1615.87,1317.25 1634.44,1320.23 1653.26,1323.08 1672.35,1325.81 1691.7,1328.43 1711.32,1330.94 1731.22,1333.35 1751.39,1335.65 
  1771.84,1337.85 1792.58,1339.97 1813.61,1341.99 1834.93,1343.92 1856.55,1345.77 1878.46,1347.54 1900.69,1349.24 1923.22,1350.86 1946.06,1352.41 1969.23,1353.89 
  1992.71,1355.3 2016.53,1356.65 2040.67,1357.95 2065.15,1359.18 2089.98,1360.36 2115.14,1361.49 2140.66,1362.56 2166.54,1363.59 2192.77,1364.57 2219.37,1365.5 
  2246.34,1366.4 2273.69,1367.25 2301.41,1368.06 2329.53,1368.84 2358.03,1369.58 2386.93,1370.28 2416.23,1370.95 2445.94,1371.6 2476.07,1372.21 2506.61,1372.79 
  2537.58,1373.35 2568.98,1373.88 2600.82,1374.38 2633.11,1374.86 2665.84,1375.32 2699.02,1375.76 2732.67,1376.17 2766.79,1376.57 2801.38,1376.94 2836.46,1377.3 
  2872.02,1377.65 2908.08,1377.97 2944.64,1378.28 2981.71,1378.58 3019.3,1378.86 3057.4,1379.12 3096.04,1379.38 3135.22,1379.62 3174.95,1379.85 3215.22,1380.07 
  3256.06,1380.28 3297.47,1380.47 3339.45,1380.66 3382.02,1380.84 3425.18,1381.01 3468.94,1381.17 3513.31,1381.33 3558.3,1381.47 3603.91,1381.61 3650.16,1381.75 
  3697.06,1381.87 3744.6,1381.99 3792.81,1382.1 3841.7,1382.21 3891.26,1382.32 3941.51,1382.41 3992.46,1382.51 4044.12,1382.59 4096.5,1382.68 4149.61,1382.76 
  4203.46,1382.83 4258.06,1382.9 4313.42,1382.97 4369.55,1383.04 4426.46,1383.1 4484.17,1383.16 4542.67,1383.21 4602,1383.26 4662.15,1383.31 4723.13,1383.36 
  4784.97,1383.41 4847.66,1383.45 4911.23,1383.49 4975.69,1383.53 5041.04,1383.56 5107.31,1383.6 5174.49,1383.63 5242.61,1383.66 5311.68,1383.69 5381.71,1383.72 
  5452.72,1383.75 5524.72,1383.77 5597.71,1383.8 5671.73,1383.82 5746.77,1383.84 5822.86,1383.86 5900.01,1383.88 5978.24,1383.9 6057.55,1383.92 6137.97,1383.93 
  6219.51,1383.95 6302.18,1383.97 6386.01,1383.98 6471,1383.99 6557.18,1384.01 6644.55,1384.02 6733.14,1384.03 6822.97,1384.04 6914.05,1384.05 7006.39,1384.06 
  7100.02,1384.07 7194.96,1384.08 7291.21,1384.09 7388.81,1384.09 7487.77,1384.1 7588.1,1384.11 7689.83,1384.12 7792.98,1384.12 7897.57,1384.13 8003.61,1384.13 
  8111.13,1384.14 8220.14,1384.14 8330.67,1384.15 8442.75,1384.15 8556.38,1384.16 8671.6,1384.16 8788.41,1384.17 8906.86,1384.17 9026.96,1384.17 9148.73,1384.18 
  9272.19,1384.18 9397.37,1384.18 9524.3,1384.19 9652.99,1384.19 9783.48,1384.19 9915.78,1384.19 10049.9,1384.2 10185.9,1384.2 10323.8,1384.2 10463.7,1384.2 
  10605.5,1384.2 10749.2,1384.21 10895,1384.21 11042.7,1384.21 11192.6,1384.21 11344.5,1384.21 11498.5,1384.21 11654.7,1384.22 11813.1,1384.22 11973.7,1384.22 
  12136.5,1384.22 12301.5,1384.22 12468.9,1384.22 12638.6,1384.22 12810.7,1384.22 12985.1,1384.22 13162,1384.22 13341.3,1384.22 13523.2,1384.23 13707.6,1384.23 
  
  "/>
<path clip-path="url(#clip290)" d="
M1872.23 214.069 L2286.35 214.069 L2286.35 93.1086 L1872.23 93.1086  Z
  " fill="#ffffff" fill-rule="evenodd" fill-opacity="1"/>
<polyline clip-path="url(#clip290)" style="stroke:#000000; stroke-linecap:butt; stroke-linejoin:round; stroke-width:4; stroke-opacity:1; fill:none" points="
  1872.23,214.069 2286.35,214.069 2286.35,93.1086 1872.23,93.1086 1872.23,214.069 
  "/>
<polyline clip-path="url(#clip290)" style="stroke:#000000; stroke-linecap:butt; stroke-linejoin:round; stroke-width:4; stroke-opacity:1; fill:none" points="
  1894.37,153.589 2027.18,153.589 
  "/>
<path clip-path="url(#clip290)" d="M2049.99 166.933 L2057.63 166.933 L2057.63 140.568 L2049.32 142.235 L2049.32 137.975 L2057.58 136.309 L2062.26 136.309 L2062.26 166.933 L2069.9 166.933 L2069.9 170.869 L2049.99 170.869 L2049.99 166.933 Z" fill="#000000" fill-rule="evenodd" fill-opacity="1" /><path clip-path="url(#clip290)" d="M2083.37 166.933 L2099.69 166.933 L2099.69 170.869 L2077.75 170.869 L2077.75 166.933 Q2080.41 164.179 2084.99 159.549 Q2089.6 154.896 2090.78 153.554 Q2093.02 151.031 2093.9 149.295 Q2094.81 147.535 2094.81 145.846 Q2094.81 143.091 2092.86 141.355 Q2090.94 139.619 2087.84 139.619 Q2085.64 139.619 2083.19 140.383 Q2080.76 141.147 2077.98 142.697 L2077.98 137.975 Q2080.8 136.841 2083.26 136.262 Q2085.71 135.684 2087.75 135.684 Q2093.12 135.684 2096.31 138.369 Q2099.51 141.054 2099.51 145.545 Q2099.51 147.674 2098.7 149.596 Q2097.91 151.494 2095.8 154.086 Q2095.22 154.758 2092.12 157.975 Q2089.02 161.17 2083.37 166.933 Z" fill="#000000" fill-rule="evenodd" fill-opacity="1" /><path clip-path="url(#clip290)" d="M2119.51 139.387 Q2115.89 139.387 2114.07 142.952 Q2112.26 146.494 2112.26 153.623 Q2112.26 160.73 2114.07 164.295 Q2115.89 167.836 2119.51 167.836 Q2123.14 167.836 2124.95 164.295 Q2126.77 160.73 2126.77 153.623 Q2126.77 146.494 2124.95 142.952 Q2123.14 139.387 2119.51 139.387 M2119.51 135.684 Q2125.32 135.684 2128.37 140.29 Q2131.45 144.873 2131.45 153.623 Q2131.45 162.35 2128.37 166.957 Q2125.32 171.54 2119.51 171.54 Q2113.7 171.54 2110.62 166.957 Q2107.56 162.35 2107.56 153.623 Q2107.56 144.873 2110.62 140.29 Q2113.7 135.684 2119.51 135.684 Z" fill="#000000" fill-rule="evenodd" fill-opacity="1" /><path clip-path="url(#clip290)" d="M2149.67 139.387 Q2146.06 139.387 2144.23 142.952 Q2142.42 146.494 2142.42 153.623 Q2142.42 160.73 2144.23 164.295 Q2146.06 167.836 2149.67 167.836 Q2153.3 167.836 2155.11 164.295 Q2156.94 160.73 2156.94 153.623 Q2156.94 146.494 2155.11 142.952 Q2153.3 139.387 2149.67 139.387 M2149.67 135.684 Q2155.48 135.684 2158.53 140.29 Q2161.61 144.873 2161.61 153.623 Q2161.61 162.35 2158.53 166.957 Q2155.48 171.54 2149.67 171.54 Q2143.86 171.54 2140.78 166.957 Q2137.72 162.35 2137.72 153.623 Q2137.72 144.873 2140.78 140.29 Q2143.86 135.684 2149.67 135.684 Z" fill="#000000" fill-rule="evenodd" fill-opacity="1" /><path clip-path="url(#clip290)" d="M2179.83 139.387 Q2176.22 139.387 2174.39 142.952 Q2172.58 146.494 2172.58 153.623 Q2172.58 160.73 2174.39 164.295 Q2176.22 167.836 2179.83 167.836 Q2183.46 167.836 2185.27 164.295 Q2187.1 160.73 2187.1 153.623 Q2187.1 146.494 2185.27 142.952 Q2183.46 139.387 2179.83 139.387 M2179.83 135.684 Q2185.64 135.684 2188.7 140.29 Q2191.77 144.873 2191.77 153.623 Q2191.77 162.35 2188.7 166.957 Q2185.64 171.54 2179.83 171.54 Q2174.02 171.54 2170.94 166.957 Q2167.89 162.35 2167.89 153.623 Q2167.89 144.873 2170.94 140.29 Q2174.02 135.684 2179.83 135.684 Z" fill="#000000" fill-rule="evenodd" fill-opacity="1" /><path clip-path="url(#clip290)" d="M2214.64 136.309 L2219.32 136.309 L2219.32 150.915 L2234.83 136.309 L2240.85 136.309 L2223.7 152.42 L2242.07 170.869 L2235.92 170.869 L2219.32 154.225 L2219.32 170.869 L2214.64 170.869 L2214.64 136.309 Z" fill="#000000" fill-rule="evenodd" fill-opacity="1" /></svg>
