<?xml version="1.0" encoding="utf-8"?>
<svg xmlns="http://www.w3.org/2000/svg" xmlns:xlink="http://www.w3.org/1999/xlink" width="600" height="400" viewBox="0 0 2400 1600">
<defs>
  <clipPath id="clip230">
    <rect x="0" y="0" width="2400" height="1600"/>
  </clipPath>
</defs>
<path clip-path="url(#clip230)" d="
M0 1600 L2400 1600 L2400 0 L0 0  Z
  " fill="#ffffff" fill-rule="evenodd" fill-opacity="1"/>
<defs>
  <clipPath id="clip231">
    <rect x="480" y="0" width="1681" height="1600"/>
  </clipPath>
</defs>
<path clip-path="url(#clip230)" d="
M360.004 1423.18 L2352.76 1423.18 L2352.76 47.2441 L360.004 47.2441  Z
  " fill="#ffffff" fill-rule="evenodd" fill-opacity="1"/>
<defs>
  <clipPath id="clip232">
    <rect x="360" y="47" width="1994" height="1377"/>
  </clipPath>
</defs>
<polyline clip-path="url(#clip232)" style="stroke:#000000; stroke-linecap:butt; stroke-linejoin:round; stroke-width:2; stroke-opacity:0.1; fill:none" points="
  550.685,1423.18 550.685,47.2441 
  "/>
<polyline clip-path="url(#clip232)" style="stroke:#000000; stroke-linecap:butt; stroke-linejoin:round; stroke-width:2; stroke-opacity:0.1; fill:none" points="
  819.25,1423.18 819.25,47.2441 
  "/>
<polyline clip-path="url(#clip232)" style="stroke:#000000; stroke-linecap:butt; stroke-linejoin:round; stroke-width:2; stroke-opacity:0.1; fill:none" points="
  1087.82,1423.18 1087.82,47.2441 
  "/>
<polyline clip-path="url(#clip232)" style="stroke:#000000; stroke-linecap:butt; stroke-linejoin:round; stroke-width:2; stroke-opacity:0.1; fill:none" points="
  1356.38,1423.18 1356.38,47.2441 
  "/>
<polyline clip-path="url(#clip232)" style="stroke:#000000; stroke-linecap:butt; stroke-linejoin:round; stroke-width:2; stroke-opacity:0.1; fill:none" points="
  1624.95,1423.18 1624.95,47.2441 
  "/>
<polyline clip-path="url(#clip232)" style="stroke:#000000; stroke-linecap:butt; stroke-linejoin:round; stroke-width:2; stroke-opacity:0.1; fill:none" points="
  1893.51,1423.18 1893.51,47.2441 
  "/>
<polyline clip-path="url(#clip232)" style="stroke:#000000; stroke-linecap:butt; stroke-linejoin:round; stroke-width:2; stroke-opacity:0.1; fill:none" points="
  2162.07,1423.18 2162.07,47.2441 
  "/>
<polyline clip-path="url(#clip230)" style="stroke:#000000; stroke-linecap:butt; stroke-linejoin:round; stroke-width:4; stroke-opacity:1; fill:none" points="
  360.004,1423.18 2352.76,1423.18 
  "/>
<polyline clip-path="url(#clip230)" style="stroke:#000000; stroke-linecap:butt; stroke-linejoin:round; stroke-width:4; stroke-opacity:1; fill:none" points="
  550.685,1423.18 550.685,1406.67 
  "/>
<polyline clip-path="url(#clip230)" style="stroke:#000000; stroke-linecap:butt; stroke-linejoin:round; stroke-width:4; stroke-opacity:1; fill:none" points="
  819.25,1423.18 819.25,1406.67 
  "/>
<polyline clip-path="url(#clip230)" style="stroke:#000000; stroke-linecap:butt; stroke-linejoin:round; stroke-width:4; stroke-opacity:1; fill:none" points="
  1087.82,1423.18 1087.82,1406.67 
  "/>
<polyline clip-path="url(#clip230)" style="stroke:#000000; stroke-linecap:butt; stroke-linejoin:round; stroke-width:4; stroke-opacity:1; fill:none" points="
  1356.38,1423.18 1356.38,1406.67 
  "/>
<polyline clip-path="url(#clip230)" style="stroke:#000000; stroke-linecap:butt; stroke-linejoin:round; stroke-width:4; stroke-opacity:1; fill:none" points="
  1624.95,1423.18 1624.95,1406.67 
  "/>
<polyline clip-path="url(#clip230)" style="stroke:#000000; stroke-linecap:butt; stroke-linejoin:round; stroke-width:4; stroke-opacity:1; fill:none" points="
  1893.51,1423.18 1893.51,1406.67 
  "/>
<polyline clip-path="url(#clip230)" style="stroke:#000000; stroke-linecap:butt; stroke-linejoin:round; stroke-width:4; stroke-opacity:1; fill:none" points="
  2162.07,1423.18 2162.07,1406.67 
  "/>
<path clip-path="url(#clip230)" d="M514.378 1479.92 L530.697 1479.92 L530.697 1483.85 L508.753 1483.85 L508.753 1479.92 Q511.415 1477.16 515.998 1472.53 Q520.605 1467.88 521.785 1466.54 Q524.031 1464.01 524.91 1462.28 Q525.813 1460.52 525.813 1458.83 Q525.813 1456.07 523.868 1454.34 Q521.947 1452.6 518.845 1452.6 Q516.646 1452.6 514.193 1453.37 Q511.762 1454.13 508.984 1455.68 L508.984 1450.96 Q511.808 1449.82 514.262 1449.25 Q516.716 1448.67 518.753 1448.67 Q524.123 1448.67 527.318 1451.35 Q530.512 1454.04 530.512 1458.53 Q530.512 1460.66 529.702 1462.58 Q528.915 1464.48 526.808 1467.07 Q526.23 1467.74 523.128 1470.96 Q520.026 1474.15 514.378 1479.92 Z" fill="#000000" fill-rule="evenodd" fill-opacity="1" /><path clip-path="url(#clip230)" d="M550.512 1452.37 Q546.901 1452.37 545.072 1455.94 Q543.267 1459.48 543.267 1466.61 Q543.267 1473.71 545.072 1477.28 Q546.901 1480.82 550.512 1480.82 Q554.146 1480.82 555.952 1477.28 Q557.78 1473.71 557.78 1466.61 Q557.78 1459.48 555.952 1455.94 Q554.146 1452.37 550.512 1452.37 M550.512 1448.67 Q556.322 1448.67 559.378 1453.27 Q562.456 1457.86 562.456 1466.61 Q562.456 1475.33 559.378 1479.94 Q556.322 1484.52 550.512 1484.52 Q544.702 1484.52 541.623 1479.94 Q538.567 1475.33 538.567 1466.61 Q538.567 1457.86 541.623 1453.27 Q544.702 1448.67 550.512 1448.67 Z" fill="#000000" fill-rule="evenodd" fill-opacity="1" /><path clip-path="url(#clip230)" d="M580.674 1452.37 Q577.063 1452.37 575.234 1455.94 Q573.428 1459.48 573.428 1466.61 Q573.428 1473.71 575.234 1477.28 Q577.063 1480.82 580.674 1480.82 Q584.308 1480.82 586.114 1477.28 Q587.942 1473.71 587.942 1466.61 Q587.942 1459.48 586.114 1455.94 Q584.308 1452.37 580.674 1452.37 M580.674 1448.67 Q586.484 1448.67 589.539 1453.27 Q592.618 1457.86 592.618 1466.61 Q592.618 1475.33 589.539 1479.94 Q586.484 1484.52 580.674 1484.52 Q574.864 1484.52 571.785 1479.94 Q568.729 1475.33 568.729 1466.61 Q568.729 1457.86 571.785 1453.27 Q574.864 1448.67 580.674 1448.67 Z" fill="#000000" fill-rule="evenodd" fill-opacity="1" /><path clip-path="url(#clip230)" d="M792.341 1453.37 L780.535 1471.81 L792.341 1471.81 L792.341 1453.37 M791.114 1449.29 L796.994 1449.29 L796.994 1471.81 L801.924 1471.81 L801.924 1475.7 L796.994 1475.7 L796.994 1483.85 L792.341 1483.85 L792.341 1475.7 L776.739 1475.7 L776.739 1471.19 L791.114 1449.29 Z" fill="#000000" fill-rule="evenodd" fill-opacity="1" /><path clip-path="url(#clip230)" d="M819.655 1452.37 Q816.044 1452.37 814.216 1455.94 Q812.41 1459.48 812.41 1466.61 Q812.41 1473.71 814.216 1477.28 Q816.044 1480.82 819.655 1480.82 Q823.29 1480.82 825.095 1477.28 Q826.924 1473.71 826.924 1466.61 Q826.924 1459.48 825.095 1455.94 Q823.29 1452.37 819.655 1452.37 M819.655 1448.67 Q825.466 1448.67 828.521 1453.27 Q831.6 1457.86 831.6 1466.61 Q831.6 1475.33 828.521 1479.94 Q825.466 1484.52 819.655 1484.52 Q813.845 1484.52 810.767 1479.94 Q807.711 1475.33 807.711 1466.61 Q807.711 1457.86 810.767 1453.27 Q813.845 1448.67 819.655 1448.67 Z" fill="#000000" fill-rule="evenodd" fill-opacity="1" /><path clip-path="url(#clip230)" d="M849.817 1452.37 Q846.206 1452.37 844.378 1455.94 Q842.572 1459.48 842.572 1466.61 Q842.572 1473.71 844.378 1477.28 Q846.206 1480.82 849.817 1480.82 Q853.452 1480.82 855.257 1477.28 Q857.086 1473.71 857.086 1466.61 Q857.086 1459.48 855.257 1455.94 Q853.452 1452.37 849.817 1452.37 M849.817 1448.67 Q855.627 1448.67 858.683 1453.27 Q861.762 1457.86 861.762 1466.61 Q861.762 1475.33 858.683 1479.94 Q855.627 1484.52 849.817 1484.52 Q844.007 1484.52 840.928 1479.94 Q837.873 1475.33 837.873 1466.61 Q837.873 1457.86 840.928 1453.27 Q844.007 1448.67 849.817 1448.67 Z" fill="#000000" fill-rule="evenodd" fill-opacity="1" /><path clip-path="url(#clip230)" d="M1058.14 1464.71 Q1054.99 1464.71 1053.14 1466.86 Q1051.31 1469.01 1051.31 1472.76 Q1051.31 1476.49 1053.14 1478.67 Q1054.99 1480.82 1058.14 1480.82 Q1061.29 1480.82 1063.12 1478.67 Q1064.97 1476.49 1064.97 1472.76 Q1064.97 1469.01 1063.12 1466.86 Q1061.29 1464.71 1058.14 1464.71 M1067.42 1450.06 L1067.42 1454.31 Q1065.66 1453.48 1063.86 1453.04 Q1062.07 1452.6 1060.32 1452.6 Q1055.69 1452.6 1053.23 1455.73 Q1050.8 1458.85 1050.45 1465.17 Q1051.82 1463.16 1053.88 1462.09 Q1055.94 1461 1058.42 1461 Q1063.63 1461 1066.63 1464.18 Q1069.67 1467.32 1069.67 1472.76 Q1069.67 1478.09 1066.52 1481.31 Q1063.37 1484.52 1058.14 1484.52 Q1052.14 1484.52 1048.97 1479.94 Q1045.8 1475.33 1045.8 1466.61 Q1045.8 1458.41 1049.69 1453.55 Q1053.58 1448.67 1060.13 1448.67 Q1061.89 1448.67 1063.67 1449.01 Q1065.48 1449.36 1067.42 1450.06 Z" fill="#000000" fill-rule="evenodd" fill-opacity="1" /><path clip-path="url(#clip230)" d="M1087.72 1452.37 Q1084.11 1452.37 1082.28 1455.94 Q1080.48 1459.48 1080.48 1466.61 Q1080.48 1473.71 1082.28 1477.28 Q1084.11 1480.82 1087.72 1480.82 Q1091.36 1480.82 1093.16 1477.28 Q1094.99 1473.71 1094.99 1466.61 Q1094.99 1459.48 1093.16 1455.94 Q1091.36 1452.37 1087.72 1452.37 M1087.72 1448.67 Q1093.53 1448.67 1096.59 1453.27 Q1099.67 1457.86 1099.67 1466.61 Q1099.67 1475.33 1096.59 1479.94 Q1093.53 1484.52 1087.72 1484.52 Q1081.91 1484.52 1078.83 1479.94 Q1075.78 1475.33 1075.78 1466.61 Q1075.78 1457.86 1078.83 1453.27 Q1081.91 1448.67 1087.72 1448.67 Z" fill="#000000" fill-rule="evenodd" fill-opacity="1" /><path clip-path="url(#clip230)" d="M1117.88 1452.37 Q1114.27 1452.37 1112.44 1455.94 Q1110.64 1459.48 1110.64 1466.61 Q1110.64 1473.71 1112.44 1477.28 Q1114.27 1480.82 1117.88 1480.82 Q1121.52 1480.82 1123.32 1477.28 Q1125.15 1473.71 1125.15 1466.61 Q1125.15 1459.48 1123.32 1455.94 Q1121.52 1452.37 1117.88 1452.37 M1117.88 1448.67 Q1123.69 1448.67 1126.75 1453.27 Q1129.83 1457.86 1129.83 1466.61 Q1129.83 1475.33 1126.75 1479.94 Q1123.69 1484.52 1117.88 1484.52 Q1112.07 1484.52 1109 1479.94 Q1105.94 1475.33 1105.94 1466.61 Q1105.94 1457.86 1109 1453.27 Q1112.07 1448.67 1117.88 1448.67 Z" fill="#000000" fill-rule="evenodd" fill-opacity="1" /><path clip-path="url(#clip230)" d="M1326.17 1467.44 Q1322.84 1467.44 1320.92 1469.22 Q1319.02 1471 1319.02 1474.13 Q1319.02 1477.25 1320.92 1479.04 Q1322.84 1480.82 1326.17 1480.82 Q1329.51 1480.82 1331.43 1479.04 Q1333.35 1477.23 1333.35 1474.13 Q1333.35 1471 1331.43 1469.22 Q1329.53 1467.44 1326.17 1467.44 M1321.5 1465.45 Q1318.49 1464.71 1316.8 1462.65 Q1315.13 1460.59 1315.13 1457.63 Q1315.13 1453.48 1318.07 1451.07 Q1321.03 1448.67 1326.17 1448.67 Q1331.33 1448.67 1334.27 1451.07 Q1337.21 1453.48 1337.21 1457.63 Q1337.21 1460.59 1335.52 1462.65 Q1333.86 1464.71 1330.87 1465.45 Q1334.25 1466.24 1336.13 1468.53 Q1338.02 1470.82 1338.02 1474.13 Q1338.02 1479.15 1334.95 1481.84 Q1331.89 1484.52 1326.17 1484.52 Q1320.45 1484.52 1317.38 1481.84 Q1314.32 1479.15 1314.32 1474.13 Q1314.32 1470.82 1316.22 1468.53 Q1318.12 1466.24 1321.5 1465.45 M1319.78 1458.06 Q1319.78 1460.75 1321.45 1462.25 Q1323.14 1463.76 1326.17 1463.76 Q1329.18 1463.76 1330.87 1462.25 Q1332.58 1460.75 1332.58 1458.06 Q1332.58 1455.38 1330.87 1453.88 Q1329.18 1452.37 1326.17 1452.37 Q1323.14 1452.37 1321.45 1453.88 Q1319.78 1455.38 1319.78 1458.06 Z" fill="#000000" fill-rule="evenodd" fill-opacity="1" /><path clip-path="url(#clip230)" d="M1356.33 1452.37 Q1352.72 1452.37 1350.89 1455.94 Q1349.09 1459.48 1349.09 1466.61 Q1349.09 1473.71 1350.89 1477.28 Q1352.72 1480.82 1356.33 1480.82 Q1359.97 1480.82 1361.77 1477.28 Q1363.6 1473.71 1363.6 1466.61 Q1363.6 1459.48 1361.77 1455.94 Q1359.97 1452.37 1356.33 1452.37 M1356.33 1448.67 Q1362.14 1448.67 1365.2 1453.27 Q1368.28 1457.86 1368.28 1466.61 Q1368.28 1475.33 1365.2 1479.94 Q1362.14 1484.52 1356.33 1484.52 Q1350.52 1484.52 1347.45 1479.94 Q1344.39 1475.33 1344.39 1466.61 Q1344.39 1457.86 1347.45 1453.27 Q1350.52 1448.67 1356.33 1448.67 Z" fill="#000000" fill-rule="evenodd" fill-opacity="1" /><path clip-path="url(#clip230)" d="M1386.5 1452.37 Q1382.88 1452.37 1381.06 1455.94 Q1379.25 1459.48 1379.25 1466.61 Q1379.25 1473.71 1381.06 1477.28 Q1382.88 1480.82 1386.5 1480.82 Q1390.13 1480.82 1391.94 1477.28 Q1393.76 1473.71 1393.76 1466.61 Q1393.76 1459.48 1391.94 1455.94 Q1390.13 1452.37 1386.5 1452.37 M1386.5 1448.67 Q1392.31 1448.67 1395.36 1453.27 Q1398.44 1457.86 1398.44 1466.61 Q1398.44 1475.33 1395.36 1479.94 Q1392.31 1484.52 1386.5 1484.52 Q1380.69 1484.52 1377.61 1479.94 Q1374.55 1475.33 1374.55 1466.61 Q1374.55 1457.86 1377.61 1453.27 Q1380.69 1448.67 1386.5 1448.67 Z" fill="#000000" fill-rule="evenodd" fill-opacity="1" /><path clip-path="url(#clip230)" d="M1569.47 1479.92 L1577.11 1479.92 L1577.11 1453.55 L1568.8 1455.22 L1568.8 1450.96 L1577.06 1449.29 L1581.74 1449.29 L1581.74 1479.92 L1589.38 1479.92 L1589.38 1483.85 L1569.47 1483.85 L1569.47 1479.92 Z" fill="#000000" fill-rule="evenodd" fill-opacity="1" /><path clip-path="url(#clip230)" d="M1608.82 1452.37 Q1605.21 1452.37 1603.38 1455.94 Q1601.58 1459.48 1601.58 1466.61 Q1601.58 1473.71 1603.38 1477.28 Q1605.21 1480.82 1608.82 1480.82 Q1612.46 1480.82 1614.26 1477.28 Q1616.09 1473.71 1616.09 1466.61 Q1616.09 1459.48 1614.26 1455.94 Q1612.46 1452.37 1608.82 1452.37 M1608.82 1448.67 Q1614.63 1448.67 1617.69 1453.27 Q1620.77 1457.86 1620.77 1466.61 Q1620.77 1475.33 1617.69 1479.94 Q1614.63 1484.52 1608.82 1484.52 Q1603.01 1484.52 1599.93 1479.94 Q1596.88 1475.33 1596.88 1466.61 Q1596.88 1457.86 1599.93 1453.27 Q1603.01 1448.67 1608.82 1448.67 Z" fill="#000000" fill-rule="evenodd" fill-opacity="1" /><path clip-path="url(#clip230)" d="M1638.98 1452.37 Q1635.37 1452.37 1633.54 1455.94 Q1631.74 1459.48 1631.74 1466.61 Q1631.74 1473.71 1633.54 1477.28 Q1635.37 1480.82 1638.98 1480.82 Q1642.62 1480.82 1644.42 1477.28 Q1646.25 1473.71 1646.25 1466.61 Q1646.25 1459.48 1644.42 1455.94 Q1642.62 1452.37 1638.98 1452.37 M1638.98 1448.67 Q1644.79 1448.67 1647.85 1453.27 Q1650.93 1457.86 1650.93 1466.61 Q1650.93 1475.33 1647.85 1479.94 Q1644.79 1484.52 1638.98 1484.52 Q1633.17 1484.52 1630.1 1479.94 Q1627.04 1475.33 1627.04 1466.61 Q1627.04 1457.86 1630.1 1453.27 Q1633.17 1448.67 1638.98 1448.67 Z" fill="#000000" fill-rule="evenodd" fill-opacity="1" /><path clip-path="url(#clip230)" d="M1669.15 1452.37 Q1665.54 1452.37 1663.71 1455.94 Q1661.9 1459.48 1661.9 1466.61 Q1661.9 1473.71 1663.71 1477.28 Q1665.54 1480.82 1669.15 1480.82 Q1672.78 1480.82 1674.59 1477.28 Q1676.41 1473.71 1676.41 1466.61 Q1676.41 1459.48 1674.59 1455.94 Q1672.78 1452.37 1669.15 1452.37 M1669.15 1448.67 Q1674.96 1448.67 1678.01 1453.27 Q1681.09 1457.86 1681.09 1466.61 Q1681.09 1475.33 1678.01 1479.94 Q1674.96 1484.52 1669.15 1484.52 Q1663.34 1484.52 1660.26 1479.94 Q1657.2 1475.33 1657.2 1466.61 Q1657.2 1457.86 1660.26 1453.27 Q1663.34 1448.67 1669.15 1448.67 Z" fill="#000000" fill-rule="evenodd" fill-opacity="1" /><path clip-path="url(#clip230)" d="M1838.04 1479.92 L1845.67 1479.92 L1845.67 1453.55 L1837.36 1455.22 L1837.36 1450.96 L1845.63 1449.29 L1850.3 1449.29 L1850.3 1479.92 L1857.94 1479.92 L1857.94 1483.85 L1838.04 1483.85 L1838.04 1479.92 Z" fill="#000000" fill-rule="evenodd" fill-opacity="1" /><path clip-path="url(#clip230)" d="M1871.42 1479.92 L1887.73 1479.92 L1887.73 1483.85 L1865.79 1483.85 L1865.79 1479.92 Q1868.45 1477.16 1873.04 1472.53 Q1877.64 1467.88 1878.82 1466.54 Q1881.07 1464.01 1881.95 1462.28 Q1882.85 1460.52 1882.85 1458.83 Q1882.85 1456.07 1880.91 1454.34 Q1878.98 1452.6 1875.88 1452.6 Q1873.68 1452.6 1871.23 1453.37 Q1868.8 1454.13 1866.02 1455.68 L1866.02 1450.96 Q1868.85 1449.82 1871.3 1449.25 Q1873.75 1448.67 1875.79 1448.67 Q1881.16 1448.67 1884.35 1451.35 Q1887.55 1454.04 1887.55 1458.53 Q1887.55 1460.66 1886.74 1462.58 Q1885.95 1464.48 1883.85 1467.07 Q1883.27 1467.74 1880.17 1470.96 Q1877.06 1474.15 1871.42 1479.92 Z" fill="#000000" fill-rule="evenodd" fill-opacity="1" /><path clip-path="url(#clip230)" d="M1907.55 1452.37 Q1903.94 1452.37 1902.11 1455.94 Q1900.3 1459.48 1900.3 1466.61 Q1900.3 1473.71 1902.11 1477.28 Q1903.94 1480.82 1907.55 1480.82 Q1911.18 1480.82 1912.99 1477.28 Q1914.82 1473.71 1914.82 1466.61 Q1914.82 1459.48 1912.99 1455.94 Q1911.18 1452.37 1907.55 1452.37 M1907.55 1448.67 Q1913.36 1448.67 1916.41 1453.27 Q1919.49 1457.86 1919.49 1466.61 Q1919.49 1475.33 1916.41 1479.94 Q1913.36 1484.52 1907.55 1484.52 Q1901.74 1484.52 1898.66 1479.94 Q1895.6 1475.33 1895.6 1466.61 Q1895.6 1457.86 1898.66 1453.27 Q1901.74 1448.67 1907.55 1448.67 Z" fill="#000000" fill-rule="evenodd" fill-opacity="1" /><path clip-path="url(#clip230)" d="M1937.71 1452.37 Q1934.1 1452.37 1932.27 1455.94 Q1930.47 1459.48 1930.47 1466.61 Q1930.47 1473.71 1932.27 1477.28 Q1934.1 1480.82 1937.71 1480.82 Q1941.35 1480.82 1943.15 1477.28 Q1944.98 1473.71 1944.98 1466.61 Q1944.98 1459.48 1943.15 1455.94 Q1941.35 1452.37 1937.71 1452.37 M1937.71 1448.67 Q1943.52 1448.67 1946.58 1453.27 Q1949.66 1457.86 1949.66 1466.61 Q1949.66 1475.33 1946.58 1479.94 Q1943.52 1484.52 1937.71 1484.52 Q1931.9 1484.52 1928.82 1479.94 Q1925.77 1475.33 1925.77 1466.61 Q1925.77 1457.86 1928.82 1453.27 Q1931.9 1448.67 1937.71 1448.67 Z" fill="#000000" fill-rule="evenodd" fill-opacity="1" /><path clip-path="url(#clip230)" d="M2106.6 1479.92 L2114.24 1479.92 L2114.24 1453.55 L2105.93 1455.22 L2105.93 1450.96 L2114.19 1449.29 L2118.87 1449.29 L2118.87 1479.92 L2126.51 1479.92 L2126.51 1483.85 L2106.6 1483.85 L2106.6 1479.92 Z" fill="#000000" fill-rule="evenodd" fill-opacity="1" /><path clip-path="url(#clip230)" d="M2148.8 1453.37 L2136.99 1471.81 L2148.8 1471.81 L2148.8 1453.37 M2147.57 1449.29 L2153.45 1449.29 L2153.45 1471.81 L2158.38 1471.81 L2158.38 1475.7 L2153.45 1475.7 L2153.45 1483.85 L2148.8 1483.85 L2148.8 1475.7 L2133.2 1475.7 L2133.2 1471.19 L2147.57 1449.29 Z" fill="#000000" fill-rule="evenodd" fill-opacity="1" /><path clip-path="url(#clip230)" d="M2176.11 1452.37 Q2172.5 1452.37 2170.67 1455.94 Q2168.87 1459.48 2168.87 1466.61 Q2168.87 1473.71 2170.67 1477.28 Q2172.5 1480.82 2176.11 1480.82 Q2179.75 1480.82 2181.55 1477.28 Q2183.38 1473.71 2183.38 1466.61 Q2183.38 1459.48 2181.55 1455.94 Q2179.75 1452.37 2176.11 1452.37 M2176.11 1448.67 Q2181.92 1448.67 2184.98 1453.27 Q2188.06 1457.86 2188.06 1466.61 Q2188.06 1475.33 2184.98 1479.94 Q2181.92 1484.52 2176.11 1484.52 Q2170.3 1484.52 2167.23 1479.94 Q2164.17 1475.33 2164.17 1466.61 Q2164.17 1457.86 2167.23 1453.27 Q2170.3 1448.67 2176.11 1448.67 Z" fill="#000000" fill-rule="evenodd" fill-opacity="1" /><path clip-path="url(#clip230)" d="M2206.28 1452.37 Q2202.66 1452.37 2200.84 1455.94 Q2199.03 1459.48 2199.03 1466.61 Q2199.03 1473.71 2200.84 1477.28 Q2202.66 1480.82 2206.28 1480.82 Q2209.91 1480.82 2211.72 1477.28 Q2213.54 1473.71 2213.54 1466.61 Q2213.54 1459.48 2211.72 1455.94 Q2209.91 1452.37 2206.28 1452.37 M2206.28 1448.67 Q2212.09 1448.67 2215.14 1453.27 Q2218.22 1457.86 2218.22 1466.61 Q2218.22 1475.33 2215.14 1479.94 Q2212.09 1484.52 2206.28 1484.52 Q2200.47 1484.52 2197.39 1479.94 Q2194.33 1475.33 2194.33 1466.61 Q2194.33 1457.86 2197.39 1453.27 Q2200.47 1448.67 2206.28 1448.67 Z" fill="#000000" fill-rule="evenodd" fill-opacity="1" /><path clip-path="url(#clip230)" d="M1072.45 1520.52 L1078.95 1520.52 L1088.94 1560.69 L1098.9 1520.52 L1106.13 1520.52 L1116.12 1560.69 L1126.08 1520.52 L1132.61 1520.52 L1120.67 1568.04 L1112.59 1568.04 L1102.56 1526.79 L1092.44 1568.04 L1084.36 1568.04 L1072.45 1520.52 Z" fill="#000000" fill-rule="evenodd" fill-opacity="1" /><path clip-path="url(#clip230)" d="M1167.56 1548.76 L1167.56 1551.62 L1140.63 1551.62 Q1141.01 1557.67 1144.26 1560.85 Q1147.54 1564 1153.36 1564 Q1156.74 1564 1159.89 1563.17 Q1163.07 1562.35 1166.19 1560.69 L1166.19 1566.23 Q1163.04 1567.57 1159.73 1568.27 Q1156.42 1568.97 1153.01 1568.97 Q1144.48 1568.97 1139.48 1564 Q1134.52 1559.04 1134.52 1550.57 Q1134.52 1541.82 1139.23 1536.69 Q1143.97 1531.54 1151.99 1531.54 Q1159.19 1531.54 1163.36 1536.18 Q1167.56 1540.8 1167.56 1548.76 M1161.7 1547.04 Q1161.64 1542.23 1159 1539.37 Q1156.39 1536.5 1152.06 1536.5 Q1147.16 1536.5 1144.2 1539.27 Q1141.27 1542.04 1140.82 1547.07 L1161.7 1547.04 Z" fill="#000000" fill-rule="evenodd" fill-opacity="1" /><path clip-path="url(#clip230)" d="M1177.17 1518.52 L1183.03 1518.52 L1183.03 1568.04 L1177.17 1568.04 L1177.17 1518.52 Z" fill="#000000" fill-rule="evenodd" fill-opacity="1" /><path clip-path="url(#clip230)" d="M1195.28 1518.52 L1201.14 1518.52 L1201.14 1568.04 L1195.28 1568.04 L1195.28 1518.52 Z" fill="#000000" fill-rule="evenodd" fill-opacity="1" /><path clip-path="url(#clip230)" d="M1243.88 1548.76 L1243.88 1551.62 L1216.96 1551.62 Q1217.34 1557.67 1220.58 1560.85 Q1223.86 1564 1229.69 1564 Q1233.06 1564 1236.21 1563.17 Q1239.39 1562.35 1242.51 1560.69 L1242.51 1566.23 Q1239.36 1567.57 1236.05 1568.27 Q1232.74 1568.97 1229.34 1568.97 Q1220.81 1568.97 1215.81 1564 Q1210.84 1559.04 1210.84 1550.57 Q1210.84 1541.82 1215.55 1536.69 Q1220.3 1531.54 1228.32 1531.54 Q1235.51 1531.54 1239.68 1536.18 Q1243.88 1540.8 1243.88 1548.76 M1238.03 1547.04 Q1237.96 1542.23 1235.32 1539.37 Q1232.71 1536.5 1228.38 1536.5 Q1223.48 1536.5 1220.52 1539.27 Q1217.59 1542.04 1217.15 1547.07 L1238.03 1547.04 Z" fill="#000000" fill-rule="evenodd" fill-opacity="1" /><path clip-path="url(#clip230)" d="M1283.13 1546.53 L1283.13 1568.04 L1277.27 1568.04 L1277.27 1546.72 Q1277.27 1541.66 1275.3 1539.14 Q1273.32 1536.63 1269.38 1536.63 Q1264.63 1536.63 1261.9 1539.65 Q1259.16 1542.68 1259.16 1547.9 L1259.16 1568.04 L1253.27 1568.04 L1253.27 1532.4 L1259.16 1532.4 L1259.16 1537.93 Q1261.26 1534.72 1264.09 1533.13 Q1266.96 1531.54 1270.68 1531.54 Q1276.82 1531.54 1279.98 1535.36 Q1283.13 1539.14 1283.13 1546.53 Z" fill="#000000" fill-rule="evenodd" fill-opacity="1" /><path clip-path="url(#clip230)" d="M1294.81 1518.52 L1300.66 1518.52 L1300.66 1568.04 L1294.81 1568.04 L1294.81 1518.52 Z" fill="#000000" fill-rule="evenodd" fill-opacity="1" /><path clip-path="url(#clip230)" d="M1329.12 1550.12 Q1322.02 1550.12 1319.28 1551.75 Q1316.55 1553.37 1316.55 1557.29 Q1316.55 1560.4 1318.58 1562.25 Q1320.65 1564.07 1324.19 1564.07 Q1329.06 1564.07 1331.98 1560.63 Q1334.94 1557.16 1334.94 1551.43 L1334.94 1550.12 L1329.12 1550.12 M1340.8 1547.71 L1340.8 1568.04 L1334.94 1568.04 L1334.94 1562.63 Q1332.94 1565.88 1329.95 1567.44 Q1326.95 1568.97 1322.63 1568.97 Q1317.15 1568.97 1313.9 1565.91 Q1310.69 1562.82 1310.69 1557.67 Q1310.69 1551.65 1314.7 1548.6 Q1318.74 1545.54 1326.73 1545.54 L1334.94 1545.54 L1334.94 1544.97 Q1334.94 1540.93 1332.27 1538.73 Q1329.63 1536.5 1324.82 1536.5 Q1321.77 1536.5 1318.87 1537.23 Q1315.97 1537.97 1313.3 1539.43 L1313.3 1534.02 Q1316.51 1532.78 1319.54 1532.17 Q1322.56 1531.54 1325.43 1531.54 Q1333.16 1531.54 1336.98 1535.55 Q1340.8 1539.56 1340.8 1547.71 M1328.67 1518.65 L1335.13 1518.65 L1335.13 1525.08 L1328.67 1525.08 L1328.67 1518.65 M1316.23 1518.65 L1322.69 1518.65 L1322.69 1525.08 L1316.23 1525.08 L1316.23 1518.65 Z" fill="#000000" fill-rule="evenodd" fill-opacity="1" /><path clip-path="url(#clip230)" d="M1382.5 1546.53 L1382.5 1568.04 L1376.64 1568.04 L1376.64 1546.72 Q1376.64 1541.66 1374.67 1539.14 Q1372.69 1536.63 1368.75 1536.63 Q1364 1536.63 1361.27 1539.65 Q1358.53 1542.68 1358.53 1547.9 L1358.53 1568.04 L1352.64 1568.04 L1352.64 1532.4 L1358.53 1532.4 L1358.53 1537.93 Q1360.63 1534.72 1363.46 1533.13 Q1366.33 1531.54 1370.05 1531.54 Q1376.19 1531.54 1379.34 1535.36 Q1382.5 1539.14 1382.5 1546.53 Z" fill="#000000" fill-rule="evenodd" fill-opacity="1" /><path clip-path="url(#clip230)" d="M1417.63 1549.81 Q1417.63 1543.44 1414.99 1539.94 Q1412.38 1536.44 1407.64 1536.44 Q1402.93 1536.44 1400.29 1539.94 Q1397.68 1543.44 1397.68 1549.81 Q1397.68 1556.14 1400.29 1559.64 Q1402.93 1563.14 1407.64 1563.14 Q1412.38 1563.14 1414.99 1559.64 Q1417.63 1556.14 1417.63 1549.81 M1423.49 1563.62 Q1423.49 1572.72 1419.45 1577.15 Q1415.41 1581.6 1407.07 1581.6 Q1403.98 1581.6 1401.24 1581.13 Q1398.51 1580.68 1395.93 1579.72 L1395.93 1574.03 Q1398.51 1575.43 1401.02 1576.1 Q1403.53 1576.76 1406.14 1576.76 Q1411.91 1576.76 1414.77 1573.74 Q1417.63 1570.75 1417.63 1564.67 L1417.63 1561.77 Q1415.82 1564.92 1412.99 1566.48 Q1410.15 1568.04 1406.21 1568.04 Q1399.65 1568.04 1395.64 1563.05 Q1391.63 1558.05 1391.63 1549.81 Q1391.63 1541.53 1395.64 1536.53 Q1399.65 1531.54 1406.21 1531.54 Q1410.15 1531.54 1412.99 1533.1 Q1415.82 1534.66 1417.63 1537.81 L1417.63 1532.4 L1423.49 1532.4 L1423.49 1563.62 Z" fill="#000000" fill-rule="evenodd" fill-opacity="1" /><path clip-path="url(#clip230)" d="M1466.05 1548.76 L1466.05 1551.62 L1439.12 1551.62 Q1439.5 1557.67 1442.75 1560.85 Q1446.03 1564 1451.85 1564 Q1455.22 1564 1458.37 1563.17 Q1461.56 1562.35 1464.68 1560.69 L1464.68 1566.23 Q1461.53 1567.57 1458.22 1568.27 Q1454.91 1568.97 1451.5 1568.97 Q1442.97 1568.97 1437.97 1564 Q1433.01 1559.04 1433.01 1550.57 Q1433.01 1541.82 1437.72 1536.69 Q1442.46 1531.54 1450.48 1531.54 Q1457.67 1531.54 1461.84 1536.18 Q1466.05 1540.8 1466.05 1548.76 M1460.19 1547.04 Q1460.13 1542.23 1457.48 1539.37 Q1454.87 1536.5 1450.54 1536.5 Q1445.64 1536.5 1442.68 1539.27 Q1439.75 1542.04 1439.31 1547.07 L1460.19 1547.04 Z" fill="#000000" fill-rule="evenodd" fill-opacity="1" /><path clip-path="url(#clip230)" d="M1495.84 1518.52 L1509.33 1518.52 L1509.33 1523.07 L1501.69 1523.07 L1501.69 1572.09 L1509.33 1572.09 L1509.33 1576.64 L1495.84 1576.64 L1495.84 1518.52 Z" fill="#000000" fill-rule="evenodd" fill-opacity="1" /><path clip-path="url(#clip230)" d="M1551.44 1546.53 L1551.44 1568.04 L1545.58 1568.04 L1545.58 1546.72 Q1545.58 1541.66 1543.61 1539.14 Q1541.64 1536.63 1537.69 1536.63 Q1532.95 1536.63 1530.21 1539.65 Q1527.47 1542.68 1527.47 1547.9 L1527.47 1568.04 L1521.59 1568.04 L1521.59 1532.4 L1527.47 1532.4 L1527.47 1537.93 Q1529.58 1534.72 1532.41 1533.13 Q1535.27 1531.54 1539 1531.54 Q1545.14 1531.54 1548.29 1535.36 Q1551.44 1539.14 1551.44 1546.53 Z" fill="#000000" fill-rule="evenodd" fill-opacity="1" /><path clip-path="url(#clip230)" d="M1590.88 1539.24 Q1593.07 1535.29 1596.13 1533.41 Q1599.18 1531.54 1603.32 1531.54 Q1608.89 1531.54 1611.92 1535.45 Q1614.94 1539.33 1614.94 1546.53 L1614.94 1568.04 L1609.05 1568.04 L1609.05 1546.72 Q1609.05 1541.59 1607.24 1539.11 Q1605.42 1536.63 1601.7 1536.63 Q1597.15 1536.63 1594.51 1539.65 Q1591.86 1542.68 1591.86 1547.9 L1591.86 1568.04 L1585.98 1568.04 L1585.98 1546.72 Q1585.98 1541.56 1584.16 1539.11 Q1582.35 1536.63 1578.56 1536.63 Q1574.07 1536.63 1571.43 1539.68 Q1568.79 1542.71 1568.79 1547.9 L1568.79 1568.04 L1562.9 1568.04 L1562.9 1532.4 L1568.79 1532.4 L1568.79 1537.93 Q1570.79 1534.66 1573.59 1533.1 Q1576.39 1531.54 1580.25 1531.54 Q1584.13 1531.54 1586.83 1533.51 Q1589.57 1535.48 1590.88 1539.24 Z" fill="#000000" fill-rule="evenodd" fill-opacity="1" /><path clip-path="url(#clip230)" d="M1640.31 1518.52 L1640.31 1576.64 L1626.81 1576.64 L1626.81 1572.09 L1634.42 1572.09 L1634.42 1523.07 L1626.81 1523.07 L1626.81 1518.52 L1640.31 1518.52 Z" fill="#000000" fill-rule="evenodd" fill-opacity="1" /><polyline clip-path="url(#clip232)" style="stroke:#000000; stroke-linecap:butt; stroke-linejoin:round; stroke-width:2; stroke-opacity:0.1; fill:none" points="
  360.004,1384.24 2352.76,1384.24 
  "/>
<polyline clip-path="url(#clip232)" style="stroke:#000000; stroke-linecap:butt; stroke-linejoin:round; stroke-width:2; stroke-opacity:0.1; fill:none" points="
  360.004,969.083 2352.76,969.083 
  "/>
<polyline clip-path="url(#clip232)" style="stroke:#000000; stroke-linecap:butt; stroke-linejoin:round; stroke-width:2; stroke-opacity:0.1; fill:none" points="
  360.004,553.927 2352.76,553.927 
  "/>
<polyline clip-path="url(#clip232)" style="stroke:#000000; stroke-linecap:butt; stroke-linejoin:round; stroke-width:2; stroke-opacity:0.1; fill:none" points="
  360.004,138.772 2352.76,138.772 
  "/>
<polyline clip-path="url(#clip230)" style="stroke:#000000; stroke-linecap:butt; stroke-linejoin:round; stroke-width:4; stroke-opacity:1; fill:none" points="
  360.004,1423.18 360.004,47.2441 
  "/>
<polyline clip-path="url(#clip230)" style="stroke:#000000; stroke-linecap:butt; stroke-linejoin:round; stroke-width:4; stroke-opacity:1; fill:none" points="
  360.004,1384.24 383.917,1384.24 
  "/>
<polyline clip-path="url(#clip230)" style="stroke:#000000; stroke-linecap:butt; stroke-linejoin:round; stroke-width:4; stroke-opacity:1; fill:none" points="
  360.004,969.083 383.917,969.083 
  "/>
<polyline clip-path="url(#clip230)" style="stroke:#000000; stroke-linecap:butt; stroke-linejoin:round; stroke-width:4; stroke-opacity:1; fill:none" points="
  360.004,553.927 383.917,553.927 
  "/>
<polyline clip-path="url(#clip230)" style="stroke:#000000; stroke-linecap:butt; stroke-linejoin:round; stroke-width:4; stroke-opacity:1; fill:none" points="
  360.004,138.772 383.917,138.772 
  "/>
<path clip-path="url(#clip230)" d="M312.06 1370.04 Q308.449 1370.04 306.62 1373.6 Q304.815 1377.14 304.815 1384.27 Q304.815 1391.38 306.62 1394.94 Q308.449 1398.49 312.06 1398.49 Q315.694 1398.49 317.5 1394.94 Q319.329 1391.38 319.329 1384.27 Q319.329 1377.14 317.5 1373.6 Q315.694 1370.04 312.06 1370.04 M312.06 1366.33 Q317.87 1366.33 320.926 1370.94 Q324.004 1375.52 324.004 1384.27 Q324.004 1393 320.926 1397.61 Q317.87 1402.19 312.06 1402.19 Q306.25 1402.19 303.171 1397.61 Q300.116 1393 300.116 1384.27 Q300.116 1375.52 303.171 1370.94 Q306.25 1366.33 312.06 1366.33 Z" fill="#000000" fill-rule="evenodd" fill-opacity="1" /><path clip-path="url(#clip230)" d="M116.668 988.875 L124.306 988.875 L124.306 962.51 L115.996 964.176 L115.996 959.917 L124.26 958.25 L128.936 958.25 L128.936 988.875 L136.575 988.875 L136.575 992.81 L116.668 992.81 L116.668 988.875 Z" fill="#000000" fill-rule="evenodd" fill-opacity="1" /><path clip-path="url(#clip230)" d="M146.019 986.931 L150.903 986.931 L150.903 992.81 L146.019 992.81 L146.019 986.931 Z" fill="#000000" fill-rule="evenodd" fill-opacity="1" /><path clip-path="url(#clip230)" d="M171.089 961.329 Q167.477 961.329 165.649 964.894 Q163.843 968.436 163.843 975.565 Q163.843 982.672 165.649 986.236 Q167.477 989.778 171.089 989.778 Q174.723 989.778 176.528 986.236 Q178.357 982.672 178.357 975.565 Q178.357 968.436 176.528 964.894 Q174.723 961.329 171.089 961.329 M171.089 957.625 Q176.899 957.625 179.954 962.232 Q183.033 966.815 183.033 975.565 Q183.033 984.292 179.954 988.898 Q176.899 993.482 171.089 993.482 Q165.278 993.482 162.2 988.898 Q159.144 984.292 159.144 975.565 Q159.144 966.815 162.2 962.232 Q165.278 957.625 171.089 957.625 Z" fill="#000000" fill-rule="evenodd" fill-opacity="1" /><path clip-path="url(#clip230)" d="M219.422 967.348 L208.843 977.973 L219.422 988.551 L216.667 991.352 L206.042 980.727 L195.417 991.352 L192.686 988.551 L203.241 977.973 L192.686 967.348 L195.417 964.547 L206.042 975.172 L216.667 964.547 L219.422 967.348 Z" fill="#000000" fill-rule="evenodd" fill-opacity="1" /><path clip-path="url(#clip230)" d="M231.783 988.875 L239.422 988.875 L239.422 962.51 L231.111 964.176 L231.111 959.917 L239.375 958.25 L244.051 958.25 L244.051 988.875 L251.69 988.875 L251.69 992.81 L231.783 992.81 L231.783 988.875 Z" fill="#000000" fill-rule="evenodd" fill-opacity="1" /><path clip-path="url(#clip230)" d="M271.134 961.329 Q267.523 961.329 265.695 964.894 Q263.889 968.436 263.889 975.565 Q263.889 982.672 265.695 986.236 Q267.523 989.778 271.134 989.778 Q274.769 989.778 276.574 986.236 Q278.403 982.672 278.403 975.565 Q278.403 968.436 276.574 964.894 Q274.769 961.329 271.134 961.329 M271.134 957.625 Q276.944 957.625 280 962.232 Q283.079 966.815 283.079 975.565 Q283.079 984.292 280 988.898 Q276.944 993.482 271.134 993.482 Q265.324 993.482 262.245 988.898 Q259.19 984.292 259.19 975.565 Q259.19 966.815 262.245 962.232 Q265.324 957.625 271.134 957.625 Z" fill="#000000" fill-rule="evenodd" fill-opacity="1" /><path clip-path="url(#clip230)" d="M283.624 962.203 L289.831 962.203 L289.831 940.781 L283.079 942.135 L283.079 938.674 L289.793 937.32 L293.592 937.32 L293.592 962.203 L299.799 962.203 L299.799 965.4 L283.624 965.4 L283.624 962.203 Z" fill="#000000" fill-rule="evenodd" fill-opacity="1" /><path clip-path="url(#clip230)" d="M310.745 962.203 L324.004 962.203 L324.004 965.4 L306.175 965.4 L306.175 962.203 Q308.338 959.965 312.061 956.203 Q315.804 952.423 316.763 951.332 Q318.588 949.282 319.302 947.871 Q320.036 946.442 320.036 945.069 Q320.036 942.831 318.456 941.42 Q316.895 940.01 314.375 940.01 Q312.588 940.01 310.594 940.63 Q308.62 941.251 306.363 942.511 L306.363 938.674 Q308.657 937.753 310.651 937.282 Q312.645 936.812 314.3 936.812 Q318.663 936.812 321.258 938.994 Q323.854 941.176 323.854 944.824 Q323.854 946.555 323.196 948.116 Q322.556 949.658 320.845 951.764 Q320.375 952.31 317.854 954.924 Q315.334 957.52 310.745 962.203 Z" fill="#000000" fill-rule="evenodd" fill-opacity="1" /><path clip-path="url(#clip230)" d="M119.885 573.72 L136.204 573.72 L136.204 577.655 L114.26 577.655 L114.26 573.72 Q116.922 570.965 121.505 566.336 Q126.112 561.683 127.292 560.34 Q129.538 557.817 130.417 556.081 Q131.32 554.322 131.32 552.632 Q131.32 549.877 129.376 548.141 Q127.455 546.405 124.353 546.405 Q122.154 546.405 119.7 547.169 Q117.269 547.933 114.492 549.484 L114.492 544.762 Q117.316 543.627 119.769 543.049 Q122.223 542.47 124.26 542.47 Q129.63 542.47 132.825 545.155 Q136.019 547.84 136.019 552.331 Q136.019 554.461 135.209 556.382 Q134.422 558.28 132.316 560.873 Q131.737 561.544 128.635 564.762 Q125.533 567.956 119.885 573.72 Z" fill="#000000" fill-rule="evenodd" fill-opacity="1" /><path clip-path="url(#clip230)" d="M146.019 571.775 L150.903 571.775 L150.903 577.655 L146.019 577.655 L146.019 571.775 Z" fill="#000000" fill-rule="evenodd" fill-opacity="1" /><path clip-path="url(#clip230)" d="M171.089 546.174 Q167.477 546.174 165.649 549.739 Q163.843 553.28 163.843 560.41 Q163.843 567.516 165.649 571.081 Q167.477 574.623 171.089 574.623 Q174.723 574.623 176.528 571.081 Q178.357 567.516 178.357 560.41 Q178.357 553.28 176.528 549.739 Q174.723 546.174 171.089 546.174 M171.089 542.47 Q176.899 542.47 179.954 547.077 Q183.033 551.66 183.033 560.41 Q183.033 569.137 179.954 573.743 Q176.899 578.326 171.089 578.326 Q165.278 578.326 162.2 573.743 Q159.144 569.137 159.144 560.41 Q159.144 551.66 162.2 547.077 Q165.278 542.47 171.089 542.47 Z" fill="#000000" fill-rule="evenodd" fill-opacity="1" /><path clip-path="url(#clip230)" d="M219.422 552.192 L208.843 562.817 L219.422 573.396 L216.667 576.197 L206.042 565.572 L195.417 576.197 L192.686 573.396 L203.241 562.817 L192.686 552.192 L195.417 549.391 L206.042 560.016 L216.667 549.391 L219.422 552.192 Z" fill="#000000" fill-rule="evenodd" fill-opacity="1" /><path clip-path="url(#clip230)" d="M231.783 573.72 L239.422 573.72 L239.422 547.354 L231.111 549.021 L231.111 544.762 L239.375 543.095 L244.051 543.095 L244.051 573.72 L251.69 573.72 L251.69 577.655 L231.783 577.655 L231.783 573.72 Z" fill="#000000" fill-rule="evenodd" fill-opacity="1" /><path clip-path="url(#clip230)" d="M271.134 546.174 Q267.523 546.174 265.695 549.739 Q263.889 553.28 263.889 560.41 Q263.889 567.516 265.695 571.081 Q267.523 574.623 271.134 574.623 Q274.769 574.623 276.574 571.081 Q278.403 567.516 278.403 560.41 Q278.403 553.28 276.574 549.739 Q274.769 546.174 271.134 546.174 M271.134 542.47 Q276.944 542.47 280 547.077 Q283.079 551.66 283.079 560.41 Q283.079 569.137 280 573.743 Q276.944 578.326 271.134 578.326 Q265.324 578.326 262.245 573.743 Q259.19 569.137 259.19 560.41 Q259.19 551.66 262.245 547.077 Q265.324 542.47 271.134 542.47 Z" fill="#000000" fill-rule="evenodd" fill-opacity="1" /><path clip-path="url(#clip230)" d="M283.624 547.047 L289.831 547.047 L289.831 525.625 L283.079 526.979 L283.079 523.519 L289.793 522.165 L293.592 522.165 L293.592 547.047 L299.799 547.047 L299.799 550.245 L283.624 550.245 L283.624 547.047 Z" fill="#000000" fill-rule="evenodd" fill-opacity="1" /><path clip-path="url(#clip230)" d="M310.745 547.047 L324.004 547.047 L324.004 550.245 L306.175 550.245 L306.175 547.047 Q308.338 544.809 312.061 541.048 Q315.804 537.267 316.763 536.176 Q318.588 534.126 319.302 532.716 Q320.036 531.286 320.036 529.913 Q320.036 527.675 318.456 526.265 Q316.895 524.854 314.375 524.854 Q312.588 524.854 310.594 525.475 Q308.62 526.095 306.363 527.356 L306.363 523.519 Q308.657 522.597 310.651 522.127 Q312.645 521.657 314.3 521.657 Q318.663 521.657 321.258 523.839 Q323.854 526.02 323.854 529.669 Q323.854 531.399 323.196 532.96 Q322.556 534.503 320.845 536.609 Q320.375 537.154 317.854 539.769 Q315.334 542.364 310.745 547.047 Z" fill="#000000" fill-rule="evenodd" fill-opacity="1" /><path clip-path="url(#clip230)" d="M130.024 143.865 Q133.38 144.583 135.255 146.852 Q137.154 149.12 137.154 152.453 Q137.154 157.569 133.635 160.37 Q130.117 163.171 123.635 163.171 Q121.459 163.171 119.144 162.731 Q116.853 162.314 114.399 161.458 L114.399 156.944 Q116.343 158.078 118.658 158.657 Q120.973 159.236 123.496 159.236 Q127.894 159.236 130.186 157.5 Q132.501 155.764 132.501 152.453 Q132.501 149.398 130.348 147.685 Q128.218 145.949 124.399 145.949 L120.371 145.949 L120.371 142.106 L124.584 142.106 Q128.033 142.106 129.862 140.74 Q131.691 139.352 131.691 136.759 Q131.691 134.097 129.792 132.685 Q127.917 131.25 124.399 131.25 Q122.478 131.25 120.279 131.666 Q118.08 132.083 115.441 132.963 L115.441 128.796 Q118.103 128.055 120.418 127.685 Q122.755 127.315 124.816 127.315 Q130.14 127.315 133.242 129.745 Q136.343 132.153 136.343 136.273 Q136.343 139.143 134.7 141.134 Q133.056 143.102 130.024 143.865 Z" fill="#000000" fill-rule="evenodd" fill-opacity="1" /><path clip-path="url(#clip230)" d="M146.019 156.62 L150.903 156.62 L150.903 162.5 L146.019 162.5 L146.019 156.62 Z" fill="#000000" fill-rule="evenodd" fill-opacity="1" /><path clip-path="url(#clip230)" d="M171.089 131.018 Q167.477 131.018 165.649 134.583 Q163.843 138.125 163.843 145.254 Q163.843 152.361 165.649 155.926 Q167.477 159.467 171.089 159.467 Q174.723 159.467 176.528 155.926 Q178.357 152.361 178.357 145.254 Q178.357 138.125 176.528 134.583 Q174.723 131.018 171.089 131.018 M171.089 127.315 Q176.899 127.315 179.954 131.921 Q183.033 136.504 183.033 145.254 Q183.033 153.981 179.954 158.588 Q176.899 163.171 171.089 163.171 Q165.278 163.171 162.2 158.588 Q159.144 153.981 159.144 145.254 Q159.144 136.504 162.2 131.921 Q165.278 127.315 171.089 127.315 Z" fill="#000000" fill-rule="evenodd" fill-opacity="1" /><path clip-path="url(#clip230)" d="M219.422 137.037 L208.843 147.662 L219.422 158.24 L216.667 161.041 L206.042 150.416 L195.417 161.041 L192.686 158.24 L203.241 147.662 L192.686 137.037 L195.417 134.236 L206.042 144.861 L216.667 134.236 L219.422 137.037 Z" fill="#000000" fill-rule="evenodd" fill-opacity="1" /><path clip-path="url(#clip230)" d="M231.783 158.564 L239.422 158.564 L239.422 132.199 L231.111 133.866 L231.111 129.606 L239.375 127.94 L244.051 127.94 L244.051 158.564 L251.69 158.564 L251.69 162.5 L231.783 162.5 L231.783 158.564 Z" fill="#000000" fill-rule="evenodd" fill-opacity="1" /><path clip-path="url(#clip230)" d="M271.134 131.018 Q267.523 131.018 265.695 134.583 Q263.889 138.125 263.889 145.254 Q263.889 152.361 265.695 155.926 Q267.523 159.467 271.134 159.467 Q274.769 159.467 276.574 155.926 Q278.403 152.361 278.403 145.254 Q278.403 138.125 276.574 134.583 Q274.769 131.018 271.134 131.018 M271.134 127.315 Q276.944 127.315 280 131.921 Q283.079 136.504 283.079 145.254 Q283.079 153.981 280 158.588 Q276.944 163.171 271.134 163.171 Q265.324 163.171 262.245 158.588 Q259.19 153.981 259.19 145.254 Q259.19 136.504 262.245 131.921 Q265.324 127.315 271.134 127.315 Z" fill="#000000" fill-rule="evenodd" fill-opacity="1" /><path clip-path="url(#clip230)" d="M283.624 131.892 L289.831 131.892 L289.831 110.47 L283.079 111.824 L283.079 108.363 L289.793 107.009 L293.592 107.009 L293.592 131.892 L299.799 131.892 L299.799 135.089 L283.624 135.089 L283.624 131.892 Z" fill="#000000" fill-rule="evenodd" fill-opacity="1" /><path clip-path="url(#clip230)" d="M310.745 131.892 L324.004 131.892 L324.004 135.089 L306.175 135.089 L306.175 131.892 Q308.338 129.654 312.061 125.892 Q315.804 122.112 316.763 121.021 Q318.588 118.971 319.302 117.56 Q320.036 116.131 320.036 114.758 Q320.036 112.52 318.456 111.109 Q316.895 109.699 314.375 109.699 Q312.588 109.699 310.594 110.319 Q308.62 110.94 306.363 112.2 L306.363 108.363 Q308.657 107.442 310.651 106.972 Q312.645 106.501 314.3 106.501 Q318.663 106.501 321.258 108.683 Q323.854 110.865 323.854 114.514 Q323.854 116.244 323.196 117.805 Q322.556 119.347 320.845 121.454 Q320.375 121.999 317.854 124.613 Q315.334 127.209 310.745 131.892 Z" fill="#000000" fill-rule="evenodd" fill-opacity="1" /><path clip-path="url(#clip230)" d="M16.4842 1008.35 L16.4842 1001.92 L64.0042 1001.92 L64.0042 1008.35 L16.4842 1008.35 Z" fill="#000000" fill-rule="evenodd" fill-opacity="1" /><path clip-path="url(#clip230)" d="M42.4881 959.746 L64.0042 959.746 L64.0042 965.603 L42.679 965.603 Q37.6183 965.603 35.1038 967.576 Q32.5894 969.55 32.5894 973.496 Q32.5894 978.239 35.6131 980.976 Q38.6368 983.713 43.8567 983.713 L64.0042 983.713 L64.0042 989.602 L28.3562 989.602 L28.3562 983.713 L33.8944 983.713 Q30.6797 981.613 29.0883 978.78 Q27.4968 975.915 27.4968 972.191 Q27.4968 966.048 31.3163 962.897 Q35.1038 959.746 42.4881 959.746 Z" fill="#000000" fill-rule="evenodd" fill-opacity="1" /><path clip-path="url(#clip230)" d="M18.2347 942.272 L28.3562 942.272 L28.3562 930.209 L32.9077 930.209 L32.9077 942.272 L52.2594 942.272 Q56.6199 942.272 57.8613 941.095 Q59.1026 939.885 59.1026 936.225 L59.1026 930.209 L64.0042 930.209 L64.0042 936.225 Q64.0042 943.005 61.4897 945.583 Q58.9434 948.161 52.2594 948.161 L32.9077 948.161 L32.9077 952.458 L28.3562 952.458 L28.3562 948.161 L18.2347 948.161 L18.2347 942.272 Z" fill="#000000" fill-rule="evenodd" fill-opacity="1" /><path clip-path="url(#clip230)" d="M44.7161 892.015 L47.5806 892.015 L47.5806 918.942 Q53.6281 918.56 56.8109 915.314 Q59.9619 912.035 59.9619 906.211 Q59.9619 902.837 59.1344 899.686 Q58.3069 896.503 56.6518 893.384 L62.1899 893.384 Q63.5267 896.535 64.227 899.845 Q64.9272 903.155 64.9272 906.561 Q64.9272 915.091 59.9619 920.088 Q54.9967 925.053 46.5303 925.053 Q37.7774 925.053 32.6531 920.343 Q27.4968 915.6 27.4968 907.579 Q27.4968 900.386 32.1438 896.217 Q36.7589 892.015 44.7161 892.015 M42.9973 897.872 Q38.1912 897.935 35.3266 900.577 Q32.4621 903.187 32.4621 907.516 Q32.4621 912.417 35.2312 915.377 Q38.0002 918.306 43.0292 918.751 L42.9973 897.872 Z" fill="#000000" fill-rule="evenodd" fill-opacity="1" /><path clip-path="url(#clip230)" d="M42.4881 852.771 L64.0042 852.771 L64.0042 858.627 L42.679 858.627 Q37.6183 858.627 35.1038 860.6 Q32.5894 862.574 32.5894 866.521 Q32.5894 871.263 35.6131 874 Q38.6368 876.738 43.8567 876.738 L64.0042 876.738 L64.0042 882.626 L28.3562 882.626 L28.3562 876.738 L33.8944 876.738 Q30.6797 874.637 29.0883 871.804 Q27.4968 868.94 27.4968 865.216 Q27.4968 859.073 31.3163 855.922 Q35.1038 852.771 42.4881 852.771 Z" fill="#000000" fill-rule="evenodd" fill-opacity="1" /><path clip-path="url(#clip230)" d="M29.4065 818.364 L34.9447 818.364 Q33.6716 820.847 33.035 823.52 Q32.3984 826.194 32.3984 829.058 Q32.3984 833.419 33.7352 835.615 Q35.072 837.779 37.7456 837.779 Q39.7826 837.779 40.9603 836.22 Q42.1061 834.66 43.1565 829.95 L43.6021 827.944 Q44.9389 821.706 47.3897 819.096 Q49.8086 816.454 54.1691 816.454 Q59.1344 816.454 62.0308 820.401 Q64.9272 824.316 64.9272 831.191 Q64.9272 834.055 64.3543 837.175 Q63.8132 840.262 62.6992 843.7 L56.6518 843.7 Q58.3387 840.453 59.198 837.302 Q60.0256 834.151 60.0256 831.064 Q60.0256 826.926 58.6251 824.698 Q57.1929 822.47 54.6147 822.47 Q52.2276 822.47 50.9545 824.093 Q49.6813 825.685 48.5037 831.127 L48.0262 833.164 Q46.8804 838.607 44.5251 841.026 Q42.138 843.445 38.0002 843.445 Q32.9713 843.445 30.2341 839.88 Q27.4968 836.315 27.4968 829.759 Q27.4968 826.512 27.9743 823.648 Q28.4517 820.783 29.4065 818.364 Z" fill="#000000" fill-rule="evenodd" fill-opacity="1" /><path clip-path="url(#clip230)" d="M28.3562 807.129 L28.3562 801.272 L64.0042 801.272 L64.0042 807.129 L28.3562 807.129 M14.479 807.129 L14.479 801.272 L21.895 801.272 L21.895 807.129 L14.479 807.129 Z" fill="#000000" fill-rule="evenodd" fill-opacity="1" /><path clip-path="url(#clip230)" d="M18.2347 783.225 L28.3562 783.225 L28.3562 771.162 L32.9077 771.162 L32.9077 783.225 L52.2594 783.225 Q56.6199 783.225 57.8613 782.048 Q59.1026 780.838 59.1026 777.178 L59.1026 771.162 L64.0042 771.162 L64.0042 777.178 Q64.0042 783.957 61.4897 786.535 Q58.9434 789.114 52.2594 789.114 L32.9077 789.114 L32.9077 793.41 L28.3562 793.41 L28.3562 789.114 L18.2347 789.114 L18.2347 783.225 Z" fill="#000000" fill-rule="evenodd" fill-opacity="1" /><path clip-path="url(#clip230)" d="M46.0847 747.259 Q46.0847 754.357 47.7079 757.094 Q49.3312 759.831 53.2461 759.831 Q56.3653 759.831 58.2114 757.794 Q60.0256 755.725 60.0256 752.192 Q60.0256 747.323 56.5881 744.395 Q53.1188 741.434 47.3897 741.434 L46.0847 741.434 L46.0847 747.259 M43.6657 735.578 L64.0042 735.578 L64.0042 741.434 L58.5933 741.434 Q61.8398 743.44 63.3994 746.432 Q64.9272 749.423 64.9272 753.752 Q64.9272 759.227 61.8716 762.473 Q58.7843 765.688 53.6281 765.688 Q47.6125 765.688 44.5569 761.677 Q41.5014 757.635 41.5014 749.646 L41.5014 741.434 L40.9285 741.434 Q36.8862 741.434 34.6901 744.108 Q32.4621 746.75 32.4621 751.556 Q32.4621 754.611 33.1941 757.508 Q33.9262 760.404 35.3903 763.078 L29.9795 763.078 Q28.7381 759.863 28.1334 756.839 Q27.4968 753.816 27.4968 750.951 Q27.4968 743.217 31.5072 739.397 Q35.5176 735.578 43.6657 735.578 M14.6063 747.705 L14.6063 741.243 L21.0356 741.243 L21.0356 747.705 L14.6063 747.705 M14.6063 760.15 L14.6063 753.688 L21.0356 753.688 L21.0356 760.15 L14.6063 760.15 Z" fill="#000000" fill-rule="evenodd" fill-opacity="1" /><path clip-path="url(#clip230)" d="M18.2347 717.722 L28.3562 717.722 L28.3562 705.659 L32.9077 705.659 L32.9077 717.722 L52.2594 717.722 Q56.6199 717.722 57.8613 716.545 Q59.1026 715.335 59.1026 711.675 L59.1026 705.659 L64.0042 705.659 L64.0042 711.675 Q64.0042 718.454 61.4897 721.032 Q58.9434 723.61 52.2594 723.61 L32.9077 723.61 L32.9077 727.907 L28.3562 727.907 L28.3562 723.61 L18.2347 723.61 L18.2347 717.722 Z" fill="#000000" fill-rule="evenodd" fill-opacity="1" /><path clip-path="url(#clip230)" d="M14.479 677.777 L14.479 664.282 L19.0304 664.282 L19.0304 671.921 L68.0464 671.921 L68.0464 664.282 L72.5979 664.282 L72.5979 677.777 L14.479 677.777 Z" fill="#000000" fill-rule="evenodd" fill-opacity="1" /><path clip-path="url(#clip230)" d="M16.4842 655.784 L16.4842 649.291 L56.6518 639.297 L16.4842 629.334 L16.4842 622.109 L56.6518 612.115 L16.4842 602.153 L16.4842 595.628 L64.0042 607.564 L64.0042 615.648 L22.7544 625.674 L64.0042 635.796 L64.0042 643.88 L16.4842 655.784 Z" fill="#000000" fill-rule="evenodd" fill-opacity="1" /><path clip-path="url(#clip230)" d="M16.4842 576.945 L16.4842 571.534 L70.0516 588.085 L70.0516 593.495 L16.4842 576.945 Z" fill="#000000" fill-rule="evenodd" fill-opacity="1" /><path clip-path="url(#clip230)" d="M35.1993 537.636 Q31.2526 535.44 29.3747 532.385 Q27.4968 529.329 27.4968 525.191 Q27.4968 519.621 31.4117 516.598 Q35.2948 513.574 42.4881 513.574 L64.0042 513.574 L64.0042 519.462 L42.679 519.462 Q37.5546 519.462 35.072 521.276 Q32.5894 523.091 32.5894 526.815 Q32.5894 531.366 35.6131 534.008 Q38.6368 536.65 43.8567 536.65 L64.0042 536.65 L64.0042 542.538 L42.679 542.538 Q37.5228 542.538 35.072 544.352 Q32.5894 546.166 32.5894 549.954 Q32.5894 554.442 35.6449 557.084 Q38.6686 559.725 43.8567 559.725 L64.0042 559.725 L64.0042 565.614 L28.3562 565.614 L28.3562 559.725 L33.8944 559.725 Q30.616 557.72 29.0564 554.919 Q27.4968 552.118 27.4968 548.267 Q27.4968 544.384 29.4702 541.679 Q31.4436 538.941 35.1993 537.636 Z" fill="#000000" fill-rule="evenodd" fill-opacity="1" /><path clip-path="url(#clip230)" d="M28.3562 491.358 Q28.9291 488.429 30.6797 486.838 Q32.3984 485.215 35.0084 485.215 Q38.9551 485.215 41.0876 488.238 Q43.2201 491.262 43.2201 496.896 Q43.2201 498.71 42.9018 500.715 Q42.5517 502.689 41.9152 504.917 L38.0639 504.917 Q38.9233 503.262 39.337 501.384 Q39.7508 499.474 39.7508 497.341 Q39.7508 493.872 38.5095 491.962 Q37.2364 490.053 35.0084 490.053 Q32.6531 490.053 31.4436 491.835 Q30.2341 493.586 30.2341 497.023 L30.2341 499.76 L26.7966 499.76 L26.7966 496.769 Q26.7966 493.777 25.8099 492.249 Q24.7914 490.689 22.8817 490.689 Q21.0356 490.689 20.0808 492.281 Q19.0941 493.872 19.0941 496.896 Q19.0941 498.169 19.3806 499.792 Q19.667 501.415 20.3991 503.994 L16.7388 503.994 Q16.1977 501.67 15.9112 499.633 Q15.6248 497.596 15.6248 495.845 Q15.6248 491.262 17.5027 488.589 Q19.3806 485.883 22.5316 485.883 Q24.7277 485.883 26.2555 487.315 Q27.7833 488.748 28.3562 491.358 Z" fill="#000000" fill-rule="evenodd" fill-opacity="1" /><path clip-path="url(#clip230)" d="M14.479 462.075 L72.5979 462.075 L72.5979 475.571 L68.0464 475.571 L68.0464 467.964 L19.0304 467.964 L19.0304 475.571 L14.479 475.571 L14.479 462.075 Z" fill="#000000" fill-rule="evenodd" fill-opacity="1" /><path clip-path="url(#clip232)" d="
M792.394 86.1857 L792.394 1384.24 L846.107 1384.24 L846.107 86.1857 L792.394 86.1857 L792.394 86.1857  Z
  " fill="#ee82ee" fill-rule="evenodd" fill-opacity="0.7"/>
<polyline clip-path="url(#clip232)" style="stroke:#000000; stroke-linecap:butt; stroke-linejoin:round; stroke-width:4; stroke-opacity:1; fill:none" points="
  792.394,86.1857 792.394,1384.24 846.107,1384.24 846.107,86.1857 792.394,86.1857 
  "/>
<path clip-path="url(#clip232)" d="
M846.107 86.1857 L846.107 1384.24 L940.105 1384.24 L940.105 86.1857 L846.107 86.1857 L846.107 86.1857  Z
  " fill="#0000ff" fill-rule="evenodd" fill-opacity="0.7"/>
<polyline clip-path="url(#clip232)" style="stroke:#000000; stroke-linecap:butt; stroke-linejoin:round; stroke-width:4; stroke-opacity:1; fill:none" points="
  846.107,86.1857 846.107,1384.24 940.105,1384.24 940.105,86.1857 846.107,86.1857 
  "/>
<path clip-path="url(#clip232)" d="
M940.105 86.1857 L940.105 1384.24 L1054.24 1384.24 L1054.24 86.1857 L940.105 86.1857 L940.105 86.1857  Z
  " fill="#008000" fill-rule="evenodd" fill-opacity="0.7"/>
<polyline clip-path="url(#clip232)" style="stroke:#000000; stroke-linecap:butt; stroke-linejoin:round; stroke-width:4; stroke-opacity:1; fill:none" points="
  940.105,86.1857 940.105,1384.24 1054.24,1384.24 1054.24,86.1857 940.105,86.1857 
  "/>
<path clip-path="url(#clip232)" d="
M1054.24 86.1857 L1054.24 1384.24 L1067.67 1384.24 L1067.67 86.1857 L1054.24 86.1857 L1054.24 86.1857  Z
  " fill="#ffff00" fill-rule="evenodd" fill-opacity="0.7"/>
<polyline clip-path="url(#clip232)" style="stroke:#000000; stroke-linecap:butt; stroke-linejoin:round; stroke-width:4; stroke-opacity:1; fill:none" points="
  1054.24,86.1857 1054.24,1384.24 1067.67,1384.24 1067.67,86.1857 1054.24,86.1857 
  "/>
<path clip-path="url(#clip232)" d="
M1067.67 86.1857 L1067.67 1384.24 L1154.96 1384.24 L1154.96 86.1857 L1067.67 86.1857 L1067.67 86.1857  Z
  " fill="#ffa500" fill-rule="evenodd" fill-opacity="0.7"/>
<polyline clip-path="url(#clip232)" style="stroke:#000000; stroke-linecap:butt; stroke-linejoin:round; stroke-width:4; stroke-opacity:1; fill:none" points="
  1067.67,86.1857 1067.67,1384.24 1154.96,1384.24 1154.96,86.1857 1067.67,86.1857 
  "/>
<path clip-path="url(#clip232)" d="
M1154.96 86.1857 L1154.96 1384.24 L1289.24 1384.24 L1289.24 86.1857 L1154.96 86.1857 L1154.96 86.1857  Z
  " fill="#ff0000" fill-rule="evenodd" fill-opacity="0.7"/>
<polyline clip-path="url(#clip232)" style="stroke:#000000; stroke-linecap:butt; stroke-linejoin:round; stroke-width:4; stroke-opacity:1; fill:none" points="
  1154.96,86.1857 1154.96,1384.24 1289.24,1384.24 1289.24,86.1857 1154.96,86.1857 
  "/>
<polyline clip-path="url(#clip232)" style="stroke:#000000; stroke-linecap:butt; stroke-linejoin:round; stroke-width:12; stroke-opacity:1; fill:none" points="
  282.134,1384.24 282.134,1384.24 282.134,1384.24 282.135,1384.24 282.135,1384.24 282.135,1384.24 282.135,1384.24 282.135,1384.24 282.136,1384.24 282.136,1384.24 
  282.136,1384.24 282.136,1384.24 282.136,1384.24 282.137,1384.24 282.137,1384.24 282.137,1384.24 282.137,1384.24 282.138,1384.24 282.138,1384.24 282.138,1384.24 
  282.138,1384.24 282.139,1384.24 282.139,1384.24 282.139,1384.24 282.139,1384.24 282.14,1384.24 282.14,1384.24 282.14,1384.24 282.14,1384.24 282.141,1384.24 
  282.141,1384.24 282.141,1384.24 282.141,1384.24 282.142,1384.24 282.142,1384.24 282.142,1384.24 282.143,1384.24 282.143,1384.24 282.143,1384.24 282.144,1384.24 
  282.144,1384.24 282.144,1384.24 282.145,1384.24 282.145,1384.24 282.145,1384.24 282.146,1384.24 282.146,1384.24 282.146,1384.24 282.147,1384.24 282.147,1384.24 
  282.147,1384.24 282.148,1384.24 282.148,1384.24 282.149,1384.24 282.149,1384.24 282.149,1384.24 282.15,1384.24 282.15,1384.24 282.151,1384.24 282.151,1384.24 
  282.151,1384.24 282.152,1384.24 282.152,1384.24 282.153,1384.24 282.153,1384.24 282.154,1384.24 282.154,1384.24 282.155,1384.24 282.155,1384.24 282.155,1384.24 
  282.156,1384.24 282.156,1384.24 282.157,1384.24 282.157,1384.24 282.158,1384.24 282.158,1384.24 282.159,1384.24 282.16,1384.24 282.16,1384.24 282.161,1384.24 
  282.161,1384.24 282.162,1384.24 282.162,1384.24 282.163,1384.24 282.163,1384.24 282.164,1384.24 282.165,1384.24 282.165,1384.24 282.166,1384.24 282.167,1384.24 
  282.167,1384.24 282.168,1384.24 282.169,1384.24 282.169,1384.24 282.17,1384.24 282.171,1384.24 282.171,1384.24 282.172,1384.24 282.173,1384.24 282.173,1384.24 
  282.174,1384.24 282.175,1384.24 282.176,1384.24 282.176,1384.24 282.177,1384.24 282.178,1384.24 282.179,1384.24 282.18,1384.24 282.18,1384.24 282.181,1384.24 
  282.182,1384.24 282.183,1384.24 282.184,1384.24 282.185,1384.24 282.186,1384.24 282.186,1384.24 282.187,1384.24 282.188,1384.24 282.189,1384.24 282.19,1384.24 
  282.191,1384.24 282.192,1384.24 282.193,1384.24 282.194,1384.24 282.195,1384.24 282.196,1384.24 282.197,1384.24 282.198,1384.24 282.199,1384.24 282.201,1384.24 
  282.202,1384.24 282.203,1384.24 282.204,1384.24 282.205,1384.24 282.206,1384.24 282.207,1384.24 282.209,1384.24 282.21,1384.24 282.211,1384.24 282.212,1384.24 
  282.214,1384.24 282.215,1384.24 282.216,1384.24 282.218,1384.24 282.219,1384.24 282.22,1384.24 282.222,1384.24 282.223,1384.24 282.225,1384.24 282.226,1384.24 
  282.227,1384.24 282.229,1384.24 282.23,1384.24 282.232,1384.24 282.234,1384.24 282.235,1384.24 282.237,1384.24 282.238,1384.24 282.24,1384.24 282.242,1384.24 
  282.243,1384.24 282.245,1384.24 282.247,1384.24 282.249,1384.24 282.25,1384.24 282.252,1384.24 282.254,1384.24 282.256,1384.24 282.258,1384.24 282.26,1384.24 
  282.262,1384.24 282.263,1384.24 282.265,1384.24 282.267,1384.24 282.27,1384.24 282.272,1384.24 282.274,1384.24 282.276,1384.24 282.278,1384.24 282.28,1384.24 
  282.282,1384.24 282.285,1384.24 282.287,1384.24 282.289,1384.24 282.292,1384.24 282.294,1384.24 282.296,1384.24 282.299,1384.24 282.301,1384.24 282.304,1384.24 
  282.306,1384.24 282.309,1384.24 282.312,1384.24 282.314,1384.24 282.317,1384.24 282.32,1384.24 282.323,1384.24 282.325,1384.24 282.328,1384.24 282.331,1384.24 
  282.334,1384.24 282.337,1384.24 282.34,1384.24 282.343,1384.24 282.346,1384.24 282.349,1384.24 282.352,1384.24 282.356,1384.24 282.359,1384.24 282.362,1384.24 
  282.366,1384.24 282.369,1384.24 282.373,1384.24 282.376,1384.24 282.38,1384.24 282.383,1384.24 282.387,1384.24 282.391,1384.24 282.394,1384.24 282.398,1384.24 
  282.402,1384.24 282.406,1384.24 282.41,1384.24 282.414,1384.24 282.418,1384.24 282.422,1384.24 282.426,1384.24 282.431,1384.24 282.435,1384.24 282.439,1384.24 
  282.444,1384.24 282.448,1384.24 282.453,1384.24 282.457,1384.24 282.462,1384.24 282.467,1384.24 282.472,1384.24 282.477,1384.24 282.482,1384.24 282.487,1384.24 
  282.492,1384.24 282.497,1384.24 282.502,1384.24 282.507,1384.24 282.513,1384.24 282.518,1384.24 282.524,1384.24 282.529,1384.24 282.535,1384.24 282.541,1384.24 
  282.547,1384.24 282.553,1384.24 282.559,1384.24 282.565,1384.24 282.571,1384.24 282.577,1384.24 282.584,1384.24 282.59,1384.24 282.597,1384.24 282.603,1384.24 
  282.61,1384.24 282.617,1384.24 282.624,1384.24 282.631,1384.24 282.638,1384.24 282.645,1384.24 282.652,1384.24 282.66,1384.24 282.667,1384.24 282.675,1384.24 
  282.682,1384.24 282.69,1384.24 282.698,1384.24 282.706,1384.24 282.714,1384.24 282.723,1384.24 282.731,1384.24 282.74,1384.24 282.748,1384.24 282.757,1384.24 
  282.766,1384.24 282.775,1384.24 282.784,1384.24 282.793,1384.24 282.802,1384.24 282.812,1384.24 282.822,1384.24 282.831,1384.24 282.841,1384.24 282.851,1384.24 
  282.861,1384.24 282.872,1384.24 282.882,1384.24 282.893,1384.24 282.904,1384.24 282.915,1384.24 282.926,1384.24 282.937,1384.24 282.948,1384.24 282.96,1384.24 
  282.971,1384.24 282.983,1384.24 282.995,1384.24 283.007,1384.24 283.02,1384.24 283.032,1384.24 283.045,1384.24 283.058,1384.24 283.071,1384.24 283.084,1384.24 
  283.098,1384.24 283.111,1384.24 283.125,1384.24 283.139,1384.24 283.153,1384.24 283.167,1384.24 283.182,1384.24 283.197,1384.24 283.212,1384.24 283.227,1384.24 
  283.242,1384.24 283.258,1384.24 283.274,1384.24 283.29,1384.24 283.306,1384.24 283.323,1384.24 283.34,1384.24 283.356,1384.24 283.374,1384.24 283.391,1384.24 
  283.409,1384.24 283.427,1384.24 283.445,1384.24 283.463,1384.24 283.482,1384.24 283.501,1384.24 283.52,1384.24 283.54,1384.24 283.56,1384.24 283.58,1384.24 
  283.6,1384.24 283.621,1384.24 283.641,1384.24 283.663,1384.24 283.684,1384.24 283.706,1384.24 283.728,1384.24 283.75,1384.24 283.773,1384.24 283.796,1384.24 
  283.819,1384.24 283.843,1384.24 283.867,1384.24 283.891,1384.24 283.916,1384.24 283.941,1384.24 283.966,1384.24 283.992,1384.24 284.018,1384.24 284.044,1384.24 
  284.071,1384.24 284.098,1384.24 284.126,1384.24 284.154,1384.24 284.182,1384.24 284.211,1384.24 284.24,1384.24 284.27,1384.24 284.299,1384.24 284.33,1384.24 
  284.361,1384.24 284.392,1384.24 284.423,1384.24 284.455,1384.24 284.488,1384.24 284.521,1384.24 284.554,1384.24 284.588,1384.24 284.623,1384.24 284.657,1384.24 
  284.693,1384.24 284.729,1384.24 284.765,1384.24 284.802,1384.24 284.839,1384.24 284.877,1384.24 284.915,1384.24 284.954,1384.24 284.994,1384.24 285.034,1384.24 
  285.074,1384.24 285.115,1384.24 285.157,1384.24 285.199,1384.24 285.242,1384.24 285.286,1384.24 285.33,1384.24 285.374,1384.24 285.42,1384.24 285.466,1384.24 
  285.512,1384.24 285.56,1384.24 285.607,1384.24 285.656,1384.24 285.705,1384.24 285.755,1384.24 285.806,1384.24 285.857,1384.24 285.909,1384.24 285.962,1384.24 
  286.015,1384.24 286.07,1384.24 286.125,1384.24 286.18,1384.24 286.237,1384.24 286.294,1384.24 286.352,1384.24 286.411,1384.24 286.471,1384.24 286.532,1384.24 
  286.593,1384.24 286.655,1384.24 286.718,1384.24 286.782,1384.24 286.847,1384.24 286.913,1384.24 286.98,1384.24 287.048,1384.24 287.116,1384.24 287.186,1384.24 
  287.256,1384.24 287.328,1384.24 287.4,1384.24 287.474,1384.24 287.548,1384.24 287.624,1384.24 287.701,1384.24 287.778,1384.24 287.857,1384.24 287.937,1384.24 
  288.018,1384.24 288.1,1384.24 288.183,1384.24 288.268,1384.24 288.353,1384.24 288.44,1384.24 288.528,1384.24 288.617,1384.24 288.708,1384.24 288.8,1384.24 
  288.893,1384.24 288.987,1384.24 289.083,1384.24 289.18,1384.24 289.278,1384.24 289.377,1384.24 289.479,1384.24 289.581,1384.24 289.685,1384.24 289.79,1384.24 
  289.897,1384.24 290.005,1384.24 290.115,1384.24 290.226,1384.24 290.339,1384.24 290.454,1384.24 290.57,1384.24 290.687,1384.24 290.807,1384.24 290.928,1384.24 
  291.05,1384.24 291.175,1384.24 291.301,1384.24 291.429,1384.24 291.558,1384.24 291.69,1384.24 291.823,1384.24 291.958,1384.24 292.095,1384.24 292.234,1384.24 
  292.375,1384.24 292.518,1384.24 292.662,1384.24 292.809,1384.24 292.958,1384.24 293.109,1384.24 293.262,1384.24 293.417,1384.24 293.574,1384.24 293.734,1384.24 
  293.896,1384.24 294.06,1384.24 294.226,1384.24 294.394,1384.24 294.565,1384.24 294.739,1384.24 294.914,1384.24 295.093,1384.24 295.273,1384.24 295.456,1384.24 
  295.642,1384.24 295.83,1384.24 296.021,1384.24 296.215,1384.24 296.411,1384.24 296.61,1384.24 296.812,1384.24 297.016,1384.24 297.224,1384.24 297.434,1384.24 
  297.647,1384.24 297.864,1384.24 298.083,1384.24 298.305,1384.24 298.531,1384.24 298.759,1384.24 298.991,1384.24 299.226,1384.24 299.464,1384.24 299.705,1384.24 
  299.95,1384.24 300.199,1384.24 300.45,1384.24 300.705,1384.24 300.964,1384.24 301.227,1384.24 301.493,1384.24 301.763,1384.24 302.036,1384.24 302.313,1384.24 
  302.595,1384.24 302.88,1384.24 303.169,1384.24 303.462,1384.24 303.759,1384.24 304.06,1384.24 304.366,1384.24 304.676,1384.24 304.99,1384.24 305.308,1384.24 
  305.631,1384.24 305.959,1384.24 306.29,1384.24 306.627,1384.24 306.968,1384.24 307.314,1384.24 307.665,1384.24 308.021,1384.24 308.382,1384.24 308.747,1384.24 
  309.118,1384.24 309.494,1384.24 309.875,1384.24 310.262,1384.24 310.654,1384.24 311.051,1384.24 311.454,1384.24 311.862,1384.24 312.276,1384.24 312.696,1384.24 
  313.122,1384.24 313.554,1384.24 313.992,1384.24 314.435,1384.24 314.885,1384.24 315.342,1384.24 315.804,1384.24 316.273,1384.24 316.749,1384.24 317.231,1384.24 
  317.72,1384.24 318.216,1384.24 318.718,1384.24 319.228,1384.24 319.745,1384.24 320.269,1384.24 320.8,1384.24 321.339,1384.24 321.885,1384.24 322.438,1384.24 
  323,1384.24 323.569,1384.24 324.146,1384.24 324.731,1384.24 325.325,1384.24 325.927,1384.24 326.537,1384.24 327.155,1384.24 327.782,1384.24 328.418,1384.24 
  329.063,1384.24 329.716,1384.24 330.379,1384.24 331.051,1384.24 331.733,1384.24 332.423,1384.24 333.124,1384.24 333.834,1384.24 334.554,1384.24 335.284,1384.24 
  336.025,1384.24 336.775,1384.24 337.537,1384.24 338.308,1384.24 339.091,1384.24 339.884,1384.24 340.688,1384.24 341.504,1384.24 342.331,1384.24 343.169,1384.24 
  344.019,1384.24 344.881,1384.24 345.755,1384.24 346.642,1384.24 347.54,1384.24 348.451,1384.24 349.375,1384.24 350.311,1384.24 351.261,1384.24 352.224,1384.24 
  353.2,1384.24 354.19,1384.24 355.193,1384.24 356.211,1384.24 357.243,1384.24 358.289,1384.24 359.349,1384.24 360.425,1384.24 361.515,1384.24 362.621,1384.24 
  363.742,1384.24 364.878,1384.24 366.031,1384.24 367.199,1384.24 368.384,1384.24 369.585,1384.24 370.803,1384.24 372.038,1384.24 373.29,1384.24 374.56,1384.24 
  375.847,1384.24 377.152,1384.24 378.476,1384.24 379.818,1384.24 381.178,1384.24 382.557,1384.24 383.956,1384.24 385.374,1384.24 386.812,1384.24 388.27,1384.24 
  389.748,1384.24 391.247,1384.24 392.766,1384.24 394.307,1384.24 395.869,1384.24 397.453,1384.24 399.06,1384.24 400.688,1384.24 402.339,1384.24 404.013,1384.24 
  405.711,1384.24 407.432,1384.24 409.177,1384.24 410.946,1384.24 412.74,1384.24 414.559,1384.24 416.403,1384.24 418.273,1384.24 420.169,1384.24 422.091,1384.24 
  424.04,1384.24 426.017,1384.24 428.021,1384.24 430.052,1384.24 432.112,1384.24 434.201,1384.24 436.319,1384.24 438.466,1384.24 440.643,1384.24 442.851,1384.24 
  445.089,1384.24 447.358,1384.24 449.659,1384.24 451.992,1384.24 454.358,1384.24 456.756,1384.24 459.188,1384.24 461.654,1384.24 464.154,1384.24 466.689,1384.24 
  469.259,1384.24 471.865,1384.24 474.507,1384.24 477.187,1384.24 479.903,1384.24 482.657,1384.24 485.45,1384.24 488.281,1384.24 491.152,1384.24 494.063,1384.24 
  497.014,1384.24 500.007,1384.24 503.041,1384.24 506.117,1384.24 509.236,1384.24 512.399,1384.24 515.606,1384.24 518.857,1384.24 522.154,1384.24 525.496,1384.24 
  528.886,1384.23 532.322,1384.23 535.806,1384.23 539.339,1384.23 542.921,1384.23 546.552,1384.22 550.235,1384.22 553.968,1384.21 557.754,1384.21 561.592,1384.2 
  565.484,1384.19 569.43,1384.17 573.431,1384.16 577.487,1384.14 581.6,1384.11 585.771,1384.08 589.999,1384.04 594.287,1383.99 598.634,1383.93 603.041,1383.85 
  607.51,1383.77 612.041,1383.66 616.636,1383.53 621.294,1383.38 626.017,1383.2 630.806,1382.99 635.661,1382.73 640.585,1382.43 645.576,1382.08 650.638,1381.67 
  655.769,1381.19 660.973,1380.64 666.248,1379.99 671.597,1379.25 677.021,1378.4 682.52,1377.42 688.096,1376.3 693.749,1375.03 699.481,1373.59 705.293,1371.95 
  711.186,1370.11 717.161,1368.03 723.219,1365.7 729.362,1363.1 735.59,1360.2 741.905,1356.98 748.307,1353.4 754.799,1349.45 761.381,1345.09 768.055,1340.3 
  774.822,1335.05 781.683,1329.32 788.64,1323.06 795.693,1316.25 802.845,1308.87 810.096,1300.88 817.448,1292.27 824.903,1282.99 832.462,1273.03 840.125,1262.37 
  847.896,1250.98 855.774,1238.84 863.763,1225.93 871.862,1212.25 880.075,1197.76 888.402,1182.48 896.844,1166.39 905.404,1149.48 914.084,1131.76 922.884,1113.23 
  931.807,1093.9 940.854,1073.78 950.028,1052.89 959.328,1031.24 968.759,1008.86 978.32,985.777 988.015,962.02 997.845,937.626 1007.81,912.634 1017.92,887.087 
  1028.16,861.031 1038.55,834.518 1049.09,807.598 1059.77,780.33 1070.6,752.771 1081.58,724.984 1092.71,697.03 1104,668.977 1115.44,640.89 1127.05,612.837 
  1138.81,584.889 1150.74,557.113 1162.84,529.581 1175.1,502.361 1187.54,475.522 1200.14,449.133 1212.93,423.262 1225.89,397.972 1239.03,373.329 1252.36,349.394 
  1265.87,326.226 1279.57,303.882 1293.46,282.416 1307.54,261.879 1321.82,242.317 1336.3,223.776 1350.98,206.295 1365.86,189.911 1380.95,174.656 1396.26,160.56 
  1411.77,147.647 1427.5,135.938 1443.45,125.45 1459.62,116.195 1476.02,108.182 1492.65,101.415 1509.5,95.8967 1526.6,91.6228 1543.93,88.587 1561.5,86.7791 
  1579.31,86.1857 1597.38,86.7898 1615.69,88.5715 1634.26,91.5081 1653.09,95.574 1672.18,100.741 1691.54,106.978 1711.17,114.254 1731.07,122.533 1751.24,131.778 
  1771.7,141.953 1792.45,153.017 1813.48,164.93 1834.8,177.651 1856.42,191.137 1878.35,205.345 1900.57,220.232 1923.11,235.755 1945.96,251.869 1969.13,268.532 
  1992.63,285.699 2016.45,303.328 2040.6,321.376 2065.08,339.802 2089.91,358.564 2115.09,377.621 2140.61,396.934 2166.49,416.465 2192.73,436.176 2219.34,456.031 
  2246.31,475.996 2273.67,496.035 2301.4,516.117 2329.52,536.211 2358.03,556.287 2386.94,576.316 2416.25,596.272 2445.97,616.129 2476.1,635.862 2506.65,655.45 
  2537.63,674.87 2569.04,694.103 2600.88,713.13 2633.17,731.934 2665.91,750.499 2699.11,768.811 2732.77,786.855 2766.89,804.62 2801.49,822.095 2836.58,839.27 
  2872.15,856.136 2908.22,872.685 2944.79,888.912 2981.86,904.809 3019.46,920.373 3057.58,935.6 3096.23,950.487 3135.41,965.031 3175.15,979.231 3215.43,993.086 
  3256.28,1006.6 3297.7,1019.76 3339.69,1032.59 3382.27,1045.07 3425.44,1057.22 3469.21,1069.02 3513.59,1080.5 3558.59,1091.65 3604.22,1102.47 3650.48,1112.97 
  3697.39,1123.15 3744.95,1133.02 3793.17,1142.59 3842.06,1151.85 3891.63,1160.82 3941.9,1169.5 3992.86,1177.9 4044.54,1186.01 4096.93,1193.86 4150.05,1201.44 
  4203.91,1208.76 4258.53,1215.83 4313.9,1222.64 4370.04,1229.22 4426.97,1235.57 4484.69,1241.68 4543.21,1247.58 4602.55,1253.26 4662.71,1258.72 4723.71,1263.99 
  4785.56,1269.05 4848.28,1273.93 4911.86,1278.62 4976.33,1283.13 5041.7,1287.46 5107.98,1291.63 5175.18,1295.63 5243.32,1299.48 5312.41,1303.17 5382.46,1306.71 
  5453.48,1310.12 5525.49,1313.38 5598.51,1316.51 5672.54,1319.52 5747.61,1322.4 5823.72,1325.16 5900.89,1327.81 5979.13,1330.34 6058.46,1332.77 6138.9,1335.1 
  6220.46,1337.33 6303.15,1339.46 6387,1341.51 6472.01,1343.46 6558.21,1345.33 6645.6,1347.12 6734.22,1348.83 6824.07,1350.47 6915.17,1352.04 7007.53,1353.53 
  7101.19,1354.96 7196.15,1356.33 7292.43,1357.64 7390.05,1358.89 7489.03,1360.08 7589.39,1361.22 7691.14,1362.3 7794.32,1363.34 7898.93,1364.33 8005,1365.28 
  8112.54,1366.18 8221.58,1367.05 8332.14,1367.87 8444.24,1368.65 8557.9,1369.4 8673.15,1370.11 8789.99,1370.79 8908.47,1371.44 9028.6,1372.06 9150.39,1372.65 
  9273.89,1373.21 9399.1,1373.75 9526.06,1374.26 9654.79,1374.75 9785.3,1375.21 9917.64,1375.65 10051.8,1376.07 10187.9,1376.47 10325.8,1376.85 10465.7,1377.22 
  10607.5,1377.56 10751.3,1377.89 10897.1,1378.21 11044.9,1378.5 11194.7,1378.79 11346.7,1379.06 11500.8,1379.32 11657,1379.56 11815.4,1379.79 11976,1380.02 
  12138.9,1380.23 12304,1380.43 12471.4,1380.62 12641.1,1380.8 12813.2,1380.97 12987.7,1381.14 13164.7,1381.29 13344,1381.44 13525.9,1381.58 13710.4,1381.71 
  
  "/>
<path clip-path="url(#clip230)" d="
M1900.73 214.069 L2286.33 214.069 L2286.33 93.1086 L1900.73 93.1086  Z
  " fill="#ffffff" fill-rule="evenodd" fill-opacity="1"/>
<polyline clip-path="url(#clip230)" style="stroke:#000000; stroke-linecap:butt; stroke-linejoin:round; stroke-width:4; stroke-opacity:1; fill:none" points="
  1900.73,214.069 2286.33,214.069 2286.33,93.1086 1900.73,93.1086 1900.73,214.069 
  "/>
<polyline clip-path="url(#clip230)" style="stroke:#000000; stroke-linecap:butt; stroke-linejoin:round; stroke-width:4; stroke-opacity:1; fill:none" points="
  1922.87,153.589 2055.72,153.589 
  "/>
<path clip-path="url(#clip230)" d="M2093.48 152.234 Q2096.84 152.952 2098.71 155.221 Q2100.61 157.489 2100.61 160.822 Q2100.61 165.938 2097.09 168.739 Q2093.58 171.54 2087.09 171.54 Q2084.92 171.54 2082.6 171.1 Q2080.31 170.683 2077.86 169.827 L2077.86 165.313 Q2079.8 166.447 2082.12 167.026 Q2084.43 167.605 2086.96 167.605 Q2091.35 167.605 2093.65 165.869 Q2095.96 164.133 2095.96 160.822 Q2095.96 157.767 2093.81 156.054 Q2091.68 154.318 2087.86 154.318 L2083.83 154.318 L2083.83 150.475 L2088.04 150.475 Q2091.49 150.475 2093.32 149.109 Q2095.15 147.721 2095.15 145.128 Q2095.15 142.466 2093.25 141.054 Q2091.38 139.619 2087.86 139.619 Q2085.94 139.619 2083.74 140.035 Q2081.54 140.452 2078.9 141.332 L2078.9 137.165 Q2081.56 136.424 2083.88 136.054 Q2086.21 135.684 2088.28 135.684 Q2093.6 135.684 2096.7 138.114 Q2099.8 140.522 2099.8 144.642 Q2099.8 147.512 2098.16 149.503 Q2096.52 151.471 2093.48 152.234 Z" fill="#000000" fill-rule="evenodd" fill-opacity="1" /><path clip-path="url(#clip230)" d="M2119.48 139.387 Q2115.87 139.387 2114.04 142.952 Q2112.23 146.494 2112.23 153.623 Q2112.23 160.73 2114.04 164.295 Q2115.87 167.836 2119.48 167.836 Q2123.11 167.836 2124.92 164.295 Q2126.75 160.73 2126.75 153.623 Q2126.75 146.494 2124.92 142.952 Q2123.11 139.387 2119.48 139.387 M2119.48 135.684 Q2125.29 135.684 2128.34 140.29 Q2131.42 144.873 2131.42 153.623 Q2131.42 162.35 2128.34 166.957 Q2125.29 171.54 2119.48 171.54 Q2113.67 171.54 2110.59 166.957 Q2107.53 162.35 2107.53 153.623 Q2107.53 144.873 2110.59 140.29 Q2113.67 135.684 2119.48 135.684 Z" fill="#000000" fill-rule="evenodd" fill-opacity="1" /><path clip-path="url(#clip230)" d="M2149.64 139.387 Q2146.03 139.387 2144.2 142.952 Q2142.4 146.494 2142.4 153.623 Q2142.4 160.73 2144.2 164.295 Q2146.03 167.836 2149.64 167.836 Q2153.27 167.836 2155.08 164.295 Q2156.91 160.73 2156.91 153.623 Q2156.91 146.494 2155.08 142.952 Q2153.27 139.387 2149.64 139.387 M2149.64 135.684 Q2155.45 135.684 2158.51 140.29 Q2161.58 144.873 2161.58 153.623 Q2161.58 162.35 2158.51 166.957 Q2155.45 171.54 2149.64 171.54 Q2143.83 171.54 2140.75 166.957 Q2137.7 162.35 2137.7 153.623 Q2137.7 144.873 2140.75 140.29 Q2143.83 135.684 2149.64 135.684 Z" fill="#000000" fill-rule="evenodd" fill-opacity="1" /><path clip-path="url(#clip230)" d="M2179.8 139.387 Q2176.19 139.387 2174.36 142.952 Q2172.56 146.494 2172.56 153.623 Q2172.56 160.73 2174.36 164.295 Q2176.19 167.836 2179.8 167.836 Q2183.44 167.836 2185.24 164.295 Q2187.07 160.73 2187.07 153.623 Q2187.07 146.494 2185.24 142.952 Q2183.44 139.387 2179.8 139.387 M2179.8 135.684 Q2185.61 135.684 2188.67 140.29 Q2191.75 144.873 2191.75 153.623 Q2191.75 162.35 2188.67 166.957 Q2185.61 171.54 2179.8 171.54 Q2173.99 171.54 2170.91 166.957 Q2167.86 162.35 2167.86 153.623 Q2167.86 144.873 2170.91 140.29 Q2173.99 135.684 2179.8 135.684 Z" fill="#000000" fill-rule="evenodd" fill-opacity="1" /><path clip-path="url(#clip230)" d="M2214.62 136.309 L2219.29 136.309 L2219.29 150.915 L2234.8 136.309 L2240.82 136.309 L2223.67 152.42 L2242.05 170.869 L2235.89 170.869 L2219.29 154.225 L2219.29 170.869 L2214.62 170.869 L2214.62 136.309 Z" fill="#000000" fill-rule="evenodd" fill-opacity="1" /></svg>
