<?xml version="1.0" encoding="utf-8"?>
<svg xmlns="http://www.w3.org/2000/svg" xmlns:xlink="http://www.w3.org/1999/xlink" width="600" height="400" viewBox="0 0 2400 1600">
<defs>
  <clipPath id="clip010">
    <rect x="0" y="0" width="2400" height="1600"/>
  </clipPath>
</defs>
<path clip-path="url(#clip010)" d="
M0 1600 L2400 1600 L2400 0 L0 0  Z
  " fill="#ffffff" fill-rule="evenodd" fill-opacity="1"/>
<defs>
  <clipPath id="clip011">
    <rect x="480" y="0" width="1681" height="1600"/>
  </clipPath>
</defs>
<path clip-path="url(#clip010)" d="
M369.703 1423.18 L2352.76 1423.18 L2352.76 47.2441 L369.703 47.2441  Z
  " fill="#ffffff" fill-rule="evenodd" fill-opacity="1"/>
<defs>
  <clipPath id="clip012">
    <rect x="369" y="47" width="1984" height="1377"/>
  </clipPath>
</defs>
<polyline clip-path="url(#clip012)" style="stroke:#000000; stroke-linecap:butt; stroke-linejoin:round; stroke-width:2; stroke-opacity:0.1; fill:none" points="
  626.108,1423.18 626.108,47.2441 
  "/>
<polyline clip-path="url(#clip012)" style="stroke:#000000; stroke-linecap:butt; stroke-linejoin:round; stroke-width:2; stroke-opacity:0.1; fill:none" points="
  1081.29,1423.18 1081.29,47.2441 
  "/>
<polyline clip-path="url(#clip012)" style="stroke:#000000; stroke-linecap:butt; stroke-linejoin:round; stroke-width:2; stroke-opacity:0.1; fill:none" points="
  1536.48,1423.18 1536.48,47.2441 
  "/>
<polyline clip-path="url(#clip012)" style="stroke:#000000; stroke-linecap:butt; stroke-linejoin:round; stroke-width:2; stroke-opacity:0.1; fill:none" points="
  1991.66,1423.18 1991.66,47.2441 
  "/>
<polyline clip-path="url(#clip010)" style="stroke:#000000; stroke-linecap:butt; stroke-linejoin:round; stroke-width:4; stroke-opacity:1; fill:none" points="
  369.703,1423.18 2352.76,1423.18 
  "/>
<polyline clip-path="url(#clip010)" style="stroke:#000000; stroke-linecap:butt; stroke-linejoin:round; stroke-width:4; stroke-opacity:1; fill:none" points="
  626.108,1423.18 626.108,1404.28 
  "/>
<polyline clip-path="url(#clip010)" style="stroke:#000000; stroke-linecap:butt; stroke-linejoin:round; stroke-width:4; stroke-opacity:1; fill:none" points="
  1081.29,1423.18 1081.29,1404.28 
  "/>
<polyline clip-path="url(#clip010)" style="stroke:#000000; stroke-linecap:butt; stroke-linejoin:round; stroke-width:4; stroke-opacity:1; fill:none" points="
  1536.48,1423.18 1536.48,1404.28 
  "/>
<polyline clip-path="url(#clip010)" style="stroke:#000000; stroke-linecap:butt; stroke-linejoin:round; stroke-width:4; stroke-opacity:1; fill:none" points="
  1991.66,1423.18 1991.66,1404.28 
  "/>
<path clip-path="url(#clip010)" d="M585.715 1479.92 L593.354 1479.92 L593.354 1453.55 L585.044 1455.22 L585.044 1450.96 L593.308 1449.29 L597.983 1449.29 L597.983 1479.92 L605.622 1479.92 L605.622 1483.85 L585.715 1483.85 L585.715 1479.92 Z" fill="#000000" fill-rule="evenodd" fill-opacity="1" /><path clip-path="url(#clip010)" d="M625.067 1452.37 Q621.456 1452.37 619.627 1455.94 Q617.821 1459.48 617.821 1466.61 Q617.821 1473.71 619.627 1477.28 Q621.456 1480.82 625.067 1480.82 Q628.701 1480.82 630.506 1477.28 Q632.335 1473.71 632.335 1466.61 Q632.335 1459.48 630.506 1455.94 Q628.701 1452.37 625.067 1452.37 M625.067 1448.67 Q630.877 1448.67 633.932 1453.27 Q637.011 1457.86 637.011 1466.61 Q637.011 1475.33 633.932 1479.94 Q630.877 1484.52 625.067 1484.52 Q619.256 1484.52 616.178 1479.94 Q613.122 1475.33 613.122 1466.61 Q613.122 1457.86 616.178 1453.27 Q619.256 1448.67 625.067 1448.67 Z" fill="#000000" fill-rule="evenodd" fill-opacity="1" /><path clip-path="url(#clip010)" d="M655.229 1452.37 Q651.617 1452.37 649.789 1455.94 Q647.983 1459.48 647.983 1466.61 Q647.983 1473.71 649.789 1477.28 Q651.617 1480.82 655.229 1480.82 Q658.863 1480.82 660.668 1477.28 Q662.497 1473.71 662.497 1466.61 Q662.497 1459.48 660.668 1455.94 Q658.863 1452.37 655.229 1452.37 M655.229 1448.67 Q661.039 1448.67 664.094 1453.27 Q667.173 1457.86 667.173 1466.61 Q667.173 1475.33 664.094 1479.94 Q661.039 1484.52 655.229 1484.52 Q649.418 1484.52 646.34 1479.94 Q643.284 1475.33 643.284 1466.61 Q643.284 1457.86 646.34 1453.27 Q649.418 1448.67 655.229 1448.67 Z" fill="#000000" fill-rule="evenodd" fill-opacity="1" /><path clip-path="url(#clip010)" d="M1044.98 1479.92 L1061.3 1479.92 L1061.3 1483.85 L1039.36 1483.85 L1039.36 1479.92 Q1042.02 1477.16 1046.6 1472.53 Q1051.21 1467.88 1052.39 1466.54 Q1054.64 1464.01 1055.52 1462.28 Q1056.42 1460.52 1056.42 1458.83 Q1056.42 1456.07 1054.47 1454.34 Q1052.55 1452.6 1049.45 1452.6 Q1047.25 1452.6 1044.8 1453.37 Q1042.37 1454.13 1039.59 1455.68 L1039.59 1450.96 Q1042.41 1449.82 1044.87 1449.25 Q1047.32 1448.67 1049.36 1448.67 Q1054.73 1448.67 1057.92 1451.35 Q1061.12 1454.04 1061.12 1458.53 Q1061.12 1460.66 1060.31 1462.58 Q1059.52 1464.48 1057.41 1467.07 Q1056.84 1467.74 1053.73 1470.96 Q1050.63 1474.15 1044.98 1479.92 Z" fill="#000000" fill-rule="evenodd" fill-opacity="1" /><path clip-path="url(#clip010)" d="M1081.12 1452.37 Q1077.51 1452.37 1075.68 1455.94 Q1073.87 1459.48 1073.87 1466.61 Q1073.87 1473.71 1075.68 1477.28 Q1077.51 1480.82 1081.12 1480.82 Q1084.75 1480.82 1086.56 1477.28 Q1088.39 1473.71 1088.39 1466.61 Q1088.39 1459.48 1086.56 1455.94 Q1084.75 1452.37 1081.12 1452.37 M1081.12 1448.67 Q1086.93 1448.67 1089.98 1453.27 Q1093.06 1457.86 1093.06 1466.61 Q1093.06 1475.33 1089.98 1479.94 Q1086.93 1484.52 1081.12 1484.52 Q1075.31 1484.52 1072.23 1479.94 Q1069.17 1475.33 1069.17 1466.61 Q1069.17 1457.86 1072.23 1453.27 Q1075.31 1448.67 1081.12 1448.67 Z" fill="#000000" fill-rule="evenodd" fill-opacity="1" /><path clip-path="url(#clip010)" d="M1111.28 1452.37 Q1107.67 1452.37 1105.84 1455.94 Q1104.03 1459.48 1104.03 1466.61 Q1104.03 1473.71 1105.84 1477.28 Q1107.67 1480.82 1111.28 1480.82 Q1114.91 1480.82 1116.72 1477.28 Q1118.55 1473.71 1118.55 1466.61 Q1118.55 1459.48 1116.72 1455.94 Q1114.91 1452.37 1111.28 1452.37 M1111.28 1448.67 Q1117.09 1448.67 1120.15 1453.27 Q1123.22 1457.86 1123.22 1466.61 Q1123.22 1475.33 1120.15 1479.94 Q1117.09 1484.52 1111.28 1484.52 Q1105.47 1484.52 1102.39 1479.94 Q1099.34 1475.33 1099.34 1466.61 Q1099.34 1457.86 1102.39 1453.27 Q1105.47 1448.67 1111.28 1448.67 Z" fill="#000000" fill-rule="evenodd" fill-opacity="1" /><path clip-path="url(#clip010)" d="M1510.24 1465.22 Q1513.59 1465.94 1515.47 1468.2 Q1517.37 1470.47 1517.37 1473.81 Q1517.37 1478.92 1513.85 1481.72 Q1510.33 1484.52 1503.85 1484.52 Q1501.67 1484.52 1499.36 1484.08 Q1497.07 1483.67 1494.61 1482.81 L1494.61 1478.3 Q1496.56 1479.43 1498.87 1480.01 Q1501.19 1480.59 1503.71 1480.59 Q1508.11 1480.59 1510.4 1478.85 Q1512.71 1477.12 1512.71 1473.81 Q1512.71 1470.75 1510.56 1469.04 Q1508.43 1467.3 1504.61 1467.3 L1500.58 1467.3 L1500.58 1463.46 L1504.8 1463.46 Q1508.25 1463.46 1510.07 1462.09 Q1511.9 1460.7 1511.9 1458.11 Q1511.9 1455.45 1510.01 1454.04 Q1508.13 1452.6 1504.61 1452.6 Q1502.69 1452.6 1500.49 1453.02 Q1498.29 1453.44 1495.65 1454.31 L1495.65 1450.15 Q1498.32 1449.41 1500.63 1449.04 Q1502.97 1448.67 1505.03 1448.67 Q1510.35 1448.67 1513.45 1451.1 Q1516.56 1453.5 1516.56 1457.63 Q1516.56 1460.5 1514.91 1462.49 Q1513.27 1464.45 1510.24 1465.22 Z" fill="#000000" fill-rule="evenodd" fill-opacity="1" /><path clip-path="url(#clip010)" d="M1536.23 1452.37 Q1532.62 1452.37 1530.79 1455.94 Q1528.99 1459.48 1528.99 1466.61 Q1528.99 1473.71 1530.79 1477.28 Q1532.62 1480.82 1536.23 1480.82 Q1539.87 1480.82 1541.67 1477.28 Q1543.5 1473.71 1543.5 1466.61 Q1543.5 1459.48 1541.67 1455.94 Q1539.87 1452.37 1536.23 1452.37 M1536.23 1448.67 Q1542.04 1448.67 1545.1 1453.27 Q1548.18 1457.86 1548.18 1466.61 Q1548.18 1475.33 1545.1 1479.94 Q1542.04 1484.52 1536.23 1484.52 Q1530.42 1484.52 1527.34 1479.94 Q1524.29 1475.33 1524.29 1466.61 Q1524.29 1457.86 1527.34 1453.27 Q1530.42 1448.67 1536.23 1448.67 Z" fill="#000000" fill-rule="evenodd" fill-opacity="1" /><path clip-path="url(#clip010)" d="M1566.39 1452.37 Q1562.78 1452.37 1560.95 1455.94 Q1559.15 1459.48 1559.15 1466.61 Q1559.15 1473.71 1560.95 1477.28 Q1562.78 1480.82 1566.39 1480.82 Q1570.03 1480.82 1571.83 1477.28 Q1573.66 1473.71 1573.66 1466.61 Q1573.66 1459.48 1571.83 1455.94 Q1570.03 1452.37 1566.39 1452.37 M1566.39 1448.67 Q1572.2 1448.67 1575.26 1453.27 Q1578.34 1457.86 1578.34 1466.61 Q1578.34 1475.33 1575.26 1479.94 Q1572.2 1484.52 1566.39 1484.52 Q1560.58 1484.52 1557.51 1479.94 Q1554.45 1475.33 1554.45 1466.61 Q1554.45 1457.86 1557.51 1453.27 Q1560.58 1448.67 1566.39 1448.67 Z" fill="#000000" fill-rule="evenodd" fill-opacity="1" /><path clip-path="url(#clip010)" d="M1964.75 1453.37 L1952.94 1471.81 L1964.75 1471.81 L1964.75 1453.37 M1963.52 1449.29 L1969.4 1449.29 L1969.4 1471.81 L1974.33 1471.81 L1974.33 1475.7 L1969.4 1475.7 L1969.4 1483.85 L1964.75 1483.85 L1964.75 1475.7 L1949.15 1475.7 L1949.15 1471.19 L1963.52 1449.29 Z" fill="#000000" fill-rule="evenodd" fill-opacity="1" /><path clip-path="url(#clip010)" d="M1992.06 1452.37 Q1988.45 1452.37 1986.62 1455.94 Q1984.82 1459.48 1984.82 1466.61 Q1984.82 1473.71 1986.62 1477.28 Q1988.45 1480.82 1992.06 1480.82 Q1995.7 1480.82 1997.5 1477.28 Q1999.33 1473.71 1999.33 1466.61 Q1999.33 1459.48 1997.5 1455.94 Q1995.7 1452.37 1992.06 1452.37 M1992.06 1448.67 Q1997.87 1448.67 2000.93 1453.27 Q2004.01 1457.86 2004.01 1466.61 Q2004.01 1475.33 2000.93 1479.94 Q1997.87 1484.52 1992.06 1484.52 Q1986.25 1484.52 1983.18 1479.94 Q1980.12 1475.33 1980.12 1466.61 Q1980.12 1457.86 1983.18 1453.27 Q1986.25 1448.67 1992.06 1448.67 Z" fill="#000000" fill-rule="evenodd" fill-opacity="1" /><path clip-path="url(#clip010)" d="M2022.23 1452.37 Q2018.61 1452.37 2016.79 1455.94 Q2014.98 1459.48 2014.98 1466.61 Q2014.98 1473.71 2016.79 1477.28 Q2018.61 1480.82 2022.23 1480.82 Q2025.86 1480.82 2027.67 1477.28 Q2029.49 1473.71 2029.49 1466.61 Q2029.49 1459.48 2027.67 1455.94 Q2025.86 1452.37 2022.23 1452.37 M2022.23 1448.67 Q2028.04 1448.67 2031.09 1453.27 Q2034.17 1457.86 2034.17 1466.61 Q2034.17 1475.33 2031.09 1479.94 Q2028.04 1484.52 2022.23 1484.52 Q2016.42 1484.52 2013.34 1479.94 Q2010.28 1475.33 2010.28 1466.61 Q2010.28 1457.86 2013.34 1453.27 Q2016.42 1448.67 2022.23 1448.67 Z" fill="#000000" fill-rule="evenodd" fill-opacity="1" /><path clip-path="url(#clip010)" d="M1149.49 1525.81 L1149.49 1562.76 L1157.26 1562.76 Q1167.09 1562.76 1171.64 1558.3 Q1176.23 1553.85 1176.23 1544.24 Q1176.23 1534.69 1171.64 1530.26 Q1167.09 1525.81 1157.26 1525.81 L1149.49 1525.81 M1143.06 1520.52 L1156.27 1520.52 Q1170.08 1520.52 1176.54 1526.28 Q1183.01 1532.01 1183.01 1544.24 Q1183.01 1556.52 1176.51 1562.28 Q1170.02 1568.04 1156.27 1568.04 L1143.06 1568.04 L1143.06 1520.52 Z" fill="#000000" fill-rule="evenodd" fill-opacity="1" /><path clip-path="url(#clip010)" d="M1193 1532.4 L1198.86 1532.4 L1198.86 1568.04 L1193 1568.04 L1193 1532.4 M1193 1518.52 L1198.86 1518.52 L1198.86 1525.93 L1193 1525.93 L1193 1518.52 Z" fill="#000000" fill-rule="evenodd" fill-opacity="1" /><path clip-path="url(#clip010)" d="M1233.84 1533.45 L1233.84 1538.98 Q1231.35 1537.71 1228.68 1537.07 Q1226.01 1536.44 1223.14 1536.44 Q1218.78 1536.44 1216.58 1537.77 Q1214.42 1539.11 1214.42 1541.79 Q1214.42 1543.82 1215.98 1545 Q1217.54 1546.15 1222.25 1547.2 L1224.26 1547.64 Q1230.49 1548.98 1233.1 1551.43 Q1235.75 1553.85 1235.75 1558.21 Q1235.75 1563.17 1231.8 1566.07 Q1227.88 1568.97 1221.01 1568.97 Q1218.14 1568.97 1215.03 1568.39 Q1211.94 1567.85 1208.5 1566.74 L1208.5 1560.69 Q1211.75 1562.38 1214.9 1563.24 Q1218.05 1564.07 1221.14 1564.07 Q1225.27 1564.07 1227.5 1562.66 Q1229.73 1561.23 1229.73 1558.65 Q1229.73 1556.27 1228.11 1554.99 Q1226.52 1553.72 1221.07 1552.54 L1219.04 1552.07 Q1213.59 1550.92 1211.17 1548.56 Q1208.76 1546.18 1208.76 1542.04 Q1208.76 1537.01 1212.32 1534.27 Q1215.88 1531.54 1222.44 1531.54 Q1225.69 1531.54 1228.55 1532.01 Q1231.42 1532.49 1233.84 1533.45 Z" fill="#000000" fill-rule="evenodd" fill-opacity="1" /><path clip-path="url(#clip010)" d="M1250.86 1522.27 L1250.86 1532.4 L1262.93 1532.4 L1262.93 1536.95 L1250.86 1536.95 L1250.86 1556.3 Q1250.86 1560.66 1252.04 1561.9 Q1253.25 1563.14 1256.91 1563.14 L1262.93 1563.14 L1262.93 1568.04 L1256.91 1568.04 Q1250.13 1568.04 1247.55 1565.53 Q1244.98 1562.98 1244.98 1556.3 L1244.98 1536.95 L1240.68 1536.95 L1240.68 1532.4 L1244.98 1532.4 L1244.98 1522.27 L1250.86 1522.27 Z" fill="#000000" fill-rule="evenodd" fill-opacity="1" /><path clip-path="url(#clip010)" d="M1286.83 1550.12 Q1279.73 1550.12 1277 1551.75 Q1274.26 1553.37 1274.26 1557.29 Q1274.26 1560.4 1276.3 1562.25 Q1278.36 1564.07 1281.9 1564.07 Q1286.77 1564.07 1289.7 1560.63 Q1292.66 1557.16 1292.66 1551.43 L1292.66 1550.12 L1286.83 1550.12 M1298.51 1547.71 L1298.51 1568.04 L1292.66 1568.04 L1292.66 1562.63 Q1290.65 1565.88 1287.66 1567.44 Q1284.67 1568.97 1280.34 1568.97 Q1274.86 1568.97 1271.62 1565.91 Q1268.4 1562.82 1268.4 1557.67 Q1268.4 1551.65 1272.41 1548.6 Q1276.45 1545.54 1284.44 1545.54 L1292.66 1545.54 L1292.66 1544.97 Q1292.66 1540.93 1289.98 1538.73 Q1287.34 1536.5 1282.53 1536.5 Q1279.48 1536.5 1276.58 1537.23 Q1273.69 1537.97 1271.01 1539.43 L1271.01 1534.02 Q1274.23 1532.78 1277.25 1532.17 Q1280.27 1531.54 1283.14 1531.54 Q1290.87 1531.54 1294.69 1535.55 Q1298.51 1539.56 1298.51 1547.71 Z" fill="#000000" fill-rule="evenodd" fill-opacity="1" /><path clip-path="url(#clip010)" d="M1340.21 1546.53 L1340.21 1568.04 L1334.35 1568.04 L1334.35 1546.72 Q1334.35 1541.66 1332.38 1539.14 Q1330.4 1536.63 1326.46 1536.63 Q1321.71 1536.63 1318.98 1539.65 Q1316.24 1542.68 1316.24 1547.9 L1316.24 1568.04 L1310.35 1568.04 L1310.35 1532.4 L1316.24 1532.4 L1316.24 1537.93 Q1318.34 1534.72 1321.17 1533.13 Q1324.04 1531.54 1327.76 1531.54 Q1333.9 1531.54 1337.06 1535.36 Q1340.21 1539.14 1340.21 1546.53 Z" fill="#000000" fill-rule="evenodd" fill-opacity="1" /><path clip-path="url(#clip010)" d="M1349.34 1532.4 L1377.16 1532.4 L1377.16 1537.74 L1355.13 1563.37 L1377.16 1563.37 L1377.16 1568.04 L1348.55 1568.04 L1348.55 1562.7 L1370.57 1537.07 L1349.34 1537.07 L1349.34 1532.4 Z" fill="#000000" fill-rule="evenodd" fill-opacity="1" /><path clip-path="url(#clip010)" d="M1406.28 1518.52 L1419.78 1518.52 L1419.78 1523.07 L1412.14 1523.07 L1412.14 1572.09 L1419.78 1572.09 L1419.78 1576.64 L1406.28 1576.64 L1406.28 1518.52 Z" fill="#000000" fill-rule="evenodd" fill-opacity="1" /><path clip-path="url(#clip010)" d="M1432.51 1520.52 L1442.09 1520.52 L1454.22 1552.86 L1466.41 1520.52 L1475.99 1520.52 L1475.99 1568.04 L1469.72 1568.04 L1469.72 1526.32 L1457.46 1558.91 L1451 1558.91 L1438.75 1526.32 L1438.75 1568.04 L1432.51 1568.04 L1432.51 1520.52 Z" fill="#000000" fill-rule="evenodd" fill-opacity="1" /><path clip-path="url(#clip010)" d="M1494.16 1562.7 L1494.16 1581.6 L1488.27 1581.6 L1488.27 1532.4 L1494.16 1532.4 L1494.16 1537.81 Q1496.01 1534.62 1498.81 1533.1 Q1501.64 1531.54 1505.56 1531.54 Q1512.05 1531.54 1516.09 1536.69 Q1520.17 1541.85 1520.17 1550.25 Q1520.17 1558.65 1516.09 1563.81 Q1512.05 1568.97 1505.56 1568.97 Q1501.64 1568.97 1498.81 1567.44 Q1496.01 1565.88 1494.16 1562.7 M1514.09 1550.25 Q1514.09 1543.79 1511.41 1540.13 Q1508.77 1536.44 1504.12 1536.44 Q1499.48 1536.44 1496.8 1540.13 Q1494.16 1543.79 1494.16 1550.25 Q1494.16 1556.71 1496.8 1560.4 Q1499.48 1564.07 1504.12 1564.07 Q1508.77 1564.07 1511.41 1560.4 Q1514.09 1556.71 1514.09 1550.25 Z" fill="#000000" fill-rule="evenodd" fill-opacity="1" /><path clip-path="url(#clip010)" d="M1555.53 1533.76 L1555.53 1539.24 Q1553.04 1537.87 1550.53 1537.2 Q1548.05 1536.5 1545.5 1536.5 Q1539.8 1536.5 1536.65 1540.13 Q1533.5 1543.73 1533.5 1550.25 Q1533.5 1556.78 1536.65 1560.4 Q1539.8 1564 1545.5 1564 Q1548.05 1564 1550.53 1563.33 Q1553.04 1562.63 1555.53 1561.26 L1555.53 1566.68 Q1553.08 1567.82 1550.43 1568.39 Q1547.82 1568.97 1544.86 1568.97 Q1536.81 1568.97 1532.07 1563.91 Q1527.33 1558.85 1527.33 1550.25 Q1527.33 1541.53 1532.1 1536.53 Q1536.91 1531.54 1545.25 1531.54 Q1547.95 1531.54 1550.53 1532.11 Q1553.11 1532.65 1555.53 1533.76 Z" fill="#000000" fill-rule="evenodd" fill-opacity="1" /><path clip-path="url(#clip010)" d="M1579.4 1518.52 L1579.4 1576.64 L1565.9 1576.64 L1565.9 1572.09 L1573.51 1572.09 L1573.51 1523.07 L1565.9 1523.07 L1565.9 1518.52 L1579.4 1518.52 Z" fill="#000000" fill-rule="evenodd" fill-opacity="1" /><polyline clip-path="url(#clip012)" style="stroke:#000000; stroke-linecap:butt; stroke-linejoin:round; stroke-width:2; stroke-opacity:0.1; fill:none" points="
  369.703,1335.51 2352.76,1335.51 
  "/>
<polyline clip-path="url(#clip012)" style="stroke:#000000; stroke-linecap:butt; stroke-linejoin:round; stroke-width:2; stroke-opacity:0.1; fill:none" points="
  369.703,1109.92 2352.76,1109.92 
  "/>
<polyline clip-path="url(#clip012)" style="stroke:#000000; stroke-linecap:butt; stroke-linejoin:round; stroke-width:2; stroke-opacity:0.1; fill:none" points="
  369.703,884.328 2352.76,884.328 
  "/>
<polyline clip-path="url(#clip012)" style="stroke:#000000; stroke-linecap:butt; stroke-linejoin:round; stroke-width:2; stroke-opacity:0.1; fill:none" points="
  369.703,658.737 2352.76,658.737 
  "/>
<polyline clip-path="url(#clip012)" style="stroke:#000000; stroke-linecap:butt; stroke-linejoin:round; stroke-width:2; stroke-opacity:0.1; fill:none" points="
  369.703,433.145 2352.76,433.145 
  "/>
<polyline clip-path="url(#clip012)" style="stroke:#000000; stroke-linecap:butt; stroke-linejoin:round; stroke-width:2; stroke-opacity:0.1; fill:none" points="
  369.703,207.554 2352.76,207.554 
  "/>
<polyline clip-path="url(#clip010)" style="stroke:#000000; stroke-linecap:butt; stroke-linejoin:round; stroke-width:4; stroke-opacity:1; fill:none" points="
  369.703,1423.18 369.703,47.2441 
  "/>
<polyline clip-path="url(#clip010)" style="stroke:#000000; stroke-linecap:butt; stroke-linejoin:round; stroke-width:4; stroke-opacity:1; fill:none" points="
  369.703,1335.51 388.601,1335.51 
  "/>
<polyline clip-path="url(#clip010)" style="stroke:#000000; stroke-linecap:butt; stroke-linejoin:round; stroke-width:4; stroke-opacity:1; fill:none" points="
  369.703,1109.92 388.601,1109.92 
  "/>
<polyline clip-path="url(#clip010)" style="stroke:#000000; stroke-linecap:butt; stroke-linejoin:round; stroke-width:4; stroke-opacity:1; fill:none" points="
  369.703,884.328 388.601,884.328 
  "/>
<polyline clip-path="url(#clip010)" style="stroke:#000000; stroke-linecap:butt; stroke-linejoin:round; stroke-width:4; stroke-opacity:1; fill:none" points="
  369.703,658.737 388.601,658.737 
  "/>
<polyline clip-path="url(#clip010)" style="stroke:#000000; stroke-linecap:butt; stroke-linejoin:round; stroke-width:4; stroke-opacity:1; fill:none" points="
  369.703,433.145 388.601,433.145 
  "/>
<polyline clip-path="url(#clip010)" style="stroke:#000000; stroke-linecap:butt; stroke-linejoin:round; stroke-width:4; stroke-opacity:1; fill:none" points="
  369.703,207.554 388.601,207.554 
  "/>
<path clip-path="url(#clip010)" d="M117.878 1324.68 L136.235 1324.68 L136.235 1328.61 L122.161 1328.61 L122.161 1337.09 Q123.179 1336.74 124.198 1336.58 Q125.216 1336.39 126.235 1336.39 Q132.022 1336.39 135.402 1339.56 Q138.781 1342.73 138.781 1348.15 Q138.781 1353.73 135.309 1356.83 Q131.837 1359.91 125.517 1359.91 Q123.341 1359.91 121.073 1359.54 Q118.828 1359.17 116.42 1358.43 L116.42 1353.73 Q118.503 1354.86 120.726 1355.42 Q122.948 1355.97 125.425 1355.97 Q129.429 1355.97 131.767 1353.87 Q134.105 1351.76 134.105 1348.15 Q134.105 1344.54 131.767 1342.43 Q129.429 1340.33 125.425 1340.33 Q123.55 1340.33 121.675 1340.74 Q119.823 1341.16 117.878 1342.04 L117.878 1324.68 Z" fill="#000000" fill-rule="evenodd" fill-opacity="1" /><path clip-path="url(#clip010)" d="M147.994 1353.36 L152.878 1353.36 L152.878 1359.24 L147.994 1359.24 L147.994 1353.36 Z" fill="#000000" fill-rule="evenodd" fill-opacity="1" /><path clip-path="url(#clip010)" d="M173.063 1327.76 Q169.452 1327.76 167.624 1331.32 Q165.818 1334.86 165.818 1341.99 Q165.818 1349.1 167.624 1352.66 Q169.452 1356.21 173.063 1356.21 Q176.698 1356.21 178.503 1352.66 Q180.332 1349.1 180.332 1341.99 Q180.332 1334.86 178.503 1331.32 Q176.698 1327.76 173.063 1327.76 M173.063 1324.05 Q178.874 1324.05 181.929 1328.66 Q185.008 1333.24 185.008 1341.99 Q185.008 1350.72 181.929 1355.33 Q178.874 1359.91 173.063 1359.91 Q167.253 1359.91 164.175 1355.33 Q161.119 1350.72 161.119 1341.99 Q161.119 1333.24 164.175 1328.66 Q167.253 1324.05 173.063 1324.05 Z" fill="#000000" fill-rule="evenodd" fill-opacity="1" /><path clip-path="url(#clip010)" d="M203.225 1327.76 Q199.614 1327.76 197.785 1331.32 Q195.98 1334.86 195.98 1341.99 Q195.98 1349.1 197.785 1352.66 Q199.614 1356.21 203.225 1356.21 Q206.859 1356.21 208.665 1352.66 Q210.494 1349.1 210.494 1341.99 Q210.494 1334.86 208.665 1331.32 Q206.859 1327.76 203.225 1327.76 M203.225 1324.05 Q209.035 1324.05 212.091 1328.66 Q215.17 1333.24 215.17 1341.99 Q215.17 1350.72 212.091 1355.33 Q209.035 1359.91 203.225 1359.91 Q197.415 1359.91 194.336 1355.33 Q191.281 1350.72 191.281 1341.99 Q191.281 1333.24 194.336 1328.66 Q197.415 1324.05 203.225 1324.05 Z" fill="#000000" fill-rule="evenodd" fill-opacity="1" /><path clip-path="url(#clip010)" d="M251.558 1333.78 L240.98 1344.4 L251.558 1354.98 L248.804 1357.78 L238.179 1347.15 L227.554 1357.78 L224.822 1354.98 L235.378 1344.4 L224.822 1333.78 L227.554 1330.97 L238.179 1341.6 L248.804 1330.97 L251.558 1333.78 Z" fill="#000000" fill-rule="evenodd" fill-opacity="1" /><path clip-path="url(#clip010)" d="M263.919 1355.3 L271.558 1355.3 L271.558 1328.94 L263.248 1330.6 L263.248 1326.34 L271.512 1324.68 L276.188 1324.68 L276.188 1355.3 L283.827 1355.3 L283.827 1359.24 L263.919 1359.24 L263.919 1355.3 Z" fill="#000000" fill-rule="evenodd" fill-opacity="1" /><path clip-path="url(#clip010)" d="M303.271 1327.76 Q299.66 1327.76 297.831 1331.32 Q296.026 1334.86 296.026 1341.99 Q296.026 1349.1 297.831 1352.66 Q299.66 1356.21 303.271 1356.21 Q306.905 1356.21 308.711 1352.66 Q310.539 1349.1 310.539 1341.99 Q310.539 1334.86 308.711 1331.32 Q306.905 1327.76 303.271 1327.76 M303.271 1324.05 Q309.081 1324.05 312.137 1328.66 Q315.215 1333.24 315.215 1341.99 Q315.215 1350.72 312.137 1355.33 Q309.081 1359.91 303.271 1359.91 Q297.461 1359.91 294.382 1355.33 Q291.327 1350.72 291.327 1341.99 Q291.327 1333.24 294.382 1328.66 Q297.461 1324.05 303.271 1324.05 Z" fill="#000000" fill-rule="evenodd" fill-opacity="1" /><path clip-path="url(#clip010)" d="M327.911 1316.69 Q330.638 1317.27 332.161 1319.11 Q333.703 1320.96 333.703 1323.67 Q333.703 1327.82 330.845 1330.1 Q327.986 1332.37 322.72 1332.37 Q320.952 1332.37 319.071 1332.02 Q317.209 1331.68 315.215 1330.98 L315.215 1327.31 Q316.795 1328.24 318.676 1328.71 Q320.557 1329.18 322.607 1329.18 Q326.18 1329.18 328.042 1327.77 Q329.923 1326.35 329.923 1323.67 Q329.923 1321.18 328.174 1319.79 Q326.444 1318.38 323.34 1318.38 L320.068 1318.38 L320.068 1315.26 L323.491 1315.26 Q326.293 1315.26 327.779 1314.15 Q329.265 1313.02 329.265 1310.91 Q329.265 1308.75 327.723 1307.6 Q326.199 1306.44 323.34 1306.44 Q321.779 1306.44 319.993 1306.78 Q318.206 1307.11 316.062 1307.83 L316.062 1304.44 Q318.225 1303.84 320.105 1303.54 Q322.005 1303.24 323.679 1303.24 Q328.005 1303.24 330.525 1305.21 Q333.045 1307.17 333.045 1310.52 Q333.045 1312.85 331.71 1314.47 Q330.374 1316.07 327.911 1316.69 Z" fill="#000000" fill-rule="evenodd" fill-opacity="1" /><path clip-path="url(#clip010)" d="M116.668 1129.71 L124.306 1129.71 L124.306 1103.35 L115.996 1105.01 L115.996 1100.75 L124.26 1099.09 L128.936 1099.09 L128.936 1129.71 L136.575 1129.71 L136.575 1133.65 L116.668 1133.65 L116.668 1129.71 Z" fill="#000000" fill-rule="evenodd" fill-opacity="1" /><path clip-path="url(#clip010)" d="M146.019 1127.77 L150.903 1127.77 L150.903 1133.65 L146.019 1133.65 L146.019 1127.77 Z" fill="#000000" fill-rule="evenodd" fill-opacity="1" /><path clip-path="url(#clip010)" d="M171.089 1102.17 Q167.477 1102.17 165.649 1105.73 Q163.843 1109.27 163.843 1116.4 Q163.843 1123.51 165.649 1127.07 Q167.477 1130.61 171.089 1130.61 Q174.723 1130.61 176.528 1127.07 Q178.357 1123.51 178.357 1116.4 Q178.357 1109.27 176.528 1105.73 Q174.723 1102.17 171.089 1102.17 M171.089 1098.46 Q176.899 1098.46 179.954 1103.07 Q183.033 1107.65 183.033 1116.4 Q183.033 1125.13 179.954 1129.73 Q176.899 1134.32 171.089 1134.32 Q165.278 1134.32 162.2 1129.73 Q159.144 1125.13 159.144 1116.4 Q159.144 1107.65 162.2 1103.07 Q165.278 1098.46 171.089 1098.46 Z" fill="#000000" fill-rule="evenodd" fill-opacity="1" /><path clip-path="url(#clip010)" d="M201.25 1102.17 Q197.639 1102.17 195.811 1105.73 Q194.005 1109.27 194.005 1116.4 Q194.005 1123.51 195.811 1127.07 Q197.639 1130.61 201.25 1130.61 Q204.885 1130.61 206.69 1127.07 Q208.519 1123.51 208.519 1116.4 Q208.519 1109.27 206.69 1105.73 Q204.885 1102.17 201.25 1102.17 M201.25 1098.46 Q207.061 1098.46 210.116 1103.07 Q213.195 1107.65 213.195 1116.4 Q213.195 1125.13 210.116 1129.73 Q207.061 1134.32 201.25 1134.32 Q195.44 1134.32 192.362 1129.73 Q189.306 1125.13 189.306 1116.4 Q189.306 1107.65 192.362 1103.07 Q195.44 1098.46 201.25 1098.46 Z" fill="#000000" fill-rule="evenodd" fill-opacity="1" /><path clip-path="url(#clip010)" d="M249.584 1108.18 L239.005 1118.81 L249.584 1129.39 L246.829 1132.19 L236.204 1121.56 L225.579 1132.19 L222.848 1129.39 L233.403 1118.81 L222.848 1108.18 L225.579 1105.38 L236.204 1116.01 L246.829 1105.38 L249.584 1108.18 Z" fill="#000000" fill-rule="evenodd" fill-opacity="1" /><path clip-path="url(#clip010)" d="M261.945 1129.71 L269.583 1129.71 L269.583 1103.35 L261.273 1105.01 L261.273 1100.75 L269.537 1099.09 L274.213 1099.09 L274.213 1129.71 L281.852 1129.71 L281.852 1133.65 L261.945 1133.65 L261.945 1129.71 Z" fill="#000000" fill-rule="evenodd" fill-opacity="1" /><path clip-path="url(#clip010)" d="M301.296 1102.17 Q297.685 1102.17 295.856 1105.73 Q294.051 1109.27 294.051 1116.4 Q294.051 1123.51 295.856 1127.07 Q297.685 1130.61 301.296 1130.61 Q304.93 1130.61 306.736 1127.07 Q308.565 1123.51 308.565 1116.4 Q308.565 1109.27 306.736 1105.73 Q304.93 1102.17 301.296 1102.17 M301.296 1098.46 Q307.106 1098.46 310.162 1103.07 Q313.241 1107.65 313.241 1116.4 Q313.241 1125.13 310.162 1129.73 Q307.106 1134.32 301.296 1134.32 Q295.486 1134.32 292.407 1129.73 Q289.352 1125.13 289.352 1116.4 Q289.352 1107.65 292.407 1103.07 Q295.486 1098.46 301.296 1098.46 Z" fill="#000000" fill-rule="evenodd" fill-opacity="1" /><path clip-path="url(#clip010)" d="M325.917 1081.47 L316.325 1096.46 L325.917 1096.46 L325.917 1081.47 M324.92 1078.16 L329.697 1078.16 L329.697 1096.46 L333.703 1096.46 L333.703 1099.62 L329.697 1099.62 L329.697 1106.24 L325.917 1106.24 L325.917 1099.62 L313.241 1099.62 L313.241 1095.95 L324.92 1078.16 Z" fill="#000000" fill-rule="evenodd" fill-opacity="1" /><path clip-path="url(#clip010)" d="M116.668 904.12 L124.306 904.12 L124.306 877.755 L115.996 879.421 L115.996 875.162 L124.26 873.495 L128.936 873.495 L128.936 904.12 L136.575 904.12 L136.575 908.055 L116.668 908.055 L116.668 904.12 Z" fill="#000000" fill-rule="evenodd" fill-opacity="1" /><path clip-path="url(#clip010)" d="M146.019 902.176 L150.903 902.176 L150.903 908.055 L146.019 908.055 L146.019 902.176 Z" fill="#000000" fill-rule="evenodd" fill-opacity="1" /><path clip-path="url(#clip010)" d="M161.135 873.495 L179.491 873.495 L179.491 877.431 L165.417 877.431 L165.417 885.903 Q166.436 885.556 167.454 885.394 Q168.473 885.208 169.491 885.208 Q175.278 885.208 178.658 888.38 Q182.038 891.551 182.038 896.968 Q182.038 902.546 178.565 905.648 Q175.093 908.727 168.774 908.727 Q166.598 908.727 164.329 908.356 Q162.084 907.986 159.677 907.245 L159.677 902.546 Q161.76 903.68 163.982 904.236 Q166.204 904.792 168.681 904.792 Q172.686 904.792 175.024 902.685 Q177.362 900.579 177.362 896.968 Q177.362 893.356 175.024 891.25 Q172.686 889.144 168.681 889.144 Q166.806 889.144 164.931 889.56 Q163.079 889.977 161.135 890.856 L161.135 873.495 Z" fill="#000000" fill-rule="evenodd" fill-opacity="1" /><path clip-path="url(#clip010)" d="M201.25 876.574 Q197.639 876.574 195.811 880.139 Q194.005 883.681 194.005 890.81 Q194.005 897.917 195.811 901.481 Q197.639 905.023 201.25 905.023 Q204.885 905.023 206.69 901.481 Q208.519 897.917 208.519 890.81 Q208.519 883.681 206.69 880.139 Q204.885 876.574 201.25 876.574 M201.25 872.87 Q207.061 872.87 210.116 877.477 Q213.195 882.06 213.195 890.81 Q213.195 899.537 210.116 904.143 Q207.061 908.727 201.25 908.727 Q195.44 908.727 192.362 904.143 Q189.306 899.537 189.306 890.81 Q189.306 882.06 192.362 877.477 Q195.44 872.87 201.25 872.87 Z" fill="#000000" fill-rule="evenodd" fill-opacity="1" /><path clip-path="url(#clip010)" d="M249.584 882.593 L239.005 893.218 L249.584 903.796 L246.829 906.597 L236.204 895.972 L225.579 906.597 L222.848 903.796 L233.403 893.218 L222.848 882.593 L225.579 879.792 L236.204 890.417 L246.829 879.792 L249.584 882.593 Z" fill="#000000" fill-rule="evenodd" fill-opacity="1" /><path clip-path="url(#clip010)" d="M261.945 904.12 L269.583 904.12 L269.583 877.755 L261.273 879.421 L261.273 875.162 L269.537 873.495 L274.213 873.495 L274.213 904.12 L281.852 904.12 L281.852 908.055 L261.945 908.055 L261.945 904.12 Z" fill="#000000" fill-rule="evenodd" fill-opacity="1" /><path clip-path="url(#clip010)" d="M301.296 876.574 Q297.685 876.574 295.856 880.139 Q294.051 883.681 294.051 890.81 Q294.051 897.917 295.856 901.481 Q297.685 905.023 301.296 905.023 Q304.93 905.023 306.736 901.481 Q308.565 897.917 308.565 890.81 Q308.565 883.681 306.736 880.139 Q304.93 876.574 301.296 876.574 M301.296 872.87 Q307.106 872.87 310.162 877.477 Q313.241 882.06 313.241 890.81 Q313.241 899.537 310.162 904.143 Q307.106 908.727 301.296 908.727 Q295.486 908.727 292.407 904.143 Q289.352 899.537 289.352 890.81 Q289.352 882.06 292.407 877.477 Q295.486 872.87 301.296 872.87 Z" fill="#000000" fill-rule="evenodd" fill-opacity="1" /><path clip-path="url(#clip010)" d="M325.917 855.875 L316.325 870.865 L325.917 870.865 L325.917 855.875 M324.92 852.565 L329.697 852.565 L329.697 870.865 L333.703 870.865 L333.703 874.025 L329.697 874.025 L329.697 880.645 L325.917 880.645 L325.917 874.025 L313.241 874.025 L313.241 870.357 L324.92 852.565 Z" fill="#000000" fill-rule="evenodd" fill-opacity="1" /><path clip-path="url(#clip010)" d="M119.885 678.529 L136.204 678.529 L136.204 682.464 L114.26 682.464 L114.26 678.529 Q116.922 675.774 121.505 671.145 Q126.112 666.492 127.292 665.149 Q129.538 662.626 130.417 660.89 Q131.32 659.131 131.32 657.441 Q131.32 654.686 129.376 652.95 Q127.455 651.214 124.353 651.214 Q122.154 651.214 119.7 651.978 Q117.269 652.742 114.492 654.293 L114.492 649.571 Q117.316 648.437 119.769 647.858 Q122.223 647.279 124.26 647.279 Q129.63 647.279 132.825 649.964 Q136.019 652.649 136.019 657.14 Q136.019 659.27 135.209 661.191 Q134.422 663.089 132.316 665.682 Q131.737 666.353 128.635 669.571 Q125.533 672.765 119.885 678.529 Z" fill="#000000" fill-rule="evenodd" fill-opacity="1" /><path clip-path="url(#clip010)" d="M146.019 676.585 L150.903 676.585 L150.903 682.464 L146.019 682.464 L146.019 676.585 Z" fill="#000000" fill-rule="evenodd" fill-opacity="1" /><path clip-path="url(#clip010)" d="M171.089 650.983 Q167.477 650.983 165.649 654.548 Q163.843 658.089 163.843 665.219 Q163.843 672.325 165.649 675.89 Q167.477 679.432 171.089 679.432 Q174.723 679.432 176.528 675.89 Q178.357 672.325 178.357 665.219 Q178.357 658.089 176.528 654.548 Q174.723 650.983 171.089 650.983 M171.089 647.279 Q176.899 647.279 179.954 651.886 Q183.033 656.469 183.033 665.219 Q183.033 673.946 179.954 678.552 Q176.899 683.135 171.089 683.135 Q165.278 683.135 162.2 678.552 Q159.144 673.946 159.144 665.219 Q159.144 656.469 162.2 651.886 Q165.278 647.279 171.089 647.279 Z" fill="#000000" fill-rule="evenodd" fill-opacity="1" /><path clip-path="url(#clip010)" d="M201.25 650.983 Q197.639 650.983 195.811 654.548 Q194.005 658.089 194.005 665.219 Q194.005 672.325 195.811 675.89 Q197.639 679.432 201.25 679.432 Q204.885 679.432 206.69 675.89 Q208.519 672.325 208.519 665.219 Q208.519 658.089 206.69 654.548 Q204.885 650.983 201.25 650.983 M201.25 647.279 Q207.061 647.279 210.116 651.886 Q213.195 656.469 213.195 665.219 Q213.195 673.946 210.116 678.552 Q207.061 683.135 201.25 683.135 Q195.44 683.135 192.362 678.552 Q189.306 673.946 189.306 665.219 Q189.306 656.469 192.362 651.886 Q195.44 647.279 201.25 647.279 Z" fill="#000000" fill-rule="evenodd" fill-opacity="1" /><path clip-path="url(#clip010)" d="M249.584 657.001 L239.005 667.626 L249.584 678.205 L246.829 681.006 L236.204 670.381 L225.579 681.006 L222.848 678.205 L233.403 667.626 L222.848 657.001 L225.579 654.2 L236.204 664.825 L246.829 654.2 L249.584 657.001 Z" fill="#000000" fill-rule="evenodd" fill-opacity="1" /><path clip-path="url(#clip010)" d="M261.945 678.529 L269.583 678.529 L269.583 652.163 L261.273 653.83 L261.273 649.571 L269.537 647.904 L274.213 647.904 L274.213 678.529 L281.852 678.529 L281.852 682.464 L261.945 682.464 L261.945 678.529 Z" fill="#000000" fill-rule="evenodd" fill-opacity="1" /><path clip-path="url(#clip010)" d="M301.296 650.983 Q297.685 650.983 295.856 654.548 Q294.051 658.089 294.051 665.219 Q294.051 672.325 295.856 675.89 Q297.685 679.432 301.296 679.432 Q304.93 679.432 306.736 675.89 Q308.565 672.325 308.565 665.219 Q308.565 658.089 306.736 654.548 Q304.93 650.983 301.296 650.983 M301.296 647.279 Q307.106 647.279 310.162 651.886 Q313.241 656.469 313.241 665.219 Q313.241 673.946 310.162 678.552 Q307.106 683.135 301.296 683.135 Q295.486 683.135 292.407 678.552 Q289.352 673.946 289.352 665.219 Q289.352 656.469 292.407 651.886 Q295.486 647.279 301.296 647.279 Z" fill="#000000" fill-rule="evenodd" fill-opacity="1" /><path clip-path="url(#clip010)" d="M325.917 630.284 L316.325 645.274 L325.917 645.274 L325.917 630.284 M324.92 626.974 L329.697 626.974 L329.697 645.274 L333.703 645.274 L333.703 648.433 L329.697 648.433 L329.697 655.054 L325.917 655.054 L325.917 648.433 L313.241 648.433 L313.241 644.766 L324.92 626.974 Z" fill="#000000" fill-rule="evenodd" fill-opacity="1" /><path clip-path="url(#clip010)" d="M119.885 452.938 L136.204 452.938 L136.204 456.873 L114.26 456.873 L114.26 452.938 Q116.922 450.183 121.505 445.553 Q126.112 440.901 127.292 439.558 Q129.538 437.035 130.417 435.299 Q131.32 433.54 131.32 431.85 Q131.32 429.095 129.376 427.359 Q127.455 425.623 124.353 425.623 Q122.154 425.623 119.7 426.387 Q117.269 427.151 114.492 428.702 L114.492 423.979 Q117.316 422.845 119.769 422.266 Q122.223 421.688 124.26 421.688 Q129.63 421.688 132.825 424.373 Q136.019 427.058 136.019 431.549 Q136.019 433.678 135.209 435.6 Q134.422 437.498 132.316 440.09 Q131.737 440.762 128.635 443.979 Q125.533 447.174 119.885 452.938 Z" fill="#000000" fill-rule="evenodd" fill-opacity="1" /><path clip-path="url(#clip010)" d="M146.019 450.993 L150.903 450.993 L150.903 456.873 L146.019 456.873 L146.019 450.993 Z" fill="#000000" fill-rule="evenodd" fill-opacity="1" /><path clip-path="url(#clip010)" d="M161.135 422.313 L179.491 422.313 L179.491 426.248 L165.417 426.248 L165.417 434.72 Q166.436 434.373 167.454 434.211 Q168.473 434.026 169.491 434.026 Q175.278 434.026 178.658 437.197 Q182.038 440.368 182.038 445.785 Q182.038 451.364 178.565 454.465 Q175.093 457.544 168.774 457.544 Q166.598 457.544 164.329 457.174 Q162.084 456.803 159.677 456.063 L159.677 451.364 Q161.76 452.498 163.982 453.053 Q166.204 453.609 168.681 453.609 Q172.686 453.609 175.024 451.502 Q177.362 449.396 177.362 445.785 Q177.362 442.174 175.024 440.067 Q172.686 437.961 168.681 437.961 Q166.806 437.961 164.931 438.377 Q163.079 438.794 161.135 439.674 L161.135 422.313 Z" fill="#000000" fill-rule="evenodd" fill-opacity="1" /><path clip-path="url(#clip010)" d="M201.25 425.391 Q197.639 425.391 195.811 428.956 Q194.005 432.498 194.005 439.627 Q194.005 446.734 195.811 450.299 Q197.639 453.84 201.25 453.84 Q204.885 453.84 206.69 450.299 Q208.519 446.734 208.519 439.627 Q208.519 432.498 206.69 428.956 Q204.885 425.391 201.25 425.391 M201.25 421.688 Q207.061 421.688 210.116 426.294 Q213.195 430.878 213.195 439.627 Q213.195 448.354 210.116 452.961 Q207.061 457.544 201.25 457.544 Q195.44 457.544 192.362 452.961 Q189.306 448.354 189.306 439.627 Q189.306 430.878 192.362 426.294 Q195.44 421.688 201.25 421.688 Z" fill="#000000" fill-rule="evenodd" fill-opacity="1" /><path clip-path="url(#clip010)" d="M249.584 431.41 L239.005 442.035 L249.584 452.614 L246.829 455.414 L236.204 444.789 L225.579 455.414 L222.848 452.614 L233.403 442.035 L222.848 431.41 L225.579 428.609 L236.204 439.234 L246.829 428.609 L249.584 431.41 Z" fill="#000000" fill-rule="evenodd" fill-opacity="1" /><path clip-path="url(#clip010)" d="M261.945 452.938 L269.583 452.938 L269.583 426.572 L261.273 428.239 L261.273 423.979 L269.537 422.313 L274.213 422.313 L274.213 452.938 L281.852 452.938 L281.852 456.873 L261.945 456.873 L261.945 452.938 Z" fill="#000000" fill-rule="evenodd" fill-opacity="1" /><path clip-path="url(#clip010)" d="M301.296 425.391 Q297.685 425.391 295.856 428.956 Q294.051 432.498 294.051 439.627 Q294.051 446.734 295.856 450.299 Q297.685 453.84 301.296 453.84 Q304.93 453.84 306.736 450.299 Q308.565 446.734 308.565 439.627 Q308.565 432.498 306.736 428.956 Q304.93 425.391 301.296 425.391 M301.296 421.688 Q307.106 421.688 310.162 426.294 Q313.241 430.878 313.241 439.627 Q313.241 448.354 310.162 452.961 Q307.106 457.544 301.296 457.544 Q295.486 457.544 292.407 452.961 Q289.352 448.354 289.352 439.627 Q289.352 430.878 292.407 426.294 Q295.486 421.688 301.296 421.688 Z" fill="#000000" fill-rule="evenodd" fill-opacity="1" /><path clip-path="url(#clip010)" d="M325.917 404.693 L316.325 419.682 L325.917 419.682 L325.917 404.693 M324.92 401.382 L329.697 401.382 L329.697 419.682 L333.703 419.682 L333.703 422.842 L329.697 422.842 L329.697 429.462 L325.917 429.462 L325.917 422.842 L313.241 422.842 L313.241 419.175 L324.92 401.382 Z" fill="#000000" fill-rule="evenodd" fill-opacity="1" /><path clip-path="url(#clip010)" d="M130.024 212.647 Q133.38 213.365 135.255 215.633 Q137.154 217.902 137.154 221.235 Q137.154 226.351 133.635 229.152 Q130.117 231.953 123.635 231.953 Q121.459 231.953 119.144 231.513 Q116.853 231.096 114.399 230.24 L114.399 225.726 Q116.343 226.86 118.658 227.439 Q120.973 228.018 123.496 228.018 Q127.894 228.018 130.186 226.281 Q132.501 224.545 132.501 221.235 Q132.501 218.18 130.348 216.467 Q128.218 214.731 124.399 214.731 L120.371 214.731 L120.371 210.888 L124.584 210.888 Q128.033 210.888 129.862 209.522 Q131.691 208.133 131.691 205.541 Q131.691 202.879 129.792 201.467 Q127.917 200.032 124.399 200.032 Q122.478 200.032 120.279 200.448 Q118.08 200.865 115.441 201.745 L115.441 197.578 Q118.103 196.837 120.418 196.467 Q122.755 196.096 124.816 196.096 Q130.14 196.096 133.242 198.527 Q136.343 200.934 136.343 205.055 Q136.343 207.925 134.7 209.916 Q133.056 211.883 130.024 212.647 Z" fill="#000000" fill-rule="evenodd" fill-opacity="1" /><path clip-path="url(#clip010)" d="M146.019 225.402 L150.903 225.402 L150.903 231.281 L146.019 231.281 L146.019 225.402 Z" fill="#000000" fill-rule="evenodd" fill-opacity="1" /><path clip-path="url(#clip010)" d="M171.089 199.8 Q167.477 199.8 165.649 203.365 Q163.843 206.907 163.843 214.036 Q163.843 221.143 165.649 224.707 Q167.477 228.249 171.089 228.249 Q174.723 228.249 176.528 224.707 Q178.357 221.143 178.357 214.036 Q178.357 206.907 176.528 203.365 Q174.723 199.8 171.089 199.8 M171.089 196.096 Q176.899 196.096 179.954 200.703 Q183.033 205.286 183.033 214.036 Q183.033 222.763 179.954 227.369 Q176.899 231.953 171.089 231.953 Q165.278 231.953 162.2 227.369 Q159.144 222.763 159.144 214.036 Q159.144 205.286 162.2 200.703 Q165.278 196.096 171.089 196.096 Z" fill="#000000" fill-rule="evenodd" fill-opacity="1" /><path clip-path="url(#clip010)" d="M201.25 199.8 Q197.639 199.8 195.811 203.365 Q194.005 206.907 194.005 214.036 Q194.005 221.143 195.811 224.707 Q197.639 228.249 201.25 228.249 Q204.885 228.249 206.69 224.707 Q208.519 221.143 208.519 214.036 Q208.519 206.907 206.69 203.365 Q204.885 199.8 201.25 199.8 M201.25 196.096 Q207.061 196.096 210.116 200.703 Q213.195 205.286 213.195 214.036 Q213.195 222.763 210.116 227.369 Q207.061 231.953 201.25 231.953 Q195.44 231.953 192.362 227.369 Q189.306 222.763 189.306 214.036 Q189.306 205.286 192.362 200.703 Q195.44 196.096 201.25 196.096 Z" fill="#000000" fill-rule="evenodd" fill-opacity="1" /><path clip-path="url(#clip010)" d="M249.584 205.819 L239.005 216.444 L249.584 227.022 L246.829 229.823 L236.204 219.198 L225.579 229.823 L222.848 227.022 L233.403 216.444 L222.848 205.819 L225.579 203.018 L236.204 213.643 L246.829 203.018 L249.584 205.819 Z" fill="#000000" fill-rule="evenodd" fill-opacity="1" /><path clip-path="url(#clip010)" d="M261.945 227.346 L269.583 227.346 L269.583 200.981 L261.273 202.647 L261.273 198.388 L269.537 196.721 L274.213 196.721 L274.213 227.346 L281.852 227.346 L281.852 231.281 L261.945 231.281 L261.945 227.346 Z" fill="#000000" fill-rule="evenodd" fill-opacity="1" /><path clip-path="url(#clip010)" d="M301.296 199.8 Q297.685 199.8 295.856 203.365 Q294.051 206.907 294.051 214.036 Q294.051 221.143 295.856 224.707 Q297.685 228.249 301.296 228.249 Q304.93 228.249 306.736 224.707 Q308.565 221.143 308.565 214.036 Q308.565 206.907 306.736 203.365 Q304.93 199.8 301.296 199.8 M301.296 196.096 Q307.106 196.096 310.162 200.703 Q313.241 205.286 313.241 214.036 Q313.241 222.763 310.162 227.369 Q307.106 231.953 301.296 231.953 Q295.486 231.953 292.407 227.369 Q289.352 222.763 289.352 214.036 Q289.352 205.286 292.407 200.703 Q295.486 196.096 301.296 196.096 Z" fill="#000000" fill-rule="evenodd" fill-opacity="1" /><path clip-path="url(#clip010)" d="M325.917 179.101 L316.325 194.091 L325.917 194.091 L325.917 179.101 M324.92 175.791 L329.697 175.791 L329.697 194.091 L333.703 194.091 L333.703 197.251 L329.697 197.251 L329.697 203.871 L325.917 203.871 L325.917 197.251 L313.241 197.251 L313.241 193.583 L324.92 175.791 Z" fill="#000000" fill-rule="evenodd" fill-opacity="1" /><path clip-path="url(#clip010)" d="M57.2247 1077.08 L44.4614 1077.08 L44.4614 1087.59 L39.1779 1087.59 L39.1779 1070.72 L59.58 1070.72 Q62.2218 1074.44 63.5904 1078.93 Q64.9272 1083.42 64.9272 1088.51 Q64.9272 1099.65 58.4342 1105.95 Q51.9093 1112.22 40.2919 1112.22 Q28.6427 1112.22 22.1496 1105.95 Q15.6248 1099.65 15.6248 1088.51 Q15.6248 1083.86 16.7706 1079.69 Q17.9164 1075.49 20.1444 1071.96 L26.9876 1071.96 Q23.9639 1075.52 22.4361 1079.53 Q20.9083 1083.54 20.9083 1087.97 Q20.9083 1096.69 25.7781 1101.08 Q30.6479 1105.44 40.2919 1105.44 Q49.9041 1105.44 54.7739 1101.08 Q59.6436 1096.69 59.6436 1087.97 Q59.6436 1084.56 59.0707 1081.89 Q58.466 1079.21 57.2247 1077.08 Z" fill="#000000" fill-rule="evenodd" fill-opacity="1" /><path clip-path="url(#clip010)" d="M44.7161 1028.73 L47.5806 1028.73 L47.5806 1055.66 Q53.6281 1055.28 56.8109 1052.03 Q59.9619 1048.75 59.9619 1042.93 Q59.9619 1039.56 59.1344 1036.41 Q58.3069 1033.22 56.6518 1030.1 L62.1899 1030.1 Q63.5267 1033.25 64.227 1036.56 Q64.9272 1039.87 64.9272 1043.28 Q64.9272 1051.81 59.9619 1056.81 Q54.9967 1061.77 46.5303 1061.77 Q37.7774 1061.77 32.6531 1057.06 Q27.4968 1052.32 27.4968 1044.3 Q27.4968 1037.11 32.1438 1032.94 Q36.7589 1028.73 44.7161 1028.73 M42.9973 1034.59 Q38.1912 1034.65 35.3266 1037.3 Q32.4621 1039.91 32.4621 1044.24 Q32.4621 1049.14 35.2312 1052.1 Q38.0002 1055.03 43.0292 1055.47 L42.9973 1034.59 Z" fill="#000000" fill-rule="evenodd" fill-opacity="1" /><path clip-path="url(#clip010)" d="M29.4065 996.397 L34.9447 996.397 Q33.6716 998.88 33.035 1001.55 Q32.3984 1004.23 32.3984 1007.09 Q32.3984 1011.45 33.7352 1013.65 Q35.072 1015.81 37.7456 1015.81 Q39.7826 1015.81 40.9603 1014.25 Q42.1061 1012.69 43.1565 1007.98 L43.6021 1005.98 Q44.9389 999.739 47.3897 997.129 Q49.8086 994.487 54.1691 994.487 Q59.1344 994.487 62.0308 998.434 Q64.9272 1002.35 64.9272 1009.22 Q64.9272 1012.09 64.3543 1015.21 Q63.8132 1018.29 62.6992 1021.73 L56.6518 1021.73 Q58.3387 1018.49 59.198 1015.33 Q60.0256 1012.18 60.0256 1009.1 Q60.0256 1004.96 58.6251 1002.73 Q57.1929 1000.5 54.6147 1000.5 Q52.2276 1000.5 50.9545 1002.13 Q49.6813 1003.72 48.5037 1009.16 L48.0262 1011.2 Q46.8804 1016.64 44.5251 1019.06 Q42.138 1021.48 38.0002 1021.48 Q32.9713 1021.48 30.2341 1017.91 Q27.4968 1014.35 27.4968 1007.79 Q27.4968 1004.55 27.9743 1001.68 Q28.4517 998.816 29.4065 996.397 Z" fill="#000000" fill-rule="evenodd" fill-opacity="1" /><path clip-path="url(#clip010)" d="M29.7248 959.508 L35.1993 959.508 Q33.8307 961.99 33.1623 964.505 Q32.4621 966.987 32.4621 969.534 Q32.4621 975.231 36.0905 978.382 Q39.6872 981.533 46.212 981.533 Q52.7369 981.533 56.3653 978.382 Q59.9619 975.231 59.9619 969.534 Q59.9619 966.987 59.2935 964.505 Q58.5933 961.99 57.2247 959.508 L62.6355 959.508 Q63.7814 961.958 64.3543 964.6 Q64.9272 967.21 64.9272 970.17 Q64.9272 978.223 59.8664 982.965 Q54.8057 987.708 46.212 987.708 Q37.491 987.708 32.4939 982.933 Q27.4968 978.127 27.4968 969.788 Q27.4968 967.083 28.0697 964.505 Q28.6108 961.927 29.7248 959.508 Z" fill="#000000" fill-rule="evenodd" fill-opacity="1" /><path clip-path="url(#clip010)" d="M42.4881 919.69 L64.0042 919.69 L64.0042 925.547 L42.679 925.547 Q37.6183 925.547 35.1038 927.52 Q32.5894 929.493 32.5894 933.44 Q32.5894 938.183 35.6131 940.92 Q38.6368 943.657 43.8567 943.657 L64.0042 943.657 L64.0042 949.545 L14.479 949.545 L14.479 943.657 L33.8944 943.657 Q30.6797 941.556 29.0883 938.724 Q27.4968 935.859 27.4968 932.135 Q27.4968 925.992 31.3163 922.841 Q35.1038 919.69 42.4881 919.69 Z" fill="#000000" fill-rule="evenodd" fill-opacity="1" /><path clip-path="url(#clip010)" d="M28.3562 911.415 L28.3562 905.558 L56.1743 898.238 L28.3562 890.949 L28.3562 884.042 L56.1743 876.722 L28.3562 869.433 L28.3562 863.576 L64.0042 872.902 L64.0042 879.809 L34.7856 887.48 L64.0042 895.182 L64.0042 902.089 L28.3562 911.415 Z" fill="#000000" fill-rule="evenodd" fill-opacity="1" /><path clip-path="url(#clip010)" d="M28.3562 854.696 L28.3562 848.84 L64.0042 848.84 L64.0042 854.696 L28.3562 854.696 M14.479 854.696 L14.479 848.84 L21.895 848.84 L21.895 854.696 L14.479 854.696 Z" fill="#000000" fill-rule="evenodd" fill-opacity="1" /><path clip-path="url(#clip010)" d="M42.4881 806.953 L64.0042 806.953 L64.0042 812.81 L42.679 812.81 Q37.6183 812.81 35.1038 814.783 Q32.5894 816.757 32.5894 820.703 Q32.5894 825.446 35.6131 828.183 Q38.6368 830.92 43.8567 830.92 L64.0042 830.92 L64.0042 836.809 L28.3562 836.809 L28.3562 830.92 L33.8944 830.92 Q30.6797 828.82 29.0883 825.987 Q27.4968 823.122 27.4968 819.398 Q27.4968 813.256 31.3163 810.105 Q35.1038 806.953 42.4881 806.953 Z" fill="#000000" fill-rule="evenodd" fill-opacity="1" /><path clip-path="url(#clip010)" d="M33.7671 771.815 L14.479 771.815 L14.479 765.958 L64.0042 765.958 L64.0042 771.815 L58.657 771.815 Q61.8398 773.661 63.3994 776.494 Q64.9272 779.294 64.9272 783.241 Q64.9272 789.702 59.771 793.776 Q54.6147 797.819 46.212 797.819 Q37.8093 797.819 32.6531 793.776 Q27.4968 789.702 27.4968 783.241 Q27.4968 779.294 29.0564 776.494 Q30.5842 773.661 33.7671 771.815 M46.212 791.771 Q52.6732 791.771 56.3653 789.13 Q60.0256 786.456 60.0256 781.809 Q60.0256 777.162 56.3653 774.488 Q52.6732 771.815 46.212 771.815 Q39.7508 771.815 36.0905 774.488 Q32.3984 777.162 32.3984 781.809 Q32.3984 786.456 36.0905 789.13 Q39.7508 791.771 46.212 791.771 Z" fill="#000000" fill-rule="evenodd" fill-opacity="1" /><path clip-path="url(#clip010)" d="M28.3562 753.895 L28.3562 748.039 L64.0042 748.039 L64.0042 753.895 L28.3562 753.895 M14.479 753.895 L14.479 748.039 L21.895 748.039 L21.895 753.895 L14.479 753.895 Z" fill="#000000" fill-rule="evenodd" fill-opacity="1" /><path clip-path="url(#clip010)" d="M45.7664 712.327 Q39.4007 712.327 35.8996 714.969 Q32.3984 717.579 32.3984 722.321 Q32.3984 727.032 35.8996 729.674 Q39.4007 732.284 45.7664 732.284 Q52.1003 732.284 55.6014 729.674 Q59.1026 727.032 59.1026 722.321 Q59.1026 717.579 55.6014 714.969 Q52.1003 712.327 45.7664 712.327 M59.58 706.471 Q68.683 706.471 73.1071 710.513 Q77.5631 714.555 77.5631 722.894 Q77.5631 725.982 77.0857 728.719 Q76.6401 731.456 75.6852 734.034 L69.9879 734.034 Q71.3884 731.456 72.0568 728.942 Q72.7252 726.427 72.7252 723.817 Q72.7252 718.056 69.7015 715.192 Q66.7096 712.327 60.6303 712.327 L57.7339 712.327 Q60.885 714.141 62.4446 716.974 Q64.0042 719.807 64.0042 723.754 Q64.0042 730.31 59.0071 734.321 Q54.01 738.331 45.7664 738.331 Q37.491 738.331 32.4939 734.321 Q27.4968 730.31 27.4968 723.754 Q27.4968 719.807 29.0564 716.974 Q30.616 714.141 33.7671 712.327 L28.3562 712.327 L28.3562 706.471 L59.58 706.471 Z" fill="#000000" fill-rule="evenodd" fill-opacity="1" /><path clip-path="url(#clip010)" d="M14.479 694.631 L14.479 688.742 L43.7294 688.742 L28.3562 671.268 L28.3562 663.789 L45.0344 682.695 L64.0042 662.993 L64.0042 670.632 L46.5939 688.742 L64.0042 688.742 L64.0042 694.631 L14.479 694.631 Z" fill="#000000" fill-rule="evenodd" fill-opacity="1" /><path clip-path="url(#clip010)" d="M44.7161 628.491 L47.5806 628.491 L47.5806 655.418 Q53.6281 655.036 56.8109 651.789 Q59.9619 648.511 59.9619 642.686 Q59.9619 639.313 59.1344 636.162 Q58.3069 632.979 56.6518 629.86 L62.1899 629.86 Q63.5267 633.011 64.227 636.321 Q64.9272 639.631 64.9272 643.037 Q64.9272 651.567 59.9619 656.564 Q54.9967 661.529 46.5303 661.529 Q37.7774 661.529 32.6531 656.818 Q27.4968 652.076 27.4968 644.055 Q27.4968 636.862 32.1438 632.692 Q36.7589 628.491 44.7161 628.491 M42.9973 634.347 Q38.1912 634.411 35.3266 637.053 Q32.4621 639.663 32.4621 643.991 Q32.4621 648.893 35.2312 651.853 Q38.0002 654.781 43.0292 655.227 L42.9973 634.347 Z" fill="#000000" fill-rule="evenodd" fill-opacity="1" /><path clip-path="url(#clip010)" d="M28.3562 618.879 L28.3562 613.022 L64.0042 613.022 L64.0042 618.879 L28.3562 618.879 M14.479 618.879 L14.479 613.022 L21.895 613.022 L21.895 618.879 L14.479 618.879 Z" fill="#000000" fill-rule="evenodd" fill-opacity="1" /><path clip-path="url(#clip010)" d="M18.2347 594.975 L28.3562 594.975 L28.3562 582.912 L32.9077 582.912 L32.9077 594.975 L52.2594 594.975 Q56.6199 594.975 57.8613 593.798 Q59.1026 592.588 59.1026 588.928 L59.1026 582.912 L64.0042 582.912 L64.0042 588.928 Q64.0042 595.708 61.4897 598.286 Q58.9434 600.864 52.2594 600.864 L32.9077 600.864 L32.9077 605.161 L28.3562 605.161 L28.3562 600.864 L18.2347 600.864 L18.2347 594.975 Z" fill="#000000" fill-rule="evenodd" fill-opacity="1" /><path clip-path="url(#clip010)" d="M14.479 555.031 L14.479 541.535 L19.0304 541.535 L19.0304 549.174 L68.0464 549.174 L68.0464 541.535 L72.5979 541.535 L72.5979 555.031 L14.479 555.031 Z" fill="#000000" fill-rule="evenodd" fill-opacity="1" /><path clip-path="url(#clip010)" d="M14.479 529.281 L14.479 523.393 L43.7294 523.393 L28.3562 505.919 L28.3562 498.44 L45.0344 517.346 L64.0042 497.644 L64.0042 505.283 L46.5939 523.393 L64.0042 523.393 L64.0042 529.281 L14.479 529.281 Z" fill="#000000" fill-rule="evenodd" fill-opacity="1" /><path clip-path="url(#clip010)" d="M35.1993 463.555 Q31.2526 461.359 29.3747 458.304 Q27.4968 455.248 27.4968 451.11 Q27.4968 445.54 31.4117 442.517 Q35.2948 439.493 42.4881 439.493 L64.0042 439.493 L64.0042 445.381 L42.679 445.381 Q37.5546 445.381 35.072 447.196 Q32.5894 449.01 32.5894 452.734 Q32.5894 457.285 35.6131 459.927 Q38.6368 462.569 43.8567 462.569 L64.0042 462.569 L64.0042 468.457 L42.679 468.457 Q37.5228 468.457 35.072 470.271 Q32.5894 472.085 32.5894 475.873 Q32.5894 480.361 35.6449 483.003 Q38.6686 485.644 43.8567 485.644 L64.0042 485.644 L64.0042 491.533 L28.3562 491.533 L28.3562 485.644 L33.8944 485.644 Q30.616 483.639 29.0564 480.838 Q27.4968 478.037 27.4968 474.186 Q27.4968 470.303 29.4702 467.598 Q31.4436 464.86 35.1993 463.555 Z" fill="#000000" fill-rule="evenodd" fill-opacity="1" /><path clip-path="url(#clip010)" d="M16.4842 417.404 L16.4842 411.993 L70.0516 428.544 L70.0516 433.955 L16.4842 417.404 Z" fill="#000000" fill-rule="evenodd" fill-opacity="1" /><path clip-path="url(#clip010)" d="M29.4065 383.125 L34.9447 383.125 Q33.6716 385.607 33.035 388.281 Q32.3984 390.955 32.3984 393.819 Q32.3984 398.18 33.7352 400.376 Q35.072 402.54 37.7456 402.54 Q39.7826 402.54 40.9603 400.981 Q42.1061 399.421 43.1565 394.71 L43.6021 392.705 Q44.9389 386.467 47.3897 383.857 Q49.8086 381.215 54.1691 381.215 Q59.1344 381.215 62.0308 385.162 Q64.9272 389.077 64.9272 395.952 Q64.9272 398.816 64.3543 401.935 Q63.8132 405.023 62.6992 408.46 L56.6518 408.46 Q58.3387 405.214 59.198 402.063 Q60.0256 398.912 60.0256 395.824 Q60.0256 391.687 58.6251 389.459 Q57.1929 387.231 54.6147 387.231 Q52.2276 387.231 50.9545 388.854 Q49.6813 390.445 48.5037 395.888 L48.0262 397.925 Q46.8804 403.368 44.5251 405.787 Q42.138 408.206 38.0002 408.206 Q32.9713 408.206 30.2341 404.641 Q27.4968 401.076 27.4968 394.519 Q27.4968 391.273 27.9743 388.408 Q28.4517 385.544 29.4065 383.125 Z" fill="#000000" fill-rule="evenodd" fill-opacity="1" /><path clip-path="url(#clip010)" d="M14.479 358.203 L72.5979 358.203 L72.5979 371.698 L68.0464 371.698 L68.0464 364.091 L19.0304 364.091 L19.0304 371.698 L14.479 371.698 L14.479 358.203 Z" fill="#000000" fill-rule="evenodd" fill-opacity="1" /><polyline clip-path="url(#clip012)" style="stroke:#000000; stroke-linecap:butt; stroke-linejoin:round; stroke-width:8; stroke-opacity:1; fill:none" points="
  784.057,1135.68 894.211,1059.25 1074.92,933.868 1258.36,806.589 703.945,1191.27 425.828,1384.24 1008.01,980.294 723.973,1177.37 1420.86,693.839 635.667,1238.64 
  434.931,1377.92 2296.63,86.1857 1364.42,733.001 574.217,1281.28 860.073,1082.94 1092.67,921.55 1244.7,816.064 975.689,1002.72 525.513,1315.07 1579.72,583.615 
  1952.97,324.636 1445.89,676.468 1551.95,602.88 1245.61,815.432 1151.39,880.809 715.779,1183.06 1091.76,922.182 497.747,1334.34 611.087,1255.7 752.649,1157.47 
  474.987,1350.13 853.245,1087.68 1015.75,974.925 545.996,1300.86 789.974,1131.58 774.953,1142 
  "/>
<polyline clip-path="url(#clip012)" style="stroke:#000000; stroke-linecap:butt; stroke-linejoin:round; stroke-width:4; stroke-opacity:1; fill:none" points="
  784.057,1152.21 784.057,1152 
  "/>
<polyline clip-path="url(#clip012)" style="stroke:#000000; stroke-linecap:butt; stroke-linejoin:round; stroke-width:4; stroke-opacity:1; fill:none" points="
  894.211,1019.28 894.211,1019 
  "/>
<polyline clip-path="url(#clip012)" style="stroke:#000000; stroke-linecap:butt; stroke-linejoin:round; stroke-width:4; stroke-opacity:1; fill:none" points="
  1074.92,881.973 1074.92,881.72 
  "/>
<polyline clip-path="url(#clip012)" style="stroke:#000000; stroke-linecap:butt; stroke-linejoin:round; stroke-width:4; stroke-opacity:1; fill:none" points="
  1258.36,808.34 1258.36,808.087 
  "/>
<polyline clip-path="url(#clip012)" style="stroke:#000000; stroke-linecap:butt; stroke-linejoin:round; stroke-width:4; stroke-opacity:1; fill:none" points="
  703.945,1119.05 703.945,1118.74 
  "/>
<polyline clip-path="url(#clip012)" style="stroke:#000000; stroke-linecap:butt; stroke-linejoin:round; stroke-width:4; stroke-opacity:1; fill:none" points="
  425.828,1375.16 425.828,1374.9 
  "/>
<polyline clip-path="url(#clip012)" style="stroke:#000000; stroke-linecap:butt; stroke-linejoin:round; stroke-width:4; stroke-opacity:1; fill:none" points="
  1008.01,942.806 1008.01,942.526 
  "/>
<polyline clip-path="url(#clip012)" style="stroke:#000000; stroke-linecap:butt; stroke-linejoin:round; stroke-width:4; stroke-opacity:1; fill:none" points="
  723.973,1205.67 723.973,1205.47 
  "/>
<polyline clip-path="url(#clip012)" style="stroke:#000000; stroke-linecap:butt; stroke-linejoin:round; stroke-width:4; stroke-opacity:1; fill:none" points="
  1420.86,549.433 1420.86,549.126 
  "/>
<polyline clip-path="url(#clip012)" style="stroke:#000000; stroke-linecap:butt; stroke-linejoin:round; stroke-width:4; stroke-opacity:1; fill:none" points="
  635.667,1210.88 635.667,1210.64 
  "/>
<polyline clip-path="url(#clip012)" style="stroke:#000000; stroke-linecap:butt; stroke-linejoin:round; stroke-width:4; stroke-opacity:1; fill:none" points="
  434.931,1370.5 434.931,1370.28 
  "/>
<polyline clip-path="url(#clip012)" style="stroke:#000000; stroke-linecap:butt; stroke-linejoin:round; stroke-width:4; stroke-opacity:1; fill:none" points="
  2296.63,196.247 2296.63,196.031 
  "/>
<polyline clip-path="url(#clip012)" style="stroke:#000000; stroke-linecap:butt; stroke-linejoin:round; stroke-width:4; stroke-opacity:1; fill:none" points="
  1364.42,739.539 1364.42,739.277 
  "/>
<polyline clip-path="url(#clip012)" style="stroke:#000000; stroke-linecap:butt; stroke-linejoin:round; stroke-width:4; stroke-opacity:1; fill:none" points="
  574.217,1293.42 574.217,1293.23 
  "/>
<polyline clip-path="url(#clip012)" style="stroke:#000000; stroke-linecap:butt; stroke-linejoin:round; stroke-width:4; stroke-opacity:1; fill:none" points="
  860.073,1078.63 860.073,1078.41 
  "/>
<polyline clip-path="url(#clip012)" style="stroke:#000000; stroke-linecap:butt; stroke-linejoin:round; stroke-width:4; stroke-opacity:1; fill:none" points="
  1092.67,951.297 1092.67,951.089 
  "/>
<polyline clip-path="url(#clip012)" style="stroke:#000000; stroke-linecap:butt; stroke-linejoin:round; stroke-width:4; stroke-opacity:1; fill:none" points="
  1244.7,777.47 1244.7,777.235 
  "/>
<polyline clip-path="url(#clip012)" style="stroke:#000000; stroke-linecap:butt; stroke-linejoin:round; stroke-width:4; stroke-opacity:1; fill:none" points="
  975.689,980.502 975.689,980.267 
  "/>
<polyline clip-path="url(#clip012)" style="stroke:#000000; stroke-linecap:butt; stroke-linejoin:round; stroke-width:4; stroke-opacity:1; fill:none" points="
  525.513,1316.04 525.513,1315.82 
  "/>
<polyline clip-path="url(#clip012)" style="stroke:#000000; stroke-linecap:butt; stroke-linejoin:round; stroke-width:4; stroke-opacity:1; fill:none" points="
  1579.72,494.353 1579.72,494.118 
  "/>
<polyline clip-path="url(#clip012)" style="stroke:#000000; stroke-linecap:butt; stroke-linejoin:round; stroke-width:4; stroke-opacity:1; fill:none" points="
  1952.97,373.819 1952.97,373.539 
  "/>
<polyline clip-path="url(#clip012)" style="stroke:#000000; stroke-linecap:butt; stroke-linejoin:round; stroke-width:4; stroke-opacity:1; fill:none" points="
  1445.89,704.116 1445.89,703.864 
  "/>
<polyline clip-path="url(#clip012)" style="stroke:#000000; stroke-linecap:butt; stroke-linejoin:round; stroke-width:4; stroke-opacity:1; fill:none" points="
  1551.95,605.154 1551.95,604.937 
  "/>
<polyline clip-path="url(#clip012)" style="stroke:#000000; stroke-linecap:butt; stroke-linejoin:round; stroke-width:4; stroke-opacity:1; fill:none" points="
  1245.61,858.841 1245.61,858.651 
  "/>
<polyline clip-path="url(#clip012)" style="stroke:#000000; stroke-linecap:butt; stroke-linejoin:round; stroke-width:4; stroke-opacity:1; fill:none" points="
  1151.39,884.346 1151.39,884.129 
  "/>
<polyline clip-path="url(#clip012)" style="stroke:#000000; stroke-linecap:butt; stroke-linejoin:round; stroke-width:4; stroke-opacity:1; fill:none" points="
  715.779,1173.04 715.779,1172.77 
  "/>
<polyline clip-path="url(#clip012)" style="stroke:#000000; stroke-linecap:butt; stroke-linejoin:round; stroke-width:4; stroke-opacity:1; fill:none" points="
  1091.76,895.098 1091.76,894.854 
  "/>
<polyline clip-path="url(#clip012)" style="stroke:#000000; stroke-linecap:butt; stroke-linejoin:round; stroke-width:4; stroke-opacity:1; fill:none" points="
  497.747,1316.52 497.747,1316.24 
  "/>
<polyline clip-path="url(#clip012)" style="stroke:#000000; stroke-linecap:butt; stroke-linejoin:round; stroke-width:4; stroke-opacity:1; fill:none" points="
  611.087,1234.52 611.087,1234.28 
  "/>
<polyline clip-path="url(#clip012)" style="stroke:#000000; stroke-linecap:butt; stroke-linejoin:round; stroke-width:4; stroke-opacity:1; fill:none" points="
  752.649,1169.1 752.649,1168.86 
  "/>
<polyline clip-path="url(#clip012)" style="stroke:#000000; stroke-linecap:butt; stroke-linejoin:round; stroke-width:4; stroke-opacity:1; fill:none" points="
  474.987,1342.53 474.987,1342.3 
  "/>
<polyline clip-path="url(#clip012)" style="stroke:#000000; stroke-linecap:butt; stroke-linejoin:round; stroke-width:4; stroke-opacity:1; fill:none" points="
  853.245,1077.78 853.245,1077.54 
  "/>
<polyline clip-path="url(#clip012)" style="stroke:#000000; stroke-linecap:butt; stroke-linejoin:round; stroke-width:4; stroke-opacity:1; fill:none" points="
  1015.75,900.963 1015.75,900.719 
  "/>
<polyline clip-path="url(#clip012)" style="stroke:#000000; stroke-linecap:butt; stroke-linejoin:round; stroke-width:4; stroke-opacity:1; fill:none" points="
  545.996,1260.15 545.996,1259.9 
  "/>
<polyline clip-path="url(#clip012)" style="stroke:#000000; stroke-linecap:butt; stroke-linejoin:round; stroke-width:4; stroke-opacity:1; fill:none" points="
  789.974,1154.07 789.974,1153.84 
  "/>
<polyline clip-path="url(#clip012)" style="stroke:#000000; stroke-linecap:butt; stroke-linejoin:round; stroke-width:4; stroke-opacity:1; fill:none" points="
  774.953,1089.92 774.953,1089.67 
  "/>
<line clip-path="url(#clip012)" x1="800.057" y1="1152.21" x2="768.057" y2="1152.21" style="stroke:#000000; stroke-width:3.2; stroke-opacity:1"/>
<line clip-path="url(#clip012)" x1="800.057" y1="1152" x2="768.057" y2="1152" style="stroke:#000000; stroke-width:3.2; stroke-opacity:1"/>
<line clip-path="url(#clip012)" x1="910.211" y1="1019.28" x2="878.211" y2="1019.28" style="stroke:#000000; stroke-width:3.2; stroke-opacity:1"/>
<line clip-path="url(#clip012)" x1="910.211" y1="1019" x2="878.211" y2="1019" style="stroke:#000000; stroke-width:3.2; stroke-opacity:1"/>
<line clip-path="url(#clip012)" x1="1090.92" y1="881.973" x2="1058.92" y2="881.973" style="stroke:#000000; stroke-width:3.2; stroke-opacity:1"/>
<line clip-path="url(#clip012)" x1="1090.92" y1="881.72" x2="1058.92" y2="881.72" style="stroke:#000000; stroke-width:3.2; stroke-opacity:1"/>
<line clip-path="url(#clip012)" x1="1274.36" y1="808.34" x2="1242.36" y2="808.34" style="stroke:#000000; stroke-width:3.2; stroke-opacity:1"/>
<line clip-path="url(#clip012)" x1="1274.36" y1="808.087" x2="1242.36" y2="808.087" style="stroke:#000000; stroke-width:3.2; stroke-opacity:1"/>
<line clip-path="url(#clip012)" x1="719.945" y1="1119.05" x2="687.945" y2="1119.05" style="stroke:#000000; stroke-width:3.2; stroke-opacity:1"/>
<line clip-path="url(#clip012)" x1="719.945" y1="1118.74" x2="687.945" y2="1118.74" style="stroke:#000000; stroke-width:3.2; stroke-opacity:1"/>
<line clip-path="url(#clip012)" x1="441.828" y1="1375.16" x2="409.828" y2="1375.16" style="stroke:#000000; stroke-width:3.2; stroke-opacity:1"/>
<line clip-path="url(#clip012)" x1="441.828" y1="1374.9" x2="409.828" y2="1374.9" style="stroke:#000000; stroke-width:3.2; stroke-opacity:1"/>
<line clip-path="url(#clip012)" x1="1024.01" y1="942.806" x2="992.007" y2="942.806" style="stroke:#000000; stroke-width:3.2; stroke-opacity:1"/>
<line clip-path="url(#clip012)" x1="1024.01" y1="942.526" x2="992.007" y2="942.526" style="stroke:#000000; stroke-width:3.2; stroke-opacity:1"/>
<line clip-path="url(#clip012)" x1="739.973" y1="1205.67" x2="707.973" y2="1205.67" style="stroke:#000000; stroke-width:3.2; stroke-opacity:1"/>
<line clip-path="url(#clip012)" x1="739.973" y1="1205.47" x2="707.973" y2="1205.47" style="stroke:#000000; stroke-width:3.2; stroke-opacity:1"/>
<line clip-path="url(#clip012)" x1="1436.86" y1="549.433" x2="1404.86" y2="549.433" style="stroke:#000000; stroke-width:3.2; stroke-opacity:1"/>
<line clip-path="url(#clip012)" x1="1436.86" y1="549.126" x2="1404.86" y2="549.126" style="stroke:#000000; stroke-width:3.2; stroke-opacity:1"/>
<line clip-path="url(#clip012)" x1="651.667" y1="1210.88" x2="619.667" y2="1210.88" style="stroke:#000000; stroke-width:3.2; stroke-opacity:1"/>
<line clip-path="url(#clip012)" x1="651.667" y1="1210.64" x2="619.667" y2="1210.64" style="stroke:#000000; stroke-width:3.2; stroke-opacity:1"/>
<line clip-path="url(#clip012)" x1="450.931" y1="1370.5" x2="418.931" y2="1370.5" style="stroke:#000000; stroke-width:3.2; stroke-opacity:1"/>
<line clip-path="url(#clip012)" x1="450.931" y1="1370.28" x2="418.931" y2="1370.28" style="stroke:#000000; stroke-width:3.2; stroke-opacity:1"/>
<line clip-path="url(#clip012)" x1="2312.63" y1="196.247" x2="2280.63" y2="196.247" style="stroke:#000000; stroke-width:3.2; stroke-opacity:1"/>
<line clip-path="url(#clip012)" x1="2312.63" y1="196.031" x2="2280.63" y2="196.031" style="stroke:#000000; stroke-width:3.2; stroke-opacity:1"/>
<line clip-path="url(#clip012)" x1="1380.42" y1="739.539" x2="1348.42" y2="739.539" style="stroke:#000000; stroke-width:3.2; stroke-opacity:1"/>
<line clip-path="url(#clip012)" x1="1380.42" y1="739.277" x2="1348.42" y2="739.277" style="stroke:#000000; stroke-width:3.2; stroke-opacity:1"/>
<line clip-path="url(#clip012)" x1="590.217" y1="1293.42" x2="558.217" y2="1293.42" style="stroke:#000000; stroke-width:3.2; stroke-opacity:1"/>
<line clip-path="url(#clip012)" x1="590.217" y1="1293.23" x2="558.217" y2="1293.23" style="stroke:#000000; stroke-width:3.2; stroke-opacity:1"/>
<line clip-path="url(#clip012)" x1="876.073" y1="1078.63" x2="844.073" y2="1078.63" style="stroke:#000000; stroke-width:3.2; stroke-opacity:1"/>
<line clip-path="url(#clip012)" x1="876.073" y1="1078.41" x2="844.073" y2="1078.41" style="stroke:#000000; stroke-width:3.2; stroke-opacity:1"/>
<line clip-path="url(#clip012)" x1="1108.67" y1="951.297" x2="1076.67" y2="951.297" style="stroke:#000000; stroke-width:3.2; stroke-opacity:1"/>
<line clip-path="url(#clip012)" x1="1108.67" y1="951.089" x2="1076.67" y2="951.089" style="stroke:#000000; stroke-width:3.2; stroke-opacity:1"/>
<line clip-path="url(#clip012)" x1="1260.7" y1="777.47" x2="1228.7" y2="777.47" style="stroke:#000000; stroke-width:3.2; stroke-opacity:1"/>
<line clip-path="url(#clip012)" x1="1260.7" y1="777.235" x2="1228.7" y2="777.235" style="stroke:#000000; stroke-width:3.2; stroke-opacity:1"/>
<line clip-path="url(#clip012)" x1="991.689" y1="980.502" x2="959.689" y2="980.502" style="stroke:#000000; stroke-width:3.2; stroke-opacity:1"/>
<line clip-path="url(#clip012)" x1="991.689" y1="980.267" x2="959.689" y2="980.267" style="stroke:#000000; stroke-width:3.2; stroke-opacity:1"/>
<line clip-path="url(#clip012)" x1="541.513" y1="1316.04" x2="509.513" y2="1316.04" style="stroke:#000000; stroke-width:3.2; stroke-opacity:1"/>
<line clip-path="url(#clip012)" x1="541.513" y1="1315.82" x2="509.513" y2="1315.82" style="stroke:#000000; stroke-width:3.2; stroke-opacity:1"/>
<line clip-path="url(#clip012)" x1="1595.72" y1="494.353" x2="1563.72" y2="494.353" style="stroke:#000000; stroke-width:3.2; stroke-opacity:1"/>
<line clip-path="url(#clip012)" x1="1595.72" y1="494.118" x2="1563.72" y2="494.118" style="stroke:#000000; stroke-width:3.2; stroke-opacity:1"/>
<line clip-path="url(#clip012)" x1="1968.97" y1="373.819" x2="1936.97" y2="373.819" style="stroke:#000000; stroke-width:3.2; stroke-opacity:1"/>
<line clip-path="url(#clip012)" x1="1968.97" y1="373.539" x2="1936.97" y2="373.539" style="stroke:#000000; stroke-width:3.2; stroke-opacity:1"/>
<line clip-path="url(#clip012)" x1="1461.89" y1="704.116" x2="1429.89" y2="704.116" style="stroke:#000000; stroke-width:3.2; stroke-opacity:1"/>
<line clip-path="url(#clip012)" x1="1461.89" y1="703.864" x2="1429.89" y2="703.864" style="stroke:#000000; stroke-width:3.2; stroke-opacity:1"/>
<line clip-path="url(#clip012)" x1="1567.95" y1="605.154" x2="1535.95" y2="605.154" style="stroke:#000000; stroke-width:3.2; stroke-opacity:1"/>
<line clip-path="url(#clip012)" x1="1567.95" y1="604.937" x2="1535.95" y2="604.937" style="stroke:#000000; stroke-width:3.2; stroke-opacity:1"/>
<line clip-path="url(#clip012)" x1="1261.61" y1="858.841" x2="1229.61" y2="858.841" style="stroke:#000000; stroke-width:3.2; stroke-opacity:1"/>
<line clip-path="url(#clip012)" x1="1261.61" y1="858.651" x2="1229.61" y2="858.651" style="stroke:#000000; stroke-width:3.2; stroke-opacity:1"/>
<line clip-path="url(#clip012)" x1="1167.39" y1="884.346" x2="1135.39" y2="884.346" style="stroke:#000000; stroke-width:3.2; stroke-opacity:1"/>
<line clip-path="url(#clip012)" x1="1167.39" y1="884.129" x2="1135.39" y2="884.129" style="stroke:#000000; stroke-width:3.2; stroke-opacity:1"/>
<line clip-path="url(#clip012)" x1="731.779" y1="1173.04" x2="699.779" y2="1173.04" style="stroke:#000000; stroke-width:3.2; stroke-opacity:1"/>
<line clip-path="url(#clip012)" x1="731.779" y1="1172.77" x2="699.779" y2="1172.77" style="stroke:#000000; stroke-width:3.2; stroke-opacity:1"/>
<line clip-path="url(#clip012)" x1="1107.76" y1="895.098" x2="1075.76" y2="895.098" style="stroke:#000000; stroke-width:3.2; stroke-opacity:1"/>
<line clip-path="url(#clip012)" x1="1107.76" y1="894.854" x2="1075.76" y2="894.854" style="stroke:#000000; stroke-width:3.2; stroke-opacity:1"/>
<line clip-path="url(#clip012)" x1="513.747" y1="1316.52" x2="481.747" y2="1316.52" style="stroke:#000000; stroke-width:3.2; stroke-opacity:1"/>
<line clip-path="url(#clip012)" x1="513.747" y1="1316.24" x2="481.747" y2="1316.24" style="stroke:#000000; stroke-width:3.2; stroke-opacity:1"/>
<line clip-path="url(#clip012)" x1="627.087" y1="1234.52" x2="595.087" y2="1234.52" style="stroke:#000000; stroke-width:3.2; stroke-opacity:1"/>
<line clip-path="url(#clip012)" x1="627.087" y1="1234.28" x2="595.087" y2="1234.28" style="stroke:#000000; stroke-width:3.2; stroke-opacity:1"/>
<line clip-path="url(#clip012)" x1="768.649" y1="1169.1" x2="736.649" y2="1169.1" style="stroke:#000000; stroke-width:3.2; stroke-opacity:1"/>
<line clip-path="url(#clip012)" x1="768.649" y1="1168.86" x2="736.649" y2="1168.86" style="stroke:#000000; stroke-width:3.2; stroke-opacity:1"/>
<line clip-path="url(#clip012)" x1="490.987" y1="1342.53" x2="458.987" y2="1342.53" style="stroke:#000000; stroke-width:3.2; stroke-opacity:1"/>
<line clip-path="url(#clip012)" x1="490.987" y1="1342.3" x2="458.987" y2="1342.3" style="stroke:#000000; stroke-width:3.2; stroke-opacity:1"/>
<line clip-path="url(#clip012)" x1="869.245" y1="1077.78" x2="837.245" y2="1077.78" style="stroke:#000000; stroke-width:3.2; stroke-opacity:1"/>
<line clip-path="url(#clip012)" x1="869.245" y1="1077.54" x2="837.245" y2="1077.54" style="stroke:#000000; stroke-width:3.2; stroke-opacity:1"/>
<line clip-path="url(#clip012)" x1="1031.75" y1="900.963" x2="999.745" y2="900.963" style="stroke:#000000; stroke-width:3.2; stroke-opacity:1"/>
<line clip-path="url(#clip012)" x1="1031.75" y1="900.719" x2="999.745" y2="900.719" style="stroke:#000000; stroke-width:3.2; stroke-opacity:1"/>
<line clip-path="url(#clip012)" x1="561.996" y1="1260.15" x2="529.996" y2="1260.15" style="stroke:#000000; stroke-width:3.2; stroke-opacity:1"/>
<line clip-path="url(#clip012)" x1="561.996" y1="1259.9" x2="529.996" y2="1259.9" style="stroke:#000000; stroke-width:3.2; stroke-opacity:1"/>
<line clip-path="url(#clip012)" x1="805.974" y1="1154.07" x2="773.974" y2="1154.07" style="stroke:#000000; stroke-width:3.2; stroke-opacity:1"/>
<line clip-path="url(#clip012)" x1="805.974" y1="1153.84" x2="773.974" y2="1153.84" style="stroke:#000000; stroke-width:3.2; stroke-opacity:1"/>
<line clip-path="url(#clip012)" x1="790.953" y1="1089.92" x2="758.953" y2="1089.92" style="stroke:#000000; stroke-width:3.2; stroke-opacity:1"/>
<line clip-path="url(#clip012)" x1="790.953" y1="1089.67" x2="758.953" y2="1089.67" style="stroke:#000000; stroke-width:3.2; stroke-opacity:1"/>
<circle clip-path="url(#clip012)" cx="784.057" cy="1152.1" r="14" fill="#e26f46" fill-rule="evenodd" fill-opacity="1" stroke="#000000" stroke-opacity="1" stroke-width="3.2"/>
<circle clip-path="url(#clip012)" cx="894.211" cy="1019.14" r="14" fill="#e26f46" fill-rule="evenodd" fill-opacity="1" stroke="#000000" stroke-opacity="1" stroke-width="3.2"/>
<circle clip-path="url(#clip012)" cx="1074.92" cy="881.846" r="14" fill="#e26f46" fill-rule="evenodd" fill-opacity="1" stroke="#000000" stroke-opacity="1" stroke-width="3.2"/>
<circle clip-path="url(#clip012)" cx="1258.36" cy="808.213" r="14" fill="#e26f46" fill-rule="evenodd" fill-opacity="1" stroke="#000000" stroke-opacity="1" stroke-width="3.2"/>
<circle clip-path="url(#clip012)" cx="703.945" cy="1118.9" r="14" fill="#e26f46" fill-rule="evenodd" fill-opacity="1" stroke="#000000" stroke-opacity="1" stroke-width="3.2"/>
<circle clip-path="url(#clip012)" cx="425.828" cy="1375.03" r="14" fill="#e26f46" fill-rule="evenodd" fill-opacity="1" stroke="#000000" stroke-opacity="1" stroke-width="3.2"/>
<circle clip-path="url(#clip012)" cx="1008.01" cy="942.666" r="14" fill="#e26f46" fill-rule="evenodd" fill-opacity="1" stroke="#000000" stroke-opacity="1" stroke-width="3.2"/>
<circle clip-path="url(#clip012)" cx="723.973" cy="1205.57" r="14" fill="#e26f46" fill-rule="evenodd" fill-opacity="1" stroke="#000000" stroke-opacity="1" stroke-width="3.2"/>
<circle clip-path="url(#clip012)" cx="1420.86" cy="549.28" r="14" fill="#e26f46" fill-rule="evenodd" fill-opacity="1" stroke="#000000" stroke-opacity="1" stroke-width="3.2"/>
<circle clip-path="url(#clip012)" cx="635.667" cy="1210.76" r="14" fill="#e26f46" fill-rule="evenodd" fill-opacity="1" stroke="#000000" stroke-opacity="1" stroke-width="3.2"/>
<circle clip-path="url(#clip012)" cx="434.931" cy="1370.39" r="14" fill="#e26f46" fill-rule="evenodd" fill-opacity="1" stroke="#000000" stroke-opacity="1" stroke-width="3.2"/>
<circle clip-path="url(#clip012)" cx="2296.63" cy="196.139" r="14" fill="#e26f46" fill-rule="evenodd" fill-opacity="1" stroke="#000000" stroke-opacity="1" stroke-width="3.2"/>
<circle clip-path="url(#clip012)" cx="1364.42" cy="739.408" r="14" fill="#e26f46" fill-rule="evenodd" fill-opacity="1" stroke="#000000" stroke-opacity="1" stroke-width="3.2"/>
<circle clip-path="url(#clip012)" cx="574.217" cy="1293.32" r="14" fill="#e26f46" fill-rule="evenodd" fill-opacity="1" stroke="#000000" stroke-opacity="1" stroke-width="3.2"/>
<circle clip-path="url(#clip012)" cx="860.073" cy="1078.52" r="14" fill="#e26f46" fill-rule="evenodd" fill-opacity="1" stroke="#000000" stroke-opacity="1" stroke-width="3.2"/>
<circle clip-path="url(#clip012)" cx="1092.67" cy="951.193" r="14" fill="#e26f46" fill-rule="evenodd" fill-opacity="1" stroke="#000000" stroke-opacity="1" stroke-width="3.2"/>
<circle clip-path="url(#clip012)" cx="1244.7" cy="777.352" r="14" fill="#e26f46" fill-rule="evenodd" fill-opacity="1" stroke="#000000" stroke-opacity="1" stroke-width="3.2"/>
<circle clip-path="url(#clip012)" cx="975.689" cy="980.385" r="14" fill="#e26f46" fill-rule="evenodd" fill-opacity="1" stroke="#000000" stroke-opacity="1" stroke-width="3.2"/>
<circle clip-path="url(#clip012)" cx="525.513" cy="1315.93" r="14" fill="#e26f46" fill-rule="evenodd" fill-opacity="1" stroke="#000000" stroke-opacity="1" stroke-width="3.2"/>
<circle clip-path="url(#clip012)" cx="1579.72" cy="494.235" r="14" fill="#e26f46" fill-rule="evenodd" fill-opacity="1" stroke="#000000" stroke-opacity="1" stroke-width="3.2"/>
<circle clip-path="url(#clip012)" cx="1952.97" cy="373.679" r="14" fill="#e26f46" fill-rule="evenodd" fill-opacity="1" stroke="#000000" stroke-opacity="1" stroke-width="3.2"/>
<circle clip-path="url(#clip012)" cx="1445.89" cy="703.99" r="14" fill="#e26f46" fill-rule="evenodd" fill-opacity="1" stroke="#000000" stroke-opacity="1" stroke-width="3.2"/>
<circle clip-path="url(#clip012)" cx="1551.95" cy="605.046" r="14" fill="#e26f46" fill-rule="evenodd" fill-opacity="1" stroke="#000000" stroke-opacity="1" stroke-width="3.2"/>
<circle clip-path="url(#clip012)" cx="1245.61" cy="858.746" r="14" fill="#e26f46" fill-rule="evenodd" fill-opacity="1" stroke="#000000" stroke-opacity="1" stroke-width="3.2"/>
<circle clip-path="url(#clip012)" cx="1151.39" cy="884.238" r="14" fill="#e26f46" fill-rule="evenodd" fill-opacity="1" stroke="#000000" stroke-opacity="1" stroke-width="3.2"/>
<circle clip-path="url(#clip012)" cx="715.779" cy="1172.9" r="14" fill="#e26f46" fill-rule="evenodd" fill-opacity="1" stroke="#000000" stroke-opacity="1" stroke-width="3.2"/>
<circle clip-path="url(#clip012)" cx="1091.76" cy="894.976" r="14" fill="#e26f46" fill-rule="evenodd" fill-opacity="1" stroke="#000000" stroke-opacity="1" stroke-width="3.2"/>
<circle clip-path="url(#clip012)" cx="497.747" cy="1316.38" r="14" fill="#e26f46" fill-rule="evenodd" fill-opacity="1" stroke="#000000" stroke-opacity="1" stroke-width="3.2"/>
<circle clip-path="url(#clip012)" cx="611.087" cy="1234.4" r="14" fill="#e26f46" fill-rule="evenodd" fill-opacity="1" stroke="#000000" stroke-opacity="1" stroke-width="3.2"/>
<circle clip-path="url(#clip012)" cx="752.649" cy="1168.98" r="14" fill="#e26f46" fill-rule="evenodd" fill-opacity="1" stroke="#000000" stroke-opacity="1" stroke-width="3.2"/>
<circle clip-path="url(#clip012)" cx="474.987" cy="1342.41" r="14" fill="#e26f46" fill-rule="evenodd" fill-opacity="1" stroke="#000000" stroke-opacity="1" stroke-width="3.2"/>
<circle clip-path="url(#clip012)" cx="853.245" cy="1077.66" r="14" fill="#e26f46" fill-rule="evenodd" fill-opacity="1" stroke="#000000" stroke-opacity="1" stroke-width="3.2"/>
<circle clip-path="url(#clip012)" cx="1015.75" cy="900.841" r="14" fill="#e26f46" fill-rule="evenodd" fill-opacity="1" stroke="#000000" stroke-opacity="1" stroke-width="3.2"/>
<circle clip-path="url(#clip012)" cx="545.996" cy="1260.03" r="14" fill="#e26f46" fill-rule="evenodd" fill-opacity="1" stroke="#000000" stroke-opacity="1" stroke-width="3.2"/>
<circle clip-path="url(#clip012)" cx="789.974" cy="1153.95" r="14" fill="#e26f46" fill-rule="evenodd" fill-opacity="1" stroke="#000000" stroke-opacity="1" stroke-width="3.2"/>
<circle clip-path="url(#clip012)" cx="774.953" cy="1089.8" r="14" fill="#e26f46" fill-rule="evenodd" fill-opacity="1" stroke="#000000" stroke-opacity="1" stroke-width="3.2"/>
<path clip-path="url(#clip010)" d="
M1576.85 248.629 L2286.65 248.629 L2286.65 93.1086 L1576.85 93.1086  Z
  " fill="#ffffff" fill-rule="evenodd" fill-opacity="1"/>
<polyline clip-path="url(#clip010)" style="stroke:#000000; stroke-linecap:butt; stroke-linejoin:round; stroke-width:4; stroke-opacity:1; fill:none" points="
  1576.85,248.629 2286.65,248.629 2286.65,93.1086 1576.85,93.1086 1576.85,248.629 
  "/>
<polyline clip-path="url(#clip010)" style="stroke:#000000; stroke-linecap:butt; stroke-linejoin:round; stroke-width:4; stroke-opacity:1; fill:none" points="
  1598.88,144.949 1731.09,144.949 
  "/>
<path clip-path="url(#clip010)" d="M1753.12 127.669 L1757.8 127.669 L1757.8 141.835 L1774.79 141.835 L1774.79 127.669 L1779.46 127.669 L1779.46 162.229 L1774.79 162.229 L1774.79 145.77 L1757.8 145.77 L1757.8 162.229 L1753.12 162.229 L1753.12 127.669 Z" fill="#000000" fill-rule="evenodd" fill-opacity="1" /><path clip-path="url(#clip010)" d="M1808.28 170.099 L1808.28 173.409 L1783.65 173.409 L1783.65 170.099 L1808.28 170.099 Z" fill="#000000" fill-rule="evenodd" fill-opacity="1" /><path clip-path="url(#clip010)" d="M1822.89 130.747 Q1819.28 130.747 1817.45 134.312 Q1815.64 137.854 1815.64 144.983 Q1815.64 152.09 1817.45 155.655 Q1819.28 159.196 1822.89 159.196 Q1826.52 159.196 1828.33 155.655 Q1830.16 152.09 1830.16 144.983 Q1830.16 137.854 1828.33 134.312 Q1826.52 130.747 1822.89 130.747 M1822.89 127.044 Q1828.7 127.044 1831.76 131.65 Q1834.83 136.233 1834.83 144.983 Q1834.83 153.71 1831.76 158.317 Q1828.7 162.9 1822.89 162.9 Q1817.08 162.9 1814 158.317 Q1810.95 153.71 1810.95 144.983 Q1810.95 136.233 1814 131.65 Q1817.08 127.044 1822.89 127.044 Z" fill="#000000" fill-rule="evenodd" fill-opacity="1" /><path clip-path="url(#clip010)" d="M1858.07 140.701 L1887.75 140.701 L1887.75 144.59 L1858.07 144.59 L1858.07 140.701 M1858.07 150.145 L1887.75 150.145 L1887.75 154.081 L1858.07 154.081 L1858.07 150.145 Z" fill="#000000" fill-rule="evenodd" fill-opacity="1" /><path clip-path="url(#clip010)" d="M1911.73 127.669 L1933.95 127.669 L1933.95 129.659 L1921.41 162.229 L1916.52 162.229 L1928.33 131.604 L1911.73 131.604 L1911.73 127.669 Z" fill="#000000" fill-rule="evenodd" fill-opacity="1" /><path clip-path="url(#clip010)" d="M1953.07 130.747 Q1949.46 130.747 1947.63 134.312 Q1945.83 137.854 1945.83 144.983 Q1945.83 152.09 1947.63 155.655 Q1949.46 159.196 1953.07 159.196 Q1956.71 159.196 1958.51 155.655 Q1960.34 152.09 1960.34 144.983 Q1960.34 137.854 1958.51 134.312 Q1956.71 130.747 1953.07 130.747 M1953.07 127.044 Q1958.88 127.044 1961.94 131.65 Q1965.02 136.233 1965.02 144.983 Q1965.02 153.71 1961.94 158.317 Q1958.88 162.9 1953.07 162.9 Q1947.26 162.9 1944.19 158.317 Q1941.13 153.71 1941.13 144.983 Q1941.13 136.233 1944.19 131.65 Q1947.26 127.044 1953.07 127.044 Z" fill="#000000" fill-rule="evenodd" fill-opacity="1" /><path clip-path="url(#clip010)" d="M1987.54 126.21 L1991.82 126.21 L1991.82 147.483 L2004.53 136.303 L2009.97 136.303 L1996.22 148.432 L2010.55 162.229 L2005 162.229 L1991.82 149.567 L1991.82 162.229 L1987.54 162.229 L1987.54 126.21 Z" fill="#000000" fill-rule="evenodd" fill-opacity="1" /><path clip-path="url(#clip010)" d="M2035.34 141.28 Q2036.94 138.409 2039.16 137.044 Q2041.38 135.678 2044.39 135.678 Q2048.44 135.678 2050.64 138.525 Q2052.84 141.349 2052.84 146.581 L2052.84 162.229 L2048.56 162.229 L2048.56 146.719 Q2048.56 142.993 2047.24 141.187 Q2045.92 139.382 2043.21 139.382 Q2039.9 139.382 2037.98 141.581 Q2036.06 143.78 2036.06 147.576 L2036.06 162.229 L2031.78 162.229 L2031.78 146.719 Q2031.78 142.969 2030.46 141.187 Q2029.14 139.382 2026.38 139.382 Q2023.12 139.382 2021.2 141.604 Q2019.28 143.803 2019.28 147.576 L2019.28 162.229 L2014.99 162.229 L2014.99 136.303 L2019.28 136.303 L2019.28 140.331 Q2020.74 137.946 2022.77 136.812 Q2024.81 135.678 2027.61 135.678 Q2030.43 135.678 2032.4 137.113 Q2034.39 138.548 2035.34 141.28 Z" fill="#000000" fill-rule="evenodd" fill-opacity="1" /><path clip-path="url(#clip010)" d="M2068.91 127.669 L2072.84 127.669 L2060.8 166.627 L2056.87 166.627 L2068.91 127.669 Z" fill="#000000" fill-rule="evenodd" fill-opacity="1" /><path clip-path="url(#clip010)" d="M2087.54 126.257 Q2084.44 131.581 2082.93 136.789 Q2081.43 141.997 2081.43 147.344 Q2081.43 152.692 2082.93 157.946 Q2084.46 163.178 2087.54 168.479 L2083.84 168.479 Q2080.36 163.039 2078.63 157.784 Q2076.92 152.53 2076.92 147.344 Q2076.92 142.182 2078.63 136.951 Q2080.34 131.72 2083.84 126.257 L2087.54 126.257 Z" fill="#000000" fill-rule="evenodd" fill-opacity="1" /><path clip-path="url(#clip010)" d="M2112.33 137.067 L2112.33 141.094 Q2110.53 140.169 2108.58 139.706 Q2106.64 139.243 2104.55 139.243 Q2101.38 139.243 2099.79 140.215 Q2098.21 141.187 2098.21 143.131 Q2098.21 144.613 2099.35 145.469 Q2100.48 146.303 2103.91 147.067 L2105.36 147.391 Q2109.9 148.363 2111.8 150.145 Q2113.72 151.905 2113.72 155.076 Q2113.72 158.687 2110.85 160.793 Q2108 162.9 2103 162.9 Q2100.92 162.9 2098.65 162.483 Q2096.41 162.09 2093.91 161.28 L2093.91 156.881 Q2096.27 158.108 2098.56 158.733 Q2100.85 159.335 2103.1 159.335 Q2106.11 159.335 2107.73 158.317 Q2109.35 157.275 2109.35 155.4 Q2109.35 153.664 2108.17 152.738 Q2107.01 151.812 2103.05 150.956 L2101.57 150.608 Q2097.61 149.775 2095.85 148.062 Q2094.09 146.326 2094.09 143.317 Q2094.09 139.659 2096.68 137.669 Q2099.28 135.678 2104.05 135.678 Q2106.41 135.678 2108.49 136.025 Q2110.57 136.372 2112.33 137.067 Z" fill="#000000" fill-rule="evenodd" fill-opacity="1" /><path clip-path="url(#clip010)" d="M2135.76 127.669 L2142.73 127.669 L2151.55 151.187 L2160.41 127.669 L2167.38 127.669 L2167.38 162.229 L2162.82 162.229 L2162.82 131.882 L2153.91 155.585 L2149.21 155.585 L2140.3 131.882 L2140.3 162.229 L2135.76 162.229 L2135.76 127.669 Z" fill="#000000" fill-rule="evenodd" fill-opacity="1" /><path clip-path="url(#clip010)" d="M2180.6 158.34 L2180.6 172.09 L2176.31 172.09 L2176.31 136.303 L2180.6 136.303 L2180.6 140.238 Q2181.94 137.923 2183.98 136.812 Q2186.04 135.678 2188.88 135.678 Q2193.61 135.678 2196.54 139.428 Q2199.51 143.178 2199.51 149.289 Q2199.51 155.4 2196.54 159.15 Q2193.61 162.9 2188.88 162.9 Q2186.04 162.9 2183.98 161.789 Q2181.94 160.655 2180.6 158.34 M2195.09 149.289 Q2195.09 144.59 2193.14 141.928 Q2191.22 139.243 2187.84 139.243 Q2184.46 139.243 2182.52 141.928 Q2180.6 144.59 2180.6 149.289 Q2180.6 153.988 2182.52 156.673 Q2184.46 159.335 2187.84 159.335 Q2191.22 159.335 2193.14 156.673 Q2195.09 153.988 2195.09 149.289 Z" fill="#000000" fill-rule="evenodd" fill-opacity="1" /><path clip-path="url(#clip010)" d="M2225.23 137.298 L2225.23 141.28 Q2223.42 140.284 2221.59 139.798 Q2219.79 139.289 2217.93 139.289 Q2213.79 139.289 2211.5 141.928 Q2209.21 144.544 2209.21 149.289 Q2209.21 154.034 2211.5 156.673 Q2213.79 159.289 2217.93 159.289 Q2219.79 159.289 2221.59 158.803 Q2223.42 158.293 2225.23 157.298 L2225.23 161.233 Q2223.44 162.067 2221.52 162.483 Q2219.62 162.9 2217.47 162.9 Q2211.61 162.9 2208.17 159.219 Q2204.72 155.539 2204.72 149.289 Q2204.72 142.946 2208.19 139.312 Q2211.68 135.678 2217.75 135.678 Q2219.72 135.678 2221.59 136.095 Q2223.47 136.488 2225.23 137.298 Z" fill="#000000" fill-rule="evenodd" fill-opacity="1" /><path clip-path="url(#clip010)" d="M2231.96 126.257 L2235.67 126.257 Q2239.14 131.72 2240.85 136.951 Q2242.59 142.182 2242.59 147.344 Q2242.59 152.53 2240.85 157.784 Q2239.14 163.039 2235.67 168.479 L2231.96 168.479 Q2235.04 163.178 2236.54 157.946 Q2238.07 152.692 2238.07 147.344 Q2238.07 141.997 2236.54 136.789 Q2235.04 131.581 2231.96 126.257 Z" fill="#000000" fill-rule="evenodd" fill-opacity="1" /><circle clip-path="url(#clip010)" cx="1664.99" cy="196.789" r="23" fill="#e26f46" fill-rule="evenodd" fill-opacity="1" stroke="#000000" stroke-opacity="1" stroke-width="5.12"/>
<path clip-path="url(#clip010)" d="M1753.12 179.509 L1760.09 179.509 L1768.91 203.027 L1777.77 179.509 L1784.74 179.509 L1784.74 214.069 L1780.18 214.069 L1780.18 183.722 L1771.27 207.425 L1766.57 207.425 L1757.66 183.722 L1757.66 214.069 L1753.12 214.069 L1753.12 179.509 Z" fill="#000000" fill-rule="evenodd" fill-opacity="1" /><path clip-path="url(#clip010)" d="M1816.01 200.041 L1816.01 202.124 L1796.43 202.124 Q1796.71 206.522 1799.07 208.837 Q1801.45 211.129 1805.69 211.129 Q1808.14 211.129 1810.44 210.527 Q1812.75 209.925 1815.02 208.721 L1815.02 212.749 Q1812.73 213.721 1810.32 214.231 Q1807.91 214.74 1805.44 214.74 Q1799.23 214.74 1795.6 211.129 Q1791.99 207.518 1791.99 201.36 Q1791.99 194.995 1795.41 191.268 Q1798.86 187.518 1804.7 187.518 Q1809.93 187.518 1812.96 190.897 Q1816.01 194.254 1816.01 200.041 M1811.76 198.791 Q1811.71 195.296 1809.79 193.212 Q1807.89 191.129 1804.74 191.129 Q1801.18 191.129 1799.02 193.143 Q1796.89 195.157 1796.57 198.814 L1811.76 198.791 Z" fill="#000000" fill-rule="evenodd" fill-opacity="1" /><path clip-path="url(#clip010)" d="M1839.53 188.907 L1839.53 192.934 Q1837.73 192.009 1835.78 191.546 Q1833.84 191.083 1831.76 191.083 Q1828.58 191.083 1826.99 192.055 Q1825.41 193.027 1825.41 194.971 Q1825.41 196.453 1826.55 197.309 Q1827.68 198.143 1831.11 198.907 L1832.57 199.231 Q1837.1 200.203 1839 201.985 Q1840.92 203.745 1840.92 206.916 Q1840.92 210.527 1838.05 212.633 Q1835.2 214.74 1830.2 214.74 Q1828.12 214.74 1825.85 214.323 Q1823.61 213.93 1821.11 213.12 L1821.11 208.721 Q1823.47 209.948 1825.76 210.573 Q1828.05 211.175 1830.3 211.175 Q1833.31 211.175 1834.93 210.157 Q1836.55 209.115 1836.55 207.24 Q1836.55 205.504 1835.37 204.578 Q1834.21 203.652 1830.25 202.796 L1828.77 202.448 Q1824.81 201.615 1823.05 199.902 Q1821.29 198.166 1821.29 195.157 Q1821.29 191.499 1823.88 189.509 Q1826.48 187.518 1831.25 187.518 Q1833.61 187.518 1835.69 187.865 Q1837.77 188.212 1839.53 188.907 Z" fill="#000000" fill-rule="evenodd" fill-opacity="1" /><path clip-path="url(#clip010)" d="M1864.23 188.907 L1864.23 192.934 Q1862.43 192.009 1860.48 191.546 Q1858.54 191.083 1856.45 191.083 Q1853.28 191.083 1851.69 192.055 Q1850.11 193.027 1850.11 194.971 Q1850.11 196.453 1851.25 197.309 Q1852.38 198.143 1855.81 198.907 L1857.26 199.231 Q1861.8 200.203 1863.7 201.985 Q1865.62 203.745 1865.62 206.916 Q1865.62 210.527 1862.75 212.633 Q1859.9 214.74 1854.9 214.74 Q1852.82 214.74 1850.55 214.323 Q1848.31 213.93 1845.81 213.12 L1845.81 208.721 Q1848.17 209.948 1850.46 210.573 Q1852.75 211.175 1855 211.175 Q1858.01 211.175 1859.63 210.157 Q1861.25 209.115 1861.25 207.24 Q1861.25 205.504 1860.07 204.578 Q1858.91 203.652 1854.95 202.796 L1853.47 202.448 Q1849.51 201.615 1847.75 199.902 Q1845.99 198.166 1845.99 195.157 Q1845.99 191.499 1848.58 189.509 Q1851.18 187.518 1855.94 187.518 Q1858.31 187.518 1860.39 187.865 Q1862.47 188.212 1864.23 188.907 Z" fill="#000000" fill-rule="evenodd" fill-opacity="1" /><path clip-path="url(#clip010)" d="M1871.96 203.837 L1871.96 188.143 L1876.22 188.143 L1876.22 203.675 Q1876.22 207.356 1877.66 209.208 Q1879.09 211.036 1881.96 211.036 Q1885.41 211.036 1887.4 208.837 Q1889.42 206.638 1889.42 202.842 L1889.42 188.143 L1893.68 188.143 L1893.68 214.069 L1889.42 214.069 L1889.42 210.087 Q1887.87 212.448 1885.81 213.606 Q1883.77 214.74 1881.06 214.74 Q1876.59 214.74 1874.28 211.962 Q1871.96 209.184 1871.96 203.837 M1882.68 187.518 L1882.68 187.518 Z" fill="#000000" fill-rule="evenodd" fill-opacity="1" /><path clip-path="url(#clip010)" d="M1924 198.421 L1924 214.069 L1919.74 214.069 L1919.74 198.559 Q1919.74 194.879 1918.31 193.05 Q1916.87 191.222 1914 191.222 Q1910.55 191.222 1908.56 193.421 Q1906.57 195.62 1906.57 199.416 L1906.57 214.069 L1902.29 214.069 L1902.29 188.143 L1906.57 188.143 L1906.57 192.171 Q1908.1 189.833 1910.16 188.675 Q1912.24 187.518 1914.95 187.518 Q1919.42 187.518 1921.71 190.296 Q1924 193.05 1924 198.421 Z" fill="#000000" fill-rule="evenodd" fill-opacity="1" /><path clip-path="url(#clip010)" d="M1949.56 200.805 Q1949.56 196.175 1947.63 193.629 Q1945.74 191.083 1942.29 191.083 Q1938.86 191.083 1936.94 193.629 Q1935.04 196.175 1935.04 200.805 Q1935.04 205.411 1936.94 207.958 Q1938.86 210.504 1942.29 210.504 Q1945.74 210.504 1947.63 207.958 Q1949.56 205.411 1949.56 200.805 M1953.81 210.851 Q1953.81 217.471 1950.87 220.689 Q1947.94 223.93 1941.87 223.93 Q1939.62 223.93 1937.63 223.582 Q1935.64 223.258 1933.77 222.564 L1933.77 218.42 Q1935.64 219.439 1937.47 219.925 Q1939.3 220.411 1941.2 220.411 Q1945.39 220.411 1947.47 218.212 Q1949.56 216.036 1949.56 211.615 L1949.56 209.508 Q1948.24 211.8 1946.18 212.934 Q1944.12 214.069 1941.25 214.069 Q1936.48 214.069 1933.56 210.434 Q1930.64 206.8 1930.64 200.805 Q1930.64 194.786 1933.56 191.152 Q1936.48 187.518 1941.25 187.518 Q1944.12 187.518 1946.18 188.652 Q1948.24 189.786 1949.56 192.078 L1949.56 188.143 L1953.81 188.143 L1953.81 210.851 Z" fill="#000000" fill-rule="evenodd" fill-opacity="1" /><path clip-path="url(#clip010)" d="M1984.76 200.041 L1984.76 202.124 L1965.18 202.124 Q1965.46 206.522 1967.82 208.837 Q1970.2 211.129 1974.44 211.129 Q1976.89 211.129 1979.18 210.527 Q1981.5 209.925 1983.77 208.721 L1983.77 212.749 Q1981.48 213.721 1979.07 214.231 Q1976.66 214.74 1974.18 214.74 Q1967.98 214.74 1964.35 211.129 Q1960.74 207.518 1960.74 201.36 Q1960.74 194.995 1964.16 191.268 Q1967.61 187.518 1973.44 187.518 Q1978.68 187.518 1981.71 190.897 Q1984.76 194.254 1984.76 200.041 M1980.5 198.791 Q1980.46 195.296 1978.54 193.212 Q1976.64 191.129 1973.49 191.129 Q1969.93 191.129 1967.77 193.143 Q1965.64 195.157 1965.32 198.814 L1980.5 198.791 Z" fill="#000000" fill-rule="evenodd" fill-opacity="1" /><path clip-path="url(#clip010)" d="M2013.31 198.421 L2013.31 214.069 L2009.05 214.069 L2009.05 198.559 Q2009.05 194.879 2007.61 193.05 Q2006.18 191.222 2003.31 191.222 Q1999.86 191.222 1997.87 193.421 Q1995.87 195.62 1995.87 199.416 L1995.87 214.069 L1991.59 214.069 L1991.59 188.143 L1995.87 188.143 L1995.87 192.171 Q1997.4 189.833 1999.46 188.675 Q2001.55 187.518 2004.25 187.518 Q2008.72 187.518 2011.01 190.296 Q2013.31 193.05 2013.31 198.421 Z" fill="#000000" fill-rule="evenodd" fill-opacity="1" /></svg>
