<?xml version="1.0" encoding="utf-8"?>
<svg xmlns="http://www.w3.org/2000/svg" xmlns:xlink="http://www.w3.org/1999/xlink" width="800" height="800" viewBox="0 0 3200 3200">
<defs>
  <clipPath id="clip180">
    <rect x="0" y="0" width="3200" height="3200"/>
  </clipPath>
</defs>
<path clip-path="url(#clip180)" d="
M0 3200 L3200 3200 L3200 0 L0 0  Z
  " fill="#ffffff" fill-rule="evenodd" fill-opacity="1"/>
<defs>
  <clipPath id="clip181">
    <rect x="640" y="320" width="2241" height="2241"/>
  </clipPath>
</defs>
<path clip-path="url(#clip180)" d="
M47.2441 3152.76 L3152.76 3152.76 L3152.76 47.2441 L47.2441 47.2441  Z
  " fill="#ffffff" fill-rule="evenodd" fill-opacity="1"/>
<defs>
  <clipPath id="clip182">
    <rect x="47" y="47" width="3107" height="3107"/>
  </clipPath>
</defs>
<polyline clip-path="url(#clip182)" style="stroke:#000000; stroke-linecap:butt; stroke-linejoin:round; stroke-width:4; stroke-opacity:1; fill:none" points="
  1727.66,2164.64 1713.88,2165.47 1700.12,2166.28 1686.39,2167.05 1672.7,2167.78 1659.06,2168.45 1645.49,2169.03 1632.01,2169.51 1618.62,2169.89 1605.34,2170.13 
  1592.18,2170.23 1579.16,2170.17 1566.29,2169.93 1553.59,2169.49 1541.06,2168.85 1528.73,2167.98 1516.6,2166.86 1504.69,2165.49 1493.01,2163.85 1481.59,2161.91 
  1470.42,2159.67 1459.52,2157.1 1448.92,2154.19 1438.61,2150.93 1428.62,2147.3 1418.96,2143.28 1409.63,2138.87 1400.61,2134.09 1391.9,2128.96 1383.47,2123.49 
  1375.32,2117.69 1367.43,2111.59 1359.78,2105.19 1352.37,2098.53 1345.18,2091.6 1338.19,2084.43 1331.39,2077.04 1324.78,2069.43 1318.32,2061.63 1312.02,2053.65 
  1305.86,2045.52 1299.82,2037.23 1293.88,2028.82 1288.05,2020.3 1282.3,2011.67 1276.61,2002.97 1270.98,1994.2 1265.39,1985.38 1259.83,1976.54 1254.29,1967.67 
  
  "/>
<polyline clip-path="url(#clip182)" style="stroke:#000000; stroke-linecap:butt; stroke-linejoin:round; stroke-width:4; stroke-opacity:1; fill:none" points="
  1259.4,2021.09 1254.29,1967.67 1300.09,1995.63 
  "/>
<polyline clip-path="url(#clip182)" style="stroke:#000000; stroke-linecap:butt; stroke-linejoin:round; stroke-width:4; stroke-opacity:1; fill:none" points="
  1254.29,1967.67 1259.83,1976.54 
  "/>
<polyline clip-path="url(#clip182)" style="stroke:#000000; stroke-linecap:butt; stroke-linejoin:round; stroke-width:4; stroke-opacity:1; fill:none" points="
  1213.57,1924.98 1203.27,1916.05 1192.99,1907.12 1182.75,1898.18 1172.58,1889.23 1162.49,1880.27 1152.51,1871.29 1142.65,1862.29 1132.94,1853.26 1123.4,1844.21 
  1114.05,1835.13 1104.92,1826.01 1096.01,1816.86 1087.36,1807.67 1078.98,1798.43 1070.9,1789.14 1063.14,1779.81 1055.72,1770.42 1048.65,1760.97 1041.97,1751.46 
  1035.69,1741.89 1029.83,1732.25 1024.41,1722.54 1019.46,1712.76 1015,1702.89 1011.04,1692.95 1007.59,1682.92 1004.63,1672.82 1002.13,1662.64 1000.08,1652.4 
  998.447,1642.08 997.218,1631.7 996.369,1621.26 995.88,1610.76 995.73,1600.21 995.897,1589.61 996.36,1578.96 997.097,1568.26 998.089,1557.53 999.313,1546.76 
  1000.75,1535.95 1002.38,1525.11 1004.17,1514.25 1006.11,1503.36 1008.18,1492.46 1010.36,1481.53 1012.62,1470.6 1014.94,1459.65 1017.31,1448.69 1019.7,1437.74 
  
  "/>
<polyline clip-path="url(#clip182)" style="stroke:#000000; stroke-linecap:butt; stroke-linejoin:round; stroke-width:4; stroke-opacity:1; fill:none" points="
  986.03,1479.53 1019.7,1437.74 1032.93,1489.75 
  "/>
<polyline clip-path="url(#clip182)" style="stroke:#000000; stroke-linecap:butt; stroke-linejoin:round; stroke-width:4; stroke-opacity:1; fill:none" points="
  1019.7,1437.74 1017.31,1448.69 
  "/>
<polyline clip-path="url(#clip182)" style="stroke:#000000; stroke-linecap:butt; stroke-linejoin:round; stroke-width:4; stroke-opacity:1; fill:none" points="
  1020.8,1395.05 1034.42,1392.43 1048.03,1389.8 1061.59,1387.14 1075.11,1384.45 1088.56,1381.7 1101.93,1378.88 1115.2,1375.99 1128.34,1373 1141.36,1369.91 
  1154.22,1366.7 1166.91,1363.36 1179.42,1359.88 1191.73,1356.23 1203.82,1352.42 1215.67,1348.42 1227.28,1344.23 1238.61,1339.82 1249.66,1335.19 1260.4,1330.32 
  1270.83,1325.21 1280.92,1319.83 1290.65,1314.18 1300.02,1308.23 1309,1301.98 1317.57,1295.42 1325.75,1288.55 1333.54,1281.37 1340.95,1273.9 1348.02,1266.16 
  1354.75,1258.15 1361.16,1249.89 1367.26,1241.4 1373.08,1232.68 1378.63,1223.76 1383.93,1214.63 1389,1205.32 1393.84,1195.84 1398.49,1186.21 1402.95,1176.42 
  1407.24,1166.51 1411.38,1156.48 1415.38,1146.34 1419.27,1136.11 1423.06,1125.81 1426.76,1115.43 1430.4,1105.01 1433.98,1094.54 1437.53,1084.05 1441.07,1073.54 
  
  "/>
<polyline clip-path="url(#clip182)" style="stroke:#000000; stroke-linecap:butt; stroke-linejoin:round; stroke-width:4; stroke-opacity:1; fill:none" points="
  1403.01,1111.38 1441.07,1073.54 1448.51,1126.69 
  "/>
<polyline clip-path="url(#clip182)" style="stroke:#000000; stroke-linecap:butt; stroke-linejoin:round; stroke-width:4; stroke-opacity:1; fill:none" points="
  1441.07,1073.54 1437.53,1084.05 
  "/>
<polyline clip-path="url(#clip182)" style="stroke:#000000; stroke-linecap:butt; stroke-linejoin:round; stroke-width:4; stroke-opacity:1; fill:none" points="
  1465.28,1030.86 1476.72,1042.57 1488.13,1054.26 1499.47,1065.89 1510.71,1077.46 1521.83,1088.93 1532.78,1100.27 1543.53,1111.47 1554.05,1122.5 1564.32,1133.33 
  1574.28,1143.95 1583.92,1154.32 1593.2,1164.42 1602.09,1174.23 1610.55,1183.72 1618.56,1192.87 1626.07,1201.65 1633.06,1210.04 1639.5,1218.02 1645.34,1225.56 
  1650.57,1232.64 1655.14,1239.23 1659.02,1245.3 1662.18,1250.84 1664.59,1255.82 1666.21,1260.22 1667.06,1264.03 1667.15,1267.27 1666.51,1269.99 1665.2,1272.19 
  1663.22,1273.9 1660.63,1275.15 1657.45,1275.95 1653.71,1276.35 1649.45,1276.35 1644.69,1275.99 1639.48,1275.29 1633.84,1274.27 1627.82,1272.95 1621.43,1271.37 
  1614.71,1269.55 1607.7,1267.5 1600.43,1265.26 1592.92,1262.85 1585.23,1260.29 1577.36,1257.61 1569.37,1254.83 1561.28,1251.98 1553.12,1249.09 1544.93,1246.16 
  
  "/>
<polyline clip-path="url(#clip182)" style="stroke:#000000; stroke-linecap:butt; stroke-linejoin:round; stroke-width:4; stroke-opacity:1; fill:none" points="
  1582.07,1284.9 1544.93,1246.16 1598.21,1239.7 
  "/>
<polyline clip-path="url(#clip182)" style="stroke:#000000; stroke-linecap:butt; stroke-linejoin:round; stroke-width:4; stroke-opacity:1; fill:none" points="
  1544.93,1246.16 1553.12,1249.09 
  "/>
<polyline clip-path="url(#clip182)" style="stroke:#000000; stroke-linecap:butt; stroke-linejoin:round; stroke-width:4; stroke-opacity:1; fill:none" points="
  1966.89,1287.92 1965.83,1301.79 1964.78,1315.65 1963.77,1329.49 1962.8,1343.28 1961.9,1357.02 1961.08,1370.69 1960.36,1384.28 1959.76,1397.78 1959.29,1411.16 
  1958.96,1424.43 1958.8,1437.56 1958.81,1450.55 1959.03,1463.37 1959.45,1476.02 1960.11,1488.48 1961.01,1500.73 1962.17,1512.77 1963.61,1524.59 1965.34,1536.15 
  1967.39,1547.47 1969.76,1558.51 1972.48,1569.27 1975.56,1579.74 1979.01,1589.89 1982.85,1599.72 1987.09,1609.23 1991.71,1618.43 1996.68,1627.33 2002,1635.95 
  2007.64,1644.3 2013.59,1652.4 2019.84,1660.25 2026.37,1667.87 2033.16,1675.28 2040.2,1682.48 2047.46,1689.5 2054.94,1696.34 2062.61,1703.02 2070.46,1709.55 
  2078.48,1715.95 2086.64,1722.22 2094.94,1728.39 2103.35,1734.46 2111.86,1740.46 2120.45,1746.38 2129.1,1752.25 2137.8,1758.08 2146.54,1763.89 2155.29,1769.68 
  
  "/>
<polyline clip-path="url(#clip182)" style="stroke:#000000; stroke-linecap:butt; stroke-linejoin:round; stroke-width:4; stroke-opacity:1; fill:none" points="
  2128.5,1723.18 2155.29,1769.68 2102.02,1763.21 
  "/>
<polyline clip-path="url(#clip182)" style="stroke:#000000; stroke-linecap:butt; stroke-linejoin:round; stroke-width:4; stroke-opacity:1; fill:none" points="
  2155.29,1769.68 2146.54,1763.89 
  "/>
<polyline clip-path="url(#clip182)" style="stroke:#000000; stroke-linecap:butt; stroke-linejoin:round; stroke-width:4; stroke-opacity:1; fill:none" points="
  2197.88,1812.36 2183.94,1814.56 2170.01,1816.76 2156.12,1819 2142.27,1821.27 2128.49,1823.6 2114.8,1826 2101.2,1828.48 2087.71,1831.06 2074.36,1833.75 
  2061.15,1836.56 2048.11,1839.51 2035.24,1842.61 2022.58,1845.87 2010.12,1849.32 1997.89,1852.96 1985.91,1856.8 1974.19,1860.86 1962.75,1865.16 1951.6,1869.7 
  1940.76,1874.51 1930.25,1879.59 1920.08,1884.96 1910.27,1890.63 1900.84,1896.62 1891.8,1902.94 1883.15,1909.59 1874.87,1916.55 1866.96,1923.82 1859.38,1931.37 
  1852.14,1939.2 1845.2,1947.3 1838.56,1955.64 1832.2,1964.21 1826.1,1973 1820.24,1982 1814.61,1991.19 1809.2,2000.56 1803.98,2010.1 1798.94,2019.79 
  1794.06,2029.61 1789.33,2039.56 1784.73,2049.62 1780.25,2059.77 1775.86,2070.01 1771.56,2080.32 1767.32,2090.68 1763.13,2101.08 1758.97,2111.51 1754.83,2121.96 
  
  "/>
<polyline clip-path="url(#clip182)" style="stroke:#000000; stroke-linecap:butt; stroke-linejoin:round; stroke-width:4; stroke-opacity:1; fill:none" points="
  1794.83,2086.18 1754.83,2121.96 1750.21,2068.49 
  "/>
<polyline clip-path="url(#clip182)" style="stroke:#000000; stroke-linecap:butt; stroke-linejoin:round; stroke-width:4; stroke-opacity:1; fill:none" points="
  1754.83,2121.96 1758.97,2111.51 
  "/>
<polyline clip-path="url(#clip182)" style="stroke:#000000; stroke-linecap:butt; stroke-linejoin:round; stroke-width:4; stroke-opacity:1; fill:none" points="
  2197.88,1812.36 2211.48,1813.53 2225.07,1814.69 2238.63,1815.81 2252.15,1816.88 2265.61,1817.89 2279.01,1818.82 2292.33,1819.65 2305.56,1820.36 2318.68,1820.94 
  2331.67,1821.38 2344.54,1821.65 2357.25,1821.74 2369.8,1821.64 2382.18,1821.32 2394.38,1820.78 2406.37,1819.99 2418.14,1818.93 2429.69,1817.6 2441,1815.98 
  2452.05,1814.05 2462.83,1811.78 2473.33,1809.18 2483.54,1806.22 2493.44,1802.87 2503.01,1799.14 2512.27,1795.02 2521.21,1790.52 2529.86,1785.66 2538.23,1780.46 
  2546.33,1774.93 2554.18,1769.09 2561.78,1762.95 2569.16,1756.54 2576.32,1749.87 2583.28,1742.95 2590.05,1735.8 2596.65,1728.44 2603.09,1720.88 2609.38,1713.15 
  2615.53,1705.25 2621.57,1697.2 2627.49,1689.02 2633.33,1680.73 2639.08,1672.34 2644.76,1663.87 2650.4,1655.33 2655.99,1646.75 2661.55,1638.13 2667.1,1629.49 
  
  "/>
<polyline clip-path="url(#clip182)" style="stroke:#000000; stroke-linecap:butt; stroke-linejoin:round; stroke-width:4; stroke-opacity:1; fill:none" points="
  2620.96,1656.89 2667.1,1629.49 2661.34,1682.85 
  "/>
<polyline clip-path="url(#clip182)" style="stroke:#000000; stroke-linecap:butt; stroke-linejoin:round; stroke-width:4; stroke-opacity:1; fill:none" points="
  2667.1,1629.49 2661.55,1638.13 
  "/>
<polyline clip-path="url(#clip182)" style="stroke:#000000; stroke-linecap:butt; stroke-linejoin:round; stroke-width:4; stroke-opacity:1; fill:none" points="
  2597.4,2188.41 2592.78,2175.36 2588.16,2162.33 2583.52,2149.34 2578.88,2136.42 2574.21,2123.57 2569.53,2110.83 2564.82,2098.22 2560.08,2085.75 2555.3,2073.45 
  2550.49,2061.34 2545.63,2049.43 2540.73,2037.76 2535.77,2026.33 2530.76,2015.17 2525.69,2004.31 2520.55,1993.76 2515.34,1983.54 2510.06,1973.67 2504.7,1964.18 
  2499.26,1955.09 2493.74,1946.41 2488.12,1938.17 2482.41,1930.39 2476.6,1923.09 2470.69,1916.29 2464.67,1909.98 2458.55,1904.16 2452.34,1898.79 2446.04,1893.86 
  2439.65,1889.35 2433.18,1885.23 2426.64,1881.49 2420.02,1878.1 2413.33,1875.05 2406.57,1872.3 2399.76,1869.85 2392.88,1867.67 2385.96,1865.74 2378.99,1864.04 
  2371.98,1862.55 2364.93,1861.24 2357.84,1860.1 2350.72,1859.11 2343.58,1858.24 2336.42,1857.48 2329.23,1856.8 2322.04,1856.18 2314.84,1855.61 2307.63,1855.05 
  
  "/>
<polyline clip-path="url(#clip182)" style="stroke:#000000; stroke-linecap:butt; stroke-linejoin:round; stroke-width:4; stroke-opacity:1; fill:none" points="
  2353.64,1882.67 2307.63,1855.05 2357.33,1834.81 
  "/>
<polyline clip-path="url(#clip182)" style="stroke:#000000; stroke-linecap:butt; stroke-linejoin:round; stroke-width:4; stroke-opacity:1; fill:none" points="
  2307.63,1855.05 2314.84,1855.61 
  "/>
<polyline clip-path="url(#clip182)" style="stroke:#000000; stroke-linecap:butt; stroke-linejoin:round; stroke-width:4; stroke-opacity:1; fill:none" points="
  1660.36,2709.11 1655.24,2696.73 1650.14,2684.36 1645.08,2672 1640.08,2659.67 1635.16,2647.36 1630.34,2635.09 1625.64,2622.86 1621.08,2610.68 1616.68,2598.56 
  1612.46,2586.5 1608.44,2574.51 1604.65,2562.6 1601.09,2550.78 1597.79,2539.05 1594.77,2527.42 1592.06,2515.9 1589.66,2504.49 1587.61,2493.2 1585.91,2482.04 
  1584.6,2471.01 1583.69,2460.13 1583.19,2449.4 1583.14,2438.82 1583.55,2428.41 1584.44,2418.17 1585.81,2408.1 1587.64,2398.2 1589.91,2388.45 1592.6,2378.85 
  1595.7,2369.39 1599.17,2360.07 1603,2350.88 1607.18,2341.81 1611.67,2332.85 1616.47,2324 1621.54,2315.25 1626.88,2306.59 1632.46,2298.02 1638.25,2289.52 
  1644.25,2281.1 1650.43,2272.74 1656.77,2264.44 1663.24,2256.19 1669.84,2247.98 1676.54,2239.81 1683.32,2231.66 1690.16,2223.54 1697.04,2215.43 1703.94,2207.33 
  
  "/>
<polyline clip-path="url(#clip182)" style="stroke:#000000; stroke-linecap:butt; stroke-linejoin:round; stroke-width:4; stroke-opacity:1; fill:none" points="
  1654.54,2228.31 1703.94,2207.33 1691.09,2259.43 
  "/>
<polyline clip-path="url(#clip182)" style="stroke:#000000; stroke-linecap:butt; stroke-linejoin:round; stroke-width:4; stroke-opacity:1; fill:none" points="
  1703.94,2207.33 1697.04,2215.43 
  "/>
<polyline clip-path="url(#clip182)" style="stroke:#000000; stroke-linecap:butt; stroke-linejoin:round; stroke-width:4; stroke-opacity:1; fill:none" points="
  490.889,1319.98 503.391,1315.22 515.883,1310.49 528.354,1305.79 540.794,1301.15 553.191,1296.57 565.535,1292.09 577.816,1287.72 590.024,1283.47 602.147,1279.37 
  614.175,1275.43 626.098,1271.67 637.904,1268.11 649.585,1264.76 661.128,1261.65 672.523,1258.79 683.761,1256.21 694.83,1253.91 705.719,1251.92 716.419,1250.25 
  726.918,1248.93 737.207,1247.96 747.274,1247.38 757.109,1247.19 766.702,1247.42 776.042,1248.08 785.13,1249.18 793.975,1250.69 802.588,1252.59 810.979,1254.88 
  819.16,1257.52 827.141,1260.51 834.931,1263.82 842.543,1267.44 849.986,1271.35 857.27,1275.53 864.408,1279.96 871.408,1284.63 878.281,1289.51 885.039,1294.6 
  891.691,1299.86 898.248,1305.28 904.721,1310.85 911.12,1316.55 917.456,1322.35 923.739,1328.25 929.98,1334.21 936.189,1340.23 942.377,1346.29 948.555,1352.36 
  
  "/>
<polyline clip-path="url(#clip182)" style="stroke:#000000; stroke-linecap:butt; stroke-linejoin:round; stroke-width:4; stroke-opacity:1; fill:none" points="
  931.156,1301.6 948.555,1352.36 897.502,1335.82 
  "/>
<polyline clip-path="url(#clip182)" style="stroke:#000000; stroke-linecap:butt; stroke-linejoin:round; stroke-width:4; stroke-opacity:1; fill:none" points="
  948.555,1352.36 942.377,1346.29 
  "/>
<polyline clip-path="url(#clip182)" style="stroke:#000000; stroke-linecap:butt; stroke-linejoin:round; stroke-width:4; stroke-opacity:1; fill:none" points="
  1451.69,490.889 1458.58,502.172 1465.46,513.453 1472.29,524.725 1479.06,535.986 1485.75,547.232 1492.33,558.459 1498.79,569.664 1505.1,580.842 1511.24,591.989 
  1517.19,603.103 1522.93,614.178 1528.45,625.212 1533.71,636.201 1538.7,647.141 1543.39,658.027 1547.77,668.857 1551.82,679.626 1555.51,690.331 1558.82,700.967 
  1561.74,711.532 1564.23,722.021 1566.29,732.431 1567.88,742.757 1568.99,752.996 1569.6,763.145 1569.71,773.203 1569.33,783.174 1568.5,793.061 1567.22,802.87 
  1565.53,812.602 1563.44,822.263 1560.97,831.855 1558.14,841.383 1554.98,850.851 1551.5,860.262 1547.73,869.619 1543.69,878.928 1539.4,888.191 1534.87,897.413 
  1530.14,906.596 1525.22,915.746 1520.13,924.865 1514.89,933.958 1509.53,943.028 1504.06,952.08 1498.51,961.116 1492.9,970.14 1487.24,979.158 1481.57,988.171 
  
  "/>
<polyline clip-path="url(#clip182)" style="stroke:#000000; stroke-linecap:butt; stroke-linejoin:round; stroke-width:4; stroke-opacity:1; fill:none" points="
  1527.45,960.344 1481.57,988.171 1486.84,934.765 
  "/>
<polyline clip-path="url(#clip182)" style="stroke:#000000; stroke-linecap:butt; stroke-linejoin:round; stroke-width:4; stroke-opacity:1; fill:none" points="
  1481.57,988.171 1487.24,979.158 
  "/>
<path clip-path="url(#clip182)" d="
M1359.9 2207.33 L2095.41 2207.33 L2095.41 2121.96 L1359.9 2121.96 L1359.9 2207.33 L1359.9 2207.33  Z
  " fill="#fffbd3" fill-rule="evenodd" fill-opacity="1"/>
<polyline clip-path="url(#clip182)" style="stroke:#000000; stroke-linecap:butt; stroke-linejoin:round; stroke-width:4; stroke-opacity:1; fill:none" points="
  1359.9,2207.33 2095.41,2207.33 2095.41,2121.96 1359.9,2121.96 1359.9,2207.33 
  "/>
<path clip-path="url(#clip182)" d="
M791.614 1967.67 L1635.52 1967.67 L1635.52 1882.3 L791.614 1882.3 L791.614 1967.67 L791.614 1967.67  Z
  " fill="#fffbd3" fill-rule="evenodd" fill-opacity="1"/>
<polyline clip-path="url(#clip182)" style="stroke:#000000; stroke-linecap:butt; stroke-linejoin:round; stroke-width:4; stroke-opacity:1; fill:none" points="
  791.614,1967.67 1635.52,1967.67 1635.52,1882.3 791.614,1882.3 791.614,1967.67 
  "/>
<path clip-path="url(#clip182)" d="
M616.711 1437.74 L1424.9 1437.74 L1424.9 1352.36 L616.711 1352.36 L616.711 1437.74 L616.711 1437.74  Z
  " fill="#fffbd3" fill-rule="evenodd" fill-opacity="1"/>
<polyline clip-path="url(#clip182)" style="stroke:#000000; stroke-linecap:butt; stroke-linejoin:round; stroke-width:4; stroke-opacity:1; fill:none" points="
  616.711,1437.74 1424.9,1437.74 1424.9,1352.36 616.711,1352.36 616.711,1437.74 
  "/>
<path clip-path="url(#clip182)" d="
M1061.19 1073.54 L1869.37 1073.54 L1869.37 988.171 L1061.19 988.171 L1061.19 1073.54 L1061.19 1073.54  Z
  " fill="#fffbd3" fill-rule="evenodd" fill-opacity="1"/>
<polyline clip-path="url(#clip182)" style="stroke:#000000; stroke-linecap:butt; stroke-linejoin:round; stroke-width:4; stroke-opacity:1; fill:none" points="
  1061.19,1073.54 1869.37,1073.54 1869.37,988.171 1061.19,988.171 1061.19,1073.54 
  "/>
<path clip-path="url(#clip182)" d="
M1544.93 1330.61 L2388.85 1330.61 L2388.85 1245.23 L1544.93 1245.23 L1544.93 1330.61 L1544.93 1330.61  Z
  " fill="#fffbd3" fill-rule="evenodd" fill-opacity="1"/>
<polyline clip-path="url(#clip182)" style="stroke:#000000; stroke-linecap:butt; stroke-linejoin:round; stroke-width:4; stroke-opacity:1; fill:none" points="
  1544.93,1330.61 2388.85,1330.61 2388.85,1245.23 1544.93,1245.23 1544.93,1330.61 
  "/>
<path clip-path="url(#clip182)" d="
M1758.25 1855.05 L2637.51 1855.05 L2637.51 1769.68 L1758.25 1769.68 L1758.25 1855.05 L1758.25 1855.05  Z
  " fill="#fffbd3" fill-rule="evenodd" fill-opacity="1"/>
<polyline clip-path="url(#clip182)" style="stroke:#000000; stroke-linecap:butt; stroke-linejoin:round; stroke-width:4; stroke-opacity:1; fill:none" points="
  1758.25,1855.05 2637.51,1855.05 2637.51,1769.68 1758.25,1769.68 1758.25,1855.05 
  "/>
<path clip-path="url(#clip182)" d="
M2612.74 1629.49 L2805.49 1629.49 L2805.49 1544.12 L2612.74 1544.12 L2612.74 1629.49 L2612.74 1629.49  Z
  " fill="#5f5dce" fill-rule="evenodd" fill-opacity="1"/>
<polyline clip-path="url(#clip182)" style="stroke:#000000; stroke-linecap:butt; stroke-linejoin:round; stroke-width:4; stroke-opacity:1; fill:none" points="
  2612.74,1629.49 2805.49,1629.49 2805.49,1544.12 2612.74,1544.12 2612.74,1629.49 
  "/>
<path clip-path="url(#clip182)" d="
M2429.6 2231.1 L2765.2 2231.1 L2765.2 2145.73 L2429.6 2145.73 L2429.6 2231.1 L2429.6 2231.1  Z
  " fill="#ff7d8c" fill-rule="evenodd" fill-opacity="1"/>
<polyline clip-path="url(#clip182)" style="stroke:#000000; stroke-linecap:butt; stroke-linejoin:round; stroke-width:4; stroke-opacity:1; fill:none" points="
  2429.6,2231.1 2765.2,2231.1 2765.2,2145.73 2429.6,2145.73 2429.6,2231.1 
  "/>
<path clip-path="url(#clip182)" d="
M1492.56 2751.8 L1828.16 2751.8 L1828.16 2666.42 L1492.56 2666.42 L1492.56 2751.8 L1492.56 2751.8  Z
  " fill="#ff7d8c" fill-rule="evenodd" fill-opacity="1"/>
<polyline clip-path="url(#clip182)" style="stroke:#000000; stroke-linecap:butt; stroke-linejoin:round; stroke-width:4; stroke-opacity:1; fill:none" points="
  1492.56,2751.8 1828.16,2751.8 1828.16,2666.42 1492.56,2666.42 1492.56,2751.8 
  "/>
<path clip-path="url(#clip182)" d="
M323.091 1362.66 L658.686 1362.66 L658.686 1277.29 L323.091 1277.29 L323.091 1362.66 L323.091 1362.66  Z
  " fill="#ff7d8c" fill-rule="evenodd" fill-opacity="1"/>
<polyline clip-path="url(#clip182)" style="stroke:#000000; stroke-linecap:butt; stroke-linejoin:round; stroke-width:4; stroke-opacity:1; fill:none" points="
  323.091,1362.66 658.686,1362.66 658.686,1277.29 323.091,1277.29 323.091,1362.66 
  "/>
<path clip-path="url(#clip182)" d="
M1283.89 533.575 L1619.48 533.575 L1619.48 448.202 L1283.89 448.202 L1283.89 533.575 L1283.89 533.575  Z
  " fill="#ff7d8c" fill-rule="evenodd" fill-opacity="1"/>
<polyline clip-path="url(#clip182)" style="stroke:#000000; stroke-linecap:butt; stroke-linejoin:round; stroke-width:4; stroke-opacity:1; fill:none" points="
  1283.89,533.575 1619.48,533.575 1619.48,448.202 1283.89,448.202 1283.89,533.575 
  "/>
<circle clip-path="url(#clip182)" style="fill:#fffbd3; stroke:none; fill-opacity:1" cx="1727.66" cy="2164.64" r="2"/>
<circle clip-path="url(#clip182)" style="fill:#fffbd3; stroke:none; fill-opacity:1" cx="1213.57" cy="1924.98" r="2"/>
<circle clip-path="url(#clip182)" style="fill:#fffbd3; stroke:none; fill-opacity:1" cx="1020.8" cy="1395.05" r="2"/>
<circle clip-path="url(#clip182)" style="fill:#fffbd3; stroke:none; fill-opacity:1" cx="1465.28" cy="1030.86" r="2"/>
<circle clip-path="url(#clip182)" style="fill:#fffbd3; stroke:none; fill-opacity:1" cx="1966.89" cy="1287.92" r="2"/>
<circle clip-path="url(#clip182)" style="fill:#fffbd3; stroke:none; fill-opacity:1" cx="2197.88" cy="1812.36" r="2"/>
<circle clip-path="url(#clip182)" style="fill:#fffbd3; stroke:none; fill-opacity:1" cx="2709.11" cy="1586.81" r="2"/>
<circle clip-path="url(#clip182)" style="fill:#fffbd3; stroke:none; fill-opacity:1" cx="2597.4" cy="2188.41" r="2"/>
<circle clip-path="url(#clip182)" style="fill:#fffbd3; stroke:none; fill-opacity:1" cx="1660.36" cy="2709.11" r="2"/>
<circle clip-path="url(#clip182)" style="fill:#fffbd3; stroke:none; fill-opacity:1" cx="490.889" cy="1319.98" r="2"/>
<circle clip-path="url(#clip182)" style="fill:#fffbd3; stroke:none; fill-opacity:1" cx="1451.69" cy="490.889" r="2"/>
<path clip-path="url(#clip180)" d="M1552.1 2164 L1556.23 2164 L1556.23 2151.63 L1551.72 2152.46 L1551.72 2150.11 L1556.37 2149.32 L1559.15 2149.32 L1559.15 2164 L1563.3 2164 L1563.3 2166.23 L1552.1 2166.23 L1552.1 2164 Z" fill="#000000" fill-rule="evenodd" fill-opacity="1" /><path clip-path="url(#clip180)" d="M1571 2163.92 L1579.59 2163.92 L1579.59 2166.23 L1567.47 2166.23 L1567.47 2164 Q1568.16 2163.38 1569.44 2162.24 Q1576.41 2156.06 1576.41 2154.16 Q1576.41 2152.82 1575.35 2152.01 Q1574.3 2151.18 1572.58 2151.18 Q1571.53 2151.18 1570.29 2151.55 Q1569.05 2151.89 1567.6 2152.6 L1567.6 2150.11 Q1569.16 2149.54 1570.49 2149.26 Q1571.85 2148.98 1573 2148.98 Q1575.94 2148.98 1577.7 2150.31 Q1579.47 2151.65 1579.47 2153.84 Q1579.47 2156.65 1572.76 2162.4 Q1571.63 2163.38 1571 2163.92 Z" fill="#000000" fill-rule="evenodd" fill-opacity="1" /><path clip-path="url(#clip180)" d="M1608.92 2151.85 L1608.92 2156.17 Q1606.85 2154.24 1604.5 2153.29 Q1602.17 2152.34 1599.54 2152.34 Q1594.35 2152.34 1591.6 2155.52 Q1588.84 2158.68 1588.84 2164.67 Q1588.84 2170.65 1591.6 2173.83 Q1594.35 2176.99 1599.54 2176.99 Q1602.17 2176.99 1604.5 2176.04 Q1606.85 2175.08 1608.92 2173.16 L1608.92 2177.43 Q1606.77 2178.89 1604.36 2179.62 Q1601.97 2180.35 1599.29 2180.35 Q1592.43 2180.35 1588.48 2176.16 Q1584.53 2171.94 1584.53 2164.67 Q1584.53 2157.38 1588.48 2153.19 Q1592.43 2148.98 1599.29 2148.98 Q1602.01 2148.98 1604.4 2149.7 Q1606.81 2150.41 1608.92 2151.85 Z" fill="#000000" fill-rule="evenodd" fill-opacity="1" /><path clip-path="url(#clip180)" d="M1630.24 2153.76 L1630.24 2165.04 L1641.52 2165.04 L1641.52 2168.48 L1630.24 2168.48 L1630.24 2179.76 L1626.84 2179.76 L1626.84 2168.48 L1615.56 2168.48 L1615.56 2165.04 L1626.84 2165.04 L1626.84 2153.76 L1630.24 2153.76 Z" fill="#000000" fill-rule="evenodd" fill-opacity="1" /><path clip-path="url(#clip180)" d="M1649.08 2164 L1653.21 2164 L1653.21 2151.63 L1648.7 2152.46 L1648.7 2150.11 L1653.35 2149.32 L1656.13 2149.32 L1656.13 2164 L1660.28 2164 L1660.28 2166.23 L1649.08 2166.23 L1649.08 2164 Z" fill="#000000" fill-rule="evenodd" fill-opacity="1" /><path clip-path="url(#clip180)" d="M1666.62 2149.52 L1670.71 2149.52 L1670.71 2161.92 L1685.58 2161.92 L1685.58 2149.52 L1689.67 2149.52 L1689.67 2179.76 L1685.58 2179.76 L1685.58 2165.36 L1670.71 2165.36 L1670.71 2179.76 L1666.62 2179.76 L1666.62 2149.52 Z" fill="#000000" fill-rule="evenodd" fill-opacity="1" /><path clip-path="url(#clip180)" d="M1739.66 2165.85 L1739.66 2167.67 L1731.7 2175.63 L1729.27 2173.2 L1733.99 2168.48 L1709.3 2168.48 L1709.3 2165.04 L1733.99 2165.04 L1729.27 2160.32 L1731.7 2157.89 L1739.66 2165.85 Z" fill="#000000" fill-rule="evenodd" fill-opacity="1" /><path clip-path="url(#clip180)" d="M1758.03 2164 L1762.16 2164 L1762.16 2151.63 L1757.64 2152.46 L1757.64 2150.11 L1762.3 2149.32 L1765.08 2149.32 L1765.08 2164 L1769.23 2164 L1769.23 2166.23 L1758.03 2166.23 L1758.03 2164 Z" fill="#000000" fill-rule="evenodd" fill-opacity="1" /><path clip-path="url(#clip180)" d="M1782.11 2157.08 Q1783.98 2157.44 1784.99 2158.56 Q1786.02 2159.65 1786.02 2161.31 Q1786.02 2163.82 1784.1 2165.18 Q1782.17 2166.54 1778.59 2166.54 Q1777.43 2166.54 1776.16 2166.33 Q1774.9 2166.11 1773.48 2165.71 L1773.48 2163.25 Q1774.54 2163.8 1775.73 2164.06 Q1776.95 2164.33 1778.3 2164.33 Q1780.51 2164.33 1781.73 2163.54 Q1782.94 2162.73 1782.94 2161.31 Q1782.94 2159.81 1781.81 2159.04 Q1780.69 2158.27 1778.51 2158.27 L1776.76 2158.27 L1776.76 2156.08 L1778.67 2156.08 Q1780.57 2156.08 1781.54 2155.46 Q1782.54 2154.81 1782.54 2153.59 Q1782.54 2152.42 1781.52 2151.81 Q1780.51 2151.18 1778.59 2151.18 Q1777.78 2151.18 1776.74 2151.37 Q1775.71 2151.55 1774.07 2152.01 L1774.07 2149.68 Q1775.55 2149.34 1776.85 2149.16 Q1778.14 2148.98 1779.26 2148.98 Q1782.17 2148.98 1783.87 2150.17 Q1785.6 2151.37 1785.6 2153.37 Q1785.6 2154.77 1784.68 2155.74 Q1783.77 2156.71 1782.11 2157.08 Z" fill="#000000" fill-rule="evenodd" fill-opacity="1" /><path clip-path="url(#clip180)" d="M1792.2 2149.52 L1797.71 2149.52 L1811.12 2174.82 L1811.12 2149.52 L1815.09 2149.52 L1815.09 2179.76 L1809.58 2179.76 L1796.17 2154.46 L1796.17 2179.76 L1792.2 2179.76 L1792.2 2149.52 Z" fill="#000000" fill-rule="evenodd" fill-opacity="1" /><path clip-path="url(#clip180)" d="M1851.42 2153.76 L1851.42 2165.04 L1862.7 2165.04 L1862.7 2168.48 L1851.42 2168.48 L1851.42 2179.76 L1848.02 2179.76 L1848.02 2168.48 L1836.74 2168.48 L1836.74 2165.04 L1848.02 2165.04 L1848.02 2153.76 L1851.42 2153.76 Z" fill="#000000" fill-rule="evenodd" fill-opacity="1" /><path clip-path="url(#clip180)" d="M1887.6 2160.64 L1892.56 2174.66 L1899.65 2157.08 L1903.6 2157.08 L1894.42 2179.76 L1894.42 2188.39 L1890.7 2188.39 L1890.7 2179.76 L1884.74 2162.83 Q1883.85 2160.28 1881.93 2160.28 L1880.93 2160.28 L1880.93 2157.08 L1882.35 2157.08 Q1886.34 2157.08 1887.6 2160.64 Z" fill="#000000" fill-rule="evenodd" fill-opacity="1" /><path clip-path="url(#clip180)" d="M1017.76 1924.35 L1021.89 1924.35 L1021.89 1911.97 L1017.37 1912.8 L1017.37 1910.45 L1022.03 1909.66 L1024.81 1909.66 L1024.81 1924.35 L1028.96 1924.35 L1028.96 1926.57 L1017.76 1926.57 L1017.76 1924.35 Z" fill="#000000" fill-rule="evenodd" fill-opacity="1" /><path clip-path="url(#clip180)" d="M1041.84 1917.42 Q1043.7 1917.78 1044.72 1918.9 Q1045.75 1919.99 1045.75 1921.65 Q1045.75 1924.16 1043.83 1925.52 Q1041.9 1926.88 1038.32 1926.88 Q1037.16 1926.88 1035.89 1926.68 Q1034.63 1926.45 1033.21 1926.05 L1033.21 1923.6 Q1034.27 1924.14 1035.46 1924.41 Q1036.68 1924.67 1038.03 1924.67 Q1040.24 1924.67 1041.46 1923.88 Q1042.67 1923.07 1042.67 1921.65 Q1042.67 1920.15 1041.54 1919.38 Q1040.42 1918.61 1038.24 1918.61 L1036.49 1918.61 L1036.49 1916.43 L1038.4 1916.43 Q1040.3 1916.43 1041.27 1915.8 Q1042.27 1915.15 1042.27 1913.94 Q1042.27 1912.76 1041.25 1912.15 Q1040.24 1911.52 1038.32 1911.52 Q1037.51 1911.52 1036.47 1911.71 Q1035.44 1911.89 1033.8 1912.36 L1033.8 1910.03 Q1035.28 1909.68 1036.57 1909.5 Q1037.87 1909.32 1038.99 1909.32 Q1041.9 1909.32 1043.6 1910.51 Q1045.32 1911.71 1045.32 1913.71 Q1045.32 1915.11 1044.41 1916.08 Q1043.5 1917.05 1041.84 1917.42 Z" fill="#000000" fill-rule="evenodd" fill-opacity="1" /><path clip-path="url(#clip180)" d="M1051.93 1909.86 L1057.44 1909.86 L1070.85 1935.16 L1070.85 1909.86 L1074.82 1909.86 L1074.82 1940.1 L1069.31 1940.1 L1055.9 1914.81 L1055.9 1940.1 L1051.93 1940.1 L1051.93 1909.86 Z" fill="#000000" fill-rule="evenodd" fill-opacity="1" /><path clip-path="url(#clip180)" d="M1124.8 1926.19 L1124.8 1928.01 L1116.84 1935.97 L1114.41 1933.54 L1119.13 1928.82 L1094.44 1928.82 L1094.44 1925.38 L1119.13 1925.38 L1114.41 1920.66 L1116.84 1918.23 L1124.8 1926.19 Z" fill="#000000" fill-rule="evenodd" fill-opacity="1" /><path clip-path="url(#clip180)" d="M1143.17 1924.35 L1147.31 1924.35 L1147.31 1911.97 L1142.79 1912.8 L1142.79 1910.45 L1147.45 1909.66 L1150.22 1909.66 L1150.22 1924.35 L1154.38 1924.35 L1154.38 1926.57 L1143.17 1926.57 L1143.17 1924.35 Z" fill="#000000" fill-rule="evenodd" fill-opacity="1" /><path clip-path="url(#clip180)" d="M1167.26 1917.42 Q1169.12 1917.78 1170.13 1918.9 Q1171.17 1919.99 1171.17 1921.65 Q1171.17 1924.16 1169.24 1925.52 Q1167.32 1926.88 1163.73 1926.88 Q1162.58 1926.88 1161.3 1926.68 Q1160.05 1926.45 1158.63 1926.05 L1158.63 1923.6 Q1159.68 1924.14 1160.88 1924.41 Q1162.09 1924.67 1163.45 1924.67 Q1165.66 1924.67 1166.87 1923.88 Q1168.09 1923.07 1168.09 1921.65 Q1168.09 1920.15 1166.95 1919.38 Q1165.84 1918.61 1163.65 1918.61 L1161.91 1918.61 L1161.91 1916.43 L1163.81 1916.43 Q1165.72 1916.43 1166.69 1915.8 Q1167.68 1915.15 1167.68 1913.94 Q1167.68 1912.76 1166.67 1912.15 Q1165.66 1911.52 1163.73 1911.52 Q1162.92 1911.52 1161.89 1911.71 Q1160.86 1911.89 1159.22 1912.36 L1159.22 1910.03 Q1160.69 1909.68 1161.99 1909.5 Q1163.29 1909.32 1164.4 1909.32 Q1167.32 1909.32 1169.02 1910.51 Q1170.74 1911.71 1170.74 1913.71 Q1170.74 1915.11 1169.83 1916.08 Q1168.92 1917.05 1167.26 1917.42 Z" fill="#000000" fill-rule="evenodd" fill-opacity="1" /><path clip-path="url(#clip180)" d="M1199.99 1912.19 L1199.99 1916.51 Q1197.92 1914.58 1195.57 1913.63 Q1193.24 1912.68 1190.61 1912.68 Q1185.43 1912.68 1182.67 1915.86 Q1179.92 1919.02 1179.92 1925.01 Q1179.92 1930.99 1182.67 1934.17 Q1185.43 1937.33 1190.61 1937.33 Q1193.24 1937.33 1195.57 1936.38 Q1197.92 1935.43 1199.99 1933.5 L1199.99 1937.77 Q1197.84 1939.23 1195.43 1939.96 Q1193.04 1940.69 1190.37 1940.69 Q1183.5 1940.69 1179.55 1936.5 Q1175.6 1932.29 1175.6 1925.01 Q1175.6 1917.72 1179.55 1913.53 Q1183.5 1909.32 1190.37 1909.32 Q1193.08 1909.32 1195.47 1910.05 Q1197.88 1910.76 1199.99 1912.19 Z" fill="#000000" fill-rule="evenodd" fill-opacity="1" /><path clip-path="url(#clip180)" d="M1234.5 1914.1 L1234.5 1925.38 L1245.78 1925.38 L1245.78 1928.82 L1234.5 1928.82 L1234.5 1940.1 L1231.1 1940.1 L1231.1 1928.82 L1219.82 1928.82 L1219.82 1925.38 L1231.1 1925.38 L1231.1 1914.1 L1234.5 1914.1 Z" fill="#000000" fill-rule="evenodd" fill-opacity="1" /><path clip-path="url(#clip180)" d="M1286.68 1927.83 L1286.68 1929.65 L1269.54 1929.65 Q1269.79 1933.5 1271.85 1935.53 Q1273.94 1937.53 1277.64 1937.53 Q1279.79 1937.53 1281.8 1937 Q1283.82 1936.48 1285.81 1935.43 L1285.81 1938.95 Q1283.8 1939.8 1281.7 1940.25 Q1279.59 1940.69 1277.42 1940.69 Q1271.99 1940.69 1268.81 1937.53 Q1265.65 1934.37 1265.65 1928.98 Q1265.65 1923.41 1268.65 1920.15 Q1271.67 1916.87 1276.77 1916.87 Q1281.35 1916.87 1284 1919.83 Q1286.68 1922.77 1286.68 1927.83 M1282.95 1926.74 Q1282.91 1923.68 1281.23 1921.85 Q1279.57 1920.03 1276.81 1920.03 Q1273.69 1920.03 1271.81 1921.79 Q1269.95 1923.56 1269.66 1926.76 L1282.95 1926.74 Z" fill="#000000" fill-rule="evenodd" fill-opacity="1" /><path clip-path="url(#clip180)" d="M1300.9 1912.01 L1300.9 1918.33 L1308.01 1918.33 L1308.01 1920.25 L1300.9 1920.25 L1300.9 1926.57 L1298.77 1926.57 L1298.77 1920.25 L1291.66 1920.25 L1291.66 1918.33 L1298.77 1918.33 L1298.77 1912.01 L1300.9 1912.01 Z" fill="#000000" fill-rule="evenodd" fill-opacity="1" /><path clip-path="url(#clip180)" d="M1343.05 1914.1 L1343.05 1925.38 L1354.33 1925.38 L1354.33 1928.82 L1343.05 1928.82 L1343.05 1940.1 L1339.64 1940.1 L1339.64 1928.82 L1328.36 1928.82 L1328.36 1925.38 L1339.64 1925.38 L1339.64 1914.1 L1343.05 1914.1 Z" fill="#000000" fill-rule="evenodd" fill-opacity="1" /><path clip-path="url(#clip180)" d="M1380.33 1940.1 L1373.41 1917.42 L1377.42 1917.42 L1383.27 1936.46 Q1385.7 1933.95 1387.73 1930.46 Q1389.27 1927.85 1389.35 1925.58 Q1389.39 1924.51 1388.9 1922.48 Q1388.34 1920.07 1386.19 1917.42 L1389.96 1917.42 L1389.96 1917.42 Q1391.35 1919.22 1392.28 1921.73 Q1393.14 1924.04 1393.14 1925.62 Q1393.14 1929.59 1390.38 1933.14 Q1386.8 1937.75 1384.3 1940.1 L1380.33 1940.1 Z" fill="#000000" fill-rule="evenodd" fill-opacity="1" /><path clip-path="url(#clip180)" d="M1409.76 1933.24 L1409.76 1934.25 L1398.97 1934.25 Q1399.13 1936.4 1400.43 1937.53 Q1401.74 1938.67 1404.07 1938.67 Q1405.43 1938.67 1406.71 1938.36 Q1407.96 1938.08 1409.22 1937.49 L1409.22 1939.46 Q1407.96 1939.94 1406.62 1940.18 Q1405.31 1940.43 1403.93 1940.43 Q1400.51 1940.43 1398.52 1938.67 Q1396.52 1936.9 1396.52 1933.89 Q1396.52 1930.77 1398.42 1928.92 Q1400.31 1927.1 1403.53 1927.1 Q1406.4 1927.1 1408.08 1928.74 Q1409.76 1930.4 1409.76 1933.24 M1407.41 1932.61 Q1407.39 1930.91 1406.34 1929.88 Q1405.29 1928.86 1403.55 1928.86 Q1401.58 1928.86 1400.41 1929.86 Q1399.23 1930.83 1399.05 1932.61 L1407.41 1932.61 Z" fill="#000000" fill-rule="evenodd" fill-opacity="1" /><path clip-path="url(#clip180)" d="M832.063 1394.41 L836.195 1394.41 L836.195 1382.04 L831.678 1382.87 L831.678 1380.52 L836.336 1379.73 L839.111 1379.73 L839.111 1394.41 L843.263 1394.41 L843.263 1396.64 L832.063 1396.64 L832.063 1394.41 Z" fill="#000000" fill-rule="evenodd" fill-opacity="1" /><path clip-path="url(#clip180)" d="M856.145 1387.48 Q858.009 1387.85 859.021 1388.96 Q860.054 1390.06 860.054 1391.72 Q860.054 1394.23 858.13 1395.59 Q856.206 1396.94 852.621 1396.94 Q851.467 1396.94 850.19 1396.74 Q848.935 1396.52 847.517 1396.11 L847.517 1393.66 Q848.57 1394.21 849.765 1394.47 Q850.98 1394.74 852.337 1394.74 Q854.545 1394.74 855.76 1393.95 Q856.976 1393.14 856.976 1391.72 Q856.976 1390.22 855.841 1389.45 Q854.727 1388.68 852.54 1388.68 L850.798 1388.68 L850.798 1386.49 L852.702 1386.49 Q854.606 1386.49 855.578 1385.86 Q856.571 1385.22 856.571 1384 Q856.571 1382.83 855.558 1382.22 Q854.545 1381.59 852.621 1381.59 Q851.811 1381.59 850.778 1381.77 Q849.745 1381.96 848.104 1382.42 L848.104 1380.09 Q849.583 1379.75 850.879 1379.57 Q852.175 1379.38 853.289 1379.38 Q856.206 1379.38 857.907 1380.58 Q859.629 1381.77 859.629 1383.78 Q859.629 1385.18 858.718 1386.15 Q857.806 1387.12 856.145 1387.48 Z" fill="#000000" fill-rule="evenodd" fill-opacity="1" /><path clip-path="url(#clip180)" d="M888.877 1382.26 L888.877 1386.57 Q886.811 1384.65 884.461 1383.7 Q882.132 1382.75 879.499 1382.75 Q874.314 1382.75 871.559 1385.93 Q868.804 1389.08 868.804 1395.08 Q868.804 1401.06 871.559 1404.24 Q874.314 1407.39 879.499 1407.39 Q882.132 1407.39 884.461 1406.44 Q886.811 1405.49 888.877 1403.57 L888.877 1407.84 Q886.73 1409.3 884.319 1410.03 Q881.929 1410.76 879.256 1410.76 Q872.389 1410.76 868.44 1406.56 Q864.49 1402.35 864.49 1395.08 Q864.49 1387.79 868.44 1383.6 Q872.389 1379.38 879.256 1379.38 Q881.97 1379.38 884.36 1380.11 Q886.77 1380.82 888.877 1382.26 Z" fill="#000000" fill-rule="evenodd" fill-opacity="1" /><path clip-path="url(#clip180)" d="M923.39 1384.16 L923.39 1395.44 L934.672 1395.44 L934.672 1398.89 L923.39 1398.89 L923.39 1410.17 L919.988 1410.17 L919.988 1398.89 L908.706 1398.89 L908.706 1395.44 L919.988 1395.44 L919.988 1384.16 L923.39 1384.16 Z" fill="#000000" fill-rule="evenodd" fill-opacity="1" /><path clip-path="url(#clip180)" d="M955.413 1394.41 L959.545 1394.41 L959.545 1382.04 L955.028 1382.87 L955.028 1380.52 L959.686 1379.73 L962.461 1379.73 L962.461 1394.41 L966.613 1394.41 L966.613 1396.64 L955.413 1396.64 L955.413 1394.41 Z" fill="#000000" fill-rule="evenodd" fill-opacity="1" /><path clip-path="url(#clip180)" d="M972.953 1379.93 L977.045 1379.93 L977.045 1392.33 L991.911 1392.33 L991.911 1379.93 L996.003 1379.93 L996.003 1410.17 L991.911 1410.17 L991.911 1395.77 L977.045 1395.77 L977.045 1410.17 L972.953 1410.17 L972.953 1379.93 Z" fill="#000000" fill-rule="evenodd" fill-opacity="1" /><path clip-path="url(#clip180)" d="M1045.99 1396.26 L1045.99 1398.08 L1038.03 1406.04 L1035.6 1403.61 L1040.32 1398.89 L1015.63 1398.89 L1015.63 1395.44 L1040.32 1395.44 L1035.6 1390.73 L1038.03 1388.29 L1045.99 1396.26 Z" fill="#000000" fill-rule="evenodd" fill-opacity="1" /><path clip-path="url(#clip180)" d="M1064.36 1394.41 L1068.49 1394.41 L1068.49 1382.04 L1063.98 1382.87 L1063.98 1380.52 L1068.64 1379.73 L1071.41 1379.73 L1071.41 1394.41 L1075.56 1394.41 L1075.56 1396.64 L1064.36 1396.64 L1064.36 1394.41 Z" fill="#000000" fill-rule="evenodd" fill-opacity="1" /><path clip-path="url(#clip180)" d="M1087.49 1382.18 L1081.23 1390.66 L1087.49 1390.66 L1087.49 1382.18 M1087.05 1379.73 L1090.41 1379.73 L1090.41 1390.66 L1093.14 1390.66 L1093.14 1392.87 L1090.41 1392.87 L1090.41 1396.64 L1087.49 1396.64 L1087.49 1392.87 L1079.11 1392.87 L1079.11 1390.42 L1087.05 1379.73 Z" fill="#000000" fill-rule="evenodd" fill-opacity="1" /><path clip-path="url(#clip180)" d="M1098.53 1379.93 L1104.04 1379.93 L1117.45 1405.23 L1117.45 1379.93 L1121.42 1379.93 L1121.42 1410.17 L1115.91 1410.17 L1102.5 1384.87 L1102.5 1410.17 L1098.53 1410.17 L1098.53 1379.93 Z" fill="#000000" fill-rule="evenodd" fill-opacity="1" /><path clip-path="url(#clip180)" d="M1157.76 1384.16 L1157.76 1395.44 L1169.04 1395.44 L1169.04 1398.89 L1157.76 1398.89 L1157.76 1410.17 L1154.35 1410.17 L1154.35 1398.89 L1143.07 1398.89 L1143.07 1395.44 L1154.35 1395.44 L1154.35 1384.16 L1157.76 1384.16 Z" fill="#000000" fill-rule="evenodd" fill-opacity="1" /><path clip-path="url(#clip180)" d="M1193.93 1391.05 L1198.89 1405.07 L1205.98 1387.48 L1209.93 1387.48 L1200.76 1410.17 L1200.76 1418.8 L1197.03 1418.8 L1197.03 1410.17 L1191.07 1393.24 Q1190.18 1390.69 1188.26 1390.69 L1187.27 1390.69 L1187.27 1387.48 L1188.68 1387.48 Q1192.67 1387.48 1193.93 1391.05 Z" fill="#000000" fill-rule="evenodd" fill-opacity="1" /><path clip-path="url(#clip180)" d="M1274.69 1030.22 L1278.83 1030.22 L1278.83 1017.84 L1274.31 1018.67 L1274.31 1016.32 L1278.97 1015.54 L1281.74 1015.54 L1281.74 1030.22 L1285.9 1030.22 L1285.9 1032.45 L1274.69 1032.45 L1274.69 1030.22 Z" fill="#000000" fill-rule="evenodd" fill-opacity="1" /><path clip-path="url(#clip180)" d="M1297.83 1017.99 L1291.57 1026.47 L1297.83 1026.47 L1297.83 1017.99 M1297.38 1015.54 L1300.74 1015.54 L1300.74 1026.47 L1303.48 1026.47 L1303.48 1028.68 L1300.74 1028.68 L1300.74 1032.45 L1297.83 1032.45 L1297.83 1028.68 L1289.44 1028.68 L1289.44 1026.23 L1297.38 1015.54 Z" fill="#000000" fill-rule="evenodd" fill-opacity="1" /><path clip-path="url(#clip180)" d="M1308.86 1015.74 L1314.37 1015.74 L1327.78 1041.04 L1327.78 1015.74 L1331.75 1015.74 L1331.75 1045.98 L1326.24 1045.98 L1312.83 1020.68 L1312.83 1045.98 L1308.86 1045.98 L1308.86 1015.74 Z" fill="#000000" fill-rule="evenodd" fill-opacity="1" /><path clip-path="url(#clip180)" d="M1368.09 1019.97 L1368.09 1031.25 L1379.37 1031.25 L1379.37 1034.7 L1368.09 1034.7 L1368.09 1045.98 L1364.69 1045.98 L1364.69 1034.7 L1353.4 1034.7 L1353.4 1031.25 L1364.69 1031.25 L1364.69 1019.97 L1368.09 1019.97 Z" fill="#000000" fill-rule="evenodd" fill-opacity="1" /><path clip-path="url(#clip180)" d="M1400.11 1030.22 L1404.24 1030.22 L1404.24 1017.84 L1399.73 1018.67 L1399.73 1016.32 L1404.38 1015.54 L1407.16 1015.54 L1407.16 1030.22 L1411.31 1030.22 L1411.31 1032.45 L1400.11 1032.45 L1400.11 1030.22 Z" fill="#000000" fill-rule="evenodd" fill-opacity="1" /><path clip-path="url(#clip180)" d="M1417.65 1015.74 L1421.74 1015.74 L1421.74 1028.13 L1436.61 1028.13 L1436.61 1015.74 L1440.7 1015.74 L1440.7 1045.98 L1436.61 1045.98 L1436.61 1031.58 L1421.74 1031.58 L1421.74 1045.98 L1417.65 1045.98 L1417.65 1015.74 Z" fill="#000000" fill-rule="evenodd" fill-opacity="1" /><path clip-path="url(#clip180)" d="M1490.69 1032.06 L1490.69 1033.89 L1482.73 1041.85 L1480.3 1039.42 L1485.02 1034.7 L1460.33 1034.7 L1460.33 1031.25 L1485.02 1031.25 L1480.3 1026.53 L1482.73 1024.1 L1490.69 1032.06 Z" fill="#000000" fill-rule="evenodd" fill-opacity="1" /><path clip-path="url(#clip180)" d="M1509.06 1030.22 L1513.19 1030.22 L1513.19 1017.84 L1508.67 1018.67 L1508.67 1016.32 L1513.33 1015.54 L1516.11 1015.54 L1516.11 1030.22 L1520.26 1030.22 L1520.26 1032.45 L1509.06 1032.45 L1509.06 1030.22 Z" fill="#000000" fill-rule="evenodd" fill-opacity="1" /><path clip-path="url(#clip180)" d="M1525.41 1015.54 L1535.73 1015.54 L1535.73 1017.46 L1527.82 1017.46 L1527.82 1021.59 Q1528.38 1021.41 1528.97 1021.33 Q1529.54 1021.25 1530.1 1021.25 Q1533.37 1021.25 1535.27 1022.81 Q1537.17 1024.35 1537.17 1027 Q1537.17 1029.73 1535.21 1031.25 Q1533.26 1032.75 1529.7 1032.75 Q1528.48 1032.75 1527.21 1032.57 Q1525.93 1032.39 1524.59 1032.02 L1524.59 1029.73 Q1525.75 1030.28 1527.01 1030.56 Q1528.26 1030.83 1529.66 1030.83 Q1531.91 1030.83 1533.22 1029.79 Q1534.54 1028.76 1534.54 1027 Q1534.54 1025.24 1533.22 1024.2 Q1531.91 1023.17 1529.66 1023.17 Q1528.61 1023.17 1527.55 1023.37 Q1526.5 1023.58 1525.41 1024 L1525.41 1015.54 Z" fill="#000000" fill-rule="evenodd" fill-opacity="1" /><path clip-path="url(#clip180)" d="M1555.5 1018.51 Q1551.05 1018.51 1548.41 1021.83 Q1545.8 1025.16 1545.8 1030.89 Q1545.8 1036.6 1548.41 1039.92 Q1551.05 1043.24 1555.5 1043.24 Q1559.96 1043.24 1562.55 1039.92 Q1565.16 1036.6 1565.16 1030.89 Q1565.16 1025.16 1562.55 1021.83 Q1559.96 1018.51 1555.5 1018.51 M1555.5 1015.19 Q1561.86 1015.19 1565.67 1019.46 Q1569.48 1023.72 1569.48 1030.89 Q1569.48 1038.04 1565.67 1042.31 Q1561.86 1046.56 1555.5 1046.56 Q1549.12 1046.56 1545.3 1042.31 Q1541.49 1038.06 1541.49 1030.89 Q1541.49 1023.72 1545.3 1019.46 Q1549.12 1015.19 1555.5 1015.19 Z" fill="#000000" fill-rule="evenodd" fill-opacity="1" /><path clip-path="url(#clip180)" d="M1604.07 1019.97 L1604.07 1031.25 L1615.36 1031.25 L1615.36 1034.7 L1604.07 1034.7 L1604.07 1045.98 L1600.67 1045.98 L1600.67 1034.7 L1589.39 1034.7 L1589.39 1031.25 L1600.67 1031.25 L1600.67 1019.97 L1604.07 1019.97 Z" fill="#000000" fill-rule="evenodd" fill-opacity="1" /><path clip-path="url(#clip180)" d="M1640.25 1026.86 L1645.21 1040.87 L1652.3 1023.29 L1656.25 1023.29 L1647.07 1045.98 L1647.07 1054.61 L1643.35 1054.61 L1643.35 1045.98 L1637.39 1029.04 Q1636.5 1026.49 1634.58 1026.49 L1633.58 1026.49 L1633.58 1023.29 L1635 1023.29 Q1638.99 1023.29 1640.25 1026.86 Z" fill="#000000" fill-rule="evenodd" fill-opacity="1" /><path clip-path="url(#clip180)" d="M1769.24 1287.28 L1773.37 1287.28 L1773.37 1274.91 L1768.85 1275.74 L1768.85 1273.39 L1773.51 1272.6 L1776.29 1272.6 L1776.29 1287.28 L1780.44 1287.28 L1780.44 1289.51 L1769.24 1289.51 L1769.24 1287.28 Z" fill="#000000" fill-rule="evenodd" fill-opacity="1" /><path clip-path="url(#clip180)" d="M1785.58 1272.6 L1795.91 1272.6 L1795.91 1274.52 L1787.99 1274.52 L1787.99 1278.65 Q1788.56 1278.47 1789.15 1278.39 Q1789.71 1278.31 1790.28 1278.31 Q1793.54 1278.31 1795.45 1279.87 Q1797.35 1281.41 1797.35 1284.06 Q1797.35 1286.8 1795.39 1288.32 Q1793.44 1289.81 1789.88 1289.81 Q1788.66 1289.81 1787.38 1289.63 Q1786.11 1289.45 1784.77 1289.09 L1784.77 1286.8 Q1785.93 1287.34 1787.18 1287.63 Q1788.44 1287.89 1789.84 1287.89 Q1792.08 1287.89 1793.4 1286.86 Q1794.72 1285.82 1794.72 1284.06 Q1794.72 1282.3 1793.4 1281.27 Q1792.08 1280.23 1789.84 1280.23 Q1788.78 1280.23 1787.73 1280.44 Q1786.68 1280.64 1785.58 1281.06 L1785.58 1272.6 Z" fill="#000000" fill-rule="evenodd" fill-opacity="1" /><path clip-path="url(#clip180)" d="M1815.68 1275.58 Q1811.22 1275.58 1808.59 1278.9 Q1805.98 1282.22 1805.98 1287.95 Q1805.98 1293.66 1808.59 1296.98 Q1811.22 1300.31 1815.68 1300.31 Q1820.14 1300.31 1822.73 1296.98 Q1825.34 1293.66 1825.34 1287.95 Q1825.34 1282.22 1822.73 1278.9 Q1820.14 1275.58 1815.68 1275.58 M1815.68 1272.25 Q1822.04 1272.25 1825.85 1276.53 Q1829.66 1280.78 1829.66 1287.95 Q1829.66 1295.1 1825.85 1299.37 Q1822.04 1303.63 1815.68 1303.63 Q1809.3 1303.63 1805.47 1299.37 Q1801.66 1295.12 1801.66 1287.95 Q1801.66 1280.78 1805.47 1276.53 Q1809.3 1272.25 1815.68 1272.25 Z" fill="#000000" fill-rule="evenodd" fill-opacity="1" /><path clip-path="url(#clip180)" d="M1877.9 1289.13 L1877.9 1290.95 L1869.94 1298.91 L1867.51 1296.48 L1872.23 1291.76 L1847.54 1291.76 L1847.54 1288.32 L1872.23 1288.32 L1867.51 1283.6 L1869.94 1281.17 L1877.9 1289.13 Z" fill="#000000" fill-rule="evenodd" fill-opacity="1" /><path clip-path="url(#clip180)" d="M1896.27 1287.28 L1900.4 1287.28 L1900.4 1274.91 L1895.89 1275.74 L1895.89 1273.39 L1900.55 1272.6 L1903.32 1272.6 L1903.32 1287.28 L1907.47 1287.28 L1907.47 1289.51 L1896.27 1289.51 L1896.27 1287.28 Z" fill="#000000" fill-rule="evenodd" fill-opacity="1" /><path clip-path="url(#clip180)" d="M1912.62 1272.6 L1922.95 1272.6 L1922.95 1274.52 L1915.03 1274.52 L1915.03 1278.65 Q1915.6 1278.47 1916.18 1278.39 Q1916.75 1278.31 1917.32 1278.31 Q1920.58 1278.31 1922.48 1279.87 Q1924.39 1281.41 1924.39 1284.06 Q1924.39 1286.8 1922.42 1288.32 Q1920.48 1289.81 1916.91 1289.81 Q1915.7 1289.81 1914.42 1289.63 Q1913.14 1289.45 1911.81 1289.09 L1911.81 1286.8 Q1912.96 1287.34 1914.22 1287.63 Q1915.47 1287.89 1916.87 1287.89 Q1919.12 1287.89 1920.44 1286.86 Q1921.75 1285.82 1921.75 1284.06 Q1921.75 1282.3 1920.44 1281.27 Q1919.12 1280.23 1916.87 1280.23 Q1915.82 1280.23 1914.77 1280.44 Q1913.71 1280.64 1912.62 1281.06 L1912.62 1272.6 Z" fill="#000000" fill-rule="evenodd" fill-opacity="1" /><path clip-path="url(#clip180)" d="M1930.44 1272.8 L1935.95 1272.8 L1949.36 1298.1 L1949.36 1272.8 L1953.33 1272.8 L1953.33 1303.04 L1947.82 1303.04 L1934.41 1277.74 L1934.41 1303.04 L1930.44 1303.04 L1930.44 1272.8 Z" fill="#000000" fill-rule="evenodd" fill-opacity="1" /><path clip-path="url(#clip180)" d="M1989.67 1277.03 L1989.67 1288.32 L2000.95 1288.32 L2000.95 1291.76 L1989.67 1291.76 L1989.67 1303.04 L1986.26 1303.04 L1986.26 1291.76 L1974.98 1291.76 L1974.98 1288.32 L1986.26 1288.32 L1986.26 1277.03 L1989.67 1277.03 Z" fill="#000000" fill-rule="evenodd" fill-opacity="1" /><path clip-path="url(#clip180)" d="M2041.84 1290.77 L2041.84 1292.59 L2024.71 1292.59 Q2024.95 1296.44 2027.02 1298.46 Q2029.1 1300.47 2032.81 1300.47 Q2034.96 1300.47 2036.96 1299.94 Q2038.99 1299.42 2040.97 1298.36 L2040.97 1301.89 Q2038.97 1302.74 2036.86 1303.18 Q2034.75 1303.63 2032.59 1303.63 Q2027.16 1303.63 2023.98 1300.47 Q2020.82 1297.31 2020.82 1291.92 Q2020.82 1286.35 2023.82 1283.09 Q2026.83 1279.81 2031.94 1279.81 Q2036.52 1279.81 2039.17 1282.77 Q2041.84 1285.7 2041.84 1290.77 M2038.12 1289.67 Q2038.07 1286.61 2036.39 1284.79 Q2034.73 1282.97 2031.98 1282.97 Q2028.86 1282.97 2026.98 1284.73 Q2025.11 1286.49 2024.83 1289.69 L2038.12 1289.67 Z" fill="#000000" fill-rule="evenodd" fill-opacity="1" /><path clip-path="url(#clip180)" d="M2056.06 1274.95 L2056.06 1281.27 L2063.17 1281.27 L2063.17 1283.19 L2056.06 1283.19 L2056.06 1289.51 L2053.93 1289.51 L2053.93 1283.19 L2046.82 1283.19 L2046.82 1281.27 L2053.93 1281.27 L2053.93 1274.95 L2056.06 1274.95 Z" fill="#000000" fill-rule="evenodd" fill-opacity="1" /><path clip-path="url(#clip180)" d="M2098.21 1277.03 L2098.21 1288.32 L2109.49 1288.32 L2109.49 1291.76 L2098.21 1291.76 L2098.21 1303.04 L2094.81 1303.04 L2094.81 1291.76 L2083.53 1291.76 L2083.53 1288.32 L2094.81 1288.32 L2094.81 1277.03 L2098.21 1277.03 Z" fill="#000000" fill-rule="evenodd" fill-opacity="1" /><path clip-path="url(#clip180)" d="M2135.5 1303.04 L2128.57 1280.36 L2132.58 1280.36 L2138.44 1299.4 Q2140.87 1296.88 2142.89 1293.4 Q2144.43 1290.79 2144.51 1288.52 Q2144.55 1287.45 2144.07 1285.42 Q2143.5 1283.01 2141.35 1280.36 L2145.12 1280.36 L2145.12 1280.36 Q2146.52 1282.16 2147.45 1284.67 Q2148.3 1286.98 2148.3 1288.56 Q2148.3 1292.53 2145.55 1296.07 Q2141.96 1300.69 2139.47 1303.04 L2135.5 1303.04 Z" fill="#000000" fill-rule="evenodd" fill-opacity="1" /><path clip-path="url(#clip180)" d="M2164.93 1296.17 L2164.93 1297.19 L2154.13 1297.19 Q2154.3 1299.33 2155.59 1300.47 Q2156.91 1301.6 2159.24 1301.6 Q2160.59 1301.6 2161.87 1301.3 Q2163.13 1301.02 2164.38 1300.43 L2164.38 1302.39 Q2163.13 1302.88 2161.79 1303.12 Q2160.47 1303.37 2159.1 1303.37 Q2155.67 1303.37 2153.69 1301.6 Q2151.68 1299.84 2151.68 1296.82 Q2151.68 1293.7 2153.59 1291.86 Q2155.47 1290.04 2158.69 1290.04 Q2161.57 1290.04 2163.25 1291.68 Q2164.93 1293.34 2164.93 1296.17 M2162.58 1295.55 Q2162.56 1293.85 2161.51 1292.81 Q2160.45 1291.8 2158.71 1291.8 Q2156.75 1291.8 2155.57 1292.79 Q2154.4 1293.76 2154.21 1295.55 L2162.58 1295.55 Z" fill="#000000" fill-rule="evenodd" fill-opacity="1" /><path clip-path="url(#clip180)" d="M1985.23 1811.73 L1989.36 1811.73 L1989.36 1799.35 L1984.84 1800.18 L1984.84 1797.83 L1989.5 1797.04 L1992.27 1797.04 L1992.27 1811.73 L1996.43 1811.73 L1996.43 1813.95 L1985.23 1813.95 L1985.23 1811.73 Z" fill="#000000" fill-rule="evenodd" fill-opacity="1" /><path clip-path="url(#clip180)" d="M2001.57 1797.04 L2011.9 1797.04 L2011.9 1798.96 L2003.98 1798.96 L2003.98 1803.1 Q2004.55 1802.91 2005.14 1802.83 Q2005.7 1802.75 2006.27 1802.75 Q2009.53 1802.75 2011.44 1804.31 Q2013.34 1805.85 2013.34 1808.5 Q2013.34 1811.24 2011.37 1812.76 Q2009.43 1814.26 2005.87 1814.26 Q2004.65 1814.26 2003.37 1814.07 Q2002.1 1813.89 2000.76 1813.53 L2000.76 1811.24 Q2001.92 1811.79 2003.17 1812.07 Q2004.43 1812.33 2005.83 1812.33 Q2008.07 1812.33 2009.39 1811.3 Q2010.71 1810.27 2010.71 1808.5 Q2010.71 1806.74 2009.39 1805.71 Q2008.07 1804.68 2005.83 1804.68 Q2004.77 1804.68 2003.72 1804.88 Q2002.67 1805.08 2001.57 1805.51 L2001.57 1797.04 Z" fill="#000000" fill-rule="evenodd" fill-opacity="1" /><path clip-path="url(#clip180)" d="M2019.4 1797.24 L2024.91 1797.24 L2038.31 1822.54 L2038.31 1797.24 L2042.28 1797.24 L2042.28 1827.48 L2036.77 1827.48 L2023.37 1802.19 L2023.37 1827.48 L2019.4 1827.48 L2019.4 1797.24 Z" fill="#000000" fill-rule="evenodd" fill-opacity="1" /><path clip-path="url(#clip180)" d="M2078.62 1801.48 L2078.62 1812.76 L2089.9 1812.76 L2089.9 1816.2 L2078.62 1816.2 L2078.62 1827.48 L2075.22 1827.48 L2075.22 1816.2 L2063.94 1816.2 L2063.94 1812.76 L2075.22 1812.76 L2075.22 1801.48 L2078.62 1801.48 Z" fill="#000000" fill-rule="evenodd" fill-opacity="1" /><path clip-path="url(#clip180)" d="M2110.64 1811.73 L2114.77 1811.73 L2114.77 1799.35 L2110.26 1800.18 L2110.26 1797.83 L2114.92 1797.04 L2117.69 1797.04 L2117.69 1811.73 L2121.84 1811.73 L2121.84 1813.95 L2110.64 1813.95 L2110.64 1811.73 Z" fill="#000000" fill-rule="evenodd" fill-opacity="1" /><path clip-path="url(#clip180)" d="M2128.18 1797.24 L2132.27 1797.24 L2132.27 1809.64 L2147.14 1809.64 L2147.14 1797.24 L2151.23 1797.24 L2151.23 1827.48 L2147.14 1827.48 L2147.14 1813.08 L2132.27 1813.08 L2132.27 1827.48 L2128.18 1827.48 L2128.18 1797.24 Z" fill="#000000" fill-rule="evenodd" fill-opacity="1" /><path clip-path="url(#clip180)" d="M2201.22 1813.57 L2201.22 1815.39 L2193.26 1823.35 L2190.83 1820.92 L2195.55 1816.2 L2170.86 1816.2 L2170.86 1812.76 L2195.55 1812.76 L2190.83 1808.04 L2193.26 1805.61 L2201.22 1813.57 Z" fill="#000000" fill-rule="evenodd" fill-opacity="1" /><path clip-path="url(#clip180)" d="M2219.59 1811.73 L2223.72 1811.73 L2223.72 1799.35 L2219.21 1800.18 L2219.21 1797.83 L2223.87 1797.04 L2226.64 1797.04 L2226.64 1811.73 L2230.79 1811.73 L2230.79 1813.95 L2219.59 1813.95 L2219.59 1811.73 Z" fill="#000000" fill-rule="evenodd" fill-opacity="1" /><path clip-path="url(#clip180)" d="M2238.49 1811.64 L2247.08 1811.64 L2247.08 1813.95 L2234.96 1813.95 L2234.96 1811.73 Q2235.65 1811.1 2236.93 1809.96 Q2243.9 1803.79 2243.9 1801.88 Q2243.9 1800.54 2242.84 1799.73 Q2241.79 1798.9 2240.07 1798.9 Q2239.02 1798.9 2237.78 1799.27 Q2236.54 1799.61 2235.09 1800.32 L2235.09 1797.83 Q2236.65 1797.26 2237.98 1796.98 Q2239.34 1796.7 2240.49 1796.7 Q2243.43 1796.7 2245.19 1798.03 Q2246.96 1799.37 2246.96 1801.56 Q2246.96 1804.37 2240.25 1810.13 Q2239.12 1811.1 2238.49 1811.64 Z" fill="#000000" fill-rule="evenodd" fill-opacity="1" /><path clip-path="url(#clip180)" d="M2276.41 1799.57 L2276.41 1803.89 Q2274.34 1801.96 2271.99 1801.01 Q2269.66 1800.06 2267.03 1800.06 Q2261.84 1800.06 2259.09 1803.24 Q2256.33 1806.4 2256.33 1812.39 Q2256.33 1818.37 2259.09 1821.55 Q2261.84 1824.71 2267.03 1824.71 Q2269.66 1824.71 2271.99 1823.76 Q2274.34 1822.8 2276.41 1820.88 L2276.41 1825.15 Q2274.26 1826.61 2271.85 1827.34 Q2269.46 1828.07 2266.78 1828.07 Q2259.92 1828.07 2255.97 1823.88 Q2252.02 1819.67 2252.02 1812.39 Q2252.02 1805.1 2255.97 1800.91 Q2259.92 1796.7 2266.78 1796.7 Q2269.5 1796.7 2271.89 1797.43 Q2274.3 1798.13 2276.41 1799.57 Z" fill="#000000" fill-rule="evenodd" fill-opacity="1" /><path clip-path="url(#clip180)" d="M2310.92 1801.48 L2310.92 1812.76 L2322.2 1812.76 L2322.2 1816.2 L2310.92 1816.2 L2310.92 1827.48 L2307.52 1827.48 L2307.52 1816.2 L2296.23 1816.2 L2296.23 1812.76 L2307.52 1812.76 L2307.52 1801.48 L2310.92 1801.48 Z" fill="#000000" fill-rule="evenodd" fill-opacity="1" /><path clip-path="url(#clip180)" d="M2349.44 1799.49 L2343.18 1807.98 L2349.44 1807.98 L2349.44 1799.49 M2349 1797.04 L2352.36 1797.04 L2352.36 1807.98 L2355.09 1807.98 L2355.09 1810.19 L2352.36 1810.19 L2352.36 1813.95 L2349.44 1813.95 L2349.44 1810.19 L2341.06 1810.19 L2341.06 1807.74 L2349 1797.04 Z" fill="#000000" fill-rule="evenodd" fill-opacity="1" /><path clip-path="url(#clip180)" d="M2360.48 1797.24 L2364.57 1797.24 L2364.57 1809.64 L2379.44 1809.64 L2379.44 1797.24 L2383.53 1797.24 L2383.53 1827.48 L2379.44 1827.48 L2379.44 1813.08 L2364.57 1813.08 L2364.57 1827.48 L2360.48 1827.48 L2360.48 1797.24 Z" fill="#000000" fill-rule="evenodd" fill-opacity="1" /><path clip-path="url(#clip180)" d="M2410.92 1815.21 L2410.92 1817.03 L2393.78 1817.03 Q2394.02 1820.88 2396.09 1822.91 Q2398.18 1824.91 2401.88 1824.91 Q2404.03 1824.91 2406.03 1824.38 Q2408.06 1823.86 2410.04 1822.8 L2410.04 1826.33 Q2408.04 1827.18 2405.93 1827.63 Q2403.83 1828.07 2401.66 1828.07 Q2396.23 1828.07 2393.05 1824.91 Q2389.89 1821.75 2389.89 1816.36 Q2389.89 1810.79 2392.89 1807.53 Q2395.91 1804.25 2401.01 1804.25 Q2405.59 1804.25 2408.24 1807.21 Q2410.92 1810.15 2410.92 1815.21 M2407.19 1814.12 Q2407.15 1811.06 2405.47 1809.23 Q2403.81 1807.41 2401.05 1807.41 Q2397.93 1807.41 2396.05 1809.17 Q2394.19 1810.94 2393.9 1814.14 L2407.19 1814.12 Z" fill="#000000" fill-rule="evenodd" fill-opacity="1" /><path clip-path="url(#clip180)" d="M2682.57 1573.93 L2676.31 1582.42 L2682.57 1582.42 L2682.57 1573.93 M2682.12 1571.48 L2685.48 1571.48 L2685.48 1582.42 L2688.22 1582.42 L2688.22 1584.63 L2685.48 1584.63 L2685.48 1588.4 L2682.57 1588.4 L2682.57 1584.63 L2674.18 1584.63 L2674.18 1582.18 L2682.12 1571.48 Z" fill="#000000" fill-rule="evenodd" fill-opacity="1" /><path clip-path="url(#clip180)" d="M2693.61 1571.69 L2697.7 1571.69 L2697.7 1584.08 L2712.56 1584.08 L2712.56 1571.69 L2716.66 1571.69 L2716.66 1601.93 L2712.56 1601.93 L2712.56 1587.53 L2697.7 1587.53 L2697.7 1601.93 L2693.61 1601.93 L2693.61 1571.69 Z" fill="#000000" fill-rule="evenodd" fill-opacity="1" /><path clip-path="url(#clip180)" d="M2744.04 1589.65 L2744.04 1591.47 L2726.9 1591.47 Q2727.15 1595.32 2729.21 1597.35 Q2731.3 1599.35 2735.01 1599.35 Q2737.15 1599.35 2739.16 1598.83 Q2741.18 1598.3 2743.17 1597.25 L2743.17 1600.77 Q2741.16 1601.62 2739.06 1602.07 Q2736.95 1602.51 2734.78 1602.51 Q2729.36 1602.51 2726.18 1599.35 Q2723.02 1596.19 2723.02 1590.81 Q2723.02 1585.24 2726.01 1581.98 Q2729.03 1578.69 2734.14 1578.69 Q2738.71 1578.69 2741.37 1581.65 Q2744.04 1584.59 2744.04 1589.65 M2740.31 1588.56 Q2740.27 1585.5 2738.59 1583.68 Q2736.93 1581.85 2734.18 1581.85 Q2731.06 1581.85 2729.17 1583.62 Q2727.31 1585.38 2727.03 1588.58 L2740.31 1588.56 Z" fill="#000000" fill-rule="evenodd" fill-opacity="1" /><path clip-path="url(#clip180)" d="M2538.42 2176.66 L2538.42 2188.02 L2543.56 2188.02 Q2546.42 2188.02 2547.98 2186.54 Q2549.54 2185.06 2549.54 2182.33 Q2549.54 2179.61 2547.98 2178.13 Q2546.42 2176.66 2543.56 2176.66 L2538.42 2176.66 M2534.33 2173.29 L2543.56 2173.29 Q2548.65 2173.29 2551.24 2175.6 Q2553.85 2177.89 2553.85 2182.33 Q2553.85 2186.8 2551.24 2189.09 Q2548.65 2191.38 2543.56 2191.38 L2538.42 2191.38 L2538.42 2203.53 L2534.33 2203.53 L2534.33 2173.29 Z" fill="#000000" fill-rule="evenodd" fill-opacity="1" /><path clip-path="url(#clip180)" d="M2571.6 2184.33 Q2570.97 2183.97 2570.22 2183.81 Q2569.49 2183.62 2568.6 2183.62 Q2565.44 2183.62 2563.74 2185.69 Q2562.06 2187.73 2562.06 2191.58 L2562.06 2203.53 L2558.31 2203.53 L2558.31 2180.85 L2562.06 2180.85 L2562.06 2184.37 Q2563.23 2182.31 2565.12 2181.31 Q2567 2180.3 2569.69 2180.3 Q2570.08 2180.3 2570.54 2180.36 Q2571.01 2180.4 2571.58 2180.5 L2571.6 2184.33 Z" fill="#000000" fill-rule="evenodd" fill-opacity="1" /><path clip-path="url(#clip180)" d="M2583.38 2183.46 Q2580.39 2183.46 2578.65 2185.81 Q2576.9 2188.14 2576.9 2192.21 Q2576.9 2196.28 2578.63 2198.63 Q2580.37 2200.96 2583.38 2200.96 Q2586.36 2200.96 2588.1 2198.61 Q2589.85 2196.26 2589.85 2192.21 Q2589.85 2188.18 2588.1 2185.83 Q2586.36 2183.46 2583.38 2183.46 M2583.38 2180.3 Q2588.25 2180.3 2591.02 2183.46 Q2593.8 2186.62 2593.8 2192.21 Q2593.8 2197.78 2591.02 2200.96 Q2588.25 2204.12 2583.38 2204.12 Q2578.5 2204.12 2575.73 2200.96 Q2572.97 2197.78 2572.97 2192.21 Q2572.97 2186.62 2575.73 2183.46 Q2578.5 2180.3 2583.38 2180.3 Z" fill="#000000" fill-rule="evenodd" fill-opacity="1" /><path clip-path="url(#clip180)" d="M2603.66 2174.41 L2603.66 2180.85 L2611.34 2180.85 L2611.34 2183.74 L2603.66 2183.74 L2603.66 2196.06 Q2603.66 2198.83 2604.41 2199.62 Q2605.18 2200.41 2607.51 2200.41 L2611.34 2200.41 L2611.34 2203.53 L2607.51 2203.53 Q2603.19 2203.53 2601.55 2201.93 Q2599.91 2200.31 2599.91 2196.06 L2599.91 2183.74 L2597.18 2183.74 L2597.18 2180.85 L2599.91 2180.85 L2599.91 2174.41 L2603.66 2174.41 Z" fill="#000000" fill-rule="evenodd" fill-opacity="1" /><path clip-path="url(#clip180)" d="M2625.03 2183.46 Q2622.03 2183.46 2620.29 2185.81 Q2618.55 2188.14 2618.55 2192.21 Q2618.55 2196.28 2620.27 2198.63 Q2622.01 2200.96 2625.03 2200.96 Q2628.01 2200.96 2629.75 2198.61 Q2631.49 2196.26 2631.49 2192.21 Q2631.49 2188.18 2629.75 2185.83 Q2628.01 2183.46 2625.03 2183.46 M2625.03 2180.3 Q2629.89 2180.3 2632.66 2183.46 Q2635.44 2186.62 2635.44 2192.21 Q2635.44 2197.78 2632.66 2200.96 Q2629.89 2204.12 2625.03 2204.12 Q2620.15 2204.12 2617.37 2200.96 Q2614.62 2197.78 2614.62 2192.21 Q2614.62 2186.62 2617.37 2183.46 Q2620.15 2180.3 2625.03 2180.3 Z" fill="#000000" fill-rule="evenodd" fill-opacity="1" /><path clip-path="url(#clip180)" d="M2660.47 2189.84 L2660.47 2203.53 L2656.75 2203.53 L2656.75 2189.96 Q2656.75 2186.74 2655.49 2185.14 Q2654.24 2183.54 2651.72 2183.54 Q2648.71 2183.54 2646.96 2185.47 Q2645.22 2187.39 2645.22 2190.71 L2645.22 2203.53 L2641.47 2203.53 L2641.47 2180.85 L2645.22 2180.85 L2645.22 2184.37 Q2646.56 2182.33 2648.36 2181.31 Q2650.18 2180.3 2652.55 2180.3 Q2656.46 2180.3 2658.47 2182.73 Q2660.47 2185.14 2660.47 2189.84 Z" fill="#000000" fill-rule="evenodd" fill-opacity="1" /><path clip-path="url(#clip180)" d="M1601.38 2697.35 L1601.38 2708.72 L1606.52 2708.72 Q1609.38 2708.72 1610.94 2707.24 Q1612.5 2705.76 1612.5 2703.02 Q1612.5 2700.31 1610.94 2698.83 Q1609.38 2697.35 1606.52 2697.35 L1601.38 2697.35 M1597.29 2693.99 L1606.52 2693.99 Q1611.61 2693.99 1614.2 2696.3 Q1616.81 2698.59 1616.81 2703.02 Q1616.81 2707.5 1614.2 2709.79 Q1611.61 2712.08 1606.52 2712.08 L1601.38 2712.08 L1601.38 2724.23 L1597.29 2724.23 L1597.29 2693.99 Z" fill="#000000" fill-rule="evenodd" fill-opacity="1" /><path clip-path="url(#clip180)" d="M1634.56 2705.03 Q1633.93 2704.67 1633.18 2704.5 Q1632.45 2704.32 1631.56 2704.32 Q1628.4 2704.32 1626.7 2706.39 Q1625.02 2708.43 1625.02 2712.28 L1625.02 2724.23 L1621.27 2724.23 L1621.27 2701.55 L1625.02 2701.55 L1625.02 2705.07 Q1626.19 2703 1628.08 2702.01 Q1629.96 2701 1632.65 2701 Q1633.04 2701 1633.5 2701.06 Q1633.97 2701.1 1634.54 2701.2 L1634.56 2705.03 Z" fill="#000000" fill-rule="evenodd" fill-opacity="1" /><path clip-path="url(#clip180)" d="M1646.35 2704.16 Q1643.35 2704.16 1641.61 2706.51 Q1639.86 2708.84 1639.86 2712.91 Q1639.86 2716.98 1641.59 2719.33 Q1643.33 2721.66 1646.35 2721.66 Q1649.32 2721.66 1651.06 2719.31 Q1652.81 2716.96 1652.81 2712.91 Q1652.81 2708.88 1651.06 2706.53 Q1649.32 2704.16 1646.35 2704.16 M1646.35 2701 Q1651.21 2701 1653.98 2704.16 Q1656.76 2707.32 1656.76 2712.91 Q1656.76 2718.48 1653.98 2721.66 Q1651.21 2724.82 1646.35 2724.82 Q1641.46 2724.82 1638.69 2721.66 Q1635.93 2718.48 1635.93 2712.91 Q1635.93 2707.32 1638.69 2704.16 Q1641.46 2701 1646.35 2701 Z" fill="#000000" fill-rule="evenodd" fill-opacity="1" /><path clip-path="url(#clip180)" d="M1666.62 2695.11 L1666.62 2701.55 L1674.3 2701.55 L1674.3 2704.44 L1666.62 2704.44 L1666.62 2716.76 Q1666.62 2719.53 1667.37 2720.32 Q1668.14 2721.11 1670.47 2721.11 L1674.3 2721.11 L1674.3 2724.23 L1670.47 2724.23 Q1666.15 2724.23 1664.51 2722.63 Q1662.87 2721.01 1662.87 2716.76 L1662.87 2704.44 L1660.14 2704.44 L1660.14 2701.55 L1662.87 2701.55 L1662.87 2695.11 L1666.62 2695.11 Z" fill="#000000" fill-rule="evenodd" fill-opacity="1" /><path clip-path="url(#clip180)" d="M1687.99 2704.16 Q1684.99 2704.16 1683.25 2706.51 Q1681.51 2708.84 1681.51 2712.91 Q1681.51 2716.98 1683.23 2719.33 Q1684.97 2721.66 1687.99 2721.66 Q1690.97 2721.66 1692.71 2719.31 Q1694.45 2716.96 1694.45 2712.91 Q1694.45 2708.88 1692.71 2706.53 Q1690.97 2704.16 1687.99 2704.16 M1687.99 2701 Q1692.85 2701 1695.62 2704.16 Q1698.4 2707.32 1698.4 2712.91 Q1698.4 2718.48 1695.62 2721.66 Q1692.85 2724.82 1687.99 2724.82 Q1683.11 2724.82 1680.33 2721.66 Q1677.58 2718.48 1677.58 2712.91 Q1677.58 2707.32 1680.33 2704.16 Q1683.11 2701 1687.99 2701 Z" fill="#000000" fill-rule="evenodd" fill-opacity="1" /><path clip-path="url(#clip180)" d="M1723.43 2710.54 L1723.43 2724.23 L1719.71 2724.23 L1719.71 2710.66 Q1719.71 2707.44 1718.45 2705.84 Q1717.2 2704.24 1714.68 2704.24 Q1711.67 2704.24 1709.92 2706.16 Q1708.18 2708.09 1708.18 2711.41 L1708.18 2724.23 L1704.44 2724.23 L1704.44 2701.55 L1708.18 2701.55 L1708.18 2705.07 Q1709.52 2703.02 1711.32 2702.01 Q1713.14 2701 1715.51 2701 Q1719.42 2701 1721.43 2703.43 Q1723.43 2705.84 1723.43 2710.54 Z" fill="#000000" fill-rule="evenodd" fill-opacity="1" /><path clip-path="url(#clip180)" d="M431.907 1308.22 L431.907 1319.58 L437.052 1319.58 Q439.908 1319.58 441.468 1318.1 Q443.027 1316.62 443.027 1313.89 Q443.027 1311.18 441.468 1309.7 Q439.908 1308.22 437.052 1308.22 L431.907 1308.22 M427.816 1304.86 L437.052 1304.86 Q442.136 1304.86 444.729 1307.17 Q447.341 1309.45 447.341 1313.89 Q447.341 1318.37 444.729 1320.66 Q442.136 1322.94 437.052 1322.94 L431.907 1322.94 L431.907 1335.1 L427.816 1335.1 L427.816 1304.86 Z" fill="#000000" fill-rule="evenodd" fill-opacity="1" /><path clip-path="url(#clip180)" d="M465.084 1315.9 Q464.456 1315.53 463.707 1315.37 Q462.978 1315.19 462.087 1315.19 Q458.927 1315.19 457.226 1317.25 Q455.544 1319.3 455.544 1323.15 L455.544 1335.1 L451.797 1335.1 L451.797 1312.41 L455.544 1312.41 L455.544 1315.94 Q456.719 1313.87 458.603 1312.88 Q460.487 1311.86 463.18 1311.86 Q463.565 1311.86 464.031 1311.93 Q464.497 1311.97 465.064 1312.07 L465.084 1315.9 Z" fill="#000000" fill-rule="evenodd" fill-opacity="1" /><path clip-path="url(#clip180)" d="M476.873 1315.02 Q473.875 1315.02 472.133 1317.37 Q470.391 1319.7 470.391 1323.77 Q470.391 1327.85 472.113 1330.2 Q473.855 1332.52 476.873 1332.52 Q479.85 1332.52 481.592 1330.17 Q483.334 1327.83 483.334 1323.77 Q483.334 1319.74 481.592 1317.39 Q479.85 1315.02 476.873 1315.02 M476.873 1311.86 Q481.734 1311.86 484.508 1315.02 Q487.283 1318.18 487.283 1323.77 Q487.283 1329.34 484.508 1332.52 Q481.734 1335.68 476.873 1335.68 Q471.991 1335.68 469.216 1332.52 Q466.462 1329.34 466.462 1323.77 Q466.462 1318.18 469.216 1315.02 Q471.991 1311.86 476.873 1311.86 Z" fill="#000000" fill-rule="evenodd" fill-opacity="1" /><path clip-path="url(#clip180)" d="M497.147 1305.97 L497.147 1312.41 L504.824 1312.41 L504.824 1315.31 L497.147 1315.31 L497.147 1327.62 Q497.147 1330.4 497.897 1331.19 Q498.666 1331.98 500.996 1331.98 L504.824 1331.98 L504.824 1335.1 L500.996 1335.1 Q496.681 1335.1 495.041 1333.5 Q493.4 1331.88 493.4 1327.62 L493.4 1315.31 L490.666 1315.31 L490.666 1312.41 L493.4 1312.41 L493.4 1305.97 L497.147 1305.97 Z" fill="#000000" fill-rule="evenodd" fill-opacity="1" /><path clip-path="url(#clip180)" d="M518.516 1315.02 Q515.518 1315.02 513.776 1317.37 Q512.034 1319.7 512.034 1323.77 Q512.034 1327.85 513.756 1330.2 Q515.498 1332.52 518.516 1332.52 Q521.493 1332.52 523.235 1330.17 Q524.977 1327.83 524.977 1323.77 Q524.977 1319.74 523.235 1317.39 Q521.493 1315.02 518.516 1315.02 M518.516 1311.86 Q523.377 1311.86 526.152 1315.02 Q528.927 1318.18 528.927 1323.77 Q528.927 1329.34 526.152 1332.52 Q523.377 1335.68 518.516 1335.68 Q513.634 1335.68 510.86 1332.52 Q508.105 1329.34 508.105 1323.77 Q508.105 1318.18 510.86 1315.02 Q513.634 1311.86 518.516 1311.86 Z" fill="#000000" fill-rule="evenodd" fill-opacity="1" /><path clip-path="url(#clip180)" d="M553.961 1321.4 L553.961 1335.1 L550.234 1335.1 L550.234 1321.53 Q550.234 1318.31 548.979 1316.71 Q547.723 1315.11 545.211 1315.11 Q542.193 1315.11 540.451 1317.03 Q538.71 1318.95 538.71 1322.28 L538.71 1335.1 L534.962 1335.1 L534.962 1312.41 L538.71 1312.41 L538.71 1315.94 Q540.046 1313.89 541.849 1312.88 Q543.672 1311.86 546.042 1311.86 Q549.951 1311.86 551.956 1314.3 Q553.961 1316.71 553.961 1321.4 Z" fill="#000000" fill-rule="evenodd" fill-opacity="1" /><path clip-path="url(#clip180)" d="M1392.71 479.131 L1392.71 490.494 L1397.85 490.494 Q1400.71 490.494 1402.27 489.015 Q1403.83 487.537 1403.83 484.802 Q1403.83 482.088 1402.27 480.609 Q1400.71 479.131 1397.85 479.131 L1392.71 479.131 M1388.62 475.769 L1397.85 475.769 Q1402.94 475.769 1405.53 478.078 Q1408.14 480.366 1408.14 484.802 Q1408.14 489.278 1405.53 491.567 Q1402.94 493.856 1397.85 493.856 L1392.71 493.856 L1392.71 506.009 L1388.62 506.009 L1388.62 475.769 Z" fill="#000000" fill-rule="evenodd" fill-opacity="1" /><path clip-path="url(#clip180)" d="M1425.88 486.807 Q1425.26 486.443 1424.51 486.281 Q1423.78 486.098 1422.89 486.098 Q1419.73 486.098 1418.02 488.164 Q1416.34 490.21 1416.34 494.058 L1416.34 506.009 L1412.6 506.009 L1412.6 483.324 L1416.34 483.324 L1416.34 486.848 Q1417.52 484.782 1419.4 483.789 Q1421.29 482.777 1423.98 482.777 Q1424.36 482.777 1424.83 482.837 Q1425.3 482.878 1425.86 482.979 L1425.88 486.807 Z" fill="#000000" fill-rule="evenodd" fill-opacity="1" /><path clip-path="url(#clip180)" d="M1437.67 485.936 Q1434.67 485.936 1432.93 488.286 Q1431.19 490.615 1431.19 494.686 Q1431.19 498.758 1432.91 501.107 Q1434.65 503.436 1437.67 503.436 Q1440.65 503.436 1442.39 501.087 Q1444.13 498.737 1444.13 494.686 Q1444.13 490.656 1442.39 488.306 Q1440.65 485.936 1437.67 485.936 M1437.67 482.777 Q1442.53 482.777 1445.31 485.936 Q1448.08 489.096 1448.08 494.686 Q1448.08 500.256 1445.31 503.436 Q1442.53 506.596 1437.67 506.596 Q1432.79 506.596 1430.02 503.436 Q1427.26 500.256 1427.26 494.686 Q1427.26 489.096 1430.02 485.936 Q1432.79 482.777 1437.67 482.777 Z" fill="#000000" fill-rule="evenodd" fill-opacity="1" /><path clip-path="url(#clip180)" d="M1457.95 476.883 L1457.95 483.324 L1465.62 483.324 L1465.62 486.22 L1457.95 486.22 L1457.95 498.535 Q1457.95 501.31 1458.7 502.1 Q1459.47 502.889 1461.79 502.889 L1465.62 502.889 L1465.62 506.009 L1461.79 506.009 Q1457.48 506.009 1455.84 504.409 Q1454.2 502.788 1454.2 498.535 L1454.2 486.22 L1451.46 486.22 L1451.46 483.324 L1454.2 483.324 L1454.2 476.883 L1457.95 476.883 Z" fill="#000000" fill-rule="evenodd" fill-opacity="1" /><path clip-path="url(#clip180)" d="M1479.31 485.936 Q1476.32 485.936 1474.58 488.286 Q1472.83 490.615 1472.83 494.686 Q1472.83 498.758 1474.56 501.107 Q1476.3 503.436 1479.31 503.436 Q1482.29 503.436 1484.03 501.087 Q1485.78 498.737 1485.78 494.686 Q1485.78 490.656 1484.03 488.306 Q1482.29 485.936 1479.31 485.936 M1479.31 482.777 Q1484.18 482.777 1486.95 485.936 Q1489.73 489.096 1489.73 494.686 Q1489.73 500.256 1486.95 503.436 Q1484.18 506.596 1479.31 506.596 Q1474.43 506.596 1471.66 503.436 Q1468.9 500.256 1468.9 494.686 Q1468.9 489.096 1471.66 485.936 Q1474.43 482.777 1479.31 482.777 Z" fill="#000000" fill-rule="evenodd" fill-opacity="1" /><path clip-path="url(#clip180)" d="M1514.76 492.317 L1514.76 506.009 L1511.03 506.009 L1511.03 492.438 Q1511.03 489.218 1509.78 487.618 Q1508.52 486.017 1506.01 486.017 Q1502.99 486.017 1501.25 487.942 Q1499.51 489.866 1499.51 493.188 L1499.51 506.009 L1495.76 506.009 L1495.76 483.324 L1499.51 483.324 L1499.51 486.848 Q1500.85 484.802 1502.65 483.789 Q1504.47 482.777 1506.84 482.777 Q1510.75 482.777 1512.76 485.207 Q1514.76 487.618 1514.76 492.317 Z" fill="#000000" fill-rule="evenodd" fill-opacity="1" /></svg>
