<?xml version="1.0" encoding="utf-8"?>
<svg xmlns="http://www.w3.org/2000/svg" xmlns:xlink="http://www.w3.org/1999/xlink" width="800" height="800" viewBox="0 0 3200 3200">
<defs>
  <clipPath id="clip150">
    <rect x="0" y="0" width="3200" height="3200"/>
  </clipPath>
</defs>
<path clip-path="url(#clip150)" d="
M0 3200 L3200 3200 L3200 0 L0 0  Z
  " fill="#ffffff" fill-rule="evenodd" fill-opacity="1"/>
<defs>
  <clipPath id="clip151">
    <rect x="640" y="320" width="2241" height="2241"/>
  </clipPath>
</defs>
<path clip-path="url(#clip150)" d="
M47.2441 3152.76 L3152.76 3152.76 L3152.76 47.2441 L47.2441 47.2441  Z
  " fill="#ffffff" fill-rule="evenodd" fill-opacity="1"/>
<defs>
  <clipPath id="clip152">
    <rect x="47" y="47" width="3107" height="3107"/>
  </clipPath>
</defs>
<polyline clip-path="url(#clip152)" style="stroke:#000000; stroke-linecap:butt; stroke-linejoin:round; stroke-width:12; stroke-opacity:1; fill:none" points="
  969.584,2291.15 977.935,2305.41 986.291,2319.64 994.659,2333.84 1003.04,2347.97 1011.45,2362.02 1019.89,2375.97 1028.36,2389.79 1036.88,2403.47 1045.43,2416.97 
  1054.05,2430.3 1062.71,2443.41 1071.45,2456.29 1080.25,2468.93 1089.13,2481.29 1098.09,2493.36 1107.13,2505.12 1116.27,2516.54 1125.5,2527.62 1134.84,2538.31 
  1144.3,2548.61 1153.86,2558.5 1163.55,2567.94 1173.36,2576.93 1183.31,2585.44 1193.4,2593.45 1203.62,2600.96 1213.98,2607.99 1224.47,2614.56 1235.08,2620.7 
  1245.8,2626.42 1256.63,2631.74 1267.57,2636.69 1278.6,2641.29 1289.73,2645.55 1300.95,2649.49 1312.24,2653.15 1323.62,2656.54 1335.06,2659.67 1346.56,2662.58 
  1358.12,2665.28 1369.74,2667.79 1381.4,2670.13 1393.1,2672.33 1404.84,2674.4 1416.6,2676.37 1428.39,2678.26 1440.19,2680.08 1452.01,2681.86 1463.83,2683.63 
  
  "/>
<polyline clip-path="url(#clip152)" style="stroke:#000000; stroke-linecap:butt; stroke-linejoin:round; stroke-width:12; stroke-opacity:1; fill:none" points="
  1419.89,2652.82 1463.83,2683.63 1412.82,2700.29 
  "/>
<polyline clip-path="url(#clip152)" style="stroke:#000000; stroke-linecap:butt; stroke-linejoin:round; stroke-width:12; stroke-opacity:1; fill:none" points="
  1463.83,2683.63 1452.01,2681.86 
  "/>
<polyline clip-path="url(#clip152)" style="stroke:#000000; stroke-linecap:butt; stroke-linejoin:round; stroke-width:4; stroke-opacity:1; fill:none" points="
  1538.43,2709.11 1557.16,2714.15 1575.87,2719.16 1594.57,2724.14 1613.23,2729.06 1631.86,2733.89 1650.44,2738.63 1668.97,2743.25 1687.43,2747.73 1705.81,2752.05 
  1724.11,2756.19 1742.31,2760.13 1760.41,2763.86 1778.39,2767.34 1796.25,2770.57 1813.98,2773.52 1831.57,2776.17 1849.01,2778.5 1866.28,2780.49 1883.38,2782.13 
  1900.31,2783.38 1917.04,2784.24 1933.58,2784.69 1949.91,2784.69 1966.02,2784.24 1981.9,2783.31 1997.56,2781.9 2013,2780.04 2028.23,2777.74 2043.26,2775.02 
  2058.1,2771.9 2072.76,2768.41 2087.25,2764.56 2101.58,2760.37 2115.76,2755.86 2129.8,2751.05 2143.71,2745.97 2157.49,2740.62 2171.15,2735.04 2184.72,2729.24 
  2198.19,2723.24 2211.57,2717.06 2224.88,2710.72 2238.12,2704.25 2251.31,2697.65 2264.44,2690.95 2277.54,2684.18 2290.62,2677.34 2303.67,2670.47 2316.71,2663.57 
  
  "/>
<polyline clip-path="url(#clip152)" style="stroke:#000000; stroke-linecap:butt; stroke-linejoin:round; stroke-width:4; stroke-opacity:1; fill:none" points="
  2263.06,2664.79 2316.71,2663.57 2285.49,2707.22 
  "/>
<polyline clip-path="url(#clip152)" style="stroke:#000000; stroke-linecap:butt; stroke-linejoin:round; stroke-width:4; stroke-opacity:1; fill:none" points="
  2316.71,2663.57 2303.67,2670.47 
  "/>
<polyline clip-path="url(#clip152)" style="stroke:#000000; stroke-linecap:butt; stroke-linejoin:round; stroke-width:0.8; stroke-opacity:1; fill:none" points="
  2390.98,2637.51 2402.46,2629.06 2413.93,2620.61 2425.35,2612.16 2436.71,2603.7 2447.98,2595.23 2459.15,2586.75 2470.2,2578.25 2481.09,2569.74 2491.82,2561.21 
  2502.36,2552.67 2512.69,2544.1 2522.78,2535.5 2532.63,2526.88 2542.2,2518.23 2551.47,2509.55 2560.44,2500.84 2569.06,2492.09 2577.32,2483.3 2585.21,2474.48 
  2592.7,2465.61 2599.77,2456.7 2606.39,2447.74 2612.55,2438.73 2618.23,2429.67 2623.4,2420.56 2628.07,2411.4 2632.26,2402.18 2635.98,2392.92 2639.26,2383.61 
  2642.12,2374.25 2644.58,2364.86 2646.66,2355.42 2648.39,2345.95 2649.78,2336.44 2650.85,2326.9 2651.62,2317.32 2652.13,2307.72 2652.38,2298.09 2652.4,2288.44 
  2652.21,2278.77 2651.83,2269.07 2651.28,2259.36 2650.58,2249.63 2649.76,2239.89 2648.83,2230.14 2647.82,2220.38 2646.74,2210.61 2645.63,2200.84 2644.49,2191.06 
  
  "/>
<polyline clip-path="url(#clip152)" style="stroke:#000000; stroke-linecap:butt; stroke-linejoin:round; stroke-width:0.8; stroke-opacity:1; fill:none" points="
  2626.2,2241.51 2644.49,2191.06 2673.88,2235.96 
  "/>
<polyline clip-path="url(#clip152)" style="stroke:#000000; stroke-linecap:butt; stroke-linejoin:round; stroke-width:0.8; stroke-opacity:1; fill:none" points="
  2644.49,2191.06 2645.63,2200.84 
  "/>
<polyline clip-path="url(#clip152)" style="stroke:#000000; stroke-linecap:butt; stroke-linejoin:round; stroke-width:4; stroke-opacity:1; fill:none" points="
  2652.29,2113.71 2635.69,2118.78 2619.1,2123.83 2602.52,2128.84 2585.98,2133.79 2569.47,2138.66 2553.01,2143.43 2536.61,2148.09 2520.27,2152.61 2504.01,2156.97 
  2487.84,2161.16 2471.75,2165.15 2455.78,2168.92 2439.91,2172.46 2424.17,2175.75 2408.57,2178.76 2393.1,2181.48 2377.79,2183.88 2362.64,2185.96 2347.65,2187.68 
  2332.85,2189.02 2318.24,2189.98 2303.82,2190.52 2289.62,2190.64 2275.63,2190.3 2261.87,2189.49 2248.34,2188.22 2235.02,2186.49 2221.91,2184.33 2209,2181.77 
  2196.28,2178.81 2183.74,2175.48 2171.37,2171.79 2159.17,2167.78 2147.11,2163.45 2135.2,2158.82 2123.41,2153.92 2111.75,2148.77 2100.21,2143.38 2088.77,2137.78 
  2077.42,2131.98 2066.16,2126.01 2054.98,2119.88 2043.86,2113.61 2032.8,2107.22 2021.78,2100.74 2010.8,2094.17 1999.86,2087.55 1988.93,2080.89 1978.01,2074.21 
  
  "/>
<polyline clip-path="url(#clip152)" style="stroke:#000000; stroke-linecap:butt; stroke-linejoin:round; stroke-width:4; stroke-opacity:1; fill:none" points="
  2006.43,2119.73 1978.01,2074.21 2031.48,2078.79 
  "/>
<polyline clip-path="url(#clip152)" style="stroke:#000000; stroke-linecap:butt; stroke-linejoin:round; stroke-width:4; stroke-opacity:1; fill:none" points="
  1978.01,2074.21 1988.93,2080.89 
  "/>
<polyline clip-path="url(#clip152)" style="stroke:#000000; stroke-linecap:butt; stroke-linejoin:round; stroke-width:4; stroke-opacity:1; fill:none" points="
  1905.38,2045.3 1888.6,2045.64 1871.82,2045.96 1855.08,2046.26 1838.37,2046.5 1821.73,2046.68 1805.16,2046.78 1788.68,2046.79 1772.3,2046.68 1756.04,2046.45 
  1739.91,2046.07 1723.92,2045.53 1708.1,2044.81 1692.45,2043.91 1676.99,2042.79 1661.73,2041.45 1646.7,2039.88 1631.9,2038.04 1617.34,2035.94 1603.05,2033.54 
  1589.04,2030.84 1575.32,2027.83 1561.91,2024.47 1548.82,2020.77 1536.06,2016.7 1523.66,2012.24 1511.61,2007.4 1499.89,2002.2 1488.49,1996.64 1477.4,1990.74 
  1466.6,1984.53 1456.08,1978.01 1445.83,1971.21 1435.82,1964.13 1426.04,1956.79 1416.49,1949.22 1407.14,1941.42 1397.98,1933.42 1388.99,1925.22 1380.17,1916.85 
  1371.49,1908.32 1362.94,1899.64 1354.51,1890.84 1346.19,1881.92 1337.95,1872.91 1329.78,1863.82 1321.67,1854.66 1313.61,1845.46 1305.57,1836.22 1297.55,1826.97 
  
  "/>
<polyline clip-path="url(#clip152)" style="stroke:#000000; stroke-linecap:butt; stroke-linejoin:round; stroke-width:4; stroke-opacity:1; fill:none" points="
  1310.86,1878.96 1297.55,1826.97 1347.13,1847.52 
  "/>
<polyline clip-path="url(#clip152)" style="stroke:#000000; stroke-linecap:butt; stroke-linejoin:round; stroke-width:4; stroke-opacity:1; fill:none" points="
  1297.55,1826.97 1305.57,1836.22 
  "/>
<polyline clip-path="url(#clip152)" style="stroke:#000000; stroke-linecap:butt; stroke-linejoin:round; stroke-width:0.8; stroke-opacity:1; fill:none" points="
  1236.64,1777.78 1225.08,1785.91 1213.54,1794.05 1202.04,1802.19 1190.61,1810.34 1179.25,1818.49 1168.01,1826.67 1156.89,1834.85 1145.91,1843.06 1135.11,1851.28 
  1124.49,1859.53 1114.08,1867.8 1103.91,1876.1 1093.98,1884.44 1084.33,1892.8 1074.97,1901.2 1065.93,1909.64 1057.22,1918.12 1048.87,1926.64 1040.89,1935.21 
  1033.32,1943.83 1026.16,1952.5 1019.44,1961.22 1013.19,1970 1007.42,1978.84 1002.15,1987.74 997.379,1996.69 993.094,2005.71 989.27,2014.79 985.887,2023.92 
  982.923,2033.09 980.357,2042.32 978.169,2051.6 976.338,2060.91 974.842,2070.27 973.661,2079.67 972.773,2089.1 972.158,2098.56 971.795,2108.06 971.662,2117.58 
  971.74,2127.13 972.005,2136.7 972.439,2146.29 973.02,2155.9 973.726,2165.53 974.537,2175.17 975.432,2184.82 976.39,2194.47 977.39,2204.14 978.411,2213.8 
  
  "/>
<polyline clip-path="url(#clip152)" style="stroke:#000000; stroke-linecap:butt; stroke-linejoin:round; stroke-width:0.8; stroke-opacity:1; fill:none" points="
  997.235,2163.54 978.411,2213.8 949.501,2168.59 
  "/>
<polyline clip-path="url(#clip152)" style="stroke:#000000; stroke-linecap:butt; stroke-linejoin:round; stroke-width:0.8; stroke-opacity:1; fill:none" points="
  978.411,2213.8 977.39,2204.14 
  "/>
<polyline clip-path="url(#clip152)" style="stroke:#000000; stroke-linecap:butt; stroke-linejoin:round; stroke-width:4; stroke-opacity:1; fill:none" points="
  1236.64,1777.78 1248.96,1767.87 1261.26,1757.96 1273.52,1748.04 1285.72,1738.12 1297.83,1728.19 1309.83,1718.24 1321.7,1708.29 1333.43,1698.31 1344.98,1688.32 
  1356.34,1678.31 1367.49,1668.27 1378.4,1658.21 1389.06,1648.12 1399.44,1638 1409.52,1627.85 1419.28,1617.66 1428.7,1607.44 1437.75,1597.18 1446.42,1586.87 
  1454.68,1576.53 1462.52,1566.13 1469.9,1555.69 1476.82,1545.2 1483.25,1534.65 1489.16,1524.05 1494.56,1513.39 1499.47,1502.69 1503.91,1491.93 1507.91,1481.12 
  1511.47,1470.26 1514.63,1459.36 1517.4,1448.42 1519.81,1437.45 1521.88,1426.43 1523.63,1415.38 1525.08,1404.3 1526.25,1393.18 1527.17,1382.04 1527.84,1370.88 
  1528.31,1359.69 1528.58,1348.48 1528.69,1337.25 1528.64,1326.01 1528.47,1314.75 1528.18,1303.48 1527.82,1292.2 1527.39,1280.91 1526.91,1269.62 1526.42,1258.33 
  
  "/>
<polyline clip-path="url(#clip152)" style="stroke:#000000; stroke-linecap:butt; stroke-linejoin:round; stroke-width:4; stroke-opacity:1; fill:none" points="
  1504.54,1307.34 1526.42,1258.33 1552.5,1305.23 
  "/>
<polyline clip-path="url(#clip152)" style="stroke:#000000; stroke-linecap:butt; stroke-linejoin:round; stroke-width:4; stroke-opacity:1; fill:none" points="
  1526.42,1258.33 1526.91,1269.62 
  "/>
<polyline clip-path="url(#clip152)" style="stroke:#000000; stroke-linecap:butt; stroke-linejoin:round; stroke-width:4; stroke-opacity:1; fill:none" points="
  1537.87,1180.98 1557.61,1185.36 1577.34,1189.71 1597.05,1194.03 1616.73,1198.29 1636.37,1202.46 1655.96,1206.54 1675.49,1210.5 1694.94,1214.33 1714.32,1217.99 
  1733.6,1221.48 1752.79,1224.77 1771.86,1227.85 1790.82,1230.69 1809.64,1233.27 1828.32,1235.58 1846.85,1237.59 1865.22,1239.29 1883.42,1240.65 1901.43,1241.66 
  1919.26,1242.29 1936.88,1242.53 1954.29,1242.36 1971.48,1241.76 1988.44,1240.7 2005.16,1239.17 2021.63,1237.16 2037.88,1234.71 2053.9,1231.82 2069.71,1228.52 
  2085.32,1224.82 2100.74,1220.75 2115.97,1216.33 2131.04,1211.57 2145.94,1206.5 2160.69,1201.13 2175.3,1195.48 2189.78,1189.58 2204.14,1183.44 2218.39,1177.09 
  2232.54,1170.54 2246.6,1163.81 2260.57,1156.93 2274.48,1149.9 2288.32,1142.76 2302.12,1135.52 2315.87,1128.21 2329.6,1120.83 2343.3,1113.41 2357,1105.98 
  
  "/>
<polyline clip-path="url(#clip152)" style="stroke:#000000; stroke-linecap:butt; stroke-linejoin:round; stroke-width:4; stroke-opacity:1; fill:none" points="
  2303.36,1107.79 2357,1105.98 2326.27,1149.97 
  "/>
<polyline clip-path="url(#clip152)" style="stroke:#000000; stroke-linecap:butt; stroke-linejoin:round; stroke-width:4; stroke-opacity:1; fill:none" points="
  2357,1105.98 2343.3,1113.41 
  "/>
<polyline clip-path="url(#clip152)" style="stroke:#000000; stroke-linecap:butt; stroke-linejoin:round; stroke-width:4; stroke-opacity:1; fill:none" points="
  2430.52,1078.62 2430.95,1092.35 2431.4,1106.07 2431.87,1119.76 2432.38,1133.39 2432.95,1146.96 2433.58,1160.45 2434.3,1173.84 2435.1,1187.12 2436.02,1200.27 
  2437.05,1213.27 2438.22,1226.11 2439.53,1238.77 2441,1251.24 2442.65,1263.49 2444.48,1275.52 2446.52,1287.3 2448.76,1298.83 2451.24,1310.07 2453.95,1321.03 
  2456.92,1331.67 2460.15,1341.99 2463.67,1351.97 2467.47,1361.59 2471.59,1370.84 2476.02,1379.7 2480.78,1388.17 2485.83,1396.26 2491.19,1404 2496.82,1411.4 
  2502.72,1418.47 2508.87,1425.23 2515.27,1431.7 2521.89,1437.89 2528.72,1443.82 2535.75,1449.51 2542.97,1454.97 2550.37,1460.23 2557.92,1465.28 2565.62,1470.16 
  2573.46,1474.87 2581.41,1479.44 2589.47,1483.88 2597.62,1488.2 2605.86,1492.43 2614.16,1496.57 2622.51,1500.65 2630.9,1504.68 2639.33,1508.68 2647.76,1512.67 
  
  "/>
<polyline clip-path="url(#clip152)" style="stroke:#000000; stroke-linecap:butt; stroke-linejoin:round; stroke-width:4; stroke-opacity:1; fill:none" points="
  2614.6,1470.47 2647.76,1512.67 2594.11,1513.87 
  "/>
<polyline clip-path="url(#clip152)" style="stroke:#000000; stroke-linecap:butt; stroke-linejoin:round; stroke-width:4; stroke-opacity:1; fill:none" points="
  2647.76,1512.67 2639.33,1508.68 
  "/>
<polyline clip-path="url(#clip152)" style="stroke:#000000; stroke-linecap:butt; stroke-linejoin:round; stroke-width:12; stroke-opacity:1; fill:none" points="
  2709.11,1561.1 2701.43,1572.47 2693.76,1583.83 2686.13,1595.19 2678.57,1606.53 2671.08,1617.84 2663.7,1629.13 2656.44,1640.39 2649.32,1651.6 2642.37,1662.77 
  2635.59,1673.89 2629.02,1684.96 2622.67,1695.96 2616.56,1706.9 2610.72,1717.76 2605.16,1728.55 2599.91,1739.25 2594.98,1749.86 2590.39,1760.38 2586.17,1770.8 
  2582.33,1781.11 2578.9,1791.32 2575.89,1801.4 2573.33,1811.36 2571.24,1821.19 2569.63,1830.89 2568.51,1840.46 2567.85,1849.9 2567.64,1859.21 2567.85,1868.41 
  2568.47,1877.5 2569.47,1886.48 2570.84,1895.36 2572.55,1904.14 2574.59,1912.84 2576.93,1921.45 2579.55,1929.98 2582.44,1938.45 2585.57,1946.84 2588.93,1955.17 
  2592.48,1963.45 2596.22,1971.68 2600.12,1979.86 2604.16,1988.01 2608.33,1996.12 2612.59,2004.2 2616.94,2012.26 2621.35,2020.31 2625.8,2028.34 2630.26,2036.36 
  
  "/>
<polyline clip-path="url(#clip152)" style="stroke:#000000; stroke-linecap:butt; stroke-linejoin:round; stroke-width:12; stroke-opacity:1; fill:none" points="
  2627.89,1982.75 2630.26,2036.36 2585.95,2006.1 
  "/>
<polyline clip-path="url(#clip152)" style="stroke:#000000; stroke-linecap:butt; stroke-linejoin:round; stroke-width:12; stroke-opacity:1; fill:none" points="
  2630.26,2036.36 2625.8,2028.34 
  "/>
<polyline clip-path="url(#clip152)" style="stroke:#000000; stroke-linecap:butt; stroke-linejoin:round; stroke-width:4; stroke-opacity:1; fill:none" points="
  2709.11,1561.1 2691.66,1563.01 2674.21,1564.91 2656.79,1566.77 2639.42,1568.58 2622.09,1570.32 2604.82,1571.97 2587.64,1573.51 2570.54,1574.93 2553.55,1576.22 
  2536.67,1577.34 2519.92,1578.29 2503.31,1579.04 2486.85,1579.58 2470.56,1579.89 2454.45,1579.96 2438.53,1579.76 2422.82,1579.28 2407.33,1578.5 2392.06,1577.41 
  2377.04,1575.98 2362.28,1574.2 2347.79,1572.04 2333.57,1569.5 2319.66,1566.56 2306.04,1563.19 2292.74,1559.41 2279.73,1555.21 2267.01,1550.63 2254.55,1545.68 
  2242.35,1540.38 2230.39,1534.75 2218.66,1528.79 2207.16,1522.54 2195.85,1516.01 2184.74,1509.21 2173.81,1502.17 2163.04,1494.89 2152.43,1487.41 2141.96,1479.73 
  2131.62,1471.87 2121.39,1463.86 2111.27,1455.71 2101.23,1447.43 2091.28,1439.05 2081.38,1430.58 2071.54,1422.04 2061.74,1413.44 2051.96,1404.82 2042.19,1396.17 
  
  "/>
<polyline clip-path="url(#clip152)" style="stroke:#000000; stroke-linecap:butt; stroke-linejoin:round; stroke-width:4; stroke-opacity:1; fill:none" points="
  2062.22,1445.96 2042.19,1396.17 2094.04,1410.02 
  "/>
<polyline clip-path="url(#clip152)" style="stroke:#000000; stroke-linecap:butt; stroke-linejoin:round; stroke-width:4; stroke-opacity:1; fill:none" points="
  2042.19,1396.17 2051.96,1404.82 
  "/>
<polyline clip-path="url(#clip152)" style="stroke:#000000; stroke-linecap:butt; stroke-linejoin:round; stroke-width:0.8; stroke-opacity:1; fill:none" points="
  1976.52,1355.22 1956.42,1362.01 1936.32,1368.79 1916.24,1375.52 1896.18,1382.19 1876.15,1388.78 1856.16,1395.26 1836.22,1401.62 1816.33,1407.83 1796.51,1413.88 
  1776.75,1419.73 1757.08,1425.38 1737.49,1430.8 1717.99,1435.98 1698.6,1440.88 1679.32,1445.49 1660.15,1449.78 1641.12,1453.75 1622.21,1457.36 1603.45,1460.59 
  1584.83,1463.43 1566.37,1465.85 1548.08,1467.84 1529.96,1469.37 1512.02,1470.41 1494.26,1470.96 1476.7,1471.01 1459.31,1470.59 1442.1,1469.7 1425.06,1468.38 
  1408.17,1466.64 1391.43,1464.5 1374.83,1461.99 1358.36,1459.13 1342.02,1455.93 1325.8,1452.42 1309.69,1448.62 1293.68,1444.55 1277.76,1440.23 1261.93,1435.68 
  1246.18,1430.92 1230.5,1425.97 1214.88,1420.86 1199.32,1415.6 1183.8,1410.22 1168.32,1404.73 1152.88,1399.16 1137.45,1393.52 1122.05,1387.85 1106.65,1382.15 
  
  "/>
<polyline clip-path="url(#clip152)" style="stroke:#000000; stroke-linecap:butt; stroke-linejoin:round; stroke-width:0.8; stroke-opacity:1; fill:none" points="
  1143.34,1421.32 1106.65,1382.15 1160,1376.3 
  "/>
<polyline clip-path="url(#clip152)" style="stroke:#000000; stroke-linecap:butt; stroke-linejoin:round; stroke-width:0.8; stroke-opacity:1; fill:none" points="
  1106.65,1382.15 1122.05,1387.85 
  "/>
<polyline clip-path="url(#clip152)" style="stroke:#000000; stroke-linecap:butt; stroke-linejoin:round; stroke-width:12; stroke-opacity:1; fill:none" points="
  1027.54,1364.48 1037.88,1370.64 1048.2,1376.8 1058.48,1382.96 1068.7,1389.14 1078.84,1395.32 1088.87,1401.51 1098.78,1407.72 1108.55,1413.94 1118.16,1420.19 
  1127.59,1426.45 1136.81,1432.74 1145.8,1439.05 1154.55,1445.39 1163.04,1451.76 1171.24,1458.16 1179.14,1464.6 1186.71,1471.08 1193.94,1477.59 1200.8,1484.15 
  1207.27,1490.75 1213.33,1497.39 1218.97,1504.09 1224.16,1510.84 1228.88,1517.64 1233.11,1524.49 1236.86,1531.41 1240.13,1538.37 1242.96,1545.39 1245.36,1552.45 
  1247.36,1559.57 1248.97,1566.72 1250.21,1573.92 1251.1,1581.16 1251.67,1588.43 1251.93,1595.74 1251.91,1603.08 1251.63,1610.45 1251.1,1617.85 1250.34,1625.28 
  1249.38,1632.73 1248.24,1640.2 1246.94,1647.69 1245.49,1655.19 1243.92,1662.71 1242.25,1670.24 1240.5,1677.78 1238.69,1685.33 1236.83,1692.88 1234.96,1700.43 
  
  "/>
<polyline clip-path="url(#clip152)" style="stroke:#000000; stroke-linecap:butt; stroke-linejoin:round; stroke-width:12; stroke-opacity:1; fill:none" points="
  1269.81,1659.62 1234.96,1700.43 1223.22,1648.06 
  "/>
<polyline clip-path="url(#clip152)" style="stroke:#000000; stroke-linecap:butt; stroke-linejoin:round; stroke-width:12; stroke-opacity:1; fill:none" points="
  1234.96,1700.43 1236.83,1692.88 
  "/>
<polyline clip-path="url(#clip152)" style="stroke:#000000; stroke-linecap:butt; stroke-linejoin:round; stroke-width:4; stroke-opacity:1; fill:none" points="
  1027.54,1364.48 1019.08,1355.08 1010.65,1345.68 1002.25,1336.3 993.911,1326.92 985.656,1317.56 977.503,1308.21 969.472,1298.89 961.585,1289.59 953.86,1280.31 
  946.319,1271.07 938.982,1261.86 931.869,1252.7 925.001,1243.57 918.398,1234.49 912.081,1225.45 906.07,1216.47 900.385,1207.54 895.046,1198.67 890.075,1189.87 
  885.492,1181.13 881.316,1172.46 877.569,1163.86 874.271,1155.34 871.441,1146.9 869.101,1138.54 867.249,1130.26 865.866,1122.07 864.932,1113.95 864.426,1105.9 
  864.328,1097.92 864.618,1090.01 865.275,1082.16 866.278,1074.37 867.608,1066.63 869.244,1058.95 871.166,1051.32 873.352,1043.73 875.784,1036.18 878.44,1028.67 
  881.299,1021.19 884.343,1013.75 887.549,1006.33 890.898,998.936 894.37,991.564 897.944,984.21 901.599,976.869 905.315,969.539 909.073,962.215 912.85,954.895 
  
  "/>
<polyline clip-path="url(#clip152)" style="stroke:#000000; stroke-linecap:butt; stroke-linejoin:round; stroke-width:4; stroke-opacity:1; fill:none" points="
  869.51,986.544 912.85,954.895 912.165,1008.56 
  "/>
<polyline clip-path="url(#clip152)" style="stroke:#000000; stroke-linecap:butt; stroke-linejoin:round; stroke-width:4; stroke-opacity:1; fill:none" points="
  912.85,954.895 909.073,962.215 
  "/>
<polyline clip-path="url(#clip152)" style="stroke:#000000; stroke-linecap:butt; stroke-linejoin:round; stroke-width:12; stroke-opacity:1; fill:none" points="
  930.411,877.547 946.421,878.241 962.414,878.948 978.376,879.685 994.29,880.466 1010.14,881.304 1025.91,882.215 1041.59,883.213 1057.15,884.313 1072.59,885.529 
  1087.88,886.875 1103.01,888.367 1117.97,890.018 1132.74,891.843 1147.3,893.857 1161.64,896.074 1175.74,898.509 1189.59,901.176 1203.16,904.089 1216.45,907.264 
  1229.44,910.715 1242.1,914.456 1254.44,918.501 1266.42,922.866 1278.04,927.565 1289.27,932.611 1300.13,938.005 1310.62,943.733 1320.76,949.78 1330.56,956.132 
  1340.05,962.774 1349.23,969.692 1358.13,976.871 1366.76,984.297 1375.13,991.955 1383.26,999.83 1391.18,1007.91 1398.88,1016.18 1406.39,1024.62 1413.73,1033.22 
  1420.91,1041.97 1427.95,1050.84 1434.85,1059.84 1441.65,1068.93 1448.35,1078.11 1454.98,1087.37 1461.53,1096.68 1468.05,1106.03 1474.52,1115.42 1480.99,1124.82 
  
  "/>
<polyline clip-path="url(#clip152)" style="stroke:#000000; stroke-linecap:butt; stroke-linejoin:round; stroke-width:12; stroke-opacity:1; fill:none" points="
  1473.57,1071.67 1480.99,1124.82 1434.01,1098.86 
  "/>
<polyline clip-path="url(#clip152)" style="stroke:#000000; stroke-linecap:butt; stroke-linejoin:round; stroke-width:12; stroke-opacity:1; fill:none" points="
  1480.99,1124.82 1474.52,1115.42 
  "/>
<polyline clip-path="url(#clip152)" style="stroke:#000000; stroke-linecap:butt; stroke-linejoin:round; stroke-width:4; stroke-opacity:1; fill:none" points="
  930.411,877.547 916.434,873.76 902.476,869.966 888.559,866.157 874.702,862.328 860.926,858.47 847.251,854.577 833.698,850.641 820.286,846.656 807.035,842.615 
  793.966,838.51 781.1,834.335 768.455,830.082 756.053,825.744 743.914,821.315 732.058,816.786 720.504,812.152 709.274,807.405 698.388,802.538 687.865,797.544 
  677.726,792.416 667.991,787.147 658.68,781.73 649.814,776.157 641.412,770.422 633.495,764.518 626.061,758.445 619.093,752.21 612.569,745.819 606.469,739.281 
  600.773,732.601 595.461,725.787 590.513,718.846 585.908,711.785 581.627,704.611 577.648,697.331 573.953,689.953 570.52,682.483 567.329,674.928 564.361,667.295 
  561.595,659.592 559.011,651.825 556.588,644.002 554.307,636.13 552.147,628.215 550.088,620.265 548.11,612.287 546.192,604.287 544.315,596.274 542.458,588.253 
  
  "/>
<polyline clip-path="url(#clip152)" style="stroke:#000000; stroke-linecap:butt; stroke-linejoin:round; stroke-width:4; stroke-opacity:1; fill:none" points="
  529.903,640.429 542.458,588.253 576.666,629.603 
  "/>
<polyline clip-path="url(#clip152)" style="stroke:#000000; stroke-linecap:butt; stroke-linejoin:round; stroke-width:4; stroke-opacity:1; fill:none" points="
  542.458,588.253 544.315,596.274 
  "/>
<path clip-path="url(#clip152)" d="
M1058.9 2291.15 L1014.24 2213.8 L924.927 2213.8 L880.27 2291.15 L924.927 2368.49 L1014.24 2368.49 L1058.9 2291.15 L1058.9 2291.15  Z
  " fill="#ffdfc0" fill-rule="evenodd" fill-opacity="1"/>
<polyline clip-path="url(#clip152)" style="stroke:#000000; stroke-linecap:butt; stroke-linejoin:round; stroke-width:4; stroke-opacity:1; fill:none" points="
  1058.9,2291.15 1014.24,2213.8 924.927,2213.8 880.27,2291.15 924.927,2368.49 1014.24,2368.49 1058.9,2291.15 
  "/>
<path clip-path="url(#clip152)" d="
M1627.75 2709.11 L1583.09 2631.76 L1493.78 2631.76 L1449.12 2709.11 L1493.78 2786.46 L1583.09 2786.46 L1627.75 2709.11 L1627.75 2709.11  Z
  " fill="#ffdfc0" fill-rule="evenodd" fill-opacity="1"/>
<polyline clip-path="url(#clip152)" style="stroke:#000000; stroke-linecap:butt; stroke-linejoin:round; stroke-width:4; stroke-opacity:1; fill:none" points="
  1627.75,2709.11 1583.09,2631.76 1493.78,2631.76 1449.12,2709.11 1493.78,2786.46 1583.09,2786.46 1627.75,2709.11 
  "/>
<path clip-path="url(#clip152)" d="
M2480.29 2637.51 L2435.64 2560.16 L2346.32 2560.16 L2301.66 2637.51 L2346.32 2714.86 L2435.64 2714.86 L2480.29 2637.51 L2480.29 2637.51  Z
  " fill="#ffdfc0" fill-rule="evenodd" fill-opacity="1"/>
<polyline clip-path="url(#clip152)" style="stroke:#000000; stroke-linecap:butt; stroke-linejoin:round; stroke-width:4; stroke-opacity:1; fill:none" points="
  2480.29,2637.51 2435.64,2560.16 2346.32,2560.16 2301.66,2637.51 2346.32,2714.86 2435.64,2714.86 2480.29,2637.51 
  "/>
<path clip-path="url(#clip152)" d="
M2741.6 2113.71 L2696.95 2036.36 L2607.63 2036.36 L2562.98 2113.71 L2607.63 2191.06 L2696.95 2191.06 L2741.6 2113.71 L2741.6 2113.71  Z
  " fill="#ffdfc0" fill-rule="evenodd" fill-opacity="1"/>
<polyline clip-path="url(#clip152)" style="stroke:#000000; stroke-linecap:butt; stroke-linejoin:round; stroke-width:4; stroke-opacity:1; fill:none" points="
  2741.6,2113.71 2696.95,2036.36 2607.63,2036.36 2562.98,2113.71 2607.63,2191.06 2696.95,2191.06 2741.6,2113.71 
  "/>
<path clip-path="url(#clip152)" d="
M1994.7 2045.3 L1950.04 1967.95 L1860.73 1967.95 L1816.07 2045.3 L1860.73 2122.65 L1950.04 2122.65 L1994.7 2045.3 L1994.7 2045.3  Z
  " fill="#ffdfc0" fill-rule="evenodd" fill-opacity="1"/>
<polyline clip-path="url(#clip152)" style="stroke:#000000; stroke-linecap:butt; stroke-linejoin:round; stroke-width:4; stroke-opacity:1; fill:none" points="
  1994.7,2045.3 1950.04,1967.95 1860.73,1967.95 1816.07,2045.3 1860.73,2122.65 1950.04,2122.65 1994.7,2045.3 
  "/>
<path clip-path="url(#clip152)" d="
M1325.95 1777.78 L1281.3 1700.43 L1191.98 1700.43 L1147.33 1777.78 L1191.98 1855.13 L1281.3 1855.13 L1325.95 1777.78 L1325.95 1777.78  Z
  " fill="#ffdfc0" fill-rule="evenodd" fill-opacity="1"/>
<polyline clip-path="url(#clip152)" style="stroke:#000000; stroke-linecap:butt; stroke-linejoin:round; stroke-width:4; stroke-opacity:1; fill:none" points="
  1325.95,1777.78 1281.3,1700.43 1191.98,1700.43 1147.33,1777.78 1191.98,1855.13 1281.3,1855.13 1325.95,1777.78 
  "/>
<path clip-path="url(#clip152)" d="
M1627.19 1180.98 L1582.53 1103.64 L1493.22 1103.64 L1448.56 1180.98 L1493.22 1258.33 L1582.53 1258.33 L1627.19 1180.98 L1627.19 1180.98  Z
  " fill="#ffbd7c" fill-rule="evenodd" fill-opacity="1"/>
<polyline clip-path="url(#clip152)" style="stroke:#000000; stroke-linecap:butt; stroke-linejoin:round; stroke-width:4; stroke-opacity:1; fill:none" points="
  1627.19,1180.98 1582.53,1103.64 1493.22,1103.64 1448.56,1180.98 1493.22,1258.33 1582.53,1258.33 1627.19,1180.98 
  "/>
<path clip-path="url(#clip152)" d="
M2519.83 1078.62 L2475.17 1001.27 L2385.86 1001.27 L2341.2 1078.62 L2385.86 1155.97 L2475.17 1155.97 L2519.83 1078.62 L2519.83 1078.62  Z
  " fill="#ffbd7c" fill-rule="evenodd" fill-opacity="1"/>
<polyline clip-path="url(#clip152)" style="stroke:#000000; stroke-linecap:butt; stroke-linejoin:round; stroke-width:4; stroke-opacity:1; fill:none" points="
  2519.83,1078.62 2475.17,1001.27 2385.86,1001.27 2341.2,1078.62 2385.86,1155.97 2475.17,1155.97 2519.83,1078.62 
  "/>
<path clip-path="url(#clip152)" d="
M2798.43 1561.1 L2753.77 1483.75 L2664.45 1483.75 L2619.8 1561.1 L2664.45 1638.44 L2753.77 1638.44 L2798.43 1561.1 L2798.43 1561.1  Z
  " fill="#ffbd7c" fill-rule="evenodd" fill-opacity="1"/>
<polyline clip-path="url(#clip152)" style="stroke:#000000; stroke-linecap:butt; stroke-linejoin:round; stroke-width:4; stroke-opacity:1; fill:none" points="
  2798.43,1561.1 2753.77,1483.75 2664.45,1483.75 2619.8,1561.1 2664.45,1638.44 2753.77,1638.44 2798.43,1561.1 
  "/>
<path clip-path="url(#clip152)" d="
M2065.84 1355.22 L2021.18 1277.87 L1931.87 1277.87 L1887.21 1355.22 L1931.87 1432.56 L2021.18 1432.56 L2065.84 1355.22 L2065.84 1355.22  Z
  " fill="#ff8004" fill-rule="evenodd" fill-opacity="1"/>
<polyline clip-path="url(#clip152)" style="stroke:#000000; stroke-linecap:butt; stroke-linejoin:round; stroke-width:4; stroke-opacity:1; fill:none" points="
  2065.84,1355.22 2021.18,1277.87 1931.87,1277.87 1887.21,1355.22 1931.87,1432.56 2021.18,1432.56 2065.84,1355.22 
  "/>
<path clip-path="url(#clip152)" d="
M1116.86 1364.48 L1072.2 1287.13 L982.886 1287.13 L938.229 1364.48 L982.886 1441.82 L1072.2 1441.82 L1116.86 1364.48 L1116.86 1364.48  Z
  " fill="#ff8004" fill-rule="evenodd" fill-opacity="1"/>
<polyline clip-path="url(#clip152)" style="stroke:#000000; stroke-linecap:butt; stroke-linejoin:round; stroke-width:4; stroke-opacity:1; fill:none" points="
  1116.86,1364.48 1072.2,1287.13 982.886,1287.13 938.229,1364.48 982.886,1441.82 1072.2,1441.82 1116.86,1364.48 
  "/>
<path clip-path="url(#clip152)" d="
M1019.73 877.547 L975.068 800.199 L885.755 800.199 L841.098 877.547 L885.755 954.895 L975.068 954.895 L1019.73 877.547 L1019.73 877.547  Z
  " fill="#ca372e" fill-rule="evenodd" fill-opacity="1"/>
<polyline clip-path="url(#clip152)" style="stroke:#000000; stroke-linecap:butt; stroke-linejoin:round; stroke-width:4; stroke-opacity:1; fill:none" points="
  1019.73,877.547 975.068,800.199 885.755,800.199 841.098,877.547 885.755,954.895 975.068,954.895 1019.73,877.547 
  "/>
<path clip-path="url(#clip152)" d="
M603.315 490.889 L547.102 393.524 L434.675 393.524 L378.462 490.889 L434.675 588.253 L547.102 588.253 L603.315 490.889 L603.315 490.889  Z
  " fill="#ca372e" fill-rule="evenodd" fill-opacity="1"/>
<polyline clip-path="url(#clip152)" style="stroke:#000000; stroke-linecap:butt; stroke-linejoin:round; stroke-width:4; stroke-opacity:1; fill:none" points="
  603.315,490.889 547.102,393.524 434.675,393.524 378.462,490.889 434.675,588.253 547.102,588.253 603.315,490.889 
  "/>
<circle clip-path="url(#clip152)" style="fill:#ffdfc0; stroke:none; fill-opacity:1" cx="969.584" cy="2291.15" r="2"/>
<circle clip-path="url(#clip152)" style="fill:#ffdfc0; stroke:none; fill-opacity:1" cx="1538.43" cy="2709.11" r="2"/>
<circle clip-path="url(#clip152)" style="fill:#ffdfc0; stroke:none; fill-opacity:1" cx="2390.98" cy="2637.51" r="2"/>
<circle clip-path="url(#clip152)" style="fill:#ffdfc0; stroke:none; fill-opacity:1" cx="2652.29" cy="2113.71" r="2"/>
<circle clip-path="url(#clip152)" style="fill:#ffdfc0; stroke:none; fill-opacity:1" cx="1905.38" cy="2045.3" r="2"/>
<circle clip-path="url(#clip152)" style="fill:#ffdfc0; stroke:none; fill-opacity:1" cx="1236.64" cy="1777.78" r="2"/>
<circle clip-path="url(#clip152)" style="fill:#ffdfc0; stroke:none; fill-opacity:1" cx="1537.87" cy="1180.98" r="2"/>
<circle clip-path="url(#clip152)" style="fill:#ffdfc0; stroke:none; fill-opacity:1" cx="2430.52" cy="1078.62" r="2"/>
<circle clip-path="url(#clip152)" style="fill:#ffdfc0; stroke:none; fill-opacity:1" cx="2709.11" cy="1561.1" r="2"/>
<circle clip-path="url(#clip152)" style="fill:#ffdfc0; stroke:none; fill-opacity:1" cx="1976.52" cy="1355.22" r="2"/>
<circle clip-path="url(#clip152)" style="fill:#ffdfc0; stroke:none; fill-opacity:1" cx="1027.54" cy="1364.48" r="2"/>
<circle clip-path="url(#clip152)" style="fill:#ffdfc0; stroke:none; fill-opacity:1" cx="930.411" cy="877.547" r="2"/>
<circle clip-path="url(#clip152)" style="fill:#ffdfc0; stroke:none; fill-opacity:1" cx="490.889" cy="490.889" r="2"/>
<path clip-path="url(#clip150)" d="M941.369 2290.51 L945.501 2290.51 L945.501 2278.13 L940.985 2278.96 L940.985 2276.61 L945.643 2275.82 L948.418 2275.82 L948.418 2290.51 L952.57 2290.51 L952.57 2292.74 L941.369 2292.74 L941.369 2290.51 Z" fill="#000000" fill-rule="evenodd" fill-opacity="1" /><path clip-path="url(#clip150)" d="M960.267 2290.43 L968.855 2290.43 L968.855 2292.74 L956.743 2292.74 L956.743 2290.51 Q957.431 2289.88 958.707 2288.75 Q965.675 2282.57 965.675 2280.67 Q965.675 2279.33 964.622 2278.52 Q963.568 2277.69 961.847 2277.69 Q960.793 2277.69 959.558 2278.05 Q958.322 2278.4 956.864 2279.11 L956.864 2276.61 Q958.424 2276.05 959.76 2275.76 Q961.118 2275.48 962.272 2275.48 Q965.209 2275.48 966.971 2276.82 Q968.733 2278.15 968.733 2280.34 Q968.733 2283.16 962.029 2288.91 Q960.895 2289.88 960.267 2290.43 Z" fill="#000000" fill-rule="evenodd" fill-opacity="1" /><path clip-path="url(#clip150)" d="M998.183 2278.36 L998.183 2282.67 Q996.117 2280.75 993.768 2279.79 Q991.439 2278.84 988.805 2278.84 Q983.62 2278.84 980.866 2282.02 Q978.111 2285.18 978.111 2291.18 Q978.111 2297.15 980.866 2300.33 Q983.62 2303.49 988.805 2303.49 Q991.439 2303.49 993.768 2302.54 Q996.117 2301.59 998.183 2299.66 L998.183 2303.94 Q996.036 2305.4 993.626 2306.13 Q991.236 2306.85 988.562 2306.85 Q981.696 2306.85 977.747 2302.66 Q973.797 2298.45 973.797 2291.18 Q973.797 2283.89 977.747 2279.69 Q981.696 2275.48 988.562 2275.48 Q991.277 2275.48 993.667 2276.21 Q996.077 2276.92 998.183 2278.36 Z" fill="#000000" fill-rule="evenodd" fill-opacity="1" /><path clip-path="url(#clip150)" d="M1510.1 2708.47 L1514.23 2708.47 L1514.23 2696.1 L1509.71 2696.93 L1509.71 2694.58 L1514.37 2693.79 L1517.15 2693.79 L1517.15 2708.47 L1521.3 2708.47 L1521.3 2710.7 L1510.1 2710.7 L1510.1 2708.47 Z" fill="#000000" fill-rule="evenodd" fill-opacity="1" /><path clip-path="url(#clip150)" d="M1534.18 2701.55 Q1536.04 2701.91 1537.06 2703.02 Q1538.09 2704.12 1538.09 2705.78 Q1538.09 2708.29 1536.17 2709.65 Q1534.24 2711.01 1530.66 2711.01 Q1529.5 2711.01 1528.23 2710.8 Q1526.97 2710.58 1525.55 2710.17 L1525.55 2707.72 Q1526.61 2708.27 1527.8 2708.53 Q1529.02 2708.8 1530.37 2708.8 Q1532.58 2708.8 1533.8 2708.01 Q1535.01 2707.2 1535.01 2705.78 Q1535.01 2704.28 1533.88 2703.51 Q1532.76 2702.74 1530.58 2702.74 L1528.83 2702.74 L1528.83 2700.55 L1530.74 2700.55 Q1532.64 2700.55 1533.61 2699.93 Q1534.61 2699.28 1534.61 2698.06 Q1534.61 2696.89 1533.59 2696.28 Q1532.58 2695.65 1530.66 2695.65 Q1529.85 2695.65 1528.81 2695.83 Q1527.78 2696.02 1526.14 2696.48 L1526.14 2694.15 Q1527.62 2693.81 1528.91 2693.63 Q1530.21 2693.44 1531.32 2693.44 Q1534.24 2693.44 1535.94 2694.64 Q1537.66 2695.83 1537.66 2697.84 Q1537.66 2699.24 1536.75 2700.21 Q1535.84 2701.18 1534.18 2701.55 Z" fill="#000000" fill-rule="evenodd" fill-opacity="1" /><path clip-path="url(#clip150)" d="M1544.27 2693.99 L1549.78 2693.99 L1563.18 2719.29 L1563.18 2693.99 L1567.15 2693.99 L1567.15 2724.23 L1561.65 2724.23 L1548.24 2698.93 L1548.24 2724.23 L1544.27 2724.23 L1544.27 2693.99 Z" fill="#000000" fill-rule="evenodd" fill-opacity="1" /><path clip-path="url(#clip150)" d="M2362.76 2636.87 L2366.9 2636.87 L2366.9 2624.5 L2362.38 2625.33 L2362.38 2622.98 L2367.04 2622.19 L2369.81 2622.19 L2369.81 2636.87 L2373.96 2636.87 L2373.96 2639.1 L2362.76 2639.1 L2362.76 2636.87 Z" fill="#000000" fill-rule="evenodd" fill-opacity="1" /><path clip-path="url(#clip150)" d="M2386.85 2629.95 Q2388.71 2630.31 2389.72 2631.43 Q2390.76 2632.52 2390.76 2634.18 Q2390.76 2636.69 2388.83 2638.05 Q2386.91 2639.41 2383.32 2639.41 Q2382.17 2639.41 2380.89 2639.2 Q2379.64 2638.98 2378.22 2638.58 L2378.22 2636.12 Q2379.27 2636.67 2380.47 2636.93 Q2381.68 2637.2 2383.04 2637.2 Q2385.25 2637.2 2386.46 2636.41 Q2387.68 2635.6 2387.68 2634.18 Q2387.68 2632.68 2386.54 2631.91 Q2385.43 2631.14 2383.24 2631.14 L2381.5 2631.14 L2381.5 2628.95 L2383.4 2628.95 Q2385.31 2628.95 2386.28 2628.33 Q2387.27 2627.68 2387.27 2626.46 Q2387.27 2625.29 2386.26 2624.68 Q2385.25 2624.05 2383.32 2624.05 Q2382.51 2624.05 2381.48 2624.24 Q2380.45 2624.42 2378.81 2624.88 L2378.81 2622.55 Q2380.28 2622.21 2381.58 2622.03 Q2382.88 2621.85 2383.99 2621.85 Q2386.91 2621.85 2388.61 2623.04 Q2390.33 2624.24 2390.33 2626.24 Q2390.33 2627.64 2389.42 2628.61 Q2388.51 2629.58 2386.85 2629.95 Z" fill="#000000" fill-rule="evenodd" fill-opacity="1" /><path clip-path="url(#clip150)" d="M2419.58 2624.72 L2419.58 2629.04 Q2417.51 2627.11 2415.16 2626.16 Q2412.83 2625.21 2410.2 2625.21 Q2405.01 2625.21 2402.26 2628.39 Q2399.51 2631.55 2399.51 2637.54 Q2399.51 2643.52 2402.26 2646.7 Q2405.01 2649.86 2410.2 2649.86 Q2412.83 2649.86 2415.16 2648.91 Q2417.51 2647.95 2419.58 2646.03 L2419.58 2650.3 Q2417.43 2651.76 2415.02 2652.49 Q2412.63 2653.22 2409.96 2653.22 Q2403.09 2653.22 2399.14 2649.03 Q2395.19 2644.81 2395.19 2637.54 Q2395.19 2630.25 2399.14 2626.06 Q2403.09 2621.85 2409.96 2621.85 Q2412.67 2621.85 2415.06 2622.57 Q2417.47 2623.28 2419.58 2624.72 Z" fill="#000000" fill-rule="evenodd" fill-opacity="1" /><path clip-path="url(#clip150)" d="M2623.96 2113.07 L2628.09 2113.07 L2628.09 2100.7 L2623.57 2101.53 L2623.57 2099.18 L2628.23 2098.39 L2631 2098.39 L2631 2113.07 L2635.16 2113.07 L2635.16 2115.3 L2623.96 2115.3 L2623.96 2113.07 Z" fill="#000000" fill-rule="evenodd" fill-opacity="1" /><path clip-path="url(#clip150)" d="M2647.09 2100.84 L2640.83 2109.33 L2647.09 2109.33 L2647.09 2100.84 M2646.64 2098.39 L2650 2098.39 L2650 2109.33 L2652.74 2109.33 L2652.74 2111.54 L2650 2111.54 L2650 2115.3 L2647.09 2115.3 L2647.09 2111.54 L2638.7 2111.54 L2638.7 2109.08 L2646.64 2098.39 Z" fill="#000000" fill-rule="evenodd" fill-opacity="1" /><path clip-path="url(#clip150)" d="M2658.12 2098.59 L2663.63 2098.59 L2677.04 2123.89 L2677.04 2098.59 L2681.01 2098.59 L2681.01 2128.83 L2675.5 2128.83 L2662.09 2103.53 L2662.09 2128.83 L2658.12 2128.83 L2658.12 2098.59 Z" fill="#000000" fill-rule="evenodd" fill-opacity="1" /><path clip-path="url(#clip150)" d="M1875.37 2044.66 L1879.5 2044.66 L1879.5 2032.29 L1874.98 2033.12 L1874.98 2030.77 L1879.64 2029.98 L1882.42 2029.98 L1882.42 2044.66 L1886.57 2044.66 L1886.57 2046.89 L1875.37 2046.89 L1875.37 2044.66 Z" fill="#000000" fill-rule="evenodd" fill-opacity="1" /><path clip-path="url(#clip150)" d="M1891.71 2029.98 L1902.04 2029.98 L1902.04 2031.9 L1894.12 2031.9 L1894.12 2036.03 Q1894.69 2035.85 1895.28 2035.77 Q1895.84 2035.69 1896.41 2035.69 Q1899.67 2035.69 1901.58 2037.25 Q1903.48 2038.79 1903.48 2041.44 Q1903.48 2044.18 1901.52 2045.69 Q1899.57 2047.19 1896.01 2047.19 Q1894.79 2047.19 1893.52 2047.01 Q1892.24 2046.83 1890.9 2046.46 L1890.9 2044.18 Q1892.06 2044.72 1893.31 2045.01 Q1894.57 2045.27 1895.97 2045.27 Q1898.21 2045.27 1899.53 2044.24 Q1900.85 2043.2 1900.85 2041.44 Q1900.85 2039.68 1899.53 2038.65 Q1898.21 2037.61 1895.97 2037.61 Q1894.91 2037.61 1893.86 2037.82 Q1892.81 2038.02 1891.71 2038.44 L1891.71 2029.98 Z" fill="#000000" fill-rule="evenodd" fill-opacity="1" /><path clip-path="url(#clip150)" d="M1921.81 2032.95 Q1917.35 2032.95 1914.72 2036.28 Q1912.11 2039.6 1912.11 2045.33 Q1912.11 2051.04 1914.72 2054.36 Q1917.35 2057.69 1921.81 2057.69 Q1926.27 2057.69 1928.86 2054.36 Q1931.47 2051.04 1931.47 2045.33 Q1931.47 2039.6 1928.86 2036.28 Q1926.27 2032.95 1921.81 2032.95 M1921.81 2029.63 Q1928.17 2029.63 1931.98 2033.91 Q1935.79 2038.16 1935.79 2045.33 Q1935.79 2052.48 1931.98 2056.75 Q1928.17 2061.01 1921.81 2061.01 Q1915.43 2061.01 1911.6 2056.75 Q1907.79 2052.5 1907.79 2045.33 Q1907.79 2038.16 1911.6 2033.91 Q1915.43 2029.63 1921.81 2029.63 Z" fill="#000000" fill-rule="evenodd" fill-opacity="1" /><path clip-path="url(#clip150)" d="M1208.3 1777.14 L1212.43 1777.14 L1212.43 1764.77 L1207.92 1765.6 L1207.92 1763.25 L1212.58 1762.46 L1215.35 1762.46 L1215.35 1777.14 L1219.5 1777.14 L1219.5 1779.37 L1208.3 1779.37 L1208.3 1777.14 Z" fill="#000000" fill-rule="evenodd" fill-opacity="1" /><path clip-path="url(#clip150)" d="M1224.65 1762.46 L1234.98 1762.46 L1234.98 1764.38 L1227.06 1764.38 L1227.06 1768.51 Q1227.63 1768.33 1228.21 1768.25 Q1228.78 1768.17 1229.35 1768.17 Q1232.61 1768.17 1234.51 1769.73 Q1236.42 1771.27 1236.42 1773.92 Q1236.42 1776.66 1234.45 1778.17 Q1232.51 1779.67 1228.94 1779.67 Q1227.73 1779.67 1226.45 1779.49 Q1225.17 1779.31 1223.84 1778.94 L1223.84 1776.66 Q1224.99 1777.2 1226.25 1777.49 Q1227.5 1777.75 1228.9 1777.75 Q1231.15 1777.75 1232.47 1776.72 Q1233.78 1775.68 1233.78 1773.92 Q1233.78 1772.16 1232.47 1771.13 Q1231.15 1770.09 1228.9 1770.09 Q1227.85 1770.09 1226.8 1770.3 Q1225.74 1770.5 1224.65 1770.92 L1224.65 1762.46 Z" fill="#000000" fill-rule="evenodd" fill-opacity="1" /><path clip-path="url(#clip150)" d="M1242.47 1762.66 L1247.98 1762.66 L1261.39 1787.96 L1261.39 1762.66 L1265.36 1762.66 L1265.36 1792.9 L1259.85 1792.9 L1246.44 1767.6 L1246.44 1792.9 L1242.47 1792.9 L1242.47 1762.66 Z" fill="#000000" fill-rule="evenodd" fill-opacity="1" /><path clip-path="url(#clip150)" d="M1507.86 1180.35 L1511.99 1180.35 L1511.99 1167.97 L1507.47 1168.8 L1507.47 1166.45 L1512.13 1165.66 L1514.91 1165.66 L1514.91 1180.35 L1519.06 1180.35 L1519.06 1182.57 L1507.86 1182.57 L1507.86 1180.35 Z" fill="#000000" fill-rule="evenodd" fill-opacity="1" /><path clip-path="url(#clip150)" d="M1530.14 1173.15 Q1528.35 1173.15 1527.32 1174.21 Q1526.29 1175.28 1526.29 1177.12 Q1526.29 1178.95 1527.32 1180 Q1528.35 1181.07 1530.14 1181.07 Q1531.9 1181.07 1532.93 1180 Q1533.97 1178.95 1533.97 1177.12 Q1533.97 1175.28 1532.93 1174.21 Q1531.9 1173.15 1530.14 1173.15 M1535.36 1165.98 L1535.36 1168.07 Q1534.37 1167.67 1533.36 1167.46 Q1532.34 1167.24 1531.35 1167.24 Q1528.76 1167.24 1527.38 1168.76 Q1526.01 1170.3 1525.8 1173.4 Q1526.57 1172.41 1527.73 1171.88 Q1528.9 1171.35 1530.28 1171.35 Q1533.22 1171.35 1534.92 1172.89 Q1536.62 1174.45 1536.62 1177.12 Q1536.62 1179.7 1534.84 1181.3 Q1533.07 1182.88 1530.14 1182.88 Q1526.75 1182.88 1524.97 1180.63 Q1523.19 1178.38 1523.19 1174.09 Q1523.19 1170.08 1525.38 1167.71 Q1527.56 1165.32 1531.25 1165.32 Q1532.24 1165.32 1533.26 1165.48 Q1534.27 1165.66 1535.36 1165.98 Z" fill="#000000" fill-rule="evenodd" fill-opacity="1" /><path clip-path="url(#clip150)" d="M1554.3 1168.64 Q1549.84 1168.64 1547.21 1171.96 Q1544.6 1175.28 1544.6 1181.01 Q1544.6 1186.73 1547.21 1190.05 Q1549.84 1193.37 1554.3 1193.37 Q1558.76 1193.37 1561.35 1190.05 Q1563.96 1186.73 1563.96 1181.01 Q1563.96 1175.28 1561.35 1171.96 Q1558.76 1168.64 1554.3 1168.64 M1554.3 1165.32 Q1560.66 1165.32 1564.47 1169.59 Q1568.28 1173.84 1568.28 1181.01 Q1568.28 1188.16 1564.47 1192.44 Q1560.66 1196.69 1554.3 1196.69 Q1547.92 1196.69 1544.09 1192.44 Q1540.28 1188.18 1540.28 1181.01 Q1540.28 1173.84 1544.09 1169.59 Q1547.92 1165.32 1554.3 1165.32 Z" fill="#000000" fill-rule="evenodd" fill-opacity="1" /><path clip-path="url(#clip150)" d="M2404.93 1077.98 L2409.07 1077.98 L2409.07 1065.61 L2404.55 1066.44 L2404.55 1064.09 L2409.21 1063.3 L2411.98 1063.3 L2411.98 1077.98 L2416.13 1077.98 L2416.13 1080.21 L2404.93 1080.21 L2404.93 1077.98 Z" fill="#000000" fill-rule="evenodd" fill-opacity="1" /><path clip-path="url(#clip150)" d="M2420.59 1063.3 L2433.09 1063.3 L2433.09 1064.27 L2426.04 1080.21 L2423.28 1080.21 L2429.93 1065.22 L2420.59 1065.22 L2420.59 1063.3 Z" fill="#000000" fill-rule="evenodd" fill-opacity="1" /><path clip-path="url(#clip150)" d="M2439.1 1063.5 L2456.48 1063.5 L2456.48 1066.94 L2443.19 1066.94 L2443.19 1075.86 L2455.19 1075.86 L2455.19 1079.3 L2443.19 1079.3 L2443.19 1093.74 L2439.1 1093.74 L2439.1 1063.5 Z" fill="#000000" fill-rule="evenodd" fill-opacity="1" /><path clip-path="url(#clip150)" d="M2679.09 1560.46 L2683.23 1560.46 L2683.23 1548.08 L2678.71 1548.91 L2678.71 1546.56 L2683.37 1545.77 L2686.14 1545.77 L2686.14 1560.46 L2690.29 1560.46 L2690.29 1562.69 L2679.09 1562.69 L2679.09 1560.46 Z" fill="#000000" fill-rule="evenodd" fill-opacity="1" /><path clip-path="url(#clip150)" d="M2694.75 1545.77 L2707.25 1545.77 L2707.25 1546.74 L2700.2 1562.69 L2697.44 1562.69 L2704.09 1547.7 L2694.75 1547.7 L2694.75 1545.77 Z" fill="#000000" fill-rule="evenodd" fill-opacity="1" /><path clip-path="url(#clip150)" d="M2725.54 1548.75 Q2721.08 1548.75 2718.45 1552.07 Q2715.84 1555.39 2715.84 1561.13 Q2715.84 1566.84 2718.45 1570.16 Q2721.08 1573.48 2725.54 1573.48 Q2729.99 1573.48 2732.59 1570.16 Q2735.2 1566.84 2735.2 1561.13 Q2735.2 1555.39 2732.59 1552.07 Q2729.99 1548.75 2725.54 1548.75 M2725.54 1545.43 Q2731.9 1545.43 2735.71 1549.7 Q2739.51 1553.96 2739.51 1561.13 Q2739.51 1568.28 2735.71 1572.55 Q2731.9 1576.8 2725.54 1576.8 Q2719.16 1576.8 2715.33 1572.55 Q2711.52 1568.3 2711.52 1561.13 Q2711.52 1553.96 2715.33 1549.7 Q2719.16 1545.43 2725.54 1545.43 Z" fill="#000000" fill-rule="evenodd" fill-opacity="1" /><path clip-path="url(#clip150)" d="M1950.94 1354.58 L1955.07 1354.58 L1955.07 1342.2 L1950.56 1343.03 L1950.56 1340.68 L1955.22 1339.89 L1957.99 1339.89 L1957.99 1354.58 L1962.14 1354.58 L1962.14 1356.81 L1950.94 1356.81 L1950.94 1354.58 Z" fill="#000000" fill-rule="evenodd" fill-opacity="1" /><path clip-path="url(#clip150)" d="M1975.86 1349.64 Q1974.78 1348.74 1972.9 1348.74 Q1971.01 1348.74 1969.94 1349.64 Q1968.87 1350.51 1968.87 1352.03 Q1968.87 1353.57 1969.94 1354.44 Q1971.01 1355.31 1972.9 1355.31 Q1974.76 1355.31 1975.86 1354.42 Q1976.93 1353.55 1976.93 1352.03 Q1976.93 1350.51 1975.86 1349.64 M1970.27 1347.75 Q1968.56 1347.39 1967.63 1346.4 Q1966.68 1345.38 1966.68 1343.92 Q1966.68 1341.9 1968.34 1340.72 Q1970 1339.55 1972.9 1339.55 Q1975.8 1339.55 1977.46 1340.72 Q1979.1 1341.9 1979.1 1343.92 Q1979.1 1345.42 1978.16 1346.4 Q1977.21 1347.39 1975.53 1347.75 Q1977.35 1348.12 1978.49 1349.29 Q1979.56 1350.41 1979.56 1352.03 Q1979.56 1354.48 1977.84 1355.79 Q1976.1 1357.11 1972.9 1357.11 Q1969.68 1357.11 1967.96 1355.79 Q1966.21 1354.48 1966.21 1352.03 Q1966.21 1350.45 1967.29 1349.29 Q1968.38 1348.16 1970.27 1347.75 M1969.29 1344.15 Q1969.29 1345.42 1970.25 1346.19 Q1971.18 1346.94 1972.9 1346.94 Q1974.54 1346.94 1975.53 1346.19 Q1976.5 1345.46 1976.5 1344.15 Q1976.5 1342.87 1975.53 1342.1 Q1974.58 1341.35 1972.9 1341.35 Q1971.22 1341.35 1970.25 1342.1 Q1969.29 1342.83 1969.29 1344.15 Z" fill="#000000" fill-rule="evenodd" fill-opacity="1" /><path clip-path="url(#clip150)" d="M1985.11 1340.1 L2002.49 1340.1 L2002.49 1343.54 L1989.2 1343.54 L1989.2 1352.45 L2001.19 1352.45 L2001.19 1355.89 L1989.2 1355.89 L1989.2 1370.34 L1985.11 1370.34 L1985.11 1340.1 Z" fill="#000000" fill-rule="evenodd" fill-opacity="1" /><path clip-path="url(#clip150)" d="M997.526 1363.84 L1001.66 1363.84 L1001.66 1351.46 L997.141 1352.29 L997.141 1349.94 L1001.8 1349.15 L1004.57 1349.15 L1004.57 1363.84 L1008.73 1363.84 L1008.73 1366.07 L997.526 1366.07 L997.526 1363.84 Z" fill="#000000" fill-rule="evenodd" fill-opacity="1" /><path clip-path="url(#clip150)" d="M1022.44 1358.9 Q1021.37 1358 1019.48 1358 Q1017.6 1358 1016.52 1358.9 Q1015.45 1359.77 1015.45 1361.29 Q1015.45 1362.83 1016.52 1363.7 Q1017.6 1364.57 1019.48 1364.57 Q1021.34 1364.57 1022.44 1363.68 Q1023.51 1362.81 1023.51 1361.29 Q1023.51 1359.77 1022.44 1358.9 M1016.85 1357.01 Q1015.15 1356.65 1014.22 1355.66 Q1013.26 1354.64 1013.26 1353.18 Q1013.26 1351.16 1014.92 1349.98 Q1016.59 1348.81 1019.48 1348.81 Q1022.38 1348.81 1024.04 1349.98 Q1025.68 1351.16 1025.68 1353.18 Q1025.68 1354.68 1024.75 1355.66 Q1023.8 1356.65 1022.11 1357.01 Q1023.94 1357.38 1025.07 1358.55 Q1026.15 1359.67 1026.15 1361.29 Q1026.15 1363.74 1024.42 1365.05 Q1022.68 1366.37 1019.48 1366.37 Q1016.26 1366.37 1014.54 1365.05 Q1012.8 1363.74 1012.8 1361.29 Q1012.8 1359.71 1013.87 1358.55 Q1014.96 1357.42 1016.85 1357.01 M1015.88 1353.41 Q1015.88 1354.68 1016.83 1355.45 Q1017.76 1356.2 1019.48 1356.2 Q1021.12 1356.2 1022.11 1355.45 Q1023.09 1354.72 1023.09 1353.41 Q1023.09 1352.13 1022.11 1351.36 Q1021.16 1350.61 1019.48 1350.61 Q1017.8 1350.61 1016.83 1351.36 Q1015.88 1352.09 1015.88 1353.41 Z" fill="#000000" fill-rule="evenodd" fill-opacity="1" /><path clip-path="url(#clip150)" d="M1043.97 1352.13 Q1039.51 1352.13 1036.88 1355.45 Q1034.27 1358.77 1034.27 1364.51 Q1034.27 1370.22 1036.88 1373.54 Q1039.51 1376.86 1043.97 1376.86 Q1048.43 1376.86 1051.02 1373.54 Q1053.63 1370.22 1053.63 1364.51 Q1053.63 1358.77 1051.02 1355.45 Q1048.43 1352.13 1043.97 1352.13 M1043.97 1348.81 Q1050.33 1348.81 1054.14 1353.08 Q1057.94 1357.34 1057.94 1364.51 Q1057.94 1371.66 1054.14 1375.93 Q1050.33 1380.18 1043.97 1380.18 Q1037.59 1380.18 1033.76 1375.93 Q1029.95 1371.68 1029.95 1364.51 Q1029.95 1357.34 1033.76 1353.08 Q1037.59 1348.81 1043.97 1348.81 Z" fill="#000000" fill-rule="evenodd" fill-opacity="1" /><path clip-path="url(#clip150)" d="M904.83 876.909 L908.962 876.909 L908.962 864.534 L904.445 865.364 L904.445 863.015 L909.104 862.225 L911.879 862.225 L911.879 876.909 L916.031 876.909 L916.031 879.137 L904.83 879.137 L904.83 876.909 Z" fill="#000000" fill-rule="evenodd" fill-opacity="1" /><path clip-path="url(#clip150)" d="M921.236 878.773 L921.236 876.687 Q922.229 877.092 923.241 877.314 Q924.254 877.517 925.226 877.517 Q927.839 877.517 929.216 875.998 Q930.574 874.479 930.776 871.36 Q930.067 872.312 928.852 872.858 Q927.697 873.385 926.3 873.385 Q923.383 873.385 921.682 871.846 Q919.98 870.306 919.98 867.633 Q919.98 865.02 921.743 863.46 Q923.525 861.88 926.462 861.88 Q929.844 861.88 931.606 864.129 Q933.389 866.377 933.389 870.671 Q933.389 874.681 931.222 877.051 Q929.034 879.441 925.348 879.441 Q924.355 879.441 923.343 879.279 Q922.33 879.097 921.236 878.773 M926.462 871.603 Q928.244 871.603 929.277 870.549 Q930.31 869.496 930.31 867.633 Q930.31 865.81 929.277 864.757 Q928.244 863.683 926.462 863.683 Q924.74 863.683 923.667 864.757 Q922.613 865.81 922.613 867.633 Q922.613 869.496 923.667 870.549 Q924.7 871.603 926.462 871.603 Z" fill="#000000" fill-rule="evenodd" fill-opacity="1" /><path clip-path="url(#clip150)" d="M938.999 862.427 L956.378 862.427 L956.378 865.871 L943.091 865.871 L943.091 874.783 L955.081 874.783 L955.081 878.226 L943.091 878.226 L943.091 892.667 L938.999 892.667 L938.999 862.427 Z" fill="#000000" fill-rule="evenodd" fill-opacity="1" /><path clip-path="url(#clip150)" d="M451.564 490.17 L460.152 490.17 L460.152 492.479 L448.04 492.479 L448.04 490.251 Q448.729 489.623 450.005 488.488 Q456.972 482.311 456.972 480.407 Q456.972 479.07 455.919 478.26 Q454.866 477.43 453.144 477.43 Q452.091 477.43 450.856 477.794 Q449.62 478.138 448.162 478.847 L448.162 476.356 Q449.721 475.789 451.058 475.505 Q452.415 475.222 453.57 475.222 Q456.507 475.222 458.269 476.559 Q460.031 477.895 460.031 480.083 Q460.031 482.898 453.327 488.651 Q452.192 489.623 451.564 490.17 Z" fill="#000000" fill-rule="evenodd" fill-opacity="1" /><path clip-path="url(#clip150)" d="M474.31 478.766 Q473.298 477.024 471.252 477.024 Q469.206 477.024 468.193 478.766 Q467.16 480.508 467.16 483.992 Q467.16 487.496 468.193 489.238 Q469.206 490.98 471.252 490.98 Q473.298 490.98 474.31 489.238 Q475.343 487.496 475.343 483.992 Q475.343 480.508 474.31 478.766 M471.252 475.222 Q474.513 475.222 476.234 477.47 Q477.956 479.718 477.956 483.992 Q477.956 488.286 476.234 490.534 Q474.513 492.782 471.252 492.782 Q467.971 492.782 466.249 490.534 Q464.527 488.286 464.527 483.992 Q464.527 479.718 466.249 477.47 Q467.971 475.222 471.252 475.222 Z" fill="#000000" fill-rule="evenodd" fill-opacity="1" /><path clip-path="url(#clip150)" d="M483.465 475.769 L488.975 475.769 L502.383 501.067 L502.383 475.769 L506.353 475.769 L506.353 506.009 L500.844 506.009 L487.435 480.711 L487.435 506.009 L483.465 506.009 L483.465 475.769 Z" fill="#000000" fill-rule="evenodd" fill-opacity="1" /><path clip-path="url(#clip150)" d="M533.737 493.734 L533.737 495.557 L516.602 495.557 Q516.845 499.406 518.911 501.431 Q520.997 503.436 524.704 503.436 Q526.851 503.436 528.856 502.91 Q530.881 502.383 532.866 501.33 L532.866 504.854 Q530.861 505.705 528.754 506.15 Q526.648 506.596 524.481 506.596 Q519.053 506.596 515.873 503.436 Q512.713 500.277 512.713 494.889 Q512.713 489.319 515.711 486.058 Q518.728 482.777 523.833 482.777 Q528.41 482.777 531.063 485.734 Q533.737 488.671 533.737 493.734 M530.01 492.641 Q529.97 489.582 528.289 487.759 Q526.628 485.936 523.873 485.936 Q520.754 485.936 518.87 487.699 Q517.007 489.461 516.723 492.661 L530.01 492.641 Z" fill="#000000" fill-rule="evenodd" fill-opacity="1" /></svg>
