<?xml version="1.0" encoding="utf-8"?>
<svg xmlns="http://www.w3.org/2000/svg" xmlns:xlink="http://www.w3.org/1999/xlink" width="600" height="400" viewBox="0 0 2400 1600">
<defs>
  <clipPath id="clip880">
    <rect x="0" y="0" width="2400" height="1600"/>
  </clipPath>
</defs>
<path clip-path="url(#clip880)" d="
M0 1600 L2400 1600 L2400 0 L0 0  Z
  " fill="#ffffff" fill-rule="evenodd" fill-opacity="1"/>
<defs>
  <clipPath id="clip881">
    <rect x="480" y="0" width="1681" height="1600"/>
  </clipPath>
</defs>
<path clip-path="url(#clip880)" d="
M169.121 1410.9 L2352.76 1410.9 L2352.76 47.2441 L169.121 47.2441  Z
  " fill="#ffffff" fill-rule="evenodd" fill-opacity="1"/>
<defs>
  <clipPath id="clip882">
    <rect x="169" y="47" width="2185" height="1365"/>
  </clipPath>
</defs>
<polyline clip-path="url(#clip882)" style="stroke:#000000; stroke-linecap:butt; stroke-linejoin:round; stroke-width:2; stroke-opacity:0.1; fill:none" points="
  169.121,1410.9 169.121,47.2441 
  "/>
<polyline clip-path="url(#clip882)" style="stroke:#000000; stroke-linecap:butt; stroke-linejoin:round; stroke-width:2; stroke-opacity:0.1; fill:none" points="
  605.848,1410.9 605.848,47.2441 
  "/>
<polyline clip-path="url(#clip882)" style="stroke:#000000; stroke-linecap:butt; stroke-linejoin:round; stroke-width:2; stroke-opacity:0.1; fill:none" points="
  1042.58,1410.9 1042.58,47.2441 
  "/>
<polyline clip-path="url(#clip882)" style="stroke:#000000; stroke-linecap:butt; stroke-linejoin:round; stroke-width:2; stroke-opacity:0.1; fill:none" points="
  1479.3,1410.9 1479.3,47.2441 
  "/>
<polyline clip-path="url(#clip882)" style="stroke:#000000; stroke-linecap:butt; stroke-linejoin:round; stroke-width:2; stroke-opacity:0.1; fill:none" points="
  1916.03,1410.9 1916.03,47.2441 
  "/>
<polyline clip-path="url(#clip882)" style="stroke:#000000; stroke-linecap:butt; stroke-linejoin:round; stroke-width:2; stroke-opacity:0.1; fill:none" points="
  2352.76,1410.9 2352.76,47.2441 
  "/>
<polyline clip-path="url(#clip880)" style="stroke:#000000; stroke-linecap:butt; stroke-linejoin:round; stroke-width:4; stroke-opacity:1; fill:none" points="
  169.121,1410.9 2352.76,1410.9 
  "/>
<polyline clip-path="url(#clip880)" style="stroke:#000000; stroke-linecap:butt; stroke-linejoin:round; stroke-width:4; stroke-opacity:1; fill:none" points="
  169.121,1410.9 169.121,1392 
  "/>
<polyline clip-path="url(#clip880)" style="stroke:#000000; stroke-linecap:butt; stroke-linejoin:round; stroke-width:4; stroke-opacity:1; fill:none" points="
  605.848,1410.9 605.848,1392 
  "/>
<polyline clip-path="url(#clip880)" style="stroke:#000000; stroke-linecap:butt; stroke-linejoin:round; stroke-width:4; stroke-opacity:1; fill:none" points="
  1042.58,1410.9 1042.58,1392 
  "/>
<polyline clip-path="url(#clip880)" style="stroke:#000000; stroke-linecap:butt; stroke-linejoin:round; stroke-width:4; stroke-opacity:1; fill:none" points="
  1479.3,1410.9 1479.3,1392 
  "/>
<polyline clip-path="url(#clip880)" style="stroke:#000000; stroke-linecap:butt; stroke-linejoin:round; stroke-width:4; stroke-opacity:1; fill:none" points="
  1916.03,1410.9 1916.03,1392 
  "/>
<polyline clip-path="url(#clip880)" style="stroke:#000000; stroke-linecap:butt; stroke-linejoin:round; stroke-width:4; stroke-opacity:1; fill:none" points="
  2352.76,1410.9 2352.76,1392 
  "/>
<path clip-path="url(#clip880)" d="M119.387 1489.17 L127.026 1489.17 L127.026 1462.8 L118.716 1464.47 L118.716 1460.21 L126.98 1458.54 L131.656 1458.54 L131.656 1489.17 L139.294 1489.17 L139.294 1493.1 L119.387 1493.1 L119.387 1489.17 Z" fill="#000000" fill-rule="evenodd" fill-opacity="1" /><path clip-path="url(#clip880)" d="M158.739 1461.62 Q155.128 1461.62 153.299 1465.19 Q151.493 1468.73 151.493 1475.86 Q151.493 1482.97 153.299 1486.53 Q155.128 1490.07 158.739 1490.07 Q162.373 1490.07 164.178 1486.53 Q166.007 1482.97 166.007 1475.86 Q166.007 1468.73 164.178 1465.19 Q162.373 1461.62 158.739 1461.62 M158.739 1457.92 Q164.549 1457.92 167.604 1462.53 Q170.683 1467.11 170.683 1475.86 Q170.683 1484.59 167.604 1489.19 Q164.549 1493.78 158.739 1493.78 Q152.929 1493.78 149.85 1489.19 Q146.794 1484.59 146.794 1475.86 Q146.794 1467.11 149.85 1462.53 Q152.929 1457.92 158.739 1457.92 Z" fill="#000000" fill-rule="evenodd" fill-opacity="1" /><path clip-path="url(#clip880)" d="M170.683 1452.02 L194.795 1452.02 L194.795 1455.22 L170.683 1455.22 L170.683 1452.02 Z" fill="#000000" fill-rule="evenodd" fill-opacity="1" /><path clip-path="url(#clip880)" d="M206.267 1462.5 L219.527 1462.5 L219.527 1465.69 L201.697 1465.69 L201.697 1462.5 Q203.86 1460.26 207.584 1456.5 Q211.327 1452.72 212.286 1451.63 Q214.11 1449.58 214.825 1448.16 Q215.558 1446.74 215.558 1445.36 Q215.558 1443.12 213.979 1441.71 Q212.418 1440.3 209.897 1440.3 Q208.111 1440.3 206.117 1440.92 Q204.142 1441.54 201.885 1442.8 L201.885 1438.97 Q204.18 1438.05 206.173 1437.58 Q208.167 1437.11 209.822 1437.11 Q214.185 1437.11 216.781 1439.29 Q219.376 1441.47 219.376 1445.12 Q219.376 1446.85 218.718 1448.41 Q218.079 1449.95 216.367 1452.06 Q215.897 1452.6 213.377 1455.22 Q210.856 1457.81 206.267 1462.5 Z" fill="#000000" fill-rule="evenodd" fill-opacity="1" /><path clip-path="url(#clip880)" d="M555.964 1489.17 L563.602 1489.17 L563.602 1462.8 L555.292 1464.47 L555.292 1460.21 L563.556 1458.54 L568.232 1458.54 L568.232 1489.17 L575.871 1489.17 L575.871 1493.1 L555.964 1493.1 L555.964 1489.17 Z" fill="#000000" fill-rule="evenodd" fill-opacity="1" /><path clip-path="url(#clip880)" d="M595.315 1461.62 Q591.704 1461.62 589.875 1465.19 Q588.07 1468.73 588.07 1475.86 Q588.07 1482.97 589.875 1486.53 Q591.704 1490.07 595.315 1490.07 Q598.949 1490.07 600.755 1486.53 Q602.584 1482.97 602.584 1475.86 Q602.584 1468.73 600.755 1465.19 Q598.949 1461.62 595.315 1461.62 M595.315 1457.92 Q601.125 1457.92 604.181 1462.53 Q607.26 1467.11 607.26 1475.86 Q607.26 1484.59 604.181 1489.19 Q601.125 1493.78 595.315 1493.78 Q589.505 1493.78 586.426 1489.19 Q583.371 1484.59 583.371 1475.86 Q583.371 1467.11 586.426 1462.53 Q589.505 1457.92 595.315 1457.92 Z" fill="#000000" fill-rule="evenodd" fill-opacity="1" /><path clip-path="url(#clip880)" d="M607.26 1452.02 L631.371 1452.02 L631.371 1455.22 L607.26 1455.22 L607.26 1452.02 Z" fill="#000000" fill-rule="evenodd" fill-opacity="1" /><path clip-path="url(#clip880)" d="M640.23 1462.5 L646.436 1462.5 L646.436 1441.07 L639.684 1442.43 L639.684 1438.97 L646.399 1437.61 L650.198 1437.61 L650.198 1462.5 L656.404 1462.5 L656.404 1465.69 L640.23 1465.69 L640.23 1462.5 Z" fill="#000000" fill-rule="evenodd" fill-opacity="1" /><path clip-path="url(#clip880)" d="M1007.56 1489.17 L1015.2 1489.17 L1015.2 1462.8 L1006.89 1464.47 L1006.89 1460.21 L1015.15 1458.54 L1019.83 1458.54 L1019.83 1489.17 L1027.47 1489.17 L1027.47 1493.1 L1007.56 1493.1 L1007.56 1489.17 Z" fill="#000000" fill-rule="evenodd" fill-opacity="1" /><path clip-path="url(#clip880)" d="M1046.91 1461.62 Q1043.3 1461.62 1041.47 1465.19 Q1039.66 1468.73 1039.66 1475.86 Q1039.66 1482.97 1041.47 1486.53 Q1043.3 1490.07 1046.91 1490.07 Q1050.54 1490.07 1052.35 1486.53 Q1054.18 1482.97 1054.18 1475.86 Q1054.18 1468.73 1052.35 1465.19 Q1050.54 1461.62 1046.91 1461.62 M1046.91 1457.92 Q1052.72 1457.92 1055.78 1462.53 Q1058.85 1467.11 1058.85 1475.86 Q1058.85 1484.59 1055.78 1489.19 Q1052.72 1493.78 1046.91 1493.78 Q1041.1 1493.78 1038.02 1489.19 Q1034.97 1484.59 1034.97 1475.86 Q1034.97 1467.11 1038.02 1462.53 Q1041.1 1457.92 1046.91 1457.92 Z" fill="#000000" fill-rule="evenodd" fill-opacity="1" /><path clip-path="url(#clip880)" d="M1068.56 1440.11 Q1065.62 1440.11 1064.14 1443.01 Q1062.67 1445.89 1062.67 1451.68 Q1062.67 1457.46 1064.14 1460.35 Q1065.62 1463.23 1068.56 1463.23 Q1071.51 1463.23 1072.98 1460.35 Q1074.46 1457.46 1074.46 1451.68 Q1074.46 1445.89 1072.98 1443.01 Q1071.51 1440.11 1068.56 1440.11 M1068.56 1437.11 Q1073.28 1437.11 1075.76 1440.85 Q1078.26 1444.57 1078.26 1451.68 Q1078.26 1458.77 1075.76 1462.51 Q1073.28 1466.24 1068.56 1466.24 Q1063.84 1466.24 1061.34 1462.51 Q1058.85 1458.77 1058.85 1451.68 Q1058.85 1444.57 1061.34 1440.85 Q1063.84 1437.11 1068.56 1437.11 Z" fill="#000000" fill-rule="evenodd" fill-opacity="1" /><path clip-path="url(#clip880)" d="M1445.63 1489.17 L1453.27 1489.17 L1453.27 1462.8 L1444.96 1464.47 L1444.96 1460.21 L1453.22 1458.54 L1457.9 1458.54 L1457.9 1489.17 L1465.54 1489.17 L1465.54 1493.1 L1445.63 1493.1 L1445.63 1489.17 Z" fill="#000000" fill-rule="evenodd" fill-opacity="1" /><path clip-path="url(#clip880)" d="M1484.98 1461.62 Q1481.37 1461.62 1479.54 1465.19 Q1477.74 1468.73 1477.74 1475.86 Q1477.74 1482.97 1479.54 1486.53 Q1481.37 1490.07 1484.98 1490.07 Q1488.62 1490.07 1490.42 1486.53 Q1492.25 1482.97 1492.25 1475.86 Q1492.25 1468.73 1490.42 1465.19 Q1488.62 1461.62 1484.98 1461.62 M1484.98 1457.92 Q1490.79 1457.92 1493.85 1462.53 Q1496.93 1467.11 1496.93 1475.86 Q1496.93 1484.59 1493.85 1489.19 Q1490.79 1493.78 1484.98 1493.78 Q1479.17 1493.78 1476.09 1489.19 Q1473.04 1484.59 1473.04 1475.86 Q1473.04 1467.11 1476.09 1462.53 Q1479.17 1457.92 1484.98 1457.92 Z" fill="#000000" fill-rule="evenodd" fill-opacity="1" /><path clip-path="url(#clip880)" d="M1497.47 1462.5 L1503.68 1462.5 L1503.68 1441.07 L1496.93 1442.43 L1496.93 1438.97 L1503.64 1437.61 L1507.44 1437.61 L1507.44 1462.5 L1513.65 1462.5 L1513.65 1465.69 L1497.47 1465.69 L1497.47 1462.5 Z" fill="#000000" fill-rule="evenodd" fill-opacity="1" /><path clip-path="url(#clip880)" d="M1881.8 1489.17 L1889.44 1489.17 L1889.44 1462.8 L1881.13 1464.47 L1881.13 1460.21 L1889.39 1458.54 L1894.07 1458.54 L1894.07 1489.17 L1901.71 1489.17 L1901.71 1493.1 L1881.8 1493.1 L1881.8 1489.17 Z" fill="#000000" fill-rule="evenodd" fill-opacity="1" /><path clip-path="url(#clip880)" d="M1921.15 1461.62 Q1917.54 1461.62 1915.71 1465.19 Q1913.91 1468.73 1913.91 1475.86 Q1913.91 1482.97 1915.71 1486.53 Q1917.54 1490.07 1921.15 1490.07 Q1924.79 1490.07 1926.59 1486.53 Q1928.42 1482.97 1928.42 1475.86 Q1928.42 1468.73 1926.59 1465.19 Q1924.79 1461.62 1921.15 1461.62 M1921.15 1457.92 Q1926.96 1457.92 1930.02 1462.53 Q1933.1 1467.11 1933.1 1475.86 Q1933.1 1484.59 1930.02 1489.19 Q1926.96 1493.78 1921.15 1493.78 Q1915.34 1493.78 1912.26 1489.19 Q1909.21 1484.59 1909.21 1475.86 Q1909.21 1467.11 1912.26 1462.53 Q1915.34 1457.92 1921.15 1457.92 Z" fill="#000000" fill-rule="evenodd" fill-opacity="1" /><path clip-path="url(#clip880)" d="M1937.67 1462.5 L1950.93 1462.5 L1950.93 1465.69 L1933.1 1465.69 L1933.1 1462.5 Q1935.26 1460.26 1938.98 1456.5 Q1942.73 1452.72 1943.69 1451.63 Q1945.51 1449.58 1946.23 1448.16 Q1946.96 1446.74 1946.96 1445.36 Q1946.96 1443.12 1945.38 1441.71 Q1943.82 1440.3 1941.3 1440.3 Q1939.51 1440.3 1937.52 1440.92 Q1935.54 1441.54 1933.29 1442.8 L1933.29 1438.97 Q1935.58 1438.05 1937.57 1437.58 Q1939.57 1437.11 1941.22 1437.11 Q1945.59 1437.11 1948.18 1439.29 Q1950.78 1441.47 1950.78 1445.12 Q1950.78 1446.85 1950.12 1448.41 Q1949.48 1449.95 1947.77 1452.06 Q1947.3 1452.6 1944.78 1455.22 Q1942.26 1457.81 1937.67 1462.5 Z" fill="#000000" fill-rule="evenodd" fill-opacity="1" /><path clip-path="url(#clip880)" d="M2318.2 1489.17 L2325.84 1489.17 L2325.84 1462.8 L2317.53 1464.47 L2317.53 1460.21 L2325.79 1458.54 L2330.47 1458.54 L2330.47 1489.17 L2338.11 1489.17 L2338.11 1493.1 L2318.2 1493.1 L2318.2 1489.17 Z" fill="#000000" fill-rule="evenodd" fill-opacity="1" /><path clip-path="url(#clip880)" d="M2357.55 1461.62 Q2353.94 1461.62 2352.11 1465.19 Q2350.31 1468.73 2350.31 1475.86 Q2350.31 1482.97 2352.11 1486.53 Q2353.94 1490.07 2357.55 1490.07 Q2361.19 1490.07 2362.99 1486.53 Q2364.82 1482.97 2364.82 1475.86 Q2364.82 1468.73 2362.99 1465.19 Q2361.19 1461.62 2357.55 1461.62 M2357.55 1457.92 Q2363.36 1457.92 2366.42 1462.53 Q2369.5 1467.11 2369.5 1475.86 Q2369.5 1484.59 2366.42 1489.19 Q2363.36 1493.78 2357.55 1493.78 Q2351.74 1493.78 2348.66 1489.19 Q2345.61 1484.59 2345.61 1475.86 Q2345.61 1467.11 2348.66 1462.53 Q2351.74 1457.92 2357.55 1457.92 Z" fill="#000000" fill-rule="evenodd" fill-opacity="1" /><path clip-path="url(#clip880)" d="M2382.19 1450.55 Q2384.92 1451.14 2386.44 1452.98 Q2387.98 1454.82 2387.98 1457.53 Q2387.98 1461.69 2385.12 1463.96 Q2382.27 1466.24 2377 1466.24 Q2375.23 1466.24 2373.35 1465.88 Q2371.49 1465.54 2369.5 1464.85 L2369.5 1461.18 Q2371.08 1462.1 2372.96 1462.57 Q2374.84 1463.04 2376.89 1463.04 Q2380.46 1463.04 2382.32 1461.63 Q2384.2 1460.22 2384.2 1457.53 Q2384.2 1455.05 2382.45 1453.66 Q2380.72 1452.25 2377.62 1452.25 L2374.35 1452.25 L2374.35 1449.12 L2377.77 1449.12 Q2380.57 1449.12 2382.06 1448.01 Q2383.54 1446.89 2383.54 1444.78 Q2383.54 1442.62 2382 1441.47 Q2380.48 1440.3 2377.62 1440.3 Q2376.06 1440.3 2374.27 1440.64 Q2372.49 1440.98 2370.34 1441.69 L2370.34 1438.31 Q2372.5 1437.71 2374.39 1437.41 Q2376.29 1437.11 2377.96 1437.11 Q2382.28 1437.11 2384.81 1439.08 Q2387.33 1441.04 2387.33 1444.38 Q2387.33 1446.72 2385.99 1448.33 Q2384.65 1449.93 2382.19 1450.55 Z" fill="#000000" fill-rule="evenodd" fill-opacity="1" /><path clip-path="url(#clip880)" d="M1133.19 1526.67 L1173.39 1526.67 L1173.39 1532.08 L1156.53 1532.08 L1156.53 1574.19 L1150.06 1574.19 L1150.06 1532.08 L1133.19 1532.08 L1133.19 1526.67 Z" fill="#000000" fill-rule="evenodd" fill-opacity="1" /><path clip-path="url(#clip880)" d="M1206.43 1585.01 L1206.43 1589.56 L1172.57 1589.56 L1172.57 1585.01 L1206.43 1585.01 Z" fill="#000000" fill-rule="evenodd" fill-opacity="1" /><path clip-path="url(#clip880)" d="M1212.96 1573.2 L1212.96 1567.34 Q1215.38 1568.49 1217.86 1569.09 Q1220.34 1569.7 1222.73 1569.7 Q1229.09 1569.7 1232.44 1565.43 Q1235.81 1561.14 1236.29 1552.41 Q1234.44 1555.15 1231.61 1556.62 Q1228.78 1558.08 1225.34 1558.08 Q1218.21 1558.08 1214.04 1553.78 Q1209.9 1549.45 1209.9 1541.97 Q1209.9 1534.65 1214.23 1530.23 Q1218.56 1525.81 1225.75 1525.81 Q1234 1525.81 1238.32 1532.14 Q1242.68 1538.44 1242.68 1550.47 Q1242.68 1561.71 1237.34 1568.42 Q1232.02 1575.11 1223.01 1575.11 Q1220.6 1575.11 1218.11 1574.63 Q1215.63 1574.15 1212.96 1573.2 M1225.75 1553.05 Q1230.08 1553.05 1232.6 1550.09 Q1235.14 1547.13 1235.14 1541.97 Q1235.14 1536.85 1232.6 1533.89 Q1230.08 1530.9 1225.75 1530.9 Q1221.42 1530.9 1218.88 1533.89 Q1216.36 1536.85 1216.36 1541.97 Q1216.36 1547.13 1218.88 1550.09 Q1221.42 1553.05 1225.75 1553.05 Z" fill="#000000" fill-rule="evenodd" fill-opacity="1" /><path clip-path="url(#clip880)" d="M1267.99 1530.9 Q1263.02 1530.9 1260.51 1535.8 Q1258.03 1540.67 1258.03 1550.47 Q1258.03 1560.24 1260.51 1565.15 Q1263.02 1570.02 1267.99 1570.02 Q1272.99 1570.02 1275.47 1565.15 Q1277.98 1560.24 1277.98 1550.47 Q1277.98 1540.67 1275.47 1535.8 Q1272.99 1530.9 1267.99 1530.9 M1267.99 1525.81 Q1275.98 1525.81 1280.18 1532.14 Q1284.41 1538.44 1284.41 1550.47 Q1284.41 1562.47 1280.18 1568.81 Q1275.98 1575.11 1267.99 1575.11 Q1260 1575.11 1255.77 1568.81 Q1251.57 1562.47 1251.57 1550.47 Q1251.57 1538.44 1255.77 1532.14 Q1260 1525.81 1267.99 1525.81 Z" fill="#000000" fill-rule="evenodd" fill-opacity="1" /><path clip-path="url(#clip880)" d="M1315.06 1524.66 L1328.56 1524.66 L1328.56 1529.21 L1320.92 1529.21 L1320.92 1578.23 L1328.56 1578.23 L1328.56 1582.78 L1315.06 1582.78 L1315.06 1524.66 Z" fill="#000000" fill-rule="evenodd" fill-opacity="1" /><path clip-path="url(#clip880)" d="M1363.76 1539.59 L1363.76 1545.13 Q1361.28 1543.85 1358.6 1543.22 Q1355.93 1542.58 1353.07 1542.58 Q1348.71 1542.58 1346.51 1543.92 Q1344.35 1545.25 1344.35 1547.93 Q1344.35 1549.96 1345.9 1551.14 Q1347.46 1552.29 1352.18 1553.34 L1354.18 1553.78 Q1360.42 1555.12 1363.03 1557.57 Q1365.67 1559.99 1365.67 1564.35 Q1365.67 1569.32 1361.72 1572.21 Q1357.81 1575.11 1350.93 1575.11 Q1348.07 1575.11 1344.95 1574.54 Q1341.86 1573.99 1338.43 1572.88 L1338.43 1566.83 Q1341.67 1568.52 1344.82 1569.38 Q1347.97 1570.21 1351.06 1570.21 Q1355.2 1570.21 1357.43 1568.81 Q1359.65 1567.37 1359.65 1564.8 Q1359.65 1562.41 1358.03 1561.14 Q1356.44 1559.86 1351 1558.68 L1348.96 1558.21 Q1343.52 1557.06 1341.1 1554.71 Q1338.68 1552.32 1338.68 1548.18 Q1338.68 1543.15 1342.24 1540.42 Q1345.81 1537.68 1352.37 1537.68 Q1355.61 1537.68 1358.48 1538.16 Q1361.34 1538.63 1363.76 1539.59 Z" fill="#000000" fill-rule="evenodd" fill-opacity="1" /><path clip-path="url(#clip880)" d="M1388.68 1524.66 L1388.68 1582.78 L1375.19 1582.78 L1375.19 1578.23 L1382.79 1578.23 L1382.79 1529.21 L1375.19 1529.21 L1375.19 1524.66 L1388.68 1524.66 Z" fill="#000000" fill-rule="evenodd" fill-opacity="1" /><polyline clip-path="url(#clip882)" style="stroke:#000000; stroke-linecap:butt; stroke-linejoin:round; stroke-width:2; stroke-opacity:0.1; fill:none" points="
  169.121,1372.3 2352.76,1372.3 
  "/>
<polyline clip-path="url(#clip882)" style="stroke:#000000; stroke-linecap:butt; stroke-linejoin:round; stroke-width:2; stroke-opacity:0.1; fill:none" points="
  169.121,1135.82 2352.76,1135.82 
  "/>
<polyline clip-path="url(#clip882)" style="stroke:#000000; stroke-linecap:butt; stroke-linejoin:round; stroke-width:2; stroke-opacity:0.1; fill:none" points="
  169.121,899.338 2352.76,899.338 
  "/>
<polyline clip-path="url(#clip882)" style="stroke:#000000; stroke-linecap:butt; stroke-linejoin:round; stroke-width:2; stroke-opacity:0.1; fill:none" points="
  169.121,662.855 2352.76,662.855 
  "/>
<polyline clip-path="url(#clip882)" style="stroke:#000000; stroke-linecap:butt; stroke-linejoin:round; stroke-width:2; stroke-opacity:0.1; fill:none" points="
  169.121,426.373 2352.76,426.373 
  "/>
<polyline clip-path="url(#clip882)" style="stroke:#000000; stroke-linecap:butt; stroke-linejoin:round; stroke-width:2; stroke-opacity:0.1; fill:none" points="
  169.121,189.89 2352.76,189.89 
  "/>
<polyline clip-path="url(#clip880)" style="stroke:#000000; stroke-linecap:butt; stroke-linejoin:round; stroke-width:4; stroke-opacity:1; fill:none" points="
  169.121,1410.9 169.121,47.2441 
  "/>
<polyline clip-path="url(#clip880)" style="stroke:#000000; stroke-linecap:butt; stroke-linejoin:round; stroke-width:4; stroke-opacity:1; fill:none" points="
  169.121,1372.3 188.019,1372.3 
  "/>
<polyline clip-path="url(#clip880)" style="stroke:#000000; stroke-linecap:butt; stroke-linejoin:round; stroke-width:4; stroke-opacity:1; fill:none" points="
  169.121,1135.82 188.019,1135.82 
  "/>
<polyline clip-path="url(#clip880)" style="stroke:#000000; stroke-linecap:butt; stroke-linejoin:round; stroke-width:4; stroke-opacity:1; fill:none" points="
  169.121,899.338 188.019,899.338 
  "/>
<polyline clip-path="url(#clip880)" style="stroke:#000000; stroke-linecap:butt; stroke-linejoin:round; stroke-width:4; stroke-opacity:1; fill:none" points="
  169.121,662.855 188.019,662.855 
  "/>
<polyline clip-path="url(#clip880)" style="stroke:#000000; stroke-linecap:butt; stroke-linejoin:round; stroke-width:4; stroke-opacity:1; fill:none" points="
  169.121,426.373 188.019,426.373 
  "/>
<polyline clip-path="url(#clip880)" style="stroke:#000000; stroke-linecap:butt; stroke-linejoin:round; stroke-width:4; stroke-opacity:1; fill:none" points="
  169.121,189.89 188.019,189.89 
  "/>
<path clip-path="url(#clip880)" d="M121.177 1358.1 Q117.566 1358.1 115.737 1361.67 Q113.932 1365.21 113.932 1372.34 Q113.932 1379.44 115.737 1383.01 Q117.566 1386.55 121.177 1386.55 Q124.811 1386.55 126.617 1383.01 Q128.445 1379.44 128.445 1372.34 Q128.445 1365.21 126.617 1361.67 Q124.811 1358.1 121.177 1358.1 M121.177 1354.4 Q126.987 1354.4 130.043 1359 Q133.121 1363.59 133.121 1372.34 Q133.121 1381.06 130.043 1385.67 Q126.987 1390.25 121.177 1390.25 Q115.367 1390.25 112.288 1385.67 Q109.233 1381.06 109.233 1372.34 Q109.233 1363.59 112.288 1359 Q115.367 1354.4 121.177 1354.4 Z" fill="#000000" fill-rule="evenodd" fill-opacity="1" /><path clip-path="url(#clip880)" d="M86.0382 1149.17 L102.358 1149.17 L102.358 1153.1 L80.4133 1153.1 L80.4133 1149.17 Q83.0753 1146.41 87.6586 1141.78 Q92.2651 1137.13 93.4456 1135.79 Q95.691 1133.26 96.5706 1131.53 Q97.4734 1129.77 97.4734 1128.08 Q97.4734 1125.32 95.5289 1123.59 Q93.6076 1121.85 90.5058 1121.85 Q88.3067 1121.85 85.8531 1122.61 Q83.4225 1123.38 80.6447 1124.93 L80.6447 1120.21 Q83.4688 1119.07 85.9225 1118.49 Q88.3762 1117.92 90.4132 1117.92 Q95.7836 1117.92 98.978 1120.6 Q102.172 1123.29 102.172 1127.78 Q102.172 1129.91 101.362 1131.83 Q100.575 1133.73 98.4687 1136.32 Q97.89 1136.99 94.7882 1140.21 Q91.6864 1143.4 86.0382 1149.17 Z" fill="#000000" fill-rule="evenodd" fill-opacity="1" /><path clip-path="url(#clip880)" d="M112.219 1118.54 L130.575 1118.54 L130.575 1122.48 L116.501 1122.48 L116.501 1130.95 Q117.52 1130.6 118.538 1130.44 Q119.557 1130.25 120.575 1130.25 Q126.362 1130.25 129.742 1133.42 Q133.121 1136.6 133.121 1142.01 Q133.121 1147.59 129.649 1150.69 Q126.177 1153.77 119.857 1153.77 Q117.682 1153.77 115.413 1153.4 Q113.168 1153.03 110.76 1152.29 L110.76 1147.59 Q112.844 1148.73 115.066 1149.28 Q117.288 1149.84 119.765 1149.84 Q123.77 1149.84 126.107 1147.73 Q128.445 1145.62 128.445 1142.01 Q128.445 1138.4 126.107 1136.29 Q123.77 1134.19 119.765 1134.19 Q117.89 1134.19 116.015 1134.6 Q114.163 1135.02 112.219 1135.9 L112.219 1118.54 Z" fill="#000000" fill-rule="evenodd" fill-opacity="1" /><path clip-path="url(#clip880)" d="M81.0614 882.058 L99.4178 882.058 L99.4178 885.993 L85.3438 885.993 L85.3438 894.465 Q86.3623 894.118 87.3808 893.956 Q88.3993 893.771 89.4178 893.771 Q95.2049 893.771 98.5845 896.942 Q101.964 900.113 101.964 905.53 Q101.964 911.109 98.4919 914.21 Q95.0197 917.289 88.7003 917.289 Q86.5243 917.289 84.2558 916.919 Q82.0105 916.548 79.6031 915.808 L79.6031 911.109 Q81.6864 912.243 83.9086 912.798 Q86.1308 913.354 88.6077 913.354 Q92.6123 913.354 94.9502 911.247 Q97.2882 909.141 97.2882 905.53 Q97.2882 901.919 94.9502 899.812 Q92.6123 897.706 88.6077 897.706 Q86.7327 897.706 84.8577 898.122 Q83.0058 898.539 81.0614 899.419 L81.0614 882.058 Z" fill="#000000" fill-rule="evenodd" fill-opacity="1" /><path clip-path="url(#clip880)" d="M121.177 885.136 Q117.566 885.136 115.737 888.701 Q113.932 892.243 113.932 899.372 Q113.932 906.479 115.737 910.044 Q117.566 913.585 121.177 913.585 Q124.811 913.585 126.617 910.044 Q128.445 906.479 128.445 899.372 Q128.445 892.243 126.617 888.701 Q124.811 885.136 121.177 885.136 M121.177 881.433 Q126.987 881.433 130.043 886.039 Q133.121 890.623 133.121 899.372 Q133.121 908.099 130.043 912.706 Q126.987 917.289 121.177 917.289 Q115.367 917.289 112.288 912.706 Q109.233 908.099 109.233 899.372 Q109.233 890.623 112.288 886.039 Q115.367 881.433 121.177 881.433 Z" fill="#000000" fill-rule="evenodd" fill-opacity="1" /><path clip-path="url(#clip880)" d="M80.8299 645.575 L103.052 645.575 L103.052 647.566 L90.5058 680.135 L85.6216 680.135 L97.4271 649.51 L80.8299 649.51 L80.8299 645.575 Z" fill="#000000" fill-rule="evenodd" fill-opacity="1" /><path clip-path="url(#clip880)" d="M112.219 645.575 L130.575 645.575 L130.575 649.51 L116.501 649.51 L116.501 657.983 Q117.52 657.635 118.538 657.473 Q119.557 657.288 120.575 657.288 Q126.362 657.288 129.742 660.459 Q133.121 663.631 133.121 669.047 Q133.121 674.626 129.649 677.728 Q126.177 680.807 119.857 680.807 Q117.682 680.807 115.413 680.436 Q113.168 680.066 110.76 679.325 L110.76 674.626 Q112.844 675.76 115.066 676.316 Q117.288 676.871 119.765 676.871 Q123.77 676.871 126.107 674.765 Q128.445 672.658 128.445 669.047 Q128.445 665.436 126.107 663.33 Q123.77 661.223 119.765 661.223 Q117.89 661.223 116.015 661.64 Q114.163 662.057 112.219 662.936 L112.219 645.575 Z" fill="#000000" fill-rule="evenodd" fill-opacity="1" /><path clip-path="url(#clip880)" d="M51.6634 439.718 L59.3023 439.718 L59.3023 413.352 L50.9921 415.019 L50.9921 410.759 L59.256 409.093 L63.9319 409.093 L63.9319 439.718 L71.5707 439.718 L71.5707 443.653 L51.6634 443.653 L51.6634 439.718 Z" fill="#000000" fill-rule="evenodd" fill-opacity="1" /><path clip-path="url(#clip880)" d="M91.0151 412.171 Q87.404 412.171 85.5753 415.736 Q83.7697 419.278 83.7697 426.408 Q83.7697 433.514 85.5753 437.079 Q87.404 440.62 91.0151 440.62 Q94.6493 440.62 96.4548 437.079 Q98.2835 433.514 98.2835 426.408 Q98.2835 419.278 96.4548 415.736 Q94.6493 412.171 91.0151 412.171 M91.0151 408.468 Q96.8252 408.468 99.8808 413.074 Q102.959 417.658 102.959 426.408 Q102.959 435.134 99.8808 439.741 Q96.8252 444.324 91.0151 444.324 Q85.2049 444.324 82.1262 439.741 Q79.0707 435.134 79.0707 426.408 Q79.0707 417.658 82.1262 413.074 Q85.2049 408.468 91.0151 408.468 Z" fill="#000000" fill-rule="evenodd" fill-opacity="1" /><path clip-path="url(#clip880)" d="M121.177 412.171 Q117.566 412.171 115.737 415.736 Q113.932 419.278 113.932 426.408 Q113.932 433.514 115.737 437.079 Q117.566 440.62 121.177 440.62 Q124.811 440.62 126.617 437.079 Q128.445 433.514 128.445 426.408 Q128.445 419.278 126.617 415.736 Q124.811 412.171 121.177 412.171 M121.177 408.468 Q126.987 408.468 130.043 413.074 Q133.121 417.658 133.121 426.408 Q133.121 435.134 130.043 439.741 Q126.987 444.324 121.177 444.324 Q115.367 444.324 112.288 439.741 Q109.233 435.134 109.233 426.408 Q109.233 417.658 112.288 413.074 Q115.367 408.468 121.177 408.468 Z" fill="#000000" fill-rule="evenodd" fill-opacity="1" /><path clip-path="url(#clip880)" d="M52.6588 203.235 L60.2976 203.235 L60.2976 176.87 L51.9875 178.536 L51.9875 174.277 L60.2513 172.61 L64.9272 172.61 L64.9272 203.235 L72.5661 203.235 L72.5661 207.17 L52.6588 207.17 L52.6588 203.235 Z" fill="#000000" fill-rule="evenodd" fill-opacity="1" /><path clip-path="url(#clip880)" d="M86.0382 203.235 L102.358 203.235 L102.358 207.17 L80.4133 207.17 L80.4133 203.235 Q83.0753 200.481 87.6586 195.851 Q92.2651 191.198 93.4456 189.856 Q95.691 187.332 96.5706 185.596 Q97.4734 183.837 97.4734 182.147 Q97.4734 179.393 95.5289 177.657 Q93.6076 175.92 90.5058 175.92 Q88.3067 175.92 85.8531 176.684 Q83.4225 177.448 80.6447 178.999 L80.6447 174.277 Q83.4688 173.143 85.9225 172.564 Q88.3762 171.985 90.4132 171.985 Q95.7836 171.985 98.978 174.67 Q102.172 177.356 102.172 181.846 Q102.172 183.976 101.362 185.897 Q100.575 187.795 98.4687 190.388 Q97.89 191.059 94.7882 194.277 Q91.6864 197.471 86.0382 203.235 Z" fill="#000000" fill-rule="evenodd" fill-opacity="1" /><path clip-path="url(#clip880)" d="M112.219 172.61 L130.575 172.61 L130.575 176.545 L116.501 176.545 L116.501 185.018 Q117.52 184.67 118.538 184.508 Q119.557 184.323 120.575 184.323 Q126.362 184.323 129.742 187.495 Q133.121 190.666 133.121 196.082 Q133.121 201.661 129.649 204.763 Q126.177 207.842 119.857 207.842 Q117.682 207.842 115.413 207.471 Q113.168 207.101 110.76 206.36 L110.76 201.661 Q112.844 202.795 115.066 203.351 Q117.288 203.906 119.765 203.906 Q123.77 203.906 126.107 201.8 Q128.445 199.694 128.445 196.082 Q128.445 192.471 126.107 190.365 Q123.77 188.258 119.765 188.258 Q117.89 188.258 116.015 188.675 Q114.163 189.092 112.219 189.971 L112.219 172.61 Z" fill="#000000" fill-rule="evenodd" fill-opacity="1" /><path clip-path="url(#clip882)" d="
M169.121 1372.3 L169.121 1372.3 L213.685 1372.3 L213.685 1372.3 L169.121 1372.3 L169.121 1372.3  Z
  " fill="#009af9" fill-rule="evenodd" fill-opacity="1"/>
<polyline clip-path="url(#clip882)" style="stroke:#000000; stroke-linecap:butt; stroke-linejoin:round; stroke-width:4; stroke-opacity:1; fill:none" points="
  169.121,1372.3 169.121,1372.3 213.685,1372.3 169.121,1372.3 
  "/>
<path clip-path="url(#clip882)" d="
M213.685 1372.3 L213.685 1372.3 L258.249 1372.3 L258.249 1372.3 L213.685 1372.3 L213.685 1372.3  Z
  " fill="#009af9" fill-rule="evenodd" fill-opacity="1"/>
<polyline clip-path="url(#clip882)" style="stroke:#000000; stroke-linecap:butt; stroke-linejoin:round; stroke-width:4; stroke-opacity:1; fill:none" points="
  213.685,1372.3 213.685,1372.3 258.249,1372.3 213.685,1372.3 
  "/>
<path clip-path="url(#clip882)" d="
M258.249 1372.3 L258.249 1372.3 L302.813 1372.3 L302.813 1372.3 L258.249 1372.3 L258.249 1372.3  Z
  " fill="#009af9" fill-rule="evenodd" fill-opacity="1"/>
<polyline clip-path="url(#clip882)" style="stroke:#000000; stroke-linecap:butt; stroke-linejoin:round; stroke-width:4; stroke-opacity:1; fill:none" points="
  258.249,1372.3 258.249,1372.3 302.813,1372.3 258.249,1372.3 
  "/>
<path clip-path="url(#clip882)" d="
M302.813 1362.84 L302.813 1372.3 L347.377 1372.3 L347.377 1362.84 L302.813 1362.84 L302.813 1362.84  Z
  " fill="#009af9" fill-rule="evenodd" fill-opacity="1"/>
<polyline clip-path="url(#clip882)" style="stroke:#000000; stroke-linecap:butt; stroke-linejoin:round; stroke-width:4; stroke-opacity:1; fill:none" points="
  302.813,1362.84 302.813,1372.3 347.377,1372.3 347.377,1362.84 302.813,1362.84 
  "/>
<path clip-path="url(#clip882)" d="
M347.377 1353.38 L347.377 1372.3 L391.941 1372.3 L391.941 1353.38 L347.377 1353.38 L347.377 1353.38  Z
  " fill="#009af9" fill-rule="evenodd" fill-opacity="1"/>
<polyline clip-path="url(#clip882)" style="stroke:#000000; stroke-linecap:butt; stroke-linejoin:round; stroke-width:4; stroke-opacity:1; fill:none" points="
  347.377,1353.38 347.377,1372.3 391.941,1372.3 391.941,1353.38 347.377,1353.38 
  "/>
<path clip-path="url(#clip882)" d="
M391.941 1334.47 L391.941 1372.3 L436.505 1372.3 L436.505 1334.47 L391.941 1334.47 L391.941 1334.47  Z
  " fill="#009af9" fill-rule="evenodd" fill-opacity="1"/>
<polyline clip-path="url(#clip882)" style="stroke:#000000; stroke-linecap:butt; stroke-linejoin:round; stroke-width:4; stroke-opacity:1; fill:none" points="
  391.941,1334.47 391.941,1372.3 436.505,1372.3 436.505,1334.47 391.941,1334.47 
  "/>
<path clip-path="url(#clip882)" d="
M436.505 1325.01 L436.505 1372.3 L481.069 1372.3 L481.069 1325.01 L436.505 1325.01 L436.505 1325.01  Z
  " fill="#009af9" fill-rule="evenodd" fill-opacity="1"/>
<polyline clip-path="url(#clip882)" style="stroke:#000000; stroke-linecap:butt; stroke-linejoin:round; stroke-width:4; stroke-opacity:1; fill:none" points="
  436.505,1325.01 436.505,1372.3 481.069,1372.3 481.069,1325.01 436.505,1325.01 
  "/>
<path clip-path="url(#clip882)" d="
M481.069 1249.33 L481.069 1372.3 L525.633 1372.3 L525.633 1249.33 L481.069 1249.33 L481.069 1249.33  Z
  " fill="#009af9" fill-rule="evenodd" fill-opacity="1"/>
<polyline clip-path="url(#clip882)" style="stroke:#000000; stroke-linecap:butt; stroke-linejoin:round; stroke-width:4; stroke-opacity:1; fill:none" points="
  481.069,1249.33 481.069,1372.3 525.633,1372.3 525.633,1249.33 481.069,1249.33 
  "/>
<path clip-path="url(#clip882)" d="
M525.633 1287.17 L525.633 1372.3 L570.197 1372.3 L570.197 1287.17 L525.633 1287.17 L525.633 1287.17  Z
  " fill="#009af9" fill-rule="evenodd" fill-opacity="1"/>
<polyline clip-path="url(#clip882)" style="stroke:#000000; stroke-linecap:butt; stroke-linejoin:round; stroke-width:4; stroke-opacity:1; fill:none" points="
  525.633,1287.17 525.633,1372.3 570.197,1372.3 570.197,1287.17 525.633,1287.17 
  "/>
<path clip-path="url(#clip882)" d="
M570.197 1239.87 L570.197 1372.3 L614.761 1372.3 L614.761 1239.87 L570.197 1239.87 L570.197 1239.87  Z
  " fill="#009af9" fill-rule="evenodd" fill-opacity="1"/>
<polyline clip-path="url(#clip882)" style="stroke:#000000; stroke-linecap:butt; stroke-linejoin:round; stroke-width:4; stroke-opacity:1; fill:none" points="
  570.197,1239.87 570.197,1372.3 614.761,1372.3 614.761,1239.87 570.197,1239.87 
  "/>
<path clip-path="url(#clip882)" d="
M614.761 1135.82 L614.761 1372.3 L659.325 1372.3 L659.325 1135.82 L614.761 1135.82 L614.761 1135.82  Z
  " fill="#009af9" fill-rule="evenodd" fill-opacity="1"/>
<polyline clip-path="url(#clip882)" style="stroke:#000000; stroke-linecap:butt; stroke-linejoin:round; stroke-width:4; stroke-opacity:1; fill:none" points="
  614.761,1135.82 614.761,1372.3 659.325,1372.3 659.325,1135.82 614.761,1135.82 
  "/>
<path clip-path="url(#clip882)" d="
M659.325 1258.79 L659.325 1372.3 L703.889 1372.3 L703.889 1258.79 L659.325 1258.79 L659.325 1258.79  Z
  " fill="#009af9" fill-rule="evenodd" fill-opacity="1"/>
<polyline clip-path="url(#clip882)" style="stroke:#000000; stroke-linecap:butt; stroke-linejoin:round; stroke-width:4; stroke-opacity:1; fill:none" points="
  659.325,1258.79 659.325,1372.3 703.889,1372.3 703.889,1258.79 659.325,1258.79 
  "/>
<path clip-path="url(#clip882)" d="
M703.889 984.471 L703.889 1372.3 L748.453 1372.3 L748.453 984.471 L703.889 984.471 L703.889 984.471  Z
  " fill="#009af9" fill-rule="evenodd" fill-opacity="1"/>
<polyline clip-path="url(#clip882)" style="stroke:#000000; stroke-linecap:butt; stroke-linejoin:round; stroke-width:4; stroke-opacity:1; fill:none" points="
  703.889,984.471 703.889,1372.3 748.453,1372.3 748.453,984.471 703.889,984.471 
  "/>
<path clip-path="url(#clip882)" d="
M748.453 1041.23 L748.453 1372.3 L793.017 1372.3 L793.017 1041.23 L748.453 1041.23 L748.453 1041.23  Z
  " fill="#009af9" fill-rule="evenodd" fill-opacity="1"/>
<polyline clip-path="url(#clip882)" style="stroke:#000000; stroke-linecap:butt; stroke-linejoin:round; stroke-width:4; stroke-opacity:1; fill:none" points="
  748.453,1041.23 748.453,1372.3 793.017,1372.3 793.017,1041.23 748.453,1041.23 
  "/>
<path clip-path="url(#clip882)" d="
M793.017 1135.82 L793.017 1372.3 L837.581 1372.3 L837.581 1135.82 L793.017 1135.82 L793.017 1135.82  Z
  " fill="#009af9" fill-rule="evenodd" fill-opacity="1"/>
<polyline clip-path="url(#clip882)" style="stroke:#000000; stroke-linecap:butt; stroke-linejoin:round; stroke-width:4; stroke-opacity:1; fill:none" points="
  793.017,1135.82 793.017,1372.3 837.581,1372.3 837.581,1135.82 793.017,1135.82 
  "/>
<path clip-path="url(#clip882)" d="
M837.581 1012.85 L837.581 1372.3 L882.145 1372.3 L882.145 1012.85 L837.581 1012.85 L837.581 1012.85  Z
  " fill="#009af9" fill-rule="evenodd" fill-opacity="1"/>
<polyline clip-path="url(#clip882)" style="stroke:#000000; stroke-linecap:butt; stroke-linejoin:round; stroke-width:4; stroke-opacity:1; fill:none" points="
  837.581,1012.85 837.581,1372.3 882.145,1372.3 882.145,1012.85 837.581,1012.85 
  "/>
<path clip-path="url(#clip882)" d="
M882.145 965.553 L882.145 1372.3 L926.709 1372.3 L926.709 965.553 L882.145 965.553 L882.145 965.553  Z
  " fill="#009af9" fill-rule="evenodd" fill-opacity="1"/>
<polyline clip-path="url(#clip882)" style="stroke:#000000; stroke-linecap:butt; stroke-linejoin:round; stroke-width:4; stroke-opacity:1; fill:none" points="
  882.145,965.553 882.145,1372.3 926.709,1372.3 926.709,965.553 882.145,965.553 
  "/>
<path clip-path="url(#clip882)" d="
M926.709 1012.85 L926.709 1372.3 L971.273 1372.3 L971.273 1012.85 L926.709 1012.85 L926.709 1012.85  Z
  " fill="#009af9" fill-rule="evenodd" fill-opacity="1"/>
<polyline clip-path="url(#clip882)" style="stroke:#000000; stroke-linecap:butt; stroke-linejoin:round; stroke-width:4; stroke-opacity:1; fill:none" points="
  926.709,1012.85 926.709,1372.3 971.273,1372.3 971.273,1012.85 926.709,1012.85 
  "/>
<path clip-path="url(#clip882)" d="
M971.273 1041.23 L971.273 1372.3 L1015.84 1372.3 L1015.84 1041.23 L971.273 1041.23 L971.273 1041.23  Z
  " fill="#009af9" fill-rule="evenodd" fill-opacity="1"/>
<polyline clip-path="url(#clip882)" style="stroke:#000000; stroke-linecap:butt; stroke-linejoin:round; stroke-width:4; stroke-opacity:1; fill:none" points="
  971.273,1041.23 971.273,1372.3 1015.84,1372.3 1015.84,1041.23 971.273,1041.23 
  "/>
<path clip-path="url(#clip882)" d="
M1015.84 889.878 L1015.84 1372.3 L1060.4 1372.3 L1060.4 889.878 L1015.84 889.878 L1015.84 889.878  Z
  " fill="#009af9" fill-rule="evenodd" fill-opacity="1"/>
<polyline clip-path="url(#clip882)" style="stroke:#000000; stroke-linecap:butt; stroke-linejoin:round; stroke-width:4; stroke-opacity:1; fill:none" points="
  1015.84,889.878 1015.84,1372.3 1060.4,1372.3 1060.4,889.878 1015.84,889.878 
  "/>
<path clip-path="url(#clip882)" d="
M1060.4 1116.9 L1060.4 1372.3 L1104.96 1372.3 L1104.96 1116.9 L1060.4 1116.9 L1060.4 1116.9  Z
  " fill="#009af9" fill-rule="evenodd" fill-opacity="1"/>
<polyline clip-path="url(#clip882)" style="stroke:#000000; stroke-linecap:butt; stroke-linejoin:round; stroke-width:4; stroke-opacity:1; fill:none" points="
  1060.4,1116.9 1060.4,1372.3 1104.96,1372.3 1104.96,1116.9 1060.4,1116.9 
  "/>
<path clip-path="url(#clip882)" d="
M1104.96 1041.23 L1104.96 1372.3 L1149.53 1372.3 L1149.53 1041.23 L1104.96 1041.23 L1104.96 1041.23  Z
  " fill="#009af9" fill-rule="evenodd" fill-opacity="1"/>
<polyline clip-path="url(#clip882)" style="stroke:#000000; stroke-linecap:butt; stroke-linejoin:round; stroke-width:4; stroke-opacity:1; fill:none" points="
  1104.96,1041.23 1104.96,1372.3 1149.53,1372.3 1149.53,1041.23 1104.96,1041.23 
  "/>
<path clip-path="url(#clip882)" d="
M1149.53 1069.61 L1149.53 1372.3 L1194.09 1372.3 L1194.09 1069.61 L1149.53 1069.61 L1149.53 1069.61  Z
  " fill="#009af9" fill-rule="evenodd" fill-opacity="1"/>
<polyline clip-path="url(#clip882)" style="stroke:#000000; stroke-linecap:butt; stroke-linejoin:round; stroke-width:4; stroke-opacity:1; fill:none" points="
  1149.53,1069.61 1149.53,1372.3 1194.09,1372.3 1194.09,1069.61 1149.53,1069.61 
  "/>
<path clip-path="url(#clip882)" d="
M1194.09 993.931 L1194.09 1372.3 L1238.66 1372.3 L1238.66 993.931 L1194.09 993.931 L1194.09 993.931  Z
  " fill="#009af9" fill-rule="evenodd" fill-opacity="1"/>
<polyline clip-path="url(#clip882)" style="stroke:#000000; stroke-linecap:butt; stroke-linejoin:round; stroke-width:4; stroke-opacity:1; fill:none" points="
  1194.09,993.931 1194.09,1372.3 1238.66,1372.3 1238.66,993.931 1194.09,993.931 
  "/>
<path clip-path="url(#clip882)" d="
M1238.66 975.012 L1238.66 1372.3 L1283.22 1372.3 L1283.22 975.012 L1238.66 975.012 L1238.66 975.012  Z
  " fill="#009af9" fill-rule="evenodd" fill-opacity="1"/>
<polyline clip-path="url(#clip882)" style="stroke:#000000; stroke-linecap:butt; stroke-linejoin:round; stroke-width:4; stroke-opacity:1; fill:none" points="
  1238.66,975.012 1238.66,1372.3 1283.22,1372.3 1283.22,975.012 1238.66,975.012 
  "/>
<path clip-path="url(#clip882)" d="
M1283.22 1022.31 L1283.22 1372.3 L1327.78 1372.3 L1327.78 1022.31 L1283.22 1022.31 L1283.22 1022.31  Z
  " fill="#009af9" fill-rule="evenodd" fill-opacity="1"/>
<polyline clip-path="url(#clip882)" style="stroke:#000000; stroke-linecap:butt; stroke-linejoin:round; stroke-width:4; stroke-opacity:1; fill:none" points="
  1283.22,1022.31 1283.22,1372.3 1327.78,1372.3 1327.78,1022.31 1283.22,1022.31 
  "/>
<path clip-path="url(#clip882)" d="
M1327.78 965.553 L1327.78 1372.3 L1372.35 1372.3 L1372.35 965.553 L1327.78 965.553 L1327.78 965.553  Z
  " fill="#009af9" fill-rule="evenodd" fill-opacity="1"/>
<polyline clip-path="url(#clip882)" style="stroke:#000000; stroke-linecap:butt; stroke-linejoin:round; stroke-width:4; stroke-opacity:1; fill:none" points="
  1327.78,965.553 1327.78,1372.3 1372.35,1372.3 1372.35,965.553 1327.78,965.553 
  "/>
<path clip-path="url(#clip882)" d="
M1372.35 889.878 L1372.35 1372.3 L1416.91 1372.3 L1416.91 889.878 L1372.35 889.878 L1372.35 889.878  Z
  " fill="#009af9" fill-rule="evenodd" fill-opacity="1"/>
<polyline clip-path="url(#clip882)" style="stroke:#000000; stroke-linecap:butt; stroke-linejoin:round; stroke-width:4; stroke-opacity:1; fill:none" points="
  1372.35,889.878 1372.35,1372.3 1416.91,1372.3 1416.91,889.878 1372.35,889.878 
  "/>
<path clip-path="url(#clip882)" d="
M1416.91 937.175 L1416.91 1372.3 L1461.48 1372.3 L1461.48 937.175 L1416.91 937.175 L1416.91 937.175  Z
  " fill="#009af9" fill-rule="evenodd" fill-opacity="1"/>
<polyline clip-path="url(#clip882)" style="stroke:#000000; stroke-linecap:butt; stroke-linejoin:round; stroke-width:4; stroke-opacity:1; fill:none" points="
  1416.91,937.175 1416.91,1372.3 1461.48,1372.3 1461.48,937.175 1416.91,937.175 
  "/>
<path clip-path="url(#clip882)" d="
M1461.48 757.448 L1461.48 1372.3 L1506.04 1372.3 L1506.04 757.448 L1461.48 757.448 L1461.48 757.448  Z
  " fill="#009af9" fill-rule="evenodd" fill-opacity="1"/>
<polyline clip-path="url(#clip882)" style="stroke:#000000; stroke-linecap:butt; stroke-linejoin:round; stroke-width:4; stroke-opacity:1; fill:none" points="
  1461.48,757.448 1461.48,1372.3 1506.04,1372.3 1506.04,757.448 1461.48,757.448 
  "/>
<path clip-path="url(#clip882)" d="
M1506.04 653.396 L1506.04 1372.3 L1550.6 1372.3 L1550.6 653.396 L1506.04 653.396 L1506.04 653.396  Z
  " fill="#009af9" fill-rule="evenodd" fill-opacity="1"/>
<polyline clip-path="url(#clip882)" style="stroke:#000000; stroke-linecap:butt; stroke-linejoin:round; stroke-width:4; stroke-opacity:1; fill:none" points="
  1506.04,653.396 1506.04,1372.3 1550.6,1372.3 1550.6,653.396 1506.04,653.396 
  "/>
<path clip-path="url(#clip882)" d="
M1550.6 454.751 L1550.6 1372.3 L1595.17 1372.3 L1595.17 454.751 L1550.6 454.751 L1550.6 454.751  Z
  " fill="#009af9" fill-rule="evenodd" fill-opacity="1"/>
<polyline clip-path="url(#clip882)" style="stroke:#000000; stroke-linecap:butt; stroke-linejoin:round; stroke-width:4; stroke-opacity:1; fill:none" points="
  1550.6,454.751 1550.6,1372.3 1595.17,1372.3 1595.17,454.751 1550.6,454.751 
  "/>
<path clip-path="url(#clip882)" d="
M1595.17 246.646 L1595.17 1372.3 L1639.73 1372.3 L1639.73 246.646 L1595.17 246.646 L1595.17 246.646  Z
  " fill="#009af9" fill-rule="evenodd" fill-opacity="1"/>
<polyline clip-path="url(#clip882)" style="stroke:#000000; stroke-linecap:butt; stroke-linejoin:round; stroke-width:4; stroke-opacity:1; fill:none" points="
  1595.17,246.646 1595.17,1372.3 1639.73,1372.3 1639.73,246.646 1595.17,246.646 
  "/>
<path clip-path="url(#clip882)" d="
M1639.73 407.454 L1639.73 1372.3 L1684.3 1372.3 L1684.3 407.454 L1639.73 407.454 L1639.73 407.454  Z
  " fill="#009af9" fill-rule="evenodd" fill-opacity="1"/>
<polyline clip-path="url(#clip882)" style="stroke:#000000; stroke-linecap:butt; stroke-linejoin:round; stroke-width:4; stroke-opacity:1; fill:none" points="
  1639.73,407.454 1639.73,1372.3 1684.3,1372.3 1684.3,407.454 1639.73,407.454 
  "/>
<path clip-path="url(#clip882)" d="
M1684.3 85.838 L1684.3 1372.3 L1728.86 1372.3 L1728.86 85.838 L1684.3 85.838 L1684.3 85.838  Z
  " fill="#009af9" fill-rule="evenodd" fill-opacity="1"/>
<polyline clip-path="url(#clip882)" style="stroke:#000000; stroke-linecap:butt; stroke-linejoin:round; stroke-width:4; stroke-opacity:1; fill:none" points="
  1684.3,85.838 1684.3,1372.3 1728.86,1372.3 1728.86,85.838 1684.3,85.838 
  "/>
<path clip-path="url(#clip882)" d="
M1728.86 312.861 L1728.86 1372.3 L1773.42 1372.3 L1773.42 312.861 L1728.86 312.861 L1728.86 312.861  Z
  " fill="#009af9" fill-rule="evenodd" fill-opacity="1"/>
<polyline clip-path="url(#clip882)" style="stroke:#000000; stroke-linecap:butt; stroke-linejoin:round; stroke-width:4; stroke-opacity:1; fill:none" points="
  1728.86,312.861 1728.86,1372.3 1773.42,1372.3 1773.42,312.861 1728.86,312.861 
  "/>
<path clip-path="url(#clip882)" d="
M1773.42 161.512 L1773.42 1372.3 L1817.99 1372.3 L1817.99 161.512 L1773.42 161.512 L1773.42 161.512  Z
  " fill="#009af9" fill-rule="evenodd" fill-opacity="1"/>
<polyline clip-path="url(#clip882)" style="stroke:#000000; stroke-linecap:butt; stroke-linejoin:round; stroke-width:4; stroke-opacity:1; fill:none" points="
  1773.42,161.512 1773.42,1372.3 1817.99,1372.3 1817.99,161.512 1773.42,161.512 
  "/>
<path clip-path="url(#clip882)" d="
M1817.99 293.943 L1817.99 1372.3 L1862.55 1372.3 L1862.55 293.943 L1817.99 293.943 L1817.99 293.943  Z
  " fill="#009af9" fill-rule="evenodd" fill-opacity="1"/>
<polyline clip-path="url(#clip882)" style="stroke:#000000; stroke-linecap:butt; stroke-linejoin:round; stroke-width:4; stroke-opacity:1; fill:none" points="
  1817.99,293.943 1817.99,1372.3 1862.55,1372.3 1862.55,293.943 1817.99,293.943 
  "/>
<path clip-path="url(#clip882)" d="
M1862.55 577.722 L1862.55 1372.3 L1907.12 1372.3 L1907.12 577.722 L1862.55 577.722 L1862.55 577.722  Z
  " fill="#009af9" fill-rule="evenodd" fill-opacity="1"/>
<polyline clip-path="url(#clip882)" style="stroke:#000000; stroke-linecap:butt; stroke-linejoin:round; stroke-width:4; stroke-opacity:1; fill:none" points="
  1862.55,577.722 1862.55,1372.3 1907.12,1372.3 1907.12,577.722 1862.55,577.722 
  "/>
<path clip-path="url(#clip882)" d="
M1907.12 747.989 L1907.12 1372.3 L1951.68 1372.3 L1951.68 747.989 L1907.12 747.989 L1907.12 747.989  Z
  " fill="#009af9" fill-rule="evenodd" fill-opacity="1"/>
<polyline clip-path="url(#clip882)" style="stroke:#000000; stroke-linecap:butt; stroke-linejoin:round; stroke-width:4; stroke-opacity:1; fill:none" points="
  1907.12,747.989 1907.12,1372.3 1951.68,1372.3 1951.68,747.989 1907.12,747.989 
  "/>
<path clip-path="url(#clip882)" d="
M1951.68 918.256 L1951.68 1372.3 L1996.24 1372.3 L1996.24 918.256 L1951.68 918.256 L1951.68 918.256  Z
  " fill="#009af9" fill-rule="evenodd" fill-opacity="1"/>
<polyline clip-path="url(#clip882)" style="stroke:#000000; stroke-linecap:butt; stroke-linejoin:round; stroke-width:4; stroke-opacity:1; fill:none" points="
  1951.68,918.256 1951.68,1372.3 1996.24,1372.3 1996.24,918.256 1951.68,918.256 
  "/>
<path clip-path="url(#clip882)" d="
M1996.24 1097.98 L1996.24 1372.3 L2040.81 1372.3 L2040.81 1097.98 L1996.24 1097.98 L1996.24 1097.98  Z
  " fill="#009af9" fill-rule="evenodd" fill-opacity="1"/>
<polyline clip-path="url(#clip882)" style="stroke:#000000; stroke-linecap:butt; stroke-linejoin:round; stroke-width:4; stroke-opacity:1; fill:none" points="
  1996.24,1097.98 1996.24,1372.3 2040.81,1372.3 2040.81,1097.98 1996.24,1097.98 
  "/>
<path clip-path="url(#clip882)" d="
M2040.81 1173.66 L2040.81 1372.3 L2085.37 1372.3 L2085.37 1173.66 L2040.81 1173.66 L2040.81 1173.66  Z
  " fill="#009af9" fill-rule="evenodd" fill-opacity="1"/>
<polyline clip-path="url(#clip882)" style="stroke:#000000; stroke-linecap:butt; stroke-linejoin:round; stroke-width:4; stroke-opacity:1; fill:none" points="
  2040.81,1173.66 2040.81,1372.3 2085.37,1372.3 2085.37,1173.66 2040.81,1173.66 
  "/>
<path clip-path="url(#clip882)" d="
M2085.37 1239.87 L2085.37 1372.3 L2129.94 1372.3 L2129.94 1239.87 L2085.37 1239.87 L2085.37 1239.87  Z
  " fill="#009af9" fill-rule="evenodd" fill-opacity="1"/>
<polyline clip-path="url(#clip882)" style="stroke:#000000; stroke-linecap:butt; stroke-linejoin:round; stroke-width:4; stroke-opacity:1; fill:none" points="
  2085.37,1239.87 2085.37,1372.3 2129.94,1372.3 2129.94,1239.87 2085.37,1239.87 
  "/>
<path clip-path="url(#clip882)" d="
M2129.94 1287.17 L2129.94 1372.3 L2174.5 1372.3 L2174.5 1287.17 L2129.94 1287.17 L2129.94 1287.17  Z
  " fill="#009af9" fill-rule="evenodd" fill-opacity="1"/>
<polyline clip-path="url(#clip882)" style="stroke:#000000; stroke-linecap:butt; stroke-linejoin:round; stroke-width:4; stroke-opacity:1; fill:none" points="
  2129.94,1287.17 2129.94,1372.3 2174.5,1372.3 2174.5,1287.17 2129.94,1287.17 
  "/>
<path clip-path="url(#clip882)" d="
M2174.5 1315.55 L2174.5 1372.3 L2219.06 1372.3 L2219.06 1315.55 L2174.5 1315.55 L2174.5 1315.55  Z
  " fill="#009af9" fill-rule="evenodd" fill-opacity="1"/>
<polyline clip-path="url(#clip882)" style="stroke:#000000; stroke-linecap:butt; stroke-linejoin:round; stroke-width:4; stroke-opacity:1; fill:none" points="
  2174.5,1315.55 2174.5,1372.3 2219.06,1372.3 2219.06,1315.55 2174.5,1315.55 
  "/>
<path clip-path="url(#clip882)" d="
M2219.06 1353.38 L2219.06 1372.3 L2263.63 1372.3 L2263.63 1353.38 L2219.06 1353.38 L2219.06 1353.38  Z
  " fill="#009af9" fill-rule="evenodd" fill-opacity="1"/>
<polyline clip-path="url(#clip882)" style="stroke:#000000; stroke-linecap:butt; stroke-linejoin:round; stroke-width:4; stroke-opacity:1; fill:none" points="
  2219.06,1353.38 2219.06,1372.3 2263.63,1372.3 2263.63,1353.38 2219.06,1353.38 
  "/>
<path clip-path="url(#clip882)" d="
M2263.63 1362.84 L2263.63 1372.3 L2308.19 1372.3 L2308.19 1362.84 L2263.63 1362.84 L2263.63 1362.84  Z
  " fill="#009af9" fill-rule="evenodd" fill-opacity="1"/>
<polyline clip-path="url(#clip882)" style="stroke:#000000; stroke-linecap:butt; stroke-linejoin:round; stroke-width:4; stroke-opacity:1; fill:none" points="
  2263.63,1362.84 2263.63,1372.3 2308.19,1372.3 2308.19,1362.84 2263.63,1362.84 
  "/>
<path clip-path="url(#clip882)" d="
M2308.19 1372.3 L2308.19 1372.3 L2352.76 1372.3 L2352.76 1372.3 L2308.19 1372.3 L2308.19 1372.3  Z
  " fill="#009af9" fill-rule="evenodd" fill-opacity="1"/>
<polyline clip-path="url(#clip882)" style="stroke:#000000; stroke-linecap:butt; stroke-linejoin:round; stroke-width:4; stroke-opacity:1; fill:none" points="
  2308.19,1372.3 2308.19,1372.3 2352.76,1372.3 2308.19,1372.3 
  "/>
<circle clip-path="url(#clip882)" style="fill:#009af9; stroke:none; fill-opacity:0" cx="192.709" cy="1372.3" r="2"/>
<circle clip-path="url(#clip882)" style="fill:#009af9; stroke:none; fill-opacity:0" cx="237.273" cy="1372.3" r="2"/>
<circle clip-path="url(#clip882)" style="fill:#009af9; stroke:none; fill-opacity:0" cx="281.837" cy="1372.3" r="2"/>
<circle clip-path="url(#clip882)" style="fill:#009af9; stroke:none; fill-opacity:0" cx="326.401" cy="1362.84" r="2"/>
<circle clip-path="url(#clip882)" style="fill:#009af9; stroke:none; fill-opacity:0" cx="370.965" cy="1353.38" r="2"/>
<circle clip-path="url(#clip882)" style="fill:#009af9; stroke:none; fill-opacity:0" cx="415.529" cy="1334.47" r="2"/>
<circle clip-path="url(#clip882)" style="fill:#009af9; stroke:none; fill-opacity:0" cx="460.093" cy="1325.01" r="2"/>
<circle clip-path="url(#clip882)" style="fill:#009af9; stroke:none; fill-opacity:0" cx="504.657" cy="1249.33" r="2"/>
<circle clip-path="url(#clip882)" style="fill:#009af9; stroke:none; fill-opacity:0" cx="549.221" cy="1287.17" r="2"/>
<circle clip-path="url(#clip882)" style="fill:#009af9; stroke:none; fill-opacity:0" cx="593.785" cy="1239.87" r="2"/>
<circle clip-path="url(#clip882)" style="fill:#009af9; stroke:none; fill-opacity:0" cx="638.349" cy="1135.82" r="2"/>
<circle clip-path="url(#clip882)" style="fill:#009af9; stroke:none; fill-opacity:0" cx="682.913" cy="1258.79" r="2"/>
<circle clip-path="url(#clip882)" style="fill:#009af9; stroke:none; fill-opacity:0" cx="727.477" cy="984.471" r="2"/>
<circle clip-path="url(#clip882)" style="fill:#009af9; stroke:none; fill-opacity:0" cx="772.041" cy="1041.23" r="2"/>
<circle clip-path="url(#clip882)" style="fill:#009af9; stroke:none; fill-opacity:0" cx="816.605" cy="1135.82" r="2"/>
<circle clip-path="url(#clip882)" style="fill:#009af9; stroke:none; fill-opacity:0" cx="861.169" cy="1012.85" r="2"/>
<circle clip-path="url(#clip882)" style="fill:#009af9; stroke:none; fill-opacity:0" cx="905.733" cy="965.553" r="2"/>
<circle clip-path="url(#clip882)" style="fill:#009af9; stroke:none; fill-opacity:0" cx="950.297" cy="1012.85" r="2"/>
<circle clip-path="url(#clip882)" style="fill:#009af9; stroke:none; fill-opacity:0" cx="994.861" cy="1041.23" r="2"/>
<circle clip-path="url(#clip882)" style="fill:#009af9; stroke:none; fill-opacity:0" cx="1039.42" cy="889.878" r="2"/>
<circle clip-path="url(#clip882)" style="fill:#009af9; stroke:none; fill-opacity:0" cx="1083.99" cy="1116.9" r="2"/>
<circle clip-path="url(#clip882)" style="fill:#009af9; stroke:none; fill-opacity:0" cx="1128.55" cy="1041.23" r="2"/>
<circle clip-path="url(#clip882)" style="fill:#009af9; stroke:none; fill-opacity:0" cx="1173.12" cy="1069.61" r="2"/>
<circle clip-path="url(#clip882)" style="fill:#009af9; stroke:none; fill-opacity:0" cx="1217.68" cy="993.931" r="2"/>
<circle clip-path="url(#clip882)" style="fill:#009af9; stroke:none; fill-opacity:0" cx="1262.24" cy="975.012" r="2"/>
<circle clip-path="url(#clip882)" style="fill:#009af9; stroke:none; fill-opacity:0" cx="1306.81" cy="1022.31" r="2"/>
<circle clip-path="url(#clip882)" style="fill:#009af9; stroke:none; fill-opacity:0" cx="1351.37" cy="965.553" r="2"/>
<circle clip-path="url(#clip882)" style="fill:#009af9; stroke:none; fill-opacity:0" cx="1395.94" cy="889.878" r="2"/>
<circle clip-path="url(#clip882)" style="fill:#009af9; stroke:none; fill-opacity:0" cx="1440.5" cy="937.175" r="2"/>
<circle clip-path="url(#clip882)" style="fill:#009af9; stroke:none; fill-opacity:0" cx="1485.06" cy="757.448" r="2"/>
<circle clip-path="url(#clip882)" style="fill:#009af9; stroke:none; fill-opacity:0" cx="1529.63" cy="653.396" r="2"/>
<circle clip-path="url(#clip882)" style="fill:#009af9; stroke:none; fill-opacity:0" cx="1574.19" cy="454.751" r="2"/>
<circle clip-path="url(#clip882)" style="fill:#009af9; stroke:none; fill-opacity:0" cx="1618.76" cy="246.646" r="2"/>
<circle clip-path="url(#clip882)" style="fill:#009af9; stroke:none; fill-opacity:0" cx="1663.32" cy="407.454" r="2"/>
<circle clip-path="url(#clip882)" style="fill:#009af9; stroke:none; fill-opacity:0" cx="1707.88" cy="85.838" r="2"/>
<circle clip-path="url(#clip882)" style="fill:#009af9; stroke:none; fill-opacity:0" cx="1752.45" cy="312.861" r="2"/>
<circle clip-path="url(#clip882)" style="fill:#009af9; stroke:none; fill-opacity:0" cx="1797.01" cy="161.512" r="2"/>
<circle clip-path="url(#clip882)" style="fill:#009af9; stroke:none; fill-opacity:0" cx="1841.58" cy="293.943" r="2"/>
<circle clip-path="url(#clip882)" style="fill:#009af9; stroke:none; fill-opacity:0" cx="1886.14" cy="577.722" r="2"/>
<circle clip-path="url(#clip882)" style="fill:#009af9; stroke:none; fill-opacity:0" cx="1930.7" cy="747.989" r="2"/>
<circle clip-path="url(#clip882)" style="fill:#009af9; stroke:none; fill-opacity:0" cx="1975.27" cy="918.256" r="2"/>
<circle clip-path="url(#clip882)" style="fill:#009af9; stroke:none; fill-opacity:0" cx="2019.83" cy="1097.98" r="2"/>
<circle clip-path="url(#clip882)" style="fill:#009af9; stroke:none; fill-opacity:0" cx="2064.4" cy="1173.66" r="2"/>
<circle clip-path="url(#clip882)" style="fill:#009af9; stroke:none; fill-opacity:0" cx="2108.96" cy="1239.87" r="2"/>
<circle clip-path="url(#clip882)" style="fill:#009af9; stroke:none; fill-opacity:0" cx="2153.52" cy="1287.17" r="2"/>
<circle clip-path="url(#clip882)" style="fill:#009af9; stroke:none; fill-opacity:0" cx="2198.09" cy="1315.55" r="2"/>
<circle clip-path="url(#clip882)" style="fill:#009af9; stroke:none; fill-opacity:0" cx="2242.65" cy="1353.38" r="2"/>
<circle clip-path="url(#clip882)" style="fill:#009af9; stroke:none; fill-opacity:0" cx="2287.22" cy="1362.84" r="2"/>
<circle clip-path="url(#clip882)" style="fill:#009af9; stroke:none; fill-opacity:0" cx="2331.78" cy="1372.3" r="2"/>
</svg>
