<?xml version="1.0" encoding="utf-8"?>
<svg xmlns="http://www.w3.org/2000/svg" xmlns:xlink="http://www.w3.org/1999/xlink" width="600" height="400" viewBox="0 0 2400 1600">
<defs>
  <clipPath id="clip990">
    <rect x="0" y="0" width="2400" height="1600"/>
  </clipPath>
</defs>
<path clip-path="url(#clip990)" d="
M0 1600 L2400 1600 L2400 0 L0 0  Z
  " fill="#ffffff" fill-rule="evenodd" fill-opacity="1"/>
<defs>
  <clipPath id="clip991">
    <rect x="480" y="0" width="1681" height="1600"/>
  </clipPath>
</defs>
<path clip-path="url(#clip990)" d="
M265.445 1410.9 L2352.76 1410.9 L2352.76 47.2441 L265.445 47.2441  Z
  " fill="#ffffff" fill-rule="evenodd" fill-opacity="1"/>
<defs>
  <clipPath id="clip992">
    <rect x="265" y="47" width="2088" height="1365"/>
  </clipPath>
</defs>
<polyline clip-path="url(#clip992)" style="stroke:#000000; stroke-linecap:butt; stroke-linejoin:round; stroke-width:2; stroke-opacity:0.1; fill:none" points="
  324.52,1410.9 324.52,47.2441 
  "/>
<polyline clip-path="url(#clip992)" style="stroke:#000000; stroke-linecap:butt; stroke-linejoin:round; stroke-width:2; stroke-opacity:0.1; fill:none" points="
  1132.82,1410.9 1132.82,47.2441 
  "/>
<polyline clip-path="url(#clip992)" style="stroke:#000000; stroke-linecap:butt; stroke-linejoin:round; stroke-width:2; stroke-opacity:0.1; fill:none" points="
  1941.13,1410.9 1941.13,47.2441 
  "/>
<polyline clip-path="url(#clip990)" style="stroke:#000000; stroke-linecap:butt; stroke-linejoin:round; stroke-width:4; stroke-opacity:1; fill:none" points="
  265.445,1410.9 2352.76,1410.9 
  "/>
<polyline clip-path="url(#clip990)" style="stroke:#000000; stroke-linecap:butt; stroke-linejoin:round; stroke-width:4; stroke-opacity:1; fill:none" points="
  324.52,1410.9 324.52,1392 
  "/>
<polyline clip-path="url(#clip990)" style="stroke:#000000; stroke-linecap:butt; stroke-linejoin:round; stroke-width:4; stroke-opacity:1; fill:none" points="
  1132.82,1410.9 1132.82,1392 
  "/>
<polyline clip-path="url(#clip990)" style="stroke:#000000; stroke-linecap:butt; stroke-linejoin:round; stroke-width:4; stroke-opacity:1; fill:none" points="
  1941.13,1410.9 1941.13,1392 
  "/>
<path clip-path="url(#clip990)" d="M289.502 1489.17 L297.141 1489.17 L297.141 1462.8 L288.831 1464.47 L288.831 1460.21 L297.095 1458.54 L301.771 1458.54 L301.771 1489.17 L309.41 1489.17 L309.41 1493.1 L289.502 1493.1 L289.502 1489.17 Z" fill="#000000" fill-rule="evenodd" fill-opacity="1" /><path clip-path="url(#clip990)" d="M328.854 1461.62 Q325.243 1461.62 323.414 1465.19 Q321.609 1468.73 321.609 1475.86 Q321.609 1482.97 323.414 1486.53 Q325.243 1490.07 328.854 1490.07 Q332.488 1490.07 334.294 1486.53 Q336.123 1482.97 336.123 1475.86 Q336.123 1468.73 334.294 1465.19 Q332.488 1461.62 328.854 1461.62 M328.854 1457.92 Q334.664 1457.92 337.72 1462.53 Q340.798 1467.11 340.798 1475.86 Q340.798 1484.59 337.72 1489.19 Q334.664 1493.78 328.854 1493.78 Q323.044 1493.78 319.965 1489.19 Q316.91 1484.59 316.91 1475.86 Q316.91 1467.11 319.965 1462.53 Q323.044 1457.92 328.854 1457.92 Z" fill="#000000" fill-rule="evenodd" fill-opacity="1" /><path clip-path="url(#clip990)" d="M350.503 1440.11 Q347.569 1440.11 346.083 1443.01 Q344.616 1445.89 344.616 1451.68 Q344.616 1457.46 346.083 1460.35 Q347.569 1463.23 350.503 1463.23 Q353.456 1463.23 354.923 1460.35 Q356.409 1457.46 356.409 1451.68 Q356.409 1445.89 354.923 1443.01 Q353.456 1440.11 350.503 1440.11 M350.503 1437.11 Q355.224 1437.11 357.707 1440.85 Q360.208 1444.57 360.208 1451.68 Q360.208 1458.77 357.707 1462.51 Q355.224 1466.24 350.503 1466.24 Q345.782 1466.24 343.281 1462.51 Q340.798 1458.77 340.798 1451.68 Q340.798 1444.57 343.281 1440.85 Q345.782 1437.11 350.503 1437.11 Z" fill="#000000" fill-rule="evenodd" fill-opacity="1" /><path clip-path="url(#clip990)" d="M1099.15 1489.17 L1106.79 1489.17 L1106.79 1462.8 L1098.48 1464.47 L1098.48 1460.21 L1106.74 1458.54 L1111.42 1458.54 L1111.42 1489.17 L1119.06 1489.17 L1119.06 1493.1 L1099.15 1493.1 L1099.15 1489.17 Z" fill="#000000" fill-rule="evenodd" fill-opacity="1" /><path clip-path="url(#clip990)" d="M1138.5 1461.62 Q1134.89 1461.62 1133.06 1465.19 Q1131.26 1468.73 1131.26 1475.86 Q1131.26 1482.97 1133.06 1486.53 Q1134.89 1490.07 1138.5 1490.07 Q1142.14 1490.07 1143.94 1486.53 Q1145.77 1482.97 1145.77 1475.86 Q1145.77 1468.73 1143.94 1465.19 Q1142.14 1461.62 1138.5 1461.62 M1138.5 1457.92 Q1144.31 1457.92 1147.37 1462.53 Q1150.45 1467.11 1150.45 1475.86 Q1150.45 1484.59 1147.37 1489.19 Q1144.31 1493.78 1138.5 1493.78 Q1132.69 1493.78 1129.61 1489.19 Q1126.56 1484.59 1126.56 1475.86 Q1126.56 1467.11 1129.61 1462.53 Q1132.69 1457.92 1138.5 1457.92 Z" fill="#000000" fill-rule="evenodd" fill-opacity="1" /><path clip-path="url(#clip990)" d="M1150.99 1462.5 L1157.2 1462.5 L1157.2 1441.07 L1150.45 1442.43 L1150.45 1438.97 L1157.16 1437.61 L1160.96 1437.61 L1160.96 1462.5 L1167.17 1462.5 L1167.17 1465.69 L1150.99 1465.69 L1150.99 1462.5 Z" fill="#000000" fill-rule="evenodd" fill-opacity="1" /><path clip-path="url(#clip990)" d="M1906.9 1489.17 L1914.54 1489.17 L1914.54 1462.8 L1906.23 1464.47 L1906.23 1460.21 L1914.49 1458.54 L1919.17 1458.54 L1919.17 1489.17 L1926.81 1489.17 L1926.81 1493.1 L1906.9 1493.1 L1906.9 1489.17 Z" fill="#000000" fill-rule="evenodd" fill-opacity="1" /><path clip-path="url(#clip990)" d="M1946.25 1461.62 Q1942.64 1461.62 1940.81 1465.19 Q1939.01 1468.73 1939.01 1475.86 Q1939.01 1482.97 1940.81 1486.53 Q1942.64 1490.07 1946.25 1490.07 Q1949.89 1490.07 1951.69 1486.53 Q1953.52 1482.97 1953.52 1475.86 Q1953.52 1468.73 1951.69 1465.19 Q1949.89 1461.62 1946.25 1461.62 M1946.25 1457.92 Q1952.06 1457.92 1955.12 1462.53 Q1958.2 1467.11 1958.2 1475.86 Q1958.2 1484.59 1955.12 1489.19 Q1952.06 1493.78 1946.25 1493.78 Q1940.44 1493.78 1937.36 1489.19 Q1934.31 1484.59 1934.31 1475.86 Q1934.31 1467.11 1937.36 1462.53 Q1940.44 1457.92 1946.25 1457.92 Z" fill="#000000" fill-rule="evenodd" fill-opacity="1" /><path clip-path="url(#clip990)" d="M1962.77 1462.5 L1976.03 1462.5 L1976.03 1465.69 L1958.2 1465.69 L1958.2 1462.5 Q1960.36 1460.26 1964.08 1456.5 Q1967.83 1452.72 1968.79 1451.63 Q1970.61 1449.58 1971.33 1448.16 Q1972.06 1446.74 1972.06 1445.36 Q1972.06 1443.12 1970.48 1441.71 Q1968.92 1440.3 1966.4 1440.3 Q1964.61 1440.3 1962.62 1440.92 Q1960.64 1441.54 1958.39 1442.8 L1958.39 1438.97 Q1960.68 1438.05 1962.67 1437.58 Q1964.67 1437.11 1966.32 1437.11 Q1970.69 1437.11 1973.28 1439.29 Q1975.88 1441.47 1975.88 1445.12 Q1975.88 1446.85 1975.22 1448.41 Q1974.58 1449.95 1972.87 1452.06 Q1972.4 1452.6 1969.88 1455.22 Q1967.36 1457.81 1962.77 1462.5 Z" fill="#000000" fill-rule="evenodd" fill-opacity="1" /><path clip-path="url(#clip990)" d="M1169.26 1533 L1160.54 1556.65 L1178.01 1556.65 L1169.26 1533 M1165.63 1526.67 L1172.92 1526.67 L1191.03 1574.19 L1184.35 1574.19 L1180.02 1562 L1158.6 1562 L1154.27 1574.19 L1147.49 1574.19 L1165.63 1526.67 Z" fill="#000000" fill-rule="evenodd" fill-opacity="1" /><path clip-path="url(#clip990)" d="M1219.2 1544.58 L1260 1544.58 L1260 1549.93 L1219.2 1549.93 L1219.2 1544.58 M1219.2 1557.57 L1260 1557.57 L1260 1562.98 L1219.2 1562.98 L1219.2 1557.57 Z" fill="#000000" fill-rule="evenodd" fill-opacity="1" /><path clip-path="url(#clip990)" d="M1291.29 1526.67 L1328.63 1526.67 L1328.63 1531.57 L1298.58 1568.77 L1329.36 1568.77 L1329.36 1574.19 L1290.56 1574.19 L1290.56 1569.28 L1320.61 1532.08 L1291.29 1532.08 L1291.29 1526.67 Z" fill="#000000" fill-rule="evenodd" fill-opacity="1" /><path clip-path="url(#clip990)" d="M1382.99 1533.32 L1382.99 1551.05 L1400.72 1551.05 L1400.72 1556.46 L1382.99 1556.46 L1382.99 1574.19 L1377.64 1574.19 L1377.64 1556.46 L1359.91 1556.46 L1359.91 1551.05 L1377.64 1551.05 L1377.64 1533.32 L1382.99 1533.32 Z" fill="#000000" fill-rule="evenodd" fill-opacity="1" /><path clip-path="url(#clip990)" d="M1434.74 1526.67 L1443.4 1526.67 L1464.47 1566.42 L1464.47 1526.67 L1470.71 1526.67 L1470.71 1574.19 L1462.05 1574.19 L1440.98 1534.43 L1440.98 1574.19 L1434.74 1574.19 L1434.74 1526.67 Z" fill="#000000" fill-rule="evenodd" fill-opacity="1" /><polyline clip-path="url(#clip992)" style="stroke:#000000; stroke-linecap:butt; stroke-linejoin:round; stroke-width:2; stroke-opacity:0.1; fill:none" points="
  265.445,1372.3 2352.76,1372.3 
  "/>
<polyline clip-path="url(#clip992)" style="stroke:#000000; stroke-linecap:butt; stroke-linejoin:round; stroke-width:2; stroke-opacity:0.1; fill:none" points="
  265.445,1079.74 2352.76,1079.74 
  "/>
<polyline clip-path="url(#clip992)" style="stroke:#000000; stroke-linecap:butt; stroke-linejoin:round; stroke-width:2; stroke-opacity:0.1; fill:none" points="
  265.445,787.18 2352.76,787.18 
  "/>
<polyline clip-path="url(#clip992)" style="stroke:#000000; stroke-linecap:butt; stroke-linejoin:round; stroke-width:2; stroke-opacity:0.1; fill:none" points="
  265.445,494.619 2352.76,494.619 
  "/>
<polyline clip-path="url(#clip992)" style="stroke:#000000; stroke-linecap:butt; stroke-linejoin:round; stroke-width:2; stroke-opacity:0.1; fill:none" points="
  265.445,202.058 2352.76,202.058 
  "/>
<polyline clip-path="url(#clip990)" style="stroke:#000000; stroke-linecap:butt; stroke-linejoin:round; stroke-width:4; stroke-opacity:1; fill:none" points="
  265.445,1410.9 265.445,47.2441 
  "/>
<polyline clip-path="url(#clip990)" style="stroke:#000000; stroke-linecap:butt; stroke-linejoin:round; stroke-width:4; stroke-opacity:1; fill:none" points="
  265.445,1372.3 284.342,1372.3 
  "/>
<polyline clip-path="url(#clip990)" style="stroke:#000000; stroke-linecap:butt; stroke-linejoin:round; stroke-width:4; stroke-opacity:1; fill:none" points="
  265.445,1079.74 284.342,1079.74 
  "/>
<polyline clip-path="url(#clip990)" style="stroke:#000000; stroke-linecap:butt; stroke-linejoin:round; stroke-width:4; stroke-opacity:1; fill:none" points="
  265.445,787.18 284.342,787.18 
  "/>
<polyline clip-path="url(#clip990)" style="stroke:#000000; stroke-linecap:butt; stroke-linejoin:round; stroke-width:4; stroke-opacity:1; fill:none" points="
  265.445,494.619 284.342,494.619 
  "/>
<polyline clip-path="url(#clip990)" style="stroke:#000000; stroke-linecap:butt; stroke-linejoin:round; stroke-width:4; stroke-opacity:1; fill:none" points="
  265.445,202.058 284.342,202.058 
  "/>
<path clip-path="url(#clip990)" d="M217.5 1358.1 Q213.889 1358.1 212.061 1361.67 Q210.255 1365.21 210.255 1372.34 Q210.255 1379.44 212.061 1383.01 Q213.889 1386.55 217.5 1386.55 Q221.135 1386.55 222.94 1383.01 Q224.769 1379.44 224.769 1372.34 Q224.769 1365.21 222.94 1361.67 Q221.135 1358.1 217.5 1358.1 M217.5 1354.4 Q223.31 1354.4 226.366 1359 Q229.445 1363.59 229.445 1372.34 Q229.445 1381.06 226.366 1385.67 Q223.31 1390.25 217.5 1390.25 Q211.69 1390.25 208.612 1385.67 Q205.556 1381.06 205.556 1372.34 Q205.556 1363.59 208.612 1359 Q211.69 1354.4 217.5 1354.4 Z" fill="#000000" fill-rule="evenodd" fill-opacity="1" /><path clip-path="url(#clip990)" d="M121.043 1093.09 L137.362 1093.09 L137.362 1097.02 L115.418 1097.02 L115.418 1093.09 Q118.08 1090.33 122.663 1085.7 Q127.269 1081.05 128.45 1079.71 Q130.695 1077.18 131.575 1075.45 Q132.478 1073.69 132.478 1072 Q132.478 1069.24 130.533 1067.51 Q128.612 1065.77 125.51 1065.77 Q123.311 1065.77 120.857 1066.54 Q118.427 1067.3 115.649 1068.85 L115.649 1064.13 Q118.473 1062.99 120.927 1062.42 Q123.38 1061.84 125.418 1061.84 Q130.788 1061.84 133.982 1064.52 Q137.177 1067.21 137.177 1071.7 Q137.177 1073.83 136.367 1075.75 Q135.579 1077.65 133.473 1080.24 Q132.894 1080.91 129.792 1084.13 Q126.691 1087.32 121.043 1093.09 Z" fill="#000000" fill-rule="evenodd" fill-opacity="1" /><path clip-path="url(#clip990)" d="M157.177 1065.54 Q153.566 1065.54 151.737 1069.1 Q149.931 1072.65 149.931 1079.78 Q149.931 1086.88 151.737 1090.45 Q153.566 1093.99 157.177 1093.99 Q160.811 1093.99 162.616 1090.45 Q164.445 1086.88 164.445 1079.78 Q164.445 1072.65 162.616 1069.1 Q160.811 1065.54 157.177 1065.54 M157.177 1061.84 Q162.987 1061.84 166.042 1066.44 Q169.121 1071.03 169.121 1079.78 Q169.121 1088.5 166.042 1093.11 Q162.987 1097.69 157.177 1097.69 Q151.366 1097.69 148.288 1093.11 Q145.232 1088.5 145.232 1079.78 Q145.232 1071.03 148.288 1066.44 Q151.366 1061.84 157.177 1061.84 Z" fill="#000000" fill-rule="evenodd" fill-opacity="1" /><path clip-path="url(#clip990)" d="M187.338 1065.54 Q183.727 1065.54 181.899 1069.1 Q180.093 1072.65 180.093 1079.78 Q180.093 1086.88 181.899 1090.45 Q183.727 1093.99 187.338 1093.99 Q190.973 1093.99 192.778 1090.45 Q194.607 1086.88 194.607 1079.78 Q194.607 1072.65 192.778 1069.1 Q190.973 1065.54 187.338 1065.54 M187.338 1061.84 Q193.149 1061.84 196.204 1066.44 Q199.283 1071.03 199.283 1079.78 Q199.283 1088.5 196.204 1093.11 Q193.149 1097.69 187.338 1097.69 Q181.528 1097.69 178.45 1093.11 Q175.394 1088.5 175.394 1079.78 Q175.394 1071.03 178.45 1066.44 Q181.528 1061.84 187.338 1061.84 Z" fill="#000000" fill-rule="evenodd" fill-opacity="1" /><path clip-path="url(#clip990)" d="M217.5 1065.54 Q213.889 1065.54 212.061 1069.1 Q210.255 1072.65 210.255 1079.78 Q210.255 1086.88 212.061 1090.45 Q213.889 1093.99 217.5 1093.99 Q221.135 1093.99 222.94 1090.45 Q224.769 1086.88 224.769 1079.78 Q224.769 1072.65 222.94 1069.1 Q221.135 1065.54 217.5 1065.54 M217.5 1061.84 Q223.31 1061.84 226.366 1066.44 Q229.445 1071.03 229.445 1079.78 Q229.445 1088.5 226.366 1093.11 Q223.31 1097.69 217.5 1097.69 Q211.69 1097.69 208.612 1093.11 Q205.556 1088.5 205.556 1079.78 Q205.556 1071.03 208.612 1066.44 Q211.69 1061.84 217.5 1061.84 Z" fill="#000000" fill-rule="evenodd" fill-opacity="1" /><path clip-path="url(#clip990)" d="M129.862 773.974 L118.056 792.423 L129.862 792.423 L129.862 773.974 M128.635 769.9 L134.515 769.9 L134.515 792.423 L139.445 792.423 L139.445 796.312 L134.515 796.312 L134.515 804.46 L129.862 804.46 L129.862 796.312 L114.26 796.312 L114.26 791.798 L128.635 769.9 Z" fill="#000000" fill-rule="evenodd" fill-opacity="1" /><path clip-path="url(#clip990)" d="M157.177 772.979 Q153.566 772.979 151.737 776.544 Q149.931 780.085 149.931 787.215 Q149.931 794.321 151.737 797.886 Q153.566 801.428 157.177 801.428 Q160.811 801.428 162.616 797.886 Q164.445 794.321 164.445 787.215 Q164.445 780.085 162.616 776.544 Q160.811 772.979 157.177 772.979 M157.177 769.275 Q162.987 769.275 166.042 773.882 Q169.121 778.465 169.121 787.215 Q169.121 795.942 166.042 800.548 Q162.987 805.131 157.177 805.131 Q151.366 805.131 148.288 800.548 Q145.232 795.942 145.232 787.215 Q145.232 778.465 148.288 773.882 Q151.366 769.275 157.177 769.275 Z" fill="#000000" fill-rule="evenodd" fill-opacity="1" /><path clip-path="url(#clip990)" d="M187.338 772.979 Q183.727 772.979 181.899 776.544 Q180.093 780.085 180.093 787.215 Q180.093 794.321 181.899 797.886 Q183.727 801.428 187.338 801.428 Q190.973 801.428 192.778 797.886 Q194.607 794.321 194.607 787.215 Q194.607 780.085 192.778 776.544 Q190.973 772.979 187.338 772.979 M187.338 769.275 Q193.149 769.275 196.204 773.882 Q199.283 778.465 199.283 787.215 Q199.283 795.942 196.204 800.548 Q193.149 805.131 187.338 805.131 Q181.528 805.131 178.45 800.548 Q175.394 795.942 175.394 787.215 Q175.394 778.465 178.45 773.882 Q181.528 769.275 187.338 769.275 Z" fill="#000000" fill-rule="evenodd" fill-opacity="1" /><path clip-path="url(#clip990)" d="M217.5 772.979 Q213.889 772.979 212.061 776.544 Q210.255 780.085 210.255 787.215 Q210.255 794.321 212.061 797.886 Q213.889 801.428 217.5 801.428 Q221.135 801.428 222.94 797.886 Q224.769 794.321 224.769 787.215 Q224.769 780.085 222.94 776.544 Q221.135 772.979 217.5 772.979 M217.5 769.275 Q223.31 769.275 226.366 773.882 Q229.445 778.465 229.445 787.215 Q229.445 795.942 226.366 800.548 Q223.31 805.131 217.5 805.131 Q211.69 805.131 208.612 800.548 Q205.556 795.942 205.556 787.215 Q205.556 778.465 208.612 773.882 Q211.69 769.275 217.5 769.275 Z" fill="#000000" fill-rule="evenodd" fill-opacity="1" /><path clip-path="url(#clip990)" d="M127.593 492.755 Q124.445 492.755 122.593 494.908 Q120.765 497.061 120.765 500.811 Q120.765 504.538 122.593 506.714 Q124.445 508.866 127.593 508.866 Q130.742 508.866 132.57 506.714 Q134.422 504.538 134.422 500.811 Q134.422 497.061 132.57 494.908 Q130.742 492.755 127.593 492.755 M136.876 478.103 L136.876 482.362 Q135.117 481.529 133.311 481.089 Q131.529 480.649 129.769 480.649 Q125.14 480.649 122.686 483.774 Q120.255 486.899 119.908 493.218 Q121.274 491.205 123.334 490.14 Q125.394 489.052 127.871 489.052 Q133.08 489.052 136.089 492.223 Q139.121 495.371 139.121 500.811 Q139.121 506.135 135.973 509.353 Q132.825 512.57 127.593 512.57 Q121.598 512.57 118.427 507.987 Q115.256 503.38 115.256 494.654 Q115.256 486.459 119.144 481.598 Q123.033 476.714 129.584 476.714 Q131.343 476.714 133.126 477.061 Q134.931 477.408 136.876 478.103 Z" fill="#000000" fill-rule="evenodd" fill-opacity="1" /><path clip-path="url(#clip990)" d="M157.177 480.418 Q153.566 480.418 151.737 483.982 Q149.931 487.524 149.931 494.654 Q149.931 501.76 151.737 505.325 Q153.566 508.866 157.177 508.866 Q160.811 508.866 162.616 505.325 Q164.445 501.76 164.445 494.654 Q164.445 487.524 162.616 483.982 Q160.811 480.418 157.177 480.418 M157.177 476.714 Q162.987 476.714 166.042 481.32 Q169.121 485.904 169.121 494.654 Q169.121 503.38 166.042 507.987 Q162.987 512.57 157.177 512.57 Q151.366 512.57 148.288 507.987 Q145.232 503.38 145.232 494.654 Q145.232 485.904 148.288 481.32 Q151.366 476.714 157.177 476.714 Z" fill="#000000" fill-rule="evenodd" fill-opacity="1" /><path clip-path="url(#clip990)" d="M187.338 480.418 Q183.727 480.418 181.899 483.982 Q180.093 487.524 180.093 494.654 Q180.093 501.76 181.899 505.325 Q183.727 508.866 187.338 508.866 Q190.973 508.866 192.778 505.325 Q194.607 501.76 194.607 494.654 Q194.607 487.524 192.778 483.982 Q190.973 480.418 187.338 480.418 M187.338 476.714 Q193.149 476.714 196.204 481.32 Q199.283 485.904 199.283 494.654 Q199.283 503.38 196.204 507.987 Q193.149 512.57 187.338 512.57 Q181.528 512.57 178.45 507.987 Q175.394 503.38 175.394 494.654 Q175.394 485.904 178.45 481.32 Q181.528 476.714 187.338 476.714 Z" fill="#000000" fill-rule="evenodd" fill-opacity="1" /><path clip-path="url(#clip990)" d="M217.5 480.418 Q213.889 480.418 212.061 483.982 Q210.255 487.524 210.255 494.654 Q210.255 501.76 212.061 505.325 Q213.889 508.866 217.5 508.866 Q221.135 508.866 222.94 505.325 Q224.769 501.76 224.769 494.654 Q224.769 487.524 222.94 483.982 Q221.135 480.418 217.5 480.418 M217.5 476.714 Q223.31 476.714 226.366 481.32 Q229.445 485.904 229.445 494.654 Q229.445 503.38 226.366 507.987 Q223.31 512.57 217.5 512.57 Q211.69 512.57 208.612 507.987 Q205.556 503.38 205.556 494.654 Q205.556 485.904 208.612 481.32 Q211.69 476.714 217.5 476.714 Z" fill="#000000" fill-rule="evenodd" fill-opacity="1" /><path clip-path="url(#clip990)" d="M127.015 202.926 Q123.681 202.926 121.76 204.708 Q119.862 206.49 119.862 209.615 Q119.862 212.74 121.76 214.523 Q123.681 216.305 127.015 216.305 Q130.348 216.305 132.269 214.523 Q134.191 212.717 134.191 209.615 Q134.191 206.49 132.269 204.708 Q130.371 202.926 127.015 202.926 M122.339 200.935 Q119.33 200.194 117.64 198.134 Q115.973 196.074 115.973 193.111 Q115.973 188.967 118.913 186.56 Q121.876 184.153 127.015 184.153 Q132.177 184.153 135.117 186.56 Q138.056 188.967 138.056 193.111 Q138.056 196.074 136.367 198.134 Q134.7 200.194 131.714 200.935 Q135.093 201.722 136.968 204.014 Q138.867 206.305 138.867 209.615 Q138.867 214.639 135.788 217.324 Q132.732 220.009 127.015 220.009 Q121.297 220.009 118.218 217.324 Q115.163 214.639 115.163 209.615 Q115.163 206.305 117.061 204.014 Q118.959 201.722 122.339 200.935 M120.626 193.551 Q120.626 196.236 122.293 197.74 Q123.982 199.245 127.015 199.245 Q130.024 199.245 131.714 197.74 Q133.427 196.236 133.427 193.551 Q133.427 190.866 131.714 189.361 Q130.024 187.856 127.015 187.856 Q123.982 187.856 122.293 189.361 Q120.626 190.866 120.626 193.551 Z" fill="#000000" fill-rule="evenodd" fill-opacity="1" /><path clip-path="url(#clip990)" d="M157.177 187.856 Q153.566 187.856 151.737 191.421 Q149.931 194.963 149.931 202.092 Q149.931 209.199 151.737 212.764 Q153.566 216.305 157.177 216.305 Q160.811 216.305 162.616 212.764 Q164.445 209.199 164.445 202.092 Q164.445 194.963 162.616 191.421 Q160.811 187.856 157.177 187.856 M157.177 184.153 Q162.987 184.153 166.042 188.759 Q169.121 193.342 169.121 202.092 Q169.121 210.819 166.042 215.426 Q162.987 220.009 157.177 220.009 Q151.366 220.009 148.288 215.426 Q145.232 210.819 145.232 202.092 Q145.232 193.342 148.288 188.759 Q151.366 184.153 157.177 184.153 Z" fill="#000000" fill-rule="evenodd" fill-opacity="1" /><path clip-path="url(#clip990)" d="M187.338 187.856 Q183.727 187.856 181.899 191.421 Q180.093 194.963 180.093 202.092 Q180.093 209.199 181.899 212.764 Q183.727 216.305 187.338 216.305 Q190.973 216.305 192.778 212.764 Q194.607 209.199 194.607 202.092 Q194.607 194.963 192.778 191.421 Q190.973 187.856 187.338 187.856 M187.338 184.153 Q193.149 184.153 196.204 188.759 Q199.283 193.342 199.283 202.092 Q199.283 210.819 196.204 215.426 Q193.149 220.009 187.338 220.009 Q181.528 220.009 178.45 215.426 Q175.394 210.819 175.394 202.092 Q175.394 193.342 178.45 188.759 Q181.528 184.153 187.338 184.153 Z" fill="#000000" fill-rule="evenodd" fill-opacity="1" /><path clip-path="url(#clip990)" d="M217.5 187.856 Q213.889 187.856 212.061 191.421 Q210.255 194.963 210.255 202.092 Q210.255 209.199 212.061 212.764 Q213.889 216.305 217.5 216.305 Q221.135 216.305 222.94 212.764 Q224.769 209.199 224.769 202.092 Q224.769 194.963 222.94 191.421 Q221.135 187.856 217.5 187.856 M217.5 184.153 Q223.31 184.153 226.366 188.759 Q229.445 193.342 229.445 202.092 Q229.445 210.819 226.366 215.426 Q223.31 220.009 217.5 220.009 Q211.69 220.009 208.612 215.426 Q205.556 210.819 205.556 202.092 Q205.556 193.342 208.612 188.759 Q211.69 184.153 217.5 184.153 Z" fill="#000000" fill-rule="evenodd" fill-opacity="1" /><path clip-path="url(#clip990)" d="M41.3104 1115.82 L58.7206 1115.82 L58.7206 1105.51 Q58.7206 1100.32 56.5881 1097.84 Q54.4238 1095.32 49.9996 1095.32 Q45.5436 1095.32 43.4429 1097.84 Q41.3104 1100.32 41.3104 1105.51 L41.3104 1115.82 M21.7677 1115.82 L36.0905 1115.82 L36.0905 1106.3 Q36.0905 1101.59 34.34 1099.3 Q32.5576 1096.98 28.9291 1096.98 Q25.3325 1096.98 23.5501 1099.3 Q21.7677 1101.59 21.7677 1106.3 L21.7677 1115.82 M16.4842 1122.25 L16.4842 1105.82 Q16.4842 1098.47 19.5397 1094.49 Q22.5952 1090.52 28.2289 1090.52 Q32.5894 1090.52 35.1675 1092.55 Q37.7456 1094.59 38.3822 1098.54 Q39.4007 1093.79 42.6472 1091.18 Q45.8619 1088.54 50.6998 1088.54 Q57.0655 1088.54 60.5348 1092.87 Q64.0042 1097.2 64.0042 1105.19 L64.0042 1122.25 L16.4842 1122.25 Z" fill="#000000" fill-rule="evenodd" fill-opacity="1" /><path clip-path="url(#clip990)" d="M28.3562 1077.78 L28.3562 1071.93 L64.0042 1071.93 L64.0042 1077.78 L28.3562 1077.78 M14.479 1077.78 L14.479 1071.93 L21.895 1071.93 L21.895 1077.78 L14.479 1077.78 Z" fill="#000000" fill-rule="evenodd" fill-opacity="1" /><path clip-path="url(#clip990)" d="M42.4881 1030.04 L64.0042 1030.04 L64.0042 1035.9 L42.679 1035.9 Q37.6183 1035.9 35.1038 1037.87 Q32.5894 1039.84 32.5894 1043.79 Q32.5894 1048.53 35.6131 1051.27 Q38.6368 1054.01 43.8567 1054.01 L64.0042 1054.01 L64.0042 1059.9 L28.3562 1059.9 L28.3562 1054.01 L33.8944 1054.01 Q30.6797 1051.91 29.0883 1049.07 Q27.4968 1046.21 27.4968 1042.49 Q27.4968 1036.34 31.3163 1033.19 Q35.1038 1030.04 42.4881 1030.04 Z" fill="#000000" fill-rule="evenodd" fill-opacity="1" /><path clip-path="url(#clip990)" d="M33.7671 994.902 L14.479 994.902 L14.479 989.046 L64.0042 989.046 L64.0042 994.902 L58.657 994.902 Q61.8398 996.748 63.3994 999.581 Q64.9272 1002.38 64.9272 1006.33 Q64.9272 1012.79 59.771 1016.86 Q54.6147 1020.91 46.212 1020.91 Q37.8093 1020.91 32.6531 1016.86 Q27.4968 1012.79 27.4968 1006.33 Q27.4968 1002.38 29.0564 999.581 Q30.5842 996.748 33.7671 994.902 M46.212 1014.86 Q52.6732 1014.86 56.3653 1012.22 Q60.0256 1009.54 60.0256 1004.9 Q60.0256 1000.25 56.3653 997.576 Q52.6732 994.902 46.212 994.902 Q39.7508 994.902 36.0905 997.576 Q32.3984 1000.25 32.3984 1004.9 Q32.3984 1009.54 36.0905 1012.22 Q39.7508 1014.86 46.212 1014.86 Z" fill="#000000" fill-rule="evenodd" fill-opacity="1" /><path clip-path="url(#clip990)" d="M28.3562 976.983 L28.3562 971.126 L64.0042 971.126 L64.0042 976.983 L28.3562 976.983 M14.479 976.983 L14.479 971.126 L21.895 971.126 L21.895 976.983 L14.479 976.983 Z" fill="#000000" fill-rule="evenodd" fill-opacity="1" /><path clip-path="url(#clip990)" d="M42.4881 929.24 L64.0042 929.24 L64.0042 935.096 L42.679 935.096 Q37.6183 935.096 35.1038 937.07 Q32.5894 939.043 32.5894 942.99 Q32.5894 947.732 35.6131 950.47 Q38.6368 953.207 43.8567 953.207 L64.0042 953.207 L64.0042 959.095 L28.3562 959.095 L28.3562 953.207 L33.8944 953.207 Q30.6797 951.106 29.0883 948.273 Q27.4968 945.409 27.4968 941.685 Q27.4968 935.542 31.3163 932.391 Q35.1038 929.24 42.4881 929.24 Z" fill="#000000" fill-rule="evenodd" fill-opacity="1" /><path clip-path="url(#clip990)" d="M45.7664 894.101 Q39.4007 894.101 35.8996 896.743 Q32.3984 899.353 32.3984 904.095 Q32.3984 908.806 35.8996 911.448 Q39.4007 914.058 45.7664 914.058 Q52.1003 914.058 55.6014 911.448 Q59.1026 908.806 59.1026 904.095 Q59.1026 899.353 55.6014 896.743 Q52.1003 894.101 45.7664 894.101 M59.58 888.245 Q68.683 888.245 73.1071 892.287 Q77.5631 896.329 77.5631 904.668 Q77.5631 907.756 77.0857 910.493 Q76.6401 913.23 75.6852 915.808 L69.9879 915.808 Q71.3884 913.23 72.0568 910.716 Q72.7252 908.201 72.7252 905.591 Q72.7252 899.83 69.7015 896.966 Q66.7096 894.101 60.6303 894.101 L57.7339 894.101 Q60.885 895.916 62.4446 898.748 Q64.0042 901.581 64.0042 905.528 Q64.0042 912.084 59.0071 916.095 Q54.01 920.105 45.7664 920.105 Q37.491 920.105 32.4939 916.095 Q27.4968 912.084 27.4968 905.528 Q27.4968 901.581 29.0564 898.748 Q30.616 895.916 33.7671 894.101 L28.3562 894.101 L28.3562 888.245 L59.58 888.245 Z" fill="#000000" fill-rule="evenodd" fill-opacity="1" /><path clip-path="url(#clip990)" d="M16.4842 855.207 L16.4842 825.161 L21.895 825.161 L21.895 848.777 L35.9632 848.777 L35.9632 826.147 L41.3741 826.147 L41.3741 848.777 L58.5933 848.777 L58.5933 824.588 L64.0042 824.588 L64.0042 855.207 L16.4842 855.207 Z" fill="#000000" fill-rule="evenodd" fill-opacity="1" /><path clip-path="url(#clip990)" d="M42.4881 784.643 L64.0042 784.643 L64.0042 790.499 L42.679 790.499 Q37.6183 790.499 35.1038 792.473 Q32.5894 794.446 32.5894 798.393 Q32.5894 803.135 35.6131 805.873 Q38.6368 808.61 43.8567 808.61 L64.0042 808.61 L64.0042 814.498 L28.3562 814.498 L28.3562 808.61 L33.8944 808.61 Q30.6797 806.509 29.0883 803.676 Q27.4968 800.812 27.4968 797.088 Q27.4968 790.945 31.3163 787.794 Q35.1038 784.643 42.4881 784.643 Z" fill="#000000" fill-rule="evenodd" fill-opacity="1" /><path clip-path="url(#clip990)" d="M44.7161 742.47 L47.5806 742.47 L47.5806 769.397 Q53.6281 769.015 56.8109 765.769 Q59.9619 762.49 59.9619 756.666 Q59.9619 753.292 59.1344 750.141 Q58.3069 746.958 56.6518 743.839 L62.1899 743.839 Q63.5267 746.99 64.227 750.3 Q64.9272 753.61 64.9272 757.016 Q64.9272 765.546 59.9619 770.543 Q54.9967 775.508 46.5303 775.508 Q37.7774 775.508 32.6531 770.798 Q27.4968 766.055 27.4968 758.034 Q27.4968 750.841 32.1438 746.672 Q36.7589 742.47 44.7161 742.47 M42.9973 748.327 Q38.1912 748.39 35.3266 751.032 Q32.4621 753.642 32.4621 757.971 Q32.4621 762.872 35.2312 765.832 Q38.0002 768.761 43.0292 769.206 L42.9973 748.327 Z" fill="#000000" fill-rule="evenodd" fill-opacity="1" /><path clip-path="url(#clip990)" d="M33.8307 712.201 Q33.2578 713.188 33.0032 714.366 Q32.7167 715.511 32.7167 716.912 Q32.7167 721.877 35.9632 724.551 Q39.1779 727.192 45.2253 727.192 L64.0042 727.192 L64.0042 733.081 L28.3562 733.081 L28.3562 727.192 L33.8944 727.192 Q30.6479 725.346 29.0883 722.386 Q27.4968 719.426 27.4968 715.193 Q27.4968 714.588 27.5923 713.856 Q27.656 713.124 27.8151 712.233 L33.8307 712.201 Z" fill="#000000" fill-rule="evenodd" fill-opacity="1" /><path clip-path="url(#clip990)" d="M45.7664 683.747 Q39.4007 683.747 35.8996 686.388 Q32.3984 688.998 32.3984 693.741 Q32.3984 698.451 35.8996 701.093 Q39.4007 703.703 45.7664 703.703 Q52.1003 703.703 55.6014 701.093 Q59.1026 698.451 59.1026 693.741 Q59.1026 688.998 55.6014 686.388 Q52.1003 683.747 45.7664 683.747 M59.58 677.89 Q68.683 677.89 73.1071 681.932 Q77.5631 685.975 77.5631 694.314 Q77.5631 697.401 77.0857 700.138 Q76.6401 702.875 75.6852 705.454 L69.9879 705.454 Q71.3884 702.875 72.0568 700.361 Q72.7252 697.847 72.7252 695.237 Q72.7252 689.476 69.7015 686.611 Q66.7096 683.747 60.6303 683.747 L57.7339 683.747 Q60.885 685.561 62.4446 688.394 Q64.0042 691.226 64.0042 695.173 Q64.0042 701.73 59.0071 705.74 Q54.01 709.75 45.7664 709.75 Q37.491 709.75 32.4939 705.74 Q27.4968 701.73 27.4968 695.173 Q27.4968 691.226 29.0564 688.394 Q30.616 685.561 33.7671 683.747 L28.3562 683.747 L28.3562 677.89 L59.58 677.89 Z" fill="#000000" fill-rule="evenodd" fill-opacity="1" /><path clip-path="url(#clip990)" d="M67.3143 650.995 Q73.68 653.478 75.6216 655.833 Q77.5631 658.188 77.5631 662.135 L77.5631 666.814 L72.6615 666.814 L72.6615 663.376 Q72.6615 660.957 71.5157 659.621 Q70.3699 658.284 66.1048 656.66 L63.4312 655.61 L28.3562 670.028 L28.3562 663.822 L56.238 652.682 L28.3562 641.542 L28.3562 635.335 L67.3143 650.995 Z" fill="#000000" fill-rule="evenodd" fill-opacity="1" /><path clip-path="url(#clip990)" d="M16.4842 596.123 L16.4842 590.712 L70.0516 607.263 L70.0516 612.673 L16.4842 596.123 Z" fill="#000000" fill-rule="evenodd" fill-opacity="1" /><path clip-path="url(#clip990)" d="M22.818 547.711 L46.4666 556.432 L46.4666 538.959 L22.818 547.711 M16.4842 551.34 L16.4842 544.051 L64.0042 525.941 L64.0042 532.625 L51.8138 536.953 L51.8138 558.374 L64.0042 562.703 L64.0042 569.482 L16.4842 551.34 Z" fill="#000000" fill-rule="evenodd" fill-opacity="1" /><path clip-path="url(#clip990)" d="M14.479 499.077 L14.479 485.582 L19.0304 485.582 L19.0304 493.221 L68.0464 493.221 L68.0464 485.582 L72.5979 485.582 L72.5979 499.077 L14.479 499.077 Z" fill="#000000" fill-rule="evenodd" fill-opacity="1" /><path clip-path="url(#clip990)" d="M14.479 473.328 L14.479 467.44 L43.7294 467.44 L28.3562 449.966 L28.3562 442.486 L45.0344 461.392 L64.0042 441.691 L64.0042 449.329 L46.5939 467.44 L64.0042 467.44 L64.0042 473.328 L14.479 473.328 Z" fill="#000000" fill-rule="evenodd" fill-opacity="1" /><path clip-path="url(#clip990)" d="M16.4842 435.102 L16.4842 405.056 L21.895 405.056 L21.895 428.673 L35.9632 428.673 L35.9632 406.043 L41.3741 406.043 L41.3741 428.673 L58.5933 428.673 L58.5933 404.483 L64.0042 404.483 L64.0042 435.102 L16.4842 435.102 Z" fill="#000000" fill-rule="evenodd" fill-opacity="1" /><path clip-path="url(#clip990)" d="M64.0042 381.662 L16.4842 399.804 L16.4842 393.088 L56.4926 378.033 L16.4842 362.947 L16.4842 356.263 L64.0042 374.373 L64.0042 381.662 Z" fill="#000000" fill-rule="evenodd" fill-opacity="1" /><path clip-path="url(#clip990)" d="M14.479 335.892 L72.5979 335.892 L72.5979 349.388 L68.0464 349.388 L68.0464 341.781 L19.0304 341.781 L19.0304 349.388 L14.479 349.388 L14.479 335.892 Z" fill="#000000" fill-rule="evenodd" fill-opacity="1" /><polyline clip-path="url(#clip992)" style="stroke:#009af9; stroke-linecap:butt; stroke-linejoin:round; stroke-width:4; stroke-opacity:1; fill:none" points="
  324.52,1372.3 567.844,1209.6 710.179,958.727 811.167,337.525 889.5,570.392 953.503,592.271 1007.62,552.201 1054.49,339.205 1095.84,426.925 1132.82,421.812 
  1166.28,358.913 1196.83,248.846 1224.93,279.608 1250.94,272.225 1275.16,246.02 1297.82,205.538 1319.1,238.519 1339.16,236.133 1358.14,234.383 1376.15,197.341 
  1393.28,206.195 1409.61,190.289 1425.21,185.75 1440.15,163.922 1454.48,169.363 1468.25,153.219 1481.5,153.558 1494.26,136.561 1506.58,136.431 1518.48,125.896 
  1529.99,131.67 1541.14,129.92 1551.94,126.895 1562.42,116.702 1572.6,123.379 1582.49,117.89 1592.1,118.636 1601.47,112.2 1610.58,119.762 1619.47,114.982 
  1628.14,117.791 1636.6,111.868 1644.86,114.193 1652.93,105.778 1660.82,109.819 1668.53,104.213 1676.08,104.783 1683.47,96.3128 1690.71,98.0458 1697.8,91.5274 
  1704.76,93.5208 1711.57,88.5632 1718.26,90.8724 1724.82,88.2748 1731.26,90.1653 1737.59,86.4596 1743.8,89.3961 1749.91,86.1822 1755.91,89.7238 1761.81,87.8573 
  1767.61,90.161 1773.32,85.838 1778.93,90.3812 1784.46,88.3365 1789.91,91.3176 1795.27,90.9441 1800.54,94.2226 1805.74,91.5224 1810.87,96.0804 1815.92,95.3124 
  1820.9,97.0902 1825.81,95.0177 1830.65,98.923 1835.43,95.9753 1840.14,99.5363 1844.79,97.9825 1849.38,100.249 1853.91,97.0565 1858.38,100.307 1862.8,98.0792 
  1867.16,100.259 1871.46,98.105 1875.72,100.301 1879.92,97.1238 1884.08,99.8705 1888.18,97.9006 1892.24,98.0586 1896.25,94.896 1900.22,97.6263 1904.14,98.2099 
  1908.02,100.646 1911.86,100.739 1915.65,103.819 1919.41,104.522 1923.12,107.168 1926.8,106.397 1930.44,109.161 1934.04,109.15 1937.6,112.305 1941.13,111.47 
  1944.62,114.101 1948.08,113.215 1951.51,116.588 1954.9,116.139 1958.26,118.287 1961.58,117.219 1964.88,120.009 1968.15,119.116 1971.38,121.908 1974.59,121.414 
  1977.76,123.49 1980.91,122.366 1984.03,124.961 1987.13,124.299 1990.19,126.495 1993.23,125.537 1996.24,127.511 1999.23,126.498 2002.19,128.995 2005.13,128.254 
  2008.04,131.075 2010.93,130.681 2013.8,132.967 2016.64,132.828 2019.46,135.03 2022.26,134.287 2025.03,136.79 2027.79,136.413 2030.52,138.285 2033.23,138.024 
  2035.92,140.071 2038.59,139.504 2041.24,141.69 2043.87,141.543 2046.48,143.344 2049.07,143.136 2051.64,144.735 2054.19,144.502 2056.73,146.749 2059.24,146.997 
  2061.74,150.055 2064.22,151.278 2066.69,153.703 2069.13,154.225 2071.56,156.819 2073.98,157.565 2076.37,160.449 2078.75,161.142 2081.12,163.506 2083.46,163.777 
  2085.8,166.359 2088.11,166.346 2090.42,168.593 2092.7,168.866 2094.97,170.353 2097.23,170.55 2099.48,172.279 2101.7,172.525 2103.92,174.43 2106.12,175.126 
  2108.31,176.525 2110.48,176.676 2112.64,178.383 2114.79,178.833 2116.92,180.552 2119.04,181.284 2121.15,182.778 2123.25,183.092 2125.33,184.933 2127.4,185.672 
  2129.46,187.145 2131.51,187.798 2133.54,189.261 2135.57,189.785 2137.58,191.675 2139.58,192.678 2141.57,194.232 2143.54,194.816 2145.51,196.41 2147.47,196.939 
  2149.41,198.632 2151.35,199.379 2153.27,200.84 2155.18,201.314 2157.08,203.094 2158.98,203.722 2160.86,205.281 2162.73,205.879 2164.59,207.468 2166.45,207.6 
  2168.29,209.288 2170.12,209.587 2171.95,211.107 2173.76,211.414 2175.57,212.787 2177.36,212.791 2179.15,214.335 2180.92,214.601 2182.69,215.658 2184.45,215.811 
  2186.2,217.03 2187.95,217.134 2189.68,218.506 2191.4,218.787 2193.12,219.836 2194.83,220.279 2196.53,221.083 2198.22,221.436 2199.9,224.187 2201.58,226.043 
  2203.25,228.414 2204.91,229.804 2206.56,232.178 2208.2,233.481 2209.84,235.966 2211.47,237.332 2213.09,239.41 2214.7,240.264 2216.31,242.461 2217.91,243.412 
  2219.5,245.46 2221.09,246.418 2222.67,248.088 2224.24,248.873 2225.8,250.679 2227.36,251.502 2228.91,253.15 2230.45,253.97 2231.99,255.497 2233.52,256.032 
  2235.04,257.623 2236.55,258.368 2238.06,259.854 2239.57,260.462 2241.06,261.896 2242.56,262.544 2244.04,264.063 2245.52,264.937 2246.99,266.334 2248.46,266.997 
  2249.91,268.402 2251.37,269.15 2252.82,270.659 2254.26,271.564 2255.69,272.888 2257.12,273.517 2258.55,274.912 2259.97,275.672 2261.38,277.238 2262.79,278.127 
  2264.19,279.509 2265.58,280.263 2266.97,281.801 2268.36,282.621 2269.74,284.256 2271.11,285.169 2272.48,286.575 2273.84,287.246 2275.2,288.73 2276.55,290.31 
  2277.9,291.552 2279.24,292.098 2280.58,294.159 2281.91,295.533 2283.24,297.985 2284.56,299.686 2285.88,302.679 2287.19,304.934 2288.5,305.504 2289.8,308.842 
  2291.1,308.664 2292.39,311.203 2293.68,312.229 
  "/>
<path clip-path="url(#clip992)" d="M324.52 1396.3 L317.728 1379.09 L300.52 1372.3 L317.728 1365.51 L324.52 1348.3 L331.312 1365.51 L348.52 1372.3 L331.312 1379.09 L324.52 1396.3 Z" fill="#e26f46" fill-rule="evenodd" fill-opacity="1" stroke="#000000" stroke-opacity="1" stroke-width="3.2"/>
<path clip-path="url(#clip992)" d="M811.167 361.525 L804.375 344.317 L787.167 337.525 L804.375 330.733 L811.167 313.525 L817.959 330.733 L835.167 337.525 L817.959 344.317 L811.167 361.525 Z" fill="#e26f46" fill-rule="evenodd" fill-opacity="1" stroke="#000000" stroke-opacity="1" stroke-width="3.2"/>
<path clip-path="url(#clip992)" d="M1054.49 363.205 L1047.7 345.997 L1030.49 339.205 L1047.7 332.413 L1054.49 315.205 L1061.28 332.413 L1078.49 339.205 L1061.28 345.997 L1054.49 363.205 Z" fill="#e26f46" fill-rule="evenodd" fill-opacity="1" stroke="#000000" stroke-opacity="1" stroke-width="3.2"/>
<path clip-path="url(#clip992)" d="M1196.83 272.846 L1190.03 255.638 L1172.83 248.846 L1190.03 242.054 L1196.83 224.846 L1203.62 242.054 L1220.83 248.846 L1203.62 255.638 L1196.83 272.846 Z" fill="#e26f46" fill-rule="evenodd" fill-opacity="1" stroke="#000000" stroke-opacity="1" stroke-width="3.2"/>
<path clip-path="url(#clip992)" d="M1297.82 229.538 L1291.02 212.33 L1273.82 205.538 L1291.02 198.746 L1297.82 181.538 L1304.61 198.746 L1321.82 205.538 L1304.61 212.33 L1297.82 229.538 Z" fill="#e26f46" fill-rule="evenodd" fill-opacity="1" stroke="#000000" stroke-opacity="1" stroke-width="3.2"/>
<path clip-path="url(#clip992)" d="M1737.59 110.46 L1730.8 93.2516 L1713.59 86.4596 L1730.8 79.6676 L1737.59 62.4596 L1744.38 79.6676 L1761.59 86.4596 L1744.38 93.2516 L1737.59 110.46 Z" fill="#e26f46" fill-rule="evenodd" fill-opacity="1" stroke="#000000" stroke-opacity="1" stroke-width="3.2"/>
<path clip-path="url(#clip990)" d="M284.314 1297.89 L292.578 1297.89 L292.578 1273.14 L283.545 1274.8 L283.545 1270.1 L292.862 1268.52 L298.411 1268.52 L298.411 1297.89 L306.716 1297.89 L306.716 1302.34 L284.314 1302.34 L284.314 1297.89 Z" fill="#000000" fill-rule="evenodd" fill-opacity="1" /><path clip-path="url(#clip990)" d="M319.395 1268.92 L327.578 1268.92 L327.578 1293.71 L357.312 1293.71 L357.312 1268.92 L365.494 1268.92 L365.494 1329.4 L357.312 1329.4 L357.312 1300.6 L327.578 1300.6 L327.578 1329.4 L319.395 1329.4 L319.395 1268.92 Z" fill="#000000" fill-rule="evenodd" fill-opacity="1" /><path clip-path="url(#clip990)" d="M757.837 238.642 L745.32 255.615 L757.837 255.615 L757.837 238.642 M756.946 233.74 L763.671 233.74 L763.671 255.615 L769.139 255.615 L769.139 260.03 L763.671 260.03 L763.671 267.565 L757.837 267.565 L757.837 260.03 L741.067 260.03 L741.067 255.129 L756.946 233.74 Z" fill="#000000" fill-rule="evenodd" fill-opacity="1" /><path clip-path="url(#clip990)" d="M779.915 234.145 L788.098 234.145 L788.098 258.937 L817.831 258.937 L817.831 234.145 L826.014 234.145 L826.014 294.625 L817.831 294.625 L817.831 265.823 L788.098 265.823 L788.098 294.625 L779.915 294.625 L779.915 234.145 Z" fill="#000000" fill-rule="evenodd" fill-opacity="1" /><path clip-path="url(#clip990)" d="M842.299 234.145 L880.539 234.145 L880.539 241.032 L850.481 241.032 L850.481 258.937 L879.283 258.937 L879.283 265.823 L850.481 265.823 L850.481 287.739 L881.268 287.739 L881.268 294.625 L842.299 294.625 L842.299 234.145 Z" fill="#000000" fill-rule="evenodd" fill-opacity="1" /><path clip-path="url(#clip990)" d="M1007.18 254.904 Q1005.03 253.122 1001.26 253.122 Q997.495 253.122 995.348 254.904 Q993.201 256.646 993.201 259.684 Q993.201 262.763 995.348 264.505 Q997.495 266.247 1001.26 266.247 Q1004.99 266.247 1007.18 264.464 Q1009.32 262.722 1009.32 259.684 Q1009.32 256.646 1007.18 254.904 M995.996 251.137 Q992.594 250.408 990.73 248.423 Q988.826 246.397 988.826 243.48 Q988.826 239.43 992.148 237.08 Q995.47 234.731 1001.26 234.731 Q1007.06 234.731 1010.38 237.08 Q1013.66 239.43 1013.66 243.48 Q1013.66 246.478 1011.79 248.423 Q1009.89 250.408 1006.53 251.137 Q1010.17 251.866 1012.44 254.215 Q1014.59 256.443 1014.59 259.684 Q1014.59 264.586 1011.15 267.219 Q1007.66 269.852 1001.26 269.852 Q994.822 269.852 991.378 267.219 Q987.895 264.586 987.895 259.684 Q987.895 256.524 990.041 254.215 Q992.229 251.947 995.996 251.137 M994.052 243.926 Q994.052 246.478 995.956 248.018 Q997.819 249.516 1001.26 249.516 Q1004.54 249.516 1006.53 248.018 Q1008.47 246.559 1008.47 243.926 Q1008.47 241.374 1006.53 239.835 Q1004.62 238.336 1001.26 238.336 Q997.9 238.336 995.956 239.835 Q994.052 241.293 994.052 243.926 Z" fill="#000000" fill-rule="evenodd" fill-opacity="1" /><path clip-path="url(#clip990)" d="M1033.87 267.421 L1033.87 289.58 L1047 289.58 Q1053.6 289.58 1056.76 286.866 Q1059.96 284.111 1059.96 278.48 Q1059.96 272.809 1056.76 270.135 Q1053.6 267.421 1047 267.421 L1033.87 267.421 M1033.87 242.549 L1033.87 260.778 L1045.98 260.778 Q1051.98 260.778 1054.9 258.55 Q1057.85 256.281 1057.85 251.663 Q1057.85 247.086 1054.9 244.817 Q1051.98 242.549 1045.98 242.549 L1033.87 242.549 M1025.69 235.824 L1046.59 235.824 Q1055.95 235.824 1061.01 239.713 Q1066.08 243.602 1066.08 250.772 Q1066.08 256.322 1063.48 259.603 Q1060.89 262.884 1055.87 263.695 Q1061.9 264.991 1065.23 269.123 Q1068.59 273.214 1068.59 279.372 Q1068.59 287.473 1063.08 291.889 Q1057.57 296.304 1047.4 296.304 L1025.69 296.304 L1025.69 235.824 Z" fill="#000000" fill-rule="evenodd" fill-opacity="1" /><path clip-path="url(#clip990)" d="M1121.09 271.756 L1121.09 275.402 L1086.82 275.402 Q1087.3 283.098 1091.44 287.149 Q1095.61 291.16 1103.02 291.16 Q1107.32 291.16 1111.33 290.106 Q1115.38 289.053 1119.35 286.947 L1119.35 293.995 Q1115.34 295.697 1111.12 296.588 Q1106.91 297.479 1102.58 297.479 Q1091.72 297.479 1085.36 291.16 Q1079.04 284.84 1079.04 274.065 Q1079.04 262.925 1085.04 256.403 Q1091.07 249.84 1101.28 249.84 Q1110.43 249.84 1115.74 255.755 Q1121.09 261.629 1121.09 271.756 M1113.63 269.568 Q1113.55 263.451 1110.19 259.806 Q1106.87 256.16 1101.36 256.16 Q1095.12 256.16 1091.35 259.684 Q1087.63 263.208 1087.06 269.609 L1113.63 269.568 Z" fill="#000000" fill-rule="evenodd" fill-opacity="1" /><path clip-path="url(#clip990)" d="M1111.78 174.43 L1120.04 174.43 L1120.04 149.679 L1111.01 151.34 L1111.01 146.64 L1120.33 145.061 L1125.88 145.061 L1125.88 174.43 L1134.18 174.43 L1134.18 178.886 L1111.78 178.886 L1111.78 174.43 Z" fill="#000000" fill-rule="evenodd" fill-opacity="1" /><path clip-path="url(#clip990)" d="M1149.57 174.268 L1166.75 174.268 L1166.75 178.886 L1142.52 178.886 L1142.52 174.43 Q1143.9 173.174 1146.45 170.905 Q1160.39 158.55 1160.39 154.742 Q1160.39 152.069 1158.28 150.448 Q1156.18 148.787 1152.73 148.787 Q1150.63 148.787 1148.16 149.517 Q1145.68 150.205 1142.77 151.623 L1142.77 146.64 Q1145.89 145.506 1148.56 144.939 Q1151.27 144.372 1153.58 144.372 Q1159.46 144.372 1162.98 147.046 Q1166.51 149.719 1166.51 154.094 Q1166.51 159.725 1153.1 171.229 Q1150.83 173.174 1149.57 174.268 Z" fill="#000000" fill-rule="evenodd" fill-opacity="1" /><path clip-path="url(#clip990)" d="M1225.41 150.124 L1225.41 158.753 Q1221.27 154.904 1216.57 153 Q1211.92 151.096 1206.65 151.096 Q1196.28 151.096 1190.77 157.456 Q1185.26 163.776 1185.26 175.766 Q1185.26 187.717 1190.77 194.077 Q1196.28 200.396 1206.65 200.396 Q1211.92 200.396 1216.57 198.492 Q1221.27 196.588 1225.41 192.74 L1225.41 201.287 Q1221.11 204.204 1216.29 205.662 Q1211.51 207.12 1206.16 207.12 Q1192.43 207.12 1184.53 198.735 Q1176.63 190.309 1176.63 175.766 Q1176.63 161.183 1184.53 152.798 Q1192.43 144.372 1206.16 144.372 Q1211.59 144.372 1216.37 145.83 Q1221.19 147.248 1225.41 150.124 Z" fill="#000000" fill-rule="evenodd" fill-opacity="1" /><path clip-path="url(#clip990)" d="M1266.93 292.03 L1275.19 292.03 L1275.19 267.279 L1266.16 268.94 L1266.16 264.241 L1275.47 262.661 L1281.02 262.661 L1281.02 292.03 L1289.33 292.03 L1289.33 296.486 L1266.93 296.486 L1266.93 292.03 Z" fill="#000000" fill-rule="evenodd" fill-opacity="1" /><path clip-path="url(#clip990)" d="M1311.49 277.649 Q1307.92 277.649 1305.86 279.756 Q1303.79 281.903 1303.79 285.589 Q1303.79 289.235 1305.86 291.342 Q1307.92 293.488 1311.49 293.488 Q1315.01 293.488 1317.08 291.342 Q1319.14 289.235 1319.14 285.589 Q1319.14 281.903 1317.08 279.756 Q1315.01 277.649 1311.49 277.649 M1321.94 263.309 L1321.94 267.482 Q1319.95 266.672 1317.93 266.266 Q1315.9 265.821 1313.92 265.821 Q1308.73 265.821 1305.98 268.859 Q1303.22 271.938 1302.82 278.136 Q1304.36 276.151 1306.67 275.097 Q1309.02 274.044 1311.77 274.044 Q1317.64 274.044 1321.05 277.123 Q1324.45 280.242 1324.45 285.589 Q1324.45 290.734 1320.89 293.934 Q1317.36 297.094 1311.49 297.094 Q1304.72 297.094 1301.16 292.597 Q1297.59 288.101 1297.59 279.513 Q1297.59 271.492 1301.97 266.753 Q1306.34 261.972 1313.72 261.972 Q1315.7 261.972 1317.73 262.297 Q1319.75 262.661 1321.94 263.309 Z" fill="#000000" fill-rule="evenodd" fill-opacity="1" /><path clip-path="url(#clip990)" d="M1359.81 268.616 Q1350.9 268.616 1345.64 275.259 Q1340.41 281.903 1340.41 293.367 Q1340.41 304.791 1345.64 311.434 Q1350.9 318.077 1359.81 318.077 Q1368.73 318.077 1373.91 311.434 Q1379.14 304.791 1379.14 293.367 Q1379.14 281.903 1373.91 275.259 Q1368.73 268.616 1359.81 268.616 M1359.81 261.972 Q1372.53 261.972 1380.15 270.52 Q1387.77 279.027 1387.77 293.367 Q1387.77 307.667 1380.15 316.214 Q1372.53 324.721 1359.81 324.721 Q1347.05 324.721 1339.4 316.214 Q1331.78 307.707 1331.78 293.367 Q1331.78 279.027 1339.4 270.52 Q1347.05 261.972 1359.81 261.972 Z" fill="#000000" fill-rule="evenodd" fill-opacity="1" /><path clip-path="url(#clip990)" d="M1660.6 143.583 L1681.26 143.583 L1681.26 147.431 L1665.42 147.431 L1665.42 155.695 Q1666.56 155.331 1667.73 155.168 Q1668.86 155.006 1670 155.006 Q1676.52 155.006 1680.33 158.126 Q1684.14 161.204 1684.14 166.511 Q1684.14 171.98 1680.21 175.018 Q1676.32 178.016 1669.19 178.016 Q1666.76 178.016 1664.21 177.651 Q1661.65 177.286 1658.98 176.557 L1658.98 171.98 Q1661.29 173.073 1663.8 173.641 Q1666.31 174.167 1669.11 174.167 Q1673.6 174.167 1676.24 172.101 Q1678.87 170.035 1678.87 166.511 Q1678.87 162.987 1676.24 160.921 Q1673.6 158.855 1669.11 158.855 Q1667 158.855 1664.89 159.26 Q1662.79 159.665 1660.6 160.516 L1660.6 143.583 Z" fill="#000000" fill-rule="evenodd" fill-opacity="1" /><path clip-path="url(#clip990)" d="M1705.73 158.571 Q1702.16 158.571 1700.1 160.678 Q1698.03 162.825 1698.03 166.511 Q1698.03 170.157 1700.1 172.263 Q1702.16 174.41 1705.73 174.41 Q1709.25 174.41 1711.32 172.263 Q1713.38 170.157 1713.38 166.511 Q1713.38 162.825 1711.32 160.678 Q1709.25 158.571 1705.73 158.571 M1716.18 144.231 L1716.18 148.403 Q1714.19 147.593 1712.17 147.188 Q1710.14 146.743 1708.16 146.743 Q1702.97 146.743 1700.22 149.781 Q1697.46 152.859 1697.06 159.057 Q1698.6 157.072 1700.91 156.019 Q1703.26 154.966 1706.01 154.966 Q1711.89 154.966 1715.29 158.045 Q1718.69 161.164 1718.69 166.511 Q1718.69 171.656 1715.13 174.856 Q1711.6 178.016 1705.73 178.016 Q1698.96 178.016 1695.4 173.519 Q1691.83 169.023 1691.83 160.435 Q1691.83 152.414 1696.21 147.674 Q1700.58 142.894 1707.96 142.894 Q1709.94 142.894 1711.97 143.218 Q1713.99 143.583 1716.18 144.231 Z" fill="#000000" fill-rule="evenodd" fill-opacity="1" /><path clip-path="url(#clip990)" d="M1729.51 143.988 L1764.26 143.988 L1764.26 150.875 L1737.69 150.875 L1737.69 168.698 L1761.67 168.698 L1761.67 175.585 L1737.69 175.585 L1737.69 204.468 L1729.51 204.468 L1729.51 143.988 Z" fill="#000000" fill-rule="evenodd" fill-opacity="1" /><path clip-path="url(#clip990)" d="M1777.23 143.988 L1815.47 143.988 L1815.47 150.875 L1785.41 150.875 L1785.41 168.78 L1814.21 168.78 L1814.21 175.666 L1785.41 175.666 L1785.41 197.581 L1816.2 197.581 L1816.2 204.468 L1777.23 204.468 L1777.23 143.988 Z" fill="#000000" fill-rule="evenodd" fill-opacity="1" /></svg>
