<?xml version="1.0" encoding="utf-8" standalone="no"?>
<!DOCTYPE svg PUBLIC "-//W3C//DTD SVG 1.1//EN"
  "http://www.w3.org/Graphics/SVG/1.1/DTD/svg11.dtd">
<svg height="720pt" version="1.1" viewBox="0 0 576 720" width="576pt" xmlns="http://www.w3.org/2000/svg" xmlns:xlink="http://www.w3.org/1999/xlink">
 <metadata>
  <rdf:RDF xmlns:cc="http://creativecommons.org/ns#" xmlns:dc="http://purl.org/dc/elements/1.1/" xmlns:rdf="http://www.w3.org/1999/02/22-rdf-syntax-ns#">
   <cc:Work>
    <dc:type rdf:resource="http://purl.org/dc/dcmitype/StillImage"/>
    <dc:date>2021-08-13T17:05:39.171255</dc:date>
    <dc:format>image/svg+xml</dc:format>
    <dc:creator>
     <cc:Agent>
      <dc:title>Matplotlib v3.4.2, https://matplotlib.org/</dc:title>
     </cc:Agent>
    </dc:creator>
   </cc:Work>
  </rdf:RDF>
 </metadata>
 <defs>
  <style type="text/css">*{stroke-linecap:butt;stroke-linejoin:round;}</style>
 </defs>
 <g id="figure_1">
  <g id="patch_1">
   <path d="M 0 720 
L 576 720 
L 576 0 
L 0 0 
z
" style="fill:#ffffff;"/>
  </g>
  <g id="axes_1">
   <g id="patch_2">
    <path d="M 109.417323 717.165354 
L 466.582677 717.165354 
L 466.582677 2.834646 
L 109.417323 2.834646 
z
" style="fill:#ffffff;"/>
   </g>
   <g id="line2d_1">
    <path clip-path="url(#p2c4d601ec7)" d="M 230.598425 117.637795 
L 231.834859 120.110662 
L 233.070642 122.582228 
L 234.305123 125.051192 
L 235.537654 127.516252 
L 236.767582 129.976108 
L 237.994257 132.429459 
L 239.217029 134.875003 
L 240.435247 137.311439 
L 241.648261 139.737467 
L 242.85542 142.151786 
L 244.056074 144.553093 
L 245.249572 146.940089 
L 246.435263 149.311471 
L 247.612497 151.66594 
L 248.780624 154.002193 
L 249.938993 156.31893 
L 251.086953 158.61485 
L 252.223853 160.888652 
L 253.349044 163.139034 
L 254.461875 165.364695 
L 255.561695 167.564335 
L 256.647854 169.736652 
L 257.7197 171.880346 
L 258.776585 173.994114 
L 259.817883 176.076711 
L 260.843596 178.128136 
L 261.854346 180.149636 
L 262.850784 182.142513 
L 263.833561 184.108067 
L 264.803327 186.047599 
L 265.760733 187.96241 
L 266.706429 189.853802 
L 267.641066 191.723076 
L 268.565294 193.571533 
L 269.479764 195.400473 
L 270.385127 197.211198 
L 271.282032 199.005009 
L 272.171131 200.783207 
L 273.053074 202.547093 
L 273.928512 204.297969 
L 274.798095 206.037134 
L 275.662473 207.765892 
L 276.522298 209.485541 
L 277.37822 211.197384 
L 278.230888 212.902722 
L 279.080955 214.602855 
L 279.92907 216.299085 
L 280.775884 217.992713 
L 281.622047 219.685039 
" style="fill:none;stroke:#000000;"/>
   </g>
   <g id="matplotlib.axis_1">
    <g id="xtick_1"/>
    <g id="xtick_2"/>
    <g id="xtick_3"/>
    <g id="xtick_4"/>
    <g id="xtick_5"/>
   </g>
   <g id="matplotlib.axis_2">
    <g id="ytick_1"/>
    <g id="ytick_2"/>
    <g id="ytick_3"/>
    <g id="ytick_4"/>
    <g id="ytick_5"/>
   </g>
   <g id="line2d_2">
    <path clip-path="url(#p2c4d601ec7)" d="M 345.401575 117.637795 
L 344.165141 120.110662 
L 342.929358 122.582228 
L 341.694877 125.051192 
L 340.462346 127.516252 
L 339.232418 129.976108 
L 338.005743 132.429459 
L 336.782971 134.875003 
L 335.564753 137.311439 
L 334.351739 139.737467 
L 333.14458 142.151786 
L 331.943926 144.553093 
L 330.750428 146.940089 
L 329.564737 149.311471 
L 328.387503 151.66594 
L 327.219376 154.002193 
L 326.061007 156.31893 
L 324.913047 158.61485 
L 323.776147 160.888652 
L 322.650956 163.139034 
L 321.538125 165.364695 
L 320.438305 167.564335 
L 319.352146 169.736652 
L 318.2803 171.880346 
L 317.223415 173.994114 
L 316.182117 176.076711 
L 315.156404 178.128136 
L 314.145654 180.149636 
L 313.149216 182.142513 
L 312.166439 184.108067 
L 311.196673 186.047599 
L 310.239267 187.96241 
L 309.293571 189.853802 
L 308.358934 191.723076 
L 307.434706 193.571533 
L 306.520236 195.400473 
L 305.614873 197.211198 
L 304.717968 199.005009 
L 303.828869 200.783207 
L 302.946926 202.547093 
L 302.071488 204.297969 
L 301.201905 206.037134 
L 300.337527 207.765892 
L 299.477702 209.485541 
L 298.62178 211.197384 
L 297.769112 212.902722 
L 296.919045 214.602855 
L 296.07093 216.299085 
L 295.224116 217.992713 
L 294.377953 219.685039 
" style="fill:none;stroke:#000000;"/>
   </g>
   <g id="line2d_3">
    <path clip-path="url(#p2c4d601ec7)" d="M 275.244094 251.574803 
L 272.771228 255.284103 
L 270.299662 258.991452 
L 267.830698 262.694898 
L 265.365638 266.392488 
L 262.905782 270.082272 
L 260.452431 273.762298 
L 258.006887 277.430615 
L 255.57045 281.085269 
L 253.144422 284.724311 
L 250.730104 288.345789 
L 248.328797 291.94775 
L 245.941801 295.528243 
L 243.570419 299.085317 
L 241.21595 302.61702 
L 238.879697 306.1214 
L 236.562959 309.596506 
L 234.26704 313.040385 
L 231.993238 316.451088 
L 229.742856 319.826661 
L 227.517195 323.165153 
L 225.317555 326.464613 
L 223.145238 329.723089 
L 221.001544 332.938629 
L 218.887776 336.109282 
L 216.805179 339.233177 
L 214.753754 342.310314 
L 212.732253 345.342565 
L 210.739377 348.331879 
L 208.773823 351.28021 
L 206.834291 354.189508 
L 204.919479 357.061726 
L 203.028087 359.898814 
L 201.158814 362.702724 
L 199.310357 365.475409 
L 197.481417 368.21882 
L 195.670692 370.934907 
L 193.876881 373.625624 
L 192.098683 376.292921 
L 190.334796 378.93875 
L 188.583921 381.565063 
L 186.844755 384.173812 
L 185.115998 386.766947 
L 183.396349 389.346422 
L 181.684506 391.914186 
L 179.979168 394.472193 
L 178.279035 397.022392 
L 176.582805 399.566737 
L 174.889177 402.107179 
L 173.19685 404.645669 
" style="fill:none;stroke:#000000;"/>
   </g>
   <g id="line2d_4">
    <path clip-path="url(#p2c4d601ec7)" d="M 288 257.952756 
L 288 262.89849 
L 288 267.841621 
L 288 272.779549 
L 288 277.709669 
L 288 282.629381 
L 288 287.536083 
L 288 292.427171 
L 288 297.300044 
L 288 302.1521 
L 288 306.980737 
L 288 311.783352 
L 288 316.557343 
L 288 321.300108 
L 288 326.009045 
L 288 330.681552 
L 288 335.315026 
L 288 339.906866 
L 288 344.454469 
L 288 348.955233 
L 288 353.406556 
L 288 357.805835 
L 288 362.15047 
L 288 366.437857 
L 288 370.665394 
L 288 374.830587 
L 288 378.933438 
L 288 382.976438 
L 288 386.962191 
L 288 390.893298 
L 288 394.772363 
L 288 398.601986 
L 288 402.38477 
L 288 406.123318 
L 288 409.820231 
L 288 413.478111 
L 288 417.099561 
L 288 420.687184 
L 288 424.24358 
L 288 427.771352 
L 288 431.273103 
L 288 434.751434 
L 288 438.208948 
L 288 441.648247 
L 288 445.071933 
L 288 448.482608 
L 288 451.882875 
L 288 455.275335 
L 288 458.662591 
L 288 462.047244 
" style="fill:none;stroke:#000000;"/>
   </g>
   <g id="line2d_5">
    <path clip-path="url(#p2c4d601ec7)" d="M 300.755906 251.574803 
L 303.228772 255.284103 
L 305.700338 258.991452 
L 308.169302 262.694898 
L 310.634362 266.392488 
L 313.094218 270.082272 
L 315.547569 273.762298 
L 317.993113 277.430615 
L 320.42955 281.085269 
L 322.855578 284.724311 
L 325.269896 288.345789 
L 327.671203 291.94775 
L 330.058199 295.528243 
L 332.429581 299.085317 
L 334.78405 302.61702 
L 337.120303 306.1214 
L 339.437041 309.596506 
L 341.73296 313.040385 
L 344.006762 316.451088 
L 346.257144 319.826661 
L 348.482805 323.165153 
L 350.682445 326.464613 
L 352.854762 329.723089 
L 354.998456 332.938629 
L 357.112224 336.109282 
L 359.194821 339.233177 
L 361.246246 342.310314 
L 363.267747 345.342565 
L 365.260623 348.331879 
L 367.226177 351.28021 
L 369.165709 354.189508 
L 371.080521 357.061726 
L 372.971913 359.898814 
L 374.841186 362.702724 
L 376.689643 365.475409 
L 378.518583 368.21882 
L 380.329308 370.934907 
L 382.123119 373.625624 
L 383.901317 376.292921 
L 385.665204 378.93875 
L 387.416079 381.565063 
L 389.155245 384.173812 
L 390.884002 386.766947 
L 392.603651 389.346422 
L 394.315494 391.914186 
L 396.020832 394.472193 
L 397.720965 397.022392 
L 399.417195 399.566737 
L 401.110823 402.107179 
L 402.80315 404.645669 
" style="fill:none;stroke:#000000;"/>
   </g>
   <g id="line2d_6">
    <path clip-path="url(#p2c4d601ec7)" d="M 288 493.937008 
L 288 495.173441 
L 288 496.409224 
L 288 497.643706 
L 288 498.876236 
L 288 500.106164 
L 288 501.33284 
L 288 502.555612 
L 288 503.77383 
L 288 504.986844 
L 288 506.194003 
L 288 507.394657 
L 288 508.588155 
L 288 509.773846 
L 288 510.95108 
L 288 512.119207 
L 288 513.277575 
L 288 514.425535 
L 288 515.562436 
L 288 516.687627 
L 288 517.800458 
L 288 518.900278 
L 288 519.986436 
L 288 521.058283 
L 288 522.115167 
L 288 523.156466 
L 288 524.182178 
L 288 525.192928 
L 288 526.189367 
L 288 527.172144 
L 288 528.14191 
L 288 529.099315 
L 288 530.045011 
L 288 530.979648 
L 288 531.903877 
L 288 532.818347 
L 288 533.723709 
L 288 534.620615 
L 288 535.509714 
L 288 536.391657 
L 288 537.267095 
L 288 538.136677 
L 288 539.001056 
L 288 539.860881 
L 288 540.716802 
L 288 541.569471 
L 288 542.419538 
L 288 543.267653 
L 288 544.114467 
L 288 544.96063 
" style="fill:none;stroke:#000000;"/>
   </g>
   <g id="line2d_7">
    <path clip-path="url(#p2c4d601ec7)" d="M 415.559055 430.15748 
L 415.559055 431.393914 
L 415.559055 432.629697 
L 415.559055 433.864178 
L 415.559055 435.096709 
L 415.559055 436.326637 
L 415.559055 437.553312 
L 415.559055 438.776084 
L 415.559055 439.994302 
L 415.559055 441.207316 
L 415.559055 442.414476 
L 415.559055 443.615129 
L 415.559055 444.808627 
L 415.559055 445.994318 
L 415.559055 447.171553 
L 415.559055 448.339679 
L 415.559055 449.498048 
L 415.559055 450.646008 
L 415.559055 451.782908 
L 415.559055 452.9081 
L 415.559055 454.02093 
L 415.559055 455.12075 
L 415.559055 456.206909 
L 415.559055 457.278756 
L 415.559055 458.33564 
L 415.559055 459.376938 
L 415.559055 460.402651 
L 415.559055 461.413401 
L 415.559055 462.409839 
L 415.559055 463.392616 
L 415.559055 464.362382 
L 415.559055 465.319788 
L 415.559055 466.265484 
L 415.559055 467.200121 
L 415.559055 468.124349 
L 415.559055 469.038819 
L 415.559055 469.944182 
L 415.559055 470.841087 
L 415.559055 471.730186 
L 415.559055 472.612129 
L 415.559055 473.487567 
L 415.559055 474.35715 
L 415.559055 475.221528 
L 415.559055 476.081353 
L 415.559055 476.937275 
L 415.559055 477.789943 
L 415.559055 478.64001 
L 415.559055 479.488125 
L 415.559055 480.334939 
L 415.559055 481.181102 
" style="fill:none;stroke:#000000;"/>
   </g>
   <g id="line2d_8">
    <path clip-path="url(#p2c4d601ec7)" d="M 288 557.716535 
L 288 558.952969 
L 288 560.188752 
L 288 561.423234 
L 288 562.655764 
L 288 563.885692 
L 288 565.112367 
L 288 566.335139 
L 288 567.553358 
L 288 568.766372 
L 288 569.973531 
L 288 571.174184 
L 288 572.367682 
L 288 573.553373 
L 288 574.730608 
L 288 575.898734 
L 288 577.057103 
L 288 578.205063 
L 288 579.341964 
L 288 580.467155 
L 288 581.579985 
L 288 582.679805 
L 288 583.765964 
L 288 584.837811 
L 288 585.894695 
L 288 586.935993 
L 288 587.961706 
L 288 588.972456 
L 288 589.968894 
L 288 590.951671 
L 288 591.921437 
L 288 592.878843 
L 288 593.824539 
L 288 594.759176 
L 288 595.683404 
L 288 596.597874 
L 288 597.503237 
L 288 598.400142 
L 288 599.289241 
L 288 600.171184 
L 288 601.046622 
L 288 601.916205 
L 288 602.780584 
L 288 603.640408 
L 288 604.49633 
L 288 605.348999 
L 288 606.199065 
L 288 607.04718 
L 288 607.893994 
L 288 608.740157 
" style="fill:none;stroke:#000000;"/>
   </g>
   <g id="line2d_9">
    <path clip-path="url(#p2c4d601ec7)" d="M 415.559055 493.937008 
L 415.559055 495.173441 
L 415.559055 496.409224 
L 415.559055 497.643706 
L 415.559055 498.876236 
L 415.559055 500.106164 
L 415.559055 501.33284 
L 415.559055 502.555612 
L 415.559055 503.77383 
L 415.559055 504.986844 
L 415.559055 506.194003 
L 415.559055 507.394657 
L 415.559055 508.588155 
L 415.559055 509.773846 
L 415.559055 510.95108 
L 415.559055 512.119207 
L 415.559055 513.277575 
L 415.559055 514.425535 
L 415.559055 515.562436 
L 415.559055 516.687627 
L 415.559055 517.800458 
L 415.559055 518.900278 
L 415.559055 519.986436 
L 415.559055 521.058283 
L 415.559055 522.115167 
L 415.559055 523.156466 
L 415.559055 524.182178 
L 415.559055 525.192928 
L 415.559055 526.189367 
L 415.559055 527.172144 
L 415.559055 528.14191 
L 415.559055 529.099315 
L 415.559055 530.045011 
L 415.559055 530.979648 
L 415.559055 531.903877 
L 415.559055 532.818347 
L 415.559055 533.723709 
L 415.559055 534.620615 
L 415.559055 535.509714 
L 415.559055 536.391657 
L 415.559055 537.267095 
L 415.559055 538.136677 
L 415.559055 539.001056 
L 415.559055 539.860881 
L 415.559055 540.716802 
L 415.559055 541.569471 
L 415.559055 542.419538 
L 415.559055 543.267653 
L 415.559055 544.114467 
L 415.559055 544.96063 
" style="fill:none;stroke:#000000;"/>
   </g>
   <g id="line2d_10">
    <path clip-path="url(#p2c4d601ec7)" d="M 415.559055 557.716535 
L 415.559055 558.952969 
L 415.559055 560.188752 
L 415.559055 561.423234 
L 415.559055 562.655764 
L 415.559055 563.885692 
L 415.559055 565.112367 
L 415.559055 566.335139 
L 415.559055 567.553358 
L 415.559055 568.766372 
L 415.559055 569.973531 
L 415.559055 571.174184 
L 415.559055 572.367682 
L 415.559055 573.553373 
L 415.559055 574.730608 
L 415.559055 575.898734 
L 415.559055 577.057103 
L 415.559055 578.205063 
L 415.559055 579.341964 
L 415.559055 580.467155 
L 415.559055 581.579985 
L 415.559055 582.679805 
L 415.559055 583.765964 
L 415.559055 584.837811 
L 415.559055 585.894695 
L 415.559055 586.935993 
L 415.559055 587.961706 
L 415.559055 588.972456 
L 415.559055 589.968894 
L 415.559055 590.951671 
L 415.559055 591.921437 
L 415.559055 592.878843 
L 415.559055 593.824539 
L 415.559055 594.759176 
L 415.559055 595.683404 
L 415.559055 596.597874 
L 415.559055 597.503237 
L 415.559055 598.400142 
L 415.559055 599.289241 
L 415.559055 600.171184 
L 415.559055 601.046622 
L 415.559055 601.916205 
L 415.559055 602.780584 
L 415.559055 603.640408 
L 415.559055 604.49633 
L 415.559055 605.348999 
L 415.559055 606.199065 
L 415.559055 607.04718 
L 415.559055 607.893994 
L 415.559055 608.740157 
" style="fill:none;stroke:#000000;"/>
   </g>
   <g id="patch_3">
    <path clip-path="url(#p2c4d601ec7)" d="M 235.366164 181.968551 
L 260.413804 181.968551 
L 260.413804 179.519418 
L 235.366164 179.519418 
L 235.366164 181.968551 
" style="fill:#ffffff;"/>
   </g>
   <g id="patch_4">
    <path clip-path="url(#p2c4d601ec7)" d="M 319.787439 181.968551 
L 336.432593 181.968551 
L 336.432593 179.519418 
L 319.787439 179.519418 
L 319.787439 181.968551 
" style="fill:#ffffff;"/>
   </g>
   <g id="patch_5">
    <path clip-path="url(#p2c4d601ec7)" d="M 222.439008 345.977436 
L 234.473141 345.977436 
L 234.473141 343.528302 
L 222.439008 343.528302 
L 222.439008 345.977436 
" style="fill:#ffffff;"/>
   </g>
   <g id="patch_6">
    <path clip-path="url(#p2c4d601ec7)" d="M 270.043658 373.980472 
L 280.444531 373.980472 
L 280.444531 371.531339 
L 270.043658 371.531339 
L 270.043658 373.980472 
" style="fill:#ffffff;"/>
   </g>
   <g id="patch_7">
    <path clip-path="url(#p2c4d601ec7)" d="M 339.221348 345.977436 
L 355.866502 345.977436 
L 355.866502 343.528302 
L 339.221348 343.528302 
L 339.221348 345.977436 
" style="fill:#ffffff;"/>
   </g>
   <g id="patch_8">
    <path clip-path="url(#p2c4d601ec7)" d="M 224.220472 104.88189 
L 224.220472 104.88189 
L 224.220472 104.88189 
L 224.220472 104.88189 
L 224.220472 104.88189 
" style="fill:#ffffff;stroke:#000000;stroke-linejoin:miter;"/>
   </g>
   <g id="patch_9">
    <path clip-path="url(#p2c4d601ec7)" d="M 351.779528 104.88189 
L 351.779528 104.88189 
L 351.779528 104.88189 
L 351.779528 104.88189 
L 351.779528 104.88189 
" style="fill:#ffffff;stroke:#000000;stroke-linejoin:miter;"/>
   </g>
   <g id="patch_10">
    <path clip-path="url(#p2c4d601ec7)" d="M 288 232.440945 
L 288 232.440945 
L 288 232.440945 
L 288 232.440945 
L 288 232.440945 
" style="fill:#ffffff;stroke:#000000;stroke-linejoin:miter;"/>
   </g>
   <g id="patch_11">
    <path clip-path="url(#p2c4d601ec7)" d="M 160.440945 423.779528 
L 160.440945 423.779528 
L 160.440945 423.779528 
L 160.440945 423.779528 
L 160.440945 423.779528 
" style="fill:#ffffff;stroke:#000000;stroke-linejoin:miter;"/>
   </g>
   <g id="patch_12">
    <path clip-path="url(#p2c4d601ec7)" d="M 288 487.559055 
L 288 487.559055 
L 288 487.559055 
L 288 487.559055 
L 288 487.559055 
" style="fill:#ffffff;stroke:#000000;stroke-linejoin:miter;"/>
   </g>
   <g id="patch_13">
    <path clip-path="url(#p2c4d601ec7)" d="M 415.559055 423.779528 
L 415.559055 423.779528 
L 415.559055 423.779528 
L 415.559055 423.779528 
L 415.559055 423.779528 
" style="fill:#ffffff;stroke:#000000;stroke-linejoin:miter;"/>
   </g>
   <g id="patch_14">
    <path clip-path="url(#p2c4d601ec7)" d="M 288 551.338583 
L 288 551.338583 
L 288 551.338583 
L 288 551.338583 
L 288 551.338583 
" style="fill:#ffffff;stroke:#000000;stroke-linejoin:miter;"/>
   </g>
   <g id="patch_15">
    <path clip-path="url(#p2c4d601ec7)" d="M 415.559055 487.559055 
L 415.559055 487.559055 
L 415.559055 487.559055 
L 415.559055 487.559055 
L 415.559055 487.559055 
" style="fill:#ffffff;stroke:#000000;stroke-linejoin:miter;"/>
   </g>
   <g id="patch_16">
    <path clip-path="url(#p2c4d601ec7)" d="M 288 615.11811 
L 288 615.11811 
L 288 615.11811 
L 288 615.11811 
L 288 615.11811 
" style="fill:#ffffff;stroke:#000000;stroke-linejoin:miter;"/>
   </g>
   <g id="patch_17">
    <path clip-path="url(#p2c4d601ec7)" d="M 415.559055 551.338583 
L 415.559055 551.338583 
L 415.559055 551.338583 
L 415.559055 551.338583 
L 415.559055 551.338583 
" style="fill:#ffffff;stroke:#000000;stroke-linejoin:miter;"/>
   </g>
   <g id="patch_18">
    <path clip-path="url(#p2c4d601ec7)" d="M 415.559055 615.11811 
L 415.559055 615.11811 
L 415.559055 615.11811 
L 415.559055 615.11811 
L 415.559055 615.11811 
" style="fill:#ffffff;stroke:#000000;stroke-linejoin:miter;"/>
   </g>
   <g id="PathCollection_1">
    <defs>
     <path d="M 0 0 
L 0 0 
L 0 0 
L 0 0 
z
" id="m58d20d24bd" style="stroke:#000000;"/>
    </defs>
    <g clip-path="url(#p2c4d601ec7)">
     <use style="fill:#ffffff;stroke:#000000;" x="224.220472" xlink:href="#m58d20d24bd" y="104.88189"/>
     <use style="fill:#ffffff;stroke:#000000;" x="351.779528" xlink:href="#m58d20d24bd" y="104.88189"/>
     <use style="fill:#ffffff;stroke:#000000;" x="288" xlink:href="#m58d20d24bd" y="232.440945"/>
     <use style="fill:#ffffff;stroke:#000000;" x="160.440945" xlink:href="#m58d20d24bd" y="423.779528"/>
     <use style="fill:#ffffff;stroke:#000000;" x="288" xlink:href="#m58d20d24bd" y="487.559055"/>
     <use style="fill:#ffffff;stroke:#000000;" x="415.559055" xlink:href="#m58d20d24bd" y="423.779528"/>
     <use style="fill:#ffffff;stroke:#000000;" x="288" xlink:href="#m58d20d24bd" y="551.338583"/>
     <use style="fill:#ffffff;stroke:#000000;" x="415.559055" xlink:href="#m58d20d24bd" y="487.559055"/>
     <use style="fill:#ffffff;stroke:#000000;" x="288" xlink:href="#m58d20d24bd" y="615.11811"/>
     <use style="fill:#ffffff;stroke:#000000;" x="415.559055" xlink:href="#m58d20d24bd" y="551.338583"/>
     <use style="fill:#ffffff;stroke:#000000;" x="415.559055" xlink:href="#m58d20d24bd" y="615.11811"/>
    </g>
   </g>
   <g id="text_1">
    <!-- 99,75%          -->
    <g transform="translate(214.523578 183.503359)scale(0.1 -0.1)">
     <defs>
      <path d="M 703 97 
L 703 672 
Q 941 559 1184 500 
Q 1428 441 1663 441 
Q 2288 441 2617 861 
Q 2947 1281 2994 2138 
Q 2813 1869 2534 1725 
Q 2256 1581 1919 1581 
Q 1219 1581 811 2004 
Q 403 2428 403 3163 
Q 403 3881 828 4315 
Q 1253 4750 1959 4750 
Q 2769 4750 3195 4129 
Q 3622 3509 3622 2328 
Q 3622 1225 3098 567 
Q 2575 -91 1691 -91 
Q 1453 -91 1209 -44 
Q 966 3 703 97 
z
M 1959 2075 
Q 2384 2075 2632 2365 
Q 2881 2656 2881 3163 
Q 2881 3666 2632 3958 
Q 2384 4250 1959 4250 
Q 1534 4250 1286 3958 
Q 1038 3666 1038 3163 
Q 1038 2656 1286 2365 
Q 1534 2075 1959 2075 
z
" id="DejaVuSans-39" transform="scale(0.015625)"/>
      <path d="M 750 794 
L 1409 794 
L 1409 256 
L 897 -744 
L 494 -744 
L 750 256 
L 750 794 
z
" id="DejaVuSans-2c" transform="scale(0.015625)"/>
      <path d="M 525 4666 
L 3525 4666 
L 3525 4397 
L 1831 0 
L 1172 0 
L 2766 4134 
L 525 4134 
L 525 4666 
z
" id="DejaVuSans-37" transform="scale(0.015625)"/>
      <path d="M 691 4666 
L 3169 4666 
L 3169 4134 
L 1269 4134 
L 1269 2991 
Q 1406 3038 1543 3061 
Q 1681 3084 1819 3084 
Q 2600 3084 3056 2656 
Q 3513 2228 3513 1497 
Q 3513 744 3044 326 
Q 2575 -91 1722 -91 
Q 1428 -91 1123 -41 
Q 819 9 494 109 
L 494 744 
Q 775 591 1075 516 
Q 1375 441 1709 441 
Q 2250 441 2565 725 
Q 2881 1009 2881 1497 
Q 2881 1984 2565 2268 
Q 2250 2553 1709 2553 
Q 1456 2553 1204 2497 
Q 953 2441 691 2322 
L 691 4666 
z
" id="DejaVuSans-35" transform="scale(0.015625)"/>
      <path d="M 4653 2053 
Q 4381 2053 4226 1822 
Q 4072 1591 4072 1178 
Q 4072 772 4226 539 
Q 4381 306 4653 306 
Q 4919 306 5073 539 
Q 5228 772 5228 1178 
Q 5228 1588 5073 1820 
Q 4919 2053 4653 2053 
z
M 4653 2450 
Q 5147 2450 5437 2106 
Q 5728 1763 5728 1178 
Q 5728 594 5436 251 
Q 5144 -91 4653 -91 
Q 4153 -91 3862 251 
Q 3572 594 3572 1178 
Q 3572 1766 3864 2108 
Q 4156 2450 4653 2450 
z
M 1428 4353 
Q 1159 4353 1004 4120 
Q 850 3888 850 3481 
Q 850 3069 1003 2837 
Q 1156 2606 1428 2606 
Q 1700 2606 1854 2837 
Q 2009 3069 2009 3481 
Q 2009 3884 1853 4118 
Q 1697 4353 1428 4353 
z
M 4250 4750 
L 4750 4750 
L 1831 -91 
L 1331 -91 
L 4250 4750 
z
M 1428 4750 
Q 1922 4750 2215 4408 
Q 2509 4066 2509 3481 
Q 2509 2891 2217 2550 
Q 1925 2209 1428 2209 
Q 931 2209 642 2551 
Q 353 2894 353 3481 
Q 353 4063 643 4406 
Q 934 4750 1428 4750 
z
" id="DejaVuSans-25" transform="scale(0.015625)"/>
      <path id="DejaVuSans-20" transform="scale(0.015625)"/>
     </defs>
     <use xlink:href="#DejaVuSans-39"/>
     <use x="63.623047" xlink:href="#DejaVuSans-39"/>
     <use x="127.246094" xlink:href="#DejaVuSans-2c"/>
     <use x="159.033203" xlink:href="#DejaVuSans-37"/>
     <use x="222.65625" xlink:href="#DejaVuSans-35"/>
     <use x="286.279297" xlink:href="#DejaVuSans-25"/>
     <use x="381.298828" xlink:href="#DejaVuSans-20"/>
     <use x="413.085938" xlink:href="#DejaVuSans-20"/>
     <use x="444.873047" xlink:href="#DejaVuSans-20"/>
     <use x="476.660156" xlink:href="#DejaVuSans-20"/>
     <use x="508.447266" xlink:href="#DejaVuSans-20"/>
     <use x="540.234375" xlink:href="#DejaVuSans-20"/>
     <use x="572.021484" xlink:href="#DejaVuSans-20"/>
     <use x="603.808594" xlink:href="#DejaVuSans-20"/>
     <use x="635.595703" xlink:href="#DejaVuSans-20"/>
    </g>
   </g>
   <g id="text_2">
    <!--     0,25% -->
    <g transform="translate(305.870172 183.503359)scale(0.1 -0.1)">
     <defs>
      <path d="M 2034 4250 
Q 1547 4250 1301 3770 
Q 1056 3291 1056 2328 
Q 1056 1369 1301 889 
Q 1547 409 2034 409 
Q 2525 409 2770 889 
Q 3016 1369 3016 2328 
Q 3016 3291 2770 3770 
Q 2525 4250 2034 4250 
z
M 2034 4750 
Q 2819 4750 3233 4129 
Q 3647 3509 3647 2328 
Q 3647 1150 3233 529 
Q 2819 -91 2034 -91 
Q 1250 -91 836 529 
Q 422 1150 422 2328 
Q 422 3509 836 4129 
Q 1250 4750 2034 4750 
z
" id="DejaVuSans-30" transform="scale(0.015625)"/>
      <path d="M 1228 531 
L 3431 531 
L 3431 0 
L 469 0 
L 469 531 
Q 828 903 1448 1529 
Q 2069 2156 2228 2338 
Q 2531 2678 2651 2914 
Q 2772 3150 2772 3378 
Q 2772 3750 2511 3984 
Q 2250 4219 1831 4219 
Q 1534 4219 1204 4116 
Q 875 4013 500 3803 
L 500 4441 
Q 881 4594 1212 4672 
Q 1544 4750 1819 4750 
Q 2544 4750 2975 4387 
Q 3406 4025 3406 3419 
Q 3406 3131 3298 2873 
Q 3191 2616 2906 2266 
Q 2828 2175 2409 1742 
Q 1991 1309 1228 531 
z
" id="DejaVuSans-32" transform="scale(0.015625)"/>
     </defs>
     <use xlink:href="#DejaVuSans-20"/>
     <use x="31.787109" xlink:href="#DejaVuSans-20"/>
     <use x="63.574219" xlink:href="#DejaVuSans-20"/>
     <use x="95.361328" xlink:href="#DejaVuSans-20"/>
     <use x="127.148438" xlink:href="#DejaVuSans-30"/>
     <use x="190.771484" xlink:href="#DejaVuSans-2c"/>
     <use x="222.558594" xlink:href="#DejaVuSans-32"/>
     <use x="286.181641" xlink:href="#DejaVuSans-35"/>
     <use x="349.804688" xlink:href="#DejaVuSans-25"/>
    </g>
   </g>
   <g id="text_3">
    <!--  I -->
    <g transform="translate(225.392012 341.913337)scale(0.1 -0.1)">
     <defs>
      <path d="M 628 4666 
L 1259 4666 
L 1259 0 
L 628 0 
L 628 4666 
z
" id="DejaVuSans-49" transform="scale(0.015625)"/>
     </defs>
     <use xlink:href="#DejaVuSans-20"/>
     <use x="31.787109" xlink:href="#DejaVuSans-49"/>
    </g>
    <!-- 91% -->
    <g transform="translate(217.342793 353.11115)scale(0.1 -0.1)">
     <defs>
      <path d="M 794 531 
L 1825 531 
L 1825 4091 
L 703 3866 
L 703 4441 
L 1819 4666 
L 2450 4666 
L 2450 531 
L 3481 531 
L 3481 0 
L 794 0 
L 794 531 
z
" id="DejaVuSans-31" transform="scale(0.015625)"/>
     </defs>
     <use xlink:href="#DejaVuSans-39"/>
     <use x="63.623047" xlink:href="#DejaVuSans-31"/>
     <use x="127.246094" xlink:href="#DejaVuSans-25"/>
    </g>
   </g>
   <g id="text_4">
    <!-- II -->
    <g transform="translate(272.294094 369.916374)scale(0.1 -0.1)">
     <use xlink:href="#DejaVuSans-49"/>
     <use x="29.492188" xlink:href="#DejaVuSans-49"/>
    </g>
    <!-- 9% -->
    <g transform="translate(267.312063 381.114187)scale(0.1 -0.1)">
     <use xlink:href="#DejaVuSans-39"/>
     <use x="63.623047" xlink:href="#DejaVuSans-25"/>
    </g>
   </g>
   <g id="text_5">
    <!-- III -->
    <g transform="translate(343.118925 341.913337)scale(0.1 -0.1)">
     <use xlink:href="#DejaVuSans-49"/>
     <use x="29.492188" xlink:href="#DejaVuSans-49"/>
     <use x="58.984375" xlink:href="#DejaVuSans-49"/>
    </g>
    <!-- 0.1%  -->
    <g transform="translate(333.252519 353.11115)scale(0.1 -0.1)">
     <defs>
      <path d="M 684 794 
L 1344 794 
L 1344 0 
L 684 0 
L 684 794 
z
" id="DejaVuSans-2e" transform="scale(0.015625)"/>
     </defs>
     <use xlink:href="#DejaVuSans-30"/>
     <use x="63.623047" xlink:href="#DejaVuSans-2e"/>
     <use x="95.410156" xlink:href="#DejaVuSans-31"/>
     <use x="159.033203" xlink:href="#DejaVuSans-25"/>
     <use x="254.052734" xlink:href="#DejaVuSans-20"/>
    </g>
   </g>
   <g id="text_6">
    <!-- ¹H+¹H → ²H + e -->
    <g transform="translate(184.923597 107.641265)scale(0.1 -0.1)">
     <defs>
      <path d="M 488 2431 
L 1125 2431 
L 1125 4341 
L 428 4213 
L 428 4575 
L 1147 4697 
L 1575 4697 
L 1575 2431 
L 2216 2431 
L 2216 2088 
L 488 2088 
L 488 2431 
z
" id="DejaVuSans-b9" transform="scale(0.015625)"/>
      <path d="M 628 4666 
L 1259 4666 
L 1259 2753 
L 3553 2753 
L 3553 4666 
L 4184 4666 
L 4184 0 
L 3553 0 
L 3553 2222 
L 1259 2222 
L 1259 0 
L 628 0 
L 628 4666 
z
" id="DejaVuSans-48" transform="scale(0.015625)"/>
      <path d="M 2944 4013 
L 2944 2272 
L 4684 2272 
L 4684 1741 
L 2944 1741 
L 2944 0 
L 2419 0 
L 2419 1741 
L 678 1741 
L 678 2272 
L 2419 2272 
L 2419 4013 
L 2944 4013 
z
" id="DejaVuSans-2b" transform="scale(0.015625)"/>
      <path d="M 5050 2147 
L 5050 1866 
L 3822 638 
L 3447 1013 
L 4175 1741 
L 366 1741 
L 366 2272 
L 4175 2272 
L 3447 3000 
L 3822 3375 
L 5050 2147 
z
" id="DejaVuSans-2192" transform="scale(0.015625)"/>
      <path d="M 838 2444 
L 2163 2444 
L 2163 2088 
L 294 2088 
L 294 2431 
Q 400 2528 597 2703 
Q 1672 3656 1672 3950 
Q 1672 4156 1509 4282 
Q 1347 4409 1081 4409 
Q 919 4409 728 4354 
Q 538 4300 313 4191 
L 313 4575 
Q 553 4663 761 4706 
Q 969 4750 1147 4750 
Q 1600 4750 1872 4544 
Q 2144 4338 2144 4000 
Q 2144 3566 1109 2678 
Q 934 2528 838 2444 
z
" id="DejaVuSans-b2" transform="scale(0.015625)"/>
      <path d="M 3597 1894 
L 3597 1613 
L 953 1613 
Q 991 1019 1311 708 
Q 1631 397 2203 397 
Q 2534 397 2845 478 
Q 3156 559 3463 722 
L 3463 178 
Q 3153 47 2828 -22 
Q 2503 -91 2169 -91 
Q 1331 -91 842 396 
Q 353 884 353 1716 
Q 353 2575 817 3079 
Q 1281 3584 2069 3584 
Q 2775 3584 3186 3129 
Q 3597 2675 3597 1894 
z
M 3022 2063 
Q 3016 2534 2758 2815 
Q 2500 3097 2075 3097 
Q 1594 3097 1305 2825 
Q 1016 2553 972 2059 
L 3022 2063 
z
" id="DejaVuSans-65" transform="scale(0.015625)"/>
     </defs>
     <use xlink:href="#DejaVuSans-b9"/>
     <use x="40.087891" xlink:href="#DejaVuSans-48"/>
     <use x="115.283203" xlink:href="#DejaVuSans-2b"/>
     <use x="199.072266" xlink:href="#DejaVuSans-b9"/>
     <use x="239.160156" xlink:href="#DejaVuSans-48"/>
     <use x="314.355469" xlink:href="#DejaVuSans-20"/>
     <use x="346.142578" xlink:href="#DejaVuSans-2192"/>
     <use x="429.931641" xlink:href="#DejaVuSans-20"/>
     <use x="461.71875" xlink:href="#DejaVuSans-b2"/>
     <use x="501.806641" xlink:href="#DejaVuSans-48"/>
     <use x="577.001953" xlink:href="#DejaVuSans-20"/>
     <use x="608.789062" xlink:href="#DejaVuSans-2b"/>
     <use x="692.578125" xlink:href="#DejaVuSans-20"/>
     <use x="724.365234" xlink:href="#DejaVuSans-65"/>
    </g>
   </g>
   <g id="text_7">
    <!-- ¹H+¹H+e → ²H -->
    <g transform="translate(315.660778 107.641265)scale(0.1 -0.1)">
     <use xlink:href="#DejaVuSans-b9"/>
     <use x="40.087891" xlink:href="#DejaVuSans-48"/>
     <use x="115.283203" xlink:href="#DejaVuSans-2b"/>
     <use x="199.072266" xlink:href="#DejaVuSans-b9"/>
     <use x="239.160156" xlink:href="#DejaVuSans-48"/>
     <use x="314.355469" xlink:href="#DejaVuSans-2b"/>
     <use x="398.144531" xlink:href="#DejaVuSans-65"/>
     <use x="459.667969" xlink:href="#DejaVuSans-20"/>
     <use x="491.455078" xlink:href="#DejaVuSans-2192"/>
     <use x="575.244141" xlink:href="#DejaVuSans-20"/>
     <use x="607.03125" xlink:href="#DejaVuSans-b2"/>
     <use x="647.119141" xlink:href="#DejaVuSans-48"/>
    </g>
   </g>
   <g id="text_8">
    <!-- ²H+H → ³H -->
    <g transform="translate(261.152344 235.20032)scale(0.1 -0.1)">
     <defs>
      <path d="M 1638 3500 
Q 1925 3444 2083 3273 
Q 2241 3103 2241 2847 
Q 2241 2459 1944 2250 
Q 1647 2041 1094 2041 
Q 916 2041 720 2073 
Q 525 2106 306 2169 
L 306 2547 
Q 469 2463 655 2422 
Q 841 2381 1050 2381 
Q 1391 2381 1578 2504 
Q 1766 2628 1766 2847 
Q 1766 3078 1592 3197 
Q 1419 3316 1081 3316 
L 813 3316 
L 813 3653 
L 1106 3653 
Q 1400 3653 1551 3751 
Q 1703 3850 1703 4038 
Q 1703 4219 1547 4314 
Q 1391 4409 1094 4409 
Q 969 4409 809 4381 
Q 650 4353 397 4281 
L 397 4641 
Q 625 4694 825 4722 
Q 1025 4750 1197 4750 
Q 1647 4750 1911 4565 
Q 2175 4381 2175 4072 
Q 2175 3856 2034 3706 
Q 1894 3556 1638 3500 
z
" id="DejaVuSans-b3" transform="scale(0.015625)"/>
     </defs>
     <use xlink:href="#DejaVuSans-b2"/>
     <use x="40.087891" xlink:href="#DejaVuSans-48"/>
     <use x="115.283203" xlink:href="#DejaVuSans-2b"/>
     <use x="199.072266" xlink:href="#DejaVuSans-48"/>
     <use x="274.267578" xlink:href="#DejaVuSans-20"/>
     <use x="306.054688" xlink:href="#DejaVuSans-2192"/>
     <use x="389.84375" xlink:href="#DejaVuSans-20"/>
     <use x="421.630859" xlink:href="#DejaVuSans-b3"/>
     <use x="461.71875" xlink:href="#DejaVuSans-48"/>
    </g>
   </g>
   <g id="text_9">
    <!-- ³He + ³He → ⁴He + 2 ¹H -->
    <g transform="translate(101.277664 426.538903)scale(0.1 -0.1)">
     <defs>
      <path d="M 1491 4319 
L 525 3009 
L 1491 3009 
L 1491 4319 
z
M 1422 4697 
L 1941 4697 
L 1941 3009 
L 2363 3009 
L 2363 2669 
L 1941 2669 
L 1941 2088 
L 1491 2088 
L 1491 2669 
L 197 2669 
L 197 3047 
L 1422 4697 
z
" id="DejaVuSans-2074" transform="scale(0.015625)"/>
     </defs>
     <use xlink:href="#DejaVuSans-b3"/>
     <use x="40.087891" xlink:href="#DejaVuSans-48"/>
     <use x="115.283203" xlink:href="#DejaVuSans-65"/>
     <use x="176.806641" xlink:href="#DejaVuSans-20"/>
     <use x="208.59375" xlink:href="#DejaVuSans-2b"/>
     <use x="292.382812" xlink:href="#DejaVuSans-20"/>
     <use x="324.169922" xlink:href="#DejaVuSans-b3"/>
     <use x="364.257812" xlink:href="#DejaVuSans-48"/>
     <use x="439.453125" xlink:href="#DejaVuSans-65"/>
     <use x="500.976562" xlink:href="#DejaVuSans-20"/>
     <use x="532.763672" xlink:href="#DejaVuSans-2192"/>
     <use x="616.552734" xlink:href="#DejaVuSans-20"/>
     <use x="648.339844" xlink:href="#DejaVuSans-2074"/>
     <use x="688.427734" xlink:href="#DejaVuSans-48"/>
     <use x="763.623047" xlink:href="#DejaVuSans-65"/>
     <use x="825.146484" xlink:href="#DejaVuSans-20"/>
     <use x="856.933594" xlink:href="#DejaVuSans-2b"/>
     <use x="940.722656" xlink:href="#DejaVuSans-20"/>
     <use x="972.509766" xlink:href="#DejaVuSans-32"/>
     <use x="1036.132812" xlink:href="#DejaVuSans-20"/>
     <use x="1067.919922" xlink:href="#DejaVuSans-b9"/>
     <use x="1108.007812" xlink:href="#DejaVuSans-48"/>
    </g>
   </g>
   <g id="text_10">
    <!-- ³He + ⁴He → ⁷Be -->
    <g transform="translate(247.069531 490.31843)scale(0.1 -0.1)">
     <defs>
      <path d="M 338 4697 
L 2266 4697 
L 2266 4547 
L 1178 2088 
L 753 2088 
L 1778 4400 
L 338 4400 
L 338 4697 
z
" id="DejaVuSans-2077" transform="scale(0.015625)"/>
      <path d="M 1259 2228 
L 1259 519 
L 2272 519 
Q 2781 519 3026 730 
Q 3272 941 3272 1375 
Q 3272 1813 3026 2020 
Q 2781 2228 2272 2228 
L 1259 2228 
z
M 1259 4147 
L 1259 2741 
L 2194 2741 
Q 2656 2741 2882 2914 
Q 3109 3088 3109 3444 
Q 3109 3797 2882 3972 
Q 2656 4147 2194 4147 
L 1259 4147 
z
M 628 4666 
L 2241 4666 
Q 2963 4666 3353 4366 
Q 3744 4066 3744 3513 
Q 3744 3084 3544 2831 
Q 3344 2578 2956 2516 
Q 3422 2416 3680 2098 
Q 3938 1781 3938 1306 
Q 3938 681 3513 340 
Q 3088 0 2303 0 
L 628 0 
L 628 4666 
z
" id="DejaVuSans-42" transform="scale(0.015625)"/>
     </defs>
     <use xlink:href="#DejaVuSans-b3"/>
     <use x="40.087891" xlink:href="#DejaVuSans-48"/>
     <use x="115.283203" xlink:href="#DejaVuSans-65"/>
     <use x="176.806641" xlink:href="#DejaVuSans-20"/>
     <use x="208.59375" xlink:href="#DejaVuSans-2b"/>
     <use x="292.382812" xlink:href="#DejaVuSans-20"/>
     <use x="324.169922" xlink:href="#DejaVuSans-2074"/>
     <use x="364.257812" xlink:href="#DejaVuSans-48"/>
     <use x="439.453125" xlink:href="#DejaVuSans-65"/>
     <use x="500.976562" xlink:href="#DejaVuSans-20"/>
     <use x="532.763672" xlink:href="#DejaVuSans-2192"/>
     <use x="616.552734" xlink:href="#DejaVuSans-20"/>
     <use x="648.339844" xlink:href="#DejaVuSans-2077"/>
     <use x="688.427734" xlink:href="#DejaVuSans-42"/>
     <use x="757.03125" xlink:href="#DejaVuSans-65"/>
    </g>
   </g>
   <g id="text_11">
    <!-- ³He + ⁴He → ⁷Be -->
    <g transform="translate(374.628586 426.538903)scale(0.1 -0.1)">
     <use xlink:href="#DejaVuSans-b3"/>
     <use x="40.087891" xlink:href="#DejaVuSans-48"/>
     <use x="115.283203" xlink:href="#DejaVuSans-65"/>
     <use x="176.806641" xlink:href="#DejaVuSans-20"/>
     <use x="208.59375" xlink:href="#DejaVuSans-2b"/>
     <use x="292.382812" xlink:href="#DejaVuSans-20"/>
     <use x="324.169922" xlink:href="#DejaVuSans-2074"/>
     <use x="364.257812" xlink:href="#DejaVuSans-48"/>
     <use x="439.453125" xlink:href="#DejaVuSans-65"/>
     <use x="500.976562" xlink:href="#DejaVuSans-20"/>
     <use x="532.763672" xlink:href="#DejaVuSans-2192"/>
     <use x="616.552734" xlink:href="#DejaVuSans-20"/>
     <use x="648.339844" xlink:href="#DejaVuSans-2077"/>
     <use x="688.427734" xlink:href="#DejaVuSans-42"/>
     <use x="757.03125" xlink:href="#DejaVuSans-65"/>
    </g>
   </g>
   <g id="text_12">
    <!-- ⁷Be + e → ⁷Li + ν_e -->
    <g transform="translate(239.758594 553.958895)scale(0.1 -0.1)">
     <defs>
      <path d="M 628 4666 
L 1259 4666 
L 1259 531 
L 3531 531 
L 3531 0 
L 628 0 
L 628 4666 
z
" id="DejaVuSans-4c" transform="scale(0.015625)"/>
      <path d="M 603 3500 
L 1178 3500 
L 1178 0 
L 603 0 
L 603 3500 
z
M 603 4863 
L 1178 4863 
L 1178 4134 
L 603 4134 
L 603 4863 
z
" id="DejaVuSans-69" transform="scale(0.015625)"/>
      <path d="M 1300 0 
L 231 3500 
L 850 3500 
L 1753 563 
Q 2128 950 2441 1488 
Q 2678 1891 2691 2241 
Q 2697 2406 2622 2719 
Q 2534 3091 2203 3500 
L 2784 3500 
L 2784 3500 
Q 3000 3222 3144 2834 
Q 3275 2478 3275 2234 
Q 3275 1622 2850 1075 
Q 2297 363 1913 0 
L 1300 0 
z
" id="DejaVuSans-3bd" transform="scale(0.015625)"/>
      <path d="M 3263 -1063 
L 3263 -1509 
L -63 -1509 
L -63 -1063 
L 3263 -1063 
z
" id="DejaVuSans-5f" transform="scale(0.015625)"/>
     </defs>
     <use xlink:href="#DejaVuSans-2077"/>
     <use x="40.087891" xlink:href="#DejaVuSans-42"/>
     <use x="108.691406" xlink:href="#DejaVuSans-65"/>
     <use x="170.214844" xlink:href="#DejaVuSans-20"/>
     <use x="202.001953" xlink:href="#DejaVuSans-2b"/>
     <use x="285.791016" xlink:href="#DejaVuSans-20"/>
     <use x="317.578125" xlink:href="#DejaVuSans-65"/>
     <use x="379.101562" xlink:href="#DejaVuSans-20"/>
     <use x="410.888672" xlink:href="#DejaVuSans-2192"/>
     <use x="494.677734" xlink:href="#DejaVuSans-20"/>
     <use x="526.464844" xlink:href="#DejaVuSans-2077"/>
     <use x="566.552734" xlink:href="#DejaVuSans-4c"/>
     <use x="622.265625" xlink:href="#DejaVuSans-69"/>
     <use x="650.048828" xlink:href="#DejaVuSans-20"/>
     <use x="681.835938" xlink:href="#DejaVuSans-2b"/>
     <use x="765.625" xlink:href="#DejaVuSans-20"/>
     <use x="797.412109" xlink:href="#DejaVuSans-3bd"/>
     <use x="853.271484" xlink:href="#DejaVuSans-5f"/>
     <use x="903.271484" xlink:href="#DejaVuSans-65"/>
    </g>
   </g>
   <g id="text_13">
    <!-- ⁷Be + ¹H → ⁸B + γ -->
    <g transform="translate(370.784055 490.31843)scale(0.1 -0.1)">
     <defs>
      <path d="M 1766 3194 
Q 1600 3331 1309 3331 
Q 1019 3331 853 3194 
Q 688 3059 688 2825 
Q 688 2588 853 2453 
Q 1019 2319 1309 2319 
Q 1597 2319 1766 2456 
Q 1931 2591 1931 2825 
Q 1931 3059 1766 3194 
z
M 903 3484 
Q 641 3541 497 3694 
Q 350 3850 350 4075 
Q 350 4388 606 4569 
Q 863 4750 1309 4750 
Q 1756 4750 2013 4569 
Q 2266 4388 2266 4075 
Q 2266 3844 2122 3694 
Q 1975 3541 1716 3484 
Q 1997 3428 2172 3247 
Q 2338 3075 2338 2825 
Q 2338 2447 2072 2244 
Q 1803 2041 1309 2041 
Q 813 2041 547 2244 
Q 278 2447 278 2825 
Q 278 3069 444 3247 
Q 613 3422 903 3484 
z
M 753 4041 
Q 753 3844 900 3725 
Q 1044 3609 1309 3609 
Q 1563 3609 1716 3725 
Q 1866 3838 1866 4041 
Q 1866 4238 1716 4356 
Q 1569 4472 1309 4472 
Q 1050 4472 900 4356 
Q 753 4244 753 4041 
z
" id="DejaVuSans-2078" transform="scale(0.015625)"/>
      <path d="M 1128 2950 
L 1894 788 
L 2988 3500 
L 3597 3500 
L 2181 0 
L 2181 -1331 
L 1606 -1331 
L 1606 0 
L 688 2613 
Q 550 3006 253 3006 
L 100 3006 
L 100 3500 
L 319 3500 
Q 934 3500 1128 2950 
z
" id="DejaVuSans-3b3" transform="scale(0.015625)"/>
     </defs>
     <use xlink:href="#DejaVuSans-2077"/>
     <use x="40.087891" xlink:href="#DejaVuSans-42"/>
     <use x="108.691406" xlink:href="#DejaVuSans-65"/>
     <use x="170.214844" xlink:href="#DejaVuSans-20"/>
     <use x="202.001953" xlink:href="#DejaVuSans-2b"/>
     <use x="285.791016" xlink:href="#DejaVuSans-20"/>
     <use x="317.578125" xlink:href="#DejaVuSans-b9"/>
     <use x="357.666016" xlink:href="#DejaVuSans-48"/>
     <use x="432.861328" xlink:href="#DejaVuSans-20"/>
     <use x="464.648438" xlink:href="#DejaVuSans-2192"/>
     <use x="548.4375" xlink:href="#DejaVuSans-20"/>
     <use x="580.224609" xlink:href="#DejaVuSans-2078"/>
     <use x="620.3125" xlink:href="#DejaVuSans-42"/>
     <use x="688.916016" xlink:href="#DejaVuSans-20"/>
     <use x="720.703125" xlink:href="#DejaVuSans-2b"/>
     <use x="804.492188" xlink:href="#DejaVuSans-20"/>
     <use x="836.279297" xlink:href="#DejaVuSans-3b3"/>
    </g>
   </g>
   <g id="text_14">
    <!-- ⁷Li + ¹H -&gt; ⁴He + ⁴He -->
    <g transform="translate(234.464844 617.877485)scale(0.1 -0.1)">
     <defs>
      <path d="M 313 2009 
L 1997 2009 
L 1997 1497 
L 313 1497 
L 313 2009 
z
" id="DejaVuSans-2d" transform="scale(0.015625)"/>
      <path d="M 678 3150 
L 678 3719 
L 4684 2266 
L 4684 1747 
L 678 294 
L 678 863 
L 3897 2003 
L 678 3150 
z
" id="DejaVuSans-3e" transform="scale(0.015625)"/>
     </defs>
     <use xlink:href="#DejaVuSans-2077"/>
     <use x="40.087891" xlink:href="#DejaVuSans-4c"/>
     <use x="95.800781" xlink:href="#DejaVuSans-69"/>
     <use x="123.583984" xlink:href="#DejaVuSans-20"/>
     <use x="155.371094" xlink:href="#DejaVuSans-2b"/>
     <use x="239.160156" xlink:href="#DejaVuSans-20"/>
     <use x="270.947266" xlink:href="#DejaVuSans-b9"/>
     <use x="311.035156" xlink:href="#DejaVuSans-48"/>
     <use x="386.230469" xlink:href="#DejaVuSans-20"/>
     <use x="418.017578" xlink:href="#DejaVuSans-2d"/>
     <use x="454.101562" xlink:href="#DejaVuSans-3e"/>
     <use x="537.890625" xlink:href="#DejaVuSans-20"/>
     <use x="569.677734" xlink:href="#DejaVuSans-2074"/>
     <use x="609.765625" xlink:href="#DejaVuSans-48"/>
     <use x="684.960938" xlink:href="#DejaVuSans-65"/>
     <use x="746.484375" xlink:href="#DejaVuSans-20"/>
     <use x="778.271484" xlink:href="#DejaVuSans-2b"/>
     <use x="862.060547" xlink:href="#DejaVuSans-20"/>
     <use x="893.847656" xlink:href="#DejaVuSans-2074"/>
     <use x="933.935547" xlink:href="#DejaVuSans-48"/>
     <use x="1009.130859" xlink:href="#DejaVuSans-65"/>
    </g>
   </g>
   <g id="text_15">
    <!-- ⁸B -&gt; ⁷Be +e + ν -->
    <g transform="translate(373.423899 554.097958)scale(0.1 -0.1)">
     <use xlink:href="#DejaVuSans-2078"/>
     <use x="40.087891" xlink:href="#DejaVuSans-42"/>
     <use x="108.691406" xlink:href="#DejaVuSans-20"/>
     <use x="140.478516" xlink:href="#DejaVuSans-2d"/>
     <use x="176.5625" xlink:href="#DejaVuSans-3e"/>
     <use x="260.351562" xlink:href="#DejaVuSans-20"/>
     <use x="292.138672" xlink:href="#DejaVuSans-2077"/>
     <use x="332.226562" xlink:href="#DejaVuSans-42"/>
     <use x="400.830078" xlink:href="#DejaVuSans-65"/>
     <use x="462.353516" xlink:href="#DejaVuSans-20"/>
     <use x="494.140625" xlink:href="#DejaVuSans-2b"/>
     <use x="577.929688" xlink:href="#DejaVuSans-65"/>
     <use x="639.453125" xlink:href="#DejaVuSans-20"/>
     <use x="671.240234" xlink:href="#DejaVuSans-2b"/>
     <use x="755.029297" xlink:href="#DejaVuSans-20"/>
     <use x="786.816406" xlink:href="#DejaVuSans-3bd"/>
    </g>
   </g>
   <g id="text_16">
    <!-- ⁸Be -&gt; ⁴He + ⁴He -->
    <g transform="translate(372.82468 617.877485)scale(0.1 -0.1)">
     <use xlink:href="#DejaVuSans-2078"/>
     <use x="40.087891" xlink:href="#DejaVuSans-42"/>
     <use x="108.691406" xlink:href="#DejaVuSans-65"/>
     <use x="170.214844" xlink:href="#DejaVuSans-20"/>
     <use x="202.001953" xlink:href="#DejaVuSans-2d"/>
     <use x="238.085938" xlink:href="#DejaVuSans-3e"/>
     <use x="321.875" xlink:href="#DejaVuSans-20"/>
     <use x="353.662109" xlink:href="#DejaVuSans-2074"/>
     <use x="393.75" xlink:href="#DejaVuSans-48"/>
     <use x="468.945312" xlink:href="#DejaVuSans-65"/>
     <use x="530.46875" xlink:href="#DejaVuSans-20"/>
     <use x="562.255859" xlink:href="#DejaVuSans-2b"/>
     <use x="646.044922" xlink:href="#DejaVuSans-20"/>
     <use x="677.832031" xlink:href="#DejaVuSans-2074"/>
     <use x="717.919922" xlink:href="#DejaVuSans-48"/>
     <use x="793.115234" xlink:href="#DejaVuSans-65"/>
    </g>
   </g>
  </g>
 </g>
 <defs>
  <clipPath id="p2c4d601ec7">
   <rect height="714.330709" width="357.165354" x="109.417323" y="2.834646"/>
  </clipPath>
 </defs>
</svg>
