<?xml version="1.0" encoding="UTF-8" standalone="no"?>
<!-- Created with Inkscape (http://www.inkscape.org/) -->

<svg
   width="600"
   height="400"
   viewBox="0 0 158.75001 105.83333"
   version="1.1"
   id="svg5"
   inkscape:version="1.1 (c4e8f9ed74, 2021-05-24)"
   sodipodi:docname="fermi2_illustration.svg"
   xmlns:inkscape="http://www.inkscape.org/namespaces/inkscape"
   xmlns:sodipodi="http://sodipodi.sourceforge.net/DTD/sodipodi-0.dtd"
   xmlns:xlink="http://www.w3.org/1999/xlink"
   xmlns="http://www.w3.org/2000/svg"
   xmlns:svg="http://www.w3.org/2000/svg">
  <sodipodi:namedview
     id="namedview7"
     pagecolor="#ffffff"
     bordercolor="#999999"
     borderopacity="1"
     inkscape:pageshadow="0"
     inkscape:pageopacity="0"
     inkscape:pagecheckerboard="0"
     inkscape:document-units="mm"
     showgrid="false"
     units="px"
     width="600px"
     inkscape:zoom="1.4142136"
     inkscape:cx="258.80108"
     inkscape:cy="127.63277"
     inkscape:window-width="1920"
     inkscape:window-height="1052"
     inkscape:window-x="0"
     inkscape:window-y="360"
     inkscape:window-maximized="1"
     inkscape:current-layer="layer1" />
  <defs
     id="defs2">
    <linearGradient
       id="linearGradient25061"
       inkscape:swatch="solid">
      <stop
         style="stop-color:#aaaaaa;stop-opacity:1;"
         offset="0"
         id="stop25059" />
    </linearGradient>
    <inkscape:path-effect
       effect="simplify"
       id="path-effect22019"
       is_visible="true"
       lpeversion="1"
       steps="1"
       threshold="0.00267081"
       smooth_angles="360"
       helper_size="0"
       simplify_individual_paths="false"
       simplify_just_coalesce="false" />
    <inkscape:path-effect
       effect="simplify"
       id="path-effect22015"
       is_visible="true"
       lpeversion="1"
       steps="1"
       threshold="0.00267081"
       smooth_angles="360"
       helper_size="0"
       simplify_individual_paths="false"
       simplify_just_coalesce="false" />
    <inkscape:path-effect
       effect="simplify"
       id="path-effect22011"
       is_visible="true"
       lpeversion="1"
       steps="1"
       threshold="0.00267081"
       smooth_angles="360"
       helper_size="0"
       simplify_individual_paths="false"
       simplify_just_coalesce="false" />
    <marker
       style="overflow:visible;"
       id="Arrow1Send"
       refX="0.0"
       refY="0.0"
       orient="auto"
       inkscape:stockid="Arrow1Send"
       inkscape:isstock="true">
      <path
         transform="scale(0.2) rotate(180) translate(6,0)"
         style="fill-rule:evenodd;fill:context-stroke;stroke:context-stroke;stroke-width:1.0pt;"
         d="M 0.0,0.0 L 5.0,-5.0 L -12.5,0.0 L 5.0,5.0 L 0.0,0.0 z "
         id="path19867" />
    </marker>
    <marker
       style="overflow:visible"
       id="Arrow1Lstart"
       refX="0.0"
       refY="0.0"
       orient="auto"
       inkscape:stockid="Arrow1Lstart"
       inkscape:isstock="true">
      <path
         transform="scale(0.8) translate(12.5,0)"
         style="fill-rule:evenodd;fill:context-stroke;stroke:context-stroke;stroke-width:1.0pt"
         d="M 0.0,0.0 L 5.0,-5.0 L -12.5,0.0 L 5.0,5.0 L 0.0,0.0 z "
         id="path19852" />
    </marker>
    <marker
       style="overflow:visible;"
       id="Arrow1Lend"
       refX="0.0"
       refY="0.0"
       orient="auto"
       inkscape:stockid="Arrow1Lend"
       inkscape:isstock="true">
      <path
         transform="scale(0.8) rotate(180) translate(12.5,0)"
         style="fill-rule:evenodd;fill:context-stroke;stroke:context-stroke;stroke-width:1.0pt;"
         d="M 0.0,0.0 L 5.0,-5.0 L -12.5,0.0 L 5.0,5.0 L 0.0,0.0 z "
         id="path19855" />
    </marker>
    <inkscape:path-effect
       effect="simplify"
       id="path-effect19639"
       is_visible="true"
       lpeversion="1"
       steps="1"
       threshold="0.00267081"
       smooth_angles="360"
       helper_size="0"
       simplify_individual_paths="false"
       simplify_just_coalesce="false" />
    <linearGradient
       id="linearGradient12525"
       inkscape:swatch="solid">
      <stop
         style="stop-color:#000000;stop-opacity:1;"
         offset="0"
         id="stop12523" />
    </linearGradient>
    <marker
       style="overflow:visible"
       id="Arrow1Lstart-3"
       refX="0"
       refY="0"
       orient="auto"
       inkscape:stockid="Arrow1Lstart"
       inkscape:isstock="true">
      <path
         transform="matrix(0.8,0,0,0.8,10,0)"
         style="fill:context-stroke;fill-rule:evenodd;stroke:context-stroke;stroke-width:1pt"
         d="M 0,0 5,-5 -12.5,0 5,5 Z"
         id="path19852-6" />
    </marker>
    <marker
       style="overflow:visible"
       id="Arrow1Lstart-5"
       refX="0"
       refY="0"
       orient="auto"
       inkscape:stockid="Arrow1Lstart"
       inkscape:isstock="true">
      <path
         transform="matrix(0.8,0,0,0.8,10,0)"
         style="fill:context-stroke;fill-rule:evenodd;stroke:context-stroke;stroke-width:1pt"
         d="M 0,0 5,-5 -12.5,0 5,5 Z"
         id="path19852-3" />
    </marker>
    <marker
       style="overflow:visible"
       id="Arrow1Lstart-6"
       refX="0"
       refY="0"
       orient="auto"
       inkscape:stockid="Arrow1Lstart"
       inkscape:isstock="true">
      <path
         transform="matrix(0.8,0,0,0.8,10,0)"
         style="fill:context-stroke;fill-rule:evenodd;stroke:context-stroke;stroke-width:1pt"
         d="M 0,0 5,-5 -12.5,0 5,5 Z"
         id="path19852-2" />
    </marker>
    <g
       id="g8243">
      <symbol
         overflow="visible"
         id="symbol2831">
        <path
           style="stroke:none;"
           d=""
           id="path1498" />
      </symbol>
      <symbol
         overflow="visible"
         id="symbol223">
        <path
           style="stroke:none;"
           d="M 3.484375 -0.5625 C 3.59375 -0.15625 3.953125 0.109375 4.375 0.109375 C 4.71875 0.109375 4.953125 -0.125 5.109375 -0.4375 C 5.28125 -0.796875 5.40625 -1.40625 5.40625 -1.421875 C 5.40625 -1.53125 5.328125 -1.53125 5.296875 -1.53125 C 5.1875 -1.53125 5.1875 -1.484375 5.15625 -1.34375 C 5.015625 -0.78125 4.828125 -0.109375 4.40625 -0.109375 C 4.203125 -0.109375 4.09375 -0.234375 4.09375 -0.5625 C 4.09375 -0.78125 4.21875 -1.25 4.296875 -1.609375 L 4.578125 -2.6875 C 4.609375 -2.828125 4.703125 -3.203125 4.75 -3.359375 C 4.796875 -3.59375 4.890625 -3.96875 4.890625 -4.03125 C 4.890625 -4.203125 4.75 -4.296875 4.609375 -4.296875 C 4.5625 -4.296875 4.296875 -4.28125 4.21875 -3.953125 C 4.03125 -3.21875 3.59375 -1.46875 3.46875 -0.953125 C 3.453125 -0.90625 3.0625 -0.109375 2.328125 -0.109375 C 1.8125 -0.109375 1.71875 -0.5625 1.71875 -0.921875 C 1.71875 -1.484375 2 -2.265625 2.25 -2.953125 C 2.375 -3.265625 2.421875 -3.40625 2.421875 -3.59375 C 2.421875 -4.03125 2.109375 -4.40625 1.609375 -4.40625 C 0.65625 -4.40625 0.296875 -2.953125 0.296875 -2.875 C 0.296875 -2.765625 0.390625 -2.765625 0.40625 -2.765625 C 0.515625 -2.765625 0.515625 -2.796875 0.5625 -2.953125 C 0.8125 -3.8125 1.203125 -4.1875 1.578125 -4.1875 C 1.671875 -4.1875 1.828125 -4.171875 1.828125 -3.859375 C 1.828125 -3.625 1.71875 -3.328125 1.65625 -3.1875 C 1.28125 -2.1875 1.078125 -1.578125 1.078125 -1.09375 C 1.078125 -0.140625 1.765625 0.109375 2.296875 0.109375 C 2.953125 0.109375 3.3125 -0.34375 3.484375 -0.5625 Z M 3.484375 -0.5625 "
           id="path2114" />
      </symbol>
      <symbol
         overflow="visible"
         id="symbol7784">
        <path
           style="stroke:none;"
           d=""
           id="path9346" />
      </symbol>
      <symbol
         overflow="visible"
         id="symbol7157">
        <path
           style="stroke:none;"
           d="M 1.90625 -2.328125 C 2.453125 -2.328125 2.84375 -1.953125 2.84375 -1.203125 C 2.84375 -0.34375 2.328125 -0.078125 1.9375 -0.078125 C 1.65625 -0.078125 1.03125 -0.15625 0.75 -0.578125 C 1.078125 -0.578125 1.15625 -0.8125 1.15625 -0.96875 C 1.15625 -1.1875 0.984375 -1.34375 0.765625 -1.34375 C 0.578125 -1.34375 0.375 -1.21875 0.375 -0.9375 C 0.375 -0.28125 1.09375 0.140625 1.9375 0.140625 C 2.90625 0.140625 3.578125 -0.515625 3.578125 -1.203125 C 3.578125 -1.75 3.140625 -2.296875 2.375 -2.453125 C 3.09375 -2.71875 3.359375 -3.234375 3.359375 -3.671875 C 3.359375 -4.21875 2.734375 -4.625 1.953125 -4.625 C 1.1875 -4.625 0.59375 -4.25 0.59375 -3.6875 C 0.59375 -3.453125 0.75 -3.328125 0.953125 -3.328125 C 1.171875 -3.328125 1.3125 -3.484375 1.3125 -3.671875 C 1.3125 -3.875 1.171875 -4.03125 0.953125 -4.046875 C 1.203125 -4.34375 1.671875 -4.421875 1.9375 -4.421875 C 2.25 -4.421875 2.6875 -4.265625 2.6875 -3.671875 C 2.6875 -3.375 2.59375 -3.046875 2.40625 -2.84375 C 2.1875 -2.578125 1.984375 -2.5625 1.640625 -2.53125 C 1.46875 -2.515625 1.453125 -2.515625 1.421875 -2.515625 C 1.40625 -2.515625 1.34375 -2.5 1.34375 -2.421875 C 1.34375 -2.328125 1.40625 -2.328125 1.53125 -2.328125 Z M 1.90625 -2.328125 "
           id="path8747" />
      </symbol>
    </g>
    <g
       id="g6272">
      <symbol
         overflow="visible"
         id="symbol943">
        <path
           style="stroke:none;"
           d=""
           id="path7717" />
      </symbol>
      <symbol
         overflow="visible"
         id="symbol4396">
        <path
           style="stroke:none;"
           d="M 3.484375 -0.5625 C 3.59375 -0.15625 3.953125 0.109375 4.375 0.109375 C 4.71875 0.109375 4.953125 -0.125 5.109375 -0.4375 C 5.28125 -0.796875 5.40625 -1.40625 5.40625 -1.421875 C 5.40625 -1.53125 5.328125 -1.53125 5.296875 -1.53125 C 5.1875 -1.53125 5.1875 -1.484375 5.15625 -1.34375 C 5.015625 -0.78125 4.828125 -0.109375 4.40625 -0.109375 C 4.203125 -0.109375 4.09375 -0.234375 4.09375 -0.5625 C 4.09375 -0.78125 4.21875 -1.25 4.296875 -1.609375 L 4.578125 -2.6875 C 4.609375 -2.828125 4.703125 -3.203125 4.75 -3.359375 C 4.796875 -3.59375 4.890625 -3.96875 4.890625 -4.03125 C 4.890625 -4.203125 4.75 -4.296875 4.609375 -4.296875 C 4.5625 -4.296875 4.296875 -4.28125 4.21875 -3.953125 C 4.03125 -3.21875 3.59375 -1.46875 3.46875 -0.953125 C 3.453125 -0.90625 3.0625 -0.109375 2.328125 -0.109375 C 1.8125 -0.109375 1.71875 -0.5625 1.71875 -0.921875 C 1.71875 -1.484375 2 -2.265625 2.25 -2.953125 C 2.375 -3.265625 2.421875 -3.40625 2.421875 -3.59375 C 2.421875 -4.03125 2.109375 -4.40625 1.609375 -4.40625 C 0.65625 -4.40625 0.296875 -2.953125 0.296875 -2.875 C 0.296875 -2.765625 0.390625 -2.765625 0.40625 -2.765625 C 0.515625 -2.765625 0.515625 -2.796875 0.5625 -2.953125 C 0.8125 -3.8125 1.203125 -4.1875 1.578125 -4.1875 C 1.671875 -4.1875 1.828125 -4.171875 1.828125 -3.859375 C 1.828125 -3.625 1.71875 -3.328125 1.65625 -3.1875 C 1.28125 -2.1875 1.078125 -1.578125 1.078125 -1.09375 C 1.078125 -0.140625 1.765625 0.109375 2.296875 0.109375 C 2.953125 0.109375 3.3125 -0.34375 3.484375 -0.5625 Z M 3.484375 -0.5625 "
           id="path7176" />
      </symbol>
      <symbol
         overflow="visible"
         id="symbol9806">
        <path
           style="stroke:none;"
           d=""
           id="path4956" />
      </symbol>
      <symbol
         overflow="visible"
         id="symbol5708">
        <path
           style="stroke:none;"
           d="M 1.90625 -2.328125 C 2.453125 -2.328125 2.84375 -1.953125 2.84375 -1.203125 C 2.84375 -0.34375 2.328125 -0.078125 1.9375 -0.078125 C 1.65625 -0.078125 1.03125 -0.15625 0.75 -0.578125 C 1.078125 -0.578125 1.15625 -0.8125 1.15625 -0.96875 C 1.15625 -1.1875 0.984375 -1.34375 0.765625 -1.34375 C 0.578125 -1.34375 0.375 -1.21875 0.375 -0.9375 C 0.375 -0.28125 1.09375 0.140625 1.9375 0.140625 C 2.90625 0.140625 3.578125 -0.515625 3.578125 -1.203125 C 3.578125 -1.75 3.140625 -2.296875 2.375 -2.453125 C 3.09375 -2.71875 3.359375 -3.234375 3.359375 -3.671875 C 3.359375 -4.21875 2.734375 -4.625 1.953125 -4.625 C 1.1875 -4.625 0.59375 -4.25 0.59375 -3.6875 C 0.59375 -3.453125 0.75 -3.328125 0.953125 -3.328125 C 1.171875 -3.328125 1.3125 -3.484375 1.3125 -3.671875 C 1.3125 -3.875 1.171875 -4.03125 0.953125 -4.046875 C 1.203125 -4.34375 1.671875 -4.421875 1.9375 -4.421875 C 2.25 -4.421875 2.6875 -4.265625 2.6875 -3.671875 C 2.6875 -3.375 2.59375 -3.046875 2.40625 -2.84375 C 2.1875 -2.578125 1.984375 -2.5625 1.640625 -2.53125 C 1.46875 -2.515625 1.453125 -2.515625 1.421875 -2.515625 C 1.40625 -2.515625 1.34375 -2.5 1.34375 -2.421875 C 1.34375 -2.328125 1.40625 -2.328125 1.53125 -2.328125 Z M 1.90625 -2.328125 "
           id="path9015" />
      </symbol>
    </g>
    <g
       id="g6067">
      <symbol
         overflow="visible"
         id="symbol8584">
        <path
           style="stroke:none;"
           d=""
           id="path4894" />
      </symbol>
      <symbol
         overflow="visible"
         id="symbol9947">
        <path
           style="stroke:none;"
           d="M 3.484375 -0.5625 C 3.59375 -0.15625 3.953125 0.109375 4.375 0.109375 C 4.71875 0.109375 4.953125 -0.125 5.109375 -0.4375 C 5.28125 -0.796875 5.40625 -1.40625 5.40625 -1.421875 C 5.40625 -1.53125 5.328125 -1.53125 5.296875 -1.53125 C 5.1875 -1.53125 5.1875 -1.484375 5.15625 -1.34375 C 5.015625 -0.78125 4.828125 -0.109375 4.40625 -0.109375 C 4.203125 -0.109375 4.09375 -0.234375 4.09375 -0.5625 C 4.09375 -0.78125 4.21875 -1.25 4.296875 -1.609375 L 4.578125 -2.6875 C 4.609375 -2.828125 4.703125 -3.203125 4.75 -3.359375 C 4.796875 -3.59375 4.890625 -3.96875 4.890625 -4.03125 C 4.890625 -4.203125 4.75 -4.296875 4.609375 -4.296875 C 4.5625 -4.296875 4.296875 -4.28125 4.21875 -3.953125 C 4.03125 -3.21875 3.59375 -1.46875 3.46875 -0.953125 C 3.453125 -0.90625 3.0625 -0.109375 2.328125 -0.109375 C 1.8125 -0.109375 1.71875 -0.5625 1.71875 -0.921875 C 1.71875 -1.484375 2 -2.265625 2.25 -2.953125 C 2.375 -3.265625 2.421875 -3.40625 2.421875 -3.59375 C 2.421875 -4.03125 2.109375 -4.40625 1.609375 -4.40625 C 0.65625 -4.40625 0.296875 -2.953125 0.296875 -2.875 C 0.296875 -2.765625 0.390625 -2.765625 0.40625 -2.765625 C 0.515625 -2.765625 0.515625 -2.796875 0.5625 -2.953125 C 0.8125 -3.8125 1.203125 -4.1875 1.578125 -4.1875 C 1.671875 -4.1875 1.828125 -4.171875 1.828125 -3.859375 C 1.828125 -3.625 1.71875 -3.328125 1.65625 -3.1875 C 1.28125 -2.1875 1.078125 -1.578125 1.078125 -1.09375 C 1.078125 -0.140625 1.765625 0.109375 2.296875 0.109375 C 2.953125 0.109375 3.3125 -0.34375 3.484375 -0.5625 Z M 3.484375 -0.5625 "
           id="path5032" />
      </symbol>
      <symbol
         overflow="visible"
         id="symbol7163">
        <path
           style="stroke:none;"
           d=""
           id="path292" />
      </symbol>
      <symbol
         overflow="visible"
         id="symbol817">
        <path
           style="stroke:none;"
           d="M 1.90625 -2.328125 C 2.453125 -2.328125 2.84375 -1.953125 2.84375 -1.203125 C 2.84375 -0.34375 2.328125 -0.078125 1.9375 -0.078125 C 1.65625 -0.078125 1.03125 -0.15625 0.75 -0.578125 C 1.078125 -0.578125 1.15625 -0.8125 1.15625 -0.96875 C 1.15625 -1.1875 0.984375 -1.34375 0.765625 -1.34375 C 0.578125 -1.34375 0.375 -1.21875 0.375 -0.9375 C 0.375 -0.28125 1.09375 0.140625 1.9375 0.140625 C 2.90625 0.140625 3.578125 -0.515625 3.578125 -1.203125 C 3.578125 -1.75 3.140625 -2.296875 2.375 -2.453125 C 3.09375 -2.71875 3.359375 -3.234375 3.359375 -3.671875 C 3.359375 -4.21875 2.734375 -4.625 1.953125 -4.625 C 1.1875 -4.625 0.59375 -4.25 0.59375 -3.6875 C 0.59375 -3.453125 0.75 -3.328125 0.953125 -3.328125 C 1.171875 -3.328125 1.3125 -3.484375 1.3125 -3.671875 C 1.3125 -3.875 1.171875 -4.03125 0.953125 -4.046875 C 1.203125 -4.34375 1.671875 -4.421875 1.9375 -4.421875 C 2.25 -4.421875 2.6875 -4.265625 2.6875 -3.671875 C 2.6875 -3.375 2.59375 -3.046875 2.40625 -2.84375 C 2.1875 -2.578125 1.984375 -2.5625 1.640625 -2.53125 C 1.46875 -2.515625 1.453125 -2.515625 1.421875 -2.515625 C 1.40625 -2.515625 1.34375 -2.5 1.34375 -2.421875 C 1.34375 -2.328125 1.40625 -2.328125 1.53125 -2.328125 Z M 1.90625 -2.328125 "
           id="path3440" />
      </symbol>
    </g>
    <g
       id="g3667">
      <symbol
         overflow="visible"
         id="symbol2823">
        <path
           style="stroke:none;"
           d=""
           id="path3617" />
      </symbol>
      <symbol
         overflow="visible"
         id="symbol46">
        <path
           style="stroke:none;"
           d="M 5.359375 -5.9375 C 5.21875 -5.796875 4.890625 -5.515625 4.890625 -5.34375 C 4.890625 -5.25 4.984375 -5.140625 5.078125 -5.140625 C 5.171875 -5.140625 5.21875 -5.21875 5.28125 -5.28125 C 5.390625 -5.421875 5.625 -5.703125 6.0625 -5.921875 C 6.125 -5.96875 6.234375 -6.015625 6.234375 -6.125 C 6.234375 -6.234375 6.15625 -6.28125 6.09375 -6.328125 C 5.875 -6.484375 5.765625 -6.65625 5.6875 -6.890625 C 5.65625 -6.984375 5.625 -7.125 5.484375 -7.125 C 5.34375 -7.125 5.28125 -6.984375 5.28125 -6.90625 C 5.28125 -6.859375 5.359375 -6.546875 5.515625 -6.328125 L 2.15625 -6.328125 C 2 -6.328125 1.8125 -6.328125 1.8125 -6.125 C 1.8125 -5.9375 2 -5.9375 2.15625 -5.9375 Z M 5.359375 -5.9375 "
           id="path1636" />
      </symbol>
      <symbol
         overflow="visible"
         id="symbol6629">
        <path
           style="stroke:none;"
           d="M 3.484375 -0.5625 C 3.59375 -0.15625 3.953125 0.109375 4.375 0.109375 C 4.71875 0.109375 4.953125 -0.125 5.109375 -0.4375 C 5.28125 -0.796875 5.40625 -1.40625 5.40625 -1.421875 C 5.40625 -1.53125 5.328125 -1.53125 5.296875 -1.53125 C 5.1875 -1.53125 5.1875 -1.484375 5.15625 -1.34375 C 5.015625 -0.78125 4.828125 -0.109375 4.40625 -0.109375 C 4.203125 -0.109375 4.09375 -0.234375 4.09375 -0.5625 C 4.09375 -0.78125 4.21875 -1.25 4.296875 -1.609375 L 4.578125 -2.6875 C 4.609375 -2.828125 4.703125 -3.203125 4.75 -3.359375 C 4.796875 -3.59375 4.890625 -3.96875 4.890625 -4.03125 C 4.890625 -4.203125 4.75 -4.296875 4.609375 -4.296875 C 4.5625 -4.296875 4.296875 -4.28125 4.21875 -3.953125 C 4.03125 -3.21875 3.59375 -1.46875 3.46875 -0.953125 C 3.453125 -0.90625 3.0625 -0.109375 2.328125 -0.109375 C 1.8125 -0.109375 1.71875 -0.5625 1.71875 -0.921875 C 1.71875 -1.484375 2 -2.265625 2.25 -2.953125 C 2.375 -3.265625 2.421875 -3.40625 2.421875 -3.59375 C 2.421875 -4.03125 2.109375 -4.40625 1.609375 -4.40625 C 0.65625 -4.40625 0.296875 -2.953125 0.296875 -2.875 C 0.296875 -2.765625 0.390625 -2.765625 0.40625 -2.765625 C 0.515625 -2.765625 0.515625 -2.796875 0.5625 -2.953125 C 0.8125 -3.8125 1.203125 -4.1875 1.578125 -4.1875 C 1.671875 -4.1875 1.828125 -4.171875 1.828125 -3.859375 C 1.828125 -3.625 1.71875 -3.328125 1.65625 -3.1875 C 1.28125 -2.1875 1.078125 -1.578125 1.078125 -1.09375 C 1.078125 -0.140625 1.765625 0.109375 2.296875 0.109375 C 2.953125 0.109375 3.3125 -0.34375 3.484375 -0.5625 Z M 3.484375 -0.5625 "
           id="path1393" />
      </symbol>
      <symbol
         overflow="visible"
         id="symbol4604">
        <path
           style="stroke:none;"
           d=""
           id="path1864" />
      </symbol>
      <symbol
         overflow="visible"
         id="symbol5233">
        <path
           style="stroke:none;"
           d="M 1.90625 -2.328125 C 2.453125 -2.328125 2.84375 -1.953125 2.84375 -1.203125 C 2.84375 -0.34375 2.328125 -0.078125 1.9375 -0.078125 C 1.65625 -0.078125 1.03125 -0.15625 0.75 -0.578125 C 1.078125 -0.578125 1.15625 -0.8125 1.15625 -0.96875 C 1.15625 -1.1875 0.984375 -1.34375 0.765625 -1.34375 C 0.578125 -1.34375 0.375 -1.21875 0.375 -0.9375 C 0.375 -0.28125 1.09375 0.140625 1.9375 0.140625 C 2.90625 0.140625 3.578125 -0.515625 3.578125 -1.203125 C 3.578125 -1.75 3.140625 -2.296875 2.375 -2.453125 C 3.09375 -2.71875 3.359375 -3.234375 3.359375 -3.671875 C 3.359375 -4.21875 2.734375 -4.625 1.953125 -4.625 C 1.1875 -4.625 0.59375 -4.25 0.59375 -3.6875 C 0.59375 -3.453125 0.75 -3.328125 0.953125 -3.328125 C 1.171875 -3.328125 1.3125 -3.484375 1.3125 -3.671875 C 1.3125 -3.875 1.171875 -4.03125 0.953125 -4.046875 C 1.203125 -4.34375 1.671875 -4.421875 1.9375 -4.421875 C 2.25 -4.421875 2.6875 -4.265625 2.6875 -3.671875 C 2.6875 -3.375 2.59375 -3.046875 2.40625 -2.84375 C 2.1875 -2.578125 1.984375 -2.5625 1.640625 -2.53125 C 1.46875 -2.515625 1.453125 -2.515625 1.421875 -2.515625 C 1.40625 -2.515625 1.34375 -2.5 1.34375 -2.421875 C 1.34375 -2.328125 1.40625 -2.328125 1.53125 -2.328125 Z M 1.90625 -2.328125 "
           id="path4415" />
      </symbol>
    </g>
    <g
       id="g109">
      <symbol
         overflow="visible"
         id="symbol5754">
        <path
           style="stroke:none;"
           d=""
           id="path9861" />
      </symbol>
      <symbol
         overflow="visible"
         id="symbol9625">
        <path
           style="stroke:none;"
           d="M 5.359375 -5.9375 C 5.21875 -5.796875 4.890625 -5.515625 4.890625 -5.34375 C 4.890625 -5.25 4.984375 -5.140625 5.078125 -5.140625 C 5.171875 -5.140625 5.21875 -5.21875 5.28125 -5.28125 C 5.390625 -5.421875 5.625 -5.703125 6.0625 -5.921875 C 6.125 -5.96875 6.234375 -6.015625 6.234375 -6.125 C 6.234375 -6.234375 6.15625 -6.28125 6.09375 -6.328125 C 5.875 -6.484375 5.765625 -6.65625 5.6875 -6.890625 C 5.65625 -6.984375 5.625 -7.125 5.484375 -7.125 C 5.34375 -7.125 5.28125 -6.984375 5.28125 -6.90625 C 5.28125 -6.859375 5.359375 -6.546875 5.515625 -6.328125 L 2.15625 -6.328125 C 2 -6.328125 1.8125 -6.328125 1.8125 -6.125 C 1.8125 -5.9375 2 -5.9375 2.15625 -5.9375 Z M 5.359375 -5.9375 "
           id="path5908" />
      </symbol>
      <symbol
         overflow="visible"
         id="symbol9428">
        <path
           style="stroke:none;"
           d="M 3.484375 -0.5625 C 3.59375 -0.15625 3.953125 0.109375 4.375 0.109375 C 4.71875 0.109375 4.953125 -0.125 5.109375 -0.4375 C 5.28125 -0.796875 5.40625 -1.40625 5.40625 -1.421875 C 5.40625 -1.53125 5.328125 -1.53125 5.296875 -1.53125 C 5.1875 -1.53125 5.1875 -1.484375 5.15625 -1.34375 C 5.015625 -0.78125 4.828125 -0.109375 4.40625 -0.109375 C 4.203125 -0.109375 4.09375 -0.234375 4.09375 -0.5625 C 4.09375 -0.78125 4.21875 -1.25 4.296875 -1.609375 L 4.578125 -2.6875 C 4.609375 -2.828125 4.703125 -3.203125 4.75 -3.359375 C 4.796875 -3.59375 4.890625 -3.96875 4.890625 -4.03125 C 4.890625 -4.203125 4.75 -4.296875 4.609375 -4.296875 C 4.5625 -4.296875 4.296875 -4.28125 4.21875 -3.953125 C 4.03125 -3.21875 3.59375 -1.46875 3.46875 -0.953125 C 3.453125 -0.90625 3.0625 -0.109375 2.328125 -0.109375 C 1.8125 -0.109375 1.71875 -0.5625 1.71875 -0.921875 C 1.71875 -1.484375 2 -2.265625 2.25 -2.953125 C 2.375 -3.265625 2.421875 -3.40625 2.421875 -3.59375 C 2.421875 -4.03125 2.109375 -4.40625 1.609375 -4.40625 C 0.65625 -4.40625 0.296875 -2.953125 0.296875 -2.875 C 0.296875 -2.765625 0.390625 -2.765625 0.40625 -2.765625 C 0.515625 -2.765625 0.515625 -2.796875 0.5625 -2.953125 C 0.8125 -3.8125 1.203125 -4.1875 1.578125 -4.1875 C 1.671875 -4.1875 1.828125 -4.171875 1.828125 -3.859375 C 1.828125 -3.625 1.71875 -3.328125 1.65625 -3.1875 C 1.28125 -2.1875 1.078125 -1.578125 1.078125 -1.09375 C 1.078125 -0.140625 1.765625 0.109375 2.296875 0.109375 C 2.953125 0.109375 3.3125 -0.34375 3.484375 -0.5625 Z M 3.484375 -0.5625 "
           id="path582" />
      </symbol>
      <symbol
         overflow="visible"
         id="symbol7359">
        <path
           style="stroke:none;"
           d=""
           id="path8721" />
      </symbol>
      <symbol
         overflow="visible"
         id="symbol1371">
        <path
           style="stroke:none;"
           d="M 3.6875 -1.140625 L 3.6875 -1.390625 L 2.90625 -1.390625 L 2.90625 -4.5 C 2.90625 -4.640625 2.90625 -4.703125 2.765625 -4.703125 C 2.671875 -4.703125 2.640625 -4.703125 2.578125 -4.59375 L 0.265625 -1.390625 L 0.265625 -1.140625 L 2.328125 -1.140625 L 2.328125 -0.578125 C 2.328125 -0.328125 2.328125 -0.25 1.75 -0.25 L 1.5625 -0.25 L 1.5625 0 C 1.921875 -0.015625 2.359375 -0.03125 2.609375 -0.03125 C 2.875 -0.03125 3.3125 -0.015625 3.671875 0 L 3.671875 -0.25 L 3.484375 -0.25 C 2.90625 -0.25 2.90625 -0.328125 2.90625 -0.578125 L 2.90625 -1.140625 Z M 2.375 -3.9375 L 2.375 -1.390625 L 0.53125 -1.390625 Z M 2.375 -3.9375 "
           id="path4559" />
      </symbol>
    </g>
    <g
       id="g9010">
      <symbol
         overflow="visible"
         id="symbol882">
        <path
           style="stroke:none;"
           d=""
           id="path5501" />
      </symbol>
      <symbol
         overflow="visible"
         id="symbol2547">
        <path
           style="stroke:none;"
           d="M 5.359375 -5.9375 C 5.21875 -5.796875 4.890625 -5.515625 4.890625 -5.34375 C 4.890625 -5.25 4.984375 -5.140625 5.078125 -5.140625 C 5.171875 -5.140625 5.21875 -5.21875 5.28125 -5.28125 C 5.390625 -5.421875 5.625 -5.703125 6.0625 -5.921875 C 6.125 -5.96875 6.234375 -6.015625 6.234375 -6.125 C 6.234375 -6.234375 6.15625 -6.28125 6.09375 -6.328125 C 5.875 -6.484375 5.765625 -6.65625 5.6875 -6.890625 C 5.65625 -6.984375 5.625 -7.125 5.484375 -7.125 C 5.34375 -7.125 5.28125 -6.984375 5.28125 -6.90625 C 5.28125 -6.859375 5.359375 -6.546875 5.515625 -6.328125 L 2.15625 -6.328125 C 2 -6.328125 1.8125 -6.328125 1.8125 -6.125 C 1.8125 -5.9375 2 -5.9375 2.15625 -5.9375 Z M 5.359375 -5.9375 "
           id="path5722" />
      </symbol>
      <symbol
         overflow="visible"
         id="symbol3993">
        <path
           style="stroke:none;"
           d="M 3.484375 -0.5625 C 3.59375 -0.15625 3.953125 0.109375 4.375 0.109375 C 4.71875 0.109375 4.953125 -0.125 5.109375 -0.4375 C 5.28125 -0.796875 5.40625 -1.40625 5.40625 -1.421875 C 5.40625 -1.53125 5.328125 -1.53125 5.296875 -1.53125 C 5.1875 -1.53125 5.1875 -1.484375 5.15625 -1.34375 C 5.015625 -0.78125 4.828125 -0.109375 4.40625 -0.109375 C 4.203125 -0.109375 4.09375 -0.234375 4.09375 -0.5625 C 4.09375 -0.78125 4.21875 -1.25 4.296875 -1.609375 L 4.578125 -2.6875 C 4.609375 -2.828125 4.703125 -3.203125 4.75 -3.359375 C 4.796875 -3.59375 4.890625 -3.96875 4.890625 -4.03125 C 4.890625 -4.203125 4.75 -4.296875 4.609375 -4.296875 C 4.5625 -4.296875 4.296875 -4.28125 4.21875 -3.953125 C 4.03125 -3.21875 3.59375 -1.46875 3.46875 -0.953125 C 3.453125 -0.90625 3.0625 -0.109375 2.328125 -0.109375 C 1.8125 -0.109375 1.71875 -0.5625 1.71875 -0.921875 C 1.71875 -1.484375 2 -2.265625 2.25 -2.953125 C 2.375 -3.265625 2.421875 -3.40625 2.421875 -3.59375 C 2.421875 -4.03125 2.109375 -4.40625 1.609375 -4.40625 C 0.65625 -4.40625 0.296875 -2.953125 0.296875 -2.875 C 0.296875 -2.765625 0.390625 -2.765625 0.40625 -2.765625 C 0.515625 -2.765625 0.515625 -2.796875 0.5625 -2.953125 C 0.8125 -3.8125 1.203125 -4.1875 1.578125 -4.1875 C 1.671875 -4.1875 1.828125 -4.171875 1.828125 -3.859375 C 1.828125 -3.625 1.71875 -3.328125 1.65625 -3.1875 C 1.28125 -2.1875 1.078125 -1.578125 1.078125 -1.09375 C 1.078125 -0.140625 1.765625 0.109375 2.296875 0.109375 C 2.953125 0.109375 3.3125 -0.34375 3.484375 -0.5625 Z M 3.484375 -0.5625 "
           id="path1832" />
      </symbol>
      <symbol
         overflow="visible"
         id="symbol3370">
        <path
           style="stroke:none;"
           d=""
           id="path5299" />
      </symbol>
      <symbol
         overflow="visible"
         id="symbol8831">
        <path
           style="stroke:none;"
           d="M 3.515625 -1.265625 L 3.28125 -1.265625 C 3.265625 -1.109375 3.1875 -0.703125 3.09375 -0.640625 C 3.046875 -0.59375 2.515625 -0.59375 2.40625 -0.59375 L 1.125 -0.59375 C 1.859375 -1.234375 2.109375 -1.4375 2.515625 -1.765625 C 3.03125 -2.171875 3.515625 -2.609375 3.515625 -3.265625 C 3.515625 -4.109375 2.78125 -4.625 1.890625 -4.625 C 1.03125 -4.625 0.4375 -4.015625 0.4375 -3.375 C 0.4375 -3.03125 0.734375 -2.984375 0.8125 -2.984375 C 0.96875 -2.984375 1.171875 -3.109375 1.171875 -3.359375 C 1.171875 -3.484375 1.125 -3.734375 0.765625 -3.734375 C 0.984375 -4.21875 1.453125 -4.375 1.78125 -4.375 C 2.484375 -4.375 2.84375 -3.828125 2.84375 -3.265625 C 2.84375 -2.65625 2.40625 -2.1875 2.1875 -1.9375 L 0.515625 -0.265625 C 0.4375 -0.203125 0.4375 -0.1875 0.4375 0 L 3.3125 0 Z M 3.515625 -1.265625 "
           id="path1692" />
      </symbol>
    </g>
    <g
       id="g7542">
      <symbol
         overflow="visible"
         id="symbol5682">
        <path
           style="stroke:none;"
           d=""
           id="path7830" />
      </symbol>
      <symbol
         overflow="visible"
         id="symbol4512">
        <path
           style="stroke:none;"
           d="M 5.359375 -5.9375 C 5.21875 -5.796875 4.890625 -5.515625 4.890625 -5.34375 C 4.890625 -5.25 4.984375 -5.140625 5.078125 -5.140625 C 5.171875 -5.140625 5.21875 -5.21875 5.28125 -5.28125 C 5.390625 -5.421875 5.625 -5.703125 6.0625 -5.921875 C 6.125 -5.96875 6.234375 -6.015625 6.234375 -6.125 C 6.234375 -6.234375 6.15625 -6.28125 6.09375 -6.328125 C 5.875 -6.484375 5.765625 -6.65625 5.6875 -6.890625 C 5.65625 -6.984375 5.625 -7.125 5.484375 -7.125 C 5.34375 -7.125 5.28125 -6.984375 5.28125 -6.90625 C 5.28125 -6.859375 5.359375 -6.546875 5.515625 -6.328125 L 2.15625 -6.328125 C 2 -6.328125 1.8125 -6.328125 1.8125 -6.125 C 1.8125 -5.9375 2 -5.9375 2.15625 -5.9375 Z M 5.359375 -5.9375 "
           id="path3468" />
      </symbol>
      <symbol
         overflow="visible"
         id="symbol2057">
        <path
           style="stroke:none;"
           d="M 3.484375 -0.5625 C 3.59375 -0.15625 3.953125 0.109375 4.375 0.109375 C 4.71875 0.109375 4.953125 -0.125 5.109375 -0.4375 C 5.28125 -0.796875 5.40625 -1.40625 5.40625 -1.421875 C 5.40625 -1.53125 5.328125 -1.53125 5.296875 -1.53125 C 5.1875 -1.53125 5.1875 -1.484375 5.15625 -1.34375 C 5.015625 -0.78125 4.828125 -0.109375 4.40625 -0.109375 C 4.203125 -0.109375 4.09375 -0.234375 4.09375 -0.5625 C 4.09375 -0.78125 4.21875 -1.25 4.296875 -1.609375 L 4.578125 -2.6875 C 4.609375 -2.828125 4.703125 -3.203125 4.75 -3.359375 C 4.796875 -3.59375 4.890625 -3.96875 4.890625 -4.03125 C 4.890625 -4.203125 4.75 -4.296875 4.609375 -4.296875 C 4.5625 -4.296875 4.296875 -4.28125 4.21875 -3.953125 C 4.03125 -3.21875 3.59375 -1.46875 3.46875 -0.953125 C 3.453125 -0.90625 3.0625 -0.109375 2.328125 -0.109375 C 1.8125 -0.109375 1.71875 -0.5625 1.71875 -0.921875 C 1.71875 -1.484375 2 -2.265625 2.25 -2.953125 C 2.375 -3.265625 2.421875 -3.40625 2.421875 -3.59375 C 2.421875 -4.03125 2.109375 -4.40625 1.609375 -4.40625 C 0.65625 -4.40625 0.296875 -2.953125 0.296875 -2.875 C 0.296875 -2.765625 0.390625 -2.765625 0.40625 -2.765625 C 0.515625 -2.765625 0.515625 -2.796875 0.5625 -2.953125 C 0.8125 -3.8125 1.203125 -4.1875 1.578125 -4.1875 C 1.671875 -4.1875 1.828125 -4.171875 1.828125 -3.859375 C 1.828125 -3.625 1.71875 -3.328125 1.65625 -3.1875 C 1.28125 -2.1875 1.078125 -1.578125 1.078125 -1.09375 C 1.078125 -0.140625 1.765625 0.109375 2.296875 0.109375 C 2.953125 0.109375 3.3125 -0.34375 3.484375 -0.5625 Z M 3.484375 -0.5625 "
           id="path3159" />
      </symbol>
      <symbol
         overflow="visible"
         id="symbol1320">
        <path
           style="stroke:none;"
           d=""
           id="path9989" />
      </symbol>
      <symbol
         overflow="visible"
         id="symbol7732">
        <path
           style="stroke:none;"
           d="M 2.328125 -4.4375 C 2.328125 -4.625 2.328125 -4.625 2.125 -4.625 C 1.671875 -4.1875 1.046875 -4.1875 0.765625 -4.1875 L 0.765625 -3.9375 C 0.921875 -3.9375 1.390625 -3.9375 1.765625 -4.125 L 1.765625 -0.578125 C 1.765625 -0.34375 1.765625 -0.25 1.078125 -0.25 L 0.8125 -0.25 L 0.8125 0 C 0.9375 0 1.796875 -0.03125 2.046875 -0.03125 C 2.265625 -0.03125 3.140625 0 3.296875 0 L 3.296875 -0.25 L 3.03125 -0.25 C 2.328125 -0.25 2.328125 -0.34375 2.328125 -0.578125 Z M 2.328125 -4.4375 "
           id="path5247" />
      </symbol>
    </g>
    <g
       id="g5489">
      <symbol
         overflow="visible"
         id="symbol6317">
        <path
           style="stroke:none;"
           d=""
           id="path3135" />
      </symbol>
      <symbol
         overflow="visible"
         id="symbol1568">
        <path
           style="stroke:none;"
           d="M 5.359375 -5.9375 C 5.21875 -5.796875 4.890625 -5.515625 4.890625 -5.34375 C 4.890625 -5.25 4.984375 -5.140625 5.078125 -5.140625 C 5.171875 -5.140625 5.21875 -5.21875 5.28125 -5.28125 C 5.390625 -5.421875 5.625 -5.703125 6.0625 -5.921875 C 6.125 -5.96875 6.234375 -6.015625 6.234375 -6.125 C 6.234375 -6.234375 6.15625 -6.28125 6.09375 -6.328125 C 5.875 -6.484375 5.765625 -6.65625 5.6875 -6.890625 C 5.65625 -6.984375 5.625 -7.125 5.484375 -7.125 C 5.34375 -7.125 5.28125 -6.984375 5.28125 -6.90625 C 5.28125 -6.859375 5.359375 -6.546875 5.515625 -6.328125 L 2.15625 -6.328125 C 2 -6.328125 1.8125 -6.328125 1.8125 -6.125 C 1.8125 -5.9375 2 -5.9375 2.15625 -5.9375 Z M 5.359375 -5.9375 "
           id="path5294" />
      </symbol>
      <symbol
         overflow="visible"
         id="symbol8153">
        <path
           style="stroke:none;"
           d="M 4.671875 -3.703125 C 4.671875 -4.25 4.40625 -4.40625 4.234375 -4.40625 C 3.984375 -4.40625 3.734375 -4.140625 3.734375 -3.921875 C 3.734375 -3.796875 3.78125 -3.734375 3.890625 -3.625 C 4.109375 -3.421875 4.234375 -3.171875 4.234375 -2.8125 C 4.234375 -2.390625 3.625 -0.109375 2.46875 -0.109375 C 1.953125 -0.109375 1.71875 -0.453125 1.71875 -0.984375 C 1.71875 -1.53125 2 -2.265625 2.296875 -3.09375 C 2.375 -3.265625 2.421875 -3.40625 2.421875 -3.59375 C 2.421875 -4.03125 2.109375 -4.40625 1.609375 -4.40625 C 0.671875 -4.40625 0.296875 -2.953125 0.296875 -2.875 C 0.296875 -2.765625 0.390625 -2.765625 0.40625 -2.765625 C 0.515625 -2.765625 0.515625 -2.796875 0.5625 -2.953125 C 0.859375 -3.953125 1.28125 -4.1875 1.578125 -4.1875 C 1.65625 -4.1875 1.828125 -4.1875 1.828125 -3.875 C 1.828125 -3.625 1.71875 -3.34375 1.65625 -3.171875 C 1.21875 -2.015625 1.09375 -1.5625 1.09375 -1.125 C 1.09375 -0.046875 1.96875 0.109375 2.421875 0.109375 C 4.09375 0.109375 4.671875 -3.1875 4.671875 -3.703125 Z M 4.671875 -3.703125 "
           id="path1479" />
      </symbol>
    </g>
  </defs>
  <g
     inkscape:label="Layer 1"
     inkscape:groupmode="layer"
     id="layer1">
    <path
       sodipodi:type="star"
       style="fill-opacity:0.44466245;stroke:#595959;stroke-width:1.00157481;stroke-miterlimit:4;stroke-dasharray:none;stroke-linejoin:miter;stroke-linecap:square;fill:#c6f6fa;opacity:1;stroke-opacity:1"
       id="path850"
       inkscape:flatsided="true"
       sodipodi:sides="9"
       sodipodi:cx="170.93044"
       sodipodi:cy="95.67218"
       sodipodi:r1="56.670692"
       sodipodi:r2="44.271446"
       sodipodi:arg1="-0.31095503"
       sodipodi:arg2="0.038110762"
       inkscape:rounded="0.39"
       inkscape:randomized="0.506"
       d="m 222.89114,66.243687 c 6.65581,9.481501 20.54997,40.259403 22.59474,52.040453 2.04477,11.78106 -28.91084,11.48815 -45.39469,20.79863 -16.48385,9.31049 -29.15098,45.06572 -45.05214,34.89958 -15.90116,-10.16615 -3.22853,-44.55136 -9.39779,-62.05664 -6.16926,-17.505282 -9.41174,16.40007 -17.45837,7.78154 -8.04663,-8.61852 -31.620492,-32.66291 -13.84971,-33.979193 17.77079,-1.316283 14.55915,-64.290769 23.32521,-71.593782 8.76606,-7.3030121 46.78932,9.986347 52.14902,20.300539 5.35969,10.314192 26.42793,22.327371 33.08373,31.808873 z"
       transform="scale(0.26458333)"
       inkscape:transform-center-x="0.020995803"
       inkscape:transform-center-y="-0.35517975" />
    <path
       sodipodi:type="star"
       style="opacity:1;fill:#c6f6fa;fill-opacity:0.444662;stroke:#595959;stroke-width:1.00157;stroke-linecap:butt;stroke-linejoin:miter;stroke-miterlimit:4;stroke-dasharray:none;stroke-opacity:1"
       id="path19481"
       inkscape:flatsided="true"
       sodipodi:sides="9"
       sodipodi:cx="200.98978"
       sodipodi:cy="306.5545"
       sodipodi:r1="48.486172"
       sodipodi:r2="45.562096"
       sodipodi:arg1="-0.58439501"
       sodipodi:arg2="-0.23532916"
       inkscape:rounded="0.39"
       inkscape:randomized="0.506"
       d="m 260.05977,296.51275 c 2.60627,10.85994 -8.15701,-1.2631 -3.60466,13.61698 4.55235,14.88007 -44.17786,10.54827 -46.00916,24.38265 -1.8313,13.83438 2.3293,1.90662 -7.56977,-1.87397 -9.89907,-3.78059 -26.13625,5.03292 -28.55063,-9.65478 -2.41437,-14.6877 -21.7756,24.18745 -23.75116,8.3542 -1.97556,-15.83325 -7.36313,-58.40166 -8.71634,-68.10908 -1.35321,-9.70743 50.49465,23.66686 59.13311,18.60717 8.63846,-5.0597 9.33901,-34.18087 20.6931,-27.30381 11.3541,6.87706 35.76924,31.12069 38.37551,41.98064 z"
       transform="scale(0.26458333)"
       inkscape:transform-center-x="-0.043020711"
       inkscape:transform-center-y="-2.4602563" />
    <path
       sodipodi:type="star"
       style="opacity:1;fill:#c6f6fa;fill-opacity:0.444662;stroke:#5a5a5a;stroke-width:1.00157;stroke-linecap:butt;stroke-linejoin:miter;stroke-miterlimit:4;stroke-dasharray:none;stroke-opacity:1"
       id="path19483"
       inkscape:flatsided="true"
       sodipodi:sides="9"
       sodipodi:cx="390.02243"
       sodipodi:cy="148.37869"
       sodipodi:r1="42.590382"
       sodipodi:r2="40.021866"
       sodipodi:arg1="-0.88618437"
       sodipodi:arg2="-0.53711852"
       inkscape:rounded="0.39"
       inkscape:randomized="0.506"
       d="m 406.71749,114.83849 c 13.99373,-0.77687 21.62869,-0.42474 21.9916,9.65964 0.36292,10.08439 8.45289,25.30204 10.16339,35.40298 1.71051,10.10094 -8.11551,50.36508 -16.04502,46.9628 -7.92951,-3.40229 -18.47601,-28.53864 -29.43769,-28.48192 -10.96169,0.0567 -21.62694,-1.8965 -23.49779,-10.25 -1.87084,-8.3535 -8.84452,-18.82555 -9.44773,-29.3983 -0.6032,-10.57274 -9.6939,3.51608 -7.49493,-6.9475 2.19898,-10.46359 16.25346,-7.55006 25.9969,-10.78138 9.74344,-3.23133 13.77754,-5.38945 27.77127,-6.16632 z"
       transform="matrix(0.26458333,0,0,0.26458333,7.0400973,-8.8895112)"
       inkscape:transform-center-x="-1.5386407"
       inkscape:transform-center-y="3.2922784" />
    <path
       sodipodi:type="star"
       style="opacity:1;fill:#c6f6fa;fill-opacity:0.444662;stroke:#595959;stroke-width:1.00157;stroke-linecap:butt;stroke-linejoin:miter;stroke-miterlimit:4;stroke-dasharray:none;stroke-opacity:1"
       id="path19487"
       inkscape:flatsided="true"
       sodipodi:sides="9"
       sodipodi:cx="392.99512"
       sodipodi:cy="280.98138"
       sodipodi:r1="54.617668"
       sodipodi:r2="51.323818"
       sodipodi:arg1="0.90097733"
       sodipodi:arg2="1.2500432"
       inkscape:rounded="0.39"
       inkscape:randomized="0.506"
       d="m 407.16333,319.73439 c -13.50639,7.9646 -12.7921,34.66545 -28.42231,28.22616 -15.63021,-6.43928 8.27685,-31.01639 -2.85461,-39.14088 -11.13147,-8.12449 -46.30904,-0.001 -40.8089,-14.04316 5.50014,-14.04178 19.91187,-18.47339 32.51403,-25.69437 12.60215,-7.22098 -18.42907,-55.45778 -11.36466,-66.36332 7.06441,-10.90553 35.42053,28.9571 52.31977,29.98718 16.89925,1.03009 57.13882,-3.52143 55.9815,9.95921 -1.15732,13.48064 7.60846,21.01371 9.47514,36.39497 1.86668,15.38125 -53.33357,32.7096 -66.83996,40.67421 z"
       transform="scale(0.26458333)"
       inkscape:transform-center-x="-2.984131"
       inkscape:transform-center-y="-1.6111341" />
    <path
       style="fill:none;stroke:#747474;stroke-width:0.247769;stroke-linecap:butt;stroke-linejoin:miter;stroke-miterlimit:4;stroke-dasharray:0.743307, 0.743307;stroke-opacity:1;marker-start:url(#Arrow1Lstart);stroke-dashoffset:0"
       d="M 73.440248,4.3686685 58.935583,17.352692 Z"
       id="path19817"
       sodipodi:nodetypes="ccc" />
    <path
       style="fill:none;stroke:#737373;stroke-width:0.26499999;stroke-linecap:butt;stroke-linejoin:miter;stroke-miterlimit:4;stroke-dasharray:1.05999995, 0.52999997;stroke-opacity:1;marker-start:url(#Arrow1Lstart-3);stroke-dashoffset:0"
       d="M 72.957297,101.64833 58.625988,86.239374 Z"
       id="path19817-7"
       sodipodi:nodetypes="ccc" />
    <path
       style="fill:none;stroke:#717171;stroke-width:0.323935;stroke-linecap:butt;stroke-linejoin:miter;stroke-miterlimit:4;stroke-dasharray:0.97180499, 0.97180499;stroke-opacity:1;marker-start:url(#Arrow1Lstart-5);stroke-dashoffset:0"
       d="M 102.83281,2.3644553 114.65077,21.494839 Z"
       id="path19817-5"
       sodipodi:nodetypes="ccc" />
    <path
       style="fill:none;stroke:#737373;stroke-width:0.283;stroke-linecap:butt;stroke-linejoin:miter;stroke-miterlimit:4;stroke-dasharray:1.13200001,0.566;stroke-opacity:1;marker-start:url(#Arrow1Lstart-6);stroke-dashoffset:0"
       d="M 149.3033,75.534453 125.20607,74.524761 Z"
       id="path19817-9"
       sodipodi:nodetypes="ccc" />
    <path
       style="fill:none;stroke:#000000;stroke-width:0.264583px;stroke-linecap:butt;stroke-linejoin:miter;stroke-opacity:1;marker-end:url(#Arrow1Lend)"
       d="m 106.29223,30.926137 c 2.08831,-0.190246 3.63616,1.966137 3.52346,3.862744 -0.32906,5.537697 -2.67915,10.67165 -4.93854,15.644872 -1.18547,2.609383 -2.05214,5.342238 -3.03567,8.030208 -0.48817,1.334166 -1.41174,2.600321 -1.41693,4.023984 -0.004,1.023453 1.93173,0.706349 0.58612,2.011019 -0.51529,0.499612 -2.515139,1.375642 -1.909623,1.566555 0.837583,0.264081 2.662293,-0.665258 2.260183,1.255762 -0.20386,0.973912 2.34403,0.979296 1.05016,2.050549 -0.93412,0.773401 -3.156557,1.37187 -2.662285,2.534478 0.473285,1.113243 2.121835,1.155322 3.219235,1.264525 1.38436,0.137758 3.0382,0.803201 4.20611,-0.0089 0.73232,-0.509185 -0.90171,0.604413 -1.15805,0.802132 -1.20475,0.92923 -2.4467,1.834373 -3.98758,2.164013 -2.379951,0.509141 -4.811343,0.518781 -7.215462,0.945588 -7.129683,1.265743 -14.391936,0.588353 -21.587424,0.52717 -3.425769,-0.02913 -6.961086,-0.187101 -10.262899,0.834297 -2.894082,0.895269 -5.777113,2.247125 -8.920407,1.838834 -2.159128,-0.280455 -4.529438,-2.506993 -6.378532,-1.345157 -1.175391,0.73853 -2.393933,0.888778 -3.831825,0.46747 -1.039344,-0.304532 -3.491886,-1.380507 -2.367042,-2.445152 0.794322,-0.751812 1.214874,-1.307919 1.277632,-2.541675 0.693123,-13.626164 -0.944148,-27.386472 1.042116,-40.906407 0.484694,-3.299175 1.808998,-6.605517 1.197843,-9.961752 -0.309154,-1.697759 -1.71042,-3.548128 -3.617834,-3.267545 -2.515779,0.370074 -4.06013,2.906122 -6.398852,3.588934 -1.381558,0.403359 -1.301973,-2.046088 -0.754762,-2.864438 1.369475,-2.048038 3.934034,-2.708873 5.997368,-3.850692 1.03723,-0.573988 2.874866,-0.615049 3.161425,-1.837892 0.207655,-0.886135 -2.813997,-2.892005 -1.777579,-1.744287 0.875565,0.969591 2.239301,1.305436 3.431538,1.742653 2.745528,1.00684 5.768994,1.66047 7.905292,3.912872 0.781739,0.824225 1.316715,2.103769 0.549592,3.166807 -0.703918,0.975451 -2.180978,2.812199 -0.857696,3.667075 1.641003,1.060132 4.235918,0.771936 5.286796,2.445694 1.156626,1.842186 1.588998,4.015345 2.794152,5.858749 3.038994,4.648444 6.703406,8.843553 9.970633,13.325097"
       id="path22013"
       inkscape:path-effect="#path-effect22015"
       inkscape:original-d="m 106.29223,30.926137 c 2.35845,-0.164949 3.72801,2.303606 3.50128,4.480198 -0.82983,7.96662 -5.12027,14.143021 -7.41609,21.521991 -0.56929,1.82975 -1.4356,3.622736 -1.92985,5.401762 -0.23737,0.854427 1.43521,1.516216 1.35089,1.616279 -0.21636,0.256773 -3.005045,1.871472 -2.839619,2.027441 0.619154,0.583766 3.600809,-0.434247 2.508789,1.148395 -0.78428,1.13665 2.05301,1.02539 1.18547,2.041612 -0.32171,0.376854 -3.507194,2.286434 -2.812046,3.090778 0.679166,0.785847 6.438616,1.520921 7.333396,0.907386 1.27528,-0.87444 -1.61614,1.074399 -2.1504,1.545389 -2.27782,2.008076 -5.837496,1.630397 -8.629138,2.055783 -4.770848,1.03626 -10.020217,1.231617 -14.942479,1.134226 -5.468243,-0.108193 -10.992018,-0.706094 -16.431213,0.0709 -3.236382,0.46232 -5.933802,2.287013 -9.208096,2.410228 -2.7476,0.103395 -5.242937,-1.16467 -7.829637,-1.460317 -0.884112,-0.10105 -1.491931,0.926926 -2.233102,0.850669 -2.914065,-0.29982 -6.407225,-1.886975 -3.087744,-3.89891 0.825929,-13.841058 -0.256552,-27.860818 1.047628,-41.753796 0.292318,-3.113959 2.396361,-8.830116 0.854642,-11.810155 -3.081309,-5.955964 -9.534444,3.113791 -10.365998,1.474499 -2.453293,-4.836317 8.02629,-6.771333 9.070249,-8.180624 0.444118,-0.599536 -0.585893,-2.75756 -1.26818,-2.523659 -2.03116,0.696322 3.601166,2.453675 5.651675,3.090771 1.759925,0.546813 3.556926,1.213116 4.852169,2.580372 3.341508,3.527286 -0.358399,3.548201 -0.358399,6.649412 0,1.258099 5.092085,1.979914 5.84466,3.218379 0.923083,1.519059 1.253853,3.360032 2.177963,4.891357 2.662717,4.412337 8.359777,11.120587 10.503843,14.177864" />
    <g
       inkscape:label=""
       transform="matrix(0.6122857,0,0,0.6122857,53.556483,-37.49149)"
       id="g81574"
       style="fill:#727272;fill-opacity:1">
      <g
         id="g6047"
         style="fill:#727272;fill-opacity:1">
        <g
           style="fill:#727272;fill-opacity:1"
           id="g5537">
          <use
             xlink:href="#symbol46"
             x="91.796997"
             y="81.962997"
             id="use872"
             width="100%"
             height="100%"
             style="fill:#727272;fill-opacity:1" />
        </g>
        <g
           style="fill:#727272;fill-opacity:1"
           id="g2934">
          <use
             xlink:href="#symbol6629"
             x="91.926514"
             y="81.962997"
             id="use3069"
             width="100%"
             height="100%"
             style="fill:#727272;fill-opacity:1" />
        </g>
        <g
           style="fill:#727272;fill-opacity:1"
           id="g2685">
          <use
             xlink:href="#symbol5233"
             x="97.627998"
             y="83.457001"
             id="use465"
             width="100%"
             height="100%"
             style="fill:#727272;fill-opacity:1" />
        </g>
      </g>
    </g>
    <g
       inkscape:label=""
       transform="matrix(0.60492011,0,0,0.60492011,3.4987026,-39.996121)"
       id="g92807"
       style="fill:#727272;fill-opacity:1">
      <g
         id="g9814"
         style="fill:#727272;fill-opacity:1">
        <g
           style="fill:#727272;fill-opacity:1"
           id="g7419">
          <use
             xlink:href="#symbol9625"
             x="91.796997"
             y="81.962997"
             id="use875"
             width="100%"
             height="100%"
             style="fill:#727272;fill-opacity:1" />
        </g>
        <g
           style="fill:#727272;fill-opacity:1"
           id="g7272">
          <use
             xlink:href="#symbol9428"
             x="91.926514"
             y="81.962997"
             id="use5195"
             width="100%"
             height="100%"
             style="fill:#727272;fill-opacity:1" />
        </g>
        <g
           style="fill:#727272;fill-opacity:1"
           id="g6979">
          <use
             xlink:href="#symbol1371"
             x="97.627998"
             y="83.457001"
             id="use9979"
             width="100%"
             height="100%"
             style="fill:#727272;fill-opacity:1" />
        </g>
      </g>
    </g>
    <g
       inkscape:label=""
       transform="matrix(0.61657571,0,0,0.61657571,75.913197,22.752075)"
       id="g93064"
       style="fill:#727272;fill-opacity:1">
      <g
         id="g5389"
         style="fill:#727272;fill-opacity:1">
        <g
           style="fill:#727272;fill-opacity:1"
           id="g1776">
          <use
             xlink:href="#symbol2547"
             x="91.796997"
             y="81.962997"
             id="use7902"
             width="100%"
             height="100%"
             style="fill:#727272;fill-opacity:1" />
        </g>
        <g
           style="fill:#727272;fill-opacity:1"
           id="g5222">
          <use
             xlink:href="#symbol3993"
             x="91.926514"
             y="81.962997"
             id="use5564"
             width="100%"
             height="100%"
             style="fill:#727272;fill-opacity:1" />
        </g>
        <g
           style="fill:#727272;fill-opacity:1"
           id="g5233">
          <use
             xlink:href="#symbol8831"
             x="97.627998"
             y="83.457001"
             id="use4927"
             width="100%"
             height="100%"
             style="fill:#727272;fill-opacity:1" />
        </g>
      </g>
    </g>
    <g
       inkscape:label=""
       transform="matrix(0.63207604,0,0,0.63207604,-4.5195019,46.258778)"
       id="g93359"
       style="fill:#727272;fill-opacity:1">
      <g
         id="g629"
         style="fill:#727272;fill-opacity:1">
        <g
           style="fill:#727272;fill-opacity:1"
           id="g3347"
           transform="translate(7.6833305,-1.8821717)">
          <use
             xlink:href="#symbol4512"
             x="91.796997"
             y="81.962997"
             id="use7858"
             width="100%"
             height="100%"
             style="fill:#727272;fill-opacity:1" />
        </g>
        <g
           style="fill:#727272;fill-opacity:1"
           id="g8774"
           transform="translate(7.6833305,-1.8821717)">
          <use
             xlink:href="#symbol2057"
             x="91.926514"
             y="81.962997"
             id="use876"
             width="100%"
             height="100%"
             style="fill:#727272;fill-opacity:1" />
        </g>
        <g
           style="fill:#727272;fill-opacity:1"
           id="g9021"
           transform="translate(7.6833305,-1.8821717)">
          <use
             xlink:href="#symbol7732"
             x="97.627998"
             y="83.457001"
             id="use5749"
             width="100%"
             height="100%"
             style="fill:#727272;fill-opacity:1" />
        </g>
      </g>
    </g>
    <g
       inkscape:label=""
       transform="translate(-26.027999,-40.622831)"
       id="g93840">
      <g
         id="g3815">
        <g
           style="fill:#000000;fill-opacity:1"
           id="g8107">
          <use
             xlink:href="#symbol1568"
             x="91.538002"
             y="81.962997"
             id="use3840"
             width="100%"
             height="100%" />
        </g>
        <g
           style="fill:#000000;fill-opacity:1"
           id="g630">
          <use
             xlink:href="#symbol8153"
             x="91.926544"
             y="81.962997"
             id="use7169"
             width="100%"
             height="100%" />
        </g>
      </g>
    </g>
  </g>
</svg>
